<svg width="32" height="32" viewBox="0 0 32 32" fill="none" xmlns="http://www.w3.org/2000/svg">
<path fill-rule="evenodd" clip-rule="evenodd" d="M16.5051 27.2786C16.1639 27.2784 15.8262 27.2097 15.5121 27.0765C15.198 26.9433 14.9138 26.7483 14.6765 26.5032L5.67944 17.2434C5.43863 16.9956 5.27659 16.682 5.21377 16.3423C5.15095 16.0025 5.19015 15.6517 5.32644 15.3342C5.33523 15.3132 5.34451 15.2927 5.35427 15.2722H5.30688C4.89237 15.2718 4.48821 15.1427 4.15018 14.9028C3.81214 14.6629 3.5569 14.324 3.41967 13.9329C3.08766 12.9891 2.95032 11.9878 3.01595 10.9895C3.08158 9.99113 3.34881 9.01645 3.80151 8.12424C4.34571 7.06466 5.13156 6.14799 6.09555 5.4483C7.05955 4.74861 8.17463 4.28553 9.35069 4.0965C10.5268 3.90746 11.7308 3.99777 12.8655 4.36012C14.0002 4.72248 15.0337 5.34671 15.8826 6.18237L16.4993 6.74437L17.1589 6.14281C18.0098 5.3173 19.0422 4.70255 20.1735 4.34781C21.3047 3.99307 22.5033 3.90821 23.6732 4.10001C24.8431 4.29182 25.9518 4.75497 26.9105 5.45235C27.8693 6.14973 28.6513 7.06196 29.1941 8.11596C29.6488 9.00933 29.9172 9.98585 29.9828 10.9862C30.0485 11.9865 29.91 12.9897 29.5759 13.9348C29.4384 14.3251 29.1831 14.663 28.8454 14.9021C28.5076 15.1411 28.104 15.2694 27.6902 15.2692H27.654C27.6677 15.2971 27.6804 15.3254 27.6921 15.3542C27.8221 15.6685 27.8578 16.0139 27.7949 16.3481C27.7319 16.6824 27.573 16.9911 27.3376 17.2366L18.3308 26.5061C18.0935 26.7503 17.8097 26.9444 17.4961 27.0771C17.1826 27.2098 16.8456 27.2783 16.5051 27.2786ZM17.9431 18.0637L17.9695 18.0041C17.9558 18.0051 17.9197 18.0051 17.9158 18.0051L17.9431 18.0637Z" fill="white"/>
<path fill-rule="evenodd" clip-rule="evenodd" d="M26.0191 6.65889C26.7926 7.21931 27.4235 7.95374 27.861 8.80289C28.2217 9.51453 28.4343 10.2919 28.4861 11.0881C28.5378 11.8842 28.4275 12.6826 28.162 13.4349C28.1275 13.5326 28.0636 13.6172 27.9791 13.677C27.8945 13.7368 27.7935 13.7689 27.69 13.7688H20.2789C19.989 13.769 19.7053 13.8531 19.4622 14.011C19.2191 14.169 19.0269 14.394 18.9089 14.6588L18.1549 16.3588C18.1351 16.4025 18.1031 16.4396 18.0627 16.4655C18.0224 16.4915 17.9754 16.5053 17.9274 16.5053C17.8795 16.5053 17.8325 16.4915 17.7922 16.4655C17.7518 16.4396 17.7198 16.4025 17.6999 16.3588L15.7389 12.1518C15.6263 11.9107 15.4515 11.7039 15.2326 11.5526C15.0136 11.4013 14.7583 11.3109 14.4929 11.2908C14.2272 11.2687 13.9604 11.3188 13.7207 11.4356C13.481 11.5525 13.2772 11.7319 13.1309 11.9548L12.0689 13.5488C12.0233 13.6174 11.9615 13.6736 11.8889 13.7125C11.8163 13.7514 11.7353 13.7718 11.6529 13.7718H5.30695C5.20341 13.7717 5.10249 13.7393 5.01812 13.6793C4.93375 13.6193 4.87009 13.5346 4.83595 13.4368C4.57035 12.6841 4.46026 11.8853 4.51234 11.0888C4.56442 10.2923 4.77759 9.51459 5.13895 8.80284C5.57638 7.95368 6.20733 7.21926 6.98087 6.65885C7.75441 6.09844 8.64887 5.72776 9.59206 5.57671C10.5353 5.42566 11.5007 5.49848 12.4106 5.78929C13.3205 6.0801 14.1492 6.58075 14.8299 7.25084L16.1629 8.46584C16.2551 8.54989 16.3753 8.59648 16.4999 8.59648C16.6246 8.59648 16.7448 8.54989 16.8369 8.46584L18.1699 7.25084C19.197 6.23988 20.549 5.62565 21.9861 5.51726C23.4231 5.40888 24.852 5.81335 26.0191 6.65884V6.65889ZM20.931 15.7702H26.066L26.076 15.7742C26.125 15.7743 26.173 15.7888 26.2138 15.816C26.2547 15.8431 26.2867 15.8817 26.3058 15.9269C26.3248 15.9721 26.3302 16.022 26.3212 16.0702C26.3121 16.1184 26.2891 16.1629 26.2549 16.1982L17.2549 25.4612C17.1575 25.5614 17.0409 25.6412 16.912 25.6956C16.7832 25.75 16.6448 25.7781 16.5049 25.7781C16.3651 25.7781 16.2267 25.75 16.0979 25.6956C15.969 25.6412 15.8524 25.5614 15.7549 25.4612L6.75495 16.1982C6.7208 16.1629 6.69777 16.1184 6.68873 16.0702C6.6797 16.022 6.68506 15.9721 6.70414 15.9269C6.72323 15.8817 6.75519 15.8431 6.79606 15.816C6.83692 15.7888 6.88488 15.7743 6.93395 15.7742H12.1829C12.4301 15.7743 12.6734 15.7134 12.8913 15.5969C13.1092 15.4803 13.2949 15.3118 13.4319 15.1062L14.0499 14.1772C14.0747 14.1404 14.1088 14.1109 14.1487 14.0916C14.1886 14.0723 14.2329 14.0639 14.277 14.0672C14.3212 14.0706 14.3637 14.0856 14.4003 14.1107C14.4368 14.1358 14.466 14.1701 14.4849 14.2102L16.5849 18.6992C16.7052 18.9579 16.8967 19.177 17.1371 19.3308C17.3774 19.4845 17.6566 19.5665 17.9419 19.5672H17.9569C18.245 19.5647 18.5262 19.4794 18.767 19.3214C19.0078 19.1634 19.198 18.9394 19.3149 18.6762L20.4739 16.0702C20.5128 15.9812 20.5766 15.9054 20.6578 15.8521C20.739 15.7989 20.8339 15.7704 20.931 15.7702Z" fill="#00A2C7"/>
</svg>
