<svg width="32" height="32" viewBox="0 0 32 32" fill="none" xmlns="http://www.w3.org/2000/svg">
<path d="M26.0166 7.0051C26.0097 6.47341 25.794 5.96575 25.4161 5.59172C25.0381 5.21769 24.5282 5.0073 23.9965 5.00597H19.0667C18.9186 4.99801 18.7701 4.99801 18.6219 5.00597C18.1346 5.0059 17.6521 5.10307 17.2028 5.29178C16.7535 5.48049 16.3464 5.75695 16.0052 6.10497C15.4421 5.53466 14.7061 5.16665 13.9119 5.05831C13.7386 5.03282 13.5637 5.02058 13.3886 5.02167C13.2417 5.02257 13.0949 5.0313 12.949 5.04784H8.01919C7.49414 5.04758 6.98962 5.25177 6.61254 5.61713C6.23546 5.98249 6.01545 6.48031 5.99913 7.0051C5.46744 7.01197 4.95978 7.22766 4.58575 7.6056C4.21172 7.98355 4.00133 8.49343 4 9.02516V23.0034C4 23.5391 4.21283 24.0529 4.59166 24.4318C4.9705 24.8106 5.48431 25.0234 6.02006 25.0234H11.0126C12.143 25.0234 13.488 25.3688 13.488 26.9964C13.4879 27.2695 13.5946 27.5318 13.7853 27.7274C13.9759 27.9229 14.2355 28.0362 14.5085 28.043H17.502C17.7796 28.043 18.0458 27.9328 18.2421 27.7365C18.4384 27.5402 18.5486 27.274 18.5486 26.9964C18.5486 25.3688 19.8936 25.0234 21.0188 25.0234H25.9799C26.5157 25.0234 27.0295 24.8106 27.4083 24.4318C27.7872 24.0529 28 23.5391 28 23.0034V9.02516C28.0001 8.49569 27.7923 7.98736 27.4213 7.60956C27.0504 7.23176 26.546 7.0147 26.0166 7.0051ZM17.0257 9.09843C17.0518 8.84266 17.0518 8.5849 17.0257 8.32913C17.1084 7.94823 17.3258 7.60999 17.638 7.37667C17.9156 7.16365 18.2563 7.04946 18.6062 7.0522H18.8469H18.9882H23.9546L23.9808 21.0095H19.0039C18.3259 20.9947 17.6522 21.1213 17.0257 21.381V9.09843ZM8.04012 7.07313H13.0118H13.1531C13.3059 7.05219 13.4608 7.05219 13.6136 7.07313C13.8262 7.0999 14.031 7.16988 14.2155 7.27879C14.4 7.38769 14.5603 7.5332 14.6864 7.70636C14.8258 7.88339 14.9289 8.0861 14.99 8.30296C14.9612 8.55859 14.9612 8.81663 14.99 9.07226V21.3549C14.3652 21.0955 13.6933 20.969 13.017 20.9833H8.04536L8.04012 7.07313Z" fill="white"/>
</svg>
