<svg width="32" height="32" viewBox="0 0 32 32" fill="none" xmlns="http://www.w3.org/2000/svg">
<path d="M25.8 13.4C25.7 13.3 25.6 13.2 25.5 13C25.4 12.9 25.3 12.7 25.3 12.6C25.2 12.3 25.1 12.1 25.1 11.8C25.1 11.7 25.2 11.5 25.4 11.2C25.7 10.7 26.2 10.3 26.8 9.8C27.1 9.6 27.3 9.3 27.5 9C27.6 8.7 27.7 8.4 27.8 8.1V8C27.8 7.6 27.8 7.3 27.6 7C27.5 6.7 27.3 6.4 27 6.1L24.7 3.8C24.3 3.4 23.8 3.2 23.3 3.1C22.8 3 22.2 3.1 21.7 3.4L19.5 4.6L17.2 3.3C16.8 3.1 16.4 3 16 3H15.9C15.5 3 15.1 3.1 14.7 3.3L12.4 4.6L10.2 3.4C9.7 3.1 9.2 3 8.7 3.1H8.6C8.1 3.2 7.6 3.4 7.2 3.8L5 6C4.7 6.3 4.5 6.6 4.4 6.9C4.3 7.2 4.2 7.6 4.2 7.9V8C4.2 8.3 4.3 8.7 4.5 9C4.7 9.3 4.9 9.6 5.2 9.8C5.8 10.3 6.3 10.8 6.6 11.2C6.8 11.5 6.9 11.7 6.9 11.8C6.9 12.1 6.8 12.4 6.7 12.6C6.6 12.7 6.6 12.9 6.5 13C6.4 13.1 6.3 13.2 6.2 13.4C4.8 14.9 4 16.8 4 18.9C4 19.2 4 19.4 4 19.7C4 20.2 4.1 20.7 4.3 21.2C4.4 21.7 4.6 22.1 4.8 22.5C5 22.9 5.2 23.3 5.5 23.7C5.9 24.2 6.3 24.7 6.8 25.2C7.2 25.6 7.7 26.1 8.3 26.5C8.8 26.9 9.3 27.2 9.8 27.5C12.5 29.1 15.3 29.8 15.6 29.9C15.8 29.9 15.9 30 16.1 30C16.3 30 16.4 30 16.6 29.9C16.7 29.9 17.1 29.8 17.8 29.5C18.1 29.4 18.5 29.3 18.9 29.1C19 29 19.2 29 19.3 28.9C19.7 28.7 20.1 28.6 20.5 28.4C21.1 28.1 21.7 27.8 22.3 27.5C23 27.1 23.7 26.6 24.3 26.1C24.5 26 24.6 25.8 24.8 25.7C25.1 25.4 25.4 25.1 25.7 24.8C27.2 23.1 28 21.1 28 19C28 16.8 27.2 14.9 25.8 13.4Z" fill="white"/>
<path d="M15.7 28.4C15.5 28.4 13 27.8 10.5 26.2C10 25.9 9.5 25.6 9.1 25.3C8.6 24.9 8.1 24.5 7.8 24.2C7.4 23.8 7.1 23.4 6.7 22.9C6.6 22.7 6.5 22.6 6.4 22.4C6.3 22.2 6.2 22.1 6.1 21.9C5.9 21.5 5.7 21.2 5.7 20.9C5.6 20.5 5.5 20.2 5.5 19.8V19.1C5.6 17.5 6.2 15.8 7.3 14.7C7.5 14.5 7.7 14.3 7.8 14C7.8 13.9 7.9 13.9 7.9 13.8C8 13.6 8.1 13.5 8.1 13.4L8.2 13.2C8.3 12.9 8.5 12.5 8.5 12.1C8.5 11.6 8.3 11.2 8 10.7L7.9 10.4C7.5 9.9 6.9 9.2 6.2 8.7C6 8.6 5.9 8.4 5.8 8.3C5.8 8.2 5.7 8 5.7 7.9C5.7 7.7 5.7 7.6 5.7 7.5V7.4C5.8 7.2 5.9 7.2 6 7.1L8.3 4.8C8.4 4.7 8.6 4.6 8.9 4.5C9.1 4.5 9.4 4.5 9.5 4.6L12.5 6.3L15.4 4.6C15.6 4.5 15.8 4.5 16 4.5C16.3 4.5 16.4 4.5 16.5 4.6L19.5 6.3L22.5 4.7C22.7 4.6 22.8 4.6 22.9 4.6H23C23.3 4.7 23.5 4.7 23.7 4.9L26 7.2C26 7.3 26.1 7.4 26.2 7.6C26.2 7.7 26.2 7.9 26.2 8C26.2 8.1 26.2 8.2 26.2 8.2C26.2 8.3 26.2 8.3 26.2 8.4C26.2 8.4 26.2 8.4 26.1 8.5C26 8.6 26 8.6 25.9 8.7C25.2 9.3 24.7 9.8 24.2 10.4C23.6 11.1 23.5 11.7 23.5 12C23.5 12.6 23.7 13 23.9 13.4C24 13.5 24 13.6 24.1 13.7C24.1 13.8 24.2 13.8 24.2 13.9C24.4 14.2 24.6 14.5 24.7 14.6C25.7 15.7 26.4 17.3 26.5 19C26.5 21.2 25.5 22.8 24.7 23.8L23.9 24.6C23.8 24.7 23.7 24.8 23.6 24.9C23.6 24.9 23.6 24.9 23.5 25L23.4 25.1L23.3 25.2C22.8 25.7 22.2 26.1 21.6 26.5C21.3 26.6 21 26.8 20.8 26.9C20.5 27 20.3 27.2 20 27.3C19.6 27.5 19.3 27.7 19 27.7L18.8 27.8L18.7 27.9C18.6 27.9 18.5 28 18.4 28.1C18.2 28.2 17.9 28.3 17.7 28.3L17.4 28.4C16.7 28.6 16.5 28.6 16.4 28.7H15.7V28.4Z" fill="#E62645"/>
</svg>
