<svg width="32" height="32" viewBox="0 0 32 32" fill="none" xmlns="http://www.w3.org/2000/svg">
<path fill-rule="evenodd" clip-rule="evenodd" d="M16.75 25C16.2954 25.0013 15.8542 24.8465 15.5 24.5615C15.1458 24.8465 14.7046 25.0013 14.25 25H4.5C3.83701 24.9998 3.20122 24.7364 2.73242 24.2676C2.26362 23.7988 2.00017 23.163 2 22.5V21.25C1.99996 21.0814 2.02095 20.9134 2.0625 20.75H2V10.25H2.0625C2.02095 10.0866 1.99996 9.91863 2 9.75001V8.50001C2.00017 7.83702 2.26362 7.20123 2.73242 6.73243C3.20122 6.26362 3.83701 6.00018 4.5 6.00001H14.25C14.7046 5.99871 15.1458 6.15349 15.5 6.43849C15.8542 6.15349 16.2954 5.99871 16.75 6.00001H26.5C27.163 6.00018 27.7988 6.26362 28.2676 6.73243C28.7364 7.20123 28.9998 7.83702 29 8.50001V9.75001C29 9.91863 28.979 10.0866 28.9375 10.25H29V20.75H28.9375C28.979 20.9134 29 21.0814 29 21.25V22.5C28.9998 23.163 28.7364 23.7988 28.2676 24.2676C27.7988 24.7364 27.163 24.9998 26.5 25H16.75Z" fill="white"/>
<path fill-rule="evenodd" clip-rule="evenodd" d="M4.5 7.5H14.25C14.3157 7.49999 14.3807 7.51292 14.4414 7.53804C14.502 7.56317 14.5571 7.6 14.6036 7.64643C14.65 7.69286 14.6868 7.74798 14.712 7.80865C14.7371 7.86931 14.75 7.93434 14.75 8V10.927C14.75 11.0366 14.7139 11.1431 14.6474 11.2302C14.5809 11.3173 14.4877 11.3801 14.382 11.409C13.4831 11.6521 12.6893 12.1846 12.1232 12.924C11.5572 13.6635 11.2505 14.5688 11.2505 15.5C11.2505 16.4312 11.5572 17.3365 12.1232 18.076C12.6893 18.8154 13.4831 19.3479 14.382 19.591C14.4877 19.6199 14.5809 19.6827 14.6474 19.7698C14.7139 19.8569 14.75 19.9634 14.75 20.073V23C14.75 23.0657 14.7371 23.1307 14.712 23.1914C14.6869 23.252 14.65 23.3072 14.6036 23.3536C14.5572 23.4 14.502 23.4369 14.4414 23.462C14.3807 23.4871 14.3157 23.5 14.25 23.5H4.5C4.23478 23.5 3.98043 23.3946 3.79289 23.2071C3.60536 23.0196 3.5 22.7652 3.5 22.5V21.25C3.49999 21.1843 3.51292 21.1193 3.53804 21.0586C3.56317 20.998 3.6 20.9429 3.64643 20.8964C3.69286 20.85 3.74798 20.8132 3.80865 20.788C3.86931 20.7629 3.93434 20.75 4 20.75H6C6.46397 20.7495 6.9088 20.565 7.23688 20.2369C7.56495 19.9088 7.74949 19.464 7.75 19V12C7.74949 11.536 7.56495 11.0912 7.23688 10.7631C6.9088 10.435 6.46397 10.2505 6 10.25H4C3.93434 10.25 3.86931 10.2371 3.80865 10.212C3.74798 10.1868 3.69286 10.15 3.64643 10.1036C3.6 10.0571 3.56317 10.002 3.53804 9.94135C3.51292 9.88069 3.49999 9.81566 3.5 9.75V8.5C3.5 8.23478 3.60536 7.98043 3.79289 7.79289C3.98043 7.60536 4.23478 7.5 4.5 7.5ZM24.75 11.75H27.5V19.25H24.75V11.75ZM14.521 12.9731C14.5834 12.9784 14.6415 13.0069 14.6839 13.053C14.7263 13.0991 14.7499 13.1594 14.75 13.222V17.778C14.75 17.8195 14.7396 17.8603 14.7199 17.8968C14.7001 17.9333 14.6716 17.9644 14.6369 17.9871C14.6021 18.0098 14.5623 18.0235 14.521 18.027C14.4796 18.0305 14.438 18.0236 14.4 18.007C13.9103 17.7959 13.4931 17.446 13.2 17.0004C12.9069 16.5549 12.7507 16.0333 12.7507 15.5C12.7507 14.9667 12.9069 14.4451 13.2 13.9996C13.4931 13.554 13.9103 13.2041 14.4 12.993C14.4381 12.9764 14.4796 12.9696 14.521 12.9731ZM16.479 18.027C16.4165 18.0218 16.3583 17.9933 16.3159 17.9472C16.2735 17.9011 16.2499 17.8407 16.25 17.778V13.222C16.25 13.1805 16.2604 13.1397 16.2801 13.1032C16.2999 13.0667 16.3284 13.0357 16.3631 13.0129C16.3979 12.9902 16.4377 12.9765 16.479 12.973C16.5204 12.9695 16.562 12.9764 16.6 12.993C17.0897 13.2041 17.5069 13.554 17.8 13.9996C18.0931 14.4451 18.2493 14.9667 18.2493 15.5C18.2493 16.0333 18.0931 16.5549 17.8 17.0004C17.5069 17.446 17.0897 17.7959 16.6 18.007C16.562 18.0237 16.5204 18.0305 16.479 18.027ZM3.5 11.75H6.25V19.25H3.5V11.75ZM16.75 7.5H26.5C26.7652 7.5 27.0196 7.60536 27.2071 7.79289C27.3946 7.98043 27.5 8.23478 27.5 8.5V9.75C27.5 9.81567 27.4871 9.88069 27.462 9.94137C27.4369 10.002 27.4 10.0572 27.3536 10.1036C27.3072 10.15 27.252 10.1869 27.1914 10.212C27.1307 10.2371 27.0657 10.25 27 10.25H25C24.536 10.2505 24.0912 10.435 23.7631 10.7631C23.435 11.0912 23.2505 11.536 23.25 12V19C23.2505 19.464 23.435 19.9088 23.7631 20.2369C24.0912 20.565 24.536 20.7495 25 20.75H27C27.0657 20.75 27.1307 20.7629 27.1914 20.788C27.252 20.8131 27.3072 20.85 27.3536 20.8964C27.4 20.9428 27.4369 20.998 27.462 21.0586C27.4871 21.1193 27.5 21.1843 27.5 21.25V22.5C27.5 22.7652 27.3946 23.0196 27.2071 23.2071C27.0196 23.3946 26.7652 23.5 26.5 23.5H16.75C16.6843 23.5 16.6193 23.4871 16.5586 23.462C16.498 23.4369 16.4428 23.4 16.3964 23.3536C16.35 23.3072 16.3131 23.252 16.288 23.1914C16.2629 23.1307 16.25 23.0657 16.25 23V20.073C16.25 19.9634 16.2861 19.8569 16.3526 19.7698C16.4191 19.6827 16.5123 19.6199 16.618 19.591C17.5169 19.3479 18.3107 18.8154 18.8768 18.076C19.4428 17.3365 19.7495 16.4312 19.7495 15.5C19.7495 14.5688 19.4428 13.6635 18.8768 12.924C18.3107 12.1846 17.5169 11.6521 16.618 11.409C16.5123 11.3801 16.4191 11.3173 16.3526 11.2302C16.2861 11.1431 16.25 11.0366 16.25 10.927V8C16.25 7.93434 16.2629 7.86931 16.288 7.80865C16.3132 7.74798 16.35 7.69286 16.3964 7.64643C16.4429 7.6 16.498 7.56317 16.5586 7.53804C16.6193 7.51292 16.6843 7.49999 16.75 7.5Z" fill="#00A2C7"/>
</svg>
