<svg width="32" height="32" viewBox="0 0 32 32" fill="none" xmlns="http://www.w3.org/2000/svg">
<path fill-rule="evenodd" clip-rule="evenodd" d="M5.207 29C4.7126 28.9999 4.22932 28.8533 3.81827 28.5786C3.40722 28.3038 3.08684 27.9134 2.89765 27.4567C2.70847 26.9999 2.65896 26.4973 2.75539 26.0124C2.85182 25.5275 3.08986 25.0821 3.43942 24.7324L7.9277 20.2441C7.89548 20.2148 7.86423 20.1855 7.83395 20.1553L4.08643 16.416C3.89282 16.2227 3.7409 15.9918 3.64003 15.7375C3.53917 15.4832 3.49151 15.2109 3.5 14.9375C3.15381 14.8483 2.83805 14.6675 2.58594 14.4141C2.21199 14.0383 2.00142 13.5301 2 13V5.207C1.99985 4.71227 2.14652 4.22862 2.42144 3.8173C2.69636 3.40598 3.08715 3.0855 3.54434 2.89644C4.00152 2.70738 4.50453 2.65824 4.98966 2.75526C5.47479 2.85227 5.92021 3.09107 6.26953 3.44141L10.7563 7.92725C10.7827 7.89746 10.8105 7.86816 10.8393 7.83936L14.5845 4.08643C14.8647 3.80408 15.2233 3.61251 15.6138 3.53662L15.7568 3.50879C15.7568 3.50879 16.042 3.49951 16.0625 3.5C16.174 3.07083 16.4246 2.69076 16.7752 2.41932C17.1258 2.14788 17.5566 2.0004 18 2H25.793C26.2874 1.99996 26.7708 2.14656 27.1819 2.42125C27.5931 2.69594 27.9135 3.08639 28.1027 3.5432C28.2919 4.00001 28.3414 4.50268 28.2449 4.98762C28.1484 5.47256 27.9102 5.91799 27.5606 6.26758L23.0723 10.7563C23.1006 10.7812 23.128 10.8071 23.1543 10.8335L26.9131 14.5845C27.1069 14.7775 27.259 15.0083 27.36 15.2626C27.461 15.5168 27.5086 15.7891 27.5 16.0625C27.9292 16.174 28.3092 16.4246 28.5807 16.7752C28.8521 17.1258 28.9996 17.5566 29 18V25.793C29.0001 26.1213 28.9355 26.4465 28.8099 26.7498C28.6843 27.0532 28.5001 27.3288 28.268 27.561C28.0358 27.7931 27.7602 27.9773 27.4568 28.1029C27.1535 28.2285 26.8283 28.2931 26.5 28.293C26.3351 28.2928 26.1705 28.2764 26.0088 28.2442C25.5249 28.1482 25.0805 27.9102 24.7324 27.5606L20.2441 23.0723C20.2139 23.1065 16.416 26.9131 16.416 26.9131C16.0404 27.2886 15.5311 27.4997 15 27.5C14.979 27.5 14.9585 27.5 14.9375 27.499C14.8263 27.9284 14.5758 28.3088 14.2251 28.5804C13.8745 28.8521 13.4436 28.9997 13 29H5.207Z" fill="white"/>
<path fill-rule="evenodd" clip-rule="evenodd" d="M18 13.5C17.9345 13.4997 17.8696 13.4868 17.809 13.462C17.7176 13.4242 17.6394 13.3601 17.5844 13.2779C17.5294 13.1957 17.5 13.0989 17.5 13V4C17.5 3.93434 17.5129 3.86931 17.538 3.80865C17.5632 3.74798 17.6 3.69286 17.6464 3.64643C17.6929 3.6 17.748 3.56317 17.8086 3.53804C17.8693 3.51292 17.9343 3.49999 18 3.5H25.793C25.9907 3.50004 26.184 3.55871 26.3485 3.6686C26.5129 3.77848 26.641 3.93465 26.7167 4.11735C26.7923 4.30005 26.8122 4.50108 26.7736 4.69503C26.735 4.88898 26.6398 5.06715 26.5 5.207L18.354 13.354C18.26 13.4477 18.1327 13.5002 18 13.5ZM13.462 13.1908C13.4999 13.0995 13.5099 12.9989 13.4907 12.9019C13.4715 12.8049 13.4239 12.7158 13.354 12.6458L5.207 4.4998C5.06715 4.35999 4.88898 4.26478 4.69503 4.22622C4.50107 4.18765 4.30004 4.20745 4.11734 4.28313C3.93464 4.3588 3.77847 4.48694 3.66859 4.65135C3.55871 4.81577 3.50004 5.00907 3.5 5.20682V12.9998C3.49999 13.0655 3.51292 13.1305 3.53804 13.1912C3.56317 13.2518 3.6 13.307 3.64643 13.3534C3.69286 13.3998 3.74798 13.4367 3.80865 13.4618C3.86931 13.4869 3.93434 13.4998 4 13.4998H13C13.0989 13.4998 13.1957 13.4704 13.2779 13.4154C13.3601 13.3604 13.4242 13.2823 13.462 13.1908V13.1908ZM13.5 15.5C13.5 15.9627 13.6604 16.4111 13.954 16.7688C14.2475 17.1265 14.656 17.3713 15.1098 17.4616C15.5636 17.5519 16.0347 17.482 16.4428 17.2639C16.8508 17.0458 17.1707 16.6929 17.3477 16.2654C17.5248 15.8379 17.5482 15.3623 17.4139 14.9195C17.2796 14.4767 16.9959 14.0942 16.6112 13.8371C16.2264 13.58 15.7645 13.4643 15.304 13.5097C14.8435 13.555 14.413 13.7586 14.0858 14.0858C13.7107 14.4609 13.5 14.9696 13.5 15.5ZM5.22173 14.584C5.30412 14.5291 5.40097 14.4998 5.5 14.5H12C12.1326 14.5 12.2598 14.5527 12.3536 14.6464C12.4473 14.7402 12.5 14.8674 12.5 15V16C12.5002 16.1307 12.4493 16.2564 12.358 16.35L9.608 19.1C9.56155 19.1466 9.50637 19.1835 9.44563 19.2087C9.38488 19.2339 9.31976 19.2469 9.254 19.2469C9.18823 19.2469 9.12312 19.2339 9.06237 19.2087C9.00163 19.1835 8.94645 19.1466 8.9 19.1L5.146 15.354C5.09358 15.3017 5.05342 15.2385 5.02843 15.1688C5.00344 15.0991 4.99423 15.0247 5.00148 14.9511C5.00873 14.8774 5.03225 14.8062 5.07034 14.7428C5.10843 14.6793 5.16015 14.6251 5.22175 14.584H5.22173ZM14.646 12.3539C14.74 12.4476 14.8673 12.5001 15 12.4999H16C16.0657 12.4999 16.1307 12.487 16.1914 12.4619C16.252 12.4368 16.3072 12.3999 16.3536 12.3535C16.4 12.3071 16.4369 12.2519 16.462 12.1913C16.4871 12.1306 16.5 12.0656 16.5 11.9999V5.4999C16.5002 5.40088 16.4709 5.30404 16.416 5.22165C16.3611 5.13926 16.2829 5.07503 16.1915 5.03712C16.1 4.9992 15.9993 4.9893 15.9022 5.00866C15.8051 5.02803 15.7159 5.07579 15.646 5.1459L11.9 8.89992C11.8534 8.94637 11.8165 9.00154 11.7913 9.06229C11.7661 9.12303 11.7531 9.18815 11.7531 9.25392C11.7531 9.31969 11.7661 9.38481 11.7913 9.44555C11.8165 9.5063 11.8534 9.56147 11.9 9.60792L14.646 12.3539ZM18.65 14.6498L21.4 11.8998C21.4934 11.8081 21.6191 11.7568 21.75 11.7568C21.8809 11.7568 22.0066 11.8081 22.1 11.8998L25.854 15.6458C25.9241 15.7157 25.9719 15.8049 25.9912 15.902C26.0106 15.9991 26.0007 16.0998 25.9628 16.1913C25.9249 16.2827 25.8606 16.3609 25.7783 16.4158C25.6959 16.4707 25.599 16.5 25.5 16.4998H19C18.8674 16.4998 18.7402 16.4471 18.6464 16.3534C18.5527 16.2596 18.5 16.1324 18.5 15.9998V14.9998C18.5019 14.8679 18.5558 14.7421 18.65 14.6498ZM16.354 18.646C16.26 18.5523 16.1327 18.4998 16 18.5H15C14.9343 18.5 14.8693 18.5129 14.8086 18.538C14.748 18.5631 14.6928 18.6 14.6464 18.6464C14.6 18.6928 14.5631 18.748 14.538 18.8086C14.5129 18.8693 14.5 18.9343 14.5 19V25.5C14.5 25.5989 14.5294 25.6957 14.5844 25.7779C14.6394 25.8601 14.7176 25.9242 14.809 25.962C14.8696 25.9868 14.9345 25.9997 15 26C15.1327 26.0002 15.26 25.9477 15.354 25.854L19.1 22.1C19.1466 22.0535 19.1835 21.9984 19.2087 21.9376C19.2339 21.8769 19.2469 21.8118 19.2469 21.746C19.2469 21.6802 19.2339 21.6151 19.2087 21.5544C19.1835 21.4936 19.1466 21.4385 19.1 21.392L16.354 18.646ZM27 17.5H18C17.901 17.4998 17.8041 17.529 17.7217 17.5839C17.6393 17.6389 17.5751 17.717 17.5371 17.8085C17.4992 17.9 17.4893 18.0007 17.5087 18.0978C17.5281 18.1949 17.5759 18.2841 17.646 18.354L25.793 26.5C25.9329 26.6398 26.111 26.735 26.305 26.7736C26.4989 26.8122 26.7 26.7923 26.8827 26.7167C27.0654 26.641 27.2215 26.5129 27.3314 26.3485C27.4413 26.184 27.5 25.9907 27.5 25.793V18C27.5 17.8674 27.4473 17.7402 27.3536 17.6464C27.2598 17.5527 27.1326 17.5 27 17.5ZM12.9021 17.5095C12.9747 17.4951 13.0495 17.497 13.1212 17.515C13.193 17.533 13.2598 17.5666 13.317 17.6135C13.3742 17.6605 13.4203 17.7195 13.4519 17.7863C13.4835 17.8532 13.5 17.9262 13.5 18.0002V27.0002C13.5 27.0659 13.4871 27.1309 13.462 27.1916C13.4369 27.2522 13.4 27.3074 13.3536 27.3538C13.3072 27.4002 13.252 27.4371 13.1914 27.4622C13.1307 27.4873 13.0657 27.5002 13 27.5002H5.207C5.00925 27.5002 4.81595 27.4415 4.65154 27.3316C4.48713 27.2217 4.35899 27.0656 4.28332 26.8829C4.20765 26.7002 4.18785 26.4991 4.22642 26.3052C4.26498 26.1112 4.36019 25.9331 4.5 25.7932L12.646 17.6462C12.716 17.5763 12.8051 17.5288 12.9021 17.5095Z" fill="black"/>
</svg>
