<svg width="32" height="32" viewBox="0 0 32 32" fill="none" xmlns="http://www.w3.org/2000/svg">
<path d="M4 5H10.1276V28.4892H4V5Z" fill="white"/>
<path d="M11.6595 12.1489H17.7871V28.4893H11.6595V12.1489Z" fill="white"/>
<path d="M27.9784 26.032L24.8176 7.40508C24.784 7.20631 24.7114 7.01613 24.6042 6.84544C24.4969 6.67476 24.357 6.52692 24.1925 6.41041C24.028 6.2939 23.8421 6.21101 23.6455 6.16649C23.4488 6.12197 23.2454 6.11669 23.0467 6.15096L20.0258 6.6616C19.6254 6.72956 19.2683 6.95374 19.0332 7.28485C18.798 7.61597 18.7039 8.02693 18.7717 8.42737L21.9366 27.0594C21.9702 27.2578 22.0426 27.4476 22.1496 27.618C22.2566 27.7884 22.3961 27.936 22.5602 28.0525C22.7243 28.1689 22.9097 28.2519 23.1058 28.2967C23.302 28.3415 23.505 28.3472 23.7034 28.3136L26.7233 27.8029C26.9217 27.7694 27.1116 27.6971 27.2821 27.5901C27.4526 27.4832 27.6004 27.3437 27.717 27.1796C27.8335 27.0155 27.9166 26.8301 27.9615 26.6339C28.0063 26.4377 28.0121 26.2346 27.9784 26.0361V26.032Z" fill="white"/>
</svg>
