<svg width="32" height="32" viewBox="0 0 32 32" fill="none" xmlns="http://www.w3.org/2000/svg">
<path fill-rule="evenodd" clip-rule="evenodd" d="M8.5 27.5C8.10307 27.4998 7.71515 27.3816 7.38555 27.1604C7.05595 26.9392 6.79955 26.6251 6.64893 26.2578C6.54721 26.0084 6.49657 25.741 6.5 25.4717C6.51773 22.4387 6.87693 19.4174 7.5708 16.4648C7.45637 16.4881 7.33991 16.4998 7.22314 16.5H5C4.20441 16.4998 3.44147 16.1837 2.87891 15.6211C2.31635 15.0585 2.00021 14.2956 2 13.5V8C2.00021 7.20441 2.31635 6.44147 2.87891 5.87891C3.44147 5.31635 4.20441 5.00021 5 5H26C26.7952 5.00224 27.5574 5.31807 28.1211 5.87891C28.4005 6.1568 28.6221 6.48735 28.773 6.85143C28.9238 7.21551 29.001 7.6059 29 8V13.5C29.001 13.8941 28.9238 14.2845 28.773 14.6486C28.6221 15.0126 28.4005 15.3432 28.1211 15.6211C27.5574 16.1819 26.7952 16.4978 26 16.5H23.7715C23.6544 16.5 23.5376 16.4884 23.4228 16.4653C24.1179 19.4222 24.4773 22.448 24.4941 25.4853C24.4968 25.7438 24.4487 26.0003 24.3525 26.2402C24.2513 26.4914 24.1009 26.7198 23.9102 26.9121C23.7243 27.0993 23.5028 27.2474 23.2588 27.3476C23.0169 27.45 22.7567 27.5018 22.4941 27.5H8.5Z" fill="white"/>
<path fill-rule="evenodd" clip-rule="evenodd" d="M5 6.5H26C26.197 6.49999 26.392 6.53878 26.574 6.61416C26.756 6.68954 26.9214 6.80003 27.0607 6.93932C27.2 7.07861 27.3105 7.24397 27.3858 7.42596C27.4612 7.60796 27.5 7.80301 27.5 8V13.5C27.5 13.697 27.4612 13.8921 27.3859 14.074C27.3105 14.256 27.2 14.4214 27.0607 14.5607C26.9214 14.7 26.756 14.8105 26.574 14.8859C26.392 14.9612 26.197 15 26 15H23.771C23.7162 15 23.663 14.9819 23.6194 14.9487C23.5759 14.9155 23.5445 14.8688 23.53 14.816C23.248 13.784 22.929 12.787 22.573 11.838C22.5588 11.8002 22.554 11.7595 22.5589 11.7194C22.5639 11.6793 22.5785 11.641 22.6015 11.6077C22.6245 11.5745 22.6552 11.5474 22.691 11.5286C22.7268 11.5098 22.7666 11.5 22.807 11.5H24C24.2652 11.5 24.5196 11.3946 24.7071 11.2071C24.8946 11.0196 25 10.7652 25 10.5C25 10.2348 24.8946 9.98043 24.7071 9.79289C24.5196 9.60536 24.2652 9.5 24 9.5H7C6.73478 9.5 6.48043 9.60536 6.29289 9.79289C6.10536 9.98043 6 10.2348 6 10.5C6 10.7652 6.10536 11.0196 6.29289 11.2071C6.48043 11.3946 6.73478 11.5 7 11.5H8.187C8.22742 11.5 8.26723 11.5098 8.30303 11.5286C8.33883 11.5473 8.36954 11.5745 8.39255 11.6077C8.41555 11.6409 8.43016 11.6792 8.43511 11.7193C8.44007 11.7595 8.43523 11.8002 8.421 11.838C8.064 12.788 7.746 13.784 7.464 14.816C7.44969 14.8689 7.41831 14.9156 7.37474 14.9489C7.33116 14.9822 7.27782 15.0001 7.223 15H5C4.80301 15 4.60796 14.9612 4.42596 14.8858C4.24397 14.8105 4.07861 14.7 3.93932 14.5607C3.80003 14.4214 3.68954 14.256 3.61416 14.074C3.53878 13.892 3.49999 13.697 3.5 13.5V8C3.5 7.60218 3.65804 7.22064 3.93934 6.93934C4.22064 6.65804 4.60218 6.5 5 6.5ZM20.468 12.0437C20.5095 12.072 20.5416 12.1122 20.56 12.159C22.1428 16.428 22.9665 20.9411 22.994 25.494C22.9948 25.5602 22.9824 25.6258 22.9577 25.6872C22.9329 25.7485 22.8962 25.8044 22.8497 25.8514C22.8032 25.8985 22.7478 25.9359 22.6867 25.9614C22.6257 25.9869 22.5602 26 22.494 26H8.5C8.43383 26 8.36832 25.9869 8.30726 25.9614C8.24621 25.9359 8.19082 25.8985 8.14431 25.8514C8.0978 25.8044 8.0611 25.7485 8.03632 25.6872C8.01155 25.6258 7.99921 25.5602 8 25.494C8.02789 20.9411 8.85163 16.4282 10.434 12.159C10.4525 12.1122 10.4845 12.0721 10.5261 12.0437C10.5676 12.0154 10.6167 12.0001 10.667 12H20.327C20.3773 12.0001 20.4264 12.0153 20.468 12.0437ZM16.4311 22.5367C16.4676 22.492 16.5185 22.4614 16.575 22.45V22.447C17.0157 22.3588 17.416 22.1305 17.7164 21.7962C18.0167 21.4618 18.2009 21.0394 18.2415 20.5918C18.2821 20.1442 18.1769 19.6955 17.9416 19.3126C17.7064 18.9297 17.3536 18.6331 16.936 18.467L14.871 17.641C14.7436 17.5896 14.638 17.4955 14.5724 17.3748C14.5068 17.2541 14.4852 17.1143 14.5113 16.9794C14.5374 16.8445 14.6097 16.723 14.7156 16.6355C14.8215 16.548 14.9546 16.5001 15.092 16.5H17.125C17.3239 16.5 17.5147 16.421 17.6553 16.2803C17.796 16.1397 17.875 15.9489 17.875 15.75C17.875 15.5511 17.796 15.3603 17.6553 15.2197C17.5147 15.079 17.3239 15 17.125 15H16.625C16.5922 15 16.5597 14.9936 16.5293 14.981C16.499 14.9684 16.4714 14.95 16.4482 14.9268C16.425 14.9036 16.4066 14.876 16.394 14.8457C16.3814 14.8153 16.375 14.7828 16.375 14.75V14.5C16.375 14.3011 16.296 14.1103 16.1553 13.9697C16.0147 13.829 15.8239 13.75 15.625 13.75C15.4261 13.75 15.2353 13.829 15.0947 13.9697C14.954 14.1103 14.875 14.3011 14.875 14.5V14.808C14.8752 14.8657 14.8554 14.9216 14.8189 14.9663C14.7824 15.011 14.7316 15.0416 14.675 15.053C14.2343 15.1412 13.834 15.3695 13.5336 15.7038C13.2333 16.0382 13.0491 16.4606 13.0085 16.9082C12.9679 17.3558 13.0731 17.8045 13.3084 18.1874C13.5436 18.5703 13.8964 18.8669 14.314 19.033L16.379 19.859C16.5064 19.9104 16.612 20.0045 16.6776 20.1252C16.7432 20.2459 16.7648 20.3857 16.7387 20.5206C16.7126 20.6555 16.6403 20.777 16.5344 20.8645C16.4285 20.952 16.2954 20.9999 16.158 21H14.125C13.9261 21 13.7353 21.079 13.5947 21.2197C13.454 21.3603 13.375 21.5511 13.375 21.75C13.375 21.9489 13.454 22.1397 13.5947 22.2803C13.7353 22.421 13.9261 22.5 14.125 22.5H14.625C14.6578 22.5 14.6903 22.5064 14.7207 22.519C14.751 22.5316 14.7786 22.55 14.8018 22.5732C14.825 22.5964 14.8434 22.624 14.856 22.6543C14.8686 22.6847 14.875 22.7172 14.875 22.75V23.003C14.875 23.2019 14.954 23.3927 15.0947 23.5333C15.2353 23.674 15.4261 23.753 15.625 23.753C15.8239 23.753 16.0147 23.674 16.1553 23.5333C16.296 23.3927 16.375 23.2019 16.375 23.003V22.695C16.3748 22.6373 16.3946 22.5814 16.4311 22.5367Z" fill="black"/>
</svg>
