<svg width="32" height="32" viewBox="0 0 32 32" fill="none" xmlns="http://www.w3.org/2000/svg">
<path d="M15.633 22.7826C15.633 22.0908 15.9078 21.4272 16.397 20.938C16.8863 20.4488 17.5498 20.1739 18.2417 20.1739H18.5025C18.5717 20.1739 18.6381 20.1465 18.687 20.0975C18.7359 20.0486 18.7634 19.9823 18.7634 19.9131V14.5809C18.7634 14.4425 18.8184 14.3098 18.9162 14.212C19.014 14.1141 19.1468 14.0592 19.2851 14.0592C19.4235 14.0592 19.5562 14.1141 19.6541 14.212C19.7519 14.3098 19.8069 14.4425 19.8069 14.5809V18.6087C19.808 18.7882 19.8464 18.9655 19.9197 19.1293C19.9929 19.2932 20.0995 19.44 20.2326 19.5604C20.0574 19.7408 19.9119 19.9479 19.8017 20.1739C19.6361 20.497 19.5486 20.8544 19.546 21.2174V21.7392H18.2417C17.9649 21.7392 17.6995 21.8491 17.5038 22.0448C17.3081 22.2405 17.1982 22.5059 17.1982 22.7826V26.9566C17.1982 27.2333 17.3081 27.4987 17.5038 27.6944C17.6995 27.8901 17.9649 28 18.2417 28H25.546C25.8227 28 26.0882 27.8901 26.2838 27.6944C26.4795 27.4987 26.5895 27.2333 26.5895 26.9566V22.7826C26.5895 22.5059 26.4795 22.2405 26.2838 22.0448C26.0882 21.8491 25.8227 21.7392 25.546 21.7392H24.2417V21.2174C24.2335 20.6774 24.0422 20.1561 23.6991 19.739C23.3559 19.322 22.8813 19.0338 22.353 18.9218C22.387 18.8223 22.408 18.7188 22.4156 18.6139V14.8418C22.4142 13.7352 21.974 12.6744 21.1915 11.8919C20.4091 11.1094 19.3482 10.6692 18.2417 10.6679H14.0792L8.65313 5.24177C8.35806 4.95652 7.96276 4.79856 7.55236 4.80193C7.14196 4.8053 6.74931 4.96973 6.45896 5.2598C6.16862 5.54987 6.00382 5.94237 6.00007 6.35276C5.99631 6.76316 6.15389 7.15861 6.43887 7.45395L12.5025 13.5176V26.9566C12.5025 27.2333 12.6125 27.4987 12.8081 27.6944C13.0038 27.8901 13.2693 28 13.546 28H15.4827C15.5231 28 15.5629 27.9906 15.599 27.9725C15.6351 27.9545 15.6666 27.9283 15.6909 27.896C15.7151 27.8637 15.7316 27.8263 15.7389 27.7866C15.7463 27.7468 15.7443 27.706 15.7331 27.6672C15.6654 27.4363 15.6303 27.1971 15.6288 26.9566L15.633 22.7826ZM22.6764 21.2174V21.7392H21.1112V21.2174C21.1112 21.0099 21.1937 20.8108 21.3404 20.664C21.4872 20.5173 21.6863 20.4348 21.8938 20.4348C22.1014 20.4348 22.3004 20.5173 22.4472 20.664C22.594 20.8108 22.6764 21.0099 22.6764 21.2174Z" fill="#51247A"/>
<path d="M13.0243 6.6087C13.0243 7.30056 13.2991 7.9641 13.7883 8.45332C14.2776 8.94255 14.9411 9.21739 15.633 9.21739C16.3248 9.21739 16.9884 8.94255 17.4776 8.45332C17.9668 7.9641 18.2417 7.30056 18.2417 6.6087C18.2417 5.91683 17.9668 5.25329 17.4776 4.76407C16.9884 4.27484 16.3248 4 15.633 4C14.9411 4 14.2776 4.27484 13.7883 4.76407C13.2991 5.25329 13.0243 5.91683 13.0243 6.6087Z" fill="#51247A"/>
</svg>
