<svg width="32" height="32" viewBox="0 0 32 32" fill="none" xmlns="http://www.w3.org/2000/svg">
<path d="M15.5 13.5C16.4395 13.5 17.3578 13.2214 18.139 12.6995C18.9201 12.1775 19.5289 11.4357 19.8884 10.5677C20.2479 9.6998 20.342 8.74473 20.1587 7.82332C19.9755 6.90191 19.5231 6.05554 18.8588 5.39124C18.1945 4.72695 17.3481 4.27455 16.4267 4.09127C15.5053 3.90799 14.5502 4.00206 13.6823 4.36157C12.8143 4.72109 12.0725 5.32991 11.5505 6.11104C11.0286 6.89218 10.75 7.81054 10.75 8.75C10.7516 10.0093 11.2525 11.2166 12.143 12.107C13.0334 12.9975 14.2407 13.4984 15.5 13.5ZM18.25 8.75C18.25 9.47935 17.9603 10.1788 17.4445 10.6945C16.9288 11.2103 16.2293 11.5 15.5 11.5C14.7707 11.5 14.0712 11.2103 13.5555 10.6945C13.0397 10.1788 12.75 9.47935 12.75 8.75C12.75 8.729 12.756 8.709 12.756 8.688C13.6497 8.56525 14.4877 8.18276 15.166 7.588C15.2578 7.50536 15.377 7.45963 15.5005 7.45963C15.624 7.45963 15.7432 7.50536 15.835 7.588C16.5128 8.18289 17.3505 8.56541 18.244 8.688C18.244 8.709 18.25 8.729 18.25 8.75Z" fill="#51247A"/>
<path d="M20.819 22.6L19.264 17.14C19.0457 16.3083 18.5579 15.5723 17.877 15.047C17.1961 14.5218 16.3604 14.2369 15.5005 14.2369C14.6406 14.2369 13.8048 14.5218 13.124 15.047C12.4431 15.5723 11.9553 16.3083 11.737 17.14L10.182 22.6C10.161 22.6743 10.1575 22.7524 10.1717 22.8283C10.186 22.9041 10.2176 22.9756 10.2641 23.0372C10.3105 23.0988 10.3707 23.1488 10.4397 23.1833C10.5087 23.2178 10.5848 23.2359 10.662 23.236H12.59C12.7054 23.2358 12.8174 23.2755 12.9069 23.3484C12.9964 23.4213 13.0579 23.5229 13.081 23.636L13.919 27.6C13.9421 27.713 14.0034 27.8145 14.0927 27.8874C14.182 27.9603 14.2937 28.0001 14.409 28H16.589C16.7043 28.0001 16.816 27.9603 16.9053 27.8874C16.9946 27.8145 17.0559 27.713 17.079 27.6L17.919 23.642C17.9421 23.5291 18.0034 23.4276 18.0927 23.3547C18.182 23.2818 18.2937 23.242 18.409 23.242H20.337C20.415 23.2424 20.492 23.2246 20.5619 23.1899C20.6318 23.1552 20.6926 23.1046 20.7394 23.0422C20.7863 22.9799 20.8179 22.9074 20.8317 22.8306C20.8455 22.7538 20.8412 22.6748 20.819 22.6Z" fill="#51247A"/>
</svg>
