<svg width="32" height="32" viewBox="0 0 32 32" fill="none" xmlns="http://www.w3.org/2000/svg">
<path fill-rule="evenodd" clip-rule="evenodd" d="M5.91164 29.4998C5.11405 29.5 4.34884 29.1842 3.78349 28.6216C3.21814 28.059 2.89868 27.2954 2.89503 26.4978L2.87746 23.4675C2.87465 22.7066 3.15948 21.9727 3.67489 21.4129C4.19029 20.8532 4.8982 20.5088 5.65675 20.4489V10.8219C5.65917 8.61632 6.53704 6.50186 8.09751 4.9431C9.65798 3.38435 11.7734 2.50879 13.979 2.50879C16.1846 2.50879 18.3001 3.38435 19.8605 4.9431C21.421 6.50186 22.2989 8.61632 22.3013 10.8219V17.6442C22.3022 18.0064 22.1898 18.3598 21.98 18.655C22.1883 18.951 22.3005 19.3039 22.3013 19.6658V20.5271C22.8249 20.6594 23.303 20.9307 23.6851 21.3123C23.9068 21.5327 24.0933 21.786 24.2378 22.0633C24.4317 21.9921 24.6367 21.9557 24.8433 21.9558H26.107C26.5033 21.9546 26.8959 22.0322 27.262 22.1839C27.6281 22.3356 27.9605 22.5585 28.2398 22.8396C28.8035 23.4061 29.1207 24.1723 29.1226 24.9715C29.1227 25.3676 29.0448 25.7598 28.8933 26.1258C28.7418 26.4917 28.5197 26.8243 28.2396 27.1044C27.9596 27.3845 27.6271 27.6068 27.2612 27.7584C26.8953 27.91 26.5031 27.988 26.107 27.9881H24.8433C24.6374 27.9886 24.4331 27.9525 24.2398 27.8816C24.1019 28.1448 23.9262 28.3863 23.7183 28.5984C23.4409 28.8837 23.1092 29.1104 22.7427 29.2652C22.3762 29.42 21.9824 29.4998 21.5845 29.4998H5.91164ZM16.7739 20.4392V19.6658C16.7751 19.3036 16.8872 18.9505 17.0952 18.654C16.8851 18.3594 16.7728 18.0062 16.7739 17.6443V10.822C16.7749 10.4548 16.7031 10.0909 16.5626 9.7516C16.4222 9.41225 16.2158 9.10411 15.9556 8.84498C15.43 8.32288 14.7198 8.02887 13.979 8.02663C13.6119 8.02649 13.2483 8.0987 12.909 8.23913C12.5698 8.37956 12.2615 8.58546 12.0019 8.84505C11.7422 9.10465 11.5363 9.41287 11.3958 9.75208C11.2553 10.0913 11.183 10.4549 11.1831 10.822V20.4392H16.7739Z" fill="white"/>
<path fill-rule="evenodd" clip-rule="evenodd" d="M23.0749 23.4448V26.488C23.0775 26.8842 22.924 27.2654 22.6474 27.5492C22.5094 27.6917 22.3442 27.8051 22.1615 27.8825C21.9789 27.9599 21.7825 27.9999 21.5841 28H5.91128C5.51042 28 5.12588 27.8412 4.84177 27.5584C4.55767 27.2756 4.39713 26.8918 4.39528 26.491L4.37702 23.4589C4.37622 23.0575 4.53463 22.6722 4.81751 22.3874C5.10038 22.1027 5.48464 21.9417 5.88602 21.9399H7.15646V10.8222C7.15646 9.01283 7.87522 7.27758 9.15463 5.99817C10.434 4.71876 12.1693 4 13.9786 4C15.788 4 17.5233 4.71876 18.8027 5.99817C20.0821 7.27758 20.8008 9.01283 20.8008 10.8222V17.6444C20.8008 17.6776 20.7943 17.7104 20.7816 17.7411C20.7689 17.7718 20.7503 17.7996 20.7268 17.8231C20.7034 17.8466 20.6755 17.8652 20.6448 17.8779C20.6142 17.8906 20.5813 17.8971 20.5481 17.8971H18.5268C18.4936 17.8971 18.4608 17.8906 18.4301 17.8779C18.3995 17.8652 18.3716 17.8466 18.3481 17.8231C18.3247 17.7996 18.3061 17.7718 18.2934 17.7411C18.2807 17.7104 18.2741 17.6776 18.2741 17.6444V10.8222C18.2741 10.2581 18.163 9.69954 17.9472 9.17839C17.7313 8.65724 17.4149 8.18372 17.016 7.78485C16.6172 7.38598 16.1436 7.06958 15.6225 6.85371C15.1013 6.63785 14.5428 6.52674 13.9787 6.52674C13.4146 6.52674 12.856 6.63785 12.3349 6.85371C11.8137 7.06958 11.3402 7.38598 10.9413 7.78485C10.5425 8.18372 10.2261 8.65724 10.0102 9.17839C9.79434 9.69954 9.68324 10.2581 9.68324 10.8222V21.6872C9.68323 21.7204 9.68976 21.7532 9.70245 21.7839C9.71514 21.8145 9.73375 21.8424 9.7572 21.8659C9.78066 21.8893 9.80851 21.9079 9.83916 21.9206C9.86981 21.9333 9.90266 21.9399 9.93584 21.9399H18.0214C18.0546 21.9399 18.0875 21.9334 18.1181 21.9207C18.1488 21.908 18.1767 21.8894 18.2001 21.8659C18.2236 21.8424 18.2422 21.8146 18.2549 21.7839C18.2676 21.7532 18.2741 21.7204 18.2741 21.6872V19.6658C18.2741 19.6326 18.2807 19.5997 18.2934 19.5691C18.3061 19.5384 18.3247 19.5106 18.3481 19.4871C18.3716 19.4636 18.3995 19.445 18.4301 19.4323C18.4608 19.4196 18.4936 19.4131 18.5268 19.4131H20.5481C20.5813 19.4131 20.6142 19.4196 20.6448 19.4323C20.6755 19.445 20.7034 19.4636 20.7268 19.4871C20.7503 19.5106 20.7689 19.5384 20.7816 19.5691C20.7943 19.5997 20.8008 19.6326 20.8008 19.6658V21.9358H21.5588C21.9597 21.9358 22.3443 22.0945 22.6284 22.3773C22.9125 22.6601 23.0731 23.0439 23.0749 23.4448ZM24.8436 23.4561H26.107C26.5091 23.4561 26.8947 23.6158 27.179 23.9001C27.4633 24.1844 27.623 24.57 27.623 24.9721C27.623 25.3742 27.4633 25.7598 27.179 26.0441C26.8947 26.3284 26.5091 26.4881 26.107 26.4881H24.8436C24.8104 26.4881 24.7776 26.4816 24.7469 26.4689C24.7163 26.4562 24.6884 26.4376 24.665 26.4141C24.6415 26.3907 24.6229 26.3628 24.6102 26.3322C24.5975 26.3015 24.5909 26.2687 24.5909 26.2355V23.7087C24.5909 23.6755 24.5975 23.6427 24.6102 23.612C24.6229 23.5814 24.6415 23.5535 24.665 23.5301C24.6884 23.5066 24.7163 23.488 24.7469 23.4753C24.7776 23.4626 24.8104 23.4561 24.8436 23.4561H24.8436Z" fill="#4085C6"/>
</svg>
