<svg width="32" height="32" viewBox="0 0 32 32" fill="none" xmlns="http://www.w3.org/2000/svg">
<path d="M12.3787 21.1381C12.2722 21.1173 12.1762 21.0601 12.1071 20.9764C12.0379 20.8927 12 20.7876 11.9997 20.6791V20.2461C11.9997 20.1135 12.0524 19.9863 12.1462 19.8925C12.2399 19.7988 12.3671 19.7461 12.4997 19.7461H13.4997C13.7649 19.7461 14.0193 19.6407 14.2068 19.4532C14.3943 19.2657 14.4997 19.0113 14.4997 18.7461C14.4997 18.4809 14.3943 18.2265 14.2068 18.039C14.0193 17.8515 13.7649 17.7461 13.4997 17.7461H8.49971C8.23449 17.7461 7.98014 17.8515 7.7926 18.039C7.60506 18.2265 7.49971 18.4809 7.49971 18.7461C7.49971 19.0113 7.60506 19.2657 7.7926 19.4532C7.98014 19.6407 8.23449 19.7461 8.49971 19.7461H9.49971C9.63231 19.7461 9.75949 19.7988 9.85326 19.8925C9.94703 19.9863 9.99971 20.1135 9.99971 20.2461V20.6791C9.99984 20.7876 9.96218 20.8928 9.8932 20.9765C9.82422 21.0603 9.72823 21.1174 9.62171 21.1381C8.22169 21.4104 6.93682 22.0999 5.93592 23.116C4.93502 24.132 4.26493 25.4271 4.01371 26.8311C3.98974 26.9744 3.99727 27.1211 4.03578 27.2612C4.07429 27.4013 4.14285 27.5312 4.23669 27.6421C4.33053 27.753 4.4474 27.8421 4.57917 27.9032C4.71094 27.9644 4.85445 27.9961 4.99971 27.9961H16.9997C17.1451 27.9963 17.2889 27.9649 17.4209 27.9039C17.5529 27.8429 17.67 27.7538 17.7641 27.6429C17.8581 27.532 17.9269 27.4019 17.9655 27.2617C18.0041 27.1215 18.0117 26.9745 17.9877 26.8311C17.736 25.4272 17.0657 24.1322 16.0646 23.1162C15.0636 22.1002 13.7787 21.4106 12.3787 21.1381Z" fill="#51247A"/>
<path d="M27.0747 4.08907C26.9434 4.07788 26.8111 4.09295 26.6856 4.13341C26.5602 4.17388 26.444 4.23892 26.344 4.32474C26.2439 4.41056 26.1619 4.51545 26.1028 4.63328C26.0437 4.75112 26.0087 4.87954 25.9997 5.01107L25.4827 11.8501C25.4677 12.0475 25.407 12.2388 25.3052 12.4087C25.2035 12.5786 25.0637 12.7225 24.8967 12.8291C24.846 12.8532 24.7889 12.8603 24.7338 12.8495C24.6787 12.8387 24.6286 12.8105 24.5907 12.7691C24.1087 12.3931 23.5987 11.7971 23.6317 9.47807C23.636 9.26647 23.5731 9.05896 23.4519 8.88541C23.3308 8.71187 23.1577 8.58123 22.9576 8.51231C22.7575 8.44338 22.5407 8.43972 22.3384 8.50185C22.136 8.56399 21.9587 8.68871 21.8317 8.85807L16.8207 15.4581C16.7388 15.5645 16.6363 15.6534 16.5193 15.7194C16.4023 15.7853 16.2732 15.8271 16.1397 15.8421C16.0073 15.8582 15.8729 15.8481 15.7444 15.8122C15.6159 15.7764 15.4957 15.7155 15.3907 15.6331C15.2829 15.5479 15.1931 15.4422 15.1265 15.3221C15.0598 15.2019 15.0177 15.0698 15.0024 14.9333C14.9872 14.7968 14.9991 14.6586 15.0376 14.5267C15.0761 14.3948 15.1404 14.2719 15.2267 14.1651L17.9027 10.5271C18.0235 10.3626 18.0911 10.1652 18.0965 9.96127C18.1019 9.75732 18.0447 9.5566 17.9327 9.38607L15.5137 5.69607C15.3956 5.51974 15.3451 5.30665 15.3717 5.09607C15.3968 4.8322 15.3161 4.56918 15.1473 4.3648C14.9786 4.16041 14.7356 4.03138 14.4717 4.00607C14.3407 3.99145 14.208 4.00332 14.0817 4.04096C13.9553 4.07861 13.8378 4.14127 13.7361 4.22523C13.6344 4.30918 13.5507 4.41271 13.4898 4.52967C13.4289 4.64662 13.3922 4.77463 13.3817 4.90607C13.308 5.57731 13.4745 6.25295 13.8517 6.81307L15.6997 9.61607C15.7556 9.70128 15.7841 9.80154 15.7814 9.90341C15.7788 10.0053 15.745 10.1039 15.6847 10.1861L13.6397 12.9601C13.1471 13.5939 12.9257 14.3971 13.0239 15.1938C13.1221 15.9905 13.532 16.7158 14.1637 17.2111C14.6931 17.6291 15.3482 17.8557 16.0227 17.8541C16.1431 17.8542 16.2633 17.8469 16.3827 17.8321C16.7795 17.7849 17.163 17.6594 17.5109 17.4626C17.8587 17.2659 18.1639 17.0019 18.4087 16.6861L21.3447 12.8171C21.3965 12.7488 21.465 12.6951 21.5435 12.6609C21.6221 12.6267 21.7081 12.6133 21.7933 12.622C21.8786 12.6306 21.9601 12.661 22.0303 12.7102C22.1004 12.7594 22.1567 12.8258 22.1937 12.9031C22.4632 13.469 22.8632 13.9628 23.3607 14.3441C23.6825 14.61 24.0722 14.7808 24.4859 14.837C24.8995 14.8931 25.3207 14.8326 25.7017 14.6621C26.2001 14.4089 26.6252 14.0322 26.9365 13.5679C27.2478 13.1036 27.4348 12.5672 27.4797 12.0101L27.9997 5.16107C28.0095 5.02991 27.9934 4.8981 27.9522 4.7732C27.911 4.64829 27.8455 4.53274 27.7596 4.43317C27.6737 4.33359 27.569 4.25194 27.4514 4.19289C27.3339 4.13385 27.2059 4.09856 27.0747 4.08907Z" fill="#51247A"/>
</svg>
