<svg width="32" height="32" viewBox="0 0 32 32" fill="none" xmlns="http://www.w3.org/2000/svg">
<path d="M24.5 5.4998H17V4.4998C17 4.42499 16.9832 4.35113 16.9508 4.28368C16.9184 4.21623 16.8713 4.1569 16.813 4.11007C16.7546 4.06324 16.6865 4.0301 16.6137 4.01309C16.5408 3.99608 16.4651 3.99564 16.392 4.0118L7.392 6.0118C7.28088 6.03639 7.18146 6.09814 7.11019 6.18687C7.03892 6.2756 7.00004 6.38599 7 6.4998V25.4998C7.00004 25.6136 7.03892 25.724 7.11019 25.8127C7.18146 25.9015 7.28088 25.9632 7.392 25.9878L16.392 27.9878C16.4651 28.004 16.5408 28.0035 16.6137 27.9865C16.6865 27.9695 16.7546 27.9364 16.813 27.8895C16.8713 27.8427 16.9184 27.7834 16.9508 27.7159C16.9832 27.6485 17 27.5746 17 27.4998V26.4998H24.5C24.7652 26.4998 25.0196 26.3944 25.2071 26.2069C25.3946 26.0194 25.5 25.765 25.5 25.4998V6.4998C25.5 6.23459 25.3946 5.98023 25.2071 5.7927C25.0196 5.60516 24.7652 5.4998 24.5 5.4998ZM14.5 16.4998C14.5 16.7965 14.412 17.0865 14.2472 17.3332C14.0824 17.5798 13.8481 17.7721 13.574 17.8856C13.2999 17.9992 12.9983 18.0289 12.7074 17.971C12.4164 17.9131 12.1491 17.7702 11.9393 17.5605C11.7296 17.3507 11.5867 17.0834 11.5288 16.7924C11.4709 16.5015 11.5006 16.1999 11.6142 15.9258C11.7277 15.6517 11.92 15.4174 12.1666 15.2526C12.4133 15.0878 12.7033 14.9998 13 14.9998C13.3978 14.9998 13.7794 15.1578 14.0607 15.4391C14.342 15.7204 14.5 16.102 14.5 16.4998V16.4998ZM23 24.4998H17.5C17.3674 24.4998 17.2402 24.4471 17.1464 24.3534C17.0527 24.2596 17 24.1324 17 23.9998V7.9998C17 7.8672 17.0527 7.74002 17.1464 7.64625C17.2402 7.55248 17.3674 7.4998 17.5 7.4998H23C23.1326 7.4998 23.2598 7.55248 23.3536 7.64625C23.4473 7.74002 23.5 7.8672 23.5 7.9998V23.9998C23.5 24.1324 23.4473 24.2596 23.3536 24.3534C23.2598 24.4471 23.1326 24.4998 23 24.4998Z" fill="white"/>
</svg>
