<svg width="32" height="32" viewBox="0 0 32 32" fill="none" xmlns="http://www.w3.org/2000/svg">
<path d="M11.782 6.82118C11.864 6.73924 11.9291 6.64194 11.9735 6.53485C12.0179 6.42775 12.0407 6.31296 12.0407 6.19703C12.0407 6.0811 12.0179 5.9663 11.9735 5.85921C11.9291 5.75211 11.864 5.65481 11.782 5.57288C11.6128 5.39787 11.5183 5.16398 11.5183 4.92057C11.5183 4.67717 11.6128 4.44328 11.782 4.26827C11.9583 4.0955 12.1955 3.99913 12.4423 4.00001C12.6891 4.00088 12.9257 4.09895 13.1007 4.27296C13.6114 4.78496 13.8982 5.47858 13.8982 6.20172C13.8982 6.92486 13.6114 7.61848 13.1007 8.13048C13.0173 8.2116 12.9511 8.30865 12.9059 8.41587C12.8608 8.52309 12.8377 8.63829 12.8379 8.75463C12.8381 8.8716 12.8614 8.98738 12.9065 9.0953C12.9516 9.20322 13.0176 9.30116 13.1007 9.38347C13.1859 9.4684 13.2533 9.56936 13.2992 9.68051C13.3452 9.79167 13.3686 9.91082 13.3682 10.0311C13.3607 10.2097 13.3023 10.3825 13.1999 10.5291C13.0975 10.6757 12.9553 10.79 12.7902 10.8586C12.625 10.9271 12.4437 10.947 12.2676 10.916C12.0915 10.8849 11.9279 10.8043 11.7961 10.6834C11.2854 10.1714 10.9986 9.47777 10.9986 8.75463C10.9986 8.03149 11.2854 7.33787 11.7961 6.82587L11.782 6.82118ZM14.5977 8.74994C14.5974 9.10851 14.6681 9.4636 14.8058 9.79467C14.9436 10.1257 15.1456 10.4262 15.4002 10.6787C15.4851 10.7638 15.5861 10.8313 15.6972 10.8772C15.8084 10.9232 15.9275 10.9466 16.0478 10.9462C16.2265 10.9387 16.3993 10.8803 16.5459 10.7779C16.6925 10.6755 16.8068 10.5333 16.8753 10.3681C16.9438 10.203 16.9637 10.0217 16.9327 9.84556C16.9017 9.66946 16.821 9.50588 16.7001 9.37408C16.6181 9.29215 16.553 9.19485 16.5086 9.08776C16.4643 8.98066 16.4414 8.86587 16.4414 8.74994C16.4414 8.63401 16.4643 8.51921 16.5086 8.41212C16.553 8.30502 16.6181 8.20772 16.7001 8.12579C17.2108 7.61379 17.4976 6.92016 17.4976 6.19703C17.4976 5.47389 17.2108 4.78027 16.7001 4.26827C16.6137 4.18283 16.511 4.11556 16.3982 4.07043C16.2854 4.02529 16.1646 4.0032 16.0431 4.00547C15.8645 4.01298 15.6917 4.07137 15.5451 4.17378C15.3985 4.27619 15.2842 4.41834 15.2156 4.58351C15.1471 4.74867 15.1272 4.92998 15.1582 5.10609C15.1893 5.2822 15.2699 5.44578 15.3908 5.57757C15.4734 5.65919 15.539 5.75638 15.5837 5.86352C15.6284 5.97066 15.6515 6.08561 15.6515 6.20172C15.6515 6.31783 15.6284 6.43278 15.5837 6.53992C15.539 6.64706 15.4734 6.74425 15.3908 6.82587C15.1368 7.07859 14.9356 7.37921 14.7986 7.71029C14.6617 8.04137 14.5918 8.39634 14.593 8.75463L14.5977 8.74994ZM18.9949 6.82118C18.7418 7.07359 18.5409 7.37347 18.4039 7.70364C18.2669 8.0338 18.1963 8.38777 18.1963 8.74524C18.1963 9.10272 18.2669 9.45668 18.4039 9.78685C18.5409 10.117 18.7418 10.4169 18.9949 10.6693C19.0819 10.7605 19.1869 10.8325 19.3033 10.881C19.4196 10.9295 19.5447 10.9533 19.6707 10.9509C19.9162 10.9511 20.1521 10.8551 20.3277 10.6834C20.4982 10.509 20.5942 10.275 20.5952 10.0311C20.5929 9.78649 20.4953 9.55244 20.323 9.37878C20.2411 9.29679 20.1761 9.19947 20.1319 9.09238C20.0876 8.98529 20.0648 8.87052 20.0649 8.75463C20.064 8.6375 20.0868 8.52141 20.132 8.41334C20.1772 8.30527 20.2437 8.20746 20.3277 8.12579C20.8369 7.61398 21.1228 6.92136 21.1228 6.19937C21.1228 5.47738 20.8369 4.78477 20.3277 4.27296C20.1527 4.10379 19.9188 4.00923 19.6754 4.00923C19.432 4.00923 19.1981 4.10379 19.0231 4.27296C18.8553 4.44774 18.7616 4.68064 18.7616 4.92292C18.7616 5.1652 18.8553 5.39809 19.0231 5.57288C19.1072 5.65323 19.1743 5.74957 19.2206 5.85625C19.267 5.96292 19.2915 6.07778 19.2928 6.19406C19.2941 6.31035 19.2722 6.42573 19.2283 6.53343C19.1844 6.64112 19.1194 6.73895 19.0372 6.82118H18.9949ZM25.0956 22.5657C25.0956 25.5597 21.041 28 16.0525 28C11.064 28 7 25.5926 7 22.5798C7 21.1719 7.85879 19.8391 9.42151 18.8255C9.30406 17.9797 9.24916 17.1264 9.25726 16.2726C9.25726 14.1749 12.1246 12.6544 16.0431 12.6544C19.9616 12.6544 22.8149 14.1889 22.829 16.282C22.8378 17.1389 22.7829 17.9954 22.6647 18.8443C24.2321 19.8438 25.0862 21.1578 25.0862 22.5798L25.0956 22.5657ZM8.84898 22.5657C8.84898 24.5132 12.134 26.1604 16.0525 26.1604C19.971 26.1604 23.256 24.5132 23.256 22.5657C23.2296 22.2202 23.1281 21.8846 22.9587 21.5823C22.7894 21.2799 22.5561 21.0182 22.2752 20.8152C22.1233 21.3973 21.94 21.9706 21.7262 22.5328C21.5729 22.9347 21.325 23.2937 21.0035 23.5793C19.6731 24.7085 17.9852 25.3287 16.2402 25.3298H15.8601C14.1256 25.3343 12.4453 24.726 11.1156 23.6122C10.7879 23.3224 10.5338 22.9589 10.3742 22.5516C10.163 21.9932 9.97996 21.4159 9.81571 20.8246C9.5367 21.0301 9.30513 21.2932 9.13672 21.596C8.9683 21.8988 8.86697 22.2343 8.8396 22.5798L8.84898 22.5657ZM12.1011 21.8758C12.1532 22.0006 12.2317 22.1127 12.3311 22.2043C13.3209 23.0355 14.5723 23.4909 15.8648 23.4902H16.2449C17.5453 23.4893 18.8036 23.0289 19.7974 22.1903C19.8918 22.1019 19.9641 21.9926 20.0086 21.8711C20.3412 21.0002 20.591 20.0999 20.7547 19.1821C20.7597 19.1487 20.7675 19.1157 20.7782 19.0836C20.7782 19.0367 20.7782 18.9897 20.8017 18.9428C19.3136 19.6252 17.689 19.9575 16.0525 19.9142C14.4155 19.9635 12.789 19.6359 11.2986 18.9569C11.2986 19.0273 11.3456 19.2197 11.3456 19.2197C11.512 20.1307 11.7618 21.0246 12.0917 21.8899L12.1011 21.8758ZM21.0175 16.2867C21.0175 15.5733 19.0465 14.4987 16.0713 14.4987C13.2039 14.4987 11.125 15.5686 11.125 16.2867C11.1461 16.4078 11.192 16.5233 11.2598 16.6259C11.3276 16.7284 11.416 16.8159 11.5192 16.8826C12.2795 15.9441 14.0205 15.3293 16.0713 15.3293C18.122 15.3293 19.8678 15.9253 20.6233 16.8826C20.7198 16.8147 20.8019 16.7283 20.8647 16.6284C20.9275 16.5285 20.9699 16.4171 20.9894 16.3007L21.0175 16.2867Z" fill="#51247A"/>
</svg>
