<svg width="32" height="32" viewBox="0 0 32 32" fill="none" xmlns="http://www.w3.org/2000/svg">
<path d="M15.137 13.513C15.1023 13.4903 15.0624 13.4765 15.021 13.4731C14.9797 13.4696 14.9381 13.4764 14.9 13.493C14.4103 13.7041 13.9931 14.0541 13.7 14.4996C13.4069 14.9451 13.2507 15.4667 13.2507 16C13.2507 16.5333 13.4069 17.055 13.7 17.5005C13.9931 17.946 14.4103 18.2959 14.9 18.507C14.938 18.5236 14.9796 18.5305 15.021 18.527C15.0623 18.5236 15.1021 18.5098 15.1369 18.4871C15.1716 18.4644 15.2001 18.4334 15.2199 18.3969C15.2396 18.3604 15.25 18.3195 15.25 18.278V13.722C15.2499 13.6806 15.2395 13.6398 15.2198 13.6033C15.2001 13.5669 15.1716 13.5358 15.137 13.513Z" fill="#51247A"/>
<path d="M16.863 18.487C16.8977 18.5098 16.9376 18.5235 16.979 18.527C17.0203 18.5305 17.0619 18.5237 17.1 18.507C17.5897 18.2959 18.0069 17.946 18.3 17.5005C18.5931 17.055 18.7493 16.5333 18.7493 16C18.7493 15.4667 18.5931 14.9451 18.3 14.4996C18.0069 14.0541 17.5897 13.7041 17.1 13.493C17.062 13.4764 17.0204 13.4696 16.979 13.473C16.9377 13.4765 16.8979 13.4902 16.8631 13.513C16.8284 13.5357 16.7999 13.5667 16.7801 13.6032C16.7604 13.6397 16.75 13.6805 16.75 13.722V18.278C16.7499 18.3195 16.7602 18.3604 16.78 18.3969C16.7997 18.4334 16.8282 18.4644 16.863 18.487Z" fill="#51247A"/>
<path d="M25.25 12.25H28V19.75H25.25V12.25Z" fill="#51247A"/>
<path d="M14.75 8H5C4.73478 8 4.48043 8.10536 4.29289 8.29289C4.10536 8.48043 4 8.73478 4 9V10.25C4 10.3826 4.05268 10.5098 4.14645 10.6036C4.24021 10.6973 4.36739 10.75 4.5 10.75H6.5C6.96397 10.7505 7.40878 10.9351 7.73685 11.2631C8.06493 11.5912 8.24947 12.036 8.25 12.5V19.5C8.24947 19.964 8.06493 20.4088 7.73685 20.7369C7.40878 21.0649 6.96397 21.2495 6.5 21.25H4.5C4.36739 21.25 4.24021 21.3027 4.14645 21.3964C4.05268 21.4902 4 21.6174 4 21.75V23C4 23.2652 4.10536 23.5196 4.29289 23.7071C4.48043 23.8946 4.73478 24 5 24H14.75C14.8826 24 15.0098 23.9473 15.1036 23.8536C15.1973 23.7598 15.25 23.6326 15.25 23.5V20.573C15.2499 20.4634 15.2139 20.3569 15.1474 20.2698C15.0809 20.1828 14.9877 20.1199 14.882 20.091C13.9831 19.8479 13.1893 19.3154 12.6232 18.576C12.0572 17.8365 11.7505 16.9312 11.7505 16C11.7505 15.0688 12.0572 14.1635 12.6232 13.424C13.1893 12.6846 13.9831 12.1521 14.882 11.909C14.9877 11.8801 15.0809 11.8172 15.1474 11.7302C15.2139 11.6431 15.2499 11.5366 15.25 11.427V8.5C15.25 8.36739 15.1973 8.24021 15.1036 8.14645C15.0098 8.05268 14.8826 8 14.75 8Z" fill="#51247A"/>
<path d="M4 12.25H6.75V19.75H4V12.25Z" fill="#51247A"/>
<path d="M27 8H17.25C17.1174 8 16.9902 8.05268 16.8964 8.14645C16.8027 8.24021 16.75 8.36739 16.75 8.5V11.427C16.7501 11.5366 16.7861 11.6431 16.8526 11.7302C16.9191 11.8172 17.0123 11.8801 17.118 11.909C18.0169 12.1521 18.8107 12.6846 19.3768 13.424C19.9428 14.1635 20.2495 15.0688 20.2495 16C20.2495 16.9312 19.9428 17.8365 19.3768 18.576C18.8107 19.3154 18.0169 19.8479 17.118 20.091C17.0123 20.1199 16.9191 20.1828 16.8526 20.2698C16.7861 20.3569 16.7501 20.4634 16.75 20.573V23.5C16.75 23.6326 16.8027 23.7598 16.8964 23.8536C16.9902 23.9473 17.1174 24 17.25 24H27C27.2652 24 27.5196 23.8946 27.7071 23.7071C27.8946 23.5196 28 23.2652 28 23V21.75C28 21.6174 27.9473 21.4902 27.8536 21.3964C27.7598 21.3027 27.6326 21.25 27.5 21.25H25.5C25.036 21.2495 24.5912 21.0649 24.2631 20.7369C23.9351 20.4088 23.7505 19.964 23.75 19.5V12.5C23.7505 12.036 23.9351 11.5912 24.2631 11.2631C24.5912 10.9351 25.036 10.7505 25.5 10.75H27.5C27.6326 10.75 27.7598 10.6973 27.8536 10.6036C27.9473 10.5098 28 10.3826 28 10.25V9C28 8.73478 27.8946 8.48043 27.7071 8.29289C27.5196 8.10536 27.2652 8 27 8Z" fill="#51247A"/>
</svg>
