<svg width="32" height="32" viewBox="0 0 32 32" fill="none" xmlns="http://www.w3.org/2000/svg">
<path fill-rule="evenodd" clip-rule="evenodd" d="M20.1408 29.9844C19.1698 29.9848 18.2193 29.7043 17.404 29.1768C12.0137 25.6084 7.39636 20.9921 3.82687 15.6025C3.19368 14.6419 2.91046 13.4926 3.02481 12.3478C3.13916 11.2029 3.64411 10.1323 4.4548 9.31592L5.62228 8.148C5.99362 7.77652 6.43449 7.48183 6.91973 7.28075C7.40496 7.07968 7.92506 6.97617 8.45031 6.97612C8.97555 6.97607 9.49567 7.0795 9.98094 7.28049C10.4662 7.48148 10.9071 7.77609 11.2785 8.14751L13.4015 10.2691C13.7966 10.6643 14.1047 11.1378 14.3058 11.6592C14.3668 11.603 14.4305 11.5498 14.4968 11.5C14.4023 11.4291 14.313 11.3514 14.2297 11.2676C13.9975 11.0355 13.8133 10.7599 13.6876 10.4567C13.562 10.1534 13.4973 9.82829 13.4973 9.5C13.4973 9.17171 13.562 8.84663 13.6876 8.54334C13.8133 8.24006 13.9975 7.9645 14.2297 7.73242C14.313 7.6486 14.4023 7.57093 14.4968 7.5C14.4023 7.42907 14.313 7.3514 14.2297 7.26758C13.8801 6.91795 13.6421 6.47253 13.5457 5.98762C13.4492 5.50272 13.4987 5.00011 13.6879 4.54334C13.8771 4.08657 14.1975 3.69615 14.6086 3.42145C15.0196 3.14674 15.5029 3.00007 15.9973 3C19.7087 3.00427 23.2668 4.48037 25.8914 7.10454C28.5159 9.7287 29.9925 13.2867 29.9973 16.9981C29.9985 17.3268 29.9344 17.6525 29.8087 17.9563C29.6829 18.2601 29.4981 18.5359 29.2649 18.7676C28.7952 19.2351 28.16 19.4984 27.4973 19.5C27.1688 19.501 26.8435 19.4368 26.54 19.3111C26.2366 19.1854 25.9612 19.0006 25.7297 18.7676C25.6463 18.6841 25.5686 18.595 25.4973 18.501C25.426 18.595 25.3483 18.6841 25.2649 18.7676C24.7952 19.2351 24.16 19.4984 23.4973 19.5C23.1688 19.501 22.8435 19.4368 22.54 19.3111C22.2366 19.1854 21.9612 19.0006 21.7297 18.7676C21.6463 18.6841 21.5686 18.595 21.4973 18.501C21.4485 18.5654 21.3957 18.6289 21.3391 18.6904C21.8593 18.8914 22.3314 19.1995 22.7248 19.5947L24.8449 21.7158C25.5947 22.4659 26.0158 23.483 26.0158 24.5435C26.0158 25.604 25.5947 26.621 24.8449 27.3711L23.6799 28.5361C22.8591 29.3406 21.7892 29.8424 20.6457 29.959C20.478 29.9763 20.3095 29.9847 20.1408 29.9844ZM13.9416 15.2564C15.1318 16.5954 16.3996 17.8634 17.7385 19.0537C17.799 19.0147 17.8606 18.9776 17.9231 18.9424C17.8556 18.8875 17.7911 18.8292 17.7297 18.7676C17.4968 18.5361 17.3121 18.2606 17.1863 17.9572C17.0606 17.6538 16.9964 17.3284 16.9973 17C16.9976 16.8686 16.9719 16.7385 16.9216 16.6171C16.8713 16.4958 16.7975 16.3856 16.7043 16.293C16.5164 16.106 16.2623 16.0007 15.9973 16C15.6689 16.0008 15.3435 15.9365 15.0401 15.8108C14.7367 15.6851 14.4613 15.5005 14.2297 15.2676C14.1675 15.2054 14.1085 15.14 14.0529 15.0718C14.0178 15.1343 13.9807 15.1958 13.9416 15.2563V15.2564Z" fill="white"/>
<path fill-rule="evenodd" clip-rule="evenodd" d="M15.29 4.79289C15.4775 4.60536 15.7319 4.5 15.9971 4.5C19.3111 4.50395 22.4882 5.82218 24.8316 8.16553C27.1749 10.5089 28.4932 13.686 28.4971 17C28.4971 17.2652 28.3918 17.5196 28.2042 17.7071C28.0167 17.8946 27.7623 18 27.4971 18C27.2319 18 26.9775 17.8946 26.79 17.7071C26.6025 17.5196 26.4971 17.2652 26.4971 17C26.4939 14.2162 25.3867 11.5473 23.4182 9.57889C21.4498 7.61044 18.7809 6.50318 15.9971 6.5C15.7993 6.5 15.606 6.44135 15.4415 6.33147C15.2771 6.22159 15.1489 6.06541 15.0732 5.88268C14.9976 5.69995 14.9777 5.49889 15.0163 5.30491C15.0549 5.11092 15.1502 4.93274 15.29 4.79289ZM19.8966 19.9231C20.5595 19.9231 21.1953 20.1864 21.6641 20.655L23.7841 22.776C24.2528 23.2448 24.5161 23.8806 24.5161 24.5435C24.5161 25.2064 24.2528 25.8422 23.7841 26.311L22.6191 27.475C22.0446 28.0369 21.2961 28.3867 20.4966 28.467C19.697 28.5473 18.8939 28.3534 18.2191 27.917C13.0055 24.4562 8.53714 19.9871 5.07711 14.773C4.63479 14.1002 4.43731 13.2958 4.51779 12.4946C4.59827 11.6935 4.95181 10.9444 5.51911 10.373L6.68311 9.208C7.15193 8.73932 7.7877 8.47603 8.45061 8.47603C9.11352 8.47603 9.74929 8.73932 10.2181 9.208L12.3411 11.33C12.8086 11.7996 13.0711 12.4353 13.0711 13.098C13.0711 13.7607 12.8086 14.3964 12.3411 14.866L11.9551 15.25C13.7121 17.3453 15.6491 19.2827 17.7441 21.04L18.1291 20.655C18.598 20.1864 19.2337 19.9231 19.8966 19.9231ZM15.9971 10.5C17.7204 10.5021 19.3725 11.1876 20.591 12.4061C21.8095 13.6246 22.495 15.2767 22.4971 17C22.4971 17.2652 22.6025 17.5196 22.79 17.7071C22.9775 17.8946 23.2319 18 23.4971 18C23.7623 18 24.0167 17.8946 24.2042 17.7071C24.3918 17.5196 24.4971 17.2652 24.4971 17C24.4945 14.7465 23.5981 12.586 22.0046 10.9925C20.4111 9.39901 18.2506 8.50263 15.9971 8.5C15.7319 8.5 15.4775 8.60536 15.29 8.79289C15.1025 8.98043 14.9971 9.23478 14.9971 9.5C14.9971 9.76522 15.1025 10.0196 15.29 10.2071C15.4775 10.3946 15.7319 10.5 15.9971 10.5ZM17.7649 15.2322C17.296 14.7634 16.6602 14.5 15.9971 14.5C15.7319 14.5 15.4775 14.3946 15.29 14.2071C15.1025 14.0196 14.9971 13.7652 14.9971 13.5C14.9971 13.2348 15.1025 12.9804 15.29 12.7929C15.4775 12.6054 15.7319 12.5 15.9971 12.5C17.1902 12.5013 18.334 12.9759 19.1776 13.8195C20.0212 14.6631 20.4958 15.8069 20.4971 17C20.4971 17.2652 20.3918 17.5196 20.2042 17.7071C20.0167 17.8946 19.7623 18 19.4971 18C19.2319 18 18.9775 17.8946 18.79 17.7071C18.6025 17.5196 18.4971 17.2652 18.4971 17C18.4971 16.337 18.2337 15.7011 17.7649 15.2322Z" fill="black"/>
</svg>
