<svg width="32" height="32" viewBox="0 0 32 32" fill="none" xmlns="http://www.w3.org/2000/svg">
<path d="M12.7487 29C11.5553 28.9997 10.4109 28.5255 9.56702 27.6816C8.72317 26.8378 8.24897 25.6934 8.24866 24.5V16.2949C7.74373 15.8426 7.37078 15.2619 7.1694 14.6145C6.96802 13.9672 6.94575 13.2774 7.10494 12.6185C7.26414 11.9595 7.59886 11.356 8.07355 10.872C8.54823 10.388 9.14516 10.0416 9.80091 9.86963C10.2117 9.01991 10.8287 8.28665 11.5958 7.73682C11.8403 7.5686 12.0327 7.33514 12.151 7.06299C12.2666 6.79638 12.3058 6.50292 12.2643 6.21533L12.2487 6.10791V6C12.2487 4.93913 12.6701 3.92172 13.4202 3.17157C14.1704 2.42143 15.1878 2 16.2487 2C17.3095 2 18.3269 2.42143 19.0771 3.17157C19.8272 3.92172 20.2487 4.93913 20.2487 6V6.10742L20.233 6.21387C20.1916 6.50192 20.2308 6.79583 20.3463 7.06295C20.4618 7.33006 20.6491 7.55994 20.8873 7.72705C21.6617 8.28013 22.2852 9.01843 22.7008 9.87451C23.3558 10.0458 23.9521 10.3916 24.4262 10.8748C24.9004 11.3581 25.2346 11.9609 25.3934 12.6191C25.5522 13.2772 25.5296 13.9661 25.3281 14.6124C25.1265 15.2587 24.7534 15.8383 24.2487 16.2895V24.5C24.2484 25.6934 23.7741 26.8378 22.9303 27.6816C22.0865 28.5255 20.942 28.9997 19.7487 29H12.7487Z" fill="white"/>
<path d="M23.9987 13.5C23.998 12.9382 23.7873 12.397 23.408 11.9825C23.0288 11.5681 22.5083 11.3104 21.9487 11.26C21.8513 11.2516 21.7584 11.2149 21.6816 11.1543C21.6048 11.0937 21.5475 11.0119 21.5167 10.919C21.2274 10.1299 20.7081 9.44571 20.0257 8.955C19.5605 8.6286 19.1949 8.17965 18.9695 7.65801C18.7441 7.13637 18.6677 6.56245 18.7487 6C18.7487 5.33696 18.4853 4.70107 18.0165 4.23223C17.5476 3.76339 16.9118 3.5 16.2487 3.5C15.5857 3.5 14.9498 3.76339 14.481 4.23223C14.0121 4.70107 13.7487 5.33696 13.7487 6C13.83 6.56257 13.7535 7.13665 13.5279 7.65836C13.3023 8.18007 12.9363 8.62893 12.4707 8.955C11.7888 9.44506 11.2697 10.1286 10.9807 10.917C10.9499 11.0095 10.8926 11.091 10.8161 11.1514C10.7395 11.2119 10.6469 11.2485 10.5497 11.257C10.0836 11.2988 9.64213 11.4847 9.28665 11.7891C8.93116 12.0934 8.67937 12.501 8.56629 12.9551C8.4532 13.4092 8.48445 13.8872 8.65569 14.3227C8.82693 14.7582 9.12964 15.1295 9.52172 15.385C9.59086 15.4301 9.64777 15.4916 9.68738 15.564C9.72699 15.6364 9.74806 15.7175 9.74872 15.8V24.5C9.74872 25.2956 10.0648 26.0587 10.6274 26.6213C11.19 27.1839 11.9531 27.5 12.7487 27.5H19.7487C20.1427 27.5 20.5328 27.4224 20.8968 27.2717C21.2608 27.1209 21.5915 26.8999 21.8701 26.6213C22.1486 26.3428 22.3696 26.012 22.5204 25.6481C22.6711 25.2841 22.7487 24.894 22.7487 24.5V15.8C22.7487 15.7168 22.7695 15.6349 22.8091 15.5617C22.8487 15.4886 22.906 15.4264 22.9757 15.381C23.289 15.1771 23.5466 14.8983 23.7252 14.5699C23.9038 14.2415 23.9978 13.8738 23.9987 13.5ZM14.0327 11.25C13.9441 11.2502 13.8575 11.2231 13.7849 11.1723C13.7122 11.1215 13.657 11.0496 13.6267 10.9662C13.5964 10.8829 13.5925 10.7923 13.6156 10.7067C13.6387 10.6212 13.6876 10.5448 13.7557 10.488C14.4465 9.97504 14.9929 9.29229 15.3421 8.50596C15.6913 7.71962 15.8314 6.8564 15.7487 6C15.7487 5.93434 15.7617 5.86932 15.7868 5.80866C15.8119 5.748 15.8487 5.69288 15.8952 5.64645C15.9416 5.60002 15.9967 5.56319 16.0574 5.53806C16.118 5.51293 16.1831 5.5 16.2487 5.5C16.3144 5.5 16.3794 5.51293 16.4401 5.53806C16.5007 5.56319 16.5558 5.60002 16.6023 5.64645C16.6487 5.69288 16.6855 5.748 16.7107 5.80866C16.7358 5.86932 16.7487 5.93434 16.7487 6C16.6663 6.85624 16.8064 7.71925 17.1556 8.50539C17.5048 9.29152 18.0511 9.97412 18.7417 10.487C18.8097 10.544 18.8584 10.6205 18.8814 10.7062C18.9044 10.7919 18.9004 10.8826 18.87 10.9659C18.8396 11.0492 18.7844 11.1212 18.7117 11.172C18.639 11.2229 18.5524 11.2501 18.4637 11.25H14.0327ZM20.7487 24.5C20.7487 24.6313 20.7229 24.7614 20.6726 24.8827C20.6224 25.004 20.5487 25.1143 20.4559 25.2072C20.363 25.3 20.2528 25.3737 20.1314 25.4239C20.0101 25.4742 19.88 25.5 19.7487 25.5H12.7487C12.4835 25.5 12.2291 25.3946 12.0416 25.2071C11.8541 25.0196 11.7487 24.7652 11.7487 24.5V16.5C11.7487 16.3674 11.8014 16.2402 11.8952 16.1464C11.9889 16.0527 12.1161 16 12.2487 16H20.2487C20.3144 16 20.3794 16.0129 20.4401 16.038C20.5008 16.0631 20.5559 16.1 20.6023 16.1464C20.6488 16.1928 20.6856 16.248 20.7107 16.3086C20.7358 16.3693 20.7487 16.4343 20.7487 16.5V17.5C20.7487 17.5657 20.7358 17.6307 20.7107 17.6914C20.6856 17.752 20.6488 17.8072 20.6023 17.8536C20.5559 17.9 20.5008 17.9369 20.4401 17.962C20.3794 17.9871 20.3144 18 20.2487 18H18.7487C18.5498 18 18.359 18.079 18.2184 18.2197C18.0777 18.3603 17.9987 18.5511 17.9987 18.75C17.9987 18.9489 18.0777 19.1397 18.2184 19.2803C18.359 19.421 18.5498 19.5 18.7487 19.5H20.2487C20.3144 19.5 20.3794 19.5129 20.4401 19.538C20.5008 19.5631 20.5559 19.6 20.6023 19.6464C20.6488 19.6928 20.6856 19.748 20.7107 19.8086C20.7358 19.8693 20.7487 19.9343 20.7487 20V21C20.7487 21.0657 20.7358 21.1307 20.7107 21.1914C20.6856 21.252 20.6488 21.3072 20.6023 21.3536C20.5559 21.4 20.5008 21.4369 20.4401 21.462C20.3794 21.4871 20.3144 21.5 20.2487 21.5H18.7487C18.5498 21.5 18.359 21.579 18.2184 21.7197C18.0777 21.8603 17.9987 22.0511 17.9987 22.25C17.9987 22.4489 18.0777 22.6397 18.2184 22.7803C18.359 22.921 18.5498 23 18.7487 23H20.2487C20.3144 23 20.3794 23.0129 20.4401 23.038C20.5008 23.0631 20.5559 23.1 20.6023 23.1464C20.6488 23.1928 20.6856 23.248 20.7107 23.3086C20.7358 23.3693 20.7487 23.4343 20.7487 23.5V24.5Z" fill="#4085C6"/>
</svg>
