<svg width="32" height="32" viewBox="0 0 32 32" fill="none" xmlns="http://www.w3.org/2000/svg">
<path d="M26.5 6H5.5C5.10218 6 4.72064 6.15804 4.43934 6.43934C4.15804 6.72064 4 7.10218 4 7.5V13C4 13.3978 4.15804 13.7794 4.43934 14.0607C4.72064 14.342 5.10218 14.5 5.5 14.5H7.723C7.77782 14.5001 7.83116 14.4822 7.87474 14.4489C7.91831 14.4156 7.94969 14.3689 7.964 14.316C8.246 13.284 8.564 12.288 8.921 11.338C8.93523 11.3002 8.94007 11.2595 8.93511 11.2193C8.93016 11.1792 8.91555 11.1409 8.89255 11.1077C8.86954 11.0745 8.83883 11.0473 8.80303 11.0286C8.76723 11.0098 8.72742 11 8.687 11H7.5C7.23478 11 6.98043 10.8946 6.79289 10.7071C6.60536 10.5196 6.5 10.2652 6.5 10C6.5 9.73478 6.60536 9.48043 6.79289 9.29289C6.98043 9.10536 7.23478 9 7.5 9H24.5C24.7652 9 25.0196 9.10536 25.2071 9.29289C25.3946 9.48043 25.5 9.73478 25.5 10C25.5 10.2652 25.3946 10.5196 25.2071 10.7071C25.0196 10.8946 24.7652 11 24.5 11H23.307C23.2666 11 23.2268 11.0098 23.191 11.0286C23.1552 11.0473 23.1245 11.0745 23.1015 11.1077C23.0784 11.1409 23.0638 11.1792 23.0589 11.2193C23.0539 11.2595 23.0588 11.3002 23.073 11.338C23.429 12.287 23.748 13.284 24.03 14.316C24.0445 14.3688 24.0759 14.4155 24.1194 14.4487C24.163 14.4819 24.2162 14.5 24.271 14.5H26.5C26.8978 14.5 27.2794 14.342 27.5607 14.0607C27.842 13.7794 28 13.3978 28 13V7.5C28 7.10218 27.842 6.72064 27.5607 6.43934C27.2794 6.15804 26.8978 6 26.5 6Z" fill="white"/>
<path d="M21.06 11.659C21.0416 11.6122 21.0095 11.572 20.968 11.5437C20.9264 11.5153 20.8773 11.5001 20.827 11.5H11.167C11.1167 11.5001 11.0676 11.5153 11.0261 11.5437C10.9845 11.572 10.9524 11.6122 10.934 11.659C9.35163 15.9282 8.52789 20.4411 8.50001 24.994C8.49921 25.0602 8.51156 25.1258 8.53633 25.1872C8.5611 25.2485 8.59781 25.3044 8.64431 25.3514C8.69082 25.3985 8.74621 25.4359 8.80727 25.4614C8.86833 25.4869 8.93384 25.5 9.00001 25.5H22.994C23.0602 25.5 23.1257 25.4869 23.1867 25.4614C23.2478 25.4359 23.3032 25.3985 23.3497 25.3514C23.3962 25.3044 23.4329 25.2485 23.4577 25.1872C23.4825 25.1258 23.4948 25.0602 23.494 24.994C23.4665 20.4411 22.6428 15.928 21.06 11.659ZM17.075 21.95C17.0185 21.9614 16.9676 21.992 16.9311 22.0367C16.8946 22.0814 16.8748 22.1373 16.875 22.195V22.503C16.875 22.7019 16.796 22.8927 16.6553 23.0333C16.5147 23.174 16.3239 23.253 16.125 23.253C15.9261 23.253 15.7353 23.174 15.5947 23.0333C15.454 22.8927 15.375 22.7019 15.375 22.503V22.25C15.375 22.1837 15.3487 22.1201 15.3018 22.0732C15.2549 22.0263 15.1913 22 15.125 22H14.625C14.4261 22 14.2353 21.921 14.0947 21.7803C13.954 21.6397 13.875 21.4489 13.875 21.25C13.875 21.0511 13.954 20.8603 14.0947 20.7197C14.2353 20.579 14.4261 20.5 14.625 20.5H16.658C16.7954 20.4999 16.9285 20.452 17.0344 20.3645C17.1404 20.277 17.2126 20.1555 17.2387 20.0206C17.2648 19.8857 17.2432 19.7459 17.1776 19.6252C17.112 19.5045 17.0064 19.4104 16.879 19.359L14.814 18.533C14.3964 18.3669 14.0436 18.0703 13.8084 17.6874C13.5731 17.3045 13.4679 16.8558 13.5085 16.4082C13.5491 15.9606 13.7333 15.5382 14.0336 15.2038C14.334 14.8695 14.7343 14.6412 15.175 14.553C15.2316 14.5416 15.2824 14.511 15.3189 14.4663C15.3554 14.4216 15.3752 14.3657 15.375 14.308V14C15.375 13.8011 15.454 13.6103 15.5947 13.4697C15.7353 13.329 15.9261 13.25 16.125 13.25C16.3239 13.25 16.5147 13.329 16.6553 13.4697C16.796 13.6103 16.875 13.8011 16.875 14V14.25C16.875 14.3163 16.9013 14.3799 16.9482 14.4268C16.9951 14.4737 17.0587 14.5 17.125 14.5H17.625C17.8239 14.5 18.0147 14.579 18.1553 14.7197C18.296 14.8603 18.375 15.0511 18.375 15.25C18.375 15.4489 18.296 15.6397 18.1553 15.7803C18.0147 15.921 17.8239 16 17.625 16H15.592C15.4546 16.0001 15.3215 16.048 15.2156 16.1355C15.1097 16.223 15.0374 16.3445 15.0113 16.4794C14.9852 16.6143 15.0068 16.7541 15.0724 16.8748C15.138 16.9955 15.2436 17.0896 15.371 17.141L17.436 17.967C17.8536 18.1331 18.2064 18.4297 18.4416 18.8126C18.6769 19.1955 18.7821 19.6442 18.7415 20.0918C18.7009 20.5394 18.5167 20.9618 18.2164 21.2962C17.916 21.6305 17.5157 21.8588 17.075 21.947V21.95Z" fill="white"/>
</svg>
