<svg width="32" height="32" viewBox="0 0 32 32" fill="none" xmlns="http://www.w3.org/2000/svg">
<path fill-rule="evenodd" clip-rule="evenodd" d="M14.4944 30C14.23 29.9995 13.9682 29.9468 13.7241 29.8451C13.4799 29.7434 13.2582 29.5946 13.0716 29.4072C12.8859 29.2221 12.7388 29.0019 12.6388 28.7595C12.5388 28.5172 12.4879 28.2573 12.4891 27.9951V26.9678H6.13897C5.46596 26.9679 4.81227 26.7428 4.28204 26.3283C3.75181 25.9138 3.37554 25.3338 3.21319 24.6807L3.18581 24.5459L3.01981 23.459C2.9828 23.2135 2.99777 22.963 3.06375 22.7236C3.09945 22.5988 3.14822 22.478 3.20926 22.3633C3.13995 22.203 3.09518 22.0331 3.07645 21.8594C3.04642 21.5748 3.08631 21.2872 3.19266 21.0215C3.3704 20.5821 6.31229 13.2398 6.31229 13.2398C6.53245 12.6768 6.91848 12.1941 7.41922 11.8555C7.61157 11.7249 7.81834 11.6169 8.03543 11.5337C8.24418 10.4414 8.7777 9.43751 9.56622 8.65332L9.70831 8.51123C9.70443 7.98267 9.81517 7.45954 10.0329 6.97789C10.2506 6.49624 10.5702 6.06751 10.9695 5.72123L13.0833 3.89111C13.7477 3.31666 14.5966 3.00037 15.4749 3C15.5643 3 15.6536 3.00342 15.743 3.00977C16.2223 3.04337 16.6901 3.17176 17.1194 3.38751C17.5488 3.60325 17.931 3.90205 18.244 4.2666C18.876 5.00197 19.1922 5.95709 19.1238 6.92432C19.0903 7.40355 18.9621 7.87137 18.7465 8.30068C18.5309 8.72999 18.2323 9.11225 17.868 9.42532C17.868 9.42532 15.6892 11.3111 15.6546 11.3389H23.9041C24.5141 11.3373 25.1101 11.5211 25.6131 11.8661C26.1161 12.2111 26.5023 12.7009 26.7205 13.2705L29.743 21.044C29.8482 21.311 29.8847 21.6001 29.8494 21.8848C29.8297 22.0502 29.7866 22.212 29.7215 22.3653C29.7746 22.4641 29.818 22.5678 29.8514 22.6749C29.9264 22.9217 29.9474 23.1818 29.9129 23.4375L29.7498 24.544L29.7381 24.5938C29.5909 25.2649 29.2194 25.8657 28.6849 26.2973C28.1503 26.7289 27.4847 26.9654 26.7977 26.9678H20.5418V27.9951C20.5416 28.5268 20.3304 29.0367 19.9544 29.4126C19.5784 29.7886 19.0686 29.9998 18.5369 30H14.4944Z" fill="white"/>
<path fill-rule="evenodd" clip-rule="evenodd" d="M28.2271 21.9017C28.1909 21.9209 28.1505 21.931 28.1095 21.9312L4.81951 21.9261C4.77821 21.9261 4.73755 21.9159 4.70108 21.8966C4.66461 21.8772 4.63344 21.8492 4.6103 21.815C4.58716 21.7808 4.57276 21.7414 4.56836 21.7004C4.56396 21.6593 4.56969 21.6178 4.58505 21.5795C4.79074 21.0716 5.33105 19.7229 6.76539 16.1427C7.04353 15.4484 7.35528 14.6702 7.70473 13.798C7.81507 13.513 8.00952 13.2683 8.26223 13.0965C8.51494 12.9246 8.81395 12.8337 9.11955 12.8359H9.18625C9.25325 12.8359 9.3175 12.8093 9.36488 12.7619C9.41226 12.7145 9.43889 12.6503 9.4389 12.5833V12.5762C9.43721 12.045 9.54104 11.5187 9.74436 11.0279C9.94768 10.5371 10.2464 10.0916 10.6233 9.71723L11.1842 9.15636C11.2141 9.12679 11.236 9.0902 11.248 9.04993C11.26 9.00967 11.2617 8.96703 11.2529 8.92595C11.1748 8.54964 11.1984 8.15931 11.3213 7.79516C11.4442 7.43101 11.662 7.10622 11.9522 6.85425L14.0654 5.02509C14.4984 4.65093 15.0623 4.46411 15.633 4.50571C16.2038 4.54732 16.7346 4.81395 17.1088 5.24694C17.4829 5.67993 17.6697 6.24382 17.6281 6.81456C17.5865 7.3853 17.3199 7.91613 16.8869 8.29029L14.7748 10.1194C14.509 10.35 14.1908 10.5119 13.848 10.591C13.5051 10.6701 13.1481 10.664 12.8082 10.5732C12.7654 10.5618 12.7204 10.5619 12.6776 10.5735C12.6349 10.585 12.5959 10.6076 12.5646 10.6389L12.0523 11.1442C11.864 11.3319 11.7149 11.5552 11.6136 11.801C11.5123 12.0468 11.4608 12.3103 11.4621 12.5762V15.8707C11.461 15.9709 11.4797 16.0704 11.5173 16.1634C11.5549 16.2564 11.6105 16.341 11.681 16.4123C11.7515 16.4836 11.8354 16.5402 11.928 16.5788C12.0205 16.6175 12.1198 16.6374 12.2201 16.6374C12.3203 16.6374 12.4196 16.6175 12.5121 16.5788C12.6047 16.5402 12.6886 16.4836 12.7591 16.4123C12.8296 16.341 12.8853 16.2564 12.9228 16.1634C12.9604 16.0704 12.9792 15.9709 12.978 15.8707V13.0916C12.978 13.0246 13.0046 12.9603 13.052 12.913C13.0994 12.8656 13.1636 12.839 13.2306 12.839H23.9044C24.2106 12.8372 24.5101 12.9288 24.7628 13.1016C25.0156 13.2744 25.2097 13.5201 25.3192 13.8061L28.3449 21.5876C28.3599 21.6257 28.3653 21.667 28.3605 21.7077C28.3558 21.7484 28.3411 21.7873 28.3177 21.821C28.2945 21.8548 28.2634 21.8825 28.2271 21.9017ZM23.1978 20.3568C23.3201 20.2988 23.4195 20.2018 23.4803 20.0809C23.5411 19.9601 23.5598 19.8224 23.5335 19.6897L22.5634 14.8389C22.5358 14.7014 22.4614 14.5777 22.3529 14.4889C22.2443 14.4 22.1084 14.3516 21.9681 14.3518H16.0683C15.9282 14.3518 15.7925 14.4004 15.6842 14.4892C15.5759 14.578 15.5016 14.7015 15.4741 14.8389L14.504 19.6897C14.4864 19.7776 14.4884 19.8684 14.5101 19.9555C14.5318 20.0425 14.5725 20.1237 14.6294 20.1931C14.6862 20.2625 14.7577 20.3185 14.8388 20.3569C14.9199 20.3953 15.0085 20.4152 15.0982 20.4153H22.9383C23.0281 20.4153 23.1167 20.3953 23.1978 20.3568ZM4.64681 22.9646C4.67997 22.9494 4.71604 22.9416 4.75252 22.9418H28.1779C28.2142 22.9418 28.2501 22.9496 28.2831 22.9648C28.3161 22.9799 28.3455 23.002 28.3692 23.0296C28.3929 23.0571 28.4104 23.0894 28.4204 23.1243C28.4305 23.1592 28.4329 23.1959 28.4275 23.2318L28.2729 24.2727C28.1986 24.6103 28.0116 24.9126 27.7428 25.1298C27.4739 25.3471 27.1391 25.4664 26.7934 25.4682H19.2948C19.2616 25.4682 19.2288 25.4747 19.1981 25.4874C19.1675 25.5001 19.1396 25.5187 19.1162 25.5422C19.0927 25.5657 19.0741 25.5935 19.0614 25.6242C19.0487 25.6548 19.0422 25.6877 19.0422 25.7209V27.9947C19.0422 28.1287 18.989 28.2572 18.8942 28.352C18.7994 28.4467 18.6709 28.5 18.5369 28.5H14.4946C14.3606 28.5 14.2321 28.4467 14.1373 28.352C14.0425 28.2572 13.9893 28.1287 13.9893 27.9947V25.7209C13.9893 25.6877 13.9828 25.6548 13.9701 25.6242C13.9574 25.5935 13.9388 25.5656 13.9153 25.5422C13.8918 25.5187 13.864 25.5001 13.8333 25.4874C13.8027 25.4747 13.7698 25.4682 13.7366 25.4682H6.13905C5.80091 25.4681 5.47251 25.355 5.20608 25.1468C4.93964 24.9386 4.75047 24.6473 4.66865 24.3192L4.50292 23.2328C4.4943 23.1785 4.50371 23.1229 4.52969 23.0744C4.55568 23.026 4.59682 22.9874 4.64682 22.9646H4.64681Z" fill="#51247A"/>
</svg>
