<svg width="32" height="32" viewBox="0 0 32 32" fill="none" xmlns="http://www.w3.org/2000/svg">
<path d="M12.283 6.67467C12.283 7.38403 12.5648 8.06434 13.0664 8.56594C13.5679 9.06754 14.2483 9.34933 14.9576 9.34933C15.667 9.34933 16.3473 9.06754 16.8489 8.56594C17.3505 8.06434 17.6323 7.38403 17.6323 6.67467C17.6323 5.9653 17.3505 5.28499 16.8489 4.78339C16.3473 4.28179 15.667 4 14.9576 4C14.2483 4 13.5679 4.28179 13.0664 4.78339C12.5648 5.28499 12.283 5.9653 12.283 6.67467Z" fill="#2EA836"/>
<path d="M17.3017 15.1222C18.0856 15.7098 18.9591 16.1672 19.8886 16.4767L21.1468 16.8961C21.3107 16.9504 21.4823 16.9782 21.655 16.9785C22.0389 16.9785 22.4101 16.8408 22.7012 16.5906C22.9923 16.3403 23.184 15.9939 23.2416 15.6144C23.2895 15.2275 23.1997 14.836 22.9878 14.5087C22.7759 14.1814 22.4556 13.9392 22.0829 13.8245L20.9007 13.4319C20.2995 13.2312 19.7345 12.935 19.2275 12.5546L18.1405 11.7393C17.2353 11.0608 16.1593 10.6474 15.0326 10.5454C13.906 10.4433 12.7732 10.6567 11.7609 11.1616C10.6474 11.7138 9.70764 12.5622 9.04496 13.6137C8.38228 14.6652 8.02229 15.8791 8.00456 17.1218C7.98789 17.3425 8.01704 17.5643 8.09019 17.7731C8.16334 17.982 8.2789 18.1735 8.42962 18.3356C8.58033 18.4977 8.76294 18.6268 8.96597 18.7149C9.16899 18.803 9.38804 18.8482 9.60936 18.8475C10.0216 18.848 10.4182 18.6899 10.717 18.4058C11.0158 18.1218 11.1938 17.7336 11.2142 17.3219C11.207 16.6918 11.3631 16.0705 11.6672 15.5186C11.9713 14.9667 12.413 14.5028 12.9495 14.1722C12.9901 14.1475 13.0365 14.134 13.084 14.1332C13.1315 14.1324 13.1784 14.1443 13.2198 14.1676C13.2612 14.1909 13.2957 14.2249 13.3196 14.2659C13.3435 14.307 13.3561 14.3536 13.356 14.4012V15.853C13.3561 17.3704 13.19 18.8833 12.8607 20.3646C12.4251 22.1855 11.6191 23.8972 10.4931 25.393C10.2273 25.7255 10.1046 26.15 10.1519 26.5731C10.1991 26.9961 10.4125 27.383 10.745 27.6488C11.0776 27.9145 11.5021 28.0372 11.9251 27.99C12.3482 27.9427 12.7351 27.7294 13.0008 27.3968C14.2314 25.6738 15.1577 23.7527 15.7397 21.7169C15.7543 21.6708 15.7812 21.6296 15.8174 21.5976C15.8537 21.5655 15.8979 21.5439 15.9454 21.535C15.9929 21.5262 16.042 21.5303 16.0873 21.5471C16.1327 21.5638 16.1726 21.5926 16.2029 21.6302C17.3506 23.232 18.2242 25.0133 18.7877 26.9015C18.8942 27.2211 19.0985 27.4991 19.3718 27.6961C19.645 27.8931 19.9733 27.9991 20.3102 27.9992C20.4826 27.9991 20.6539 27.971 20.8173 27.9157C21.0176 27.8491 21.2027 27.7437 21.3622 27.6054C21.5217 27.4671 21.6523 27.2988 21.7466 27.11C21.8409 26.9211 21.8971 26.7156 21.9118 26.505C21.9266 26.2945 21.8996 26.0831 21.8326 25.883C20.9283 22.8236 19.2442 20.0518 16.9454 17.8397C16.8275 17.7408 16.7324 17.6174 16.6668 17.4781C16.6012 17.3389 16.5667 17.187 16.5656 17.033V15.103C16.5656 15.0533 16.5795 15.0046 16.6056 14.9624C16.6317 14.9201 16.6691 14.886 16.7135 14.8638C16.7579 14.8415 16.8076 14.8321 16.8571 14.8366C16.9066 14.8411 16.9538 14.8592 16.9936 14.889L17.3017 15.1222Z" fill="#2EA836"/>
</svg>
