<svg width="32" height="32" viewBox="0 0 32 32" fill="none" xmlns="http://www.w3.org/2000/svg">
<path d="M22.9996 16.0005H16.9996C16.0376 16.0002 15.1078 16.3466 14.3805 16.9762C13.6532 17.6058 13.1771 18.4764 13.0396 19.4285C13.0292 19.4999 13.0344 19.5728 13.0548 19.642C13.0752 19.7112 13.1104 19.7752 13.1579 19.8296C13.2054 19.8839 13.2641 19.9274 13.33 19.9569C13.3959 19.9864 13.4674 20.0012 13.5396 20.0005H26.4636C26.5357 20.0012 26.6071 19.9864 26.6729 19.9569C26.7387 19.9275 26.7973 19.8841 26.8448 19.8299C26.8923 19.7757 26.9275 19.7118 26.948 19.6427C26.9685 19.5736 26.9738 19.5009 26.9636 19.4295C26.8261 18.4766 26.3496 17.6052 25.6214 16.9753C24.8933 16.3454 23.9624 15.9993 22.9996 16.0005ZM17.2496 18.5005C17.1012 18.5005 16.9562 18.4565 16.8329 18.3741C16.7096 18.2917 16.6134 18.1745 16.5567 18.0375C16.4999 17.9005 16.485 17.7497 16.514 17.6042C16.5429 17.4587 16.6144 17.3251 16.7192 17.2202C16.8241 17.1153 16.9578 17.0438 17.1033 17.0149C17.2487 16.986 17.3995 17.0008 17.5366 17.0576C17.6736 17.1143 17.7908 17.2105 17.8732 17.3338C17.9556 17.4572 17.9996 17.6022 17.9996 17.7505C17.9996 17.9494 17.9206 18.1402 17.7799 18.2808C17.6393 18.4215 17.4485 18.5005 17.2496 18.5005ZM19.9996 19.0005C19.8512 19.0005 19.7062 18.9565 19.5829 18.8741C19.4596 18.7917 19.3634 18.6745 19.3067 18.5375C19.2499 18.4005 19.2351 18.2497 19.264 18.1042C19.2929 17.9587 19.3644 17.8251 19.4692 17.7202C19.5741 17.6153 19.7078 17.5438 19.8533 17.5149C19.9987 17.486 20.1495 17.5008 20.2866 17.5576C20.4236 17.6143 20.5408 17.7105 20.6232 17.8338C20.7056 17.9572 20.7496 18.1022 20.7496 18.2505C20.7496 18.4494 20.6706 18.6402 20.5299 18.7808C20.3893 18.9215 20.1985 19.0005 19.9996 19.0005ZM22.7496 18.5005C22.6012 18.5005 22.4562 18.4565 22.3329 18.3741C22.2096 18.2917 22.1134 18.1745 22.0567 18.0375C21.9999 17.9005 21.9851 17.7497 22.014 17.6042C22.0429 17.4587 22.1144 17.3251 22.2192 17.2202C22.3241 17.1153 22.4578 17.0438 22.6033 17.0149C22.7487 16.986 22.8995 17.0008 23.0366 17.0576C23.1736 17.1143 23.2908 17.2105 23.3732 17.3338C23.4556 17.4572 23.4996 17.6022 23.4996 17.7505C23.4996 17.9494 23.4206 18.1402 23.2799 18.2808C23.1393 18.4215 22.9485 18.5005 22.7496 18.5005Z" fill="#51247A"/>
<path d="M27.9996 23.0006C27.9996 23.3984 27.8415 23.78 27.5602 24.0613C27.2789 24.3426 26.8974 24.5006 26.4996 24.5006H13.4996C13.1017 24.5006 12.7202 24.3426 12.4389 24.0613C12.1576 23.78 11.9996 23.3984 11.9996 23.0006C11.9996 22.6028 12.1576 22.2213 12.4389 21.94C12.7202 21.6586 13.1017 21.5006 13.4996 21.5006H26.4996C26.8974 21.5006 27.2789 21.6586 27.5602 21.94C27.8415 22.2213 27.9996 22.6028 27.9996 23.0006Z" fill="#51247A"/>
<path d="M26.4146 26.0006C26.4944 26.0007 26.5731 26.02 26.644 26.0567C26.7149 26.0935 26.776 26.1467 26.8221 26.2119C26.8683 26.2771 26.8981 26.3524 26.9091 26.4316C26.9202 26.5107 26.9121 26.5913 26.8856 26.6666C26.7478 27.0567 26.4924 27.3945 26.1546 27.6334C25.8168 27.8724 25.4133 28.0006 24.9996 28.0006H14.9996C14.5859 28.0007 14.1825 27.8726 13.8447 27.6339C13.5069 27.3951 13.2515 27.0575 13.1136 26.6676C13.0868 26.5922 13.0786 26.5115 13.0895 26.4323C13.1005 26.353 13.1303 26.2775 13.1764 26.2122C13.2225 26.1469 13.2837 26.0935 13.3547 26.0567C13.4257 26.0199 13.5046 26.0007 13.5846 26.0006H26.4146Z" fill="#51247A"/>
<path d="M17.9876 11.6856C18.0138 11.4746 17.9949 11.2605 17.9321 11.0575C17.8693 10.8544 17.7641 10.667 17.6234 10.5077C17.4827 10.3483 17.3097 10.2207 17.116 10.1333C16.9222 10.0459 16.7121 10.0006 16.4996 10.0006H12.5056C12.4352 10.0009 12.3655 9.98649 12.3012 9.95811C12.2368 9.92974 12.1791 9.88809 12.1319 9.83589C12.0847 9.7837 12.049 9.72212 12.0273 9.6552C12.0055 9.58829 11.9981 9.51753 12.0056 9.44755L12.3166 6.53955C12.3237 6.47042 12.3452 6.40354 12.3797 6.34319C12.4142 6.28283 12.4608 6.23032 12.5167 6.18902C12.5726 6.14771 12.6365 6.11851 12.7043 6.10327C12.7721 6.08804 12.8424 6.08711 12.9106 6.10055L16.8106 6.84755C17.0668 6.8879 17.3287 6.8271 17.541 6.67798C17.7533 6.52885 17.8993 6.30308 17.9482 6.04833C17.9971 5.79358 17.9451 5.52978 17.8032 5.31264C17.6613 5.09549 17.4405 4.942 17.1876 4.88455L12.7526 4.03555C12.4811 3.98366 12.2017 3.98862 11.9322 4.05012C11.6627 4.11162 11.4089 4.22832 11.1867 4.39285C10.9646 4.55738 10.779 4.76618 10.6416 5.00606C10.5042 5.24594 10.4181 5.5117 10.3886 5.78655L9.98858 9.55355C9.97544 9.67677 9.91702 9.79073 9.82464 9.87332C9.73225 9.95591 9.61249 10.0012 9.48858 10.0006H5.49958C5.28693 10.0006 5.07672 10.0459 4.8829 10.1334C4.68908 10.2209 4.51607 10.3486 4.37536 10.508C4.23465 10.6674 4.12944 10.855 4.06672 11.0581C4.00401 11.2613 3.98521 11.4755 4.01158 11.6866L5.88658 26.6866C5.9319 27.0493 6.10812 27.383 6.38212 27.6249C6.65612 27.8669 7.00904 28.0004 7.37458 28.0006H10.7496C10.8822 28.0006 11.0094 27.9479 11.1031 27.8541C11.1969 27.7603 11.2496 27.6332 11.2496 27.5006V26.5006C11.2496 26.3679 11.1969 26.2408 11.1031 26.147C11.0094 26.0532 10.8822 26.0006 10.7496 26.0006H8.25758C8.13504 26.0015 8.01643 25.9574 7.92425 25.8767C7.83208 25.7959 7.77277 25.6841 7.75758 25.5626L6.13258 12.5626C6.12374 12.4919 6.13011 12.4201 6.15125 12.3521C6.17239 12.2841 6.20782 12.2214 6.25516 12.1682C6.3025 12.115 6.36066 12.0725 6.42575 12.0436C6.49084 12.0147 6.56136 12 6.63258 12.0006H9.16758C9.23795 12.0002 9.30761 12.0146 9.372 12.043C9.4364 12.0714 9.49408 12.113 9.54127 12.1652C9.58847 12.2174 9.62411 12.279 9.64588 12.3459C9.66764 12.4128 9.67504 12.4836 9.66758 12.5536L8.50558 23.3936C8.47755 23.657 8.55522 23.9208 8.72152 24.127C8.88782 24.3333 9.12917 24.4651 9.39258 24.4936C9.42858 24.4936 9.46558 24.4936 9.50058 24.4936C9.74705 24.4932 9.98473 24.4019 10.168 24.2371C10.3513 24.0723 10.4672 23.8456 10.4936 23.6006L11.6876 12.4476C11.7007 12.3248 11.7587 12.2113 11.8504 12.1288C11.9422 12.0463 12.0612 12.0006 12.1846 12.0006H15.3666C15.4378 12 15.5083 12.0147 15.5734 12.0436C15.6385 12.0725 15.6967 12.115 15.744 12.1682C15.7913 12.2214 15.8268 12.2841 15.8479 12.3521C15.869 12.4201 15.8754 12.4919 15.8666 12.5626L15.7256 13.6886C15.7167 13.7592 15.7231 13.831 15.7443 13.899C15.7654 13.967 15.8008 14.0297 15.8482 14.0829C15.8955 14.1361 15.9537 14.1786 16.0188 14.2075C16.0838 14.2364 16.1544 14.2511 16.2256 14.2506H17.2326C17.3551 14.2515 17.4737 14.2074 17.5659 14.1267C17.6581 14.0459 17.7174 13.9341 17.7326 13.8126L17.9876 11.6856Z" fill="#51247A"/>
</svg>
