<svg width="32" height="32" viewBox="0 0 32 32" fill="none" xmlns="http://www.w3.org/2000/svg">
<path fill-rule="evenodd" clip-rule="evenodd" d="M25.4394 8.74854L24.7529 8.74902C24.0869 7.40088 23.0654 5.75002 20.9981 5.75002H16C14.1621 5.75002 13.2192 7.05227 12.1289 8.55861L11.9936 8.74856H11.5034V8.49956C11.5035 8.10568 11.426 7.71565 11.2753 7.35173C11.1246 6.98781 10.9037 6.65715 10.6252 6.37861C10.3467 6.10007 10.0161 5.87911 9.65218 5.72836C9.28829 5.57761 8.89827 5.50001 8.50439 5.5H7.50488C7.11096 5.49995 6.72089 5.57749 6.35695 5.72821C5.99301 5.87893 5.66233 6.09988 5.38379 6.37842C5.10524 6.65696 4.8843 6.98764 4.73358 7.35158C4.58286 7.71553 4.50532 8.10559 4.50537 8.49951V8.7334C4.50533 8.86522 4.51819 8.99673 4.54376 9.12604C3.90833 9.41558 3.37439 9.8891 3.011 10.4854C2.6476 11.0817 2.47146 11.7732 2.50537 12.4707V22.8086C2.47823 23.3177 2.55504 23.827 2.73112 24.3054C2.9072 24.7839 3.17886 25.2215 3.52954 25.5915C3.88022 25.9616 4.30258 26.2563 4.77088 26.4578C5.23917 26.6594 5.7436 26.7634 6.25342 26.7637C6.38586 26.7633 6.5182 26.7562 6.6499 26.7422H25.3496C25.4813 26.7562 25.6136 26.7633 25.7461 26.7637C26.6984 26.7634 27.615 26.4015 28.3106 25.751C28.7109 25.3766 29.0243 24.9191 29.2288 24.4106C29.4333 23.9021 29.5239 23.3549 29.4941 22.8076V12.4707C29.4941 10.6714 28.4287 8.74854 25.4394 8.74854Z" fill="white"/>
<path d="M9.50383 9.249L6.50518 9.233C6.37263 9.233 6.24551 9.18035 6.15179 9.08662C6.05806 8.9929 6.00541 8.86578 6.00541 8.73323V8.49933C6.00541 8.30244 6.04419 8.10747 6.11953 7.92556C6.19488 7.74365 6.30532 7.57837 6.44455 7.43914C6.58377 7.29992 6.74906 7.18948 6.93096 7.11413C7.11287 7.03878 7.30783 7 7.50473 7H8.50428C8.70117 7 8.89614 7.03878 9.07805 7.11412C9.25995 7.18947 9.42524 7.29991 9.56446 7.43913C9.70369 7.57836 9.81413 7.74364 9.88948 7.92555C9.96482 8.10746 10.0036 8.30243 10.0036 8.49932V8.74921C10.0036 8.81484 9.99068 8.87983 9.96556 8.94047C9.94045 9.00111 9.90363 9.0562 9.85723 9.10261C9.81082 9.14902 9.75572 9.18583 9.69509 9.21095C9.63445 9.23606 9.56946 9.24899 9.50383 9.24899V9.249Z" fill="black"/>
<path d="M15.0005 17.2454C15.0005 18.1125 15.3012 18.9528 15.8514 19.6231C16.4015 20.2934 17.167 20.7522 18.0175 20.9213C18.868 21.0905 19.7508 20.9595 20.5156 20.5507C21.2803 20.1419 21.8796 19.4806 22.2115 18.6795C22.5433 17.8783 22.5871 16.9869 22.3353 16.1571C22.0836 15.3273 21.5519 14.6105 20.8309 14.1287C20.1099 13.647 19.2442 13.4301 18.3812 13.5151C17.5183 13.6001 16.7115 13.9817 16.0983 14.5949C15.7502 14.9429 15.4741 15.3562 15.2858 15.8109C15.0974 16.2657 15.0005 16.7531 15.0005 17.2454Z" fill="black"/>
<path fill-rule="evenodd" clip-rule="evenodd" d="M25.4397 10.2486H24.1243C24.019 10.2449 23.9171 10.21 23.8316 10.1485C23.746 10.087 23.6806 10.0015 23.6436 9.9028L23.6425 9.90055C23.0251 8.59784 22.3863 7.25 20.9977 7.25H16C14.9295 7.25 14.3647 8.02765 13.3422 9.44C13.2747 9.5327 13.2151 9.61782 13.161 9.69515C12.9076 10.0573 12.7737 10.2486 12.4986 10.2486H6.50128C4.43921 10.2486 4.00541 11.4571 4.00541 12.4706V22.854C3.98222 23.1882 4.03385 23.5233 4.15653 23.835C4.27921 24.1468 4.46985 24.4272 4.71458 24.6559C4.95932 24.8847 5.25198 25.056 5.57126 25.1573C5.89054 25.2587 6.2284 25.2876 6.56026 25.2419H25.4397C25.7716 25.2876 26.1094 25.2587 26.4287 25.1573C26.748 25.056 27.0407 24.8847 27.2854 24.656C27.5302 24.4272 27.7208 24.1468 27.8435 23.8351C27.9662 23.5233 28.0178 23.1882 27.9946 22.854V12.4706C27.9946 11.4571 27.5518 10.2486 25.4397 10.2486ZM24.4962 17.2455C24.4976 18.5769 24.0372 19.8675 23.1936 20.8974C22.35 21.9273 21.1752 22.6328 19.8697 22.8936C18.5641 23.1544 17.2085 22.9543 16.0339 22.3275C14.8594 21.7007 13.9385 20.6859 13.4284 19.4562C12.9183 18.2264 12.8504 16.8578 13.2363 15.5836C13.6223 14.3095 14.4382 13.2086 15.545 12.4686C16.6517 11.7286 17.9809 11.3954 19.3059 11.5257C20.6308 11.656 21.8696 12.2418 22.811 13.1832C23.8891 14.2604 24.4952 15.7215 24.4962 17.2455ZM9.00315 13.997C9.00316 14.2861 8.90292 14.5662 8.71953 14.7897C8.53614 15.0132 8.28094 15.1661 7.99741 15.2225C7.71387 15.2789 7.41956 15.2353 7.16461 15.099C6.90966 14.9627 6.70985 14.7423 6.59922 14.4752C6.4886 14.2081 6.474 13.9109 6.55792 13.6343C6.64184 13.3576 6.81909 13.1187 7.05945 12.9581C7.29982 12.7975 7.58844 12.7252 7.87614 12.7535C8.16383 12.7819 8.43279 12.9091 8.6372 13.1135C8.75323 13.2295 8.84526 13.3673 8.90805 13.5189C8.97084 13.6704 9.00316 13.8329 9.00315 13.997Z" fill="black"/>
</svg>
