<svg width="32" height="32" viewBox="0 0 32 32" fill="none" xmlns="http://www.w3.org/2000/svg">
<path fill-rule="evenodd" clip-rule="evenodd" d="M19.7481 29C18.39 29.0012 17.0529 28.666 15.856 28.0244C15.7118 28.3174 15.4884 28.5642 15.2111 28.7366C14.9338 28.9091 14.6137 29.0003 14.2871 29H7.5C6.30662 28.9997 5.16221 28.5255 4.31836 27.6816C3.47451 26.8378 3.00031 25.6934 3 24.5V6.5C3.00031 5.30662 3.47451 4.16221 4.31836 3.31836C5.16221 2.47451 6.30662 2.00031 7.5 2H20C20.9282 2.00024 21.8183 2.36906 22.4746 3.02539C23.1309 3.68172 23.4998 4.57182 23.5 5.5V6.33789C24.0984 6.62174 24.604 7.06954 24.958 7.62928C25.312 8.18901 25.5 8.8377 25.5 9.5V13.2622C25.4996 13.5663 25.4201 13.8652 25.2695 14.1294C25.2073 14.2362 25.1347 14.3366 25.0527 14.4292C25.2353 14.583 25.4131 14.7456 25.584 14.916C26.7379 16.0698 27.5238 17.5399 27.8421 19.1403C28.1605 20.7407 27.9971 22.3997 27.3727 23.9072C26.7482 25.4148 25.6907 26.7033 24.3338 27.6098C22.977 28.5164 21.3818 29.0001 19.75 29H19.7481ZM19.2988 19.7959C19.4315 19.8779 19.5541 19.9752 19.6641 20.0859C19.6943 20.1162 19.7236 20.1464 19.751 20.1787C19.7783 20.1474 19.8066 20.1181 19.836 20.0888C19.9348 19.9895 20.0438 19.9007 20.1612 19.8242L19.7188 19.2226L19.2988 19.7959Z" fill="white"/>
<path fill-rule="evenodd" clip-rule="evenodd" d="M13.919 14.919C13.1093 15.7261 12.4767 16.6931 12.0615 17.7583C11.6462 18.8234 11.4575 19.9635 11.5072 21.1056C11.557 22.2478 11.8442 23.3671 12.3505 24.3921C12.8568 25.4171 13.5712 26.3254 14.448 27.059C14.4871 27.092 14.5152 27.1363 14.5283 27.1858C14.5415 27.2353 14.5391 27.2876 14.5215 27.3357C14.504 27.3838 14.4721 27.4254 14.4301 27.4548C14.3882 27.4841 14.3382 27.4999 14.287 27.5H7.5C6.70435 27.5 5.94129 27.1839 5.37868 26.6213C4.81607 26.0587 4.5 25.2956 4.5 24.5V6.5C4.5 5.70435 4.81607 4.94129 5.37868 4.37868C5.94129 3.81607 6.70435 3.5 7.5 3.5H20C20.5304 3.5 21.0391 3.71071 21.4142 4.08579C21.7893 4.46086 22 4.96957 22 5.5V7.051C22.0002 7.16609 22.0401 7.27759 22.113 7.36668C22.1859 7.45576 22.2872 7.51698 22.4 7.54C22.8517 7.63222 23.2577 7.87769 23.5493 8.23485C23.8409 8.59201 24.0001 9.03894 24 9.5V13.262C23.9997 13.3052 23.9883 13.3476 23.9669 13.3851C23.9454 13.4226 23.9146 13.4539 23.8775 13.4761C23.8404 13.4982 23.7982 13.5104 23.7551 13.5114C23.7119 13.5124 23.6691 13.5023 23.631 13.482C22.4389 12.8375 21.1051 12.5 19.75 12.5C17.5627 12.5024 15.4657 13.3723 13.919 14.919ZM6.79289 5.79289C6.65304 5.93274 6.55779 6.11093 6.51921 6.30491C6.48062 6.49889 6.50043 6.69996 6.57611 6.88268C6.6518 7.06541 6.77998 7.22159 6.94443 7.33147C7.10888 7.44135 7.30222 7.5 7.5 7.5H19.75C19.8163 7.5 19.8799 7.47366 19.9268 7.42678C19.9737 7.37989 20 7.3163 20 7.25V5.75C20 5.6837 19.9737 5.62011 19.9268 5.57322C19.8799 5.52634 19.8163 5.5 19.75 5.5H7.5C7.36868 5.5 7.23864 5.52586 7.11732 5.57612C6.99599 5.62637 6.88575 5.70003 6.79289 5.79289ZM23.5001 26.3624C22.1543 27.2616 20.5302 27.6473 18.9238 27.4492C17.3174 27.251 15.8356 26.4823 14.7487 25.283C13.6617 24.0837 13.0419 22.5337 13.0022 20.9156C12.9624 19.2975 13.5055 17.719 14.5323 16.4679C15.5591 15.2167 17.0014 14.3761 18.5961 14.0994C20.1909 13.8227 21.8319 14.1283 23.2202 14.9604C24.6085 15.7925 25.6516 17.0958 26.1593 18.6327C26.667 20.1696 26.6056 21.8377 25.9862 23.3331C25.4753 24.5665 24.6101 25.6207 23.5001 26.3624ZM19.0429 24.4571C19.1826 24.5968 19.3605 24.6919 19.5542 24.7306C19.7479 24.7693 19.9487 24.7498 20.1313 24.6744C20.3139 24.5991 20.4701 24.4714 20.5802 24.3074C20.6903 24.1434 20.7494 23.9505 20.75 23.753V21.503C20.75 21.4373 20.7629 21.3723 20.788 21.3116C20.8131 21.251 20.85 21.1958 20.8964 21.1494C20.9428 21.103 20.998 21.0661 21.0586 21.041C21.1193 21.0159 21.1843 21.003 21.25 21.003H21.985C22.0696 21.0032 22.1526 20.9798 22.2247 20.9356C22.2968 20.8913 22.3551 20.8278 22.3932 20.7523C22.4313 20.6767 22.4476 20.5921 22.4403 20.5078C22.433 20.4235 22.4025 20.3429 22.352 20.275L20.085 17.185C20.0426 17.1281 19.9874 17.0819 19.924 17.0501C19.8605 17.0182 19.7905 17.0017 19.7195 17.0017C19.6485 17.0017 19.5785 17.0182 19.515 17.0501C19.4516 17.0819 19.3964 17.1281 19.354 17.185L17.09 20.271C17.0397 20.3389 17.0092 20.4195 17.0019 20.5037C16.9947 20.5879 17.0109 20.6725 17.0488 20.7481C17.0868 20.8236 17.1449 20.8871 17.2168 20.9316C17.2887 20.9761 17.3715 20.9998 17.456 21H18.25C18.3826 21 18.5098 21.0527 18.6036 21.1464C18.6973 21.2402 18.75 21.3674 18.75 21.5V23.75C18.75 24.0152 18.8554 24.2696 19.0429 24.4571Z" fill="#51247A"/>
</svg>
