<svg width="32" height="32" viewBox="0 0 32 32" fill="none" xmlns="http://www.w3.org/2000/svg">
<path fill-rule="evenodd" clip-rule="evenodd" d="M6.00002 29C5.50329 29.0007 5.02407 28.8165 4.65571 28.4833C4.28735 28.15 4.05622 27.6916 4.00734 27.1973L3.6885 23.9756C3.21793 23.9012 2.78934 23.6614 2.47982 23.2993C2.1703 22.9371 2.00016 22.4764 2.00002 22V20C1.99818 19.3432 2.12665 18.6925 2.37802 18.0857C2.62938 17.4789 2.99863 16.928 3.46438 16.4648C3.60918 16.32 3.76261 16.184 3.92385 16.0576C3.29049 15.2955 2.96255 14.3254 3.00354 13.3353C3.04453 12.3451 3.45154 11.4055 4.14572 10.6983C4.83991 9.99109 5.77186 9.56672 6.76105 9.50736C7.75024 9.44801 8.72625 9.75789 9.50002 10.377V4.5C9.50019 3.83701 9.76364 3.20122 10.2324 2.73242C10.7012 2.26362 11.337 2.00017 12 2H19C19.663 2.00017 20.2988 2.26362 20.7676 2.73242C21.2364 3.20122 21.4998 3.83701 21.5 4.5V13.5C21.4998 14.163 21.2364 14.7988 20.7676 15.2676C20.2988 15.7364 19.663 15.9998 19 16H16.5088C17.0509 16.4071 17.4725 16.9536 17.7287 17.5812C17.9849 18.2089 18.0662 18.8943 17.9639 19.5644C17.9175 19.8677 17.8343 20.1642 17.7159 20.4473C18.3339 20.8102 19.0376 21.0013 19.7542 21.001C20.4709 21.0006 21.1744 20.8088 21.7921 20.4453C21.5269 19.8104 21.4415 19.1147 21.5453 18.4345C21.649 17.7543 21.938 17.1158 22.3804 16.5888C22.8228 16.0619 23.4017 15.6668 24.0537 15.4469C24.7057 15.227 25.4056 15.1907 26.0768 15.342C26.7481 15.4933 27.3647 15.8263 27.8593 16.3047C28.3539 16.7831 28.7073 17.3883 28.8809 18.0541C29.0544 18.7199 29.0415 19.4206 28.8434 20.0796C28.6453 20.7385 28.2698 21.3303 27.7578 21.79V26.5C27.7562 27.1627 27.493 27.798 27.0254 28.2676C26.794 28.5006 26.5185 28.6854 26.2151 28.8111C25.9117 28.9368 25.5863 29.001 25.2578 29C24.5948 28.9998 23.9591 28.7364 23.4902 28.2676C23.0214 27.7988 22.758 27.163 22.7578 26.5V25.4873C20.8162 26.1709 18.6994 26.1709 16.7578 25.4873V26.5C16.7562 27.1626 16.4931 27.7978 16.0259 28.2676C15.7938 28.4998 15.5182 28.684 15.2148 28.8096C14.9115 28.9353 14.5864 29 14.2581 29C13.9297 29 13.6046 28.9353 13.3013 28.8096C12.998 28.684 12.7224 28.4998 12.4902 28.2676C12.0229 27.7978 11.7597 27.1627 11.7578 26.5V22.9561C11.6656 23.1243 11.5499 23.2785 11.4141 23.414C11.1165 23.7132 10.7313 23.9099 10.3145 23.9756L9.9927 27.1992C9.9435 27.6925 9.71276 28.15 9.34525 28.4828C8.97775 28.8155 8.49971 28.9999 8.00393 29H6.00002ZM10.0757 16.0576C10.4443 16.3459 10.771 16.6841 11.0464 17.0625C11.2408 16.7405 11.4824 16.4495 11.7632 16.1992C11.8423 16.1294 11.9235 16.063 12.0069 16H12C11.4487 16.0014 10.9125 15.8194 10.4761 15.4824C10.3599 15.6856 10.2259 15.8781 10.0757 16.0576ZM16.5 11V7H14.5V11H16.5Z" fill="white"/>
<path fill-rule="evenodd" clip-rule="evenodd" d="M20 4.5V13.5C20 13.7652 19.8947 14.0196 19.7071 14.2071C19.5196 14.3946 19.2652 14.5 19 14.5H12C11.7348 14.5 11.4805 14.3946 11.2929 14.2071C11.1054 14.0196 11 13.7652 11 13.5V4.5C11 4.23478 11.1054 3.98043 11.2929 3.79289C11.4805 3.60536 11.7348 3.5 12 3.5H19C19.2652 3.5 19.5196 3.60536 19.7071 3.79289C19.8947 3.98043 20 4.23478 20 4.5ZM17.7071 12.2071C17.8946 12.0196 18 11.7652 18 11.5V6.5C18 6.23478 17.8947 5.98043 17.7071 5.79289C17.5196 5.60536 17.2652 5.5 17 5.5H14C13.7348 5.5 13.4805 5.60536 13.2929 5.79289C13.1054 5.98043 13 6.23478 13 6.5V11.5C13 11.7652 13.1054 12.0196 13.2929 12.2071C13.4805 12.3946 13.7348 12.5 14 12.5H17C17.2652 12.5 17.5196 12.3946 17.7071 12.2071ZM5.23225 15.2678C4.82324 14.8588 4.56869 14.3207 4.51198 13.745C4.45527 13.1694 4.5999 12.5919 4.92124 12.111C5.24258 11.63 5.72073 11.2754 6.27424 11.1075C6.82774 10.9396 7.42234 10.9688 7.95673 11.1901C8.49112 11.4115 8.93222 11.8112 9.20489 12.3213C9.47756 12.8315 9.56492 13.4203 9.45208 13.9876C9.33924 14.5549 9.03319 15.0656 8.58607 15.4325C8.13895 15.7994 7.57844 16 7.00002 16C6.33699 16 5.70112 15.7366 5.23225 15.2678ZM7.00002 16.5C6.07177 16.5 5.18153 16.8687 4.52515 17.5251C3.86877 18.1815 3.50002 19.0717 3.50002 20V22C3.50001 22.0657 3.51294 22.1307 3.53806 22.1914C3.56319 22.252 3.60002 22.3071 3.64645 22.3536C3.69288 22.4 3.748 22.4368 3.80867 22.462C3.86934 22.4871 3.93436 22.5 4.00002 22.5H4.59402C4.71841 22.4994 4.83858 22.5451 4.93103 22.6283C5.02349 22.7115 5.08161 22.8262 5.09402 22.95L5.50002 27.05C5.51244 27.1738 5.57055 27.2885 5.66301 27.3717C5.75547 27.4549 5.87563 27.5006 6.00002 27.5H8.00002C8.12441 27.5006 8.24457 27.4549 8.33703 27.3717C8.42949 27.2885 8.48761 27.1738 8.50002 27.05L8.90902 22.95C8.92144 22.8262 8.97955 22.7115 9.07201 22.6283C9.16447 22.5451 9.28463 22.4994 9.40902 22.5H10C10.0657 22.5 10.1307 22.4871 10.1914 22.462C10.2521 22.4369 10.3072 22.4 10.3536 22.3536C10.4001 22.3072 10.4369 22.252 10.462 22.1914C10.4871 22.1307 10.5 22.0657 10.5 22V20C10.5 19.5404 10.4095 19.0852 10.2336 18.6606C10.0577 18.236 9.79992 17.8501 9.47491 17.5251C9.14991 17.2001 8.76407 16.9423 8.33942 16.7664C7.91478 16.5905 7.45965 16.5 7.00002 16.5ZM24.0104 17.1222C24.2572 16.9588 24.5338 16.8456 24.8244 16.7893C25.115 16.7329 25.4138 16.7344 25.7038 16.7938C25.9938 16.8531 26.2693 16.9691 26.5144 17.135C26.7595 17.301 26.9694 17.5137 27.1322 17.7609C27.2949 18.0081 27.4073 18.285 27.4629 18.5758C27.5185 18.8665 27.5161 19.1653 27.456 19.4552C27.3959 19.745 27.2792 20.0201 27.1126 20.2648C26.9459 20.5094 26.7327 20.7188 26.485 20.8809C26.4153 20.9263 26.358 20.9885 26.3184 21.0616C26.2788 21.1348 26.258 21.2167 26.258 21.2999V26.4999C26.258 26.7651 26.1527 27.0195 25.9651 27.207C25.7776 27.3945 25.5232 27.4999 25.258 27.4999C24.9928 27.4999 24.7385 27.3945 24.5509 27.207C24.3634 27.0195 24.258 26.7651 24.258 26.4999V23.4849C24.2579 23.4399 24.2456 23.3958 24.2224 23.3571C24.1993 23.3185 24.1662 23.2869 24.1266 23.2655C24.087 23.2441 24.0423 23.2338 23.9974 23.2356C23.9524 23.2374 23.9088 23.2514 23.871 23.2759C22.6481 24.0745 21.2191 24.4998 19.7585 24.4998C18.2979 24.4998 16.8689 24.0745 15.646 23.2759C15.6084 23.251 15.5647 23.2367 15.5196 23.2346C15.4745 23.2325 15.4297 23.2427 15.3899 23.264C15.3501 23.2854 15.3169 23.3171 15.2936 23.3558C15.2704 23.3945 15.2581 23.4388 15.258 23.4839V26.4999C15.258 26.7651 15.1527 27.0195 14.9651 27.207C14.7776 27.3945 14.5232 27.4999 14.258 27.4999C13.9928 27.4999 13.7385 27.3945 13.5509 27.207C13.3634 27.0195 13.258 26.7651 13.258 26.4999V21.3029C13.2582 21.2198 13.2376 21.1379 13.1981 21.0648C13.1586 20.9916 13.1016 20.9294 13.032 20.8839C12.6439 20.6316 12.3431 20.2658 12.1707 19.8363C11.9982 19.4068 11.9624 18.9345 12.0683 18.4839C12.1741 18.0333 12.4164 17.6263 12.7621 17.3185C13.1077 17.0107 13.54 16.817 13.9998 16.764C14.4596 16.7109 14.9245 16.8009 15.3313 17.0218C15.738 17.2428 16.0667 17.5838 16.2724 17.9984C16.4782 18.413 16.551 18.881 16.4809 19.3385C16.4109 19.7961 16.2014 20.2208 15.881 20.5549C15.8349 20.6017 15.809 20.6647 15.809 20.7304C15.809 20.7961 15.8349 20.8591 15.881 20.9059C16.9112 21.9278 18.3035 22.5013 19.7545 22.5013C21.2056 22.5013 22.5979 21.9278 23.628 20.9059C23.6742 20.8591 23.7 20.7961 23.7 20.7304C23.7 20.6647 23.6742 20.6017 23.628 20.5549C23.3998 20.3172 23.2266 20.0322 23.1207 19.7201C23.0148 19.4081 22.9788 19.0765 23.0153 18.749C23.0518 18.4215 23.1599 18.106 23.3318 17.8249C23.5038 17.5437 23.7355 17.3038 24.0104 17.1222Z" fill="black"/>
</svg>
