<svg width="32" height="32" viewBox="0 0 32 32" fill="none" xmlns="http://www.w3.org/2000/svg">
<path d="M21.3708 15.0959C20.0947 15.0959 18.8473 15.4744 17.7863 16.1833C16.7252 16.8923 15.8982 17.9 15.4099 19.0789C14.9216 20.2579 14.7938 21.5552 15.0427 22.8067C15.2917 24.0583 15.9062 25.208 16.8085 26.1103C17.7109 27.0126 18.8605 27.6272 20.1121 27.8761C21.3637 28.1251 22.661 27.9973 23.8399 27.5089C25.0189 27.0206 26.0266 26.1936 26.7355 25.1326C27.4445 24.0716 27.8229 22.8241 27.8229 21.548C27.8208 19.8375 27.1404 18.1976 25.9308 16.988C24.7213 15.7785 23.0814 15.098 21.3708 15.0959ZM20.8745 17.3294C21.0708 17.3294 21.2628 17.3876 21.426 17.4966C21.5892 17.6057 21.7165 17.7607 21.7916 17.9421C21.8667 18.1235 21.8864 18.3231 21.8481 18.5156C21.8098 18.7082 21.7152 18.8851 21.5764 19.0239C21.4376 19.1627 21.2607 19.2572 21.0682 19.2955C20.8756 19.3338 20.676 19.3142 20.4947 19.239C20.3133 19.1639 20.1582 19.0367 20.0492 18.8735C19.9401 18.7102 19.8819 18.5183 19.8819 18.322C19.8819 18.0587 19.9865 17.8062 20.1726 17.6201C20.3588 17.4339 20.6113 17.3294 20.8745 17.3294ZM22.8598 25.7667H19.8819C19.6844 25.7667 19.4951 25.6882 19.3555 25.5486C19.2159 25.409 19.1374 25.2196 19.1374 25.0222C19.1374 24.8248 19.2159 24.6354 19.3555 24.4958C19.4951 24.3562 19.6844 24.2777 19.8819 24.2777H20.3782C20.444 24.2777 20.5071 24.2516 20.5537 24.2051C20.6002 24.1585 20.6264 24.0954 20.6264 24.0296V22.0443C20.6265 22.0117 20.6202 21.9794 20.6077 21.9492C20.5953 21.919 20.577 21.8916 20.554 21.8686C20.5309 21.8455 20.5035 21.8272 20.4733 21.8148C20.4432 21.8024 20.4108 21.796 20.3782 21.7962H19.8819C19.6844 21.7962 19.4951 21.7177 19.3555 21.5781C19.2159 21.4385 19.1374 21.2491 19.1374 21.0517C19.1374 20.8543 19.2159 20.6649 19.3555 20.5253C19.4951 20.3857 19.6844 20.3072 19.8819 20.3072H20.8745C21.2034 20.3078 21.5187 20.4387 21.7513 20.6712C21.9839 20.9038 22.1148 21.2191 22.1153 21.548V24.0296C22.1153 24.0954 22.1414 24.1585 22.188 24.2051C22.2345 24.2516 22.2976 24.2777 22.3635 24.2777H22.8598C23.0572 24.2777 23.2466 24.3562 23.3862 24.4958C23.5258 24.6354 23.6042 24.8248 23.6042 25.0222C23.6042 25.2196 23.5258 25.409 23.3862 25.5486C23.2466 25.6882 23.0572 25.7667 22.8598 25.7667Z" fill="white"/>
<path d="M14.5753 16.4608C13.5225 15.8961 12.3474 15.5979 11.1527 15.5923C9.55163 15.5996 7.99501 16.1199 6.71138 17.077C5.42776 18.034 4.48473 19.3774 4.02073 20.9098C3.99862 20.9839 3.99412 21.0621 4.00759 21.1382C4.02106 21.2143 4.05212 21.2862 4.0983 21.3482C4.14448 21.4102 4.2045 21.4606 4.27358 21.4953C4.34267 21.5299 4.4189 21.548 4.4962 21.548H12.9484C13.075 21.5483 13.197 21.5001 13.2892 21.4134C13.3815 21.3266 13.4371 21.2079 13.4447 21.0815C13.5281 19.6879 13.9807 18.3415 14.756 17.1805C14.7946 17.1227 14.8207 17.0575 14.8325 16.989C14.8443 16.9205 14.8416 16.8503 14.8246 16.783C14.8076 16.7156 14.7766 16.6525 14.7336 16.5979C14.6907 16.5433 14.6368 16.4983 14.5753 16.4658V16.4608Z" fill="white"/>
<path d="M5.55633 14.542C5.666 14.6127 5.78852 14.661 5.91689 14.6843C6.04526 14.7076 6.17696 14.7053 6.30447 14.6777C6.43197 14.65 6.55276 14.5975 6.65995 14.5231C6.76714 14.4487 6.85861 14.354 6.92913 14.2442C7.10814 13.9618 7.25907 13.6626 7.37979 13.3508C7.3949 13.3123 7.41947 13.2781 7.45123 13.2515C7.48299 13.225 7.52092 13.2068 7.56153 13.1987C7.60215 13.1906 7.64415 13.1928 7.68368 13.2052C7.72321 13.2175 7.759 13.2396 7.78775 13.2694C8.22523 13.7204 8.74881 14.0789 9.32743 14.3237C9.90605 14.5686 10.5279 14.6947 11.1562 14.6947C11.7845 14.6947 12.4064 14.5686 12.985 14.3237C13.5637 14.0789 14.0872 13.7204 14.5247 13.2694C14.5536 13.2398 14.5894 13.2179 14.6289 13.2056C14.6685 13.1933 14.7104 13.191 14.751 13.199C14.7916 13.2074 14.8294 13.2257 14.8613 13.2521C14.8931 13.2786 14.918 13.3125 14.9337 13.3508C15.054 13.6628 15.2049 13.962 15.3843 14.2442C15.5284 14.4626 15.7528 14.6152 16.0088 14.669C16.2648 14.7228 16.5317 14.6734 16.7514 14.5315C16.9712 14.3895 17.126 14.1666 17.1823 13.9111C17.2386 13.6557 17.1917 13.3883 17.0519 13.1672C16.6034 12.4153 16.382 11.5496 16.4147 10.6747V9.4379C16.4384 8.73253 16.32 8.02959 16.0664 7.37094C15.8129 6.71228 15.4294 6.11138 14.9388 5.604C14.4482 5.09661 13.8606 4.69313 13.2108 4.41757C12.5611 4.14201 11.8625 4 11.1567 4C10.451 4 9.7524 4.14201 9.10265 4.41757C8.45289 4.69313 7.86523 5.09661 7.37464 5.604C6.88405 6.11138 6.50057 6.71228 6.24702 7.37094C5.99347 8.02959 5.87504 8.73253 5.89879 9.4379V10.6767C5.93158 11.5521 5.70988 12.4182 5.26053 13.1702C5.11793 13.3913 5.06898 13.6601 5.12445 13.9173C5.17992 14.1746 5.33526 14.3992 5.55633 14.542ZM11.1567 12.7136C10.495 12.7291 9.85085 12.4992 9.34849 12.0681C8.84613 11.6371 8.52107 11.0354 8.43594 10.3789C8.41055 10.2606 8.42922 10.1372 8.48844 10.0317C8.54766 9.92626 8.64336 9.84605 8.75755 9.80616C9.60285 9.51293 10.3666 9.02341 10.986 8.37778C11.0092 8.35361 11.037 8.33437 11.0678 8.32123C11.0986 8.30809 11.1317 8.30132 11.1652 8.30132C11.1986 8.30132 11.2318 8.30809 11.2626 8.32123C11.2934 8.33437 11.3212 8.35361 11.3443 8.37778C11.96 9.02037 12.7183 9.50902 13.5579 9.80418C13.6717 9.84423 13.767 9.92436 13.826 10.0296C13.885 10.1348 13.9037 10.2579 13.8785 10.3759C13.7926 11.0325 13.4672 11.6341 12.9649 12.0656C12.4626 12.497 11.8187 12.7277 11.1567 12.7136Z" fill="white"/>
</svg>
