<svg width="32" height="32" viewBox="0 0 32 32" fill="none" xmlns="http://www.w3.org/2000/svg">
<path d="M12.6291 2.02C12.0394 2.02251 11.4555 2.13792 10.9091 2.36C10.3613 2.59388 9.86516 2.93372 9.44914 3.36L9.08914 3.72L5.78914 3.22H5.33914C4.7921 3.22219 4.25362 3.35595 3.76914 3.61C3.3106 3.85438 2.91539 4.20236 2.61495 4.62629C2.31451 5.05022 2.11712 5.5384 2.03848 6.05202C1.95984 6.56563 2.00211 7.0905 2.16193 7.58491C2.32176 8.07932 2.59473 8.52961 2.95914 8.9L10.2691 16.21C10.769 16.7027 11.4075 17.0307 12.0991 17.15C12.2757 17.1603 12.4526 17.1603 12.6291 17.15C13.2379 17.1518 13.8354 16.9856 14.3558 16.6698C14.8763 16.354 15.2996 15.9008 15.5791 15.36C15.9064 14.7478 16.0291 14.0469 15.9291 13.36L15.6391 11.3L21.0491 14.07C21.2773 14.1911 21.5309 14.2562 21.7891 14.26H22.0291C22.0801 14.5042 22.1572 14.7423 22.2591 14.97C22.1888 15.0074 22.1219 15.0509 22.0591 15.1C21.854 15.2659 21.6869 15.4739 21.5691 15.71L19.7091 19.44C19.6089 19.6363 19.5477 19.8503 19.5291 20.07C19.266 20.0548 19.0023 20.0548 18.7391 20.07H18.1591C16.5735 20.0792 15.0263 20.5594 13.714 21.4496C12.4018 22.3399 11.3838 23.6 10.7891 25.07V25.12C10.6422 25.5714 10.6045 26.0512 10.6791 26.52C10.7522 26.9886 10.9352 27.4333 11.2134 27.8174C11.4915 28.2016 11.8567 28.5143 12.2791 28.73C12.7016 28.9405 13.1672 29.05 13.6391 29.05H23.3191C23.7944 29.0508 24.2634 28.9413 24.6891 28.73C25.1071 28.5113 25.4697 28.2 25.7491 27.82C26.028 27.4347 26.213 26.9895 26.2891 26.52C26.3578 26.0543 26.3202 25.5791 26.1791 25.13V25.08C25.7059 23.9236 24.9657 22.8956 24.0191 22.08C24.1289 21.9686 24.2201 21.8403 24.2891 21.7L26.1191 18.05C26.2326 17.8159 26.294 17.5601 26.2991 17.3C26.3041 17.2201 26.3041 17.1399 26.2991 17.06C26.9444 16.9091 27.5359 16.584 28.0091 16.12C28.3405 15.7934 28.6037 15.4042 28.7833 14.975C28.9629 14.5459 29.0554 14.0853 29.0554 13.62C29.0554 13.1547 28.9629 12.6941 28.7833 12.265C28.6037 11.8358 28.3405 11.4466 28.0091 11.12C27.6831 10.7967 27.2958 10.5417 26.87 10.37C26.4441 10.1982 25.9883 10.1133 25.5291 10.12C25.0475 10.1196 24.571 10.2183 24.1291 10.41C24.0883 10.3395 24.0414 10.2726 23.9891 10.21C23.8309 10.0053 23.6294 9.83798 23.3991 9.72L17.7791 6.78C17.5771 6.67615 17.3558 6.61489 17.1291 6.6V6.52C17.1303 5.929 17.0142 5.34365 16.7876 4.79781C16.561 4.25197 16.2285 3.75647 15.8091 3.34C15.3931 2.91372 14.8969 2.57388 14.3491 2.34C13.803 2.1172 13.219 2.00176 12.6291 2V2.02Z" fill="white"/>
<path fill-rule="evenodd" clip-rule="evenodd" d="M14.7491 4.40002C14.1871 3.83725 13.4245 3.52072 12.6291 3.52002C12.2413 3.52438 11.8578 3.60243 11.4991 3.75002C11.1257 3.89757 10.7856 4.11861 10.4991 4.40002L9.69914 5.20002C9.67214 5.22906 9.63747 5.24986 9.59914 5.26002H9.49914L5.57914 4.71002C5.20057 4.65962 4.81574 4.72959 4.47914 4.91002C4.13441 5.08338 3.8537 5.36183 3.67755 5.70515C3.5014 6.04846 3.43892 6.43888 3.49914 6.82002C3.56394 7.19731 3.74179 7.54603 4.00914 7.82002L11.3091 15.12C11.5828 15.3879 11.9316 15.5658 12.3091 15.63C12.7133 15.7192 13.1361 15.6588 13.4991 15.46C13.8406 15.2898 14.1203 15.0171 14.2991 14.68C14.4791 14.3396 14.549 13.9518 14.4991 13.57L13.9391 9.65002C13.9317 9.63263 13.9279 9.61392 13.9279 9.59502C13.9279 9.57611 13.9317 9.55741 13.9391 9.54002C13.9493 9.50169 13.9701 9.46702 13.9991 9.44002L14.7991 8.64002C15.3609 8.07752 15.6765 7.31502 15.6765 6.52002C15.6765 5.72502 15.3609 4.96252 14.7991 4.40002H14.7491ZM17.0991 8.12002C17.0664 8.11109 17.0319 8.11109 16.9991 8.12002H16.8991L16.8091 8.18002L16.7491 8.26002C16.5716 8.70481 16.3216 9.11707 16.0091 9.48002C15.9801 9.50702 15.9593 9.54169 15.9491 9.58002C15.9389 9.61597 15.9389 9.65407 15.9491 9.69002C15.9554 9.72761 15.9728 9.76246 15.9991 9.79002C16.0182 9.82088 16.046 9.84527 16.0791 9.86002L21.7291 12.76H21.8391C21.8718 12.7695 21.9065 12.7695 21.9391 12.76C21.9756 12.7519 22.0076 12.7305 22.0291 12.7C22.0381 12.6673 22.0381 12.6328 22.0291 12.6C22.1588 12.1486 22.3763 11.7272 22.6691 11.36C22.6934 11.3311 22.7106 11.2968 22.7191 11.26C22.7294 11.2241 22.7294 11.186 22.7191 11.15C22.7286 11.1174 22.7286 11.0827 22.7191 11.05C22.6943 11.0208 22.6636 10.9969 22.6291 10.98L17.0991 8.12002ZM23.2991 16.27C23.2663 16.262 23.232 16.262 23.1991 16.27C23.1632 16.2597 23.1251 16.2597 23.0891 16.27C23.0565 16.2606 23.0218 16.2606 22.9891 16.27C22.9599 16.2949 22.9361 16.3255 22.9191 16.36L21.0491 20.1C21.0402 20.1328 21.0402 20.1673 21.0491 20.2C21.0444 20.2365 21.0444 20.2735 21.0491 20.31C21.0633 20.3406 21.0837 20.3679 21.1091 20.39C21.1342 20.4166 21.165 20.4371 21.1991 20.45C21.6653 20.5951 22.1172 20.7826 22.5491 21.01C22.6133 21.0356 22.6849 21.0356 22.7491 21.01C22.8092 20.9837 22.8585 20.9379 22.8891 20.88L24.7191 17.23C24.7247 17.1969 24.7247 17.1631 24.7191 17.13C24.7294 17.0941 24.7294 17.056 24.7191 17.02L24.6491 16.93L24.5591 16.88C24.1001 16.7697 23.6703 16.5617 23.2991 16.27ZM24.0391 14.94C23.6794 14.5561 23.4854 14.046 23.4991 13.52C23.4991 12.9896 23.7099 12.4809 24.0849 12.1058C24.46 11.7307 24.9687 11.52 25.4991 11.52C26.0296 11.52 26.5383 11.7307 26.9134 12.1058C27.2884 12.4809 27.4991 12.9896 27.4991 13.52C27.4991 14.0505 27.2884 14.5592 26.9134 14.9342C26.5383 15.3093 26.0296 15.52 25.4991 15.52C25.2292 15.5269 24.9607 15.4791 24.7098 15.3794C24.4589 15.2797 24.2307 15.1302 24.0391 14.94ZM12.1291 26.26C12.0884 26.0254 12.1091 25.7843 12.1891 25.56C12.684 24.3237 13.5551 23.2742 14.6791 22.56C15.812 21.8215 17.1483 21.4577 18.4991 21.52C19.8296 21.4565 21.147 21.8071 22.2699 22.5234C23.3928 23.2398 24.266 24.2867 24.7691 25.52C24.8386 25.7465 24.859 25.9851 24.8291 26.22C24.7882 26.4539 24.696 26.6759 24.5591 26.87C24.4191 27.0585 24.2378 27.2124 24.0291 27.32C23.8149 27.4269 23.5785 27.4818 23.3391 27.48H13.6091C13.373 27.4817 13.1398 27.4268 12.9291 27.32C12.7205 27.2124 12.5392 27.0585 12.3991 26.87C12.2675 26.6878 12.1756 26.48 12.1291 26.26Z" fill="#51247A"/>
</svg>
