<svg width="32" height="32" viewBox="0 0 32 32" fill="none" xmlns="http://www.w3.org/2000/svg">
<path fill-rule="evenodd" clip-rule="evenodd" d="M17.9738 29.9886C17.7296 29.9868 17.4865 29.9566 17.2492 29.8988C16.8564 29.8027 16.4866 29.6294 16.1614 29.389C15.8363 29.1486 15.5622 28.8458 15.3552 28.4984C14.9398 27.8007 14.8161 26.9674 15.011 26.1791L15.9138 22.5687L15.8112 22.5228C15.2309 23.2253 14.5026 23.7911 13.6784 24.1797C12.8542 24.5682 11.9544 24.7701 11.0432 24.7708H8.07049C7.66753 24.7716 7.26838 24.6928 6.89588 24.5391C6.52339 24.3854 6.18486 24.1598 5.89966 23.8751C5.61447 23.5904 5.38821 23.2523 5.23384 22.8801C5.07946 22.5079 5 22.1088 5 21.7059C5 21.3029 5.07946 20.9039 5.23384 20.5317C5.38821 20.1595 5.61447 19.8214 5.89966 19.5367C6.18486 19.252 6.52339 19.0264 6.89588 18.8727C7.26838 18.719 7.66753 18.6402 8.07049 18.6409H11.0329L11.0378 18.6253L11.1047 18.5658L12.5666 14.4666L12.2199 14.3406L10.9431 15.8016C10.7039 16.1102 10.4054 16.3677 10.0651 16.559C9.70481 16.7659 9.30605 16.8972 8.89325 16.9447C8.7762 16.9579 8.6585 16.9646 8.54071 16.9647C7.94461 16.9646 7.36147 16.7908 6.86266 16.4644C6.36385 16.138 5.97102 15.6733 5.73226 15.1271C5.49349 14.5809 5.41915 13.977 5.51834 13.3892C5.61753 12.8014 5.88593 12.2553 6.29071 11.8177L7.43817 10.4364C8.2545 9.4596 9.35132 8.75731 10.5801 8.42464C11.8088 8.09197 13.1102 8.145 14.3078 8.57654L14.7326 8.73084C14.4152 7.99481 14.3201 7.18194 14.4593 6.39253C14.5984 5.60313 14.9656 4.87173 15.5156 4.28858C16.0655 3.70543 16.7742 3.29605 17.5541 3.11095C18.334 2.92585 19.151 2.97313 19.9044 3.24696C20.6578 3.52078 21.3145 4.00917 21.7935 4.65186C22.2725 5.29455 22.5529 6.06343 22.6 6.86361C22.6472 7.6638 22.4591 8.46028 22.0588 9.15479C21.6586 9.84929 21.0638 10.4114 20.3478 10.7718L21.6164 11.2328L22.3742 10.3573C22.6253 10.0424 22.9364 9.78031 23.2894 9.58629C23.6424 9.39227 24.0304 9.27013 24.4308 9.22692C25.239 9.13888 26.0491 9.37468 26.6838 9.88268C27.3177 10.3918 27.7236 11.1317 27.8122 11.9399C27.9008 12.7481 27.665 13.5584 27.1564 14.1927L26.4689 15.0438C25.6591 16.0541 24.553 16.7852 23.3062 17.1343C22.0593 17.4834 20.7345 17.4329 19.5178 16.9901L18.3283 16.5575L18.2306 16.8314C19.5964 17.4044 20.7127 18.4464 21.3782 19.7695C22.0437 21.0927 22.2148 22.6101 21.8605 24.0482L20.9582 27.6664C20.7923 28.3293 20.4097 28.9179 19.8711 29.3386C19.3326 29.7593 18.6689 29.9881 17.9855 29.9886H17.9738Z" fill="white"/>
<path fill-rule="evenodd" clip-rule="evenodd" d="M16.6604 8.94196C16.2337 8.5152 15.9681 7.95368 15.909 7.35307C15.8498 6.75245 16.0008 6.14991 16.3361 5.64811C16.6714 5.1463 17.1703 4.77628 17.7478 4.60109C18.3253 4.4259 18.9458 4.45639 19.5033 4.68735C20.0609 4.91831 20.5212 5.33545 20.8057 5.86771C21.0902 6.39997 21.1813 7.0144 21.0635 7.60633C20.9458 8.19825 20.6265 8.73103 20.1599 9.1139C19.6934 9.49677 19.1086 9.70603 18.505 9.70603C18.1625 9.70604 17.8232 9.63857 17.5067 9.50747C17.1902 9.37637 16.9027 9.18421 16.6604 8.94196ZM24.5945 10.7181C24.9024 10.6841 25.2134 10.7422 25.4882 10.885C25.763 11.0278 25.9893 11.2489 26.1384 11.5204C26.2874 11.7919 26.3526 12.1015 26.3256 12.41C26.2986 12.7186 26.1807 13.0122 25.9867 13.2536L25.3022 14.102C24.6886 14.8688 23.8499 15.4239 22.9042 15.6891C21.9586 15.9544 20.9536 15.9164 20.0306 15.5806L17.4219 14.6321L16.3325 17.6874L17.592 18.1903C18.6439 18.615 19.5074 19.4048 20.0239 20.4147C20.5405 21.4246 20.6755 22.587 20.4041 23.6884L19.5026 27.303C19.418 27.6415 19.2227 27.9419 18.9478 28.1567C18.6729 28.3714 18.3342 28.4882 17.9853 28.4884C17.857 28.4882 17.7291 28.4724 17.6045 28.4415C17.2019 28.3408 16.8558 28.0842 16.6422 27.7282C16.4287 27.3723 16.3654 26.9461 16.466 26.5434L17.3687 22.933C17.4589 22.5657 17.4136 22.1782 17.2411 21.8416C17.0685 21.505 16.7804 21.2419 16.4295 21.1006L15.2567 20.631C14.8719 21.4235 14.2715 22.0915 13.5244 22.5584C12.7773 23.0254 11.9137 23.2723 11.0327 23.271H8.07027C7.65515 23.271 7.25703 23.1061 6.9635 22.8126C6.66997 22.5191 6.50507 22.121 6.50507 21.7058C6.50507 21.2907 6.66997 20.8926 6.9635 20.5991C7.25703 20.3055 7.65515 20.1406 8.07027 20.1406H11.0327C11.3613 20.1406 11.6815 20.0372 11.948 19.845C12.2145 19.6529 12.4137 19.3817 12.5175 19.07L14.4803 13.5667L12.7325 12.9312C12.4298 12.8221 12.1009 12.8084 11.7902 12.8922C11.4794 12.976 11.2019 13.1532 10.9951 13.3997L9.79205 14.8397C9.66453 15.0095 9.50382 15.1515 9.31969 15.2572C9.13555 15.3629 8.93184 15.43 8.72095 15.4545C8.51005 15.4789 8.29639 15.4602 8.09295 15.3995C7.88951 15.3388 7.70055 15.2373 7.53757 15.1013C7.37458 14.9652 7.24098 14.7974 7.14489 14.6081C7.04879 14.4188 6.99222 14.2119 6.97861 14C6.965 13.7882 6.99463 13.5757 7.0657 13.3757C7.13678 13.1756 7.24781 12.9921 7.39205 12.8363L8.59105 11.3963C9.21022 10.6562 10.0418 10.1242 10.9733 9.87227C11.9047 9.62032 12.8911 9.66059 13.7989 9.98764L21.1033 12.6423C21.4108 12.7553 21.7462 12.7686 22.0616 12.6802C22.3771 12.5917 22.6566 12.4061 22.8605 12.1497L23.545 11.2951C23.8045 10.9712 24.1821 10.7637 24.5945 10.7181Z" fill="#00A2C7"/>
</svg>
