<svg width="32" height="32" viewBox="0 0 32 32" fill="none" xmlns="http://www.w3.org/2000/svg">
<path d="M12.0233 6.7907C12.0233 7.53084 12.3173 8.24066 12.8407 8.76402C13.364 9.28738 14.0739 9.5814 14.814 9.5814C15.5542 9.5814 16.264 9.28738 16.7873 8.76402C17.3107 8.24066 17.6047 7.53084 17.6047 6.7907C17.6047 6.05056 17.3107 5.34073 16.7873 4.81738C16.264 4.29402 15.5542 4 14.814 4C14.0739 4 13.364 4.29402 12.8407 4.81738C12.3173 5.34073 12.0233 6.05056 12.0233 6.7907Z" fill="#51247A"/>
<path d="M22.628 24.6513H19.5102L21.4559 23.0584C21.88 22.7079 22.191 22.2399 22.3499 21.7132C22.5088 21.1865 22.5084 20.6245 22.3489 20.098L19.7602 11.8699C19.6813 11.6203 19.5449 11.3927 19.3621 11.2054C19.1792 11.018 18.955 10.8761 18.7074 10.7911C18.4598 10.7062 18.1957 10.6804 17.9364 10.716C17.677 10.7515 17.4296 10.8474 17.214 10.9959L11.7934 14.7466C11.7623 14.7678 11.7272 14.7826 11.6903 14.7901C11.6534 14.7975 11.6153 14.7974 11.5785 14.7898C11.5416 14.7822 11.5066 14.7672 11.4756 14.7458C11.4446 14.7244 11.4183 14.6969 11.3982 14.6651L10.0921 12.5955C9.8553 12.2197 9.47886 11.9533 9.04562 11.855C8.61239 11.7567 8.15785 11.8346 7.78201 12.0714C7.40616 12.3082 7.1398 12.6847 7.04152 13.1179C6.94323 13.5512 7.02107 14.0057 7.25791 14.3815L8.89215 16.9769C9.07231 17.3327 9.32665 17.6458 9.63802 17.895C9.94938 18.1442 10.3105 18.3238 10.6972 18.4216C11.0838 18.5195 11.4869 18.5333 11.8794 18.4622C12.2718 18.3911 12.6444 18.2367 12.9721 18.0094L16.9394 15.2634C16.9753 15.2385 17.0165 15.2224 17.0597 15.2164C17.103 15.2103 17.147 15.2146 17.1883 15.2288C17.2296 15.2431 17.2671 15.2667 17.2977 15.2979C17.3283 15.3291 17.3512 15.367 17.3647 15.4085L18.9777 20.5434C18.9943 20.5968 18.9946 20.6539 18.9785 20.7074C18.9624 20.7609 18.9306 20.8084 18.8873 20.8437L13.7535 25.0286C13.4858 25.2472 13.2923 25.5432 13.1995 25.8761C13.1067 26.209 13.1192 26.5625 13.2352 26.888C13.3513 27.2135 13.5652 27.4952 13.8477 27.6943C14.1301 27.8934 14.4673 28.0002 14.8129 28.0001H22.6268C23.0709 28.0001 23.4968 27.8237 23.8108 27.5097C24.1249 27.1957 24.3013 26.7698 24.3013 26.3257C24.3013 25.8816 24.1249 25.4557 23.8108 25.1417C23.4968 24.8277 23.0709 24.6513 22.6268 24.6513H22.628Z" fill="#51247A"/>
</svg>
