<svg width="32" height="32" viewBox="0 0 32 32" fill="none" xmlns="http://www.w3.org/2000/svg">
<path d="M13.2416 6.60169C13.2416 7.2917 13.5157 7.95345 14.0037 8.44136C14.4916 8.92927 15.1533 9.20337 15.8433 9.20337C16.5333 9.20337 17.1951 8.92927 17.683 8.44136C18.1709 7.95345 18.445 7.2917 18.445 6.60169C18.445 5.91168 18.1709 5.24993 17.683 4.76202C17.1951 4.27411 16.5333 4 15.8433 4C15.1533 4 14.4916 4.27411 14.0037 4.76202C13.5157 5.24993 13.2416 5.91168 13.2416 6.60169Z" fill="#51247A"/>
<path d="M17.1941 21.5459C17.4022 21.7384 17.4439 21.7873 18.6687 23.0122C18.7607 23.1039 18.815 23.2268 18.821 23.3566C18.827 23.4864 18.7842 23.6138 18.701 23.7136L17.3159 25.3787C17.172 25.534 17.0613 25.717 16.9904 25.9166C16.9196 26.1161 16.89 26.3279 16.9036 26.5392C16.9172 26.7505 16.9736 26.9568 17.0694 27.1456C17.1653 27.3344 17.2985 27.5017 17.461 27.6374C17.6236 27.7731 17.812 27.8743 18.0149 27.9349C18.2178 27.9954 18.4309 28.0141 18.6412 27.9897C18.8515 27.9653 19.0547 27.8984 19.2383 27.793C19.4219 27.6877 19.5822 27.546 19.7094 27.3768L21.0945 25.7117C21.676 25.0135 21.9755 24.1233 21.9343 23.2156C21.893 22.308 21.5141 21.4486 20.8718 20.8059L19.6418 19.5759C19.5972 19.5312 19.5379 19.5042 19.4749 19.5C19.4119 19.4958 19.3495 19.5146 19.2994 19.553L17.2097 21.1494C17.18 21.1726 17.1557 21.2021 17.1385 21.2357C17.1213 21.2693 17.1116 21.3063 17.1101 21.344C17.1086 21.3817 17.1154 21.4193 17.1299 21.4542C17.1444 21.489 17.1663 21.5203 17.1941 21.5459Z" fill="#51247A"/>
<path d="M7.53144 18.2197C7.68575 18.3549 7.86519 18.4584 8.05951 18.5242C8.25383 18.59 8.45922 18.6168 8.66394 18.6032C8.86865 18.5896 9.06866 18.5357 9.25255 18.4448C9.43643 18.3538 9.60058 18.2274 9.73559 18.0729L11.7472 15.7741C11.782 15.7344 11.8282 15.7062 11.8794 15.6933C11.9306 15.6804 11.9846 15.6834 12.0341 15.7019C12.0836 15.7205 12.1263 15.7536 12.1564 15.797C12.1866 15.8404 12.2029 15.8919 12.203 15.9448V18.3092C12.203 18.3782 12.2304 18.4444 12.2792 18.4931C12.328 18.5419 12.3942 18.5693 12.4632 18.5693H19.2276C19.2966 18.5693 19.3628 18.5419 19.4116 18.4931C19.4603 18.4444 19.4878 18.3782 19.4878 18.3092V16.1102C19.4877 16.0573 19.5038 16.0056 19.5339 15.9621C19.564 15.9185 19.6067 15.8852 19.6562 15.8665C19.7057 15.8479 19.7598 15.8448 19.8111 15.8576C19.8625 15.8705 19.9087 15.8987 19.9436 15.9385L21.8074 18.0729C22.0801 18.3845 22.4654 18.5751 22.8786 18.6026C23.2917 18.6301 23.6989 18.4924 24.0105 18.2197C24.3221 17.947 24.5127 17.5617 24.5402 17.1485C24.5677 16.7353 24.43 16.3282 24.1573 16.0166L21.4515 12.9195C21.0117 12.4171 20.4696 12.0146 19.8615 11.7389C19.2534 11.4632 18.5934 11.3207 17.9257 11.321H13.6173C12.9499 11.3212 12.2902 11.4639 11.6825 11.7398C11.0748 12.0157 10.533 12.4183 10.0936 12.9206L7.38783 16.0166C7.25259 16.1706 7.14902 16.3499 7.08304 16.544C7.01706 16.7381 6.98997 16.9433 7.00331 17.1479C7.01664 17.3525 7.07015 17.5524 7.16077 17.7363C7.25138 17.9202 7.37734 18.0845 7.53144 18.2197Z" fill="#51247A"/>
<path d="M10.7367 20.8049C10.0939 21.4476 9.71457 22.3075 9.67336 23.2156C9.63216 24.1237 9.93201 25.0144 10.514 25.7127L11.8981 27.3778C12.17 27.6714 12.5442 27.8495 12.9435 27.8751C13.3429 27.9008 13.7368 27.7721 14.044 27.5157C14.3512 27.2592 14.5482 26.8946 14.5943 26.4971C14.6404 26.0996 14.532 25.6996 14.2917 25.3797L12.9065 23.7146C12.8237 23.6148 12.781 23.4877 12.787 23.3581C12.793 23.2286 12.8471 23.1059 12.9388 23.0142C14.1803 21.7716 14.197 21.7415 14.4478 21.5364C14.4782 21.5119 14.5027 21.4808 14.5196 21.4455C14.5364 21.4102 14.5452 21.3716 14.5452 21.3325C14.5452 21.2934 14.5364 21.2547 14.5196 21.2195C14.5027 21.1842 14.4782 21.1531 14.4478 21.1285L12.3602 19.5061C12.3103 19.4669 12.2478 19.4474 12.1845 19.4513C12.1212 19.4551 12.0615 19.482 12.0168 19.5269L10.7367 20.8049Z" fill="#51247A"/>
</svg>
