<svg width="32" height="32" viewBox="0 0 32 32" fill="none" xmlns="http://www.w3.org/2000/svg">
<path d="M28.9141 3.08595C28.7288 2.89961 28.5085 2.75188 28.2657 2.6513C28.023 2.55072 27.7627 2.4993 27.5 2.50001H20.5C19.9705 2.50015 19.4626 2.71024 19.0877 3.08423C18.7128 3.45821 18.5014 3.96559 18.5 4.49513L18.4844 9.35548H13.5V8.00048C13.5001 7.7378 13.4485 7.47767 13.348 7.23495C13.2476 6.99224 13.1003 6.77169 12.9145 6.58593L9.41455 3.08593C9.22934 2.89956 9.00898 2.7518 8.76625 2.65123C8.52352 2.55065 8.26324 2.49925 8.00049 2.50001C7.47036 2.50143 6.9622 2.71199 6.58643 3.08595L3.08643 6.58595C2.90043 6.77156 2.75289 6.99205 2.65226 7.23479C2.55163 7.47752 2.49989 7.73773 2.5 8.0005V27.5C2.50014 28.0304 2.7109 28.539 3.08594 28.9141C3.46098 29.2891 3.96961 29.4999 4.5 29.5H11.5C12.0304 29.4999 12.539 29.2891 12.9141 28.9141C13.2891 28.539 13.4999 28.0304 13.5 27.5V24.3164H18.4805V25.7822L18.5 27.5C18.5001 28.0304 18.7109 28.539 19.0859 28.9141C19.461 29.2891 19.9696 29.4999 20.5 29.5H27.5C28.0304 29.4999 28.539 29.2891 28.9141 28.9141C29.2891 28.539 29.4999 28.0304 29.5 27.5V4.50001C29.5008 4.23726 29.4494 3.97698 29.3488 3.73424C29.2482 3.49151 29.1004 3.27115 28.9141 3.08595Z" fill="white"/>
<path d="M27.5 4H20.5C20.4343 3.99999 20.3693 4.01292 20.3086 4.03804C20.248 4.06317 20.1929 4.1 20.1464 4.14643C20.1 4.19286 20.0632 4.24798 20.038 4.30865C20.0129 4.36932 20 4.43434 20 4.5L19.9808 10.4805C19.9808 10.5799 19.9413 10.6753 19.871 10.7456C19.8006 10.816 19.7053 10.8555 19.6058 10.8555H12.346C12.2719 10.8554 12.1996 10.8334 12.138 10.7923C12.0764 10.7511 12.0284 10.6927 12 10.6243V8.00039C12.0002 7.8677 11.9477 7.74037 11.854 7.64639L8.354 4.14639C8.26024 4.05266 8.13308 4 8.0005 4C7.86792 4 7.74076 4.05266 7.647 4.14639L4.147 7.64639C4.10042 7.69283 4.06347 7.74801 4.03824 7.80875C4.01302 7.8695 4.00002 7.93462 4 8.00039V27.5C3.99999 27.5657 4.01292 27.6307 4.03804 27.6914C4.06317 27.752 4.1 27.8071 4.14643 27.8536C4.19286 27.9 4.24798 27.9368 4.30865 27.962C4.36931 27.9871 4.43434 28 4.5 28H11.5C11.5657 28 11.6307 27.9871 11.6914 27.962C11.752 27.9369 11.8072 27.9 11.8536 27.8536C11.9 27.8072 11.9369 27.752 11.962 27.6914C11.9871 27.6307 12 27.5657 12 27.5V23.0474C12.0284 22.979 12.0764 22.9206 12.138 22.8794C12.1996 22.8383 12.2719 22.8163 12.346 22.8162H19.6058C19.7053 22.8162 19.8006 22.8557 19.871 22.9261C19.9413 22.9964 19.9808 23.0918 19.9808 23.1912V25.782H20V27.5C20 27.5657 20.0129 27.6307 20.038 27.6914C20.0631 27.752 20.1 27.8072 20.1464 27.8536C20.1928 27.9 20.248 27.9369 20.3086 27.962C20.3693 27.9871 20.4343 28 20.5 28H27.5C27.5657 28 27.6307 27.9871 27.6914 27.962C27.752 27.9369 27.8072 27.9 27.8536 27.8536C27.9 27.8072 27.9369 27.752 27.962 27.6914C27.9871 27.6307 28 27.5657 28 27.5V4.5C28 4.43434 27.9871 4.36932 27.962 4.30865C27.9368 4.24798 27.9 4.19286 27.8536 4.14643C27.8071 4.1 27.752 4.06317 27.6914 4.03804C27.6307 4.01292 27.5657 3.99999 27.5 4ZM7.25 25C7.25 25.1989 7.17098 25.3897 7.03033 25.5303C6.88968 25.671 6.69891 25.75 6.5 25.75C6.30109 25.75 6.11032 25.671 5.96967 25.5303C5.82902 25.3897 5.75 25.1989 5.75 25V24C5.75 23.8011 5.82902 23.6103 5.96967 23.4697C6.11032 23.329 6.30109 23.25 6.5 23.25C6.69891 23.25 6.88968 23.329 7.03033 23.4697C7.17098 23.6103 7.25 23.8011 7.25 24V25ZM7.25 20.5C7.25 20.6989 7.17098 20.8897 7.03033 21.0303C6.88968 21.171 6.69891 21.25 6.5 21.25C6.30109 21.25 6.11032 21.171 5.96967 21.0303C5.82902 20.8897 5.75 20.6989 5.75 20.5V19.5C5.75 19.3011 5.82902 19.1103 5.96967 18.9697C6.11032 18.829 6.30109 18.75 6.5 18.75C6.69891 18.75 6.88968 18.829 7.03033 18.9697C7.17098 19.1103 7.25 19.3011 7.25 19.5V20.5ZM7.25 16.0533C7.25 16.2522 7.17098 16.443 7.03033 16.5836C6.88968 16.7243 6.69891 16.8033 6.5 16.8033C6.30109 16.8033 6.11032 16.7243 5.96967 16.5836C5.82902 16.443 5.75 16.2522 5.75 16.0533V15.0533C5.75 14.8544 5.82902 14.6636 5.96967 14.523C6.11032 14.3823 6.30109 14.3033 6.5 14.3033C6.69891 14.3033 6.88968 14.3823 7.03033 14.523C7.17098 14.6636 7.25 14.8544 7.25 15.0533V16.0533ZM10.25 25C10.25 25.1989 10.171 25.3897 10.0303 25.5303C9.88968 25.671 9.69891 25.75 9.5 25.75C9.30109 25.75 9.11032 25.671 8.96967 25.5303C8.82902 25.3897 8.75 25.1989 8.75 25V24C8.75 23.8011 8.82902 23.6103 8.96967 23.4697C9.11032 23.329 9.30109 23.25 9.5 23.25C9.69891 23.25 9.88968 23.329 10.0303 23.4697C10.171 23.6103 10.25 23.8011 10.25 24V25ZM10.25 20.5C10.25 20.6989 10.171 20.8897 10.0303 21.0303C9.88968 21.171 9.69891 21.25 9.5 21.25C9.30109 21.25 9.11032 21.171 8.96967 21.0303C8.82902 20.8897 8.75 20.6989 8.75 20.5V19.5C8.75 19.3011 8.82902 19.1103 8.96967 18.9697C9.11032 18.829 9.30109 18.75 9.5 18.75C9.69891 18.75 9.88968 18.829 10.0303 18.9697C10.171 19.1103 10.25 19.3011 10.25 19.5V20.5ZM10.25 16.0533C10.25 16.2522 10.171 16.443 10.0303 16.5836C9.88968 16.7243 9.69891 16.8033 9.5 16.8033C9.30109 16.8033 9.11032 16.7243 8.96967 16.5836C8.82902 16.443 8.75 16.2522 8.75 16.0533V15.0533C8.75 14.8544 8.82902 14.6636 8.96967 14.523C9.11032 14.3823 9.30109 14.3033 9.5 14.3033C9.69891 14.3033 9.88968 14.3823 10.0303 14.523C10.171 14.6636 10.25 14.8544 10.25 15.0533V16.0533ZM15.3001 21.097C15.6197 20.5936 15.8685 20.0486 16.0396 19.4774C16.0447 19.4612 16.0542 19.4467 16.0669 19.4355C16.0796 19.4243 16.0952 19.4167 16.1119 19.4136C16.1286 19.4104 16.1459 19.4119 16.1618 19.4178C16.1777 19.4237 16.1917 19.4338 16.2024 19.447C16.5591 19.9528 16.8386 20.5089 17.0316 21.097H15.3001ZM19.9808 20.722C19.9808 20.8215 19.9413 20.9168 19.871 20.9872C19.8006 21.0575 19.7053 21.097 19.6058 21.097H18.201C18.2017 21.0446 18.195 20.9924 18.1812 20.9418C17.8634 19.8664 17.2714 18.8921 16.4634 18.1146C16.422 18.0798 16.3886 18.0365 16.3655 17.9875C16.3425 17.9386 16.3303 17.8852 16.3299 17.8311V17.1527C16.3299 17.1353 16.3348 17.1182 16.3439 17.1033C16.3531 17.0885 16.3663 17.0765 16.3819 17.0687C16.3975 17.0609 16.415 17.0576 16.4324 17.0591C16.4498 17.0607 16.4664 17.0671 16.4804 17.0775L16.5886 17.1595C16.8641 17.3661 17.1712 17.5268 17.4979 17.6356L17.9402 17.783C17.9978 17.8021 18.0581 17.8119 18.1188 17.812C18.2537 17.812 18.3842 17.7636 18.4866 17.6757C18.5889 17.5877 18.6563 17.4659 18.6765 17.3325C18.6933 17.1965 18.6618 17.0589 18.5873 16.9439C18.5128 16.8288 18.4002 16.7437 18.2692 16.7034L17.8537 16.5654C17.6424 16.4948 17.4437 16.3907 17.2655 16.257L16.8834 15.9705C16.5653 15.732 16.1871 15.5867 15.7911 15.5508C15.3951 15.5149 14.9969 15.5899 14.6411 15.7674C14.2497 15.9615 13.9193 16.2597 13.6864 16.6293C13.4535 16.9989 13.327 17.4256 13.3208 17.8624C13.3152 17.937 13.3245 18.012 13.3481 18.0829C13.3717 18.1539 13.4092 18.2195 13.4584 18.2759C13.5075 18.3323 13.5674 18.3784 13.6345 18.4115C13.7016 18.4445 13.7746 18.464 13.8492 18.4686C13.9239 18.4733 13.9987 18.4631 14.0694 18.4386C14.1401 18.4141 14.2052 18.3758 14.261 18.326C14.3168 18.2762 14.3621 18.2157 14.3944 18.1482C14.4266 18.0807 14.4452 18.0075 14.4489 17.9328C14.4464 17.7113 14.5012 17.4929 14.6081 17.2989C14.715 17.1049 14.8703 16.9418 15.0589 16.8256C15.0696 16.8191 15.0814 16.8148 15.0938 16.8129C15.1062 16.8111 15.1188 16.8117 15.1309 16.8148C15.143 16.8179 15.1544 16.8233 15.1644 16.8308C15.1743 16.8384 15.1827 16.8478 15.189 16.8586C15.1974 16.873 15.2018 16.8895 15.2017 16.9062V17.4164C15.2018 17.9498 15.1434 18.4815 15.0277 19.0022C14.8745 19.6422 14.5912 20.2439 14.1955 20.7697C14.1241 20.8641 14.0847 20.9788 14.083 21.0971H12.346C12.2719 21.0971 12.1995 21.0751 12.1379 21.0339C12.0763 20.9928 12.0283 20.9342 12 20.8658V12.8059C12.0284 12.7375 12.0764 12.6791 12.138 12.6379C12.1996 12.5968 12.2719 12.5748 12.346 12.5747H19.6058C19.7053 12.5747 19.8006 12.6142 19.871 12.6846C19.9413 12.7549 19.9808 12.8503 19.9808 12.9497V20.722ZM23.25 21.5C23.25 21.6989 23.171 21.8897 23.0303 22.0303C22.8897 22.171 22.6989 22.25 22.5 22.25C22.3011 22.25 22.1103 22.171 21.9697 22.0303C21.829 21.8897 21.75 21.6989 21.75 21.5V20.5C21.75 20.3011 21.829 20.1103 21.9697 19.9697C22.1103 19.829 22.3011 19.75 22.5 19.75C22.6989 19.75 22.8897 19.829 23.0303 19.9697C23.171 20.1103 23.25 20.3011 23.25 20.5V21.5ZM23.25 17C23.25 17.1989 23.171 17.3897 23.0303 17.5303C22.8897 17.671 22.6989 17.75 22.5 17.75C22.3011 17.75 22.1103 17.671 21.9697 17.5303C21.829 17.3897 21.75 17.1989 21.75 17V16C21.75 15.8011 21.829 15.6103 21.9697 15.4697C22.1103 15.329 22.3011 15.25 22.5 15.25C22.6989 15.25 22.8897 15.329 23.0303 15.4697C23.171 15.6103 23.25 15.8011 23.25 16V17ZM23.25 12.5C23.25 12.6989 23.171 12.8897 23.0303 13.0303C22.8897 13.171 22.6989 13.25 22.5 13.25C22.3011 13.25 22.1103 13.171 21.9697 13.0303C21.829 12.8897 21.75 12.6989 21.75 12.5V11.5C21.75 11.3011 21.829 11.1103 21.9697 10.9697C22.1103 10.829 22.3011 10.75 22.5 10.75C22.6989 10.75 22.8897 10.829 23.0303 10.9697C23.171 11.1103 23.25 11.3011 23.25 11.5V12.5ZM23.25 8C23.25 8.19892 23.171 8.38968 23.0303 8.53033C22.8897 8.67099 22.6989 8.75 22.5 8.75C22.3011 8.75 22.1103 8.67099 21.9697 8.53033C21.829 8.38968 21.75 8.19892 21.75 8V7C21.75 6.80109 21.829 6.61033 21.9697 6.46967C22.1103 6.32902 22.3011 6.25 22.5 6.25C22.6989 6.25 22.8897 6.32902 23.0303 6.46967C23.171 6.61033 23.25 6.80109 23.25 7V8ZM26.25 21.5C26.25 21.6989 26.171 21.8897 26.0303 22.0303C25.8897 22.171 25.6989 22.25 25.5 22.25C25.3011 22.25 25.1103 22.171 24.9697 22.0303C24.829 21.8897 24.75 21.6989 24.75 21.5V20.5C24.75 20.3011 24.829 20.1103 24.9697 19.9697C25.1103 19.829 25.3011 19.75 25.5 19.75C25.6989 19.75 25.8897 19.829 26.0303 19.9697C26.171 20.1103 26.25 20.3011 26.25 20.5V21.5ZM26.25 17C26.25 17.1989 26.171 17.3897 26.0303 17.5303C25.8897 17.671 25.6989 17.75 25.5 17.75C25.3011 17.75 25.1103 17.671 24.9697 17.5303C24.829 17.3897 24.75 17.1989 24.75 17V16C24.75 15.8011 24.829 15.6103 24.9697 15.4697C25.1103 15.329 25.3011 15.25 25.5 15.25C25.6989 15.25 25.8897 15.329 26.0303 15.4697C26.171 15.6103 26.25 15.8011 26.25 16V17ZM26.25 12.5C26.25 12.6989 26.171 12.8897 26.0303 13.0303C25.8897 13.171 25.6989 13.25 25.5 13.25C25.3011 13.25 25.1103 13.171 24.9697 13.0303C24.829 12.8897 24.75 12.6989 24.75 12.5V11.5C24.75 11.3011 24.829 11.1103 24.9697 10.9697C25.1103 10.829 25.3011 10.75 25.5 10.75C25.6989 10.75 25.8897 10.829 26.0303 10.9697C26.171 11.1103 26.25 11.3011 26.25 11.5V12.5ZM26.25 8C26.25 8.19892 26.171 8.38968 26.0303 8.53033C25.8897 8.67099 25.6989 8.75 25.5 8.75C25.3011 8.75 25.1103 8.67099 24.9697 8.53033C24.829 8.38968 24.75 8.19892 24.75 8V7C24.75 6.80109 24.829 6.61033 24.9697 6.46967C25.1103 6.32902 25.3011 6.25 25.5 6.25C25.6989 6.25 25.8897 6.32902 26.0303 6.46967C26.171 6.61033 26.25 6.80109 26.25 7V8Z" fill="#2EA836"/>
<path d="M14.8246 14.1901C14.8246 14.4076 14.9 14.6184 15.038 14.7866C15.176 14.9547 15.368 15.0698 15.5813 15.1122C15.7947 15.1547 16.0161 15.1218 16.208 15.0193C16.3998 14.9167 16.5501 14.7509 16.6333 14.5499C16.7166 14.3489 16.7276 14.1253 16.6644 13.9172C16.6013 13.7091 16.4679 13.5292 16.287 13.4084C16.1062 13.2876 15.889 13.2332 15.6725 13.2545C15.4561 13.2759 15.2537 13.3716 15.0999 13.5254C14.9237 13.7017 14.8246 13.9408 14.8246 14.1901Z" fill="#2EA836"/>
</svg>
