<svg width="32" height="32" viewBox="0 0 32 32" fill="none" xmlns="http://www.w3.org/2000/svg">
<path fill-rule="evenodd" clip-rule="evenodd" d="M3.99918 29.9697C3.69243 29.9703 3.38969 29.9001 3.11458 29.7644C2.83948 29.6287 2.59945 29.4312 2.41324 29.1875C2.22731 28.9455 2.09921 28.6643 2.03873 28.3652C1.97921 28.0656 1.98839 27.7564 2.06559 27.4609C2.31131 26.5265 2.77853 25.665 3.42771 24.9493C4.07689 24.2337 4.88892 23.6849 5.79508 23.3496L9.73308 22.042C9.13536 21.307 8.69569 20.4566 8.44157 19.544C8.40544 19.5176 8.36931 19.4903 8.33415 19.4629C7.96706 19.789 7.49319 19.9694 7.00215 19.9698H4.00215C3.73949 19.9698 3.4794 19.9181 3.23673 19.8176C2.99406 19.7171 2.77356 19.5698 2.58784 19.3841C2.40211 19.1983 2.25479 18.9778 2.1543 18.7352C2.05381 18.4925 2.0021 18.2324 2.00215 17.9698C2.05365 16.2203 2.47991 14.5023 3.25215 12.9317V9.69041C3.25176 9.41278 3.30275 9.13748 3.40254 8.87841C2.97516 8.74419 2.60522 8.47035 2.35202 8.1008C2.09883 7.73125 1.97705 7.28739 2.00621 6.84038C2.03536 6.39336 2.21376 5.96908 2.51281 5.63555C2.81186 5.30202 3.21423 5.07855 3.65543 5.00098L14.8156 3.05908C15.2696 2.98031 15.7337 2.98031 16.1877 3.05908L27.3454 4.99998C27.8093 5.08086 28.2298 5.32282 28.5328 5.68327C28.8359 6.04372 29.002 6.49953 29.002 6.97044C29.002 7.44135 28.8359 7.89716 28.5328 8.25761C28.2298 8.61806 27.8093 8.86002 27.3454 8.9409L23.6637 9.58103C23.727 9.76869 23.7564 9.96608 23.7506 10.164L23.7516 14.1645C24.1124 14.7742 24.2856 15.4766 24.2496 16.184C24.2465 16.9224 24.0451 17.6463 23.6666 18.2802C23.3752 18.775 22.9861 19.2052 22.5231 19.5449C22.2698 20.4533 21.8331 21.3001 21.2399 22.0332L25.1442 23.3262C26.0649 23.6553 26.8912 24.2043 27.5516 24.9254C28.2119 25.6465 28.6862 26.5179 28.9332 27.4639C29.0108 27.7618 29.0188 28.0735 28.9567 28.375C28.8958 28.673 28.7671 28.953 28.5807 29.1934C28.3941 29.4353 28.1544 29.6312 27.8801 29.7658C27.6058 29.9004 27.3042 29.9702 26.9987 29.9697L3.99918 29.9697Z" fill="white"/>
<path fill-rule="evenodd" clip-rule="evenodd" d="M15.9311 4.53708L27.0881 6.47808C27.2039 6.49838 27.309 6.55889 27.3846 6.64897C27.4603 6.73905 27.5018 6.85293 27.5018 6.97058C27.5018 7.08823 27.4603 7.20211 27.3846 7.29219C27.309 7.38227 27.2039 7.44278 27.0881 7.46308L15.9311 9.40308C15.6473 9.45374 15.3568 9.45374 15.0731 9.40308L3.91606 7.46308C3.80018 7.44278 3.69517 7.38227 3.6195 7.29219C3.54382 7.20211 3.50234 7.08823 3.50234 6.97058C3.50234 6.85293 3.54382 6.73905 3.6195 6.64897C3.69517 6.55889 3.80018 6.49838 3.91606 6.47808L15.0731 4.53708C15.3569 4.48764 15.6472 4.48764 15.9311 4.53708ZM7.00206 18.4702C7.13466 18.4702 7.26182 18.4175 7.35559 18.3237C7.44935 18.23 7.50204 18.1028 7.50206 17.9702C7.45166 16.3557 7.03373 14.7739 6.28006 13.3452C6.26202 13.3099 6.25244 13.2709 6.25206 13.2312V9.6902C6.25206 9.49129 6.17304 9.30052 6.03239 9.15987C5.89174 9.01922 5.70097 8.9402 5.50206 8.9402C5.30315 8.9402 5.11238 9.01922 4.97173 9.15987C4.83108 9.30052 4.75206 9.49129 4.75206 9.6902V13.2312C4.75214 13.2708 4.74289 13.3098 4.72506 13.3452C3.97054 14.7736 3.55223 16.3555 3.50206 17.9702C3.50208 18.1028 3.55477 18.23 3.64853 18.3237C3.7423 18.4175 3.86946 18.4702 4.00206 18.4702H7.00206ZM24.6891 24.7561L24.6721 24.7501L19.7021 23.1031C19.6162 23.0752 19.5244 23.071 19.4363 23.0911C19.3483 23.1112 19.2673 23.1547 19.2021 23.2171L15.8451 26.4481C15.752 26.5371 15.6283 26.5867 15.4996 26.5867C15.3708 26.5867 15.2471 26.5371 15.1541 26.4481L11.7541 23.2301C11.6886 23.1681 11.6075 23.1249 11.5195 23.1052C11.4315 23.0855 11.3398 23.0899 11.2541 23.1181L6.31606 24.7561C5.63576 25.008 5.02614 25.42 4.53877 25.9574C4.05139 26.4947 3.7006 27.1415 3.51606 27.8431C3.49665 27.917 3.49444 27.9944 3.50961 28.0693C3.52478 28.1442 3.55692 28.2147 3.60356 28.2752C3.65021 28.3358 3.71011 28.3848 3.77867 28.4186C3.84724 28.4524 3.92263 28.47 3.99906 28.4701H26.9991C27.0754 28.4699 27.1506 28.4523 27.2191 28.4186C27.2876 28.3849 27.3474 28.3359 27.394 28.2755C27.4406 28.2151 27.4728 28.1448 27.4881 28.07C27.5033 27.9952 27.5013 27.918 27.4821 27.8441C27.2989 27.1428 26.9494 26.496 26.4632 25.9585C25.9771 25.421 25.3685 25.0085 24.6891 24.7561ZM21.9601 9.878L15.8451 10.941C15.6184 10.9797 15.3868 10.9797 15.1601 10.941L9.04506 9.878C9.00916 9.87173 8.97232 9.87339 8.93712 9.88286C8.90192 9.89232 8.86922 9.90937 8.84131 9.93281C8.8134 9.95625 8.79094 9.9855 8.77553 10.0185C8.76011 10.0516 8.7521 10.0876 8.75206 10.124V14.485C8.75218 14.5462 8.72975 14.6053 8.68906 14.651C8.35297 15.0588 8.183 15.5784 8.21306 16.106C8.20776 16.603 8.33847 17.0921 8.59104 17.5202C8.84362 17.9483 9.20845 18.2993 9.64606 18.535L9.79706 18.727C10.3071 21.774 13.8171 23.717 15.4831 23.717C17.1491 23.717 20.6581 21.774 21.1681 18.728L21.3191 18.536C21.7563 18.2996 22.1209 17.9484 22.3734 17.5202C22.6259 17.092 22.7568 16.6031 22.7521 16.106C22.778 15.5992 22.6212 15.0999 22.3101 14.699C22.2729 14.6543 22.2524 14.5981 22.2521 14.54V10.124C22.2522 10.0876 22.2443 10.0516 22.229 10.0186C22.2137 9.98556 22.1913 9.95628 22.1635 9.93283C22.1357 9.90938 22.103 9.89231 22.0679 9.88284C22.0327 9.87337 21.9959 9.87171 21.9601 9.878ZM20.6941 17.178C20.4333 17.2973 20.2057 17.4787 20.0314 17.7064C19.857 17.9341 19.7412 18.2011 19.6941 18.484C19.3171 20.733 16.5201 22.223 15.4871 22.223C14.4541 22.223 11.6521 20.731 11.2751 18.485C11.2276 18.2022 11.1116 17.9354 10.9373 17.7078C10.763 17.4801 10.5357 17.2986 10.2751 17.179C10.0966 17.0589 9.95142 16.8956 9.85299 16.7043C9.75455 16.5131 9.70608 16.3 9.71206 16.085C9.69243 15.9333 9.72791 15.7797 9.81206 15.652C9.94227 15.5927 10.0528 15.4973 10.1304 15.3772C10.208 15.257 10.2496 15.1171 10.2501 14.974V13.033C10.25 12.9942 10.259 12.9559 10.2764 12.9212C10.2937 12.8864 10.319 12.8562 10.3501 12.833C10.3804 12.8098 10.4156 12.7938 10.453 12.7862C10.4904 12.7786 10.5291 12.7795 10.5661 12.789C12.1769 13.2153 13.8358 13.4331 15.5021 13.437C17.1686 13.4338 18.8278 13.2167 20.4391 12.791C20.476 12.7814 20.5147 12.7804 20.5521 12.788C20.5896 12.7957 20.6247 12.8118 20.655 12.8352C20.6852 12.8586 20.7096 12.8885 20.7265 12.9228C20.7433 12.9571 20.7521 12.9948 20.7521 13.033V14.854C20.7254 15.0102 20.7493 15.1708 20.8204 15.3123C20.8914 15.4539 21.0059 15.5691 21.1471 15.641C21.2361 15.7693 21.2735 15.9264 21.2521 16.081C21.2587 16.2957 21.2111 16.5087 21.1136 16.7001C21.016 16.8915 20.8717 17.0552 20.6941 17.176V17.178ZM16.2041 18.891C16.286 18.8651 16.3654 18.8317 16.4411 18.791L16.4451 18.792C16.5318 18.7435 16.6273 18.7127 16.726 18.7014C16.8247 18.6901 16.9247 18.6985 17.0202 18.7262C17.1156 18.7538 17.2046 18.8002 17.282 18.8626C17.3594 18.9249 17.4236 19.0021 17.4709 19.0895C17.5182 19.1768 17.5477 19.2728 17.5576 19.3717C17.5675 19.4705 17.5577 19.5704 17.5286 19.6654C17.4996 19.7605 17.452 19.8488 17.3886 19.9253C17.3251 20.0018 17.2471 20.0649 17.1591 20.111C16.9961 20.1982 16.8249 20.2692 16.6481 20.323C16.3193 20.4223 15.9775 20.4718 15.6341 20.47H15.6271C15.2826 20.4707 14.9399 20.4205 14.6101 20.321C14.4334 20.2685 14.2625 20.1981 14.1001 20.111C13.9249 20.0167 13.7943 19.8567 13.7371 19.6662C13.6799 19.4756 13.7008 19.2702 13.7951 19.095C13.8893 18.9198 14.0494 18.7893 14.2399 18.7321C14.4304 18.6749 14.6359 18.6957 14.8111 18.79C14.887 18.8308 14.9667 18.8643 15.0491 18.89C15.4263 18.999 15.8266 18.9993 16.2041 18.891ZM14.6911 16.485C14.8242 16.3373 14.8932 16.1427 14.8829 15.9441C14.8725 15.7455 14.7838 15.5591 14.6361 15.426C14.2627 15.125 13.7976 14.9609 13.3181 14.9609C12.8385 14.9609 12.3734 15.125 12.0001 15.426C11.8645 15.5617 11.7861 15.7442 11.781 15.9359C11.7758 16.1276 11.8443 16.314 11.9724 16.4568C12.1004 16.5996 12.2783 16.6879 12.4694 16.7035C12.6606 16.7192 12.8505 16.661 13.0001 16.541C13.0958 16.4867 13.204 16.4581 13.3141 16.4581C13.4241 16.4581 13.5323 16.4867 13.6281 16.541C13.7014 16.6075 13.7871 16.6588 13.8803 16.6919C13.9735 16.7251 14.0724 16.7395 14.1712 16.7343C14.27 16.7291 14.3668 16.7044 14.4561 16.6616C14.5453 16.6188 14.6251 16.5588 14.6911 16.485ZM16.347 15.94C16.3521 15.7483 16.4305 15.5659 16.5661 15.4302C16.9388 15.1312 17.4023 14.9683 17.8801 14.9683C18.3579 14.9683 18.8214 15.1312 19.1941 15.4302C19.2736 15.494 19.3393 15.5734 19.3871 15.6634C19.4349 15.7535 19.4639 15.8523 19.4722 15.9539C19.4805 16.0555 19.468 16.1578 19.4355 16.2544C19.403 16.351 19.3511 16.44 19.283 16.5159C19.215 16.5918 19.1321 16.6531 19.0396 16.6959C18.9471 16.7387 18.8468 16.7622 18.7449 16.7649C18.6429 16.7676 18.5415 16.7496 18.4468 16.7118C18.3521 16.674 18.2661 16.6173 18.1941 16.5452C18.0984 16.4908 17.9902 16.4622 17.8801 16.4622C17.77 16.4622 17.6618 16.4908 17.5661 16.5452C17.4545 16.6347 17.3196 16.6905 17.1773 16.7058C17.0351 16.7212 16.8914 16.6956 16.7632 16.6319C16.6351 16.5683 16.5278 16.4694 16.454 16.3468C16.3803 16.2242 16.3431 16.083 16.347 15.94Z" fill="black"/>
</svg>
