<svg width="32" height="32" viewBox="0 0 32 32" fill="none" xmlns="http://www.w3.org/2000/svg">
<path d="M22.0303 20.4695C21.494 19.4514 20.6995 18.5921 19.7265 17.9779C18.7535 17.3636 17.6361 17.0158 16.4863 16.9695C15.3326 17.0186 14.211 17.3645 13.23 17.9738C12.249 18.583 11.4418 19.435 10.8863 20.4475C10.7802 20.6371 10.6854 20.8327 10.6023 21.0335C10.5021 21.2791 10.5035 21.5544 10.6062 21.799C10.709 22.0435 10.9047 22.2372 11.1503 22.3375C11.3959 22.4377 11.6713 22.4363 11.9158 22.3335C12.1604 22.2308 12.3541 22.0351 12.4543 21.7895C12.5088 21.6586 12.5709 21.5311 12.6403 21.4075C13.027 20.7135 13.5808 20.127 14.2516 19.7013C14.9223 19.2756 15.6887 19.024 16.4813 18.9695C17.2688 19.0153 18.0309 19.2644 18.6935 19.6923C19.3562 20.1203 19.8966 20.7126 20.2623 21.4115C20.3083 21.4965 20.3503 21.5835 20.3883 21.6715C20.4381 21.7946 20.5119 21.9066 20.6055 22.001C20.6991 22.0953 20.8105 22.17 20.9333 22.2207C21.056 22.2715 21.1877 22.2973 21.3205 22.2966C21.4534 22.296 21.5847 22.2688 21.707 22.2168C21.8292 22.1648 21.9399 22.0889 22.0325 21.9937C22.125 21.8984 22.1977 21.7857 22.2463 21.662C22.2948 21.5383 22.3182 21.4062 22.3151 21.2734C22.3121 21.1406 22.2825 21.0098 22.2283 20.8885C22.17 20.7453 22.1039 20.6054 22.0303 20.4695Z" fill="white"/>
<path d="M7.99731 8.42432C7.99731 8.68953 8.10267 8.94389 8.29021 9.13142C8.47774 9.31896 8.7321 9.42432 8.99731 9.42432C9.26253 9.42432 9.51688 9.31896 9.70442 9.13142C9.89196 8.94389 9.99731 8.68953 9.99731 8.42432C9.99731 8.1591 9.89196 7.90475 9.70442 7.71721C9.51688 7.52967 9.26253 7.42432 8.99731 7.42432C8.7321 7.42432 8.47774 7.52967 8.29021 7.71721C8.10267 7.90475 7.99731 8.1591 7.99731 8.42432V8.42432Z" fill="white"/>
<path d="M5.82832 12.3554C6.16321 12.5301 6.52972 12.6359 6.9062 12.6667C7.28268 12.6974 7.66151 12.6524 8.02032 12.5344V12.5344L8.30532 12.4344C8.36999 12.4125 8.43846 12.404 8.50651 12.4096C8.57457 12.4152 8.64076 12.4347 8.701 12.4668C8.76124 12.4989 8.81427 12.5431 8.8568 12.5965C8.89934 12.6499 8.93048 12.7115 8.94832 12.7774L9.71332 15.6034C9.73647 15.689 9.73645 15.7792 9.71325 15.8647C9.69006 15.9503 9.64452 16.0282 9.58132 16.0904C8.45979 17.1926 7.53392 18.4776 6.84332 19.8904C6.73284 20.1294 6.72108 20.4023 6.81061 20.6499C6.90014 20.8976 7.08372 21.0999 7.32151 21.213C7.5593 21.3261 7.83209 21.3408 8.08069 21.254C8.32928 21.1672 8.53361 20.9859 8.64932 20.7494C9.35802 19.3222 10.3439 18.0505 11.5493 17.0084C11.7005 16.8865 11.813 16.7233 11.8731 16.5387C11.9331 16.354 11.938 16.1558 11.8873 15.9684L10.4673 10.7184C10.432 10.5862 10.3699 10.4626 10.2849 10.3554C10.1999 10.2481 10.0938 10.1595 9.97318 10.0949C9.85253 10.0303 9.71992 9.99114 9.58354 9.97987C9.44716 9.96861 9.30992 9.98545 9.18032 10.0294L7.38732 10.6374C6.81032 10.8254 6.23432 10.3064 6.05532 9.73736C5.97868 9.4165 6.02236 9.07868 6.17809 8.78786C6.33382 8.49705 6.59078 8.27343 6.90032 8.15936L10.2683 6.65036C10.4954 6.59868 10.7334 6.62588 10.9429 6.72749C11.1525 6.82909 11.3212 6.99905 11.4213 7.20936L13.0913 10.8894C13.1706 11.0641 13.2984 11.2123 13.4596 11.3164C13.6207 11.4205 13.8085 11.476 14.0003 11.4764C14.2593 11.4764 14.5293 11.4764 14.8073 11.4664C14.9213 11.4629 15.033 11.4985 15.1239 11.5673C15.2148 11.636 15.2796 11.7338 15.3073 11.8444L15.9073 14.2444C15.9332 14.3515 15.995 14.4465 16.0822 14.5138C16.1695 14.5811 16.2771 14.6165 16.3873 14.6144H19.1073C19.2175 14.6165 19.3251 14.5811 19.4124 14.5138C19.4997 14.4465 19.5614 14.3515 19.5873 14.2444L20.0593 12.3554C20.0779 12.2811 20.1132 12.2121 20.1626 12.1537C20.212 12.0952 20.2742 12.0489 20.3443 12.0183C20.4145 11.9877 20.4907 11.9735 20.5672 11.977C20.6436 11.9805 20.7183 12.0015 20.7853 12.0384C20.9776 12.1417 21.1543 12.2716 21.3103 12.4244C21.5582 12.7019 21.7472 13.0269 21.8658 13.3796C21.9844 13.7323 22.0302 14.1054 22.0003 14.4764V17.1064C22.0004 17.2735 22.0423 17.4379 22.1223 17.5847C22.2023 17.7314 22.3179 17.8558 22.4583 17.9464C23.2326 18.6344 23.8373 19.492 24.2253 20.4524C24.3376 20.6891 24.5384 20.8723 24.7844 20.9625C25.0305 21.0528 25.3021 21.0428 25.5408 20.9348C25.7796 20.8269 25.9664 20.6295 26.0612 20.3851C26.1559 20.1408 26.1509 19.8691 26.0473 19.6284C25.6055 18.6284 25.0059 17.706 24.2713 16.8964C24.0957 16.7093 23.9987 16.4619 24.0003 16.2054C24.0003 15.2464 24.0003 14.8054 24.0003 14.5434C24.0002 14.4995 24.0115 14.4564 24.0333 14.4183C24.0551 14.3802 24.0865 14.3485 24.1244 14.3265C24.1623 14.3044 24.2054 14.2926 24.2492 14.2924C24.2931 14.2923 24.3362 14.3036 24.3743 14.3254L26.5113 15.5374C26.661 15.6233 26.8307 15.6685 27.0033 15.6684C27.2242 15.6686 27.439 15.5956 27.614 15.4609C27.7891 15.3262 27.9147 15.1373 27.9711 14.9238C28.0275 14.7102 28.0116 14.484 27.9259 14.2804C27.8402 14.0768 27.6895 13.9073 27.4973 13.7984L23.1973 11.3594C23.015 11.2559 22.847 11.1291 22.6973 10.9824C21.344 9.8917 19.6361 9.3384 17.9003 9.42836C17.8043 9.42506 17.7113 9.39415 17.6323 9.33935C17.5534 9.28455 17.492 9.20818 17.4553 9.11936L16.2293 6.14936C15.8692 5.30598 15.1958 4.6353 14.351 4.27863C13.5061 3.92197 12.5558 3.90717 11.7003 4.23736L10.9003 4.55636C10.7801 4.60426 10.6517 4.62838 10.5223 4.62736C10.1813 4.61815 9.84179 4.67486 9.52232 4.79436L6.06432 6.34236C5.30608 6.65322 4.69023 7.23446 4.33606 7.97346C3.9819 8.71245 3.91464 9.55661 4.14732 10.3424C4.28148 10.7719 4.49901 11.1708 4.78745 11.5162C5.07589 11.8616 5.42959 12.1468 5.82832 12.3554V12.3554Z" fill="white"/>
<path d="M25.0193 22.2534C24.9883 22.2704 21.8003 23.9964 16.0003 23.9964C10.2003 23.9964 7.01231 22.2704 6.99231 22.2594C6.76421 22.1291 6.51268 22.045 6.25208 22.012C5.99149 21.9789 5.72693 21.9975 5.47352 22.0667C5.22011 22.1358 4.9828 22.2543 4.77516 22.4152C4.56751 22.576 4.39358 22.7763 4.26331 23.0044C4.00022 23.465 3.9309 24.0114 4.07062 24.5232C4.21033 25.0349 4.54763 25.4703 5.00831 25.7334C5.17031 25.8254 9.04931 27.9964 16.0003 27.9964C22.9513 27.9964 26.8303 25.8254 26.9923 25.7334C27.4538 25.4717 27.7924 25.0375 27.9337 24.5262C28.075 24.0149 28.0074 23.4683 27.7458 23.0069C27.4842 22.5454 27.0499 22.2067 26.5386 22.0654C26.0273 21.9241 25.4808 21.9917 25.0193 22.2534V22.2534Z" fill="white"/>
</svg>
