<svg width="32" height="32" viewBox="0 0 32 32" fill="none" xmlns="http://www.w3.org/2000/svg">
<path fill-rule="evenodd" clip-rule="evenodd" d="M21 29C20.1381 28.9998 19.3116 28.6573 18.7021 28.0479C18.0927 27.4384 17.7502 26.6119 17.75 25.75V25.5H13.25V25.75C13.25 26.612 12.9076 27.4386 12.2981 28.0481C11.6886 28.6576 10.862 29 10 29C9.13805 29 8.3114 28.6576 7.7019 28.0481C7.09241 27.4386 6.75 26.612 6.75 25.75V25.25C6.75 25.1383 6.76046 25.0268 6.78125 24.917C6.42883 24.7161 6.10498 24.4687 5.81836 24.1817C5.399 23.7649 5.06653 23.2691 4.84022 22.723C4.61391 22.1768 4.49827 21.5912 4.5 21V15.6631C3.78883 15.4933 3.1555 15.0891 2.702 14.5156C2.2485 13.9421 2.00123 13.2326 2 12.5015V9.5C2.00085 8.76809 2.2483 8.05782 2.70243 7.48383C3.15655 6.90984 3.79085 6.50563 4.50293 6.33643C4.54561 5.17215 5.03805 4.06977 5.87671 3.26106C6.71538 2.45235 7.83494 2.00032 9 2H22C23.1656 2.00007 24.2858 2.45242 25.1246 3.26181C25.9634 4.0712 26.4554 5.17447 26.4971 6.33936C27.2082 6.50832 27.8417 6.91167 28.2958 7.48446C28.7498 8.05725 28.9978 8.76617 29 9.49707V12.5C28.9996 13.2315 28.7526 13.9416 28.299 14.5155C27.8454 15.0894 27.2116 15.4937 26.5 15.6631V21C26.5017 21.5912 26.3861 22.1768 26.1598 22.723C25.9335 23.2692 25.601 23.765 25.1816 24.1816C24.8949 24.4686 24.5711 24.7159 24.2188 24.917C24.2395 25.0268 24.25 25.1383 24.25 25.25V25.75C24.2498 26.6119 23.9073 27.4384 23.2979 28.0478C22.6884 28.6573 21.8619 28.9998 21 29Z" fill="white"/>
<path fill-rule="evenodd" clip-rule="evenodd" d="M25.25 7.753H25.75C26.2134 7.75353 26.6578 7.93766 26.9858 8.26509C27.3138 8.59251 27.4987 9.03655 27.5 9.5V12.5C27.4995 12.964 27.315 13.4088 26.9869 13.7369C26.6588 14.065 26.214 14.2495 25.75 14.25H25.25C25.2172 14.25 25.1847 14.2564 25.1543 14.269C25.124 14.2816 25.0964 14.3 25.0732 14.3232C25.05 14.3464 25.0316 14.374 25.019 14.4043C25.0064 14.4347 25 14.4672 25 14.5V21C25 21.7956 24.6839 22.5587 24.1213 23.1213C23.5587 23.6839 22.7956 24 22 24H9C8.20435 24 7.44129 23.6839 6.87868 23.1213C6.31607 22.5587 6 21.7956 6 21V14.5C6 14.4337 5.97366 14.3701 5.92678 14.3232C5.87989 14.2763 5.8163 14.25 5.75 14.25H5.25C4.78603 14.2495 4.3412 14.065 4.01312 13.7369C3.68505 13.4088 3.50051 12.964 3.5 12.5V9.5C3.50053 9.03603 3.68507 8.59122 4.01315 8.26315C4.34122 7.93507 4.78603 7.75053 5.25 7.75H5.75C5.8163 7.75 5.87989 7.72366 5.92678 7.67678C5.97366 7.62989 6 7.5663 6 7.5V6.5C6 5.70435 6.31607 4.94129 6.87868 4.37868C7.44129 3.81607 8.20435 3.5 9 3.5H22C22.7956 3.5 23.5587 3.81607 24.1213 4.37868C24.6839 4.94129 25 5.70435 25 6.5V7.5C24.9996 7.53308 25.0058 7.56591 25.0182 7.59659C25.0305 7.62727 25.0489 7.65519 25.0722 7.67872C25.0954 7.70225 25.1231 7.72094 25.1536 7.73369C25.1842 7.74644 25.2169 7.753 25.25 7.753ZM9 20.251H11C11.1989 20.251 11.3897 20.172 11.5303 20.0313C11.671 19.8907 11.75 19.6999 11.75 19.501C11.75 19.3021 11.671 19.1113 11.5303 18.9707C11.3897 18.83 11.1989 18.751 11 18.751H9C8.80109 18.751 8.61032 18.83 8.46967 18.9707C8.32902 19.1113 8.25 19.3021 8.25 19.501C8.25 19.6999 8.32902 19.8907 8.46967 20.0313C8.61032 20.172 8.80109 20.251 9 20.251ZM20 20.251H22C22.1989 20.251 22.3897 20.172 22.5303 20.0313C22.671 19.8907 22.75 19.6999 22.75 19.501C22.75 19.3021 22.671 19.1113 22.5303 18.9707C22.3897 18.83 22.1989 18.751 22 18.751H20C19.8011 18.751 19.6103 18.83 19.4697 18.9707C19.329 19.1113 19.25 19.3021 19.25 19.501C19.25 19.6999 19.329 19.8907 19.4697 20.0313C19.6103 20.172 19.8011 20.251 20 20.251ZM22.9268 16.4278C22.95 16.4046 22.9684 16.377 22.981 16.3467C22.9935 16.3163 23 16.2838 23 16.251V6.5C23 6.23478 22.8946 5.98043 22.7071 5.79289C22.5196 5.60536 22.2652 5.5 22 5.5H9C8.73478 5.5 8.48043 5.60536 8.29289 5.79289C8.10536 5.98043 8 6.23478 8 6.5V16.251C8 16.3173 8.02634 16.3809 8.07322 16.4278C8.12011 16.4747 8.1837 16.501 8.25 16.501H22.75C22.7828 16.501 22.8153 16.4945 22.8457 16.482C22.876 16.4694 22.9036 16.451 22.9268 16.4278ZM11.5 25H8.5C8.4337 25 8.37011 25.0263 8.32322 25.0732C8.27634 25.1201 8.25 25.1837 8.25 25.25V25.75C8.25 26.2141 8.43437 26.6592 8.76256 26.9874C9.09075 27.3156 9.53587 27.5 10 27.5C10.4641 27.5 10.9092 27.3156 11.2374 26.9874C11.5656 26.6592 11.75 26.2141 11.75 25.75V25.25C11.75 25.2172 11.7436 25.1847 11.731 25.1543C11.7184 25.124 11.7 25.0964 11.6768 25.0732C11.6536 25.05 11.626 25.0316 11.5957 25.019C11.5653 25.0064 11.5328 25 11.5 25ZM22.5 25H19.5C19.4672 25 19.4347 25.0064 19.4043 25.019C19.374 25.0316 19.3464 25.05 19.3232 25.0732C19.3 25.0964 19.2816 25.124 19.269 25.1543C19.2564 25.1847 19.25 25.2172 19.25 25.25V25.75C19.25 26.2141 19.4344 26.6592 19.7626 26.9874C20.0908 27.3156 20.5359 27.5 21 27.5C21.4641 27.5 21.9092 27.3156 22.2374 26.9874C22.5656 26.6592 22.75 26.2141 22.75 25.75V25.25C22.75 25.2172 22.7436 25.1847 22.731 25.1543C22.7184 25.124 22.7 25.0964 22.6768 25.0732C22.6536 25.05 22.626 25.0316 22.5957 25.019C22.5653 25.0064 22.5328 25 22.5 25Z" fill="#4085C6"/>
</svg>
