<svg width="32" height="32" viewBox="0 0 32 32" fill="none" xmlns="http://www.w3.org/2000/svg">
<path fill-rule="evenodd" clip-rule="evenodd" d="M15.5 4.5C15.2 4.5 15 4.6 14.8 4.8C14.6 5 14.5 5.2 14.5 5.5V27.5C14.5 27.8 14.6 28 14.8 28.2C15 28.4 15.2 28.5 15.5 28.5C15.8 28.5 16 28.4 16.2 28.2C16.4 28 16.5 27.8 16.5 27.5V5.5C16.5 5.2 16.4 5 16.2 4.8C16 4.6 15.8 4.5 15.5 4.5ZM11.6 15.8C11.4 15.3 11.1 14.8 10.7 14.4C10.6 14.3 10.6 14.3 10.6 14.2C10.6 14.1 10.6 14.1 10.6 14C10.6 13.9 10.6 13.9 10.7 13.8C10.7 13.7 10.8 13.7 10.9 13.6C11.6 13.1 12.1 12.4 12.4 11.6C12.7 10.8 12.7 9.9 12.5 9.1C12.2 8.3 11.7 7.6 11.1 7.1C10.5 6.6 9.4 6.2 8.5 6.2C7.6 6.2 6.8 6.5 6.1 7C5.4 7.5 4.9 8.2 4.7 9C4.4 9.8 4.5 10.7 4.8 11.5C5.1 12.3 5.6 13 6.3 13.5C6.4 13.5 6.4 13.6 6.5 13.7C6.5 13.8 6.5 13.9 6.5 13.9C6.5 14 6.5 14.1 6.5 14.1C6.5 14.2 6.4 14.2 6.4 14.3C6 14.7 5.7 15.2 5.5 15.7L3.5 21.9C3.5 22 3.5 22.1 3.5 22.1C3.5 22.2 3.5 22.3 3.6 22.3C3.6 22.4 3.7 22.4 3.8 22.5C3.8 22.5 3.9 22.5 4 22.5H5.4C5.5 22.5 5.6 22.5 5.7 22.6C5.8 22.7 5.9 22.8 5.9 22.9L6.5 28.1C6.5 28.2 6.6 28.3 6.7 28.4C6.8 28.5 6.9 28.5 7 28.5H10C10.1 28.5 10.2 28.5 10.3 28.4C10.4 28.3 10.5 28.2 10.5 28.1L11.1 23C11.1 22.9 11.2 22.8 11.3 22.7C11.4 22.5 11.5 22.5 11.6 22.5H13C13.1 22.5 13.2 22.5 13.2 22.4C13.3 22.4 13.3 22.3 13.4 22.3C13.4 22.2 13.5 22.2 13.5 22.1C13.5 22 13.5 21.9 13.5 21.9L11.6 15.8ZM8.2 9.3C8.3 9.3 8.4 9.2 8.5 9.2C8.6 9.2 8.7 9.2 8.8 9.3C9.2 9.7 9.6 9.9 10.1 10.1C10.2 10.1 10.3 10.2 10.4 10.3C10.5 10.4 10.5 10.5 10.4 10.6C10.3 11 10 11.4 9.7 11.7C9.4 12 8.9 12.1 8.5 12.1C8.1 12.1 7.6 12 7.3 11.7C7 11.4 6.7 11.1 6.6 10.6C6.6 10.5 6.6 10.4 6.6 10.3C6.7 10.2 6.7 10.1 6.9 10.1C7.3 10 7.8 9.7 8.2 9.3ZM24.9 14C24.9 14.1 25 14.1 25.1 14.2C25.9 14.6 26.5 15.3 26.9 16C27.3 16.8 27.6 17.6 27.6 18.5V21C27.6 21.1 27.5 21.3 27.5 21.4C27.4 21.5 27.3 21.5 27.1 21.5H25.8C25.7 21.5 25.6 21.5 25.5 21.6C25.4 21.7 25.3 21.8 25.3 21.9L24.5 28.1C24.5 28.2 24.4 28.3 24.3 28.4C24.2 28.5 24.1 28.5 24 28.5H21C20.9 28.5 20.8 28.5 20.7 28.4C20.6 28.3 20.5 28.2 20.5 28.1L19.9 22C19.9 21.9 19.8 21.8 19.7 21.7C19.6 21.6 19.5 21.5 19.4 21.5H18C17.9 21.5 17.7 21.4 17.6 21.4C17.5 21.3 17.5 21.2 17.5 21V18.5C17.5 17.6 17.7 16.8 18.2 16C18.6 15.2 19.3 14.6 20 14.2C20.1 14.2 20.1 14.1 20.2 14C20.2 13.9 20.3 13.9 20.3 13.8C20.3 13.7 20.3 13.6 20.3 13.6C20.3 13.5 20.2 13.5 20.2 13.4C19.5 12.9 19.1 12.2 18.8 11.4C18.6 10.6 18.6 9.8 18.9 9C19.2 8.2 19.7 7.5 20.4 7C21.1 6.5 21.9 6.3 22.7 6.3C23.5 6.3 24.3 6.6 25 7C25.7 7.5 26.2 8.2 26.5 9C26.8 9.8 26.8 10.6 26.6 11.4C26.4 12.2 25.9 12.9 25.2 13.4C25.1 13.5 25.1 13.5 25.1 13.6C25.1 13.7 25.1 13.8 25.1 13.8C24.8 13.9 24.8 14 24.9 14ZM20.6 9.6C20.6 9.7 20.5 9.7 20.5 9.8C20.5 10 20.5 10.1 20.5 10.3C20.5 10.8 20.7 11.3 21.1 11.7C21.5 12.1 22 12.3 22.5 12.3C23 12.3 23.5 12.1 23.9 11.7C24.3 11.3 24.5 10.8 24.5 10.3V10.2C24.5 10.2 24.5 10.1 24.4 10.1C24.4 10.1 24.3 10.1 24.3 10H24.2C24 10 23.9 10 23.7 10C22.9 10 22 9.8 21.3 9.5C21.2 9.5 21.2 9.5 21.1 9.5C21 9.5 21 9.5 20.9 9.5C20.8 9.5 20.7 9.6 20.6 9.6Z" fill="#4085C6"/>
<path d="M15.5 4.5C15.8 4.5 16 4.6 16.2 4.8C16.4 5 16.5 5.2 16.5 5.5V27.5C16.5 27.8 16.4 28 16.2 28.2C16 28.4 15.8 28.5 15.5 28.5C15.2 28.5 15 28.4 14.8 28.2C14.6 28 14.5 27.8 14.5 27.5V5.5C14.5 5.2 14.6 5 14.8 4.8C15 4.6 15.2 4.5 15.5 4.5ZM22.5 6.2C23.3 6.2 24.1 6.5 24.8 6.9C25.5 7.4 26 8.1 26.3 8.9C26.6 9.7 26.6 10.5 26.4 11.3C26.2 12.1 25.7 12.8 25 13.3C24.9 13.4 24.9 13.4 24.9 13.5C24.9 13.6 24.9 13.7 24.9 13.7C24.9 13.8 24.9 13.9 25 13.9C25 14 25.1 14 25.2 14.1C26 14.5 26.6 15.2 27 15.9C27.4 16.7 27.7 17.5 27.7 18.4V20.9C27.7 21 27.6 21.2 27.6 21.3C27.5 21.4 27.4 21.4 27.2 21.4H25.9C25.8 21.4 25.7 21.4 25.6 21.5C25.5 21.6 25.4 21.7 25.4 21.8L24.5 28.1C24.5 28.2 24.4 28.3 24.3 28.4C24.2 28.5 24.1 28.5 24 28.5H21C20.9 28.5 20.8 28.5 20.7 28.4C20.6 28.3 20.5 28.2 20.5 28.1L19.9 22C19.9 21.9 19.8 21.8 19.7 21.7C19.6 21.5 19.5 21.5 19.4 21.5H18C17.9 21.5 17.7 21.4 17.6 21.4C17.5 21.3 17.5 21.2 17.5 21V18.5C17.5 17.6 17.7 16.8 18.2 16C18.6 15.2 19.3 14.6 20 14.2C20.1 14.2 20.1 14.1 20.2 14C20.2 13.9 20.3 13.9 20.3 13.8C20.3 13.7 20.3 13.6 20.3 13.6C20.3 13.5 20.2 13.5 20.2 13.4C19.5 12.9 19.1 12.2 18.8 11.4C18.6 10.6 18.6 9.8 18.9 9C19.2 8.2 19.7 7.5 20.4 7C20.9 6.5 21.7 6.2 22.5 6.2ZM22.5 12.3C23 12.3 23.5 12.1 23.9 11.7C24.3 11.3 24.5 10.8 24.5 10.3V10.2C24.5 10.2 24.5 10.1 24.4 10.1C24.4 10.1 24.3 10.1 24.3 10H24.2C24 10 23.9 10 23.7 10C22.9 10 22 9.8 21.3 9.5C21.2 9.5 21.2 9.5 21.1 9.5C21 9.5 21 9.5 20.9 9.5C20.8 9.5 20.8 9.6 20.7 9.6C20.7 9.7 20.6 9.7 20.6 9.8C20.5 10 20.5 10.1 20.5 10.3C20.5 10.8 20.7 11.3 21.1 11.7C21.5 12 22 12.3 22.5 12.3ZM8.5 6.2C9.4 6.2 10.2 6.5 10.9 7C11.6 7.5 12.1 8.2 12.3 9C12.6 9.8 12.5 10.7 12.2 11.5C11.9 12.3 11.4 13 10.7 13.5C10.6 13.5 10.6 13.6 10.5 13.7C10.5 13.8 10.4 13.8 10.4 13.9C10.4 14 10.4 14.1 10.4 14.1C10.4 14.2 10.5 14.2 10.5 14.3C10.9 14.7 11.2 15.2 11.4 15.7L13.3 21.8C13.3 21.9 13.3 22 13.3 22C13.3 22.1 13.3 22.2 13.2 22.2C13.2 22.3 13.1 22.3 13 22.3C12.9 22.3 12.9 22.4 12.8 22.4H11.4C11.3 22.4 11.2 22.4 11.1 22.5C11 22.6 10.9 22.7 10.9 22.8L10.5 28.1C10.5 28.2 10.4 28.3 10.3 28.4C10.2 28.5 10.1 28.5 10 28.5H7C6.9 28.5 6.8 28.5 6.7 28.4C6.6 28.3 6.5 28.2 6.5 28.1L5.9 23C5.9 22.9 5.8 22.8 5.7 22.7C5.6 22.5 5.5 22.5 5.4 22.5H4C3.9 22.5 3.8 22.5 3.8 22.4C3.7 22.4 3.7 22.3 3.6 22.2C3.6 22.1 3.5 22.1 3.5 22C3.5 21.9 3.5 21.8 3.5 21.8L5.4 15.7C5.6 15.2 5.9 14.7 6.3 14.3C6.4 14.2 6.4 14.2 6.4 14.1C6.4 14 6.4 14 6.4 13.9C6.4 13.8 6.4 13.8 6.3 13.7C6.3 13.6 6.2 13.6 6.1 13.5C5.4 13 4.9 12.3 4.6 11.5C4.3 10.7 4.3 9.8 4.5 9C4.8 8.2 5.3 7.5 5.9 7C6.8 6.5 7.6 6.2 8.5 6.2ZM8.5 12.2C8.9 12.2 9.4 12.1 9.7 11.8C10 11.5 10.3 11.2 10.4 10.7C10.4 10.6 10.4 10.5 10.4 10.4C10.3 10.3 10.3 10.2 10.1 10.2C9.6 10 9.2 9.7 8.8 9.4C8.7 9.3 8.6 9.2 8.5 9.2C8.4 9.2 8.3 9.2 8.2 9.3C7.8 9.7 7.3 10 6.9 10.2C6.8 10.2 6.7 10.3 6.6 10.4C6.5 10.5 6.5 10.6 6.6 10.7C6.7 11.1 7 11.5 7.3 11.8C7.6 12.1 8.1 12.2 8.5 12.2ZM15.5 3C14.8 3 14.2 3.3 13.7 3.7C13.2 4.2 13 4.8 13 5.5V7.1C12.7 6.6 12.2 6.2 11.8 5.8C10.8 5.1 9.7 4.7 8.5 4.7C7.3 4.7 6.2 5.1 5.2 5.8C4.3 6.5 3.6 7.5 3.2 8.6C2.9 9.7 2.9 10.9 3.3 12C3.6 12.8 4 13.4 4.6 14C4.3 14.4 4.2 14.8 4 15.2L2.1 21.3C2 21.6 2 21.9 2 22.2C2.1 22.5 2.2 22.8 2.4 23.1C2.6 23.4 2.8 23.6 3.1 23.7C3.4 23.8 3.7 23.9 4 23.9H4.5L5 28.1C5.1 28.6 5.3 29 5.7 29.4C6.1 29.7 6.5 29.9 7 29.9H10C10.5 29.9 11 29.7 11.3 29.4C11.7 29.1 11.9 28.6 12 28.1L12.5 23.8H13V27.5C13 28.2 13.3 28.8 13.7 29.3C14.2 29.8 14.8 30 15.5 30C16.2 30 16.8 29.7 17.3 29.3C17.8 28.8 18 28.2 18 27.5V23H18.5L19.1 28.2C19.2 28.7 19.4 29.2 19.8 29.5C20.2 29.8 20.6 30 21.1 30H24.1C24.6 30 25.1 29.8 25.4 29.5C25.8 29.2 26 28.7 26.1 28.2L26.7 23H27.2C27.7 23 28.2 22.8 28.6 22.4C29 22 29.2 21.5 29.2 21V18.5C29.2 17.4 28.9 16.3 28.3 15.3C27.9 14.7 27.5 14.1 27 13.7C27.4 13.2 27.8 12.5 28 11.8C28.3 10.7 28.3 9.5 27.9 8.4C27.5 7.3 26.8 6.4 25.9 5.7C25 5 23.9 4.7 22.7 4.7C21.5 4.7 20.4 5.1 19.5 5.7C19 6.1 18.5 6.5 18.2 7V5.5C18.2 4.8 17.9 4.2 17.5 3.7C16.8 3.3 16.2 3 15.5 3ZM18 13.8V13.4C18.1 13.5 18.1 13.6 18.2 13.7C18.1 13.7 18.1 13.8 18 13.8ZM12.4 14.1C12.6 13.9 12.8 13.7 13 13.4V15.3C12.9 14.9 12.7 14.5 12.4 14.1Z" fill="white"/>
</svg>
