<svg width="32" height="32" viewBox="0 0 32 32" fill="none" xmlns="http://www.w3.org/2000/svg">
<path d="M21.5 21.5C21.2 21.5 21 21.6 20.8 21.8C20.6 22 20.5 22.2 20.5 22.5V24C20.5 24.1 20.4 24.3 20.4 24.4C20.3 24.5 20.2 24.5 20 24.5H14.5C14.4 24.5 14.2 24.4 14.1 24.4C14 24.3 14 24.2 14 24V8C14 7.9 14.1 7.7 14.1 7.6C14.2 7.5 14.3 7.5 14.5 7.5H20C20.1 7.5 20.3 7.6 20.4 7.6C20.5 7.7 20.5 7.8 20.5 8V10C20.5 10.3 20.6 10.5 20.8 10.7C21 10.9 21.2 11 21.5 11C21.8 11 22 10.9 22.2 10.7C22.4 10.5 22.5 10.3 22.5 10V6.5C22.5 6.2 22.4 6 22.2 5.8C22 5.6 21.8 5.5 21.5 5.5H14V4.5C14 4.4 14 4.4 14 4.3C14 4.2 13.9 4.2 13.8 4.1C13.8 4.1 13.7 4 13.6 4C13.5 4 13.5 4 13.4 4L4.4 6C4.3 6 4.2 6.1 4.1 6.2C4.1 6.3 4 6.4 4 6.5V25.5C4 25.6 4 25.7 4.1 25.8C4.2 25.9 4.3 26 4.4 26L13.4 28C13.5 28 13.5 28 13.6 28C13.7 28 13.7 27.9 13.8 27.9C13.9 27.9 13.9 27.8 13.9 27.7C13.9 27.6 13.9 27.6 13.9 27.5V26.5H21.4C21.7 26.5 21.9 26.4 22.1 26.2C22.3 26 22.4 25.8 22.4 25.5V22.5C22.4 22.2 22.3 22 22.1 21.8C22.1 21.6 21.8 21.5 21.5 21.5ZM11.5 16.5C11.5 16.8 11.4 17.1 11.2 17.3C11 17.5 10.8 17.7 10.5 17.9C10.3 18 10 18 9.7 18C9.4 17.9 9.1 17.8 8.9 17.6C8.7 17.4 8.5 17.1 8.5 16.8C8.4 16.5 8.5 16.2 8.6 15.9C8.7 15.6 8.9 15.4 9.2 15.2C9.4 15 9.7 14.9 10 14.9C10.4 14.9 10.8 15.1 11.1 15.3C11.4 15.7 11.5 16.1 11.5 16.5Z" fill="white"/>
<path d="M26.1 12.0001C26.1 12.3001 26.1 12.5001 26.1 12.7001C26.1 13.1001 26 13.2001 25.6 13.2001C25.5 13.2001 20.2 13.2001 20.1 13.2001C19.8 13.2001 19.6 13.1001 19.6 12.7001C19.6 12.5001 19.6 12.4001 19.6 12.0001C19.6 10.9001 17.8 10.9001 17.8 12.0001C17.8 12.7001 17.8 13.5001 17.8 14.0001C17.8 14.5001 18.1 15.0001 18.9 15.0001C19.2 15.0001 26.3 15.0001 26.6 15.0001C27.4 15.0001 27.7 14.5001 27.7 14.0001C27.7 13.6001 27.7 12.7001 27.7 12.0001C27.9 10.8001 26.1 10.9001 26.1 12.0001Z" fill="white"/>
<path d="M19.5 20.5C19.5 20.2 19.5 20 19.5 19.8C19.5 19.4 19.6 19.3 20 19.3C20.1 19.3 25.4 19.3 25.5 19.3C25.8 19.3 26 19.4 26 19.8C26 20 26 20.1 26 20.5C26 21.6 27.8 21.6 27.8 20.5C27.8 19.8 27.8 19 27.8 18.5C27.8 18 27.5 17.5 26.7 17.5C26.4 17.5 19.3 17.5 19 17.5C18.2 17.5 17.9 18 17.9 18.5C17.9 18.9 17.9 19.8 17.9 20.5C17.7 21.6 19.5 21.6 19.5 20.5Z" fill="white"/>
</svg>
