<svg width="32" height="32" viewBox="0 0 32 32" fill="none" xmlns="http://www.w3.org/2000/svg">
<path d="M23.3052 13.5H8.30524C7.24437 13.5 6.22696 13.9214 5.47681 14.6716C4.72666 15.4217 4.30524 16.4391 4.30524 17.5V26.419C4.30584 26.6301 4.34858 26.8389 4.43095 27.0333C4.51331 27.2277 4.63365 27.4036 4.7849 27.5509C4.93616 27.6981 5.11529 27.8137 5.31179 27.8908C5.50829 27.9679 5.7182 28.0051 5.92924 28C7.76924 27.975 9.80524 23.492 9.80524 23.492C10.0699 23.0389 10.4484 22.6628 10.9033 22.4011C11.3581 22.1393 11.8735 22.0011 12.3982 22H19.2152C19.7387 21.9996 20.2532 22.1361 20.7076 22.3961C21.1619 22.6561 21.5404 23.0305 21.8052 23.482C21.8052 23.482 23.8002 27.994 25.6652 27.998C25.8794 27.9997 26.0918 27.9591 26.2902 27.8786C26.4887 27.798 26.6693 27.6791 26.8216 27.5286C26.974 27.378 27.0952 27.1989 27.1781 27.0015C27.2611 26.8041 27.3043 26.5922 27.3052 26.378V17.5C27.3052 16.4391 26.8838 15.4217 26.1337 14.6716C25.3835 13.9214 24.3661 13.5 23.3052 13.5ZM11.3052 19H10.5552C10.4226 19 10.2955 19.0527 10.2017 19.1464C10.1079 19.2402 10.0552 19.3674 10.0552 19.5V20.25C10.0552 20.4489 9.97622 20.6397 9.83557 20.7803C9.69491 20.921 9.50415 21 9.30524 21C9.10632 21 8.91556 20.921 8.77491 20.7803C8.63425 20.6397 8.55524 20.4489 8.55524 20.25V19.5C8.55524 19.3674 8.50256 19.2402 8.40879 19.1464C8.31502 19.0527 8.18784 19 8.05524 19H7.30524C7.10632 19 6.91556 18.921 6.77491 18.7803C6.63425 18.6397 6.55524 18.4489 6.55524 18.25C6.55524 18.0511 6.63425 17.8603 6.77491 17.7197C6.91556 17.579 7.10632 17.5 7.30524 17.5H8.05524C8.18784 17.5 8.31502 17.4473 8.40879 17.3536C8.50256 17.2598 8.55524 17.1326 8.55524 17V16.25C8.55524 16.0511 8.63425 15.8603 8.77491 15.7197C8.91556 15.579 9.10632 15.5 9.30524 15.5C9.50415 15.5 9.69491 15.579 9.83557 15.7197C9.97622 15.8603 10.0552 16.0511 10.0552 16.25V17C10.0552 17.1326 10.1079 17.2598 10.2017 17.3536C10.2955 17.4473 10.4226 17.5 10.5552 17.5H11.3052C11.5041 17.5 11.6949 17.579 11.8356 17.7197C11.9762 17.8603 12.0552 18.0511 12.0552 18.25C12.0552 18.4489 11.9762 18.6397 11.8356 18.7803C11.6949 18.921 11.5041 19 11.3052 19ZM19.8052 19C19.6075 19 19.4141 18.9414 19.2497 18.8315C19.0852 18.7216 18.957 18.5654 18.8814 18.3827C18.8057 18.2 18.7859 17.9989 18.8245 17.8049C18.863 17.6109 18.9583 17.4327 19.0981 17.2929C19.238 17.153 19.4162 17.0578 19.6101 17.0192C19.8041 16.9806 20.0052 17.0004 20.1879 17.0761C20.3706 17.1518 20.5268 17.28 20.6367 17.4444C20.7466 17.6089 20.8052 17.8022 20.8052 18C20.8052 18.2652 20.6999 18.5196 20.5123 18.7071C20.3248 18.8946 20.0705 19 19.8052 19ZM22.3052 21C22.1075 21 21.9141 20.9414 21.7497 20.8315C21.5852 20.7216 21.457 20.5654 21.3814 20.3827C21.3057 20.2 21.2859 19.9989 21.3245 19.8049C21.363 19.6109 21.4583 19.4327 21.5981 19.2929C21.738 19.153 21.9162 19.0578 22.1101 19.0192C22.3041 18.9806 22.5052 19.0004 22.6879 19.0761C22.8706 19.1518 23.0268 19.28 23.1367 19.4444C23.2466 19.6089 23.3052 19.8022 23.3052 20C23.3052 20.2652 23.1999 20.5196 23.0123 20.7071C22.8248 20.8946 22.5705 21 22.3052 21ZM22.3052 17C22.1075 17 21.9141 16.9414 21.7497 16.8315C21.5852 16.7216 21.457 16.5654 21.3814 16.3827C21.3057 16.2 21.2859 15.9989 21.3245 15.8049C21.363 15.6109 21.4583 15.4327 21.5981 15.2929C21.738 15.153 21.9162 15.0578 22.1101 15.0192C22.3041 14.9806 22.5052 15.0004 22.6879 15.0761C22.8706 15.1518 23.0268 15.28 23.1367 15.4444C23.2466 15.6089 23.3052 15.8022 23.3052 16C23.3052 16.2652 23.1999 16.5196 23.0123 16.7071C22.8248 16.8946 22.5705 17 22.3052 17ZM24.8052 19C24.6075 19 24.4141 18.9414 24.2497 18.8315C24.0852 18.7216 23.957 18.5654 23.8814 18.3827C23.8057 18.2 23.7859 17.9989 23.8245 17.8049C23.863 17.6109 23.9583 17.4327 24.0981 17.2929C24.238 17.153 24.4162 17.0578 24.6101 17.0192C24.8041 16.9806 25.0052 17.0004 25.1879 17.0761C25.3706 17.1518 25.5268 17.28 25.6367 17.4444C25.7466 17.6089 25.8052 17.8022 25.8052 18C25.8052 18.2652 25.6999 18.5196 25.5123 18.7071C25.3248 18.8946 25.0705 19 24.8052 19Z" fill="white"/>
<path d="M5.10626 6.20291C5.10626 6.78612 5.33794 7.34544 5.75033 7.75783C6.16273 8.17023 6.72205 8.40191 7.30526 8.40191C7.88847 8.40191 8.4478 8.17023 8.86019 7.75783C9.27258 7.34544 9.50426 6.78612 9.50426 6.20291C9.50426 5.6197 9.27258 5.06037 8.86019 4.64798C8.4478 4.23559 7.88847 4.00391 7.30526 4.00391C6.72205 4.00391 6.16273 4.23559 5.75033 4.64798C5.33794 5.06037 5.10626 5.6197 5.10626 6.20291Z" fill="white"/>
<path d="M10.1123 12C10.1961 11.9999 10.2786 11.9787 10.3522 11.9383C10.4257 11.8979 10.4879 11.8397 10.533 11.769C10.5781 11.6983 10.6047 11.6173 10.6104 11.5336C10.616 11.4499 10.6005 11.3662 10.5653 11.29C10.2788 10.6664 9.81939 10.1381 9.24164 9.76769C8.6639 9.39731 7.99203 9.20044 7.30575 9.20044C6.61948 9.20044 5.9476 9.39731 5.36986 9.76769C4.79211 10.1381 4.33274 10.6664 4.04625 11.29C4.0108 11.3666 3.99531 11.4509 4.00123 11.5351C4.00715 11.6193 4.03428 11.7006 4.0801 11.7715C4.12592 11.8424 4.18894 11.9005 4.26328 11.9405C4.33762 11.9804 4.42086 12.0009 4.50525 12H10.1123Z" fill="white"/>
<path d="M22.1053 6.199C22.1053 6.78221 22.3369 7.34154 22.7493 7.75393C23.1617 8.16632 23.721 8.398 24.3043 8.398C24.8875 8.398 25.4468 8.16632 25.8592 7.75393C26.2716 7.34154 26.5033 6.78221 26.5033 6.199C26.5033 5.61579 26.2716 5.05646 25.8592 4.64407C25.4468 4.23168 24.8875 4 24.3043 4C23.721 4 23.1617 4.23168 22.7493 4.64407C22.3369 5.05646 22.1053 5.61579 22.1053 6.199Z" fill="white"/>
<path d="M27.5643 11.285C27.2775 10.6617 26.818 10.1337 26.2403 9.7636C25.6626 9.39349 24.9909 9.19678 24.3048 9.19678C23.6187 9.19678 22.947 9.39349 22.3692 9.7636C21.7915 10.1337 21.3321 10.6617 21.0453 11.285C21.01 11.3612 20.9945 11.445 21.0002 11.5288C21.0059 11.6126 21.0325 11.6936 21.0778 11.7643C21.123 11.8351 21.1853 11.8933 21.259 11.9336C21.3327 11.9739 21.4153 11.995 21.4993 11.995H27.1113C27.1951 11.9948 27.2777 11.9736 27.3512 11.9332C27.4247 11.8929 27.4869 11.8346 27.532 11.7639C27.5771 11.6932 27.6037 11.6123 27.6094 11.5286C27.615 11.4449 27.5995 11.3611 27.5643 11.285Z" fill="white"/>
<path d="M13.6063 6.199C13.6063 6.78221 13.8379 7.34154 14.2503 7.75393C14.6627 8.16632 15.2221 8.398 15.8053 8.398C16.3885 8.398 16.9478 8.16632 17.3602 7.75393C17.7726 7.34154 18.0043 6.78221 18.0043 6.199C18.0043 5.61579 17.7726 5.05646 17.3602 4.64407C16.9478 4.23168 16.3885 4 15.8053 4C15.2221 4 14.6627 4.23168 14.2503 4.64407C13.8379 5.05646 13.6063 5.61579 13.6063 6.199Z" fill="white"/>
<path d="M12.9993 12.0001H18.6113C18.6951 12 18.7777 11.9787 18.8512 11.9384C18.9247 11.898 18.9869 11.8398 19.032 11.769C19.0771 11.6983 19.1037 11.6174 19.1094 11.5337C19.115 11.45 19.0995 11.3662 19.0643 11.2901C18.7775 10.6668 18.318 10.1388 17.7403 9.76873C17.1626 9.39862 16.4909 9.2019 15.8048 9.2019C15.1187 9.2019 14.447 9.39862 13.8692 9.76873C13.2915 10.1388 12.8321 10.6668 12.5453 11.2901C12.51 11.3663 12.4945 11.4502 12.5002 11.5339C12.5059 11.6177 12.5325 11.6987 12.5778 11.7695C12.623 11.8402 12.6853 11.8984 12.759 11.9387C12.8327 11.979 12.9153 12.0001 12.9993 12.0001Z" fill="white"/>
</svg>
