<svg width="32" height="32" viewBox="0 0 32 32" fill="none" xmlns="http://www.w3.org/2000/svg">
<path d="M9.24982 15.0007C9.0509 15.0007 8.86014 15.0798 8.71949 15.2204C8.57883 15.3611 8.49982 15.5518 8.49982 15.7507V16.0007C8.49982 16.1333 8.44714 16.2605 8.35337 16.3543C8.2596 16.4481 8.13243 16.5007 7.99982 16.5007H7.74982C7.5509 16.5007 7.36014 16.5798 7.21949 16.7204C7.07883 16.8611 6.99982 17.0518 6.99982 17.2507C6.99982 17.4496 7.07883 17.6404 7.21949 17.7811C7.36014 17.9217 7.5509 18.0007 7.74982 18.0007H7.99982C8.13243 18.0007 8.2596 18.0534 8.35337 18.1472C8.44714 18.2409 8.49982 18.3681 8.49982 18.5007V18.7507C8.49982 18.9496 8.57883 19.1404 8.71949 19.2811C8.86014 19.4217 9.0509 19.5007 9.24982 19.5007C9.44873 19.5007 9.63949 19.4217 9.78015 19.2811C9.9208 19.1404 9.99982 18.9496 9.99982 18.7507V18.5007C9.99982 18.3681 10.0525 18.2409 10.1463 18.1472C10.24 18.0534 10.3672 18.0007 10.4998 18.0007H10.7498C10.9487 18.0007 11.1395 17.9217 11.2801 17.7811C11.4208 17.6404 11.4998 17.4496 11.4998 17.2507C11.4998 17.0518 11.4208 16.8611 11.2801 16.7204C11.1395 16.5798 10.9487 16.5007 10.7498 16.5007H10.4998C10.3672 16.5007 10.24 16.4481 10.1463 16.3543C10.0525 16.2605 9.99982 16.1333 9.99982 16.0007V15.7507C9.99982 15.5518 9.9208 15.3611 9.78015 15.2204C9.63949 15.0798 9.44873 15.0007 9.24982 15.0007Z" fill="white"/>
<path d="M25.7498 24.0007H25.4998C25.3672 24.0007 25.24 23.9481 25.1463 23.8543C25.0525 23.7605 24.9998 23.6333 24.9998 23.5007V23.2507C24.9998 23.0518 24.9208 22.8611 24.7801 22.7204C24.6395 22.5797 24.4487 22.5007 24.2498 22.5007C24.0509 22.5007 23.8601 22.5797 23.7195 22.7204C23.5788 22.8611 23.4998 23.0518 23.4998 23.2507V23.5007C23.4998 23.6333 23.4471 23.7605 23.3534 23.8543C23.2596 23.9481 23.1324 24.0007 22.9998 24.0007H22.7498C22.5509 24.0007 22.3601 24.0797 22.2195 24.2204C22.0788 24.3611 21.9998 24.5518 21.9998 24.7507C21.9998 24.9496 22.0788 25.1404 22.2195 25.2811C22.3601 25.4217 22.5509 25.5007 22.7498 25.5007H22.9998C23.1324 25.5007 23.2596 25.5534 23.3534 25.6472C23.4471 25.7409 23.4998 25.8681 23.4998 26.0007V26.2507C23.4998 26.4496 23.5788 26.6404 23.7195 26.7811C23.8601 26.9217 24.0509 27.0007 24.2498 27.0007C24.4487 27.0007 24.6395 26.9217 24.7801 26.7811C24.9208 26.6404 24.9998 26.4496 24.9998 26.2507V26.0007C24.9998 25.8681 25.0525 25.7409 25.1463 25.6472C25.24 25.5534 25.3672 25.5007 25.4998 25.5007H25.7498C25.9487 25.5007 26.1395 25.4217 26.2801 25.2811C26.4208 25.1404 26.4998 24.9496 26.4998 24.7507C26.4998 24.5518 26.4208 24.3611 26.2801 24.2204C26.1395 24.0797 25.9487 24.0007 25.7498 24.0007Z" fill="white"/>
<path d="M19.2498 7.50073H19.9998C20.1324 7.50073 20.2596 7.55341 20.3534 7.64718C20.4471 7.74095 20.4998 7.86812 20.4998 8.00073V8.75073C20.4998 8.94964 20.5788 9.14041 20.7195 9.28106C20.8601 9.42171 21.0509 9.50073 21.2498 9.50073C21.4487 9.50073 21.6395 9.42171 21.7801 9.28106C21.9208 9.14041 21.9998 8.94964 21.9998 8.75073V8.00073C21.9998 7.86812 22.0525 7.74095 22.1463 7.64718C22.24 7.55341 22.3672 7.50073 22.4998 7.50073H23.2498C23.4487 7.50073 23.6395 7.42171 23.7801 7.28106C23.9208 7.14041 23.9998 6.94964 23.9998 6.75073C23.9998 6.55182 23.9208 6.36105 23.7801 6.2204C23.6395 6.07975 23.4487 6.00073 23.2498 6.00073H22.4998C22.3672 6.00073 22.24 5.94805 22.1463 5.85429C22.0525 5.76052 21.9998 5.63334 21.9998 5.50073V4.75073C21.9998 4.55182 21.9208 4.36105 21.7801 4.2204C21.6395 4.07975 21.4487 4.00073 21.2498 4.00073C21.0509 4.00073 20.8601 4.07975 20.7195 4.2204C20.5788 4.36105 20.4998 4.55182 20.4998 4.75073V5.50073C20.4998 5.63334 20.4471 5.76052 20.3534 5.85429C20.2596 5.94805 20.1324 6.00073 19.9998 6.00073H19.2498C19.0509 6.00073 18.8601 6.07975 18.7195 6.2204C18.5788 6.36105 18.4998 6.55182 18.4998 6.75073C18.4998 6.94964 18.5788 7.14041 18.7195 7.28106C18.8601 7.42171 19.0509 7.50073 19.2498 7.50073Z" fill="white"/>
<path d="M22.8998 19.6778L26.4998 16.0778C26.6325 15.9453 26.8123 15.8705 26.9998 15.8698C27.2529 15.8701 27.4966 15.7744 27.6819 15.602C27.8672 15.4296 27.9802 15.1934 27.9982 14.941C28.0162 14.6886 27.9379 14.4387 27.779 14.2418C27.62 14.0449 27.3924 13.9155 27.1418 13.8798C15.0788 12.1438 5.73983 4.31683 5.64783 4.23783C5.44561 4.06611 5.18344 3.98175 4.91902 4.00331C4.65459 4.02488 4.40956 4.15061 4.23783 4.35283C4.06611 4.55506 3.98175 4.81722 4.00331 5.08165C4.02488 5.34608 4.15061 5.59111 4.35283 5.76283C4.46083 5.85483 5.23883 6.51083 6.57383 7.45383C6.70515 7.54588 6.81239 7.66816 6.88654 7.81035C6.96068 7.95254 6.99954 8.11047 6.99983 8.27083V13.0708C7.00053 13.2512 7.05001 13.4281 7.14303 13.5826C7.23605 13.7372 7.36916 13.8637 7.52824 13.9488C7.68731 14.0339 7.86645 14.0743 8.04665 14.0659C8.22685 14.0575 8.40141 14.0004 8.55183 13.9008L12.3998 11.3318C12.4808 11.2777 12.5748 11.2463 12.6721 11.2408C12.7694 11.2354 12.8663 11.2561 12.9528 11.3008C13.0206 11.3351 13.0797 11.3843 13.1256 11.4448C13.1715 11.5052 13.2031 11.5754 13.2178 11.6498L14.3338 17.2328C14.367 17.4068 14.4465 17.5687 14.5639 17.7014C14.6812 17.8341 14.8322 17.9327 15.0008 17.9868C15.1013 18.0209 15.2067 18.0382 15.3128 18.0378C15.5619 18.0376 15.8021 17.945 15.9868 17.7778L19.7678 14.3408C19.8101 14.3025 19.8618 14.276 19.9177 14.264C19.9735 14.2521 20.0315 14.2551 20.0858 14.2728C20.1338 14.2881 20.1768 14.3159 20.2104 14.3533C20.2439 14.3908 20.2669 14.4365 20.2768 14.4858L21.2128 19.1678C21.2484 19.3452 21.3314 19.5096 21.453 19.6435C21.5746 19.7774 21.7303 19.8758 21.9034 19.9282C22.0765 19.9806 22.2606 19.9851 22.4361 19.9412C22.6116 19.8973 22.7718 19.8066 22.8998 19.6788V19.6778Z" fill="white"/>
<path d="M18.6998 18.8699C14.3254 20.3948 9.73211 21.198 5.09982 21.2479C5.06782 21.2479 5.03182 21.2329 5.00482 21.2479C4.73961 21.2479 4.48525 21.3533 4.29772 21.5408C4.11018 21.7284 4.00482 21.9827 4.00482 22.2479C4.00482 22.5132 4.11018 22.7675 4.29772 22.9551C4.48525 23.1426 4.73961 23.2479 5.00482 23.2479C5.04366 23.2478 5.08199 23.2568 5.11673 23.2741C5.15147 23.2915 5.18164 23.3168 5.20482 23.3479L8.35882 27.6009C8.45197 27.7251 8.57275 27.8259 8.71161 27.8954C8.85046 27.9648 9.00358 28.0009 9.15882 28.0009C9.20902 28.0008 9.25914 27.9971 9.30882 27.9899C9.48771 27.963 9.65593 27.8881 9.79558 27.7731C9.93523 27.6581 10.0411 27.5073 10.1018 27.3369L11.6998 22.8609C11.7196 22.8065 11.7534 22.7582 11.7978 22.7209C11.8422 22.6837 11.8957 22.6589 11.9528 22.6489C12.002 22.6406 12.0526 22.6454 12.0993 22.663C12.1461 22.6806 12.1873 22.7102 12.2188 22.7489L15.4788 26.7199C15.5717 26.8343 15.689 26.9265 15.822 26.9898C15.955 27.0531 16.1005 27.0859 16.2478 27.0859C16.3065 27.086 16.3651 27.0807 16.4228 27.0699C16.5973 27.0397 16.7606 26.9637 16.8961 26.8497C17.0315 26.7356 17.1343 26.5877 17.1938 26.4209L19.1458 20.9559C19.1622 20.9108 19.1887 20.8701 19.2234 20.837C19.2581 20.8039 19.3 20.7792 19.3458 20.7649C19.5939 20.6777 19.7977 20.4963 19.913 20.2599C20.0283 20.0235 20.0458 19.7512 19.9618 19.502C19.8777 19.2528 19.6989 19.0467 19.464 18.9284C19.2291 18.8101 18.9571 18.7891 18.7068 18.8699H18.6998Z" fill="white"/>
<path d="M24.4998 11.0007C24.4998 11.2659 24.6052 11.5203 24.7927 11.7078C24.9802 11.8954 25.2346 12.0007 25.4998 12.0007C25.765 12.0007 26.0194 11.8954 26.2069 11.7078C26.3945 11.5203 26.4998 11.2659 26.4998 11.0007C26.4998 10.7355 26.3945 10.4812 26.2069 10.2936C26.0194 10.1061 25.765 10.0007 25.4998 10.0007C25.2346 10.0007 24.9802 10.1061 24.7927 10.2936C24.6052 10.4812 24.4998 10.7355 24.4998 11.0007Z" fill="white"/>
<path d="M25.9998 21.0007C25.9998 21.2659 26.1052 21.5203 26.2927 21.7078C26.4802 21.8954 26.7346 22.0007 26.9998 22.0007C27.265 22.0007 27.5194 21.8954 27.7069 21.7078C27.8945 21.5203 27.9998 21.2659 27.9998 21.0007C27.9998 20.7355 27.8945 20.4812 27.7069 20.2936C27.5194 20.1061 27.265 20.0007 26.9998 20.0007C26.7346 20.0007 26.4802 20.1061 26.2927 20.2936C26.1052 20.4812 25.9998 20.7355 25.9998 21.0007Z" fill="white"/>
</svg>
