<svg width="32" height="32" viewBox="0 0 32 32" fill="none" xmlns="http://www.w3.org/2000/svg">
<path fill-rule="evenodd" clip-rule="evenodd" d="M24.0002 28.375C22.9406 28.3741 21.9 28.0932 20.9839 27.5607C20.0678 27.0282 19.3087 26.2631 18.7834 25.3428C18.5023 25.675 18.1523 25.9422 17.7577 26.1257C17.3631 26.3093 16.9333 26.4049 16.4981 26.406C16.0629 26.407 15.6326 26.3134 15.2372 26.1317C14.8417 25.9499 14.4905 25.6844 14.2078 25.3535C14.1389 25.4736 14.0657 25.5928 13.988 25.708C13.4122 26.5698 12.6228 27.2677 11.697 27.7337C10.7712 28.1997 9.74043 28.4179 8.70519 28.367C7.66995 28.3162 6.66555 27.998 5.78986 27.4435C4.91418 26.8889 4.19709 26.117 3.70847 25.2029C3.21986 24.2888 2.9764 23.2637 3.0018 22.2276C3.02721 21.1914 3.32063 20.1795 3.85345 19.2904C4.38628 18.4014 5.14034 17.6655 6.04215 17.1546C6.94396 16.6437 7.96275 16.3751 8.99924 16.375C9.35494 16.3748 9.70997 16.4058 10.0602 16.4678C10.0471 16.4033 10.0363 16.3384 10.0275 16.273C9.97046 15.8494 10.0047 15.4186 10.1279 15.0093C10.2511 14.6001 10.4605 14.222 10.7419 13.9004L14.2414 9.90039C14.5108 9.59146 14.8412 9.34145 15.2116 9.166C15.2492 9.14793 15.2873 9.13084 15.3254 9.11473C15.1916 8.71511 15.1237 8.29641 15.1242 7.875C15.1228 7.36581 15.2224 6.8614 15.4174 6.39101C15.6123 5.92063 15.8987 5.49362 16.26 5.13477C16.9878 4.41021 17.9723 4.00238 18.9992 4C19.7656 3.99999 20.5148 4.22722 21.152 4.65298C21.7892 5.07874 22.2859 5.68389 22.5792 6.39191C22.8725 7.09994 22.9493 7.87904 22.7998 8.6307C22.6504 9.38235 22.2813 10.0728 21.7395 10.6147C21.6477 10.707 21.552 10.7935 21.4533 10.875H21.9992C22.7948 10.8752 23.5578 11.1913 24.1203 11.7539C24.6829 12.3165 24.999 13.0794 24.9992 13.875C24.9998 14.3736 24.8757 14.8645 24.6383 15.3029C24.4009 15.7414 24.0577 16.1136 23.6399 16.3857C23.759 16.3784 23.8791 16.375 23.9992 16.375C25.5905 16.3749 27.1167 17.0069 28.242 18.132C29.3673 19.2571 29.9996 20.7832 29.9997 22.3745C29.9999 23.9658 29.3679 25.492 28.2427 26.6173C27.1176 27.7426 25.5915 28.3749 24.0002 28.375ZM17.8166 16.2319C18.3797 17.017 18.8237 17.881 19.134 18.7959L19.1487 18.8418C19.5647 18.2709 20.0785 17.7781 20.6662 17.3862C20.9619 17.1888 21.2743 17.0178 21.5998 16.875H21.3274C20.1276 16.8772 18.9377 16.6592 17.8166 16.2319Z" fill="white"/>
<path fill-rule="evenodd" clip-rule="evenodd" d="M17.3198 9.5545C16.9313 9.16596 16.6895 8.65472 16.6356 8.10788C16.5817 7.56104 16.7191 7.01245 17.0244 6.55556C17.3297 6.09868 17.7839 5.76178 18.3098 5.60227C18.8356 5.44276 19.4004 5.47051 19.9081 5.68079C20.4158 5.89106 20.8348 6.27086 21.0938 6.75546C21.3529 7.24006 21.4358 7.79948 21.3286 8.33841C21.2214 8.87733 20.9307 9.36242 20.5059 9.71101C20.0812 10.0596 19.5487 10.2501 18.9992 10.2501C18.6873 10.2501 18.3785 10.1887 18.0903 10.0693C17.8022 9.94998 17.5404 9.77504 17.3198 9.5545ZM6.49915 18.6335C7.39635 18.0341 8.47908 17.7769 9.55 17.909C10.6209 18.0411 11.6087 18.5537 12.3333 19.3532C13.058 20.1527 13.4712 21.186 13.4976 22.2647C13.5241 23.3434 13.1621 24.3957 12.4775 25.2298C11.793 26.0639 10.8315 26.6243 9.76836 26.8087C8.70521 26.9932 7.61117 26.7895 6.68566 26.2347C5.76014 25.68 5.06478 24.8112 4.72631 23.7866C4.38785 22.762 4.42882 21.6499 4.84175 20.653C5.18234 19.8308 5.75912 19.128 6.49915 18.6335ZM7.61029 24.4538C8.10874 24.7869 8.71027 24.9297 9.30524 24.8564C9.90021 24.783 10.449 24.4982 10.8516 24.0541C11.2542 23.6099 11.4838 23.0358 11.4985 22.4365C11.5132 21.8372 11.3121 21.2526 10.9318 20.7892C10.5515 20.3258 10.0173 20.0145 9.42667 19.912C8.83601 19.8095 8.2282 19.9226 7.714 20.2308C7.19981 20.539 6.81348 21.0217 6.62542 21.5909C6.43737 22.1601 6.46011 22.778 6.68951 23.3318C6.87873 23.7886 7.19916 24.1791 7.61029 24.4538ZM23.9992 17.8751C22.9581 17.8751 21.9493 18.2361 21.1445 18.8966C20.3398 19.5571 19.7889 20.4761 19.5858 21.4972C19.3827 22.5183 19.5399 23.5782 20.0307 24.4963C20.5215 25.4145 21.3154 26.1341 22.2773 26.5325C23.2391 26.9309 24.3093 26.9834 25.3056 26.6812C26.3018 26.379 27.1625 25.7407 27.7408 24.8751C28.3192 24.0094 28.5796 22.97 28.4775 21.934C28.3755 20.8979 27.9174 19.9293 27.1812 19.1931C26.3373 18.3492 25.1927 17.8751 23.9992 17.8751ZM23.9992 24.8751C23.4209 24.8751 22.8604 24.6745 22.4133 24.3076C21.9663 23.9407 21.6603 23.4301 21.5475 22.8629C21.4346 22.2956 21.522 21.7068 21.7947 21.1967C22.0673 20.6867 22.5084 20.2869 23.0427 20.0656C23.577 19.8443 24.1716 19.8151 24.725 19.983C25.2785 20.1509 25.7566 20.5055 26.0779 20.9864C26.3992 21.4673 26.5439 22.0447 26.4872 22.6203C26.4305 23.1959 26.176 23.734 25.767 24.1429C25.5349 24.3751 25.2593 24.5592 24.9559 24.6849C24.6526 24.8105 24.3275 24.8751 23.9992 24.8751ZM16.6722 13.9552L15.2212 15.6142C16.3688 16.5864 17.2302 17.8526 17.7131 19.2771C18.196 20.7015 18.2821 22.2306 17.9622 23.7002C17.9232 23.8961 17.8455 24.0823 17.7335 24.2477C17.6216 24.4132 17.4778 24.5546 17.3105 24.6637C17.1432 24.7728 16.9558 24.8474 16.7592 24.8831C16.5627 24.9188 16.361 24.9149 16.166 24.8716C15.971 24.8284 15.7866 24.7465 15.6237 24.631C15.4607 24.5155 15.3225 24.3686 15.217 24.199C15.1116 24.0293 15.0411 23.8403 15.0097 23.643C14.9783 23.4458 14.9867 23.2442 15.0342 23.0502C15.2587 22.0208 15.169 20.9477 14.7768 19.9698C14.3846 18.9919 13.7078 18.1542 12.8342 17.5652L12.1702 17.1232C11.9925 17.005 11.842 16.8502 11.7289 16.6693C11.6157 16.4883 11.5425 16.2852 11.5141 16.0737C11.4857 15.8621 11.5028 15.6469 11.5642 15.4425C11.6256 15.2381 11.7299 15.0491 11.8702 14.8882L15.3702 10.8882C15.5054 10.7335 15.671 10.6083 15.8566 10.5202C16.0422 10.4321 16.2439 10.3831 16.4492 10.3762C16.6551 10.3637 16.8613 10.3964 17.0533 10.4721C17.2452 10.5477 17.4182 10.6645 17.5602 10.8142C18.5612 11.8105 19.9149 12.3715 21.3272 12.3752H21.9992C22.1962 12.3752 22.3913 12.414 22.5732 12.4894C22.7552 12.5648 22.9206 12.6753 23.0599 12.8146C23.1992 12.9538 23.3096 13.1192 23.385 13.3012C23.4604 13.4832 23.4992 13.6782 23.4992 13.8752C23.4992 14.0722 23.4604 14.2673 23.385 14.4492C23.3096 14.6312 23.1992 14.7966 23.0599 14.9359C22.9206 15.0752 22.7552 15.1857 22.5732 15.261C22.3913 15.3364 22.1962 15.3752 21.9992 15.3752H21.3272C19.6682 15.3798 18.0462 14.885 16.6722 13.9552Z" fill="#4085C6"/>
</svg>
