<svg width="32" height="32" viewBox="0 0 32 32" fill="none" xmlns="http://www.w3.org/2000/svg">
<path fill-rule="evenodd" clip-rule="evenodd" d="M8.65849 29.001C8.26975 29.0012 7.88633 28.9107 7.53877 28.7365C7.19121 28.5624 6.88911 28.3096 6.65654 27.9981L3.80154 24.1485C3.26216 23.9899 2.79191 23.6544 2.46662 23.1958C2.14134 22.7373 1.97998 22.1826 2.00859 21.6211C2.03719 21.0597 2.25408 20.5242 2.62428 20.1011C2.99448 19.678 3.49641 19.392 4.0491 19.2891L4.12527 19.2481L4.63503 19.2412L4.68191 19.2471C5.35476 19.2383 6.0268 19.2132 6.69802 19.1719C6.65934 19.0851 6.62591 18.9961 6.59792 18.9053C6.24308 18.7981 5.92042 18.6045 5.65892 18.3418C5.23799 17.9192 5.00108 17.3475 4.9998 16.751C5.00038 16.3316 5.11777 15.9206 5.33881 15.5642C5.55985 15.2077 5.87581 14.9199 6.25126 14.7329C5.87195 14.5143 5.55671 14.1998 5.33709 13.8211C5.11747 13.4423 5.00116 13.0125 4.9998 12.5747V8.03076C3.71171 7.11035 2.96269 6.4751 2.87773 6.40283C2.50183 6.08219 2.22935 5.65739 2.09468 5.18203C1.96001 4.70667 1.96918 4.20207 2.12104 3.73192C2.2729 3.26177 2.56064 2.84714 2.94793 2.54038C3.33523 2.23362 3.80472 2.04847 4.29716 2.0083L4.50029 2C5.0935 2.00015 5.66736 2.21111 6.11943 2.59521C10.0937 5.71731 14.532 8.19848 19.2732 9.94873C19.2342 9.91455 19.1961 9.87891 19.159 9.8418C18.7937 9.47878 18.5653 9.00055 18.5125 8.48828C17.9599 8.42959 17.4486 8.16852 17.077 7.75537C16.7054 7.34221 16.4998 6.80618 16.4998 6.25049C16.5015 5.65411 16.7384 5.08248 17.159 4.65967C17.522 4.29433 18.0002 4.06575 18.5125 4.01267C18.5683 3.50141 18.7963 3.02431 19.159 2.65967C19.3673 2.45002 19.6153 2.28381 19.8883 2.17065C20.1614 2.0575 20.4542 1.99966 20.7498 2.00049C21.3054 2.00061 21.8413 2.20626 22.2544 2.57785C22.6674 2.94944 22.9284 3.46069 22.9871 4.01318C23.5396 4.07187 24.0508 4.33286 24.4224 4.74592C24.794 5.15897 24.9997 5.69489 24.9998 6.25049C25.0006 6.54614 24.9427 6.83901 24.8295 7.11215C24.7164 7.38529 24.5502 7.63329 24.3406 7.8418C23.9757 8.20427 23.4984 8.43205 22.9871 8.4878C22.9346 9.0003 22.7062 9.47879 22.3406 9.8418C21.9474 10.2327 21.4245 10.4659 20.8709 10.4971C21.4207 10.6733 21.9799 10.8393 22.5486 10.9951C22.5161 10.8322 22.4997 10.6666 22.4998 10.5005C22.5 9.8375 22.7634 9.20171 23.2322 8.73291C23.701 8.26411 24.3368 8.00066 24.9998 8.00049C25.6624 8.00235 26.2976 8.26554 26.7674 8.73291C27.1823 9.14806 27.438 9.69583 27.49 10.2804C27.5419 10.8651 27.3867 11.4494 27.0516 11.9312C27.6217 12.0601 28.1286 12.3847 28.4843 12.8486C28.8399 13.3126 29.0217 13.8864 28.9982 14.4705C28.9746 15.0545 28.7471 15.6119 28.3553 16.0456C27.9634 16.4794 27.432 16.7621 26.8533 16.8447L25.4832 18.2158C26.0168 17.9785 26.6167 17.9354 27.1788 18.0941C27.7408 18.2528 28.2296 18.6032 28.5603 19.0846C28.891 19.566 29.0428 20.1479 28.9893 20.7295C28.9358 21.3111 28.6804 21.8556 28.2674 22.2686C27.9383 22.5957 27.5254 22.8258 27.074 22.9335C27.3519 23.3165 27.501 23.7778 27.4998 24.251C27.4999 24.7338 27.3446 25.2037 27.0569 25.5914C26.7691 25.979 26.3643 26.2637 25.9021 26.4033C25.7625 26.8655 25.4778 27.2703 25.0901 27.5581C24.7025 27.8458 24.2325 28.0011 23.7498 28.001C23.2674 28.0012 22.7978 27.8462 22.4103 27.5588C22.0229 27.2714 21.7382 26.867 21.5984 26.4053C21.2434 26.2984 20.9205 26.1047 20.659 25.8418C20.2385 25.419 20.0016 24.8474 19.9998 24.251C20.0004 23.7685 20.1557 23.2988 20.4429 22.9111C20.7301 22.5233 21.1341 22.2379 21.5955 22.0967C21.7724 21.5217 22.1704 21.0405 22.7019 20.7588C22.5728 20.8156 22.4392 20.8616 22.3025 20.8965C22.1035 20.9459 21.8992 20.9708 21.6941 20.9707C21.4473 20.9709 21.2017 20.9344 20.9656 20.8623C20.8363 20.8239 20.7106 20.7746 20.5896 20.7149C20.4079 20.9883 20.1731 21.2224 19.8992 21.4033L18.1052 26.4258C17.9566 26.8425 17.7 27.2122 17.3616 27.4972C17.0233 27.7822 16.6153 27.9722 16.1795 28.0479C16.0369 28.0736 15.8922 28.0864 15.7473 28.086C15.3768 28.0865 15.0109 28.004 14.6764 27.8446C14.3419 27.6853 14.0473 27.4531 13.8142 27.1651L11.9065 24.8418L11.014 27.3418C10.8624 27.7673 10.5982 28.1436 10.2496 28.4308C9.90102 28.718 9.48107 28.9053 9.03447 28.9727C8.90999 28.9912 8.78433 29.0006 8.65849 29.001ZM23.4598 20.2383C23.281 20.4189 23.075 20.5705 22.8494 20.6875C23.1335 20.5641 23.44 20.5006 23.7498 20.501C23.8333 20.501 23.9168 20.5059 23.9998 20.5156V20.501C23.9993 20.1505 24.0725 19.8038 24.2146 19.4834L23.4598 20.2383ZM12.432 17.2969C12.3031 17.8135 11.9949 18.2676 11.5623 18.5781C12.0501 18.4883 12.5366 18.39 13.0218 18.2832C12.9935 18.2539 12.9661 18.2236 12.9393 18.1934C12.7091 17.9335 12.5362 17.628 12.4319 17.2969H12.432ZM18.1951 16.8418C18.3007 16.8281 18.4071 16.8213 18.5135 16.8213C18.6151 16.8214 18.7165 16.828 18.8172 16.8408L18.7225 16.3633L18.1951 16.8418ZM10.9041 14.5991C11.3529 14.7348 11.7479 15.0076 12.0335 15.3794L11.534 12.8799L10.3509 13.6694C10.6083 13.9296 10.7982 14.2488 10.9041 14.5991H10.9041Z" fill="white"/>
<path fill-rule="evenodd" clip-rule="evenodd" d="M22.3996 19.1778L25.9996 15.5778C26.1323 15.4453 26.312 15.3706 26.4996 15.3698C26.7526 15.3701 26.9964 15.2744 27.1817 15.102C27.3669 14.9296 27.48 14.6934 27.498 14.441C27.516 14.1886 27.4376 13.9387 27.2787 13.7418C27.1198 13.5449 26.8921 13.4155 26.6416 13.3798C14.5786 11.6438 5.23959 3.81683 5.14759 3.73783C4.94536 3.56611 4.6832 3.48175 4.41877 3.50331C4.15435 3.52488 3.90932 3.65061 3.73759 3.85283C3.56586 4.05506 3.4815 4.31722 3.50307 4.58165C3.52464 4.84608 3.65036 5.09111 3.85259 5.26283C3.96059 5.35483 4.73859 6.01083 6.07359 6.95383C6.2049 7.04588 6.31215 7.16816 6.38629 7.31035C6.46043 7.45254 6.49929 7.61047 6.49959 7.77083V12.5708C6.50028 12.7512 6.54976 12.9281 6.64279 13.0826C6.73581 13.2372 6.86891 13.3637 7.02799 13.4488C7.18707 13.5339 7.3662 13.5743 7.5464 13.5659C7.7266 13.5575 7.90117 13.5004 8.05159 13.4008L11.8996 10.8318C11.9806 10.7777 12.0746 10.7463 12.1719 10.7408C12.2691 10.7354 12.3661 10.7561 12.4526 10.8008C12.5204 10.8351 12.5794 10.8843 12.6253 10.9448C12.6713 11.0052 12.7028 11.0754 12.7176 11.1498L13.8336 16.7328C13.8668 16.9068 13.9463 17.0687 14.0636 17.2014C14.181 17.334 14.3319 17.4327 14.5006 17.4868C14.6011 17.521 14.7065 17.5382 14.8126 17.5378C15.0617 17.5377 15.3019 17.445 15.4866 17.2778L19.2676 13.8408C19.3099 13.8025 19.3616 13.776 19.4174 13.764C19.4733 13.7521 19.5313 13.7551 19.5856 13.7728C19.6335 13.788 19.6766 13.8158 19.7101 13.8533C19.7437 13.8907 19.7667 13.9365 19.7766 13.9858L20.7126 18.6678C20.7482 18.8452 20.8312 19.0096 20.9528 19.1435C21.0744 19.2774 21.23 19.3758 21.4032 19.4282C21.5763 19.4806 21.7604 19.4851 21.9358 19.4412C22.1113 19.3973 22.2716 19.3066 22.3996 19.1788V19.1778ZM19.4996 7.00076H18.7496C18.5507 7.00076 18.3599 6.92175 18.2193 6.78109C18.0786 6.64044 17.9996 6.44968 17.9996 6.25076C17.9996 6.05185 18.0786 5.86109 18.2193 5.72043C18.3599 5.57978 18.5507 5.50076 18.7496 5.50076H19.4996C19.5653 5.50078 19.6303 5.48785 19.6909 5.46273C19.7516 5.4376 19.8067 5.40077 19.8532 5.35434C19.8996 5.30791 19.9364 5.25279 19.9616 5.19212C19.9867 5.13145 19.9996 5.06643 19.9996 5.00076V4.25076C19.9996 4.05185 20.0786 3.86109 20.2193 3.72043C20.3599 3.57978 20.5507 3.50076 20.7496 3.50076C20.9485 3.50076 21.1393 3.57978 21.2799 3.72043C21.4206 3.86109 21.4996 4.05185 21.4996 4.25076V5.00076C21.4996 5.13337 21.5523 5.26053 21.6461 5.35429C21.7398 5.44806 21.867 5.50074 21.9996 5.50076H22.7496C22.9485 5.50076 23.1393 5.57978 23.2799 5.72043C23.4206 5.86109 23.4996 6.05185 23.4996 6.25076C23.4996 6.44968 23.4206 6.64044 23.2799 6.78109C23.1393 6.92175 22.9485 7.00076 22.7496 7.00076H21.9996C21.867 7.00079 21.7398 7.05348 21.6461 7.14724C21.5523 7.241 21.4996 7.36816 21.4996 7.50076V8.25076C21.4996 8.44968 21.4206 8.64044 21.2799 8.78109C21.1393 8.92175 20.9485 9.00076 20.7496 9.00076C20.5507 9.00076 20.3599 8.92175 20.2193 8.78109C20.0786 8.64044 19.9996 8.44968 19.9996 8.25076V7.50076C19.9996 7.4351 19.9867 7.37008 19.9615 7.30941C19.9364 7.24874 19.8996 7.19362 19.8532 7.14719C19.8067 7.10076 19.7516 7.06393 19.6909 7.03881C19.6303 7.01368 19.5653 7.00075 19.4996 7.00076ZM8.74959 14.5008C8.55068 14.5008 8.35992 14.5798 8.21927 14.7204C8.07862 14.8611 7.9996 15.0519 7.99959 15.2508V15.5008C7.9996 15.5664 7.98667 15.6314 7.96155 15.6921C7.93642 15.7528 7.89959 15.8079 7.85316 15.8543C7.80673 15.9008 7.75161 15.9376 7.69094 15.9627C7.63027 15.9878 7.56525 16.0008 7.49959 16.0008H7.24959C7.05068 16.0008 6.85991 16.0798 6.71926 16.2204C6.57861 16.3611 6.49959 16.5519 6.49959 16.7508C6.49959 16.9497 6.57861 17.1404 6.71926 17.2811C6.85991 17.4217 7.05068 17.5008 7.24959 17.5008H7.49959C7.63219 17.5008 7.75935 17.5535 7.85311 17.6472C7.94688 17.741 7.99956 17.8682 7.99959 18.0008V18.2508C7.99959 18.4497 8.07861 18.6404 8.21926 18.7811C8.35991 18.9217 8.55068 19.0008 8.74959 19.0008C8.9485 19.0008 9.13927 18.9217 9.27992 18.7811C9.42057 18.6404 9.49959 18.4497 9.49959 18.2508V18.0008C9.49963 17.8682 9.55232 17.741 9.64608 17.6473C9.73984 17.5535 9.86699 17.5008 9.99959 17.5008H10.2496C10.4485 17.5008 10.6393 17.4217 10.7799 17.2811C10.9206 17.1404 10.9996 16.9497 10.9996 16.7508C10.9996 16.5519 10.9206 16.3611 10.7799 16.2204C10.6393 16.0798 10.4485 16.0008 10.2496 16.0008H9.99959C9.86698 16.0008 9.7398 15.9481 9.64604 15.8543C9.55227 15.7605 9.49959 15.6334 9.49959 15.5008V15.2508C9.49958 15.0519 9.42055 14.8611 9.2799 14.7204C9.13926 14.5798 8.9485 14.5008 8.74959 14.5008ZM25.2496 23.5008H24.9996C24.867 23.5008 24.7398 23.4481 24.646 23.3543C24.5523 23.2605 24.4996 23.1334 24.4996 23.0008V22.7508C24.4996 22.5519 24.4206 22.3611 24.2799 22.2204C24.1393 22.0798 23.9485 22.0008 23.7496 22.0008C23.5507 22.0008 23.3599 22.0798 23.2193 22.2204C23.0786 22.3611 22.9996 22.5519 22.9996 22.7508V23.0008C22.9996 23.0664 22.9867 23.1315 22.9616 23.1921C22.9365 23.2528 22.8996 23.3079 22.8532 23.3544C22.8068 23.4008 22.7516 23.4376 22.691 23.4627C22.6303 23.4879 22.5653 23.5008 22.4996 23.5008H22.2496C22.0507 23.5008 21.8599 23.5798 21.7193 23.7204C21.5786 23.8611 21.4996 24.0519 21.4996 24.2508C21.4996 24.4497 21.5786 24.6404 21.7193 24.7811C21.8599 24.9217 22.0507 25.0008 22.2496 25.0008H22.4996C22.6322 25.0008 22.7594 25.0534 22.8531 25.1472C22.9469 25.241 22.9996 25.3682 22.9996 25.5008V25.7508C22.9996 25.9497 23.0786 26.1404 23.2193 26.2811C23.3599 26.4217 23.5507 26.5008 23.7496 26.5008C23.9485 26.5008 24.1393 26.4217 24.2799 26.2811C24.4206 26.1404 24.4996 25.9497 24.4996 25.7508V25.5008C24.4996 25.3682 24.5523 25.241 24.6461 25.1473C24.7398 25.0535 24.867 25.0008 24.9996 25.0008H25.2496C25.4485 25.0008 25.6393 24.9217 25.7799 24.7811C25.9206 24.6404 25.9996 24.4497 25.9996 24.2508C25.9996 24.0519 25.9206 23.8611 25.7799 23.7204C25.6393 23.5798 25.4485 23.5008 25.2496 23.5008ZM4.59959 20.748C9.23188 20.698 13.8252 19.8949 18.1996 18.37H18.2066C18.4569 18.2891 18.7289 18.3101 18.9638 18.4284C19.1987 18.5467 19.3775 18.7528 19.4616 19.002C19.5456 19.2512 19.5281 19.5235 19.4128 19.7599C19.2975 19.9963 19.0937 20.1777 18.8456 20.265C18.7998 20.2792 18.7579 20.3039 18.7232 20.337C18.6885 20.3702 18.662 20.4109 18.6456 20.456L16.6936 25.921C16.6341 26.0877 16.5314 26.2357 16.3959 26.3498C16.2604 26.4638 16.0971 26.5398 15.9226 26.57C15.8649 26.5807 15.8063 26.5861 15.7476 26.586C15.6003 26.586 15.4548 26.5532 15.3217 26.4898C15.1887 26.4265 15.0715 26.3343 14.9786 26.22L11.7186 22.249C11.687 22.2103 11.6458 22.1806 11.5991 22.1631C11.5524 22.1455 11.5018 22.1406 11.4526 22.149C11.3955 22.1589 11.342 22.1837 11.2976 22.221C11.2532 22.2582 11.2194 22.3065 11.1996 22.361L9.60159 26.837C9.54088 27.0074 9.43506 27.1581 9.2954 27.2731C9.15574 27.3881 8.98749 27.4631 8.80859 27.49C8.75891 27.4972 8.70879 27.5009 8.65859 27.501C8.50334 27.501 8.35021 27.4649 8.21135 27.3954C8.07249 27.326 7.95171 27.2252 7.85859 27.101L4.70459 22.848C4.6814 22.8168 4.65123 22.7915 4.61649 22.7742C4.58175 22.7568 4.54343 22.7478 4.50459 22.748C4.23937 22.748 3.98502 22.6426 3.79748 22.4551C3.60995 22.2675 3.50459 22.0132 3.50459 21.748C3.50459 21.4827 3.60995 21.2284 3.79748 21.0409C3.98502 20.8533 4.23937 20.748 4.50459 20.748C4.52436 20.7402 4.54611 20.739 4.56659 20.7447C4.5775 20.7466 4.58854 20.7477 4.59961 20.7479L4.59959 20.748ZM23.9996 10.5008C23.9996 10.7321 24.0798 10.9563 24.2266 11.1352C24.3733 11.314 24.5776 11.4364 24.8045 11.4816C25.0314 11.5267 25.2669 11.4918 25.471 11.3827C25.675 11.2736 25.8349 11.0972 25.9235 10.8835C26.012 10.6697 26.0237 10.4319 25.9565 10.2105C25.8894 9.98911 25.7475 9.79785 25.5552 9.66931C25.3628 9.54078 25.1318 9.48292 24.9016 9.50559C24.6713 9.52827 24.4561 9.63007 24.2925 9.79366C24.105 9.9812 23.9996 10.2355 23.9996 10.5007V10.5008ZM25.7925 21.2079C25.6289 21.0443 25.5271 20.829 25.5044 20.5988C25.4817 20.3685 25.5396 20.1375 25.6681 19.9452C25.7967 19.7528 25.9879 19.611 26.2093 19.5438C26.4307 19.4767 26.6686 19.4884 26.8823 19.5769C27.096 19.6654 27.2725 19.8253 27.3815 20.0294C27.4906 20.2334 27.5255 20.469 27.4804 20.6959C27.4352 20.9228 27.3128 21.127 27.134 21.2738C26.9551 21.4206 26.7309 21.5008 26.4996 21.5008C26.2344 21.5007 25.98 21.3954 25.7925 21.2078V21.2079Z" fill="black"/>
</svg>
