<svg width="32" height="32" viewBox="0 0 32 32" fill="none" xmlns="http://www.w3.org/2000/svg">
<path d="M16 29.5C15.8585 29.4997 15.7175 29.4847 15.5791 29.4551L6.56689 27.4522C6.12271 27.3533 5.72547 27.1061 5.44063 26.7512C5.1558 26.3964 5.00038 25.955 5 25.5V6.5C5.00013 6.04526 5.15515 5.60413 5.43952 5.24928C5.7239 4.89444 6.12066 4.64704 6.56445 4.54785L15.5669 2.54736C15.8603 2.48245 16.1645 2.48428 16.457 2.55273C16.7484 2.62089 17.0207 2.75371 17.2538 2.94135C17.4869 3.12899 17.6749 3.36664 17.8037 3.63673C17.8602 3.75301 17.9047 3.87472 17.9365 4H24C24.3283 3.99997 24.6534 4.06462 24.9567 4.19025C25.2601 4.31587 25.5357 4.50002 25.7678 4.73217C26 4.96433 26.1841 5.23993 26.3098 5.54326C26.4354 5.84659 26.5 6.17169 26.5 6.5V25.5C26.4984 26.1627 26.2351 26.798 25.7676 27.2676C25.5361 27.5006 25.2607 27.6854 24.9573 27.8111C24.6538 27.9368 24.3284 28.001 24 28H17.9365C17.8283 28.4161 17.5894 28.7865 17.2549 29.0566C17.0186 29.2466 16.7426 29.3808 16.4473 29.4492C16.3006 29.4834 16.1506 29.5004 16 29.5V29.5Z" fill="white"/>
<path d="M24 5.4998H16.5V4.4998C16.5 4.42499 16.4832 4.35113 16.4508 4.28368C16.4184 4.21623 16.3713 4.1569 16.313 4.11007C16.2546 4.06324 16.1865 4.0301 16.1137 4.01309C16.0408 3.99608 15.9651 3.99564 15.892 4.0118L6.892 6.0118C6.78088 6.03639 6.68146 6.09814 6.61019 6.18687C6.53892 6.2756 6.50004 6.38599 6.5 6.4998V25.4998C6.50006 25.6136 6.53893 25.724 6.61021 25.8127C6.68148 25.9014 6.78088 25.9632 6.892 25.9878L15.892 27.9878C15.9651 28.004 16.0408 28.0035 16.1137 27.9865C16.1865 27.9695 16.2546 27.9364 16.313 27.8895C16.3713 27.8427 16.4184 27.7834 16.4508 27.7159C16.4832 27.6485 16.5 27.5746 16.5 27.4998V26.4998H24C24.2652 26.4998 24.5196 26.3944 24.7071 26.2069C24.8946 26.0194 25 25.765 25 25.4998V6.4998C25 6.23459 24.8946 5.98023 24.7071 5.7927C24.5196 5.60516 24.2652 5.4998 24 5.4998V5.4998ZM14 16.4998C14 16.8468 13.8796 17.183 13.6595 17.4513C13.4393 17.7195 13.133 17.9031 12.7926 17.9707C12.4523 18.0384 12.099 17.986 11.793 17.8224C11.487 17.6588 11.2472 17.3942 11.1144 17.0736C10.9816 16.753 10.9641 16.3963 11.0649 16.0642C11.1656 15.7322 11.3784 15.4453 11.6669 15.2526C11.9554 15.0598 12.3018 14.973 12.6472 15.007C12.9925 15.041 13.3153 15.1937 13.5607 15.4391C13.842 15.7204 14 16.102 14 16.4998ZM22.5 24.4998H17C16.9343 24.4998 16.8693 24.4869 16.8086 24.4618C16.748 24.4367 16.6928 24.3998 16.6464 24.3534C16.6 24.307 16.5631 24.2518 16.538 24.1912C16.5129 24.1305 16.5 24.0655 16.5 23.9998V7.9998C16.5 7.93414 16.5129 7.86912 16.538 7.80845C16.5632 7.74778 16.6 7.69266 16.6464 7.64623C16.6929 7.5998 16.748 7.56297 16.8086 7.53784C16.8693 7.51272 16.9343 7.49979 17 7.4998H22.5C22.5657 7.49979 22.6307 7.51272 22.6914 7.53784C22.752 7.56297 22.8071 7.5998 22.8536 7.64623C22.9 7.69266 22.9368 7.74778 22.962 7.80845C22.9871 7.86912 23 7.93414 23 7.9998V23.9998C23 24.0655 22.9871 24.1305 22.962 24.1912C22.9369 24.2518 22.9 24.307 22.8536 24.3534C22.8072 24.3998 22.752 24.4367 22.6914 24.4618C22.6307 24.4869 22.5657 24.4998 22.5 24.4998V24.4998Z" fill="#2EA836"/>
</svg>
