<svg width="32" height="32" viewBox="0 0 32 32" fill="none" xmlns="http://www.w3.org/2000/svg">
<path fill-rule="evenodd" clip-rule="evenodd" d="M24.75 27C24.3889 27 24.0313 26.9289 23.6976 26.7907C23.3639 26.6525 23.0608 26.4499 22.8054 26.1946C22.5501 25.9392 22.3475 25.6361 22.2093 25.3024C22.0711 24.9687 22 24.6111 22 24.25V24H9V24.25C8.99797 24.9789 8.70846 25.6776 8.19434 26.1943C7.67884 26.71 6.97961 26.9998 6.25045 27C5.52129 27.0002 4.82192 26.7108 4.30615 26.1953C3.79183 25.6783 3.50215 24.9793 3.5 24.25V23.1211C3.03188 22.7467 2.654 22.2717 2.39435 21.7315C2.13469 21.1912 1.99991 20.5994 2 20V8C2.00006 6.93915 2.4215 5.92177 3.17163 5.17163C3.92177 4.4215 4.93915 4.00006 6 4H25C26.0608 4.00025 27.0781 4.42176 27.8282 5.17185C28.5782 5.92194 28.9998 6.93921 29 8V20C29.0005 20.5999 28.8659 21.1922 28.6062 21.733C28.3465 22.2738 27.9685 22.7493 27.5 23.124V24.25C27.498 24.9789 27.2085 25.6776 26.6943 26.1943C26.4396 26.4505 26.1366 26.6536 25.8029 26.7919C25.4691 26.9302 25.1113 27.0009 24.75 27Z" fill="white"/>
<path fill-rule="evenodd" clip-rule="evenodd" d="M27.3095 7.04329C27.4351 7.34661 27.4998 7.6717 27.4998 8V20C27.5001 20.4392 27.3848 20.8707 27.1653 21.2511C26.9459 21.6315 26.6301 21.9474 26.2498 22.167C26.1738 22.2109 26.1107 22.274 26.0668 22.35C26.0229 22.426 25.9998 22.5122 25.9998 22.6V24.25C25.9998 24.5815 25.8681 24.8995 25.6337 25.1339C25.3993 25.3683 25.0813 25.5 24.7498 25.5C24.4183 25.5 24.1004 25.3683 23.8659 25.1339C23.6315 24.8995 23.4998 24.5815 23.4998 24.25V23C23.4998 22.9343 23.4869 22.8693 23.4618 22.8086C23.4367 22.748 23.3999 22.6928 23.3534 22.6464C23.307 22.6 23.2519 22.5631 23.1912 22.538C23.1305 22.5129 23.0655 22.5 22.9998 22.5H7.99982C7.93415 22.5 7.86913 22.5129 7.80847 22.538C7.7478 22.5632 7.69267 22.6 7.64624 22.6464C7.59981 22.6929 7.56298 22.748 7.53786 22.8086C7.51273 22.8693 7.49981 22.9343 7.49982 23V24.25C7.49982 24.5815 7.36812 24.8995 7.1337 25.1339C6.89928 25.3683 6.58134 25.5 6.24982 25.5C5.9183 25.5 5.60035 25.3683 5.36593 25.1339C5.13151 24.8995 4.99982 24.5815 4.99982 24.25V22.597C4.99981 22.5092 4.97671 22.423 4.93283 22.347C4.88894 22.271 4.82582 22.2079 4.74982 22.164C4.36993 21.9447 4.05443 21.6292 3.83502 21.2494C3.61561 20.8696 3.5 20.4387 3.49982 20V8C3.49982 7.33696 3.76321 6.70107 4.23205 6.23223C4.70089 5.76339 5.33678 5.5 5.99982 5.5H24.9998C25.4943 5.49998 25.9776 5.6466 26.3888 5.9213C26.7999 6.19601 27.1203 6.58646 27.3095 7.04329ZM17.414 19.4142C17.7891 19.0391 17.9998 18.5304 17.9998 18V10C17.9998 9.46957 17.7891 8.96086 17.414 8.58579C17.0389 8.21071 16.5302 8 15.9998 8H7.9998C7.46936 8 6.96066 8.21071 6.58558 8.58579C6.21051 8.96086 5.9998 9.46957 5.9998 10V18C5.9998 18.5304 6.21051 19.0391 6.58558 19.4142C6.96066 19.7893 7.46936 20 7.9998 20H15.9998C16.5302 20 17.0389 19.7893 17.414 19.4142ZM24.3534 19.8536C24.4471 19.7598 24.4998 19.6326 24.4998 19.5V18.5C24.4998 18.4343 24.4869 18.3693 24.4618 18.3086C24.4367 18.248 24.3999 18.1928 24.3534 18.1464C24.307 18.1 24.2519 18.0631 24.1912 18.038C24.1305 18.0129 24.0655 18 23.9998 18H21.9998C21.9342 18 21.8691 18.0129 21.8084 18.038C21.7478 18.0631 21.6926 18.1 21.6462 18.1464C21.5998 18.1928 21.563 18.248 21.5378 18.3086C21.5127 18.3693 21.4998 18.4343 21.4998 18.5V19.5C21.4998 19.5657 21.5127 19.6307 21.5378 19.6914C21.563 19.752 21.5998 19.8072 21.6462 19.8536C21.6926 19.9 21.7478 19.9369 21.8084 19.962C21.8691 19.9871 21.9342 20 21.9998 20H23.9998C24.1324 20 24.2596 19.9473 24.3534 19.8536H24.3534ZM24.3534 15.8536C24.4471 15.7598 24.4998 15.6326 24.4998 15.5V8.5C24.4998 8.43434 24.4869 8.36931 24.4618 8.30865C24.4367 8.24798 24.3998 8.19286 24.3534 8.14643C24.307 8.1 24.2518 8.06317 24.1912 8.03804C24.1305 8.01292 24.0655 7.99999 23.9998 8H21.9998C21.9342 7.99999 21.8691 8.01292 21.8085 8.03804C21.7478 8.06317 21.6927 8.1 21.6462 8.14643C21.5998 8.19286 21.563 8.24798 21.5379 8.30865C21.5127 8.36931 21.4998 8.43434 21.4998 8.5V15.5C21.4998 15.5657 21.5127 15.6307 21.5378 15.6914C21.563 15.752 21.5998 15.8072 21.6462 15.8536C21.6926 15.9 21.7478 15.9369 21.8084 15.962C21.8691 15.9871 21.9342 16 21.9998 16H23.9998C24.1324 16 24.2596 15.9473 24.3534 15.8536H24.3534ZM15.8534 16.6465C15.9233 16.7164 15.9709 16.8055 15.9902 16.9025C16.0095 16.9995 15.9996 17.1 15.9617 17.1914C15.9239 17.2827 15.8598 17.3608 15.7776 17.4157C15.6953 17.4707 15.5987 17.5 15.4998 17.5H8.4998C8.36719 17.5 8.24001 17.4473 8.14624 17.3536C8.05248 17.2598 7.9998 17.1326 7.9998 17C7.9998 16.8674 8.05248 16.7402 8.14624 16.6464C8.24001 16.5527 8.36719 16.5 8.4998 16.5H9.8998C9.94845 16.5006 9.99622 16.4869 10.0372 16.4607C10.0782 16.4345 10.1107 16.3969 10.1307 16.3526C10.1506 16.3082 10.1572 16.2589 10.1496 16.2109C10.142 16.1628 10.1205 16.118 10.0878 16.082C9.62641 15.5545 9.30279 14.921 9.1458 14.238C9.10971 14.0907 9.10758 13.9372 9.13959 13.7889C9.17159 13.6407 9.23688 13.5017 9.33052 13.3825C9.42416 13.2632 9.5437 13.1668 9.68009 13.1005C9.81649 13.0343 9.96616 12.9999 10.1178 13H13.8818C14.0337 12.9994 14.1837 13.0334 14.3205 13.0995C14.4573 13.1656 14.5772 13.2619 14.6712 13.3812C14.7652 13.5006 14.8307 13.6397 14.8629 13.7882C14.8951 13.9366 14.893 14.0905 14.8568 14.238C14.6998 14.921 14.3762 15.5545 13.9148 16.082C13.8823 16.1178 13.8609 16.1624 13.8531 16.2101C13.8454 16.2579 13.8517 16.3069 13.8713 16.3512C13.8909 16.3954 13.9229 16.4331 13.9635 16.4595C14.004 16.4859 14.0514 16.5 14.0998 16.5H15.4998C15.5655 16.5 15.6305 16.5129 15.6912 16.5381C15.7519 16.5632 15.807 16.6001 15.8534 16.6465H15.8534Z" fill="#EB602B"/>
</svg>
