<svg width="32" height="32" viewBox="0 0 32 32" fill="none" xmlns="http://www.w3.org/2000/svg">
<path fill-rule="evenodd" clip-rule="evenodd" d="M10.7134 29.5C10.3056 29.5001 9.89885 29.4599 9.499 29.3799C8.16665 29.1146 6.95797 28.4199 6.05807 27.4022C5.15817 26.3845 4.61664 25.0999 4.51643 23.7451C4.41621 22.3903 4.76283 21.0399 5.5032 19.9009C6.24357 18.7619 7.33688 17.8969 8.6157 17.4385C9.08492 17.2666 9.5968 17.2491 10.0766 17.3887V15.1406C10.0748 14.4938 10.2997 13.8667 10.7124 13.3686C10.5615 13.2573 10.4192 13.1349 10.2866 13.0024C9.88138 12.5968 9.57764 12.1012 9.40011 11.556C9.22258 11.0108 9.17626 10.4315 9.26493 9.86499C9.3536 9.29853 9.57476 8.761 9.91039 8.29615C10.246 7.8313 10.6867 7.45225 11.1965 7.18985C11.7063 6.92745 12.2708 6.78912 12.8442 6.7861C13.4175 6.78308 13.9835 6.91546 14.496 7.17247C15.0085 7.42949 15.4531 7.80387 15.7937 8.26517C16.1342 8.72646 16.361 9.26162 16.4556 9.82712C16.7618 9.58514 17.1211 9.4193 17.5039 9.34323L17.5254 9.33933C17.0382 9.2456 16.5902 9.00839 16.2388 8.65817C15.8173 8.23646 15.5626 7.67654 15.5215 7.08172C15.4805 6.4869 15.656 5.89731 16.0156 5.42175C16.3753 4.94618 16.8947 4.61671 17.4782 4.49415C18.0617 4.37158 18.6699 4.46417 19.1905 4.75485C19.3697 4.56999 19.5766 4.41415 19.8037 4.29294C20.3571 4.01233 20.9684 3.86501 21.5889 3.86276C21.6778 3.86276 21.7676 3.86569 21.8565 3.87204L22.8389 3.06491C23.2815 2.69977 23.8374 2.50005 24.4111 2.5H24.4824L24.6465 2.51123C25.1343 2.55773 25.5973 2.74838 25.9764 3.0589C26.3556 3.36942 26.6337 3.78575 26.7754 4.25488C26.9174 4.72271 26.9173 5.22218 26.7751 5.68995C26.6329 6.15771 26.355 6.57271 25.9766 6.88232L25.4854 7.28613C25.5081 7.46229 25.5192 7.63976 25.5186 7.81738C25.5134 8.41354 25.3739 9.00087 25.1104 9.53564C24.9533 9.8396 24.7368 10.1089 24.4736 10.3276C24.6473 10.9132 24.5981 11.5423 24.3356 12.0938C24.073 12.6452 23.6158 13.08 23.0518 13.3145C22.9511 13.3556 22.8481 13.3905 22.7432 13.419C22.8809 13.8481 22.8985 14.3067 22.794 14.7452C22.6895 15.1836 22.4669 15.585 22.1504 15.9059C21.8339 16.2267 21.4356 16.4548 20.9987 16.5653C20.5617 16.6758 20.1029 16.6645 19.6719 16.5327C19.9127 17.0512 19.9885 17.6311 19.8891 18.1941C19.7898 18.757 19.52 19.2759 19.1162 19.6807C19.0703 19.7266 19.0234 19.7705 18.9756 19.8125C19.6091 20.1793 20.1434 20.6952 20.5322 21.3154L22.4912 24.3486C22.6887 24.6578 22.8232 25.0029 22.887 25.3641C22.9509 25.7253 22.9427 26.0956 22.8631 26.4537C22.7835 26.8118 22.634 27.1506 22.4232 27.4508C22.2123 27.751 21.9443 28.0066 21.6344 28.2029C21.3245 28.3993 20.979 28.5326 20.6175 28.595C20.256 28.6575 19.8858 28.6481 19.528 28.5672C19.1702 28.4862 18.8319 28.3355 18.5325 28.1235C18.2331 27.9116 17.9785 27.6426 17.7832 27.332L16.2076 24.8926C16.284 25.2167 16.291 25.5533 16.2281 25.8803C16.1653 26.2073 16.0339 26.5173 15.8428 26.79C15.2735 27.6256 14.5086 28.3093 13.6147 28.7816C12.7208 29.254 11.7249 29.5006 10.7139 29.5H10.7134Z" fill="white"/>
<path fill-rule="evenodd" clip-rule="evenodd" d="M20.2808 7.16306C20.1728 7.05593 20.0915 6.92491 20.0434 6.78057C19.9953 6.63623 19.9818 6.48261 20.004 6.3321C20.0262 6.18159 20.0835 6.03841 20.1712 5.91411C20.2589 5.7898 20.3746 5.68785 20.509 5.61648C21.0591 5.34233 21.6929 5.28784 22.2817 5.46406L23.7914 4.2233C23.8899 4.14234 24.0034 4.08158 24.1253 4.04447C24.2473 4.00736 24.3754 3.99465 24.5023 4.00704C24.6292 4.01944 24.7524 4.05671 24.8649 4.11672C24.9774 4.17673 25.0769 4.25831 25.1579 4.3568C25.2389 4.45529 25.2996 4.56877 25.3367 4.69074C25.3738 4.81272 25.3866 4.94081 25.3742 5.0677C25.3618 5.19459 25.3245 5.3178 25.2645 5.43029C25.2045 5.54278 25.1229 5.64234 25.0244 5.7233L23.7807 6.74462C23.9397 7.07695 24.0209 7.4411 24.0182 7.80948C24.0155 8.17786 23.929 8.54079 23.7652 8.87076C23.6939 9.00535 23.592 9.12128 23.4677 9.20919C23.3433 9.29711 23.2001 9.35454 23.0494 9.37684C22.8988 9.39915 22.745 9.3857 22.6005 9.33759C22.456 9.28948 22.3249 9.20805 22.2177 9.09989L20.2808 7.16306ZM10.7196 10.4268C10.7196 10.9224 10.8914 11.4028 11.2059 11.7859C11.5203 12.1691 11.9579 12.4313 12.444 12.5281C12.9301 12.6248 13.4347 12.5499 13.8719 12.3163C14.309 12.0826 14.6516 11.7047 14.8413 11.2467C15.031 10.7888 15.056 10.2793 14.9122 9.80496C14.7683 9.33064 14.4644 8.92088 14.0523 8.64551C13.6402 8.37013 13.1453 8.24617 12.652 8.29475C12.1588 8.34333 11.6976 8.56144 11.3471 8.91192C11.1482 9.11085 10.9903 9.34701 10.8827 9.60693C10.775 9.86685 10.7196 10.1454 10.7196 10.4268ZM9.79321 27.9089C10.7025 28.0903 11.645 27.9992 12.5027 27.6471C13.3604 27.2949 14.095 26.6973 14.6144 25.9293C14.7048 25.8002 14.7581 25.6488 14.7686 25.4916C14.7791 25.3343 14.7464 25.1772 14.6741 25.0372C14.6017 24.8972 14.4924 24.7797 14.358 24.6974C14.2236 24.6151 14.0693 24.5711 13.9117 24.5702C13.7764 24.567 13.6424 24.5974 13.5217 24.6588C13.401 24.7201 13.2974 24.8104 13.2202 24.9216C12.9617 25.3199 12.612 25.6509 12.2002 25.8873C11.7884 26.1236 11.3262 26.2586 10.8519 26.281C10.3775 26.3033 9.9047 26.2125 9.47246 26.0159C9.04021 25.8193 8.66096 25.5227 8.36608 25.1505C8.07119 24.7783 7.86914 24.3413 7.77662 23.8755C7.6841 23.4098 7.70378 22.9287 7.83402 22.4721C7.96427 22.0154 8.20134 21.5964 8.52564 21.2495C8.84994 20.9027 9.25214 20.638 9.699 20.4774C9.80749 20.4407 9.9076 20.3829 9.99352 20.3072C10.0794 20.2314 10.1494 20.1394 10.1994 20.0364C10.2495 19.9334 10.2785 19.8215 10.2848 19.7071C10.2912 19.5928 10.2747 19.4783 10.2364 19.3704C10.1981 19.2625 10.1387 19.1633 10.0617 19.0785C9.98473 18.9938 9.89164 18.9252 9.78787 18.8768C9.68411 18.8283 9.57175 18.801 9.45734 18.7964C9.34292 18.7918 9.22873 18.81 9.12141 18.85C8.15145 19.198 7.32229 19.8544 6.76089 20.7186C6.19949 21.5828 5.93679 22.6072 6.013 23.6349C6.08922 24.6626 6.50016 25.637 7.1829 26.4089C7.86565 27.1808 8.78256 27.7077 9.79326 27.9089H9.79321ZM11.953 22.9048C11.712 22.6636 11.5765 22.3367 11.5765 21.9958V15.1402C11.5765 14.7992 11.7119 14.4723 11.953 14.2312C12.1941 13.9901 12.521 13.8547 12.862 13.8547C13.2029 13.8547 13.5298 13.9901 13.7709 14.2312C14.012 14.4723 14.1474 14.7992 14.1474 15.1402V16.2114C14.1474 16.2395 14.1529 16.2674 14.1637 16.2934C14.1744 16.3193 14.1902 16.343 14.2101 16.3629C14.23 16.3828 14.2536 16.3985 14.2796 16.4093C14.3056 16.4201 14.3335 16.4256 14.3616 16.4256H17.1467C17.4876 16.4256 17.8146 16.561 18.0557 16.8021C18.2967 17.0431 18.4322 17.3701 18.4322 17.711C18.4322 18.0519 18.2967 18.3789 18.0557 18.62C17.8146 18.861 17.4876 18.9965 17.1467 18.9965H14.3616C14.3335 18.9964 14.3056 19.002 14.2796 19.0127C14.2536 19.0235 14.23 19.0393 14.2101 19.0592C14.1902 19.0791 14.1744 19.1027 14.1637 19.1287C14.1529 19.1547 14.1474 19.1825 14.1474 19.2107V20.2819C14.1474 20.3381 14.1585 20.3939 14.18 20.4458C14.2015 20.4978 14.2331 20.5451 14.2729 20.5849C14.3127 20.6247 14.3599 20.6562 14.4119 20.6778C14.4639 20.6993 14.5196 20.7104 14.5759 20.7104H16.7182C17.2263 20.708 17.7265 20.8354 18.1715 21.0807C18.6165 21.3259 18.9914 21.6807 19.2608 22.1115L21.2318 25.1623C21.4125 25.4512 21.4713 25.8001 21.3952 26.1323C21.3192 26.4645 21.1144 26.753 20.8259 26.9345C20.5375 27.116 20.1888 27.1757 19.8563 27.1005C19.5239 27.0253 19.2349 26.8214 19.0526 26.5334L17.0816 23.4826C17.0431 23.4209 16.9895 23.3701 16.9259 23.3349C16.8624 23.2997 16.7909 23.2812 16.7182 23.2813H12.862C12.5211 23.2812 12.1941 23.1458 11.953 22.9048ZM17.7971 10.8144C17.5687 10.8598 17.3643 10.9858 17.221 11.1694C17.0777 11.353 17.0052 11.5819 17.0167 11.8145C17.0281 12.0471 17.1227 12.2678 17.2833 12.4365C17.4439 12.6051 17.6598 12.7104 17.8915 12.7332C18.1233 12.7561 18.3555 12.6948 18.5459 12.5607C18.7362 12.4266 18.8721 12.2285 18.9286 12.0027C18.9852 11.7768 18.9587 11.5381 18.854 11.3301C18.7492 11.1221 18.5733 10.9586 18.3581 10.8696C18.1807 10.7961 17.9854 10.7769 17.7971 10.8144ZM19.7029 14.856C19.544 14.6972 19.4451 14.4882 19.423 14.2646C19.4009 14.041 19.4571 13.8167 19.5818 13.6299C19.7066 13.4431 19.8923 13.3053 20.1073 13.24C20.3222 13.1748 20.5532 13.1861 20.7608 13.272C20.9683 13.358 21.1397 13.5132 21.2456 13.7113C21.3515 13.9095 21.3855 14.1382 21.3417 14.3585C21.2978 14.5789 21.179 14.7772 21.0053 14.9197C20.8317 15.0623 20.614 15.1402 20.3893 15.1402C20.1319 15.1401 19.885 15.0379 19.7029 14.856ZM21.9158 10.0792C21.6875 10.1245 21.4831 10.2504 21.3398 10.4338C21.1966 10.6173 21.124 10.8461 21.1354 11.0786C21.1467 11.3111 21.2412 11.5317 21.4017 11.7003C21.5621 11.869 21.7778 11.9743 22.0095 11.9972C22.2411 12.0201 22.4732 11.959 22.6636 11.825C22.8539 11.691 22.9898 11.4931 23.0464 11.2674C23.103 11.0416 23.0766 10.803 22.972 10.5951C22.8674 10.3871 22.6916 10.2237 22.4766 10.1346C22.2993 10.061 22.1041 10.0417 21.9158 10.0792ZM20.7322 9.65823C20.5734 9.81705 20.3644 9.91588 20.1409 9.9379C19.9174 9.95992 19.6932 9.90376 19.5065 9.77899C19.3197 9.65422 19.182 9.46856 19.1168 9.25365C19.0516 9.03873 19.063 8.80786 19.1489 8.60037C19.2349 8.39287 19.3901 8.2216 19.5881 8.11573C19.7862 8.00986 20.0149 7.97594 20.2351 8.01975C20.4554 8.06356 20.6537 8.1824 20.7962 8.35601C20.9386 8.52962 21.0165 8.74726 21.0165 8.97184C21.0165 9.09932 20.9914 9.22555 20.9426 9.34332C20.8939 9.46109 20.8223 9.5681 20.7322 9.65823ZM17.0345 7.10176C17.0799 7.33007 17.2059 7.53445 17.3895 7.67764C17.573 7.82084 17.8019 7.89332 18.0344 7.88187C18.2669 7.87042 18.4875 7.7758 18.6561 7.61527C18.8247 7.45473 18.93 7.23897 18.9528 7.0073C18.9756 6.77563 18.9144 6.54348 18.7803 6.35317C18.6462 6.16285 18.4483 6.02705 18.2225 5.9705C17.9966 5.91395 17.758 5.94043 17.5501 6.04511C17.3422 6.14978 17.1788 6.32569 17.0897 6.54076C17.0162 6.71819 16.997 6.91342 17.0345 7.10176Z" fill="#4085C6"/>
</svg>
