<svg width="32" height="32" viewBox="0 0 32 32" fill="none" xmlns="http://www.w3.org/2000/svg">
<path d="M9.40669 16.1381C9.34186 16.0209 9.24683 15.9232 9.13147 15.8551C9.01611 15.7871 8.88463 15.7511 8.75069 15.7511H8.31469C8.24318 15.7517 8.17238 15.7369 8.10705 15.7079C8.04173 15.6788 7.9834 15.636 7.93601 15.5825C7.88862 15.5289 7.85327 15.4658 7.83234 15.3974C7.81141 15.3291 7.80539 15.257 7.81469 15.1861C8.0233 13.5762 8.7022 12.0637 9.76639 10.8379C10.8306 9.61202 12.2328 8.72738 13.7973 8.29471C15.3619 7.86203 17.0194 7.90055 18.5622 8.40543C20.105 8.91032 21.4646 9.85914 22.4707 11.1331C22.637 11.3356 22.8762 11.4648 23.1368 11.4928C23.3974 11.5207 23.6586 11.4453 23.8641 11.2826C24.0696 11.1199 24.2031 10.8831 24.2357 10.623C24.2684 10.363 24.1976 10.1005 24.0387 9.89208C22.7689 8.2864 21.0474 7.0977 19.0961 6.47914C17.1447 5.86058 15.0528 5.84049 13.0899 6.42145C11.127 7.00242 9.38296 8.15782 8.08258 9.73882C6.7822 11.3198 5.985 13.254 5.79369 15.2921C5.78219 15.4166 5.72448 15.5322 5.63192 15.6163C5.53937 15.7003 5.4187 15.7466 5.29369 15.7461H4.74969C4.61589 15.7461 4.48454 15.782 4.36926 15.8499C4.25398 15.9178 4.15897 16.0154 4.09409 16.1324C4.0292 16.2494 3.9968 16.3816 4.00025 16.5154C4.0037 16.6492 4.04286 16.7796 4.11369 16.8931L6.11369 20.0931C6.18123 20.2009 6.27508 20.2899 6.38641 20.3515C6.49775 20.4132 6.62293 20.4455 6.75019 20.4455C6.87745 20.4455 7.00263 20.4132 7.11396 20.3515C7.2253 20.2899 7.31915 20.2009 7.38669 20.0931L9.38669 16.8931C9.45651 16.7803 9.49515 16.6509 9.49866 16.5183C9.50218 16.3856 9.47044 16.2544 9.40669 16.1381Z" fill="#51247A"/>
<path d="M27.8857 15.6041L25.8857 12.4041C25.8135 12.3026 25.718 12.2198 25.6073 12.1626C25.4966 12.1055 25.3738 12.0757 25.2492 12.0757C25.1246 12.0757 25.0018 12.1055 24.8911 12.1626C24.7804 12.2198 24.6849 12.3026 24.6127 12.4041L22.6127 15.6041C22.5419 15.7176 22.5027 15.848 22.4993 15.9818C22.4958 16.1155 22.5282 16.2478 22.5931 16.3648C22.658 16.4818 22.753 16.5793 22.8683 16.6473C22.9835 16.7152 23.1149 16.751 23.2487 16.7511H23.6847C23.7562 16.7505 23.827 16.7652 23.8923 16.7943C23.9577 16.8234 24.016 16.8662 24.0634 16.9197C24.1108 16.9733 24.1461 17.0364 24.167 17.1048C24.188 17.1731 24.194 17.2452 24.1847 17.3161C23.9761 18.926 23.2972 20.4385 22.233 21.6643C21.1688 22.8902 19.7666 23.7748 18.202 24.2075C16.6374 24.6402 14.98 24.6016 13.4372 24.0967C11.8944 23.5919 10.5348 22.643 9.5287 21.3691C9.36237 21.1665 9.12316 21.0374 8.86255 21.0094C8.60195 20.9815 8.34078 21.0569 8.13526 21.2196C7.92974 21.3822 7.7963 21.6191 7.76365 21.8791C7.731 22.1392 7.80176 22.4017 7.9607 22.6101C9.23078 24.216 10.9527 25.4047 12.9045 26.023C14.8563 26.6414 16.9485 26.661 18.9116 26.0795C20.8747 25.4979 22.6186 24.3418 23.9186 22.7601C25.2187 21.1784 26.0152 19.2436 26.2057 17.2051C26.2172 17.0806 26.2749 16.965 26.3675 16.8809C26.46 16.7969 26.5807 16.7506 26.7057 16.7511H27.2527C27.3865 16.751 27.5179 16.7152 27.6331 16.6473C27.7484 16.5793 27.8434 16.4818 27.9083 16.3648C27.9732 16.2478 28.0056 16.1155 28.0021 15.9818C27.9987 15.848 27.9595 15.7176 27.8887 15.6041H27.8857Z" fill="#51247A"/>
<path d="M17.3737 15.368C16.4074 16.2076 15.6935 17.2992 15.3117 18.521C15.2663 18.6417 15.2693 18.7751 15.32 18.8936C15.3706 19.0121 15.4651 19.1065 15.5837 19.157C15.8231 19.2597 16.0794 19.3174 16.3397 19.327C16.8646 19.2933 17.3735 19.1322 17.8222 18.8576C18.2708 18.583 18.6458 18.2032 18.9147 17.751C19.4487 16.6963 19.7187 15.5277 19.7012 14.3457C19.6838 13.1636 19.3796 12.0035 18.8147 10.965C18.7733 10.9027 18.7185 10.8505 18.6543 10.8122C18.5901 10.7739 18.5181 10.7505 18.4437 10.7437C18.3692 10.7368 18.2942 10.7468 18.2241 10.7728C18.154 10.7989 18.0907 10.8403 18.0387 10.894C17.373 11.5465 16.5755 12.0491 15.6997 12.368C14.9327 12.6512 14.2218 13.0676 13.5997 13.598C13.2494 13.8802 12.9741 14.2443 12.7979 14.6582C12.6218 15.0721 12.5502 15.523 12.5897 15.971C12.6738 16.4681 12.928 16.9205 13.3087 17.251C13.3821 17.3186 13.4337 17.4066 13.4567 17.5038C13.4796 17.6009 13.473 17.7027 13.4377 17.796C13.0344 18.8733 12.74 19.9881 12.5587 21.124C12.5403 21.2554 12.5748 21.3888 12.6547 21.4947C12.7346 21.6007 12.8533 21.6706 12.9847 21.689C13.1161 21.7075 13.2495 21.6729 13.3554 21.593C13.4614 21.5131 13.5313 21.3944 13.5497 21.263C13.8837 19.063 14.9707 15.845 16.7927 14.555C16.9006 14.478 17.0348 14.447 17.1656 14.4688C17.2964 14.4907 17.4131 14.5636 17.4902 14.6715C17.5672 14.7795 17.5982 14.9136 17.5764 15.0444C17.5545 15.1752 17.4816 15.292 17.3737 15.369V15.368Z" fill="#51247A"/>
</svg>
