<svg width="32" height="32" viewBox="0 0 32 32" fill="none" xmlns="http://www.w3.org/2000/svg">
<path d="M27.0861 14.7677C27.1949 14.6869 27.2865 14.5853 27.3557 14.4688C27.4248 14.3522 27.4701 14.2231 27.4888 14.0889C27.5076 13.9547 27.4994 13.8181 27.4648 13.6871C27.4302 13.5561 27.3699 13.4333 27.2874 13.3258C27.2048 13.2183 27.1018 13.1284 26.9841 13.0611C26.8664 12.9939 26.7366 12.9508 26.6021 12.9343C26.4676 12.9177 26.3312 12.9281 26.2007 12.9649C26.0703 13.0016 25.9485 13.0639 25.8424 13.1482L21.9714 16.1278C21.9398 16.1516 21.9141 16.1824 21.8964 16.2179C21.8787 16.2533 21.8694 16.2924 21.8693 16.332V18.2639C21.8697 18.3111 21.8831 18.3574 21.9081 18.3975C21.9331 18.4376 21.9687 18.47 22.011 18.4911C22.0533 18.5122 22.1005 18.5213 22.1476 18.5172C22.1947 18.5131 22.2397 18.4962 22.2778 18.4681L27.0861 14.7677Z" fill="#51247A"/>
<path d="M25.8373 20.2999L21.9714 23.3142C21.9398 23.338 21.9141 23.3689 21.8964 23.4043C21.8787 23.4397 21.8694 23.4788 21.8693 23.5184V25.4585C21.8693 25.5059 21.8825 25.5524 21.9075 25.5927C21.9324 25.633 21.968 25.6656 22.0104 25.6868C22.0528 25.708 22.1003 25.717 22.1475 25.7127C22.1947 25.7085 22.2398 25.6911 22.2778 25.6627L27.0871 21.9163C27.1962 21.8352 27.288 21.7331 27.3572 21.616C27.4263 21.4989 27.4713 21.3691 27.4897 21.2344C27.508 21.0997 27.4992 20.9626 27.4638 20.8313C27.4285 20.7 27.3672 20.5771 27.2837 20.4698C27.2002 20.3625 27.0961 20.2729 26.9775 20.2064C26.8589 20.1399 26.7282 20.0977 26.5931 20.0823C26.458 20.067 26.3212 20.0788 26.1907 20.117C26.0602 20.1553 25.9387 20.2192 25.8332 20.305L25.8373 20.2999Z" fill="#51247A"/>
<path d="M4.00025 14.7238H20.3377V20.3398H4.00025V14.7238Z" fill="#51247A"/>
<path d="M4.25553 21.8713C4.22183 21.8713 4.18847 21.878 4.15737 21.891C4.12626 21.9039 4.09803 21.9229 4.0743 21.9468C4.05057 21.9707 4.03181 21.9991 4.0191 22.0303C4.00639 22.0615 3.99999 22.095 4.00026 22.1287V26.4683C4.00026 26.8745 4.16162 27.2641 4.44886 27.5513C4.7361 27.8386 5.12568 27.9999 5.53189 27.9999H18.8061C19.2123 27.9999 19.6019 27.8386 19.8891 27.5513C20.1763 27.2641 20.3377 26.8745 20.3377 26.4683V22.1287C20.3377 22.061 20.3108 21.996 20.2629 21.9481C20.2151 21.9003 20.1501 21.8734 20.0824 21.8734L4.25553 21.8713Z" fill="#51247A"/>
<path d="M4.00026 11.1704V12.9389C4.00026 13.0066 4.02715 13.0715 4.07502 13.1194C4.1229 13.1673 4.18783 13.1942 4.25553 13.1942H20.0824C20.1501 13.1942 20.2151 13.1673 20.2629 13.1194C20.3108 13.0715 20.3377 13.0066 20.3377 12.9389V12.1731C20.3377 11.7669 20.1763 11.3773 19.8891 11.0901C19.6019 10.8028 19.2123 10.6415 18.8061 10.6415H8.62477C8.56952 10.6414 8.51576 10.6235 8.47157 10.5903C8.42738 10.5571 8.39516 10.5105 8.37973 10.4574C8.36431 10.4044 8.36652 10.3477 8.38603 10.296C8.40555 10.2443 8.44131 10.2004 8.48795 10.1707L10.1676 9.10778L15.267 5.88726C15.3805 5.81566 15.4789 5.72238 15.5564 5.61277C15.634 5.50315 15.6891 5.37933 15.7188 5.24839C15.7485 5.11745 15.7521 4.98194 15.7294 4.84961C15.7067 4.71728 15.6582 4.59071 15.5866 4.47714C15.515 4.36356 15.4217 4.2652 15.3121 4.18767C15.2025 4.11015 15.0786 4.05497 14.9477 4.02529C14.8168 3.99561 14.6812 3.99202 14.5489 4.01471C14.4166 4.0374 14.29 4.08593 14.1764 4.15754L6.34264 9.10778L4.47608 10.2841C4.32701 10.3782 4.20484 10.5093 4.12145 10.6646C4.03807 10.8199 3.99631 10.9941 4.00026 11.1704Z" fill="#51247A"/>
</svg>
