<svg width="32" height="32" viewBox="0 0 32 32" fill="none" xmlns="http://www.w3.org/2000/svg">
<path d="M27.1 3.9C26.5 3.3 25.8 3 25 3H6C5.2 3 4.4 3.3 3.9 3.9C3.3 4.4 3 5.2 3 6V25.5C3 26.1 3.2 26.7 3.5 27.2V27.5C3.5 28.2 3.8 28.8 4.2 29.3C4.7 29.8 5.3 30 6 30C6.7 30 7.3 29.7 7.8 29.3C8 29.1 8.2 28.8 8.3 28.5H22.7C22.8 28.8 23 29 23.2 29.3C23.7 29.8 24.3 30 25 30C25.7 30 26.3 29.7 26.8 29.3C27.3 28.9 27.5 28.2 27.5 27.5V27.2C27.8 26.7 28 26.1 28 25.5V6C28 5.2 27.7 4.4 27.1 3.9Z" fill="white"/>
<path d="M26.5 6C26.5 5.6 26.3 5.2 26.1 4.9C25.9 4.6 25.4 4.5 25 4.5H6C5.6 4.5 5.2 4.7 4.9 4.9C4.6 5.1 4.5 5.6 4.5 6V25.5C4.5 25.9 4.6 26.2 4.9 26.5C5 26.6 5 26.7 5 26.8V27.5C5 27.8 5.1 28 5.3 28.2C5.5 28.4 5.7 28.5 6 28.5C6.3 28.5 6.5 28.4 6.7 28.2C6.9 28 7 27.8 7 27.5C7 27.4 7.1 27.2 7.1 27.1C7.2 27 7.3 27 7.5 27H23.5C23.6 27 23.8 27.1 23.9 27.1C24 27.2 24 27.3 24 27.5C24 27.8 24.1 28 24.3 28.2C24.5 28.4 24.7 28.5 25 28.5C25.3 28.5 25.5 28.4 25.7 28.2C25.9 28 26 27.8 26 27.5V26.8C26 26.7 26 26.6 26.1 26.5C26.3 26.2 26.5 25.9 26.5 25.5V6ZM15.5 25H10C9.7 25 9.5 24.9 9.3 24.7C9.1 24.5 9 24.3 9 24C9 23.7 9.1 23.5 9.3 23.3C9.5 23.1 9.7 23 10 23H15.5C15.8 23 16 23.1 16.2 23.3C16.4 23.5 16.5 23.7 16.5 24C16.5 24.3 16.4 24.5 16.2 24.7C16 24.9 15.8 25 15.5 25ZM19 20.5C19 20.6 18.9 20.8 18.9 20.9C18.8 21 18.7 21 18.5 21H7.5C7.4 21 7.2 20.9 7.1 20.9C7 20.8 7 20.7 7 20.5V7.5C7 7.4 7.1 7.2 7.1 7.1C7.2 7.1 7.4 7 7.5 7H18.5C18.6 7 18.8 7.1 18.9 7.1C19 7.2 19 7.3 19 7.5V20.5ZM23.7 21C23.7 21.2 23.6 21.4 23.5 21.5C23.4 21.6 23.2 21.7 23 21.7C22.8 21.7 22.6 21.7 22.5 21.5C22.4 21.4 22.3 21.2 22.3 21V19C22.3 18.8 22.4 18.6 22.5 18.5C22.6 18.4 22.8 18.3 23 18.3C23.2 18.3 23.4 18.4 23.5 18.5C23.6 18.6 23.7 18.8 23.7 19V21ZM24 15.7H22C21.8 15.7 21.6 15.6 21.5 15.5C21.4 15.4 21.3 15.2 21.3 15C21.3 14.8 21.4 14.6 21.5 14.5C21.6 14.4 21.8 14.3 22 14.3H24C24.2 14.3 24.4 14.4 24.5 14.5C24.6 14.6 24.7 14.8 24.7 15C24.7 15.2 24.7 15.4 24.5 15.5C24.4 15.7 24.2 15.7 24 15.7ZM24 12.7H22C21.8 12.7 21.6 12.6 21.5 12.5C21.4 12.4 21.3 12.2 21.3 12C21.3 11.8 21.4 11.6 21.5 11.5C21.6 11.4 21.8 11.3 22 11.3H24C24.2 11.3 24.4 11.4 24.5 11.5C24.6 11.6 24.7 11.8 24.7 12C24.7 12.2 24.7 12.4 24.5 12.5C24.4 12.7 24.2 12.7 24 12.7ZM24 9.7H22C21.8 9.7 21.6 9.6 21.5 9.5C21.4 9.4 21.3 9.2 21.3 9C21.3 8.8 21.3 8.6 21.5 8.5C21.6 8.4 21.8 8.3 22 8.3H24C24.2 8.3 24.4 8.4 24.5 8.5C24.6 8.6 24.7 8.8 24.7 9C24.7 9.2 24.7 9.4 24.5 9.5C24.4 9.7 24.2 9.7 24 9.7Z" fill="#EB602B"/>
</svg>
