<svg width="32" height="32" viewBox="0 0 32 32" fill="none" xmlns="http://www.w3.org/2000/svg">
<path d="M12.8028 12.4604C12.766 12.4409 12.7346 12.4125 12.7115 12.3778C12.6884 12.343 12.6744 12.3031 12.6707 12.2615C12.6671 12.22 12.6738 12.1782 12.6904 12.14C12.7071 12.1017 12.733 12.0683 12.7658 12.0426C13.5039 11.4661 14.0436 10.6737 14.3097 9.77575C14.5757 8.87785 14.5549 7.91928 14.2501 7.03378C13.9452 6.14829 13.3716 5.38002 12.6092 4.83617C11.8468 4.29232 10.9336 4 9.99714 4C9.06065 4 8.1475 4.29232 7.3851 4.83617C6.6227 5.38002 6.04907 6.14829 5.74424 7.03378C5.4394 7.91928 5.41857 8.87785 5.68464 9.77575C5.95071 10.6737 6.49041 11.4661 7.22846 12.0426C7.26234 12.0676 7.28929 12.1008 7.30678 12.1391C7.32427 12.1774 7.33171 12.2195 7.32841 12.2615C7.32494 12.3031 7.31114 12.3431 7.28828 12.378C7.26541 12.4129 7.23421 12.4416 7.19748 12.4614C6.23392 12.97 5.42715 13.7316 4.8638 14.6642C4.30046 15.5968 4.00183 16.6653 4 17.7549L4 21.2532C4 21.5183 4.10531 21.7725 4.29275 21.96C4.4802 22.1474 4.73443 22.2527 4.99952 22.2527H6.11999C6.24557 22.2523 6.36672 22.2991 6.45932 22.384C6.55193 22.4688 6.6092 22.5854 6.61975 22.7105L6.99857 27.3123C7.01393 27.5003 7.09967 27.6755 7.23865 27.803C7.37763 27.9305 7.55962 28.0009 7.74822 28H12.2461C12.4347 28.0009 12.6167 27.9305 12.7556 27.803C12.8946 27.6755 12.9804 27.5003 12.9957 27.3123L13.3795 22.7145C13.3901 22.5894 13.4474 22.4728 13.54 22.388C13.6326 22.3031 13.7537 22.2563 13.8793 22.2567H14.9948C15.2599 22.2567 15.5141 22.1514 15.7015 21.964C15.889 21.7765 15.9943 21.5223 15.9943 21.2572V17.7589C15.9939 16.6691 15.6966 15.6 15.1343 14.6664C14.572 13.7329 13.766 12.9702 12.8028 12.4604ZM7.59829 7.8276C7.60875 7.79092 7.62747 7.75712 7.65302 7.72879C7.67857 7.70047 7.71026 7.67836 7.74567 7.66418C7.78108 7.65 7.81927 7.64411 7.8573 7.64697C7.89534 7.64982 7.93222 7.66135 7.96511 7.68067C8.88332 8.22307 9.93022 8.50921 10.9967 8.50927C11.3951 8.50858 11.7923 8.46671 12.1821 8.38433C12.2196 8.37679 12.2583 8.37782 12.2953 8.38734C12.3324 8.39686 12.3668 8.41463 12.396 8.43931C12.4248 8.46375 12.4477 8.49448 12.4627 8.52914C12.4778 8.5638 12.4847 8.60146 12.483 8.63921C12.4673 8.99159 12.377 9.33664 12.2182 9.65157C12.0593 9.9665 11.8354 10.2441 11.5613 10.4662C11.2873 10.6882 10.9692 10.8496 10.6281 10.9396C10.2871 11.0296 9.93082 11.0463 9.58286 10.9885C9.2349 10.9306 8.90316 10.7997 8.60955 10.6042C8.31594 10.4087 8.06714 10.1532 7.87958 9.85443C7.69202 9.5557 7.56996 9.22058 7.52148 8.87119C7.47299 8.52181 7.49917 8.16612 7.59829 7.8276ZM13.9952 19.7539C13.9952 19.8865 13.9426 20.0136 13.8489 20.1073C13.7551 20.201 13.628 20.2537 13.4955 20.2537H6.49881C6.36627 20.2537 6.23915 20.201 6.14543 20.1073C6.0517 20.0136 5.99905 19.8865 5.99905 19.7539V17.7549C6.00111 16.9305 6.25852 16.127 6.73588 15.4549C7.21324 14.7828 7.88709 14.2751 8.66478 14.0017C8.70226 13.9879 8.74253 13.9836 8.78207 13.989C8.82161 13.9944 8.85924 14.0094 8.89167 14.0326C8.92375 14.0553 8.95006 14.0853 8.96846 14.12C8.98686 14.1547 8.99685 14.1933 8.99762 14.2325V17.7509C8.99762 18.016 9.10293 18.2702 9.29037 18.4576C9.47782 18.6451 9.73205 18.7504 9.99714 18.7504C10.2622 18.7504 10.5165 18.6451 10.7039 18.4576C10.8914 18.2702 10.9967 18.016 10.9967 17.7509V14.2365C10.9974 14.1973 11.0074 14.1587 11.0258 14.124C11.0442 14.0892 11.0705 14.0593 11.1026 14.0366C11.1352 14.0134 11.173 13.9984 11.2127 13.993C11.2524 13.9876 11.2929 13.9919 11.3305 14.0057C12.1074 14.2791 12.7806 14.7862 13.2577 15.4575C13.7348 16.1288 13.9924 16.9313 13.9952 17.7549V19.7539Z" fill="#51247A"/>
<path d="M24.99 4.01135H16.494C16.229 4.01135 15.9747 4.11666 15.7873 4.30411C15.5998 4.49155 15.4945 4.74579 15.4945 5.01088C15.4945 5.27597 15.5998 5.5302 15.7873 5.71765C15.9747 5.90509 16.229 6.0104 16.494 6.0104H24.99C25.2551 6.0104 25.5093 6.11571 25.6968 6.30315C25.8842 6.4906 25.9895 6.74483 25.9895 7.00992V20.0037C25.9895 20.2688 25.8842 20.5231 25.6968 20.7105C25.5093 20.898 25.2551 21.0033 24.99 21.0033H18.9929C18.7278 21.0033 18.4735 21.1086 18.2861 21.296C18.0986 21.4835 17.9933 21.7377 17.9933 22.0028C17.9933 22.2679 18.0986 22.5221 18.2861 22.7096C18.4735 22.897 18.7278 23.0023 18.9929 23.0023H24.99C25.7853 23.0023 26.548 22.6864 27.1103 22.124C27.6727 21.5617 27.9886 20.799 27.9886 20.0037V7.00992C27.9886 6.21465 27.6727 5.45196 27.1103 4.88961C26.548 4.32727 25.7853 4.01135 24.99 4.01135V4.01135Z" fill="#51247A"/>
</svg>
