<svg width="32" height="32" viewBox="0 0 32 32" fill="none" xmlns="http://www.w3.org/2000/svg">
<path fill-rule="evenodd" clip-rule="evenodd" d="M24.8184 30C24.235 29.9997 23.6699 29.7957 23.2208 29.4233C22.7717 29.0508 22.4667 28.5333 22.3584 27.96C22.173 28.4 21.8856 28.7896 21.5198 29.0964C21.154 29.4033 20.7204 29.6186 20.2549 29.7246C20.0394 29.7727 19.8194 29.7979 19.5986 29.7998H19.582C18.9414 29.7983 18.318 29.5919 17.803 29.2108C17.2881 28.8297 16.9085 28.2939 16.7197 27.6817C16.5915 28.2254 16.3151 28.7229 15.9214 29.1192C15.5434 29.4971 15.0715 29.7673 14.5543 29.9021C14.037 30.0368 13.4932 30.0312 12.9789 29.8859C12.4646 29.7405 11.9983 29.4606 11.6281 29.0751C11.258 28.6895 10.9973 28.2122 10.873 27.6924C10.6835 28.3034 10.3036 28.8379 9.7889 29.2179C9.27417 29.5979 8.6515 29.8035 8.01171 29.8047H8.00731C7.78509 29.8044 7.56357 29.7798 7.34667 29.7314C6.9583 29.6437 6.59109 29.4801 6.26615 29.25C5.78033 28.9056 5.40789 28.4245 5.19617 27.8679C4.98445 27.3112 4.94303 26.7042 5.07715 26.124L5.11527 25.96L5.189 25.8077C5.65284 24.854 6.31528 24.0106 7.13188 23.334C7.19819 23.2764 7.26799 23.2229 7.34088 23.1738C7.13139 22.9857 6.94898 22.7695 6.79888 22.5313C6.58801 22.198 6.44519 21.8264 6.37865 21.4377C6.3121 21.049 6.32316 20.651 6.41118 20.2666L6.44878 20.0986L6.52398 19.9443C6.98805 18.9893 7.65158 18.145 8.46978 17.4683C8.52056 17.4238 8.57329 17.3818 8.62798 17.3428C8.58941 17.3086 8.55132 17.2729 8.5147 17.2358C8.2816 17.004 8.0968 16.7282 7.97099 16.4245C7.84519 16.1207 7.78088 15.7951 7.78179 15.4663V14.9648C7.78315 13.7848 8.13195 12.6313 8.78468 11.6483C9.43741 10.6652 10.3652 9.89615 11.4522 9.437C11.8168 7.62124 12.799 5.98777 14.2318 4.81429C15.6646 3.6408 17.4595 2.99971 19.3116 3C19.46 3 19.6094 3.00439 19.7588 3.0127C21.7911 3.12635 23.704 4.00882 25.1095 5.48107C26.515 6.95332 27.3079 8.90509 27.3272 10.9404L27.3213 27.4981C27.3208 28.1616 27.0569 28.7978 26.5876 29.2669C26.1183 29.7361 25.482 29.9997 24.8184 30ZM15.2437 23.6143C15.2983 23.6702 15.3497 23.7292 15.3975 23.791C15.9785 24.5419 16.4108 25.3967 16.6714 26.3096C16.7631 25.5158 16.9817 24.742 17.3189 24.0176C17.347 23.9475 17.381 23.8798 17.4205 23.8154C16.8943 23.6637 16.4199 23.3705 16.0489 22.9678C16.0079 23.0146 15.9654 23.0596 15.9214 23.1035C15.7206 23.3047 15.4924 23.4766 15.2437 23.6143ZM10.2906 24.0586C10.6177 24.7712 10.8306 25.5308 10.9214 26.3096C11.1829 25.3943 11.617 24.5374 12.2002 23.7852C12.2459 23.7252 12.2953 23.6681 12.3482 23.6143C12.1002 23.4768 11.8727 23.3052 11.6724 23.1045C11.6294 23.0615 11.5879 23.0176 11.5479 22.9727C11.1743 23.3754 10.6976 23.6683 10.1695 23.8194C10.2152 23.8962 10.2557 23.9762 10.2906 24.0586ZM20.458 23.332C21.2271 23.963 21.8595 24.7442 22.3164 25.6279V10.9546C22.3157 10.2072 22.0359 9.48706 21.5319 8.9352C21.028 8.38334 20.3361 8.03955 19.5918 7.97119C19.4991 7.96289 19.4073 7.9585 19.3155 7.9585C18.7495 7.95892 18.1952 8.11931 17.7165 8.42116C17.2378 8.72302 16.8542 9.15406 16.6099 9.66455C17.5722 10.1755 18.3776 10.9382 18.9403 11.8712C19.503 12.8041 19.8017 13.8724 19.8047 14.9619V15.4663C19.8056 15.7946 19.7415 16.1199 19.6161 16.4233C19.4907 16.7268 19.3066 17.0024 19.0743 17.2344C19.0371 17.271 18.9991 17.3066 18.961 17.3404C19.0166 17.3797 19.07 17.4219 19.1211 17.4669C19.9391 18.1433 20.6028 18.9871 21.0674 19.9415L21.1436 20.0967L21.1817 20.2657C21.2696 20.6502 21.2807 21.0484 21.2142 21.4372C21.1476 21.826 21.0048 22.1979 20.794 22.5313C20.6438 22.7698 20.4611 22.986 20.251 23.1739C20.3235 23.2218 20.3927 23.2746 20.458 23.332ZM11.5122 17.9687C11.5623 18.0545 11.6059 18.144 11.6426 18.2363C11.6748 18.3037 11.7058 18.372 11.7354 18.4414C11.8345 18.2802 11.9395 18.122 12.0508 17.9687H11.5122ZM15.542 17.9687C15.6524 18.1211 15.7569 18.278 15.8555 18.4394C15.896 18.3437 15.938 18.248 15.9825 18.1533C16.0078 18.0895 16.038 18.0278 16.0728 17.9687H15.542Z" fill="white"/>
<path fill-rule="evenodd" clip-rule="evenodd" d="M25.8274 10.9546C25.8116 9.30005 25.167 7.71342 24.0244 6.51663C22.8818 5.31984 21.3267 4.60251 19.6746 4.51016C18.0225 4.41782 16.3971 4.95738 15.1282 6.01938C13.8593 7.08138 13.0419 8.58629 12.8418 10.2288C12.8312 10.3263 12.7922 10.4186 12.7296 10.4941C12.6671 10.5697 12.5838 10.6253 12.4899 10.6539C11.5636 10.9335 10.7516 11.5035 10.1739 12.2797C9.59624 13.056 9.28343 13.9974 9.28166 14.965V15.4663C9.28168 15.7322 9.38732 15.9872 9.57533 16.1753C9.76335 16.3633 10.0184 16.4689 10.2843 16.4689H17.3024C17.5683 16.4689 17.8233 16.3633 18.0113 16.1753C18.1993 15.9872 18.3049 15.7322 18.3049 15.4663V14.965C18.3025 14.0214 18.0042 13.1023 17.4521 12.337C16.9 11.5718 16.1218 10.9989 15.227 10.699C15.1127 10.6607 15.016 10.5824 14.9546 10.4786C14.8933 10.3747 14.8715 10.2522 14.8931 10.1336C15.0986 9.03116 15.7084 8.04521 16.6029 7.3689C17.4974 6.69259 18.6122 6.37467 19.7289 6.47742C20.8456 6.58018 21.8837 7.0962 22.6397 7.92439C23.3958 8.75258 23.8154 9.83325 23.8162 10.9546V27.4974C23.8162 27.7634 23.9219 28.0184 24.1099 28.2064C24.2979 28.3944 24.5529 28.5 24.8188 28.5C25.0847 28.5 25.3398 28.3944 25.5278 28.2064C25.7158 28.0184 25.8214 27.7634 25.8214 27.4974L25.8274 10.9546ZM13.3842 24.7062C12.8587 25.3815 12.4862 26.1628 12.2924 26.9961C12.2924 27.395 12.4509 27.7775 12.7329 28.0596C13.015 28.3416 13.3975 28.5 13.7963 28.5C14.1952 28.5 14.5777 28.3416 14.8598 28.0596C15.1418 27.7775 15.3002 27.395 15.3002 26.9961C15.1065 26.1628 14.7339 25.3815 14.2084 24.7062C14.1599 24.643 14.0976 24.5918 14.0261 24.5566C13.9546 24.5213 13.876 24.503 13.7963 24.503C13.7167 24.503 13.6381 24.5213 13.5666 24.5566C13.4951 24.5918 13.4327 24.643 13.3842 24.7062ZM12.2924 20.9806C12.4862 20.1473 12.8587 19.366 13.3842 18.6907C13.4327 18.6275 13.4951 18.5763 13.5666 18.5411C13.6381 18.5058 13.7167 18.4875 13.7963 18.4875C13.876 18.4875 13.9546 18.5058 14.0261 18.5411C14.0976 18.5763 14.1599 18.6275 14.2084 18.6907C14.7339 19.366 15.1065 20.1473 15.3002 20.9806C15.3002 21.3795 15.1418 21.762 14.8598 22.0441C14.5777 22.3261 14.1952 22.4845 13.7963 22.4845C13.3975 22.4845 13.015 22.3261 12.7329 22.0441C12.4509 21.762 12.2924 21.3795 12.2924 20.9806ZM8.56079 24.3523C8.48177 24.3329 8.39914 24.3337 8.32049 24.3545C8.24183 24.3754 8.16967 24.4157 8.11063 24.4716C7.44825 25.013 6.91178 25.6921 6.53856 26.4618C6.49405 26.6547 6.48804 26.8544 6.52087 27.0496C6.5537 27.2447 6.62474 27.4315 6.72989 27.5991C6.83505 27.7668 6.97227 27.912 7.13368 28.0265C7.29509 28.1411 7.47751 28.2226 7.67049 28.2664C7.78103 28.2916 7.89401 28.3043 8.00736 28.3045C8.34776 28.304 8.67789 28.188 8.94378 27.9754C9.20967 27.7629 9.39559 27.4665 9.47114 27.1345C9.46751 26.2789 9.278 25.4343 8.91571 24.6591C8.88607 24.5829 8.83823 24.5151 8.77637 24.4617C8.7145 24.4082 8.64049 24.3707 8.56079 24.3523ZM9.6572 18.4903C9.73574 18.4695 9.81821 18.4685 9.89725 18.4872C9.97569 18.5056 10.0485 18.5426 10.1096 18.5952C10.1707 18.6477 10.2182 18.7142 10.2482 18.7889C10.6129 19.5635 10.8048 20.4082 10.8106 21.2643C10.7208 21.6522 10.4809 21.9887 10.1435 22.2002C9.80616 22.4117 9.39876 22.4809 9.01048 22.3928C8.62219 22.3046 8.28463 22.0662 8.07165 21.7298C7.85868 21.3934 7.78762 20.9863 7.87404 20.5976C8.24725 19.8274 8.7841 19.1479 9.44711 18.6065C9.50651 18.5511 9.57868 18.5112 9.6572 18.4903ZM19.482 24.4716C19.4225 24.4164 19.3503 24.3766 19.2718 24.3558C19.1933 24.335 19.1109 24.3338 19.0318 24.3523C18.953 24.3702 18.8796 24.4069 18.8179 24.4593C18.7563 24.5116 18.7083 24.5782 18.6779 24.6531C18.3155 25.4282 18.1264 26.2729 18.1235 27.1285C18.1988 27.4605 18.3845 27.757 18.6502 27.9698C18.916 28.1825 19.246 28.2987 19.5863 28.2995C19.6997 28.2993 19.8126 28.2866 19.9231 28.2614C20.1161 28.2176 20.2985 28.136 20.4599 28.0215C20.6213 27.907 20.7585 27.7617 20.8637 27.5941C20.9688 27.4264 21.0399 27.2397 21.0727 27.0445C21.1056 26.8494 21.0996 26.6497 21.0551 26.4568C20.681 25.6888 20.1442 25.0114 19.482 24.4716ZM19.5248 21.731C19.3124 22.0685 18.9746 22.3078 18.5857 22.3963V22.3953C18.1971 22.4834 17.7895 22.4137 17.4522 22.2014C17.115 21.9892 16.8757 21.6518 16.787 21.2633C16.7897 20.4077 16.979 19.563 17.3415 18.7879C17.3719 18.713 17.4199 18.6465 17.4816 18.5941C17.5432 18.5418 17.6166 18.5051 17.6954 18.4872C17.7745 18.4685 17.8569 18.4695 17.9355 18.4904C18.014 18.5112 18.0862 18.5511 18.1455 18.6065C18.8083 19.1477 19.3452 19.8268 19.7186 20.5966C19.807 20.9855 19.7373 21.3936 19.5248 21.731Z" fill="#4085C6"/>
</svg>
