<svg width="32" height="32" viewBox="0 0 32 32" fill="none" xmlns="http://www.w3.org/2000/svg">
<path d="M27.176 23.4984C27.1745 22.3056 26.7 21.1621 25.8566 20.3186C25.0131 19.4752 23.8696 19.0007 22.6768 18.9993C22.5439 18.9993 22.4193 19.0269 22.2892 19.038L20.771 14.5721L21.6321 14.3571C21.7504 14.3283 21.8619 14.2765 21.96 14.2045C22.0582 14.1324 22.1412 14.0417 22.2041 13.9375C22.2671 13.8333 22.3088 13.7177 22.3269 13.5973C22.345 13.4769 22.3391 13.3541 22.3095 13.236C22.2799 13.1179 22.2272 13.0068 22.1545 12.9091C22.0818 12.8115 21.9905 12.7292 21.8859 12.667C21.7812 12.6047 21.6653 12.5638 21.5447 12.5466C21.4242 12.5294 21.3015 12.5362 21.1836 12.5666L19.838 12.9035C19.651 12.9504 19.4759 13.0359 19.3239 13.1544C19.1719 13.2729 19.0463 13.4218 18.9552 13.5917C18.864 13.7615 18.8094 13.9485 18.7947 14.1407C18.78 14.3329 18.8056 14.526 18.8699 14.7078L19.2344 15.7793C19.2538 15.8362 19.2502 15.8985 19.2243 15.9528C19.1984 16.0071 19.1524 16.0491 19.096 16.07L14.4298 17.7875C14.3763 17.8071 14.3174 17.8062 14.2644 17.7851C14.2115 17.764 14.1682 17.7241 14.1428 17.673L13.6601 16.692H13.7939C14.0387 16.692 14.2734 16.5948 14.4465 16.4217C14.6196 16.2486 14.7168 16.0139 14.7168 15.7691C14.7168 15.5243 14.6196 15.2896 14.4465 15.1165C14.2734 14.9434 14.0387 14.8462 13.7939 14.8462H11.0252C10.7805 14.8462 10.5457 14.9434 10.3726 15.1165C10.1996 15.2896 10.1023 15.5243 10.1023 15.7691C10.1023 16.0139 10.1996 16.2486 10.3726 16.4217C10.5457 16.5948 10.7805 16.692 11.0252 16.692H11.6039L12.9412 19.4146C13.0173 19.5699 13.1355 19.7007 13.2824 19.7921C13.4292 19.8835 13.5988 19.9317 13.7718 19.9314C14.9073 19.6174 16.0209 19.2289 17.1053 18.7685C17.152 18.7513 17.203 18.7496 17.2507 18.7637C17.2984 18.7778 17.3402 18.807 17.37 18.8468C17.3998 18.8867 17.4159 18.9351 17.4159 18.9849C17.416 19.0346 17.3999 19.083 17.3702 19.1229L14.7168 22.6909H13.9434C13.7457 21.5934 13.1481 20.6083 12.2663 19.9258C11.3845 19.2432 10.281 18.9118 9.16902 18.9955C8.05707 19.0793 7.01562 19.5722 6.24594 20.3791C5.47626 21.1859 5.03298 22.2494 5.00177 23.3641C4.97056 24.4788 5.35363 25.5654 6.07696 26.4141C6.80029 27.2628 7.81252 27.8132 8.91804 27.959C10.0236 28.1048 11.1439 27.8357 12.0625 27.2036C12.9812 26.5715 13.6329 25.6213 13.8917 24.5367H15.1718C15.3146 24.5276 15.4543 24.4904 15.5826 24.427C15.7109 24.3636 15.8254 24.2754 15.9194 24.1675L19.8878 18.8294C19.913 18.7958 19.9468 18.7696 19.9858 18.7538C20.0247 18.7379 20.0672 18.733 20.1087 18.7396C20.1502 18.7461 20.1891 18.7639 20.2213 18.7909C20.2534 18.818 20.2776 18.8533 20.2911 18.8931L20.5237 19.5751C19.829 19.9569 19.2478 20.5157 18.8391 21.1949C18.4304 21.874 18.2087 22.6493 18.1967 23.4419C18.1846 24.2344 18.3826 25.0161 18.7706 25.7073C19.1585 26.3986 19.7225 26.9748 20.4052 27.3775C21.088 27.7801 21.8652 27.9949 22.6578 27.9999C23.4505 28.0049 24.2303 27.7999 24.9181 27.4059C25.6058 27.0118 26.177 26.4427 26.5736 25.7564C26.9702 25.0701 27.178 24.291 27.176 23.4984ZM9.52551 26.1517C9.0351 26.154 8.55363 26.0204 8.13458 25.7656C7.71553 25.5109 7.37528 25.145 7.15162 24.7085C6.92796 24.2721 6.82964 23.7822 6.86757 23.2932C6.9055 22.8043 7.07819 22.3354 7.36649 21.9387C7.65478 21.5419 8.04739 21.2328 8.50072 21.0458C8.95405 20.8587 9.45036 20.8009 9.93455 20.8788C10.4187 20.9567 10.8719 21.1673 11.2436 21.4872C11.6153 21.8071 11.8911 22.2237 12.0404 22.6909H9.75439C9.50962 22.6909 9.27488 22.7881 9.1018 22.9612C8.92872 23.1342 8.83149 23.369 8.83149 23.6138C8.83149 23.8585 8.92872 24.0933 9.1018 24.2663C9.27488 24.4394 9.50962 24.5367 9.75439 24.5367H11.9693C11.765 25.0157 11.4245 25.4241 10.99 25.7112C10.5555 25.9984 10.0463 26.1515 9.52551 26.1517ZM22.6768 26.1517C22.1156 26.1534 21.5684 25.9766 21.1142 25.647C20.66 25.3173 20.3223 24.8518 20.15 24.3177C19.9776 23.7836 19.9795 23.2086 20.1553 22.6756C20.3312 22.1426 20.6719 21.6793 21.1282 21.3526L21.9191 23.6793C22.0045 23.9023 22.1729 24.0835 22.3891 24.185C22.6053 24.2864 22.8524 24.3 23.0784 24.2231C23.3045 24.1461 23.4919 23.9846 23.6014 23.7723C23.7108 23.5601 23.7337 23.3137 23.6653 23.0849L22.9122 20.87C23.5916 20.9297 24.2217 21.2494 24.6711 21.7624C25.1204 22.2755 25.3543 22.9422 25.324 23.6236C25.2936 24.3049 25.0013 24.9482 24.5081 25.4193C24.0149 25.8903 23.3588 26.1527 22.6768 26.1517Z" fill="#51247A"/>
<path d="M26.8587 13.1994L17.3184 4.48883C16.979 4.17458 16.5335 4 16.071 4C15.6085 4 15.163 4.17458 14.8236 4.48883L5.28702 13.1994C5.11183 13.3661 5.00899 13.5948 5.00056 13.8365C4.99213 14.0782 5.0788 14.3136 5.24195 14.4921C5.4051 14.6706 5.63174 14.778 5.87321 14.7913C6.11468 14.8046 6.35174 14.7227 6.5335 14.5632L15.7615 6.13724C15.8466 6.05958 15.9577 6.01653 16.0729 6.01653C16.1881 6.01653 16.2991 6.05958 16.3843 6.13724L25.6122 14.5632C25.794 14.7227 26.0311 14.8046 26.2725 14.7913C26.514 14.778 26.7406 14.6706 26.9038 14.4921C27.0669 14.3136 27.1536 14.0782 27.1452 13.8365C27.1367 13.5948 27.0339 13.3661 26.8587 13.1994Z" fill="#51247A"/>
</svg>
