<svg width="32" height="32" viewBox="0 0 32 32" fill="none" xmlns="http://www.w3.org/2000/svg">
<path d="M25.6 22.4C26.2365 22.4 26.847 22.1471 27.2971 21.6971C27.7471 21.247 28 20.6365 28 20V7.4C28 6.76348 27.7471 6.15303 27.2971 5.70294C26.847 5.25286 26.2365 5 25.6 5H6.4C5.76348 5 5.15303 5.25286 4.70294 5.70294C4.25286 6.15303 4 6.76348 4 7.4V20C4 20.6365 4.25286 21.247 4.70294 21.6971C5.15303 22.1471 5.76348 22.4 6.4 22.4H14.5C14.5796 22.4 14.6559 22.4316 14.7121 22.4879C14.7684 22.5441 14.8 22.6204 14.8 22.7V23.9C14.8 23.9796 14.7684 24.0559 14.7121 24.1121C14.6559 24.1684 14.5796 24.2 14.5 24.2H8.5C8.18174 24.2 7.87652 24.3264 7.65147 24.5515C7.42643 24.7765 7.3 25.0817 7.3 25.4C7.3 25.7183 7.42643 26.0235 7.65147 26.2485C7.87652 26.4736 8.18174 26.6 8.5 26.6H23.5C23.8183 26.6 24.1235 26.4736 24.3485 26.2485C24.5736 26.0235 24.7 25.7183 24.7 25.4C24.7 25.0817 24.5736 24.7765 24.3485 24.5515C24.1235 24.3264 23.8183 24.2 23.5 24.2H17.5C17.4204 24.2 17.3441 24.1684 17.2879 24.1121C17.2316 24.0559 17.2 23.9796 17.2 23.9V22.7C17.2 22.6204 17.2316 22.5441 17.2879 22.4879C17.3441 22.4316 17.4204 22.4 17.5 22.4H25.6ZM25.3 7.4C25.3796 7.4 25.4559 7.43161 25.5121 7.48787C25.5684 7.54413 25.6 7.62044 25.6 7.7V17.9C25.6 17.9796 25.5684 18.0559 25.5121 18.1121C25.4559 18.1684 25.3796 18.2 25.3 18.2H6.7C6.62044 18.2 6.54413 18.1684 6.48787 18.1121C6.43161 18.0559 6.4 17.9796 6.4 17.9V7.7C6.4 7.62044 6.43161 7.54413 6.48787 7.48787C6.54413 7.43161 6.62044 7.4 6.7 7.4H25.3Z" fill="white"/>
<path d="M15.9975 16C16.1678 16.0001 16.337 15.9718 16.4979 15.9164L18.3324 15.2715C18.5277 15.203 18.6967 15.0759 18.8163 14.9079C18.9358 14.7398 19 14.539 19 14.3331V13.4972C18.9999 13.4184 18.9811 13.3407 18.9449 13.2706C18.9088 13.2005 18.8564 13.1399 18.7921 13.0938C18.7278 13.0478 18.6534 13.0176 18.575 13.0057C18.4967 12.9938 18.4166 13.0006 18.3415 13.0255L16.2347 13.7221C16.0805 13.7718 15.9145 13.7718 15.7603 13.7221L13.6585 13.0255C13.5834 13.0006 13.5033 12.9938 13.425 13.0057C13.3466 13.0176 13.2722 13.0478 13.2079 13.0938C13.1436 13.1399 13.0912 13.2005 13.0551 13.2706C13.0189 13.3407 13.0001 13.4184 13 13.4972V14.3331C13 14.539 13.0642 14.7398 13.1837 14.9079C13.3033 15.0759 13.4723 15.203 13.6676 15.2715L15.5031 15.9164C15.6621 15.9713 15.8292 15.9996 15.9975 16Z" fill="white"/>
<path d="M16.1607 9.02563C16.058 8.99146 15.9471 8.99146 15.8445 9.02563L11.3422 10.5263C11.2429 10.5594 11.1565 10.6227 11.0952 10.7074C11.0338 10.7922 11.0005 10.894 11 10.9986V13.4998C11 13.6324 11.0527 13.7597 11.1465 13.8535C11.2403 13.9473 11.3676 14 11.5003 14C11.6329 14 11.7602 13.9473 11.854 13.8535C11.9478 13.7597 12.0005 13.6324 12.0005 13.4998V12.0391C12.0003 12.0002 12.0092 11.9618 12.0266 11.927C12.044 11.8923 12.0693 11.8621 12.1006 11.839C12.1327 11.8158 12.1698 11.8006 12.2089 11.7945C12.248 11.7884 12.2881 11.7916 12.3257 11.804L15.8405 12.9755C15.943 13.0102 16.0541 13.0102 16.1566 12.9755L20.659 11.4748C20.7583 11.4414 20.8447 11.3777 20.9059 11.2926C20.9671 11.2075 21 11.1054 21 11.0006C21 10.8958 20.9671 10.7936 20.9059 10.7085C20.8447 10.6234 20.7583 10.5597 20.659 10.5263L16.1607 9.02563Z" fill="white"/>
</svg>
