<svg width="32" height="32" viewBox="0 0 32 32" fill="none" xmlns="http://www.w3.org/2000/svg">
<path d="M25.6 22.4C26.2365 22.4 26.847 22.1471 27.2971 21.6971C27.7471 21.247 28 20.6365 28 20V7.4C28 6.76348 27.7471 6.15303 27.2971 5.70294C26.847 5.25286 26.2365 5 25.6 5H6.4C5.76348 5 5.15303 5.25286 4.70294 5.70294C4.25286 6.15303 4 6.76348 4 7.4V20C4 20.6365 4.25286 21.247 4.70294 21.6971C5.15303 22.1471 5.76348 22.4 6.4 22.4H14.5C14.5796 22.4 14.6559 22.4316 14.7121 22.4879C14.7684 22.5441 14.8 22.6204 14.8 22.7V23.9C14.8 23.9796 14.7684 24.0559 14.7121 24.1121C14.6559 24.1684 14.5796 24.2 14.5 24.2H8.5C8.18174 24.2 7.87652 24.3264 7.65147 24.5515C7.42643 24.7765 7.3 25.0817 7.3 25.4C7.3 25.7183 7.42643 26.0235 7.65147 26.2485C7.87652 26.4736 8.18174 26.6 8.5 26.6H23.5C23.8183 26.6 24.1235 26.4736 24.3485 26.2485C24.5736 26.0235 24.7 25.7183 24.7 25.4C24.7 25.0817 24.5736 24.7765 24.3485 24.5515C24.1235 24.3264 23.8183 24.2 23.5 24.2H17.5C17.4204 24.2 17.3441 24.1684 17.2879 24.1121C17.2316 24.0559 17.2 23.9796 17.2 23.9V22.7C17.2 22.6204 17.2316 22.5441 17.2879 22.4879C17.3441 22.4316 17.4204 22.4 17.5 22.4H25.6ZM25.3 7.4C25.3796 7.4 25.4559 7.43161 25.5121 7.48787C25.5684 7.54413 25.6 7.62044 25.6 7.7V17.9C25.6 17.9796 25.5684 18.0559 25.5121 18.1121C25.4559 18.1684 25.3796 18.2 25.3 18.2H6.7C6.62044 18.2 6.54413 18.1684 6.48787 18.1121C6.43161 18.0559 6.4 17.9796 6.4 17.9V7.7C6.4 7.62044 6.43161 7.54413 6.48787 7.48787C6.54413 7.43161 6.62044 7.4 6.7 7.4H25.3Z" fill="#51247A"/>
</svg>
