<svg width="32" height="32" viewBox="0 0 32 32" fill="none" xmlns="http://www.w3.org/2000/svg">
<path fill-rule="evenodd" clip-rule="evenodd" d="M15.5084 29C13.2877 29.0014 11.101 28.4549 9.14199 27.4091C7.18302 26.3632 5.51229 24.8502 4.27788 23.0043C3.04347 21.1583 2.2835 19.0363 2.06532 16.8264C1.84714 14.6164 2.17749 12.3868 3.02709 10.3351C3.8767 8.28334 5.21932 6.47288 6.93596 5.06414C8.6526 3.6554 10.6903 2.69189 12.8683 2.25899C15.0464 1.8261 17.2976 1.93719 19.4225 2.58242C21.5474 3.22765 23.4803 4.38709 25.0499 5.958C26.9381 7.84524 28.2242 10.2501 28.7455 12.8684C29.2669 15.4866 28.9999 18.2007 27.9786 20.6673C26.9572 23.1338 25.2272 25.2421 23.0075 26.7253C20.7878 28.2085 18.178 29.0002 15.5084 29Z" fill="white"/>
<path d="M14.7579 11H16.5079C17.0383 11 17.547 11.2107 17.9221 11.5858C18.2972 11.9609 18.5079 12.4696 18.5079 13C18.5079 13.5304 18.2972 14.0391 17.9221 14.4142C17.547 14.7893 17.0383 15 16.5079 15H14.7579C14.725 15 14.6925 14.9936 14.6622 14.981C14.6319 14.9684 14.6043 14.95 14.5811 14.9268C14.5579 14.9036 14.5394 14.876 14.5269 14.8457C14.5143 14.8153 14.5079 14.7828 14.5079 14.75V11.25C14.5079 11.2172 14.5143 11.1847 14.5269 11.1543C14.5394 11.124 14.5579 11.0964 14.5811 11.0732C14.6043 11.05 14.6319 11.0316 14.6622 11.019C14.6925 11.0064 14.725 11 14.7579 11Z" fill="#4085C6"/>
<path fill-rule="evenodd" clip-rule="evenodd" d="M8.84104 5.52239C11.2336 3.92374 14.1209 3.23804 16.9768 3.59027C19.8327 3.94251 22.4669 5.30923 24.3993 7.44131C26.3317 9.5734 27.4337 12.3289 27.5043 15.2055C27.5749 18.0822 26.6095 20.8884 24.784 23.1127C22.9586 25.3371 20.3946 26.8314 17.5594 27.3234C14.7243 27.8153 11.8068 27.2721 9.33867 25.7928C6.87055 24.3134 5.01618 21.9965 4.11356 19.2642C3.21093 16.5319 3.32016 13.5663 4.42133 10.9078C5.32958 8.71512 6.86765 6.84097 8.84104 5.52239ZM14.7579 17H16.5079C17.5687 17 18.5862 16.5786 19.3363 15.8285C20.0865 15.0783 20.5079 14.0609 20.5079 13C20.5079 11.9392 20.0865 10.9218 19.3363 10.1716C18.5862 9.42146 17.5687 9.00004 16.5079 9.00004H13.5079C13.2427 9.00004 12.9883 9.10539 12.8008 9.29293C12.6132 9.48046 12.5079 9.73482 12.5079 10V22C12.5079 22.2653 12.6132 22.5196 12.8008 22.7071C12.9883 22.8947 13.2427 23 13.5079 23C13.7731 23 14.0275 22.8947 14.215 22.7071C14.4025 22.5196 14.5079 22.2653 14.5079 22V17.25C14.5079 17.2172 14.5143 17.1847 14.5269 17.1544C14.5395 17.124 14.5579 17.0965 14.5811 17.0732C14.6043 17.05 14.6319 17.0316 14.6622 17.019C14.6925 17.0065 14.725 17 14.7579 17Z" fill="#4085C6"/>
</svg>
