<svg width="32" height="32" viewBox="0 0 32 32" fill="none" xmlns="http://www.w3.org/2000/svg">
<path d="M21.1639 20.155C20.6951 19.6864 20.0593 19.4231 19.3964 19.4231C18.7335 19.4231 18.0977 19.6864 17.6289 20.155L17.2439 20.54C15.1489 18.7827 13.2119 16.8453 11.4549 14.75L11.8409 14.366C12.3084 13.8964 12.5709 13.2607 12.5709 12.598C12.5709 11.9354 12.3084 11.2997 11.8409 10.83L9.7179 8.70804C9.24909 8.23936 8.61331 7.97607 7.9504 7.97607C7.28749 7.97607 6.65172 8.23936 6.1829 8.70804L5.0189 9.87304C4.4516 10.4444 4.09806 11.1935 4.01758 11.9947C3.9371 12.7958 4.13458 13.6002 4.5769 14.273C8.03695 19.4871 12.5053 23.9562 17.7189 27.417C18.3937 27.8534 19.1968 28.0474 19.9964 27.967C20.7959 27.8867 21.5444 27.5369 22.1189 26.975L23.2839 25.811C23.7526 25.3422 24.0159 24.7065 24.0159 24.0435C24.0159 23.3806 23.7526 22.7449 23.2839 22.276L21.1639 20.155Z" fill="#51247A"/>
<path d="M15.4969 4C15.2317 4 14.9773 4.10536 14.7898 4.29289C14.6023 4.48043 14.4969 4.73478 14.4969 5C14.4969 5.26522 14.6023 5.51957 14.7898 5.70711C14.9773 5.89464 15.2317 6 15.4969 6C18.2807 6.00318 20.9496 7.11044 22.918 9.07889C24.8865 11.0473 25.9937 13.7162 25.9969 16.5C25.9969 16.7652 26.1023 17.0196 26.2898 17.2071C26.4773 17.3946 26.7317 17.5 26.9969 17.5C27.2621 17.5 27.5165 17.3946 27.704 17.2071C27.8915 17.0196 27.9969 16.7652 27.9969 16.5C27.9929 13.186 26.6747 10.0089 24.3314 7.66555C21.988 5.32221 18.8109 4.00397 15.4969 4Z" fill="#51247A"/>
<path d="M15.4969 10C17.2202 10.0021 18.8722 10.6876 20.0908 11.9061C21.3093 13.1247 21.9948 14.7767 21.9969 16.5C21.9969 16.7652 22.1023 17.0196 22.2898 17.2071C22.4773 17.3946 22.7317 17.5 22.9969 17.5C23.2621 17.5 23.5165 17.3946 23.704 17.2071C23.8915 17.0196 23.9969 16.7652 23.9969 16.5C23.9943 14.2465 23.0979 12.086 21.5044 10.4925C19.9109 8.89903 17.7504 8.00265 15.4969 8C15.2317 8 14.9773 8.10536 14.7898 8.29289C14.6023 8.48043 14.4969 8.73478 14.4969 9C14.4969 9.26522 14.6023 9.51957 14.7898 9.70711C14.9773 9.89464 15.2317 10 15.4969 10Z" fill="#51247A"/>
<path d="M15.4969 14C16.1599 14 16.7958 14.2634 17.2647 14.7322C17.7335 15.2011 17.9969 15.837 17.9969 16.5C17.9969 16.7652 18.1023 17.0196 18.2898 17.2071C18.4773 17.3946 18.7317 17.5 18.9969 17.5C19.2621 17.5 19.5165 17.3946 19.704 17.2071C19.8915 17.0196 19.9969 16.7652 19.9969 16.5C19.9956 15.3069 19.5211 14.1631 18.6774 13.3195C17.8338 12.4759 16.69 12.0013 15.4969 12C15.2317 12 14.9773 12.1054 14.7898 12.2929C14.6023 12.4804 14.4969 12.7348 14.4969 13C14.4969 13.2652 14.6023 13.5196 14.7898 13.7071C14.9773 13.8946 15.2317 14 15.4969 14Z" fill="#51247A"/>
</svg>
