<svg width="32" height="32" viewBox="0 0 32 32" fill="none" xmlns="http://www.w3.org/2000/svg">
<path fill-rule="evenodd" clip-rule="evenodd" d="M14.9998 29.501C14.2756 29.5022 13.569 29.2776 12.9784 28.8584C12.8095 28.7387 12.6512 28.6048 12.5052 28.458C12.3337 28.7739 12.0801 29.0376 11.7711 29.2212C11.4621 29.4048 11.1093 29.5015 10.7498 29.501H7.37485C6.64376 29.5009 5.93789 29.2338 5.38987 28.7498C4.84185 28.2659 4.48941 27.5986 4.39876 26.8731L2.52377 11.8726C2.47106 11.4509 2.50858 11.0227 2.63383 10.6165C2.75909 10.2104 2.96923 9.83545 3.25033 9.51662C3.53202 9.19782 3.87797 8.94222 4.26547 8.76662C4.65319 8.59076 5.0741 8.50002 5.49985 8.50051H8.59262L8.89731 5.62844C8.94874 5.14732 9.09937 4.68208 9.33967 4.2621C9.57997 3.84212 9.90473 3.47652 10.2934 3.18838C10.6822 2.90023 11.1264 2.6958 11.5981 2.588C12.0698 2.48019 12.5587 2.47134 13.034 2.56201L17.47 3.41162C18.1221 3.54698 18.6937 3.93563 19.0594 4.49219C19.306 4.86937 19.4461 5.3062 19.4648 5.75645C19.4835 6.20671 19.3801 6.65365 19.1656 7.04998C18.9511 7.4463 18.6335 7.77727 18.2463 8.00785C17.8591 8.23844 17.4168 8.36006 16.9661 8.35986C16.8366 8.35974 16.7073 8.34962 16.5794 8.32959L13.6932 7.77734L13.616 8.50049H16.4998C16.925 8.50065 17.3454 8.59119 17.733 8.7661C18.1206 8.94102 18.4665 9.19631 18.748 9.51507C19.0294 9.83383 19.2399 10.2088 19.3655 10.615C19.4911 11.0213 19.5289 11.4496 19.4764 11.8716L19.2225 13.9912C19.2009 14.166 19.1566 14.3372 19.0906 14.5005H22.9998C24.3233 14.4992 25.6028 14.9752 26.6037 15.8411C27.6045 16.7071 28.2596 17.9049 28.4485 19.2148C28.5136 19.6668 28.4223 20.1275 28.1898 20.5205C28.3448 20.627 28.4896 20.7477 28.6224 20.8809C28.9015 21.1587 29.1228 21.4891 29.2734 21.853C29.424 22.217 29.501 22.6071 29.4998 23.001C29.4977 23.7961 29.1821 24.5583 28.6214 25.1221C28.4778 25.266 28.32 25.395 28.1502 25.5068C28.2921 25.755 28.3792 26.0308 28.4057 26.3154C28.4321 26.6001 28.3973 26.8871 28.3035 27.1572C28.064 27.8423 27.6173 28.4359 27.0254 28.8559C26.4335 29.2758 25.7256 29.5013 24.9998 29.501H14.9998Z" fill="white"/>
<path fill-rule="evenodd" clip-rule="evenodd" d="M17.9326 11.0575C17.9954 11.2606 18.0143 11.4747 17.9881 11.6856L17.7331 13.8126C17.7179 13.9342 17.6585 14.046 17.5664 14.1267C17.4742 14.2074 17.3556 14.2515 17.2331 14.2506H16.226C16.1548 14.2511 16.0843 14.2365 16.0192 14.2075C15.9541 14.1786 15.896 14.1361 15.8486 14.0829C15.8013 14.0297 15.7659 13.967 15.7447 13.899C15.7236 13.831 15.7172 13.7593 15.726 13.6886L15.867 12.5626C15.8759 12.4919 15.8695 12.4202 15.8484 12.3522C15.8272 12.2842 15.7918 12.2214 15.7445 12.1682C15.6971 12.115 15.639 12.0725 15.5739 12.0436C15.5088 12.0147 15.4383 12 15.367 12.0006H12.185C12.0616 12.0006 11.9426 12.0463 11.8508 12.1288C11.7591 12.2113 11.7011 12.3249 11.688 12.4476L10.494 23.6006C10.4676 23.8456 10.3517 24.0723 10.1684 24.2371C9.98516 24.4019 9.7475 24.4933 9.50103 24.4936H9.39303C9.12964 24.4651 8.88832 24.3333 8.72202 24.1271C8.55573 23.9208 8.47805 23.657 8.50603 23.3936L9.66803 12.5536C9.67551 12.4836 9.66813 12.4129 9.64637 12.3459C9.62461 12.279 9.58896 12.2174 9.54176 12.1652C9.49457 12.113 9.43688 12.0714 9.37248 12.043C9.30807 12.0146 9.23841 12.0002 9.16803 12.0006H6.63303C6.56181 12 6.49129 12.0147 6.4262 12.0436C6.3611 12.0725 6.30294 12.115 6.25559 12.1682C6.20825 12.2214 6.17282 12.2841 6.15169 12.3522C6.13055 12.4202 6.12419 12.4919 6.13303 12.5626L7.75803 25.5626C7.77323 25.6842 7.83254 25.796 7.92471 25.8767C8.01689 25.9575 8.1355 26.0015 8.25803 26.0006H10.75C10.8826 26.0006 11.0098 26.0533 11.1036 26.147C11.1974 26.2408 11.25 26.368 11.25 26.5006V27.5006C11.25 27.6332 11.1973 27.7603 11.1035 27.8541C11.0098 27.9479 10.8826 28.0006 10.75 28.0006H7.37503C7.0095 28.0005 6.6566 27.8669 6.3826 27.6249C6.10861 27.383 5.93239 27.0493 5.88703 26.6866L4.01203 11.6866C3.98567 11.4756 4.00446 11.2614 4.06718 11.0582C4.1299 10.855 4.23511 10.6675 4.37582 10.508C4.51653 10.3486 4.68954 10.2209 4.88336 10.1334C5.07718 10.0459 5.28738 10.0007 5.50003 10.0006H9.48903C9.61295 10.0013 9.73271 9.95592 9.82509 9.87332C9.91747 9.79073 9.97589 9.67677 9.98903 9.55355L10.389 5.78655C10.4185 5.5117 10.5047 5.24594 10.6421 5.00606C10.7795 4.76618 10.9651 4.55738 11.1872 4.39285C11.4093 4.22832 11.6632 4.11162 11.9327 4.05012C12.2022 3.98862 12.4815 3.98366 12.753 4.03555L17.188 4.88455C17.441 4.942 17.6617 5.09549 17.8037 5.31264C17.9456 5.52978 17.9976 5.79358 17.9486 6.04833C17.8997 6.30308 17.7537 6.52885 17.5414 6.67798C17.3292 6.8271 17.0673 6.8879 16.811 6.84755L12.911 6.10055C12.8428 6.0871 12.7726 6.08802 12.7048 6.10325C12.637 6.11848 12.5731 6.14768 12.5172 6.18899C12.4613 6.2303 12.4146 6.28281 12.3801 6.34317C12.3457 6.40353 12.3242 6.47042 12.317 6.53955L12.006 9.44755C11.9986 9.51752 12.006 9.58828 12.0278 9.65519C12.0495 9.72211 12.0852 9.78368 12.1324 9.83587C12.1796 9.88807 12.2372 9.92972 12.3016 9.95811C12.366 9.98649 12.4357 10.001 12.506 10.0006H16.5C16.8204 10.0007 17.1323 10.1034 17.39 10.2936C17.6478 10.4837 17.8379 10.7515 17.9325 11.0575H17.9326ZM17 16.0005H23C23.9628 15.9993 24.8937 16.3455 25.6219 16.9753C26.35 17.6052 26.8266 18.4766 26.964 19.4295C26.9743 19.5009 26.969 19.5736 26.9485 19.6427C26.928 19.7118 26.8928 19.7757 26.8453 19.8299C26.7978 19.8842 26.7391 19.9275 26.6733 19.9569C26.6075 19.9864 26.5361 20.0012 26.464 20.0005H13.54C13.4679 20.0013 13.3964 19.9864 13.3305 19.9569C13.2646 19.9274 13.2059 19.8839 13.1584 19.8296C13.1109 19.7752 13.0757 19.7113 13.0553 19.642C13.0348 19.5728 13.0296 19.4999 13.04 19.4285C13.1776 18.4764 13.6536 17.6058 14.3809 16.9762C15.1082 16.3466 16.0381 16.0002 17 16.0005ZM16.8333 18.3741C16.9829 18.4741 17.1634 18.5169 17.3419 18.4949C17.5204 18.4729 17.6851 18.3875 17.8059 18.2543C17.9267 18.121 17.9956 17.9487 18.0001 17.7689C18.0045 17.5891 17.9441 17.4137 17.83 17.2746C17.7159 17.1356 17.5557 17.0421 17.3784 17.0114C17.2012 16.9806 17.0188 17.0146 16.8645 17.107C16.7103 17.1995 16.5943 17.3443 16.5379 17.5151C16.4815 17.6859 16.4883 17.8713 16.5571 18.0375C16.6139 18.1746 16.71 18.2917 16.8334 18.3741H16.8333ZM19.5833 18.8741C19.7329 18.9741 19.9134 19.0169 20.0919 18.9949C20.2704 18.9729 20.4351 18.8875 20.5559 18.7543C20.6767 18.621 20.7456 18.4487 20.7501 18.2689C20.7545 18.0891 20.6941 17.9137 20.58 17.7746C20.4659 17.6356 20.3057 17.5421 20.1284 17.5114C19.9512 17.4806 19.7688 17.5146 19.6145 17.607C19.4603 17.6995 19.3443 17.8443 19.2879 18.0151C19.2315 18.1859 19.2383 18.3713 19.3071 18.5375C19.3639 18.6746 19.46 18.7917 19.5834 18.8741H19.5833ZM22.3333 18.3741C22.4829 18.4741 22.6634 18.5169 22.8419 18.4949C23.0204 18.4729 23.1851 18.3875 23.3059 18.2543C23.4267 18.121 23.4956 17.9487 23.5001 17.7689C23.5045 17.5891 23.4441 17.4137 23.33 17.2746C23.2159 17.1356 23.0557 17.0421 22.8784 17.0114C22.7012 16.9806 22.5188 17.0146 22.3645 17.107C22.2103 17.1995 22.0943 17.3443 22.0379 17.5151C21.9815 17.6859 21.9883 17.8713 22.0571 18.0375C22.1139 18.1746 22.21 18.2917 22.3334 18.3741H22.3333ZM27.5606 24.0613C27.7704 23.8515 27.9132 23.5842 27.9711 23.2933C28.029 23.0023 27.9993 22.7007 27.8858 22.4266C27.7723 22.1526 27.58 21.9183 27.3334 21.7535C27.0867 21.5886 26.7967 21.5006 26.5 21.5006H13.5C13.1022 21.5006 12.7207 21.6586 12.4394 21.9399C12.1581 22.2212 12 22.6028 12 23.0006C12 23.3984 12.1581 23.78 12.4394 24.0613C12.7207 24.3426 13.1022 24.5006 13.5 24.5006H26.5C26.697 24.5006 26.8921 24.4618 27.074 24.3864C27.256 24.3111 27.4214 24.2006 27.5607 24.0613H27.5606ZM26.415 26.0006C26.4949 26.0007 26.5736 26.02 26.6445 26.0568C26.7154 26.0935 26.7764 26.1468 26.8225 26.212C26.8687 26.2772 26.8985 26.3525 26.9095 26.4316C26.9206 26.5107 26.9125 26.5913 26.886 26.6666C26.7482 27.0567 26.4928 27.3945 26.1551 27.6334C25.8173 27.8723 25.4138 28.0006 25 28.0006H15C14.5864 28.0008 14.1829 27.8726 13.8451 27.6339C13.5074 27.3952 13.2519 27.0576 13.114 26.6676C13.0873 26.5922 13.0791 26.5115 13.09 26.4322C13.1009 26.353 13.1307 26.2775 13.1769 26.2122C13.223 26.1468 13.2842 26.0935 13.3552 26.0567C13.4262 26.0199 13.505 26.0006 13.585 26.0006H26.415Z" fill="#EB602B"/>
</svg>
