<svg width="32" height="32" viewBox="0 0 32 32" fill="none" xmlns="http://www.w3.org/2000/svg">
<path d="M13.5249 29.5C13.1878 29.4998 12.8517 29.4621 12.5229 29.3877C11.4087 29.1328 10.4328 28.4644 9.79263 27.5175C9.15242 26.5707 8.89563 25.4161 9.07418 24.2871L8.06837 23.3584C7.72161 23.4425 7.3661 23.4852 7.00929 23.4854C6.33951 23.4862 5.678 23.3375 5.073 23.0501C4.46801 22.7627 3.93478 22.3439 3.51222 21.8243C3.03387 21.2377 2.71103 20.5401 2.57351 19.7959C2.43599 19.0516 2.48823 18.2847 2.72541 17.566C2.96258 16.8472 3.37705 16.1999 3.93051 15.6836C4.48398 15.1674 5.15861 14.7989 5.8921 14.6123L6.92189 11.665C6.55797 11.1838 6.29438 10.6344 6.14676 10.0494C5.99913 9.46445 5.97048 8.85578 6.06249 8.25952C6.1545 7.66326 6.36531 7.09154 6.68241 6.57828C6.99951 6.06501 7.41645 5.62065 7.9085 5.27153C8.40055 4.92242 8.9577 4.67566 9.5469 4.5459C10.1361 4.41613 10.7454 4.40601 11.3385 4.51611C11.9317 4.62622 12.4968 4.85432 13.0002 5.18688C13.5035 5.51945 13.935 5.94971 14.269 6.45215H19.6025L23.4277 3.09424C23.8814 2.71429 24.4532 2.50418 25.0449 2.5L25.2617 2.50977C25.7408 2.55126 26.1978 2.72992 26.578 3.02438C26.9582 3.31883 27.2455 3.71661 27.4055 4.1701C27.5655 4.62358 27.5914 5.11357 27.4802 5.58142C27.369 6.04927 27.1253 6.47516 26.7783 6.80811L23.501 9.688L25.5557 15.085C26.3635 15.2694 27.1048 15.6729 27.6982 16.2512C28.2916 16.8294 28.7141 17.5601 28.9194 18.3628C29.1246 19.1656 29.1046 20.0093 28.8616 20.8014C28.6185 21.5936 28.1619 22.3034 27.5417 22.8529C26.9216 23.4024 26.162 23.7703 25.3464 23.9162C24.5308 24.0621 23.6907 23.9804 22.9185 23.6801C22.1463 23.3797 21.4718 22.8723 20.9692 22.2136C20.4666 21.5549 20.1552 20.7704 20.0694 19.9463L17.1817 18.4268C17.1143 18.4629 17.0459 18.4981 16.9766 18.5313L16.5327 21.6358C17.2125 22.2446 17.6914 23.0455 17.9062 23.9325C18.1209 24.8194 18.0613 25.7507 17.7353 26.6031C17.4093 27.4554 16.8323 28.1887 16.0804 28.706C15.3286 29.2233 14.4375 29.5002 13.5249 29.5Z" fill="white"/>
<path d="M24.5534 16.4722C24.5316 16.4733 24.5099 16.4672 24.4919 16.4549C24.4738 16.4426 24.4602 16.4247 24.4532 16.404L21.79 9.41073C21.7721 9.36288 21.7692 9.31073 21.7815 9.26116C21.7939 9.21159 21.821 9.16693 21.8592 9.13308L25.7402 5.72517C25.9265 5.54625 26.0364 5.30235 26.0473 5.04432C26.0581 4.78628 25.9689 4.53404 25.7983 4.34016C25.6276 4.14628 25.3888 4.02574 25.1315 4.00367C24.8742 3.9816 24.6183 4.05969 24.4171 4.22168L20.2384 7.8902C20.1925 7.93013 20.1338 7.9522 20.073 7.95234H13.5268C13.4775 7.95219 13.4292 7.93745 13.3882 7.90999C13.3472 7.88253 13.3152 7.84356 13.2963 7.79798C13.1232 7.38092 12.8585 7.0082 12.5216 6.70748C12.1848 6.40676 11.7846 6.18575 11.3506 6.06087C10.9167 5.93599 10.4602 5.91043 10.0151 5.9861C9.56992 6.06177 9.14752 6.23671 8.77923 6.49796C8.41094 6.75921 8.10621 7.10004 7.88766 7.49517C7.66912 7.89029 7.54236 8.32957 7.5168 8.78038C7.49124 9.2312 7.56754 9.68198 7.74004 10.0993C7.91253 10.5166 8.17678 10.8897 8.51319 11.1909C8.54988 11.2238 8.57602 11.2669 8.58832 11.3147C8.60062 11.3625 8.59855 11.4128 8.58235 11.4595L7.06282 15.8086C7.04665 15.8553 7.01696 15.8961 6.97752 15.9259C6.93808 15.9557 6.89067 15.9732 6.84131 15.976C6.39937 16.0003 5.96826 16.122 5.57875 16.3322C5.18924 16.5424 4.85093 16.836 4.58799 17.192C4.32505 17.5481 4.14395 17.9578 4.05762 18.3919C3.97129 18.826 3.98185 19.2738 4.08857 19.7034C4.19528 20.1329 4.39551 20.5336 4.67495 20.8769C4.9544 21.2201 5.30617 21.4974 5.70517 21.689C6.10416 21.8806 6.54053 21.9818 6.98313 21.9853C7.42573 21.9888 7.86364 21.8945 8.26561 21.7093C8.31078 21.6886 8.36106 21.6817 8.41011 21.6896C8.45917 21.6974 8.5048 21.7196 8.54125 21.7534L10.6371 23.6889C10.6734 23.7223 10.699 23.7658 10.7106 23.8138C10.7222 23.8618 10.7193 23.9121 10.7023 23.9585C10.5059 24.4946 10.4662 25.0755 10.5878 25.6334C10.7094 26.1912 10.9874 26.7029 11.3891 27.1086C11.7909 27.5143 12.2999 27.7973 12.8565 27.9243C13.4131 28.0514 13.9945 28.0174 14.5325 27.8262C15.0705 27.635 15.5429 27.2946 15.8946 26.8448C16.2463 26.395 16.4626 25.8544 16.5183 25.2861C16.574 24.7179 16.4667 24.1455 16.2091 23.636C15.9514 23.1265 15.5541 22.7008 15.0634 22.4089C15.0208 22.3837 14.9866 22.3465 14.9651 22.3019C14.9437 22.2573 14.936 22.2073 14.9431 22.1584L15.5966 17.5857C15.6037 17.5365 15.6251 17.4905 15.6583 17.4536C15.6916 17.4167 15.735 17.3905 15.7831 17.3783C16.2102 17.268 16.6076 17.0647 16.9468 16.7829C16.9848 16.7511 17.0314 16.7313 17.0807 16.7262C17.1299 16.721 17.1796 16.7306 17.2234 16.7538L21.4252 18.9649C21.4689 18.9881 21.5048 19.0237 21.5283 19.0672C21.5519 19.1107 21.562 19.1602 21.5575 19.2095C21.5494 19.2987 21.5454 19.3879 21.5454 19.4791C21.5454 20.0738 21.7217 20.6552 22.0521 21.1498C22.3825 21.6443 22.8522 22.0297 23.4016 22.2574C23.9511 22.485 24.5557 22.5446 25.1391 22.4286C25.7224 22.3125 26.2582 22.0261 26.6788 21.6056C27.0993 21.185 27.3858 20.6492 27.5018 20.0659C27.6178 19.4826 27.5583 18.8779 27.3307 18.3285C27.1031 17.779 26.7176 17.3093 26.2231 16.9789C25.7286 16.6485 25.1472 16.4721 24.5524 16.4722H24.5534ZM22.5618 17.0665C22.5701 17.0886 22.5715 17.1128 22.5658 17.1357C22.5601 17.1587 22.5476 17.1794 22.5299 17.1951C22.5122 17.2109 22.4902 17.2209 22.4668 17.2239C22.4433 17.2268 22.4195 17.2227 22.3984 17.2119L18.1586 14.9827C18.1149 14.9595 18.0789 14.9239 18.0554 14.8804C18.0318 14.8369 18.0217 14.7873 18.0263 14.7381C18.0343 14.6499 18.0383 14.5597 18.0383 14.4695C18.0386 13.9432 17.9008 13.4261 17.6386 12.9698C17.3764 12.5134 16.999 12.1339 16.5442 11.8692C16.0894 11.6044 15.5731 11.4636 15.0468 11.4609C14.5206 11.4582 14.0028 11.5937 13.5453 11.8538C13.0878 12.1138 12.7066 12.4895 12.4397 12.943C12.1728 13.3966 12.0297 13.9123 12.0246 14.4386C12.0195 14.9648 12.1525 15.4832 12.4105 15.9419C12.6685 16.4006 13.0424 16.7835 13.4947 17.0525C13.5372 17.0778 13.5712 17.1151 13.5926 17.1596C13.614 17.2042 13.6218 17.2541 13.615 17.3031L12.9615 21.8747C12.9543 21.9234 12.9329 21.9689 12.8999 22.0055C12.8669 22.042 12.8238 22.068 12.7761 22.0802C12.604 22.1248 12.4363 22.1848 12.2749 22.2596C12.2298 22.2801 12.1796 22.287 12.1306 22.2794C12.0817 22.2717 12.036 22.2498 11.9993 22.2165L9.90241 20.281C9.86601 20.2473 9.84039 20.2037 9.8288 20.1555C9.8172 20.1074 9.82015 20.0568 9.83726 20.0104C10.0442 19.4432 10.0757 18.8268 9.92747 18.2415C9.77926 17.6562 9.45829 17.1291 9.00633 16.7288C8.97368 16.6999 8.95034 16.662 8.93927 16.6199C8.92821 16.5778 8.92992 16.5333 8.94419 16.4922L10.4707 12.1241C10.4865 12.0771 10.5161 12.0361 10.5556 12.0062C10.5952 11.9763 10.6427 11.9591 10.6922 11.9567C11.2558 11.924 11.7989 11.7337 12.2597 11.4075C12.7205 11.0812 13.0803 10.6321 13.2983 10.1114C13.3172 10.0658 13.3492 10.0268 13.3902 9.99934C13.4312 9.97188 13.4795 9.95714 13.5288 9.957H19.6821C19.733 9.95694 19.7826 9.97235 19.8245 10.0012C19.8664 10.03 19.8986 10.0709 19.9167 10.1184L22.5618 17.0665ZM15.0313 15.4698C14.7975 15.4714 14.5704 15.3918 14.3888 15.2445C14.2071 15.0973 14.0822 14.8916 14.0354 14.6625C13.9886 14.4334 14.0228 14.1952 14.1321 13.9885C14.2414 13.7819 14.4191 13.6195 14.6348 13.5293C14.8505 13.4391 15.0909 13.4266 15.3148 13.4938C15.5387 13.5611 15.7323 13.7041 15.8626 13.8983C15.9928 14.0924 16.0516 14.3258 16.0289 14.5585C16.0061 14.7912 15.9033 15.0088 15.738 15.1742C15.5508 15.3623 15.2967 15.4686 15.0313 15.4698ZM10.5208 7.95234C10.7849 7.9523 11.0384 8.05652 11.2261 8.24233C11.4138 8.42814 11.5206 8.68053 11.5232 8.94464V8.9687C11.5212 9.16651 11.4608 9.35931 11.3495 9.52282C11.2381 9.68634 11.0809 9.81326 10.8976 9.8876C10.7143 9.96194 10.513 9.98037 10.3193 9.94058C10.1255 9.90078 9.94782 9.80454 9.80863 9.66397C9.66945 9.5234 9.57497 9.34479 9.53709 9.15064C9.49921 8.95648 9.51963 8.75545 9.59577 8.57287C9.67192 8.3903 9.80038 8.23433 9.96499 8.12462C10.1296 8.01491 10.323 7.95636 10.5208 7.95635V7.95234ZM6.01038 18.978C6.01037 18.7461 6.09076 18.5213 6.23787 18.342C6.38498 18.1628 6.5897 18.0401 6.81715 17.9948C7.0446 17.9496 7.2807 17.9846 7.48522 18.0939C7.68975 18.2032 7.85004 18.38 7.93879 18.5943C8.02754 18.8085 8.03926 19.0469 7.97194 19.2689C7.90463 19.4908 7.76244 19.6825 7.56962 19.8113C7.3768 19.9402 7.14527 19.9982 6.91448 19.9754C6.68369 19.9527 6.46793 19.8506 6.30395 19.6867C6.21088 19.5936 6.13705 19.4831 6.08668 19.3615C6.03631 19.2399 6.01038 19.1096 6.01038 18.978ZM13.5278 25.9943C13.262 25.9942 13.007 25.8886 12.8191 25.7006C12.6311 25.5126 12.5255 25.2577 12.5255 24.9919C12.5299 24.7274 12.6369 24.475 12.8239 24.288C13.0109 24.1009 13.2633 23.9939 13.5278 23.9896C13.7937 23.9896 14.0486 24.0952 14.2366 24.2831C14.4246 24.4711 14.5302 24.7261 14.5302 24.9919C14.5302 25.2577 14.4246 25.5127 14.2366 25.7007C14.0486 25.8887 13.7937 25.9943 13.5278 25.9943ZM24.5534 20.4815C24.3215 20.4814 24.0969 20.401 23.9176 20.2539C23.7384 20.1068 23.6157 19.9021 23.5705 19.6747C23.5253 19.4473 23.5603 19.2112 23.6696 19.0068C23.7789 18.8023 23.9557 18.642 24.1699 18.5533C24.3841 18.4645 24.6225 18.4528 24.8444 18.5201C25.0663 18.5874 25.258 18.7296 25.3868 18.9224C25.5156 19.1152 25.5736 19.3466 25.5509 19.5774C25.5282 19.8082 25.4262 20.0239 25.2622 20.1879C25.1692 20.281 25.0587 20.3548 24.937 20.4052C24.8154 20.4556 24.6851 20.4815 24.5534 20.4815Z" fill="#51247A"/>
</svg>
