<svg width="32" height="32" viewBox="0 0 32 32" fill="none" xmlns="http://www.w3.org/2000/svg">
<path d="M26.9634 14.333L25.2124 9.944C25.1024 9.66477 24.9107 9.42525 24.6623 9.25682C24.4139 9.08838 24.1205 8.99886 23.8204 9H21.7474C21.7145 9.00013 21.6819 8.99376 21.6515 8.98124C21.6211 8.96872 21.5935 8.95031 21.5703 8.92707C21.547 8.90383 21.5286 8.87622 21.5161 8.84583C21.5036 8.81544 21.4972 8.78287 21.4974 8.75V6.858C21.4972 6.72055 21.4687 6.5846 21.4136 6.45866C21.3586 6.33271 21.2781 6.21947 21.1774 6.126L19.1774 4.268C18.9924 4.09583 18.7491 4.00008 18.4964 4H11.4964C11.2311 4 10.9768 4.10536 10.7892 4.29289C10.6017 4.48043 10.4964 4.73478 10.4964 5V8.75C10.4964 8.8163 10.47 8.87989 10.4231 8.92678C10.3762 8.97366 10.3127 9 10.2464 9H8.17335C7.87347 8.99871 7.5802 9.08806 7.33199 9.25634C7.08377 9.42461 6.89218 9.66396 6.78235 9.943L5.03035 14.333C5.00806 14.4076 4.99793 14.4852 5.00035 14.563L5.89635 21.687C5.94179 22.0487 6.11739 22.3814 6.39032 22.6231C6.66324 22.8647 7.01483 22.9987 7.37935 23H8.70335C8.74173 22.9997 8.77965 23.0084 8.81415 23.0252C8.84864 23.042 8.87878 23.0666 8.90221 23.097C8.92564 23.1274 8.94172 23.1628 8.94921 23.2004C8.95669 23.2381 8.95537 23.2769 8.94535 23.314L8.03135 26.742C7.99182 26.89 7.98684 27.0452 8.01678 27.1954C8.04672 27.3457 8.1108 27.4871 8.20405 27.6086C8.29731 27.7302 8.41725 27.8287 8.55463 27.8966C8.692 27.9644 8.84313 27.9998 8.99635 28H22.4964C22.6496 27.9998 22.8007 27.9644 22.9381 27.8966C23.0755 27.8287 23.1954 27.7302 23.2887 27.6086C23.3819 27.4871 23.446 27.3457 23.4759 27.1954C23.5059 27.0452 23.5009 26.89 23.4614 26.742L22.5474 23.314C22.5375 23.2769 22.5364 23.238 22.544 23.2004C22.5516 23.1627 22.5678 23.1274 22.5913 23.097C22.6148 23.0666 22.645 23.0421 22.6795 23.0253C22.714 23.0084 22.752 22.9998 22.7904 23H24.6144C24.9799 22.9999 25.3328 22.8663 25.6068 22.6244C25.8808 22.3824 26.057 22.0487 26.1024 21.686L26.9964 14.558C26.9939 14.482 26.9828 14.4065 26.9634 14.333ZM19.2474 11H12.7474C12.7145 11.0001 12.6819 10.9938 12.6515 10.9812C12.6211 10.9687 12.5935 10.9503 12.5703 10.9271C12.547 10.9038 12.5286 10.8762 12.5161 10.8458C12.5036 10.8154 12.4972 10.7829 12.4974 10.75V6.25C12.4972 6.21713 12.5036 6.18456 12.5161 6.15417C12.5286 6.12378 12.547 6.09617 12.5703 6.07293C12.5935 6.04969 12.6211 6.03128 12.6515 6.01876C12.6819 6.00624 12.7145 5.99987 12.7474 6H18.0064C18.0693 6.0001 18.1299 6.02363 18.1764 6.066L19.4174 7.218C19.4426 7.24156 19.4627 7.27004 19.4765 7.30169C19.4902 7.33335 19.4973 7.36749 19.4974 7.402V10.751C19.4971 10.8171 19.4706 10.8805 19.4238 10.9271C19.3769 10.9738 19.3135 11 19.2474 11ZM24.4974 17C24.4974 17.1978 24.4387 17.3911 24.3288 17.5556C24.2189 17.72 24.0628 17.8482 23.88 17.9239C23.6973 17.9996 23.4962 18.0194 23.3023 17.9808C23.1083 17.9422 22.9301 17.847 22.7902 17.7071C22.6504 17.5673 22.5552 17.3891 22.5166 17.1951C22.478 17.0011 22.4978 16.8 22.5735 16.6173C22.6492 16.4346 22.7773 16.2784 22.9418 16.1685C23.1062 16.0586 23.2996 16 23.4974 16C23.7624 16.0003 24.0165 16.1057 24.2038 16.2932C24.3911 16.4808 24.4964 16.735 24.4964 17H24.4974ZM11.7164 20.686C11.7305 20.6329 11.7618 20.5859 11.8054 20.5525C11.849 20.519 11.9024 20.5009 11.9574 20.501H19.5364C19.5913 20.5009 19.6447 20.519 19.6883 20.5525C19.7319 20.5859 19.7632 20.6329 19.7774 20.686L21.1114 25.686C21.1213 25.7231 21.1226 25.762 21.1152 25.7997C21.1077 25.8374 21.0916 25.8728 21.0682 25.9033C21.0448 25.9338 21.0147 25.9584 20.9802 25.9754C20.9457 25.9923 20.9078 26.0011 20.8694 26.001H10.6244C10.5859 26.0011 10.548 25.9923 10.5135 25.9754C10.479 25.9584 10.4489 25.9338 10.4255 25.9033C10.4021 25.8728 10.386 25.8374 10.3785 25.7997C10.3711 25.762 10.3724 25.7231 10.3824 25.686L11.7164 20.686Z" fill="#51247A"/>
</svg>
