<svg width="32" height="32" viewBox="0 0 32 32" fill="none" xmlns="http://www.w3.org/2000/svg">
<path fill-rule="evenodd" clip-rule="evenodd" d="M18.953 29.5107C18.5681 29.511 18.1865 29.4391 17.828 29.2988C17.0609 28.9986 16.4433 28.4076 16.1098 27.6543C15.9441 27.2809 15.8542 26.8784 15.8454 26.47C15.8366 26.0616 15.909 25.6555 16.0585 25.2754L17.3393 21.9883L15.1508 17.0166C14.9856 16.6435 14.8959 16.2414 14.8871 15.8335C14.8783 15.4256 14.9505 15.02 15.0995 14.6401C15.2314 14.3006 15.4218 13.9867 15.662 13.7129L13.9589 15.416V18.9453C13.9589 19.353 13.8786 19.7568 13.7226 20.1335C13.5666 20.5102 13.3378 20.8525 13.0495 21.1409C12.7612 21.4292 12.4189 21.6579 12.0422 21.8139C11.6655 21.97 11.2617 22.0503 10.8539 22.0503C10.4462 22.0503 10.0424 21.97 9.66571 21.8139C9.289 21.6579 8.9467 21.4292 8.65838 21.1409C8.37005 20.8525 8.14134 20.5102 7.9853 20.1335C7.82926 19.7568 7.74895 19.353 7.74895 18.9453V15.416L3.90813 11.5752C3.36944 11.0357 3.04797 10.317 3.00495 9.5558C2.96193 8.79463 3.20036 8.04423 3.67483 7.44749C4.14931 6.85075 4.82668 6.44936 5.57796 6.31975C6.32924 6.19014 7.10195 6.34136 7.74895 6.74463V6.105C7.74895 5.2815 8.07608 4.49173 8.65838 3.90943C9.24068 3.32713 10.0304 3 10.8539 3C11.6774 3 12.4672 3.32713 13.0495 3.90943C13.6318 4.49173 13.9589 5.2815 13.9589 6.105V6.73244C14.5557 6.34968 15.2654 6.18254 15.9703 6.25874C16.6752 6.33495 17.3328 6.64993 17.8339 7.15139C18.415 7.73431 18.7421 8.52319 18.7441 9.34621C18.7451 9.75421 18.6652 10.1584 18.509 10.5353C18.3527 10.9122 18.1233 11.2544 17.8339 11.542L15.9399 13.4356C16.2619 13.1519 16.6392 12.938 17.0479 12.8075C17.4567 12.677 17.8881 12.6327 18.3149 12.6773C18.7416 12.722 19.1545 12.8546 19.5274 13.0669C19.9003 13.2792 20.2252 13.5665 20.4814 13.9107L20.7148 13.312C20.9376 12.7391 21.3253 12.2452 21.8289 11.8927C22.3325 11.5402 22.9294 11.3451 23.5439 11.332H23.5508C23.9565 11.3258 24.3596 11.3974 24.7383 11.543C25.5055 11.8418 26.1227 12.4329 26.4543 13.1865C26.7859 13.94 26.8048 14.7944 26.5068 15.562L26.2783 16.1494C27.0294 15.9976 27.81 16.1288 28.4701 16.5178C29.1302 16.9068 29.6232 17.5261 29.8543 18.2566C30.0854 18.9872 30.0382 19.7774 29.7219 20.4752C29.4055 21.1731 28.8423 21.7294 28.1406 22.0371L23.1309 24.2412L21.8495 27.5293C21.5494 28.2955 20.9592 28.9125 20.2069 29.2461C19.8121 29.421 19.3849 29.5112 18.953 29.5107Z" fill="white"/>
<path fill-rule="evenodd" clip-rule="evenodd" d="M17.2433 9.346C17.2433 9.55684 17.2018 9.76562 17.1211 9.96041C17.0404 10.1552 16.9221 10.3322 16.773 10.4813L12.4588 14.7945V18.945C12.4588 19.3707 12.2897 19.7789 11.9887 20.0799C11.6877 20.3809 11.2795 20.55 10.8538 20.55C10.4282 20.55 10.0199 20.3809 9.71892 20.0799C9.41792 19.7789 9.24883 19.3707 9.24883 18.945V14.7945L4.96883 10.5145C4.81926 10.3655 4.70055 10.1885 4.61948 9.99363C4.53841 9.79872 4.49659 9.58974 4.4964 9.37865C4.49621 9.16755 4.53766 8.9585 4.61838 8.76345C4.69909 8.56839 4.81749 8.39118 4.96679 8.24195C5.11608 8.09272 5.29335 7.9744 5.48844 7.89377C5.68353 7.81314 5.8926 7.77178 6.1037 7.77207C6.31479 7.77235 6.52375 7.81427 6.71862 7.89542C6.91349 7.97657 7.09044 8.09537 7.23934 8.245L9.2488 10.2555V6.105C9.2488 5.67933 9.4179 5.27109 9.71889 4.97009C10.0199 4.6691 10.4281 4.5 10.8538 4.5C11.2795 4.5 11.6877 4.6691 11.9887 4.97009C12.2897 5.27109 12.4588 5.67933 12.4588 6.105V10.2555L14.5025 8.21077C14.727 7.98624 15.0131 7.83333 15.3245 7.77138C15.636 7.70943 15.9588 7.74122 16.2522 7.86273C16.5455 7.98425 16.7963 8.19002 16.9727 8.45404C17.1491 8.71806 17.2433 9.02846 17.2433 9.346ZM28.3895 19.7764C28.313 19.9728 28.1986 20.1523 28.0527 20.3045C27.9069 20.4567 27.7324 20.5786 27.5394 20.6634L21.9583 23.118L20.4517 26.985C20.2974 27.3823 19.9915 27.702 19.6014 27.8738C19.2113 28.0455 18.769 28.0553 18.3717 27.9009C17.9744 27.7466 17.6547 27.4407 17.4829 27.0506C17.3111 26.6605 17.3014 26.2182 17.4557 25.8209L18.9623 21.9528L16.5237 16.4123C16.3525 16.0225 16.3431 15.5807 16.4976 15.184C16.6521 14.7873 16.9579 14.4682 17.3476 14.2969C17.7374 14.1256 18.1792 14.1162 18.576 14.2707C18.9727 14.4252 19.2918 14.731 19.463 15.1208L20.6079 17.722L22.1124 13.8561C22.2668 13.4588 22.5727 13.1391 22.9628 12.9673C23.3529 12.7956 23.7952 12.7858 24.1925 12.9402C24.5898 13.0946 24.9095 13.4005 25.0813 13.7906C25.253 14.1807 25.2628 14.623 25.1084 15.0203L23.6029 18.8883L26.2479 17.7241C26.5386 17.5964 26.8606 17.5578 27.1733 17.6131C27.4859 17.6684 27.7751 17.8152 28.0043 18.0348C28.2335 18.2545 28.3925 18.5372 28.4611 18.8472C28.5296 19.1572 28.5047 19.4806 28.3895 19.7764Z" fill="black"/>
</svg>
