<svg width="32" height="32" viewBox="0 0 32 32" fill="none" xmlns="http://www.w3.org/2000/svg">
<path fill-rule="evenodd" clip-rule="evenodd" d="M22.1497 30C20.8721 29.9921 19.6306 29.576 18.6063 28.8125C17.5821 28.0489 16.8287 26.9779 16.4563 25.7559C16.0082 26.2159 15.4053 26.4932 14.7644 26.5342L14.45 26.5352C13.9662 27.57 13.1973 28.4454 12.2336 29.0587C11.27 29.6721 10.1514 29.9979 9.00904 29.9981C8.7455 29.9978 8.48226 29.9805 8.22095 29.9463C6.74756 29.7517 5.39859 29.0179 4.43473 27.8867C3.47087 26.7554 2.96055 25.307 3.00238 23.8215C3.04422 22.3359 3.63525 20.9185 4.66124 19.8433C5.68724 18.7681 7.07537 18.1113 8.55738 18C8.64332 17.9941 8.72974 17.9893 8.81617 17.9863L8.81225 17.9824C8.35965 17.527 8.10475 16.9116 8.10278 16.2695C8.10134 15.6342 8.35068 15.0239 8.79663 14.5713L7.04517 16.1709C6.59903 16.5698 6.02205 16.7911 5.42359 16.793L5.29175 16.7891C4.81929 16.7632 4.36472 16.5996 3.98412 16.3185C3.60352 16.0373 3.31352 15.6509 3.14988 15.207C2.98624 14.763 2.95613 14.2808 3.06324 13.8199C3.17036 13.359 3.41003 12.9396 3.75269 12.6133L13.3123 3.88135C13.9292 3.31349 14.7374 2.99883 15.5759 3C16.4145 3.00118 17.2218 3.31811 17.8372 3.8877L27.3704 12.5913C27.7188 12.9149 27.9644 13.3338 28.0766 13.7959C28.1889 14.258 28.1627 14.7428 28.0015 15.1902C27.8403 15.6375 27.5511 16.0276 27.17 16.3119C26.7888 16.5962 26.3324 16.7621 25.8577 16.7891L25.7219 16.793C25.1331 16.793 24.5644 16.5785 24.1223 16.1894L23.011 15.1753L22.9866 15.2168C22.8209 15.4909 22.6021 15.7291 22.343 15.9175C22.2903 15.956 22.2366 15.9927 22.1809 16.0273L22.8645 18.0391C24.3868 18.2128 25.7849 18.9622 26.7723 20.1339C27.7596 21.3055 28.2613 22.8104 28.1745 24.3401C28.0877 25.8698 27.419 27.3083 26.3054 28.3607C25.1919 29.4131 23.718 29.9996 22.1858 30H22.1497ZM13.2943 13.8462C13.9364 13.8481 14.5519 14.1033 15.0071 14.5562C15.4061 14.9524 15.6533 15.4759 15.7059 16.0357L16.9163 15.5904C16.8023 15.2163 16.7654 14.823 16.808 14.4342C16.8506 14.0455 16.9717 13.6694 17.1641 13.3289C17.3564 12.9884 17.6159 12.6905 17.9269 12.4534C18.2378 12.2162 18.5937 12.0447 18.973 11.9493L19.3694 11.8496L15.5735 8.38432L8.98954 14.3955C9.42206 14.0393 9.96531 13.845 10.5257 13.8462L13.2943 13.8462Z" fill="white"/>
<path fill-rule="evenodd" clip-rule="evenodd" d="M16.8187 4.98882L26.359 13.6994C26.5341 13.8661 26.637 14.0949 26.6454 14.3365C26.6538 14.5782 26.5671 14.8136 26.404 14.9921C26.2408 15.1706 26.0142 15.278 25.7727 15.2913C25.5313 15.3046 25.2942 15.2227 25.1125 15.0632L15.8846 6.63719C15.7994 6.55953 15.6884 6.51647 15.5732 6.51647C15.4579 6.51647 15.3469 6.55953 15.2618 6.63719L6.03375 15.0632C5.85199 15.2227 5.61494 15.3046 5.37347 15.2913C5.13201 15.278 4.90538 15.1706 4.74223 14.9921C4.57908 14.8136 4.49241 14.5782 4.50083 14.3365C4.50925 14.0949 4.61208 13.8661 4.78725 13.6994L14.3239 4.98882C14.6632 4.67457 15.1087 4.5 15.5713 4.5C16.0338 4.5 16.4793 4.67457 16.8187 4.98882ZM25.3569 20.8189C26.0286 21.4835 26.474 22.3428 26.6299 23.2748C26.7858 24.2069 26.6442 25.1643 26.2253 26.0114C25.8064 26.8584 25.1314 27.552 24.296 27.9938C23.4607 28.4356 22.5074 28.6032 21.5715 28.4727C20.6356 28.3422 19.7645 27.9203 19.0819 27.2669C18.3992 26.6134 17.9397 25.7616 17.7684 24.8323C17.5971 23.903 17.7228 22.9433 18.1277 22.0895C18.5326 21.2356 19.196 20.5309 20.024 20.0754L19.7914 19.3934C19.7778 19.3536 19.7537 19.3183 19.7215 19.2912C19.6894 19.2642 19.6504 19.2464 19.6089 19.2398C19.5674 19.2333 19.5249 19.2382 19.486 19.254C19.4471 19.2699 19.4132 19.296 19.3881 19.3297L15.4197 24.6677C15.3257 24.7756 15.2112 24.8638 15.0828 24.9272C14.9545 24.9906 14.8149 25.0279 14.6721 25.0369H13.392C13.1331 26.1215 12.4813 27.0717 11.5627 27.7038C10.6441 28.3359 9.52375 28.605 8.41823 28.4592C7.31272 28.3134 6.3005 27.7629 5.57718 26.9143C4.85387 26.0656 4.47081 24.9789 4.50203 23.8643C4.53325 22.7496 4.97654 21.6861 5.74622 20.8792C6.51591 20.0724 7.55735 19.5795 8.6693 19.4958C9.78124 19.4121 10.8847 19.7435 11.7666 20.426C12.6484 21.1085 13.2459 22.0937 13.4437 23.1911H14.2171L16.8705 19.6232C16.9002 19.5833 16.9163 19.5349 16.9162 19.4851C16.9162 19.4354 16.9001 19.387 16.8703 19.3471C16.8405 19.3072 16.7986 19.2781 16.7509 19.264C16.7032 19.2499 16.6522 19.2516 16.6056 19.2688C15.5211 19.7292 14.4075 20.1176 13.2721 20.4316C13.0991 20.4319 12.9295 20.3837 12.7826 20.2923C12.6358 20.2009 12.5176 20.0701 12.4415 19.9148L11.1042 17.1922H10.5255C10.2807 17.1922 10.0459 17.095 9.87286 16.9219C9.69979 16.7488 9.60255 16.5141 9.60255 16.2693C9.60255 16.0245 9.69979 15.7898 9.87286 15.6167C10.0459 15.4436 10.2807 15.3464 10.5255 15.3464H13.2942C13.5389 15.3464 13.7737 15.4436 13.9467 15.6167C14.1198 15.7898 14.2171 16.0245 14.2171 16.2693C14.2171 16.5141 14.1198 16.7488 13.9467 16.9219C13.7737 17.095 13.5389 17.1922 13.2942 17.1922H13.1604L13.6431 18.1733C13.6684 18.2244 13.7117 18.2643 13.7647 18.2854C13.8176 18.3065 13.8765 18.3073 13.9301 18.2877L18.5963 16.5702C18.6527 16.5493 18.6987 16.5073 18.7246 16.453C18.7504 16.3987 18.754 16.3364 18.7347 16.2795L18.3702 15.208C18.3059 15.0263 18.2803 14.8331 18.2949 14.6409C18.3096 14.4487 18.3643 14.2617 18.4554 14.0919C18.5466 13.922 18.6722 13.7731 18.8242 13.6546C18.9762 13.5361 19.1513 13.4506 19.3383 13.4037L20.6839 13.0669C20.8017 13.0365 20.9244 13.0298 21.0449 13.0471C21.1653 13.0643 21.2812 13.1053 21.3858 13.1675C21.4904 13.2297 21.5817 13.312 21.6543 13.4096C21.727 13.5073 21.7796 13.6183 21.8092 13.7364C21.8387 13.8544 21.8447 13.9772 21.8266 14.0975C21.8086 14.2179 21.7669 14.3335 21.704 14.4377C21.6411 14.5418 21.5582 14.6325 21.4601 14.7046C21.362 14.7766 21.2506 14.8285 21.1324 14.8573L20.2713 15.0723L21.7895 19.5383C21.8384 19.5341 21.8866 19.5276 21.9347 19.5211C22.0149 19.5084 22.0959 19.5012 22.1771 19.4995C23.3699 19.501 24.5134 19.9754 25.3569 20.8189ZM7.63485 26.2659C7.9611 26.4644 8.32621 26.5905 8.70545 26.6355C9.08468 26.6806 9.46916 26.6435 9.83284 26.527C10.1965 26.4104 10.5309 26.2171 10.8133 25.96C11.0957 25.7029 11.3195 25.3881 11.4696 25.0369H9.25464C9.00987 25.0369 8.77513 24.9397 8.60205 24.7666C8.42898 24.5935 8.33174 24.3588 8.33174 24.114C8.33174 23.8692 8.42898 23.6345 8.60205 23.4614C8.77513 23.2883 9.00987 23.1911 9.25464 23.1911H11.5406C11.4102 22.783 11.1829 22.4125 10.8781 22.1113C10.5733 21.8102 10.2002 21.5873 9.79048 21.4618C9.38081 21.3363 8.94683 21.3118 8.52566 21.3906C8.10449 21.4693 7.70865 21.6489 7.37198 21.9139C7.03532 22.1789 6.76784 22.5216 6.59243 22.9125C6.41702 23.3034 6.33889 23.731 6.36473 24.1587C6.39056 24.5864 6.51958 25.0014 6.74076 25.3684C6.96194 25.7354 7.26871 26.0433 7.63482 26.2659H7.63485ZM20.6145 26.1472C20.9442 26.3885 21.3253 26.5503 21.728 26.6199C22.1306 26.6895 22.5439 26.6651 22.9355 26.5484C23.3272 26.4318 23.6865 26.2261 23.9854 25.9475C24.2844 25.6689 24.5148 25.325 24.6588 24.9425C24.8027 24.5601 24.8563 24.1496 24.8152 23.743C24.7741 23.3365 24.6396 22.9449 24.4221 22.599C24.2045 22.2531 23.9099 21.9621 23.5613 21.749C23.2127 21.5358 22.8195 21.4062 22.4125 21.3702L23.1656 23.5852C23.234 23.814 23.211 24.0604 23.1016 24.2726C22.9922 24.4848 22.8047 24.6464 22.5787 24.7233C22.3526 24.8002 22.1056 24.7866 21.8894 24.6851C21.6732 24.5837 21.5047 24.4025 21.4194 24.1795L20.6285 21.8529C20.2875 22.097 20.0094 22.4187 19.817 22.7914C19.6247 23.164 19.5237 23.5771 19.5224 23.9965C19.521 24.4158 19.6193 24.8295 19.8092 25.2035C19.9991 25.5774 20.2751 25.9009 20.6145 26.1472Z" fill="#4085C6"/>
</svg>
