<svg width="32" height="32" viewBox="0 0 32 32" fill="none" xmlns="http://www.w3.org/2000/svg">
<path d="M21.6149 6.582C21.6149 6.44645 21.5882 6.31222 21.5363 6.18699C21.4845 6.06176 21.4084 5.94797 21.3126 5.85212C21.2167 5.75627 21.103 5.68024 20.9777 5.62836C20.8525 5.57649 20.7183 5.5498 20.5827 5.5498H16.7231C16.6882 5.55004 16.6537 5.54332 16.6214 5.53003C16.5892 5.51674 16.5599 5.49714 16.5353 5.47239C16.044 4.99071 15.4611 4.61237 14.8211 4.35973C14.1811 4.10709 13.497 3.98527 12.8091 4.00146C12.1203 3.98507 11.4352 4.10677 10.7941 4.35939C10.1531 4.61201 9.56911 4.99043 9.07665 5.47234C9.0525 5.49753 9.02349 5.51756 8.99138 5.53122C8.95927 5.54488 8.92472 5.55189 8.88982 5.55182H5.03541C4.89959 5.5514 4.76502 5.57778 4.63942 5.62947C4.51382 5.68115 4.39965 5.75712 4.30346 5.85301C4.20727 5.9489 4.13095 6.06283 4.07888 6.18827C4.02681 6.31371 4 6.44819 4 6.58402C4 6.71984 4.02681 6.85432 4.07888 6.97976C4.13095 7.10521 4.20727 7.21914 4.30346 7.31503C4.39965 7.41092 4.51382 7.48688 4.63942 7.53856C4.76502 7.59025 4.89959 7.61663 5.03541 7.61621H7.91441C7.97875 7.61619 8.04078 7.64021 8.08833 7.68356C8.13587 7.7269 8.1655 7.78645 8.17141 7.85052C8.32314 9.44423 10.0015 11.2268 12.8091 11.2268C15.5702 11.2268 17.2929 9.50409 17.4436 7.84948C17.4491 7.78514 17.4785 7.72521 17.5261 7.6816C17.5738 7.63799 17.636 7.61391 17.7006 7.61414H20.5827C20.7183 7.61415 20.8525 7.58746 20.9777 7.53559C21.1029 7.48372 21.2167 7.4077 21.3126 7.31185C21.4084 7.21601 21.4845 7.10222 21.5363 6.977C21.5882 6.85177 21.6149 6.71755 21.6149 6.582ZM14.3573 7.61414C14.3573 7.97231 14.2331 8.31939 14.0058 8.59625C13.7786 8.8731 13.4624 9.06259 13.1111 9.13244C12.7598 9.20229 12.3951 9.14818 12.0793 8.97931C11.7634 8.81045 11.5158 8.53729 11.3788 8.20637C11.2418 7.87546 11.2237 7.50726 11.3277 7.16452C11.4317 6.82177 11.6513 6.52569 11.9491 6.32672C12.2469 6.12774 12.6045 6.03819 12.961 6.07331C13.3174 6.10844 13.6507 6.26606 13.9039 6.51934C14.1942 6.80973 14.3573 7.20353 14.3573 7.61414Z" fill="#51247A"/>
<path d="M14.0178 18.9586C13.9348 17.6795 14.1836 16.4007 14.74 15.2461C15.2964 14.0914 16.1416 13.1 17.1936 12.3679C16.8415 12.0564 16.4576 11.7829 16.0482 11.552C16.0104 11.5316 15.9682 11.521 15.9253 11.521C15.8824 11.521 15.8402 11.5316 15.8024 11.552C15.2531 11.8424 14.6606 12.0424 14.0477 12.1444C13.9892 12.1563 13.9367 12.1882 13.8991 12.2345C13.8614 12.2808 13.841 12.3387 13.8412 12.3984V16.3878C13.8412 16.5247 13.7868 16.656 13.6901 16.7527C13.5933 16.8495 13.462 16.9039 13.3251 16.9038H12.2929C12.1561 16.9038 12.0248 16.8494 11.9281 16.7527C11.8313 16.6559 11.7769 16.5247 11.7769 16.3878V12.3953C11.7769 12.3349 11.7558 12.2764 11.7171 12.23C11.6784 12.1836 11.6247 12.1522 11.5653 12.1413C10.9552 12.0325 10.3642 11.8357 9.8106 11.5571C9.77334 11.5376 9.7319 11.5274 9.68984 11.5274C9.64778 11.5274 9.60634 11.5376 9.56909 11.5571C8.51787 12.1331 7.64106 12.9814 7.03063 14.0129C6.42021 15.0445 6.09868 16.2213 6.0998 17.42V20.7746C6.10207 21.7672 6.42132 22.7331 7.01102 23.5315C7.60073 24.3299 8.43004 24.919 9.37806 25.2131C9.41643 25.2247 9.45699 25.2273 9.49653 25.2207C9.53608 25.214 9.57354 25.1982 9.60596 25.1746C9.63838 25.151 9.66487 25.1202 9.68335 25.0846C9.70183 25.049 9.7118 25.0096 9.71247 24.9695V21.8068C9.71159 21.2951 9.83772 20.7913 10.0796 20.3404C10.3214 19.8895 10.6714 19.5056 11.0981 19.2233C11.5249 18.941 12.015 18.769 12.5246 18.7228C13.0341 18.6766 13.5472 18.7576 14.0178 18.9586Z" fill="#51247A"/>
<path d="M14.2416 20.3247C13.9503 20.0437 13.5828 19.8546 13.1848 19.7808C12.7868 19.707 12.3759 19.7519 12.0033 19.9098C11.6306 20.0678 11.3126 20.3318 11.0888 20.6691C10.8651 21.0064 10.7454 21.402 10.7448 21.8067V25.9355C10.7448 26.483 10.9622 27.0081 11.3494 27.3952C11.7365 27.7824 12.2616 27.9998 12.8091 27.9998C13.3566 27.9998 13.8816 27.7824 14.2688 27.3952C14.6559 27.0081 14.8734 26.483 14.8734 25.9355V22.0177C14.5951 21.481 14.383 20.9125 14.2416 20.3247Z" fill="#51247A"/>
<path d="M16.1961 23.8076C16.0905 23.702 16.0043 23.582 15.9056 23.4711V24.9695C15.9058 25.0095 15.9152 25.049 15.9331 25.0848C15.951 25.1206 15.9769 25.1518 16.0089 25.1759C16.0413 25.1999 16.079 25.2158 16.1189 25.2225C16.1587 25.2291 16.1995 25.2262 16.238 25.2141C16.6173 25.0926 16.9793 24.9228 17.315 24.7087C16.9141 24.4448 16.5394 24.1431 16.1961 23.8076Z" fill="#51247A"/>
<path d="M22.0444 16.0625H21.0965C21.0606 16.0625 21.0262 16.0768 21.0008 16.1022C20.9754 16.1276 20.9612 16.162 20.9611 16.1979V18.0937C20.9611 18.1296 20.9754 18.1641 21.0008 18.1895C21.0262 18.2149 21.0606 18.2292 21.0965 18.2292H22.0444C22.3317 18.2292 22.6073 18.1151 22.8105 17.9119C23.0136 17.7087 23.1278 17.4332 23.1278 17.1459C23.1278 16.8585 23.0136 16.583 22.8105 16.3798C22.6073 16.1766 22.3317 16.0625 22.0444 16.0625Z" fill="#51247A"/>
<path d="M21.5032 12C19.9974 11.9983 18.5377 12.519 17.3728 13.4731C16.2079 14.4272 15.41 15.7558 15.115 17.2324C14.82 18.709 15.0462 20.2422 15.7552 21.5707C16.4641 22.8991 17.6117 23.9406 19.0026 24.5176C20.3934 25.0946 21.9413 25.1714 23.3824 24.7349C24.8235 24.2984 26.0687 23.3756 26.9056 22.1238C27.7425 20.8721 28.1194 19.3688 27.972 17.8702C27.8246 16.3717 27.1621 14.9706 26.0973 13.9059C24.8792 12.6867 23.2267 12.0011 21.5032 12ZM22.0449 19.3125H21.097C21.0611 19.3125 21.0267 19.3268 21.0013 19.3522C20.9758 19.3776 20.9616 19.412 20.9615 19.4479V22.0208C20.9615 22.1645 20.9045 22.3022 20.8029 22.4038C20.7013 22.5054 20.5635 22.5625 20.4199 22.5625C20.2762 22.5625 20.1384 22.5054 20.0369 22.4038C19.9353 22.3022 19.8782 22.1645 19.8782 22.0208V15.5208C19.8782 15.3772 19.9353 15.2394 20.0369 15.1378C20.1385 15.0362 20.2763 14.9792 20.4199 14.9792H22.0449C22.6196 14.9792 23.1706 15.2075 23.577 15.6138C23.9833 16.0201 24.2116 16.5712 24.2116 17.1459C24.2116 17.7205 23.9833 18.2716 23.577 18.6779C23.1706 19.0842 22.6196 19.3125 22.0449 19.3125Z" fill="#51247A"/>
</svg>
