<svg width="32" height="32" viewBox="0 0 32 32" fill="none" xmlns="http://www.w3.org/2000/svg">
<path d="M10.5028 11.5043C10.7272 11.5067 10.9498 11.5438 11.1628 11.6143C11.5547 11.7513 11.8942 12.0069 12.1344 12.3456C12.3745 12.6842 12.5032 13.0892 12.5028 13.5043V17.2543C12.5028 17.3207 12.5292 17.3842 12.576 17.4311C12.6229 17.478 12.6865 17.5043 12.7528 17.5043H13.1228C13.577 17.494 14.0246 17.6145 14.4123 17.8513C14.7999 18.0882 15.1114 18.4315 15.3094 18.8403C15.5075 19.2491 15.584 19.7063 15.5296 20.1573C15.4752 20.6084 15.2924 21.0343 15.0028 21.3843L14.0028 22.6543C13.9592 22.7022 13.9351 22.7646 13.9351 22.8293C13.9351 22.8941 13.9592 22.9565 14.0028 23.0043L15.3228 24.3643C15.4161 24.4611 15.5279 24.5381 15.6516 24.5907C15.7754 24.6433 15.9084 24.6704 16.0428 24.6704C16.1772 24.6704 16.3103 24.6433 16.434 24.5907C16.5577 24.5381 16.6695 24.4611 16.7628 24.3643L26.1928 14.6543C27.0174 13.844 27.599 12.8193 27.8719 11.6958C28.1449 10.5724 28.0982 9.39504 27.7373 8.29671C27.3764 7.19838 26.7156 6.22283 25.8295 5.48025C24.9434 4.73767 23.8673 4.25763 22.7228 4.09435C21.7415 3.9237 20.7336 3.99083 19.7836 4.2901C18.8335 4.58937 17.9691 5.11206 17.2628 5.81435L16.1728 6.81435C16.1266 6.85722 16.0659 6.88105 16.0028 6.88105C15.9398 6.88105 15.879 6.85722 15.8328 6.81435L14.7528 5.81435C14.0439 5.10972 13.1761 4.58569 12.2225 4.28637C11.2688 3.98705 10.2572 3.92119 9.27281 4.09435C8.16011 4.26696 7.11528 4.73885 6.25012 5.45954C5.38496 6.18023 4.73203 7.12259 4.3612 8.18578C3.99037 9.24898 3.91558 10.393 4.14486 11.4954C4.37413 12.5978 4.89883 13.6172 5.66281 14.4443V14.4443L6.29281 15.0943C6.31704 15.1197 6.34676 15.1392 6.3797 15.1514C6.41263 15.1635 6.4479 15.168 6.48281 15.1643C6.55543 15.1602 6.62358 15.1279 6.67281 15.0743L8.94281 12.2543C9.13006 12.0205 9.36746 11.8317 9.63748 11.7018C9.90749 11.572 10.2032 11.5045 10.5028 11.5043V11.5043Z" fill="#51247A"/>
<path d="M6.75282 22.0043C6.81912 22.0043 6.88271 22.0307 6.92959 22.0775C6.97648 22.1244 7.00282 22.188 7.00282 22.2543V27.5043C7.00286 27.6071 7.03456 27.7073 7.09361 27.7914C7.15266 27.8755 7.23618 27.9394 7.33282 27.9743C7.43117 28.0095 7.53808 28.013 7.63852 27.9843C7.73895 27.9556 7.82788 27.8961 7.89282 27.8143L13.7928 20.4443C13.9028 20.3175 13.9738 20.1615 13.9972 19.9952C14.0205 19.8289 13.9953 19.6595 13.9244 19.5072C13.8536 19.355 13.7402 19.2265 13.598 19.1373C13.4557 19.048 13.2907 19.0018 13.1228 19.0043H11.2528C11.1865 19.0043 11.1229 18.978 11.076 18.9311C11.0292 18.8842 11.0028 18.8206 11.0028 18.7543V13.5043C11.0022 13.401 10.9696 13.3004 10.9096 13.2164C10.8495 13.1324 10.7648 13.069 10.6673 13.035C10.5697 13.001 10.464 12.9981 10.3648 13.0266C10.2655 13.0552 10.1775 13.1137 10.1128 13.1943L4.21282 20.5643C4.10278 20.6912 4.03181 20.8471 4.00846 21.0134C3.9851 21.1797 4.01037 21.3492 4.0812 21.5014C4.15204 21.6537 4.26541 21.7822 4.40765 21.8714C4.5499 21.9606 4.71492 22.0068 4.88282 22.0043H6.75282Z" fill="#51247A"/>
</svg>
