<svg width="32" height="32" viewBox="0 0 32 32" fill="none" xmlns="http://www.w3.org/2000/svg">
<path fill-rule="evenodd" clip-rule="evenodd" d="M24.7461 27.7539C24.0831 27.7537 23.4473 27.4903 22.9785 27.0215C22.5097 26.5527 22.2463 25.9169 22.2461 25.2539V18.6826C21.9707 18.4824 21.7202 18.2499 21.5 17.9902V20.5C21.4988 21.1307 21.3645 21.7541 21.1061 22.3294C20.8476 22.9047 20.4707 23.4191 20 23.8389V24.5039C19.9998 25.3658 19.6573 26.1923 19.0479 26.8017C18.4384 27.4112 17.6119 27.7536 16.75 27.7539C16.323 27.7551 15.9001 27.6715 15.5057 27.5081C15.1112 27.3446 14.7531 27.1045 14.4522 26.8017C13.9655 26.3124 13.6459 25.6818 13.5391 25H11.4609C11.3427 25.7668 10.954 26.466 10.3651 26.9711C9.77613 27.4762 9.02587 27.7539 8.25 27.7539C7.38811 27.7537 6.56159 27.4112 5.95215 26.8018C5.3427 26.1923 5.00022 25.3658 5 24.5039V23.8408C4.53004 23.4208 4.15364 22.9067 3.89523 22.3318C3.63681 21.757 3.50216 21.1342 3.5 20.5039V17.2353C3.04133 16.943 2.66355 16.5399 2.40144 16.0633C2.13932 15.5866 2.00127 15.0518 2 14.5078V12.5039C2.00057 11.9596 2.1383 11.4241 2.40047 10.9471C2.66263 10.47 3.04079 10.0667 3.5 9.77441V9.5C3.50009 8.30655 3.97422 7.16201 4.81812 6.31812C5.66201 5.47422 6.80655 5.00009 8 5H17C18.1934 5.00031 19.3378 5.47451 20.1816 6.31836C21.0255 7.16221 21.4997 8.30662 21.5 9.5V9.77246C22.1216 10.168 22.5893 10.7641 22.8257 11.4619C23.7787 10.9764 24.8799 10.8682 25.9092 11.159C26.9386 11.4498 27.8203 12.1181 28.3785 13.0306C28.9366 13.943 29.13 15.0324 28.9201 16.0813C28.7102 17.1301 28.1124 18.0611 27.2461 18.6885V25.2539C27.2459 25.9169 26.9824 26.5527 26.5136 27.0215C26.0448 27.4903 25.4091 27.7537 24.7461 27.7539H24.7461Z" fill="white"/>
<path fill-rule="evenodd" clip-rule="evenodd" d="M20.0527 10.7287C20.0866 10.7721 20.1337 10.8031 20.1869 10.817C20.5619 10.9128 20.8943 11.1305 21.132 11.4359C21.3697 11.7413 21.4991 12.117 21.4999 12.504V14.504C21.499 14.8909 21.3695 15.2666 21.1318 15.5719C20.8941 15.8773 20.5618 16.095 20.1869 16.191C20.1334 16.205 20.086 16.2363 20.0521 16.2801C20.0183 16.3239 19.9999 16.3777 19.9999 16.433V20.5C19.9986 21.0013 19.871 21.4942 19.629 21.9333C19.3869 22.3723 19.0382 22.7433 18.6149 23.012C18.5796 23.0347 18.5505 23.0659 18.5304 23.1028C18.5103 23.1397 18.4999 23.181 18.4999 23.223V24.504C18.4999 24.9681 18.3156 25.4132 17.9874 25.7414C17.6592 26.0696 17.2141 26.254 16.7499 26.254C16.2858 26.254 15.8407 26.0696 15.5125 25.7414C15.1843 25.4132 14.9999 24.9681 14.9999 24.504V23.75C14.9999 23.7172 14.9935 23.6847 14.9809 23.6543C14.9684 23.624 14.95 23.5964 14.9267 23.5732C14.9035 23.55 14.876 23.5316 14.8456 23.519C14.8153 23.5064 14.7828 23.5 14.7499 23.5H10.2499C10.2171 23.5 10.1846 23.5064 10.1543 23.519C10.1239 23.5316 10.0964 23.55 10.0731 23.5732C10.0499 23.5964 10.0315 23.624 10.0189 23.6543C10.0064 23.6847 9.99993 23.7172 9.99994 23.75V24.504C9.99994 24.9681 9.81557 25.4132 9.48738 25.7414C9.15919 26.0696 8.71407 26.254 8.24994 26.254C7.78581 26.254 7.34069 26.0696 7.0125 25.7414C6.68431 25.4132 6.49994 24.9681 6.49994 24.504V23.223C6.50003 23.181 6.48954 23.1397 6.46944 23.1028C6.44934 23.0659 6.42028 23.0347 6.38494 23.012C5.9617 22.7433 5.61296 22.3723 5.37091 21.9333C5.12885 21.4943 5.00127 21.0013 4.99994 20.5V16.433C4.99994 16.3777 4.98159 16.3239 4.94775 16.2801C4.91391 16.2363 4.86649 16.205 4.81294 16.191C4.4381 16.095 4.10575 15.8773 3.86809 15.5719C3.63044 15.2666 3.50094 14.8909 3.49994 14.504V12.504C3.50115 12.1175 3.63065 11.7423 3.8681 11.4374C4.10555 11.1324 4.43753 10.9149 4.81194 10.819C4.86569 10.8052 4.91334 10.774 4.94738 10.7302C4.98141 10.6864 4.99991 10.6325 4.99994 10.577V9.5C4.99994 8.70435 5.31601 7.94129 5.87862 7.37868C6.44123 6.81607 7.20429 6.5 7.99994 6.5H16.9999C17.7956 6.5 18.5587 6.81607 19.1213 7.37868C19.6839 7.94129 19.9999 8.70435 19.9999 9.5V10.577C20.0004 10.632 20.0189 10.6853 20.0527 10.7287ZM7.99994 20.754H8.99994C9.19885 20.754 9.38962 20.675 9.53027 20.5343C9.67092 20.3937 9.74994 20.2029 9.74994 20.004C9.74994 19.8051 9.67092 19.6143 9.53027 19.4737C9.38962 19.333 9.19885 19.254 8.99994 19.254H7.99994C7.80103 19.254 7.61026 19.333 7.46961 19.4737C7.32896 19.6143 7.24994 19.8051 7.24994 20.004C7.24994 20.2029 7.32896 20.3937 7.46961 20.5343C7.61026 20.675 7.80103 20.754 7.99994 20.754ZM15.9999 20.754H16.9999C17.1989 20.754 17.3896 20.675 17.5303 20.5343C17.6709 20.3937 17.7499 20.2029 17.7499 20.004C17.7499 19.8051 17.6709 19.6143 17.5303 19.4737C17.3896 19.333 17.1989 19.254 16.9999 19.254H15.9999C15.801 19.254 15.6103 19.333 15.4696 19.4737C15.329 19.6143 15.2499 19.8051 15.2499 20.004C15.2499 20.2029 15.329 20.3937 15.4696 20.5343C15.6103 20.675 15.801 20.754 15.9999 20.754ZM17.9267 17.1768C17.95 17.1536 17.9684 17.126 17.9809 17.0957C17.9935 17.0653 17.9999 17.0328 17.9999 17V9.5C17.9999 9.23478 17.8946 8.98043 17.707 8.79289C17.5195 8.60536 17.2652 8.5 16.9999 8.5H7.99994C7.73472 8.5 7.48037 8.60536 7.29283 8.79289C7.1053 8.98043 6.99994 9.23478 6.99994 9.5V17C6.99994 17.0663 7.02628 17.1299 7.07316 17.1768C7.12005 17.2237 7.18363 17.25 7.24994 17.25H17.7499C17.7828 17.25 17.8153 17.2435 17.8456 17.231C17.876 17.2184 17.9035 17.2 17.9267 17.1768ZM23.0242 13.1079C23.3279 12.8625 23.6803 12.6845 24.058 12.5859C24.4358 12.4872 24.8302 12.4701 25.2151 12.5357C25.5999 12.6013 25.9664 12.7481 26.2901 12.9663C26.6139 13.1846 26.8874 13.4692 27.0926 13.8014C27.2978 14.1335 27.4299 14.5055 27.4802 14.8927C27.5305 15.2799 27.4977 15.6733 27.3841 16.0468C27.2705 16.4203 27.0787 16.7654 26.8214 17.0591C26.5642 17.3527 26.2473 17.5882 25.8919 17.7499C25.8485 17.7699 25.8117 17.8019 25.7858 17.8421C25.76 17.8823 25.7461 17.9291 25.7459 17.9769V25.2539C25.7459 25.5191 25.6406 25.7735 25.453 25.961C25.2655 26.1485 25.0112 26.2539 24.7459 26.2539C24.4807 26.2539 24.2264 26.1485 24.0388 25.961C23.8513 25.7735 23.7459 25.5191 23.7459 25.2539V17.9739C23.7458 17.9261 23.7319 17.8793 23.706 17.8391C23.6802 17.7989 23.6434 17.7669 23.5999 17.7469C23.1739 17.552 22.8048 17.2512 22.5278 16.8734C22.2508 16.4955 22.0751 16.053 22.0174 15.5881C21.9597 15.1231 22.0219 14.6511 22.1982 14.217C22.3744 13.7829 22.6588 13.4011 23.0242 13.1079Z" fill="#E62645"/>
</svg>
