<svg width="32" height="32" viewBox="0 0 32 32" fill="none" xmlns="http://www.w3.org/2000/svg">
<path d="M9.24982 15.0009C9.0509 15.0009 8.86014 15.0799 8.71949 15.2205C8.57883 15.3612 8.49982 15.5519 8.49982 15.7509V16.0009C8.49982 16.1335 8.44714 16.2606 8.35337 16.3544C8.2596 16.4482 8.13243 16.5009 7.99982 16.5009H7.74982C7.5509 16.5009 7.36014 16.5799 7.21949 16.7205C7.07883 16.8612 6.99982 17.0519 6.99982 17.2509C6.99982 17.4498 7.07883 17.6405 7.21949 17.7812C7.36014 17.9218 7.5509 18.0009 7.74982 18.0009H7.99982C8.13243 18.0009 8.2596 18.0535 8.35337 18.1473C8.44714 18.2411 8.49982 18.3682 8.49982 18.5009V18.7509C8.49982 18.9498 8.57883 19.1405 8.71949 19.2812C8.86014 19.4218 9.0509 19.5009 9.24982 19.5009C9.44873 19.5009 9.63949 19.4218 9.78015 19.2812C9.9208 19.1405 9.99982 18.9498 9.99982 18.7509V18.5009C9.99982 18.3682 10.0525 18.2411 10.1463 18.1473C10.24 18.0535 10.3672 18.0009 10.4998 18.0009H10.7498C10.9487 18.0009 11.1395 17.9218 11.2801 17.7812C11.4208 17.6405 11.4998 17.4498 11.4998 17.2509C11.4998 17.0519 11.4208 16.8612 11.2801 16.7205C11.1395 16.5799 10.9487 16.5009 10.7498 16.5009H10.4998C10.3672 16.5009 10.24 16.4482 10.1463 16.3544C10.0525 16.2606 9.99982 16.1335 9.99982 16.0009V15.7509C9.99982 15.5519 9.9208 15.3612 9.78015 15.2205C9.63949 15.0799 9.44873 15.0009 9.24982 15.0009Z" fill="#51247A"/>
<path d="M25.7498 24.0009H25.4998C25.3672 24.0009 25.24 23.9482 25.1463 23.8544C25.0525 23.7606 24.9998 23.6335 24.9998 23.5009V23.2509C24.9998 23.0519 24.9208 22.8612 24.7801 22.7205C24.6395 22.5799 24.4487 22.5009 24.2498 22.5009C24.0509 22.5009 23.8601 22.5799 23.7195 22.7205C23.5788 22.8612 23.4998 23.0519 23.4998 23.2509V23.5009C23.4998 23.6335 23.4471 23.7606 23.3534 23.8544C23.2596 23.9482 23.1324 24.0009 22.9998 24.0009H22.7498C22.5509 24.0009 22.3601 24.0799 22.2195 24.2205C22.0788 24.3612 21.9998 24.5519 21.9998 24.7509C21.9998 24.9498 22.0788 25.1405 22.2195 25.2812C22.3601 25.4218 22.5509 25.5009 22.7498 25.5009H22.9998C23.1324 25.5009 23.2596 25.5535 23.3534 25.6473C23.4471 25.7411 23.4998 25.8682 23.4998 26.0009V26.2509C23.4998 26.4498 23.5788 26.6405 23.7195 26.7812C23.8601 26.9218 24.0509 27.0009 24.2498 27.0009C24.4487 27.0009 24.6395 26.9218 24.7801 26.7812C24.9208 26.6405 24.9998 26.4498 24.9998 26.2509V26.0009C24.9998 25.8682 25.0525 25.7411 25.1463 25.6473C25.24 25.5535 25.3672 25.5009 25.4998 25.5009H25.7498C25.9487 25.5009 26.1395 25.4218 26.2801 25.2812C26.4208 25.1405 26.4998 24.9498 26.4998 24.7509C26.4998 24.5519 26.4208 24.3612 26.2801 24.2205C26.1395 24.0799 25.9487 24.0009 25.7498 24.0009Z" fill="#51247A"/>
<path d="M19.2498 7.50085H19.9998C20.1324 7.50085 20.2596 7.55353 20.3534 7.6473C20.4471 7.74107 20.4998 7.86825 20.4998 8.00085V8.75085C20.4998 8.94977 20.5788 9.14053 20.7195 9.28118C20.8601 9.42184 21.0509 9.50085 21.2498 9.50085C21.4487 9.50085 21.6395 9.42184 21.7801 9.28118C21.9208 9.14053 21.9998 8.94977 21.9998 8.75085V8.00085C21.9998 7.86825 22.0525 7.74107 22.1463 7.6473C22.24 7.55353 22.3672 7.50085 22.4998 7.50085H23.2498C23.4487 7.50085 23.6395 7.42184 23.7801 7.28118C23.9208 7.14053 23.9998 6.94977 23.9998 6.75085C23.9998 6.55194 23.9208 6.36118 23.7801 6.22052C23.6395 6.07987 23.4487 6.00085 23.2498 6.00085H22.4998C22.3672 6.00085 22.24 5.94818 22.1463 5.85441C22.0525 5.76064 21.9998 5.63346 21.9998 5.50085V4.75085C21.9998 4.55194 21.9208 4.36118 21.7801 4.22052C21.6395 4.07987 21.4487 4.00085 21.2498 4.00085C21.0509 4.00085 20.8601 4.07987 20.7195 4.22052C20.5788 4.36118 20.4998 4.55194 20.4998 4.75085V5.50085C20.4998 5.63346 20.4471 5.76064 20.3534 5.85441C20.2596 5.94818 20.1324 6.00085 19.9998 6.00085H19.2498C19.0509 6.00085 18.8601 6.07987 18.7195 6.22052C18.5788 6.36118 18.4998 6.55194 18.4998 6.75085C18.4998 6.94977 18.5788 7.14053 18.7195 7.28118C18.8601 7.42184 19.0509 7.50085 19.2498 7.50085Z" fill="#51247A"/>
<path d="M22.8998 19.6778L26.4998 16.0778C26.6325 15.9453 26.8123 15.8705 26.9998 15.8698C27.2529 15.8701 27.4966 15.7744 27.6819 15.602C27.8672 15.4296 27.9802 15.1934 27.9982 14.941C28.0162 14.6886 27.9379 14.4387 27.779 14.2418C27.62 14.0449 27.3924 13.9155 27.1418 13.8798C15.0788 12.1438 5.73983 4.31683 5.64783 4.23783C5.44561 4.06611 5.18344 3.98175 4.91902 4.00331C4.65459 4.02488 4.40956 4.15061 4.23783 4.35283C4.06611 4.55506 3.98175 4.81722 4.00331 5.08165C4.02488 5.34608 4.15061 5.59111 4.35283 5.76283C4.46083 5.85483 5.23883 6.51083 6.57383 7.45383C6.70515 7.54588 6.81239 7.66816 6.88654 7.81035C6.96068 7.95254 6.99954 8.11047 6.99983 8.27083V13.0708C7.00053 13.2512 7.05001 13.4281 7.14303 13.5826C7.23605 13.7372 7.36916 13.8637 7.52824 13.9488C7.68731 14.0339 7.86645 14.0743 8.04665 14.0659C8.22685 14.0575 8.40141 14.0004 8.55183 13.9008L12.3998 11.3318C12.4808 11.2777 12.5748 11.2463 12.6721 11.2408C12.7694 11.2354 12.8663 11.2561 12.9528 11.3008C13.0206 11.3351 13.0797 11.3843 13.1256 11.4448C13.1715 11.5052 13.2031 11.5754 13.2178 11.6498L14.3338 17.2328C14.367 17.4068 14.4465 17.5687 14.5639 17.7014C14.6812 17.8341 14.8322 17.9327 15.0008 17.9868C15.1013 18.0209 15.2067 18.0382 15.3128 18.0378C15.5619 18.0376 15.8021 17.945 15.9868 17.7778L19.7678 14.3408C19.8101 14.3025 19.8618 14.276 19.9177 14.264C19.9735 14.2521 20.0315 14.2551 20.0858 14.2728C20.1338 14.2881 20.1768 14.3159 20.2104 14.3533C20.2439 14.3908 20.2669 14.4365 20.2768 14.4858L21.2128 19.1678C21.2484 19.3452 21.3314 19.5096 21.453 19.6435C21.5746 19.7774 21.7303 19.8758 21.9034 19.9282C22.0765 19.9806 22.2606 19.9851 22.4361 19.9412C22.6116 19.8973 22.7718 19.8066 22.8998 19.6788V19.6778Z" fill="#51247A"/>
<path d="M18.6998 18.8698C14.3254 20.3947 9.73211 21.1979 5.09982 21.2478C5.06782 21.2478 5.03182 21.2328 5.00482 21.2478C4.73961 21.2478 4.48525 21.3532 4.29772 21.5407C4.11018 21.7283 4.00482 21.9826 4.00482 22.2478C4.00482 22.513 4.11018 22.7674 4.29772 22.9549C4.48525 23.1425 4.73961 23.2478 5.00482 23.2478C5.04366 23.2477 5.08199 23.2566 5.11673 23.274C5.15147 23.2914 5.18164 23.3167 5.20482 23.3478L8.35882 27.6008C8.45197 27.725 8.57275 27.8258 8.71161 27.8953C8.85046 27.9647 9.00358 28.0008 9.15882 28.0008C9.20902 28.0006 9.25914 27.997 9.30882 27.9898C9.48771 27.9629 9.65593 27.8879 9.79558 27.7729C9.93523 27.6579 10.0411 27.5072 10.1018 27.3368L11.6998 22.8608C11.7196 22.8063 11.7534 22.758 11.7978 22.7208C11.8422 22.6836 11.8957 22.6587 11.9528 22.6488C12.002 22.6405 12.0526 22.6453 12.0993 22.6629C12.1461 22.6804 12.1873 22.7101 12.2188 22.7488L15.4788 26.7198C15.5717 26.8342 15.689 26.9263 15.822 26.9896C15.955 27.053 16.1005 27.0858 16.2478 27.0858C16.3065 27.0859 16.3651 27.0806 16.4228 27.0698C16.5973 27.0396 16.7606 26.9636 16.8961 26.8496C17.0315 26.7355 17.1343 26.5876 17.1938 26.4208L19.1458 20.9558C19.1622 20.9107 19.1887 20.87 19.2234 20.8369C19.2581 20.8037 19.3 20.7791 19.3458 20.7648C19.5939 20.6776 19.7977 20.4962 19.913 20.2598C20.0283 20.0234 20.0458 19.7511 19.9618 19.5019C19.8777 19.2527 19.6989 19.0466 19.464 18.9283C19.2291 18.81 18.9571 18.789 18.7068 18.8698H18.6998Z" fill="#51247A"/>
<path d="M24.4998 11.0009C24.4998 11.2661 24.6052 11.5204 24.7927 11.708C24.9802 11.8955 25.2346 12.0009 25.4998 12.0009C25.765 12.0009 26.0194 11.8955 26.2069 11.708C26.3945 11.5204 26.4998 11.2661 26.4998 11.0009C26.4998 10.7356 26.3945 10.4813 26.2069 10.2937C26.0194 10.1062 25.765 10.0009 25.4998 10.0009C25.2346 10.0009 24.9802 10.1062 24.7927 10.2937C24.6052 10.4813 24.4998 10.7356 24.4998 11.0009Z" fill="#51247A"/>
<path d="M25.9998 21.0009C25.9998 21.2661 26.1052 21.5204 26.2927 21.708C26.4802 21.8955 26.7346 22.0009 26.9998 22.0009C27.265 22.0009 27.5194 21.8955 27.7069 21.708C27.8945 21.5204 27.9998 21.2661 27.9998 21.0009C27.9998 20.7356 27.8945 20.4813 27.7069 20.2937C27.5194 20.1062 27.265 20.0009 26.9998 20.0009C26.7346 20.0009 26.4802 20.1062 26.2927 20.2937C26.1052 20.4813 25.9998 20.7356 25.9998 21.0009Z" fill="#51247A"/>
</svg>
