<svg width="32" height="32" viewBox="0 0 32 32" fill="none" xmlns="http://www.w3.org/2000/svg">
<path d="M8.25201 7.5C8.41678 7.50019 8.57903 7.45967 8.72436 7.38203C8.86968 7.3044 8.99357 7.19206 9.08501 7.055L9.64001 6.223C9.68563 6.15445 9.74747 6.09823 9.82004 6.05932C9.89262 6.02042 9.97367 6.00004 10.056 6H11C11.1326 6 11.2598 6.05268 11.3536 6.14645C11.4473 6.24021 11.5 6.36739 11.5 6.5V7.861C11.5 7.92666 11.4871 7.99168 11.462 8.05234C11.4368 8.113 11.4 8.16812 11.3536 8.21455C11.3071 8.26098 11.252 8.29781 11.1914 8.32294C11.1307 8.34807 11.0657 8.361 11 8.361H10.75C10.4056 8.39218 10.0856 8.5521 9.85391 8.80882C9.62221 9.06555 9.49584 9.4002 9.50001 9.746V10.246C9.50001 10.4449 9.57903 10.6357 9.71968 10.7763C9.86034 10.917 10.0511 10.996 10.25 10.996H14.75C14.9482 10.996 15.1384 10.9175 15.2789 10.7777C15.4195 10.638 15.499 10.4482 15.5 10.25V9.75C15.5042 9.4042 15.3778 9.06955 15.1461 8.81282C14.9144 8.5561 14.5944 8.39618 14.25 8.365H14C13.8674 8.365 13.7402 8.31232 13.6465 8.21855C13.5527 8.12479 13.5 7.99761 13.5 7.865V6.5C13.5 6.36739 13.5527 6.24021 13.6465 6.14645C13.7402 6.05268 13.8674 6 14 6H14.75C15.0152 6 15.2696 5.89464 15.4571 5.70711C15.6447 5.51957 15.75 5.26522 15.75 5C15.75 4.73478 15.6447 4.48043 15.4571 4.29289C15.2696 4.10536 15.0152 4 14.75 4H9.78801C9.45874 4.00006 9.13457 4.08142 8.84429 4.23685C8.55401 4.39228 8.3066 4.61698 8.12401 4.891L7.42401 5.945C7.32372 6.09532 7.26604 6.27 7.25709 6.45049C7.24814 6.63097 7.28826 6.8105 7.37319 6.97001C7.45812 7.12951 7.58469 7.26302 7.73943 7.35634C7.89417 7.44966 8.07131 7.49931 8.25201 7.5Z" fill="#51247A"/>
<path d="M18.746 19.305C17.7509 18.7378 16.9254 17.9151 16.3547 16.922C15.784 15.9289 15.489 14.8013 15.5 13.656V12.5C15.5 12.3674 15.4473 12.2402 15.3536 12.1464C15.2598 12.0527 15.1326 12 15 12H8.5C7.83696 12 7.20107 12.2634 6.73223 12.7322C6.26339 13.2011 6 13.837 6 14.5V25.5C6 25.8283 6.06466 26.1534 6.1903 26.4567C6.31594 26.76 6.50009 27.0356 6.73223 27.2678C6.96438 27.4999 7.23998 27.6841 7.54329 27.8097C7.84661 27.9353 8.1717 28 8.5 28H16.5C16.8283 28 17.1534 27.9353 17.4567 27.8097C17.76 27.6841 18.0356 27.4999 18.2678 27.2678C18.4999 27.0356 18.6841 26.76 18.8097 26.4567C18.9353 26.1534 19 25.8283 19 25.5V19.74C18.9999 19.6515 18.9764 19.5646 18.9318 19.4882C18.8872 19.4118 18.823 19.3485 18.746 19.305Z" fill="#51247A"/>
<path d="M22.811 5.41398C22.7134 5.29275 22.5899 5.19493 22.4496 5.12773C22.3092 5.06052 22.1556 5.02563 22 5.02563C21.8444 5.02563 21.6907 5.06052 21.5504 5.12773C21.41 5.19493 21.2865 5.29275 21.189 5.41398C19.625 7.57898 17 11.529 17 13.656C16.9849 14.3167 17.104 14.9736 17.3499 15.587C17.5959 16.2005 17.9636 16.7577 18.431 17.225C18.8983 17.6923 19.4555 18.0601 20.0689 18.306C20.6823 18.552 21.3393 18.671 22 18.656C22.6607 18.671 23.3176 18.552 23.931 18.306C24.5445 18.0601 25.1017 17.6923 25.569 17.225C26.0363 16.7577 26.4041 16.2005 26.65 15.587C26.896 14.9736 27.015 14.3167 27 13.656C27 11.529 24.375 7.57898 22.811 5.41398ZM22 16.906C21.1384 16.9049 20.3123 16.5622 19.7031 15.9529C19.0938 15.3436 18.751 14.5176 18.75 13.656C18.75 13.5234 18.8027 13.3962 18.8964 13.3024C18.9902 13.2087 19.1174 13.156 19.25 13.156C19.3826 13.156 19.5098 13.2087 19.6035 13.3024C19.6973 13.3962 19.75 13.5234 19.75 13.656C19.7508 14.2525 19.9881 14.8243 20.4099 15.2461C20.8317 15.6679 21.4035 15.9052 22 15.906C22.1326 15.906 22.2598 15.9587 22.3535 16.0524C22.4473 16.1462 22.5 16.2734 22.5 16.406C22.5 16.5386 22.4473 16.6658 22.3535 16.7595C22.2598 16.8533 22.1326 16.906 22 16.906Z" fill="#51247A"/>
</svg>
