<svg width="32" height="32" viewBox="0 0 32 32" fill="none" xmlns="http://www.w3.org/2000/svg">
<path d="M27.8898 6.18693C27.8185 6.09819 27.7191 6.03641 27.608 6.01182L20.608 4.01182C20.5349 3.99566 20.4592 3.9961 20.3863 4.0131C20.3135 4.03011 20.2453 4.06325 20.187 4.11008C20.1286 4.15691 20.0816 4.21624 20.0492 4.28369C20.0168 4.35114 20 4.425 20 4.49982V5.49982H12V4.49982C12 4.425 11.9832 4.35114 11.9508 4.28368C11.9184 4.21622 11.8713 4.15689 11.813 4.11005C11.7546 4.06322 11.6865 4.03008 11.6137 4.01308C11.5408 3.99608 11.4651 3.99565 11.392 4.01182L4.392 6.01182C4.28088 6.0364 4.18146 6.09816 4.11019 6.18689C4.03892 6.27562 4.00004 6.38601 4 6.49982V25.4998C4.00004 25.6136 4.03892 25.724 4.11019 25.8127C4.18146 25.9015 4.28088 25.9632 4.392 25.9878L11.392 27.9878C11.4651 28.004 11.5408 28.0035 11.6137 27.9865C11.6865 27.9695 11.7546 27.9364 11.813 27.8896C11.8713 27.8427 11.9184 27.7834 11.9508 27.7159C11.9832 27.6485 12 27.5746 12 27.4998V26.4998H20V27.4998C20 27.5746 20.0168 27.6485 20.0492 27.716C20.0816 27.7834 20.1287 27.8428 20.187 27.8896C20.2454 27.9364 20.3135 27.9696 20.3863 27.9866C20.4592 28.0036 20.5349 28.004 20.608 27.9878L27.608 25.9878C27.7191 25.9632 27.8185 25.9014 27.8898 25.8127C27.961 25.724 27.9999 25.6136 28 25.4998V6.49982C28 6.38601 27.9611 6.27561 27.8898 6.18693ZM10.2472 17.3332C10.0473 17.6323 9.74666 17.8497 9.39995 17.9456C9.05325 18.0416 8.68361 18.0098 8.35842 17.8559C8.03322 17.7021 7.77412 17.4366 7.62834 17.1077C7.48256 16.7789 7.45981 16.4085 7.56424 16.0643C7.66867 15.7201 7.89332 15.4248 8.19725 15.2323C8.50118 15.0399 8.86414 14.9631 9.21998 15.0159C9.57582 15.0687 9.90084 15.2476 10.1358 15.52C10.3708 15.7924 10.5 16.1401 10.5 16.4999C10.5 16.7965 10.412 17.0865 10.2472 17.3332ZM19.25 24.4998H12.5C12.4343 24.4999 12.3693 24.4869 12.3086 24.4618C12.248 24.4367 12.1929 24.3999 12.1464 24.3534C12.1 24.307 12.0632 24.2519 12.038 24.1912C12.0129 24.1305 12 24.0655 12 23.9998V7.99985C12 7.93418 12.0129 7.86916 12.038 7.80849C12.0632 7.74782 12.1 7.6927 12.1464 7.64627C12.1929 7.59984 12.248 7.56301 12.3086 7.53788C12.3693 7.51276 12.4343 7.49984 12.5 7.49985H19.5C19.5657 7.49984 19.6307 7.51276 19.6914 7.53788C19.752 7.56301 19.8071 7.59984 19.8536 7.64627C19.9 7.6927 19.9368 7.74782 19.962 7.80849C19.9871 7.86916 20 7.93418 20 7.99985V23.9998C20 24.0655 19.9871 24.1305 19.962 24.1912C19.9368 24.2519 19.9 24.307 19.8536 24.3534C19.8071 24.3999 19.752 24.4367 19.6914 24.4618C19.6307 24.4869 19.5657 24.4999 19.5 24.4998H19.25ZM24.4712 16.7925C24.401 17.1453 24.2064 17.4611 23.9229 17.6824C23.6393 17.9038 23.2857 18.0158 22.9264 17.9982C22.5671 17.9806 22.2261 17.8344 21.9656 17.5864C21.705 17.3384 21.5423 17.005 21.507 16.647C21.4718 16.289 21.5663 15.9303 21.7734 15.6362C21.9805 15.3421 22.2864 15.1322 22.6354 15.0448C22.9843 14.9574 23.353 14.9982 23.6743 15.16C23.9956 15.3217 24.2481 15.5935 24.3858 15.9258C24.4993 16.1999 24.529 16.5015 24.4712 16.7925Z" fill="white"/>
</svg>
