<svg width="32" height="32" viewBox="0 0 32 32" fill="none" xmlns="http://www.w3.org/2000/svg">
<path d="M9.6 3C8.3 3 7.1 3.4 6.1 4.1C5.1 4.8 4.3 5.8 3.9 7C3.5 8.2 3.5 9.5 3.8 10.7C4 11.4 4.3 12 4.7 12.5C4.1 13 3.5 13.6 3.1 14.3C2.4 15.5 2 16.8 2 18.2V21.7C2 22.4 2.3 23 2.7 23.5C3.2 24 3.8 24.2 4.5 24.2H4.7L5 27.9C5 28.5 5.3 29 5.7 29.4C6.1 29.8 6.7 30 7.2 30H11.7C12.3 30 12.8 29.8 13.2 29.4C13.6 29 13.9 28.5 13.9 27.9L14.2 24.2H14.6C15.3 24.2 15.9 24 16.3 23.5C16.4 23.8 16.6 24 16.8 24.2C17.3 24.7 17.9 24.9 18.6 24.9H24.6C25.8 24.9 26.9 24.4 27.8 23.6C28.6 22.8 29.1 21.6 29.1 20.4V7.5C29.1 6.3 28.6 5.2 27.8 4.3C27 3.5 25.8 3 24.6 3H16.1C15.4 3 14.8 3.3 14.3 3.7C14 4 13.8 4.3 13.7 4.6C13.5 4.4 13.3 4.2 13 4.1C12.1 3.4 10.9 3 9.6 3Z" fill="white"/>
<path fill-rule="evenodd" clip-rule="evenodd" d="M12.3 12.9C12.3 12.9 12.4 12.9 12.3 12.9C13.4 13.5 14.2 14.3 14.7 15.2C15.3 16.1 15.6 17.2 15.6 18.3V21.8C15.6 22.1 15.5 22.3 15.3 22.5C15.1 22.7 14.9 22.8 14.6 22.8H13.5C13.4 22.8 13.3 22.8 13.2 22.9C13.1 23 13.1 23.1 13 23.2L12.6 27.8C12.6 28 12.5 28.2 12.4 28.3C12.3 28.4 12.1 28.5 11.9 28.5H7.30001C7.10001 28.5 6.90001 28.4 6.80001 28.3C6.70001 28.2 6.60001 28 6.60001 27.8L6.20001 23.2C6.20001 23.1 6.10001 23 6.00001 22.9C5.90001 22.8 5.80001 22.8 5.70001 22.8H4.60001C4.30001 22.8 4.10001 22.7 3.90001 22.5C3.70001 22.3 3.60001 22 3.60001 21.8V18.3C3.60001 17.2 3.90001 16.1 4.50001 15.2C5.10001 14.3 5.90001 13.5 6.80001 13C6.80001 13 6.90001 13 6.90001 12.9V12.8V12.7C6.90001 12.7 6.90001 12.6 6.80001 12.6C6.10001 12 5.60001 11.2 5.30001 10.3C5.00001 9.4 5.00001 8.4 5.30001 7.5C5.60001 6.6 6.20001 5.9 7.00001 5.3C7.80001 4.7 8.70001 4.5 9.60001 4.5C10.5 4.5 11.4 4.8 12.2 5.3C13 5.8 13.5 6.6 13.8 7.5C14.1 8.4 14.1 9.3 13.9 10.2C13.6 11.1 13.1 11.9 12.4 12.5L12.3 12.6V12.7C12.3 12.8 12.3 12.8 12.3 12.9ZM7.30001 8.2C7.20001 8.3 7.20001 8.3 7.30001 8.2C7.10001 8.7 7.10001 9 7.10001 9.4C7.10001 9.7 7.30001 10.1 7.50001 10.4C7.70001 10.7 7.90001 11 8.20001 11.1C8.50001 11.3 8.80001 11.4 9.20001 11.5C9.50001 11.6 9.90001 11.5 10.2 11.5C10.5 11.4 10.9 11.2 11.1 11C11.4 10.8 11.6 10.5 11.8 10.2C12 9.9 12 9.5 12.1 9.2V9.1C12.1 9.1 12.1 9 12 9C12 9 11.9 9 11.9 8.9H11.8C11.4 9 11 9 10.6 9C9.50001 9 8.50001 8.7 7.60001 8.2H7.50001C7.40001 8.1 7.40001 8.2 7.30001 8.2ZM13.4 20.6C13.5 20.5 13.5 20.4 13.5 20.2V18.2C13.5 17.4 13.2 16.6 12.8 15.9C12.3 15.2 11.6 14.7 10.9 14.4H10.8H10.7L10.6 14.5V14.6V18.1C10.6 18.4 10.5 18.6 10.3 18.8C10.1 19 9.90001 19.1 9.60001 19.1C9.30001 19.1 9.10001 19 8.90001 18.8C8.70001 18.8 8.60001 18.5 8.60001 18.3V14.8V14.7C8.60001 14.7 8.60001 14.6 8.50001 14.6H8.40001H8.30001C7.50001 14.9 6.80001 15.4 6.40001 16.1C5.90001 16.6 5.60001 17.4 5.60001 18.3V20.3C5.60001 20.4 5.70001 20.6 5.70001 20.7C5.80001 20.8 5.90001 20.8 6.10001 20.8H13.1C13.2 20.8 13.4 20.7 13.4 20.6ZM16.1 4.5H24.6C25.4 4.5 26.2 4.8 26.7 5.4C27.3 6 27.6 6.7 27.6 7.5V20.5C27.6 21.3 27.3 22.1 26.7 22.6C26.1 23.2 25.4 23.5 24.6 23.5H18.6C18.3 23.5 18.1 23.4 17.9 23.2C17.7 23 17.6 22.8 17.6 22.5C17.6 22.2 17.7 22 17.9 21.8C18.1 21.6 18.3 21.5 18.6 21.5H24.6C24.9 21.5 25.1 21.4 25.3 21.2C25.5 21 25.6 20.8 25.6 20.5V7.5C25.6 7.2 25.5 7 25.3 6.8C25.1 6.6 24.9 6.5 24.6 6.5H16.1C15.8 6.5 15.6 6.4 15.4 6.2C15.2 6 15.1 5.8 15.1 5.5C15.1 5.2 15.2 5 15.4 4.8C15.6 4.6 15.8 4.5 16.1 4.5Z" fill="#51247A"/>
</svg>
