<svg width="32" height="32" viewBox="0 0 32 32" fill="none" xmlns="http://www.w3.org/2000/svg">
<path fill-rule="evenodd" clip-rule="evenodd" d="M7.49415 29.4609C6.69929 29.4608 5.93703 29.1449 5.37493 28.5829C4.81284 28.0209 4.49691 27.2587 4.49659 26.4639C4.49524 26.0054 4.65277 25.5606 4.94239 25.2051C4.65766 24.8407 4.50775 24.3891 4.51808 23.9268C4.56545 21.3892 4.83076 18.8603 5.31108 16.3682L3.4961 14.9815C3.07731 14.6664 2.76821 14.2276 2.61254 13.7272C2.45686 13.2268 2.4625 12.6901 2.62864 12.1931C2.79479 11.696 3.11304 11.2638 3.53834 10.9576C3.96365 10.6514 4.47448 10.4867 4.99855 10.4868H7.4297C7.32561 10.0827 7.3509 9.6561 7.50201 9.2671C7.85945 8.34129 8.39828 7.49625 9.08687 6.78159C9.77545 6.06693 10.5999 5.49707 11.5118 5.10548C11.5994 4.4521 11.8985 3.84536 12.3633 3.37794C12.6411 3.09884 12.9715 2.87756 13.3353 2.72687C13.6991 2.57618 14.0891 2.49907 14.4829 2.50001C15.21 2.49984 15.9123 2.76407 16.459 3.24344C17.0056 3.72281 17.3593 4.38461 17.4541 5.10548C18.3664 5.49709 19.1911 6.06724 19.8797 6.78236C20.5684 7.49749 21.107 8.34314 21.4639 9.26954C21.5604 9.51531 21.6062 9.77806 21.5986 10.042C23.3481 9.81381 25.1193 10.2551 26.5571 11.2776C27.995 12.3 28.9934 13.828 29.3523 15.5555C29.7112 17.2829 29.4041 19.0821 28.4925 20.5927C27.5809 22.1033 26.1321 23.2136 24.4365 23.7012C24.4395 23.7705 24.4414 23.8398 24.4434 23.9092C24.4585 24.3763 24.3092 24.8339 24.0215 25.2022C24.3123 25.5582 24.4704 26.0042 24.4688 26.4639C24.4687 27.2587 24.1529 28.021 23.5908 28.583C23.0288 29.1451 22.2665 29.4609 21.4717 29.461L7.49415 29.4609ZM23.2412 15.1348C23.5156 16.1982 23.7412 17.2702 23.918 18.3506C24.1059 18.1515 24.251 17.9159 24.3443 17.6585C24.4376 17.401 24.477 17.1272 24.4601 16.8539C24.4433 16.5806 24.3705 16.3136 24.2464 16.0696C24.1222 15.8256 23.9493 15.6096 23.7383 15.4351C23.588 15.3114 23.4206 15.2103 23.2412 15.1348Z" fill="white"/>
<path fill-rule="evenodd" clip-rule="evenodd" d="M18.5963 7.62198C19.243 8.23201 19.7448 8.97915 20.0649 9.80853C20.0945 9.88422 20.1051 9.96599 20.0959 10.0467C20.0867 10.1275 20.058 10.2047 20.0121 10.2718C19.9663 10.3389 19.9048 10.3938 19.8329 10.4318C19.761 10.4697 19.681 10.4895 19.5997 10.4895H9.36628C9.28501 10.4895 9.20496 10.4697 9.13308 10.4318C9.06119 10.3939 8.99965 10.339 8.9538 10.2719C8.90795 10.2048 8.87917 10.1275 8.86997 10.0468C8.86077 9.96602 8.87142 9.88425 8.901 9.80855C9.2211 8.97917 9.72292 8.23202 10.3696 7.62198C11.0163 7.01194 11.7914 6.55451 12.638 6.28327C12.7388 6.2511 12.8268 6.18773 12.8892 6.10231C12.9516 6.01689 12.9853 5.91385 12.9854 5.80804V5.49755C12.9854 5.10038 13.1432 4.71947 13.424 4.43862C13.7049 4.15778 14.0858 4 14.483 4C14.8801 4 15.261 4.15778 15.5419 4.43862C15.8227 4.71947 15.9805 5.10038 15.9805 5.49755V5.80804C15.9806 5.91386 16.0143 6.01693 16.0767 6.10235C16.1392 6.18777 16.2272 6.25113 16.328 6.28327C17.1746 6.5545 17.9497 7.01194 18.5963 7.62198ZM22.47 11.4878C21.7952 11.488 21.1261 11.6122 20.4962 11.8542C20.2676 11.9426 20.0245 11.9876 19.7794 11.987H4.99838C4.78884 11.987 4.58462 12.0529 4.41463 12.1754C4.24464 12.298 4.11752 12.4709 4.05126 12.6697C3.985 12.8685 3.98297 13.0831 4.04545 13.2831C4.10793 13.4831 4.23175 13.6584 4.39938 13.7841L6.2164 15.1549C6.44196 15.3261 6.61476 15.5573 6.71505 15.8222C6.81534 16.087 6.83905 16.3747 6.78348 16.6524C6.31886 19.0616 6.06266 21.5064 6.01772 23.9596C6.016 24.0262 6.02764 24.0925 6.05195 24.1546C6.07626 24.2166 6.11276 24.2732 6.15929 24.3209C6.20581 24.3687 6.26143 24.4066 6.32285 24.4325C6.38427 24.4584 6.45026 24.4717 6.51691 24.4717H22.445C22.512 24.4717 22.5783 24.4583 22.64 24.4322C22.7017 24.406 22.7575 24.3677 22.8041 24.3196C22.8507 24.2714 22.8871 24.2144 22.9112 24.1518C22.9353 24.0893 22.9465 24.0225 22.9442 23.9556C22.9283 23.4564 22.9023 22.9572 22.8694 22.458C24.2948 22.3642 25.6276 21.7187 26.5848 20.6584C27.542 19.5981 28.0484 18.2065 27.9964 16.7789C27.9445 15.3514 27.3382 14.0003 26.3064 13.0124C25.2746 12.0246 23.8984 11.4776 22.47 11.4878ZM15.9805 20.4732C15.9805 20.8704 15.8227 21.2513 15.5419 21.5321C15.261 21.813 14.8801 21.9707 14.483 21.9707C14.0858 21.9707 13.7049 21.813 13.424 21.5321C13.1432 21.2513 12.9854 20.8704 12.9854 20.4732V15.9805C12.9854 15.5833 13.1432 15.2024 13.424 14.9216C13.7049 14.6407 14.0858 14.4829 14.483 14.4829C14.8801 14.4829 15.261 14.6407 15.5419 14.9216C15.8227 15.2024 15.9805 15.5833 15.9805 15.9805V20.4732ZM25.9643 16.9789C25.9643 17.7734 25.6936 18.5442 25.1969 19.1643C24.7002 19.7844 24.0071 20.2169 23.2318 20.3904C23.1643 20.4047 23.0945 20.4049 23.0269 20.3909C22.9593 20.3769 22.8953 20.349 22.839 20.309C22.7827 20.2691 22.7353 20.2179 22.6998 20.1586C22.6643 20.0994 22.6414 20.0335 22.6327 19.965C22.395 18.0063 21.9882 16.0719 21.4167 14.1834C21.3959 14.1164 21.3894 14.0458 21.3978 13.9762C21.4061 13.9065 21.429 13.8394 21.4649 13.7793C21.5009 13.7191 21.5492 13.6671 21.6066 13.6269C21.664 13.5866 21.7293 13.5588 21.7981 13.5455C22.3047 13.4462 22.827 13.4604 23.3274 13.587C23.8278 13.7137 24.294 13.9496 24.6923 14.2779C25.0907 14.6062 25.4114 15.0187 25.6313 15.4857C25.8512 15.9527 25.965 16.4627 25.9643 16.9789ZM22.47 25.9644H6.496C6.36362 25.9644 6.23667 26.017 6.14305 26.1106C6.04944 26.2042 5.99684 26.3311 5.99682 26.4635C5.99681 26.6601 6.03554 26.8549 6.11079 27.0366C6.18605 27.2183 6.29636 27.3834 6.43542 27.5225C6.57448 27.6615 6.73958 27.7718 6.92128 27.8471C7.10297 27.9224 7.29772 27.9611 7.49438 27.9611H21.4716C21.6683 27.9611 21.863 27.9224 22.0447 27.8471C22.2264 27.7719 22.3915 27.6615 22.5306 27.5225C22.6697 27.3834 22.78 27.2183 22.8552 27.0366C22.9305 26.8549 22.9692 26.6602 22.9692 26.4635C22.9692 26.3311 22.9166 26.2041 22.823 26.1105C22.7293 26.0169 22.6024 25.9644 22.47 25.9644Z" fill="#EB602B"/>
</svg>
