<svg width="32" height="32" viewBox="0 0 32 32" fill="none" xmlns="http://www.w3.org/2000/svg">
<path d="M16.2741 9.98131C16.5752 9.68022 16.7444 9.27185 16.7444 8.84604C16.7444 8.42023 16.5752 8.01186 16.2741 7.71077C15.973 7.40967 15.5647 7.24052 15.1389 7.24052C14.713 7.24052 14.3047 7.40967 14.0036 7.71077L11.9599 9.75554V5.605C11.9599 5.17933 11.7908 4.77109 11.4898 4.47009C11.1888 4.1691 10.7806 4 10.3549 4C9.9292 4 9.52096 4.1691 9.21997 4.47009C8.91897 4.77109 8.74987 5.17933 8.74987 5.605V9.75554L6.74041 7.74501C6.43946 7.44391 6.03123 7.27471 5.60552 7.27461C5.17981 7.27451 4.77149 7.44352 4.4704 7.74447C4.16931 8.04542 4.0001 8.45366 4 8.87937C3.9999 9.30508 4.16892 9.71339 4.46987 10.0145L8.74987 14.2945V18.445C8.74987 18.8707 8.91897 19.2789 9.21997 19.5799C9.52096 19.8809 9.9292 20.05 10.3549 20.05C10.7806 20.05 11.1888 19.8809 11.4898 19.5799C11.7908 19.2789 11.9599 18.8707 11.9599 18.445V14.2945L16.2741 9.98131Z" fill="#51247A"/>
<path d="M27.0405 20.1634C27.4303 19.9922 27.7361 19.6731 27.8906 19.2764C28.0451 18.8797 28.0357 18.4378 27.8644 18.0481C27.6931 17.6583 27.3741 17.3525 26.9773 17.198C26.5806 17.0435 26.1388 17.0529 25.749 17.2241L23.104 18.3883L24.6095 14.5203C24.6859 14.3235 24.7228 14.1137 24.7182 13.9027C24.7135 13.6917 24.6673 13.4837 24.5823 13.2905C24.4972 13.0974 24.375 12.9229 24.2225 12.777C24.07 12.631 23.8903 12.5166 23.6935 12.4402C23.4968 12.3637 23.287 12.3268 23.076 12.3314C22.865 12.3361 22.657 12.3823 22.4638 12.4673C22.2706 12.5524 22.0961 12.6746 21.9502 12.8271C21.8043 12.9796 21.6899 13.1594 21.6135 13.3561L20.109 17.222L18.9641 14.6208C18.7929 14.2311 18.4738 13.9253 18.0771 13.7708C17.6804 13.6163 17.2385 13.6257 16.8487 13.7969C16.459 13.9682 16.1532 14.2873 15.9987 14.684C15.8442 15.0807 15.8536 15.5226 16.0248 15.9123L18.4634 21.4528L16.9568 25.3209C16.8024 25.7181 16.8122 26.1605 16.984 26.5506C17.1557 26.9407 17.4754 27.2466 17.8727 27.4009C18.27 27.5553 18.7124 27.5455 19.1025 27.3738C19.4926 27.202 19.7984 26.8823 19.9528 26.485L21.4594 22.618L27.0405 20.1634Z" fill="#51247A"/>
</svg>
