<svg width="32" height="32" viewBox="0 0 32 32" fill="none" xmlns="http://www.w3.org/2000/svg">
<path d="M14.5088 28.6113C13.8375 28.6034 13.1964 28.3312 12.7244 27.8537C12.2525 27.3762 11.9878 26.7319 11.9878 26.0606C11.9878 25.8252 11.9878 25.5811 11.0132 25.5811H6.02C5.55731 25.5807 5.09921 25.4892 4.67188 25.3118C4.24456 25.1344 3.85637 24.8745 3.52949 24.5471C3.20261 24.2196 2.94345 23.8309 2.7668 23.4033C2.59016 22.9757 2.4995 22.5174 2.5 22.0547V8.03175C2.5012 7.31983 2.7172 6.62485 3.11977 6.03768C3.52234 5.45051 4.09273 4.9985 4.75635 4.74075C5.01996 4.09121 5.4713 3.53505 6.05267 3.14337C6.63404 2.7517 7.31901 2.54233 8.02 2.54201H12.8696C13.039 2.52541 13.209 2.51711 13.3794 2.51613H13.3814C14.3007 2.51296 15.2042 2.75482 15.999 3.21681C16.1997 3.09854 16.4082 2.99397 16.623 2.90381C17.2554 2.63615 17.9353 2.49881 18.6221 2.50001H23.9971C24.7072 2.50216 25.4002 2.71828 25.9857 3.12016C26.5712 3.52204 27.022 4.09104 27.2793 4.75294C27.9348 5.0148 28.4968 5.46718 28.8927 6.05165C29.2885 6.63612 29.5001 7.32584 29.5 8.03175V22.0547C29.5016 22.5176 29.4115 22.9762 29.235 23.4041C29.0585 23.832 28.7991 24.2207 28.4717 24.5479C27.9163 25.1016 27.193 25.4557 26.415 25.5547L26.2968 25.5674C26.2158 25.5742 26.1386 25.5791 26.0595 25.5811H21.0185C20.0488 25.5811 20.0488 25.8252 20.0488 26.0606C20.0493 26.7365 19.7812 27.385 19.3036 27.8633C18.826 28.3417 18.178 28.6108 17.502 28.6113H14.5088Z" fill="white"/>
<path d="M14.509 27.1111C14.2355 27.1035 13.9759 26.9894 13.7852 26.7933C13.5945 26.5971 13.4879 26.3343 13.488 26.0607C13.488 24.4285 12.143 24.0814 11.013 24.0814H6.02C5.75429 24.081 5.49125 24.0283 5.24591 23.9263C5.00057 23.8242 4.77774 23.6748 4.59016 23.4867C4.40257 23.2985 4.2539 23.0752 4.15264 22.8295C4.05138 22.5838 3.99951 22.3206 4 22.0549V8.03193C4.00084 7.4993 4.21099 6.98834 4.58514 6.60924C4.95928 6.23014 5.46743 6.01328 6 6.00543C6.01523 5.47973 6.2347 4.98066 6.61183 4.61411C6.98897 4.24756 7.49409 4.04239 8.02 4.04213H12.949C13.0951 4.02542 13.242 4.01671 13.389 4.01605C13.564 4.01503 13.7388 4.0271 13.912 4.05217C14.7067 4.16187 15.4429 4.53114 16.006 5.10254C16.3465 4.75367 16.7534 4.47641 17.2027 4.28707C17.6519 4.09773 18.1345 4.00013 18.622 4H23.997C24.5294 4.00253 25.0396 4.21417 25.4174 4.58931C25.7953 4.96444 26.0106 5.47302 26.017 6.00543C26.5472 6.01598 27.052 6.23424 27.4228 6.61324C27.7937 6.99223 28.001 7.50167 28 8.03193V22.0549C28.0012 22.5486 27.8218 23.0257 27.4956 23.3962C27.1694 23.7667 26.7189 24.0051 26.229 24.0663L26.18 24.0724C26.13 24.0764 26.081 24.0804 26.03 24.0814H21.019C19.894 24.0814 18.549 24.4285 18.549 26.0607C18.5493 26.1985 18.5224 26.3349 18.47 26.4623C18.4175 26.5896 18.3404 26.7054 18.2432 26.8029C18.146 26.9005 18.0305 26.9779 17.9033 27.0308C17.7761 27.0837 17.6397 27.111 17.502 27.1111L14.509 27.1111ZM23.955 6.05258H18.607C18.2567 6.05 17.9155 6.16478 17.638 6.37863C17.3258 6.61299 17.1085 6.95208 17.026 7.33369C17.052 7.59019 17.052 7.84866 17.026 8.10516V20.4277L17.085 20.4036C17.655 20.1751 18.263 20.0563 18.877 20.0535L18.941 20.0545C18.962 20.0545 18.983 20.0545 19.004 20.0555H23.981L23.955 6.05258ZM13.144 20.0274C13.7778 20.0306 14.4049 20.1577 14.99 20.4016V8.07908C14.962 7.82269 14.962 7.564 14.99 7.30761C14.9291 7.09009 14.8262 6.88661 14.687 6.70869C14.5608 6.53533 14.4006 6.38958 14.2161 6.28038C14.0316 6.17118 13.8267 6.10085 13.614 6.07369C13.5378 6.06334 13.4609 6.05799 13.384 6.05769C13.3067 6.05803 13.2296 6.06337 13.153 6.07369H8.041L8.046 20.0284H13.017C13.06 20.0274 13.102 20.0274 13.144 20.0274Z" fill="#51247A"/>
</svg>
