<svg width="32" height="32" viewBox="0 0 32 32" fill="none" xmlns="http://www.w3.org/2000/svg">
<path d="M16.125 7.375C16.125 8.00489 16.3752 8.60898 16.8206 9.05438C17.266 9.49978 17.8701 9.75 18.5 9.75C19.1299 9.75 19.734 9.49978 20.1794 9.05438C20.6248 8.60898 20.875 8.00489 20.875 7.375C20.875 6.74511 20.6248 6.14102 20.1794 5.69562C19.734 5.25022 19.1299 5 18.5 5C17.8701 5 17.266 5.25022 16.8206 5.69562C16.3752 6.14102 16.125 6.74511 16.125 7.375Z" fill="#51247A"/>
<path d="M8.5 17.375C7.60999 17.375 6.73996 17.6389 5.99994 18.1334C5.25991 18.6279 4.68314 19.3307 4.34254 20.1529C4.00195 20.9752 3.91283 21.88 4.08647 22.7529C4.2601 23.6258 4.68869 24.4276 5.31802 25.057C5.94736 25.6863 6.74918 26.1149 7.6221 26.2885C8.49501 26.4622 9.39981 26.3731 10.2221 26.0325C11.0443 25.6919 11.7471 25.1151 12.2416 24.3751C12.7361 23.635 13 22.765 13 21.875C13 20.6815 12.5259 19.5369 11.682 18.693C10.8381 17.8491 9.69348 17.375 8.5 17.375ZM8.5 24.375C8.00555 24.375 7.5222 24.2284 7.11108 23.9537C6.69995 23.679 6.37952 23.2885 6.1903 22.8317C6.00108 22.3749 5.95158 21.8722 6.04804 21.3873C6.1445 20.9023 6.3826 20.4569 6.73223 20.1072C7.08187 19.7576 7.52732 19.5195 8.01228 19.423C8.49723 19.3266 8.9999 19.3761 9.45671 19.5653C9.91353 19.7545 10.304 20.075 10.5787 20.4861C10.8534 20.8972 11 21.3805 11 21.875C11 22.538 10.7366 23.1739 10.2678 23.6428C9.79893 24.1116 9.16304 24.375 8.5 24.375Z" fill="#51247A"/>
<path d="M23.5 17.375C22.61 17.375 21.74 17.6389 20.9999 18.1334C20.2599 18.6279 19.6831 19.3307 19.3425 20.1529C19.0019 20.9752 18.9128 21.88 19.0865 22.7529C19.2601 23.6258 19.6887 24.4276 20.318 25.057C20.9474 25.6863 21.7492 26.1149 22.6221 26.2885C23.495 26.4622 24.3998 26.3731 25.2221 26.0325C26.0443 25.6919 26.7471 25.1151 27.2416 24.3751C27.7361 23.635 28 22.765 28 21.875C28 20.6815 27.5259 19.5369 26.682 18.693C25.8381 17.8491 24.6935 17.375 23.5 17.375ZM23.5 24.375C23.0055 24.375 22.5222 24.2284 22.1111 23.9537C21.7 23.679 21.3795 23.2885 21.1903 22.8317C21.0011 22.3749 20.9516 21.8722 21.048 21.3873C21.1445 20.9023 21.3826 20.4569 21.7322 20.1072C22.0819 19.7576 22.5273 19.5195 23.0123 19.423C23.4972 19.3266 23.9999 19.3761 24.4567 19.5653C24.9135 19.7545 25.304 20.075 25.5787 20.4861C25.8534 20.8972 26 21.3805 26 21.875C26 22.538 25.7366 23.1739 25.2678 23.6428C24.7989 24.1116 24.163 24.375 23.5 24.375Z" fill="#51247A"/>
<path d="M14.722 15.114L16.173 13.455C17.547 14.3848 19.169 14.8796 20.828 14.875H21.5C21.8979 14.875 22.2794 14.717 22.5607 14.4357C22.842 14.1544 23 13.7728 23 13.375C23 12.9772 22.842 12.5957 22.5607 12.3144C22.2794 12.0331 21.8979 11.875 21.5 11.875H20.828C19.4157 11.8713 18.062 11.3103 17.061 10.314C16.9191 10.1643 16.746 10.0475 16.5541 9.97188C16.3621 9.89621 16.156 9.86349 15.95 9.87602C15.7447 9.88292 15.543 9.93193 15.3574 10.02C15.1718 10.1081 15.0062 10.2333 14.871 10.388L11.371 14.388C11.2307 14.5489 11.1264 14.7379 11.065 14.9423C11.0035 15.1467 10.9865 15.3619 11.0149 15.5735C11.0433 15.785 11.1165 15.9881 11.2296 16.1691C11.3428 16.3501 11.4933 16.5048 11.671 16.623L12.335 17.065C13.2086 17.654 13.8853 18.4917 14.2776 19.4696C14.6698 20.4475 14.7595 21.5206 14.535 22.55C14.4875 22.744 14.4792 22.9456 14.5106 23.1428C14.5419 23.3401 14.6124 23.5291 14.7178 23.6988C14.8233 23.8684 14.9615 24.0153 15.1245 24.1308C15.2874 24.2464 15.4718 24.3281 15.6668 24.3714C15.8618 24.4147 16.0635 24.4186 16.26 24.3829C16.4566 24.3472 16.644 24.2726 16.8113 24.1635C16.9786 24.0544 17.1225 23.913 17.2344 23.7475C17.3463 23.5821 17.424 23.3959 17.463 23.2C17.7829 21.7304 17.6967 20.2014 17.2139 18.7769C16.731 17.3525 15.8696 16.0863 14.722 15.114Z" fill="#51247A"/>
</svg>
