<svg width="32" height="32" viewBox="0 0 32 32" fill="none" xmlns="http://www.w3.org/2000/svg">
<path d="M15.3913 6.6087C15.3913 7.30056 15.6661 7.9641 16.1554 8.45332C16.6446 8.94255 17.3081 9.21739 18 9.21739C18.6919 9.21739 19.3554 8.94255 19.8446 8.45332C20.3338 7.9641 20.6087 7.30056 20.6087 6.6087C20.6087 5.91683 20.3338 5.25329 19.8446 4.76407C19.3554 4.27484 18.6919 4 18 4C17.3081 4 16.6446 4.27484 16.1554 4.76407C15.6661 5.25329 15.3913 5.91683 15.3913 6.6087Z" fill="#51247A"/>
<path d="M25.2397 10.5636C24.9157 10.3042 24.502 10.1841 24.0895 10.2297C23.677 10.2753 23.2995 10.4828 23.04 10.8067L22.3555 11.6613C22.1516 11.9177 21.872 12.1034 21.5565 12.1918C21.2411 12.2802 20.9057 12.2669 20.5983 12.1538L13.2939 9.4992C12.3861 9.17214 11.3997 9.13186 10.4682 9.38382C9.5367 9.63577 8.7051 10.1678 8.08591 10.9079L6.88696 12.3479C6.74274 12.5037 6.63173 12.6872 6.56066 12.8872C6.4896 13.0873 6.45998 13.2997 6.4736 13.5116C6.48722 13.7234 6.54379 13.9303 6.63988 14.1196C6.73597 14.3089 6.86956 14.4767 7.03254 14.6127C7.19551 14.7488 7.38446 14.8503 7.58789 14.911C7.79131 14.9717 8.00497 14.9904 8.21585 14.966C8.42673 14.9415 8.63044 14.8744 8.81458 14.7688C8.99871 14.6631 9.15943 14.5211 9.28696 14.3514L10.4901 12.9114C10.6969 12.6648 10.9744 12.4876 11.2851 12.4038C11.5958 12.32 11.9248 12.3337 12.2275 12.4429L13.9753 13.0783L12.0125 18.5816C11.9087 18.8934 11.7094 19.1645 11.4429 19.3566C11.1764 19.5488 10.8562 19.6522 10.5277 19.6522H7.56522C7.1501 19.6522 6.75198 19.8172 6.45844 20.1107C6.16491 20.4042 6 20.8023 6 21.2175C6 21.6326 6.16491 22.0307 6.45844 22.3242C6.75198 22.6178 7.1501 22.7827 7.56522 22.7827H10.5277C11.4086 22.784 12.2722 22.537 13.0193 22.07C13.7663 21.6031 14.3667 20.9351 14.7517 20.1427L15.9245 20.6122C16.2754 20.7535 16.5635 21.0166 16.736 21.3532C16.9085 21.6898 16.9538 22.0773 16.8637 22.4446L15.961 26.055C15.8604 26.4577 15.9237 26.8839 16.1372 27.2398C16.3507 27.5958 16.6968 27.8523 17.0995 27.9531C17.2241 27.984 17.352 27.9998 17.4803 28.0001C17.8292 27.9998 18.1679 27.883 18.4428 27.6683C18.7177 27.4535 18.9129 27.1531 18.9976 26.8147L19.8991 23.2001C20.1705 22.0986 20.0355 20.9363 19.5189 19.9263C19.0023 18.9164 18.1389 18.1266 17.087 17.702L15.8275 17.199L16.9169 14.1437L19.5256 15.0922C20.4485 15.4281 21.4535 15.466 22.3992 15.2008C23.3448 14.9355 24.1835 14.3805 24.7972 13.6136L25.4817 12.7653C25.6105 12.6049 25.7065 12.4207 25.764 12.2231C25.8216 12.0256 25.8396 11.8187 25.8171 11.6142C25.7946 11.4097 25.7321 11.2117 25.633 11.0314C25.5339 10.8511 25.4002 10.6921 25.2397 10.5636Z" fill="#51247A"/>
</svg>
