<svg width="32" height="32" viewBox="0 0 32 32" fill="none" xmlns="http://www.w3.org/2000/svg">
<path d="M14.658 12.033C14.7575 12.0661 14.8441 12.1298 14.9055 12.2148C14.9669 12.2999 14.9999 12.4021 15 12.507V16C15 16.2652 15.1054 16.5196 15.2929 16.7071C15.4804 16.8946 15.7348 17 16 17C16.2652 17 16.5196 16.8946 16.7071 16.7071C16.8946 16.5196 17 16.2652 17 16V12.507C17.0001 12.4021 17.0331 12.2999 17.0945 12.2148C17.1559 12.1298 17.2425 12.0661 17.342 12.033C18.188 11.75 18.9238 11.2085 19.4456 10.4849C19.9674 9.76129 20.2487 8.8921 20.25 8C20.25 7.80109 20.171 7.61032 20.0303 7.46967C19.8897 7.32902 19.6989 7.25 19.5 7.25C19.3674 7.25 19.2402 7.19732 19.1464 7.10355C19.0527 7.00979 19 6.88261 19 6.75V5C19 4.73478 18.8946 4.48043 18.7071 4.29289C18.5196 4.10536 18.2652 4 18 4C17.7348 4 17.4804 4.10536 17.2929 4.29289C17.1054 4.48043 17 4.73478 17 5V6.75C17 6.88261 16.9473 7.00979 16.8536 7.10355C16.7598 7.19732 16.6326 7.25 16.5 7.25H15.5C15.3674 7.25 15.2402 7.19732 15.1464 7.10355C15.0527 7.00979 15 6.88261 15 6.75V5C15 4.73478 14.8946 4.48043 14.7071 4.29289C14.5196 4.10536 14.2652 4 14 4C13.7348 4 13.4804 4.10536 13.2929 4.29289C13.1054 4.48043 13 4.73478 13 5V6.75C13 6.88261 12.9473 7.00979 12.8536 7.10355C12.7598 7.19732 12.6326 7.25 12.5 7.25C12.3011 7.25 12.1103 7.32902 11.9697 7.46967C11.829 7.61032 11.75 7.80109 11.75 8C11.7511 8.89214 12.0324 9.76139 12.5542 10.485C13.076 11.2087 13.8119 11.7501 14.658 12.033Z" fill="#51247A"/>
<path d="M10.5 26H7.5C7.36739 26 7.24021 26.0527 7.14645 26.1464C7.05268 26.2402 7 26.3674 7 26.5V27C7 27.2652 7.10536 27.5196 7.29289 27.7071C7.48043 27.8946 7.73478 28 8 28H10C10.2652 28 10.5196 27.8946 10.7071 27.7071C10.8946 27.5196 11 27.2652 11 27V26.5C11 26.3674 10.9473 26.2402 10.8536 26.1464C10.7598 26.0527 10.6326 26 10.5 26Z" fill="#51247A"/>
<path d="M24.5 26H21.5C21.3674 26 21.2402 26.0527 21.1464 26.1464C21.0527 26.2402 21 26.3674 21 26.5V27C21 27.2652 21.1054 27.5196 21.2929 27.7071C21.4804 27.8946 21.7348 28 22 28H24C24.2652 28 24.5196 27.8946 24.7071 27.7071C24.8946 27.5196 25 27.2652 25 27V26.5C25 26.3674 24.9473 26.2402 24.8536 26.1464C24.7598 26.0527 24.6326 26 24.5 26Z" fill="#51247A"/>
<path d="M25.634 21.073L24.915 20.354C24.5325 19.9718 24.232 19.5154 24.032 19.013L22.3 14.689V14.694C22.19 14.4148 21.9983 14.1753 21.7499 14.0068C21.5016 13.8384 21.2081 13.7489 20.908 13.75H19.5C19.2348 13.75 18.9804 13.8554 18.7929 14.0429C18.6054 14.2304 18.5 14.4848 18.5 14.75C18.5 15.0152 18.6054 15.2696 18.7929 15.4571C18.9804 15.6447 19.2348 15.75 19.5 15.75H20.234C20.3339 15.75 20.4314 15.78 20.5141 15.8359C20.5968 15.8919 20.6609 15.9713 20.698 16.064L21.498 18.064C21.5284 18.14 21.5398 18.2222 21.531 18.3035C21.5223 18.3849 21.4937 18.4628 21.4478 18.5306C21.4019 18.5983 21.34 18.6537 21.2677 18.692C21.1954 18.7302 21.1148 18.7502 21.033 18.75H10.966C10.8842 18.7502 10.8036 18.7302 10.7313 18.692C10.659 18.6537 10.5971 18.5983 10.5512 18.5306C10.5053 18.4628 10.4768 18.3849 10.468 18.3035C10.4592 18.2222 10.4706 18.14 10.501 18.064L11.301 16.064C11.3381 15.9713 11.4022 15.8919 11.4849 15.8359C11.5676 15.78 11.6651 15.75 11.765 15.75H12.5C12.7652 15.75 13.0196 15.6447 13.2071 15.4571C13.3946 15.2696 13.5 15.0152 13.5 14.75C13.5 14.4848 13.3946 14.2304 13.2071 14.0429C13.0196 13.8554 12.7652 13.75 12.5 13.75H11.088C10.788 13.7488 10.4946 13.8382 10.2463 14.0064C9.99792 14.1747 9.80613 14.414 9.696 14.693L7.967 19.016C7.76591 19.5184 7.46482 19.9746 7.082 20.357L6.366 21.073C6.24967 21.1889 6.15744 21.3267 6.09462 21.4784C6.0318 21.6301 5.99964 21.7928 6 21.957V23.75C6.00053 24.0814 6.1324 24.399 6.3667 24.6333C6.60101 24.8676 6.91864 24.9995 7.25 25H24.75C25.0814 24.9995 25.399 24.8676 25.6333 24.6333C25.8676 24.399 25.9995 24.0814 26 23.75V21.957C26.0004 21.7928 25.9682 21.6301 25.9054 21.4784C25.8426 21.3267 25.7503 21.1889 25.634 21.073Z" fill="#51247A"/>
</svg>
