<svg width="32" height="32" viewBox="0 0 32 32" fill="none" xmlns="http://www.w3.org/2000/svg">
<path fill-rule="evenodd" clip-rule="evenodd" d="M17.7439 29.0007C17.1946 28.9992 16.6603 28.8212 16.2199 28.4929C16.0921 28.6192 15.9458 28.7253 15.7859 28.8073C15.5373 28.9328 15.263 28.999 14.9846 29.0007H13.0476C12.374 28.9984 11.7284 28.7311 11.2502 28.2565C11.0129 28.0209 10.8247 27.7405 10.6966 27.4315C10.5685 27.1225 10.5031 26.7912 10.5041 26.4567V13.6394L4.88014 8.01484C4.31456 7.43998 3.99834 6.66537 4.00001 5.85894C4.00168 5.0525 4.32111 4.27921 4.88906 3.7067C5.45701 3.13418 6.22772 2.80857 7.03411 2.80044C7.84051 2.79231 8.61762 3.10233 9.197 3.66328L11.0661 5.53242C11.155 4.90542 11.3876 4.30745 11.7458 3.78519C12.1039 3.26293 12.578 2.83051 13.1308 2.5217C13.6837 2.21289 14.3005 2.03604 14.933 2.00495C15.5655 1.97387 16.1966 2.08939 16.7771 2.34251C17.3576 2.59562 17.8717 2.97947 18.2793 3.4641C18.687 3.94873 18.9771 4.52101 19.127 5.13627C19.277 5.75154 19.2827 6.39313 19.1437 7.01096C19.0047 7.6288 18.7249 8.20615 18.3259 8.69795C19.7215 8.84377 21.0138 9.50079 21.9538 10.5425C22.8939 11.5842 23.4154 12.9369 23.4177 14.34V17.4616C24.2494 17.98 24.8535 18.7946 25.1081 19.7409C25.7621 19.7543 26.3853 20.0211 26.8464 20.4851C27.3217 20.9629 27.5895 21.6089 27.5915 22.2829V26.4567C27.5915 27.1314 27.3235 27.7785 26.8464 28.2556C26.3693 28.7326 25.7223 29.0007 25.0476 29.0007H17.7439Z" fill="white"/>
<path fill-rule="evenodd" clip-rule="evenodd" d="M13.2901 7.95417C12.8633 7.52741 12.5978 6.96589 12.5386 6.36527C12.4795 5.76466 12.6304 5.16212 12.9657 4.66031C13.301 4.15851 13.7999 3.78849 14.3775 3.6133C14.955 3.43811 15.5754 3.46859 16.133 3.69955C16.6906 3.93051 17.1508 4.34766 17.4353 4.87992C17.7198 5.41217 17.8109 6.02661 17.6932 6.61853C17.5754 7.21045 17.2561 7.74324 16.7896 8.12611C16.323 8.50898 15.7382 8.71824 15.1347 8.71824C14.7921 8.71825 14.4529 8.65078 14.1364 8.51968C13.8199 8.38858 13.5323 8.19642 13.2901 7.95417ZM15.8987 20.4387C15.4095 20.928 15.1347 21.5915 15.1347 22.2833L15.1305 26.4572C15.132 26.6978 15.1671 26.937 15.2348 27.1678C15.2459 27.2067 15.2479 27.2475 15.2406 27.2873C15.2333 27.327 15.2168 27.3645 15.1926 27.3967C15.1683 27.429 15.1368 27.4552 15.1007 27.4732C15.0646 27.4913 15.0248 27.5007 14.9844 27.5007H13.0477C12.9106 27.5008 12.7749 27.4738 12.6483 27.4213C12.5217 27.3689 12.4067 27.292 12.3098 27.1951C12.2129 27.0982 12.136 26.9832 12.0836 26.8566C12.0311 26.73 12.0042 26.5943 12.0042 26.4572V13.0183L5.94055 6.95468C5.65558 6.65934 5.49801 6.26389 5.50177 5.8535C5.50554 5.44311 5.67033 5.05062 5.96067 4.76056C6.25101 4.47049 6.64366 4.30606 7.05405 4.30269C7.46444 4.29931 7.85974 4.45725 8.15481 4.7425L13.5809 10.1685H17.7434C18.8499 10.17 19.9108 10.6102 20.6932 11.3927C21.4757 12.1751 21.9159 13.236 21.9173 14.3425V18.1146C21.9097 18.2195 21.8887 18.323 21.8547 18.4225C22.383 18.5346 22.8577 18.8227 23.2008 19.2398C23.544 19.6569 23.7353 20.1781 23.7434 20.7181V21.2398H25.0477C25.3244 21.2399 25.5898 21.3499 25.7855 21.5455C25.9812 21.7412 26.0911 22.0066 26.0912 22.2833V26.4572C26.0912 26.734 25.9812 26.9994 25.7855 27.1951C25.5898 27.3908 25.3244 27.5007 25.0477 27.5007H17.7434C17.6063 27.5008 17.4706 27.4738 17.344 27.4213C17.2174 27.3689 17.1024 27.292 17.0055 27.1951C16.9086 27.0982 16.8317 26.9832 16.7793 26.8566C16.7268 26.73 16.6999 26.5943 16.6999 26.4572V22.2833C16.6999 22.0066 16.8098 21.7412 17.0055 21.5455C17.2012 21.3498 17.4666 21.2399 17.7434 21.2398H19.0477V20.7181C19.0502 20.3551 19.1378 19.9977 19.3034 19.6746C19.4136 19.4486 19.5591 19.2415 19.7343 19.0611C19.6012 18.9407 19.4947 18.7939 19.4214 18.63C19.3481 18.4662 19.3097 18.2889 19.3086 18.1094V14.0816C19.3086 13.9433 19.2536 13.8106 19.1558 13.7127C19.0579 13.6149 18.9252 13.5599 18.7868 13.5599C18.6485 13.5599 18.5157 13.6149 18.4179 13.7127C18.3201 13.8106 18.2651 13.9433 18.2651 14.0816V19.4138C18.2651 19.4481 18.2583 19.482 18.2452 19.5137C18.2321 19.5453 18.2129 19.5741 18.1886 19.5983C18.1644 19.6225 18.1357 19.6417 18.104 19.6548C18.0724 19.6679 18.0384 19.6747 18.0042 19.6746H17.7434C17.0515 19.6747 16.3879 19.9495 15.8987 20.4387ZM22.1781 21.2398V20.7181C22.1781 20.5106 22.0956 20.3115 21.9489 20.1648C21.8021 20.018 21.603 19.9355 21.3955 19.9355C21.1879 19.9355 20.9889 20.018 20.8421 20.1648C20.6953 20.3115 20.6129 20.5106 20.6129 20.7181V21.2398H22.1781Z" fill="#4085C6"/>
</svg>
