<svg width="32" height="32" viewBox="0 0 32 32" fill="none" xmlns="http://www.w3.org/2000/svg">
<path d="M21.3645 8.20001C21.4018 8.22155 21.4329 8.25238 21.4548 8.28951C21.4767 8.32663 21.4886 8.36879 21.4894 8.41188V9.01152C21.4894 9.07778 21.4631 9.14133 21.4162 9.18819C21.3694 9.23504 21.3058 9.26137 21.2395 9.26137H21.1056C21.0596 9.26122 21.0152 9.27875 20.9817 9.31034L13.4623 16.8298C13.4272 16.8647 13.4034 16.9093 13.3937 16.9578C13.384 17.0063 13.389 17.0566 13.4079 17.1023C13.4268 17.1481 13.4589 17.1871 13.5001 17.2146C13.5413 17.242 13.5897 17.2566 13.6392 17.2565H18.3753C18.4213 17.2567 18.4657 17.2391 18.4992 17.2075L26.0186 9.68811C26.0537 9.65316 26.0775 9.6086 26.0872 9.56008C26.0969 9.51156 26.0919 9.46125 26.073 9.41554C26.0541 9.36983 26.022 9.33078 25.9808 9.30333C25.9396 9.27588 25.8912 9.26128 25.8417 9.26137H23.738C23.6718 9.26137 23.6082 9.23504 23.5614 9.18819C23.5145 9.14133 23.4882 9.07778 23.4882 9.01152V8.41188C23.4883 8.36811 23.4999 8.32513 23.5218 8.28724C23.5437 8.24936 23.5752 8.2179 23.6131 8.19601C24.0418 7.94851 24.3768 7.56647 24.5663 7.10915C24.7557 6.65183 24.7889 6.14478 24.6608 5.66665C24.5327 5.18851 24.2504 4.76601 23.8577 4.46467C23.465 4.16334 22.9838 4 22.4888 4C21.9938 4 21.5126 4.16334 21.1199 4.46467C20.7272 4.76601 20.4449 5.18851 20.3168 5.66665C20.1887 6.14478 20.2219 6.65183 20.4113 7.10915C20.6007 7.56647 20.9358 7.94851 21.3645 8.19601V8.20001Z" fill="#51247A"/>
<path d="M20.9957 16.8298C20.9607 16.8648 20.9368 16.9093 20.9271 16.9579C20.9175 17.0064 20.9224 17.0567 20.9413 17.1024C20.9603 17.1481 20.9924 17.1872 21.0336 17.2146C21.0747 17.2421 21.1231 17.2567 21.1726 17.2566H23.4882C23.5545 17.2566 23.618 17.2829 23.6649 17.3297C23.7117 17.3766 23.738 17.4402 23.738 17.5064V26.7508C23.738 27.0821 23.8697 27.3999 24.1039 27.6342C24.3382 27.8684 24.656 28.0001 24.9873 28.0001C25.3186 28.0001 25.6364 27.8684 25.8706 27.6342C26.1049 27.3999 26.2365 27.0821 26.2365 26.7508V17.5064C26.2365 17.4402 26.2628 17.3766 26.3097 17.3297C26.3566 17.2829 26.4201 17.2566 26.4864 17.2566C26.884 17.2566 27.2653 17.0986 27.5464 16.8175C27.8275 16.5364 27.9855 16.1551 27.9855 15.7575V10.7605C27.9854 10.645 27.9713 10.5299 27.9435 10.4177C27.9328 10.3747 27.9109 10.3353 27.88 10.3035C27.849 10.2718 27.8102 10.2488 27.7675 10.237C27.7248 10.2252 27.6797 10.225 27.6369 10.2364C27.594 10.2478 27.555 10.2703 27.5237 10.3018L20.9957 16.8298Z" fill="#51247A"/>
<path d="M11.1147 9.68811C11.1497 9.65316 11.1736 9.6086 11.1833 9.56008C11.1929 9.51156 11.188 9.46125 11.169 9.41554C11.1501 9.36983 11.118 9.33078 11.0768 9.30333C11.0357 9.27588 10.9873 9.26128 10.9378 9.26137H10.7459C10.6796 9.26137 10.6161 9.23504 10.5692 9.18819C10.5224 9.14133 10.4961 9.07778 10.4961 9.01152V8.41188C10.4961 8.36811 10.5077 8.32513 10.5297 8.28724C10.5516 8.24936 10.5831 8.2179 10.621 8.19601C11.0497 7.94851 11.3847 7.56647 11.5741 7.10915C11.7636 6.65183 11.7968 6.14478 11.6687 5.66665C11.5406 5.18851 11.2583 4.76601 10.8655 4.46467C10.4728 4.16334 9.99167 4 9.49667 4C9.00166 4 8.52049 4.16334 8.12778 4.46467C7.73507 4.76601 7.45277 5.18851 7.32465 5.66665C7.19654 6.14478 7.22977 6.65183 7.4192 7.10915C7.60863 7.56647 7.94366 7.94851 8.37235 8.19601C8.41026 8.2179 8.44175 8.24936 8.46367 8.28724C8.4856 8.32513 8.49718 8.36811 8.49727 8.41188V9.01152C8.49727 9.07778 8.47095 9.14133 8.42409 9.18819C8.37724 9.23504 8.31369 9.26137 8.24742 9.26137H5.49909C5.10151 9.26137 4.72021 9.41931 4.43907 9.70044C4.15794 9.98157 4 10.3629 4 10.7605V15.7574C3.99985 15.9133 4.02482 16.0682 4.07396 16.2161C4.08692 16.2569 4.11018 16.2937 4.14148 16.3228C4.17279 16.352 4.21109 16.3726 4.25268 16.3827C4.29427 16.3927 4.33775 16.3918 4.37892 16.3802C4.42009 16.3685 4.45756 16.3465 4.4877 16.3161L11.1147 9.68811Z" fill="#51247A"/>
<path d="M10.9648 17.2065L18.4822 9.68907C18.5172 9.65413 18.5411 9.60957 18.5508 9.56104C18.5605 9.51252 18.5555 9.46221 18.5366 9.4165C18.5176 9.3708 18.4855 9.33174 18.4444 9.30429C18.4032 9.27685 18.3548 9.26224 18.3053 9.26233H13.7351C13.689 9.26219 13.6447 9.27972 13.6112 9.3113L5.70696 17.2145C5.70438 17.2185 5.703 17.2232 5.703 17.228C5.703 17.2328 5.70438 17.2375 5.70696 17.2415C5.70891 17.246 5.71213 17.2498 5.71621 17.2524C5.72029 17.2551 5.72507 17.2565 5.72994 17.2565C5.73631 17.2565 5.74241 17.259 5.74691 17.2635C5.7514 17.268 5.75393 17.2741 5.75393 17.2805V26.7507C5.75393 27.082 5.88555 27.3998 6.11983 27.6341C6.3541 27.8683 6.67185 28 7.00317 28C7.33449 28 7.65224 27.8683 7.88652 27.6341C8.1208 27.3998 8.25242 27.082 8.25242 26.7507V17.5063C8.25242 17.4401 8.27874 17.3765 8.32559 17.3297C8.37245 17.2828 8.436 17.2565 8.50226 17.2565H10.8458C10.8905 17.256 10.9332 17.2381 10.9648 17.2065Z" fill="#51247A"/>
</svg>
