<svg width="32" height="32" viewBox="0 0 32 32" fill="none" xmlns="http://www.w3.org/2000/svg">
<path fill-rule="evenodd" clip-rule="evenodd" d="M25.4873 29.0007C24.7584 29.0002 24.0594 28.7105 23.544 28.195C23.0285 27.6796 22.7388 26.9806 22.7383 26.2517V18.2575H21.6729C21.4011 18.2574 21.1331 18.1941 20.8901 18.0726C20.647 17.9511 20.4356 17.7747 20.2725 17.5573L20.0605 17.7683C19.7446 18.0795 19.3195 18.2551 18.876 18.2575H14.1396C13.7994 18.2576 13.4665 18.1585 13.1816 17.9724C13.011 17.8603 12.861 17.7196 12.7383 17.5564L12.5254 17.7683C12.2209 18.0735 11.81 18.2488 11.3789 18.2575H10.2529V26.2517C10.2501 26.9791 9.95923 27.6757 9.44389 28.1891C8.92856 28.7025 8.2308 28.9907 7.5034 28.9907C6.776 28.9907 6.07824 28.7025 5.56291 28.1891C5.04758 27.6757 4.75668 26.9791 4.7539 26.2517V17.3903H4.63867L4.41308 17.3444C4.11481 17.2733 3.83998 17.1263 3.61523 16.9177C3.39603 16.7115 3.2333 16.4526 3.14257 16.1657C3.04781 15.8725 2.9997 15.5662 3 15.258V10.2614C3.00034 9.4661 3.31639 8.70343 3.87873 8.141C4.44106 7.57857 5.20367 7.26239 5.999 7.26192H6.56736C6.55566 7.23604 6.54492 7.21069 6.53416 7.18428C6.29141 6.59801 6.20148 5.95971 6.2728 5.32919C6.34413 4.69868 6.57436 4.09659 6.94194 3.57936C7.30952 3.06214 7.8024 2.6467 8.37439 2.37199C8.94638 2.09728 9.57875 1.9723 10.2122 2.00875C10.8457 2.0452 11.4596 2.24189 11.9963 2.58039C12.533 2.91889 12.975 3.38811 13.2808 3.94408C13.5866 4.50006 13.7463 5.12458 13.7448 5.75911C13.7434 6.39365 13.5808 7.01742 13.2724 7.57198C13.5534 7.37125 13.89 7.2632 14.2353 7.2629H18.8057C19.1087 7.26253 19.4066 7.34129 19.6699 7.49141C19.6172 7.39034 19.5693 7.28731 19.5254 7.18184C19.2897 6.61224 19.1981 5.99331 19.2588 5.37986C19.3194 4.76642 19.5304 4.17739 19.873 3.66496C20.2157 3.15253 20.6794 2.7325 21.2231 2.44208C21.7669 2.15167 22.3738 1.99982 22.9903 2C23.6067 2.00018 24.2136 2.15237 24.7571 2.4431C25.3007 2.73383 25.7642 3.15413 26.1065 3.66676C26.4489 4.17939 26.6595 4.76854 26.7198 5.38202C26.7801 5.9955 26.6882 6.61437 26.4521 7.18384C26.4414 7.21069 26.4297 7.23706 26.418 7.26343C26.7328 7.27696 27.0381 7.3753 27.3016 7.54806C27.5651 7.72082 27.7771 7.96157 27.915 8.24487L27.9453 8.23706L28.2022 8.22869C28.4384 8.22863 28.6722 8.2765 28.8894 8.3694C29.1066 8.46231 29.3027 8.59832 29.4658 8.76921C29.677 8.98819 29.8265 9.25904 29.8994 9.55437C29.9553 9.78164 29.9845 10.0147 29.9863 10.2487V15.258C29.9854 15.8322 29.8202 16.3941 29.5103 16.8774C29.2004 17.3608 28.7587 17.7454 28.2373 17.986V26.2517C28.2369 26.9808 27.947 27.6799 27.4313 28.1954C26.9157 28.7108 26.2165 29.0005 25.4873 29.0007H25.4873Z" fill="white"/>
<path fill-rule="evenodd" clip-rule="evenodd" d="M11.6151 9.18874C11.6501 9.15379 11.6739 9.10923 11.6836 9.06071C11.6933 9.01219 11.6883 8.96189 11.6694 8.91618C11.6504 8.87048 11.6184 8.83143 11.5772 8.80398C11.536 8.77653 11.4876 8.76192 11.4382 8.762H11.2463C11.2135 8.76201 11.181 8.75555 11.1506 8.743C11.1203 8.73045 11.0928 8.71204 11.0696 8.68884C11.0464 8.66564 11.028 8.63809 11.0154 8.60777C11.0029 8.57745 10.9965 8.54496 10.9965 8.51215V7.91251C10.9966 7.86874 11.0081 7.82576 11.0301 7.78788C11.052 7.74999 11.0835 7.71853 11.1214 7.69664C11.5501 7.44913 11.8851 7.0671 12.0745 6.60977C12.2639 6.15245 12.2972 5.6454 12.1691 5.16727C12.0409 4.68913 11.7586 4.26663 11.3659 3.96529C10.9732 3.66396 10.492 3.50062 9.99704 3.50062C9.50204 3.50062 9.02087 3.66396 8.62816 3.96529C8.23545 4.26663 7.95314 4.68913 7.82502 5.16727C7.69691 5.6454 7.73014 6.15245 7.91957 6.60977C8.109 7.0671 8.44403 7.44913 8.87272 7.69664C8.91062 7.71852 8.94212 7.74998 8.96404 7.78787C8.98596 7.82576 8.99755 7.86874 8.99764 7.91251V8.51215C8.99764 8.57841 8.97131 8.64196 8.92446 8.68882C8.8776 8.73567 8.81405 8.762 8.74779 8.762H5.99946C5.80259 8.762 5.60765 8.80077 5.42577 8.87611C5.24389 8.95145 5.07863 9.06187 4.93942 9.20108C4.80022 9.34029 4.6898 9.50555 4.61446 9.68744C4.53913 9.86932 4.50036 10.0643 4.50037 10.2611V15.258C4.50023 15.4139 4.52522 15.5688 4.57437 15.7167C4.58732 15.7575 4.61057 15.7943 4.64188 15.8234C4.67318 15.8526 4.71148 15.8732 4.75307 15.8833C4.79467 15.8933 4.83815 15.8925 4.87932 15.8808C4.9205 15.8692 4.95797 15.8471 4.98812 15.8167L11.6151 9.18874ZM21.9552 7.79014C21.9333 7.75302 21.9022 7.72219 21.8649 7.70064V7.69663C21.4362 7.44913 21.1011 7.06708 20.9117 6.60975C20.7222 6.15242 20.689 5.64535 20.8171 5.1672C20.9452 4.68905 21.2275 4.26653 21.6203 3.96518C22.013 3.66383 22.4942 3.50049 22.9892 3.50049C23.4842 3.50049 23.9654 3.66383 24.3581 3.96518C24.7508 4.26653 25.0331 4.68905 25.1613 5.1672C25.2894 5.64535 25.2561 6.15242 25.0667 6.60975C24.8772 7.06708 24.5422 7.44913 24.1135 7.69663C24.0756 7.71852 24.0441 7.74998 24.0222 7.78787C24.0003 7.82575 23.9887 7.86873 23.9886 7.9125V8.51214C23.9886 8.57839 24.0149 8.64193 24.0618 8.68878C24.1086 8.73563 24.1721 8.76197 24.2384 8.76199H26.3421C26.3916 8.76189 26.44 8.77649 26.4811 8.80394C26.5223 8.83138 26.5544 8.87044 26.5734 8.91615C26.5923 8.96186 26.5973 9.01217 26.5876 9.0607C26.5779 9.10922 26.554 9.15378 26.519 9.18873L18.9996 16.7081C18.9661 16.7397 18.9217 16.7573 18.8757 16.7571H14.1396C14.0901 16.7572 14.0417 16.7426 14.0005 16.7152C13.9593 16.6878 13.9272 16.6487 13.9083 16.603C13.8893 16.5573 13.8844 16.507 13.8941 16.4584C13.9037 16.4099 13.9276 16.3654 13.9627 16.3304L21.4821 8.81097C21.5156 8.77937 21.5599 8.76183 21.606 8.76197H21.7399C21.8061 8.76197 21.8697 8.73565 21.9166 8.6888C21.9634 8.64194 21.9898 8.57839 21.9898 8.51212V7.91251C21.989 7.86942 21.9771 7.82726 21.9552 7.79014ZM21.4275 16.4585C21.4372 16.41 21.4611 16.3654 21.4961 16.3304L28.0241 9.80243C28.0553 9.77096 28.0944 9.74838 28.1372 9.73699C28.18 9.7256 28.2251 9.72581 28.2679 9.73761C28.3106 9.74941 28.3494 9.77236 28.3804 9.80412C28.4113 9.83588 28.4332 9.8753 28.4439 9.91833C28.4717 10.0305 28.4858 10.1456 28.4859 10.2611V15.2581C28.4859 15.6557 28.3279 16.037 28.0468 16.3181C27.7657 16.5993 27.3844 16.7572 26.9868 16.7572C26.954 16.7572 26.9215 16.7637 26.8912 16.7762C26.8608 16.7887 26.8333 16.8071 26.8101 16.8303C26.7869 16.8535 26.7685 16.8811 26.7559 16.9114C26.7433 16.9417 26.7369 16.9742 26.7369 17.007V26.2514C26.7374 26.4158 26.7054 26.5786 26.6428 26.7306C26.5802 26.8826 26.4883 27.0207 26.3722 27.1371C26.2562 27.2534 26.1183 27.3458 25.9665 27.4088C25.8147 27.4718 25.652 27.5042 25.4876 27.5042C25.3233 27.5042 25.1606 27.4718 25.0088 27.4088C24.857 27.3458 24.7191 27.2534 24.603 27.1371C24.487 27.0207 24.395 26.8826 24.3325 26.7306C24.2699 26.5786 24.2379 26.4158 24.2384 26.2514V17.007C24.2384 16.9742 24.232 16.9417 24.2194 16.9114C24.2069 16.8811 24.1885 16.8535 24.1653 16.8303C24.1421 16.8071 24.1145 16.7887 24.0842 16.7762C24.0539 16.7636 24.0214 16.7572 23.9886 16.7572H21.673C21.636 16.7573 21.5994 16.7492 21.566 16.7334C21.5325 16.7176 21.503 16.6946 21.4795 16.666C21.456 16.6374 21.4391 16.604 21.4302 16.5681C21.4212 16.5322 21.4203 16.4948 21.4275 16.4585H21.4275ZM18.9826 9.18982L11.4652 16.7072C11.4336 16.7388 11.3909 16.7568 11.3462 16.7572H9.00263C8.96981 16.7572 8.93732 16.7637 8.90701 16.7763C8.87669 16.7888 8.84915 16.8072 8.82595 16.8304C8.80275 16.8536 8.78435 16.8812 8.7718 16.9115C8.75925 16.9418 8.75279 16.9743 8.7528 17.0071V26.2514C8.7528 26.5827 8.62118 26.9005 8.3869 27.1348C8.15262 27.3691 7.83487 27.5007 7.50355 27.5007C7.17222 27.5007 6.85447 27.3691 6.62019 27.1348C6.38591 26.9005 6.2543 26.5827 6.2543 26.2514V16.7812C6.25431 16.7781 6.25369 16.7749 6.25249 16.772C6.25129 16.7691 6.24952 16.7665 6.24729 16.7642C6.24506 16.762 6.24241 16.7602 6.23949 16.759C6.23658 16.7578 6.23345 16.7572 6.2303 16.7572C6.22541 16.7572 6.22063 16.7558 6.21656 16.7531C6.21245 16.7505 6.20923 16.7467 6.20731 16.7422L6.20331 16.7287L6.20731 16.7152L14.1115 8.81205C14.145 8.78044 14.1894 8.7629 14.2354 8.76305H18.8056C18.8551 8.76295 18.9035 8.77755 18.9447 8.805C18.9859 8.83244 19.018 8.8715 19.0369 8.91721C19.0559 8.96292 19.0608 9.01323 19.0511 9.06176C19.0415 9.11028 19.0176 9.15484 18.9826 9.18979L18.9826 9.18982Z" fill="#E62645"/>
</svg>
