<svg width="32" height="32" viewBox="0 0 32 32" fill="none" xmlns="http://www.w3.org/2000/svg">
<path d="M4.25272 22.4418C4.21625 22.4416 4.18018 22.4494 4.14701 22.4646C4.11385 22.4797 4.08437 22.5019 4.06063 22.5296C4.03688 22.5573 4.01944 22.5898 4.00951 22.6249C3.99958 22.66 3.99739 22.6968 4.00311 22.7328L4.16884 23.8192C4.25067 24.1473 4.43984 24.4386 4.70628 24.6468C4.97271 24.855 5.30111 24.9681 5.63924 24.9682H13.2368C13.3038 24.9682 13.3681 24.9949 13.4155 25.0422C13.4629 25.0896 13.4895 25.1539 13.4895 25.2209V27.4947C13.4895 27.6287 13.5427 27.7572 13.6375 27.852C13.7322 27.9468 13.8608 28 13.9948 28H18.0371C18.1711 28 18.2996 27.9468 18.3944 27.852C18.4892 27.7572 18.5424 27.6287 18.5424 27.4947V25.2209C18.5424 25.1539 18.569 25.0896 18.6164 25.0422C18.6638 24.9949 18.728 24.9682 18.795 24.9682H26.2936C26.6393 24.9665 26.9741 24.8471 27.2429 24.6299C27.5118 24.4126 27.6988 24.1103 27.7731 23.7727L27.9277 22.7318C27.9331 22.6959 27.9307 22.6592 27.9206 22.6243C27.9105 22.5895 27.893 22.5571 27.8693 22.5296C27.8456 22.5021 27.8163 22.48 27.7833 22.4648C27.7503 22.4497 27.7144 22.4418 27.6781 22.4418H4.25272Z" fill="#51247A"/>
<path d="M27.6097 21.4312C27.6507 21.431 27.6911 21.4209 27.7273 21.4017C27.7636 21.3826 27.7946 21.3549 27.8179 21.321C27.8412 21.2874 27.8559 21.2484 27.8607 21.2077C27.8655 21.167 27.8601 21.1258 27.8451 21.0876L24.8194 13.3061C24.7099 13.0201 24.5158 12.7744 24.263 12.6016C24.0103 12.4288 23.7108 12.3372 23.4046 12.339H12.7308C12.6638 12.339 12.5996 12.3656 12.5522 12.413C12.5048 12.4603 12.4782 12.5246 12.4782 12.5916V15.3707C12.4782 15.5717 12.3983 15.7645 12.2562 15.9067C12.114 16.0488 11.9213 16.1286 11.7202 16.1286C11.5192 16.1286 11.3264 16.0488 11.1843 15.9067C11.0422 15.7645 10.9623 15.5717 10.9623 15.3707V12.0762C10.961 11.8103 11.0125 11.5468 11.1138 11.301C11.2151 11.0552 11.3642 10.8319 11.5525 10.6442L12.0648 10.1389C12.0961 10.1076 12.1351 10.085 12.1778 10.0735C12.2206 10.062 12.2656 10.0619 12.3084 10.0732C12.6483 10.164 13.0053 10.1701 13.3481 10.091C13.691 10.0119 14.0092 9.84999 14.275 9.61947L16.3871 7.79031C16.8201 7.41615 17.0867 6.8853 17.1283 6.31456C17.1699 5.74382 16.9831 5.17992 16.6089 4.74693C16.2348 4.31394 15.7039 4.04731 15.1332 4.00571C14.5625 3.96411 13.9986 4.15094 13.5656 4.52511L11.4524 6.35427C11.1622 6.60624 10.9444 6.93103 10.8215 7.29517C10.6986 7.65932 10.675 8.04966 10.7531 8.42597C10.7619 8.46705 10.7602 8.50969 10.7482 8.54995C10.7362 8.59021 10.7142 8.62681 10.6844 8.65638L10.1235 9.21725C9.74665 9.59165 9.44789 10.0372 9.24457 10.5279C9.04125 11.0187 8.93742 11.545 8.93911 12.0762V12.0833C8.93911 12.1503 8.91249 12.2145 8.86511 12.2619C8.81773 12.3093 8.75347 12.3359 8.68646 12.3359H8.61976C8.31416 12.3338 8.01515 12.4246 7.76243 12.5965C7.50972 12.7683 7.31528 13.013 7.20494 13.298C5.0534 18.6683 4.33084 20.4732 4.08526 21.0795C4.0699 21.1178 4.06417 21.1594 4.06857 21.2004C4.07297 21.2415 4.08737 21.2808 4.11051 21.315C4.13364 21.3492 4.16481 21.3773 4.20129 21.3966C4.23776 21.416 4.27842 21.4261 4.31972 21.4261L27.6097 21.4312ZM22.9074 19.693C22.8506 19.7624 22.779 19.8184 22.698 19.8568C22.6169 19.8953 22.5283 19.9153 22.4385 19.9153H14.5984C14.5087 19.9153 14.4201 19.8953 14.339 19.8569C14.2579 19.8185 14.1864 19.7625 14.1296 19.6931C14.0727 19.6237 14.032 19.5426 14.0103 19.4555C13.9886 19.3685 13.9865 19.2777 14.0042 19.1897L14.9743 14.3389C15.0019 14.2016 15.0761 14.078 15.1844 13.9892C15.2928 13.9004 15.4285 13.8519 15.5685 13.8518H21.4683C21.6086 13.8516 21.7445 13.9001 21.8531 13.9889C21.9616 14.0777 22.036 14.2014 22.0636 14.3389L23.0337 19.1897C23.0512 19.2777 23.049 19.3685 23.0271 19.4555C23.0053 19.5426 22.9644 19.6237 22.9074 19.693Z" fill="#51247A"/>
</svg>
