<svg width="32" height="32" viewBox="0 0 32 32" fill="none" xmlns="http://www.w3.org/2000/svg">
<path d="M4.5 15H11.5C11.6326 15 11.7598 14.9473 11.8536 14.8536C11.9473 14.7598 12 14.6326 12 14.5V14C12 13.2044 11.6839 12.4413 11.1213 11.8787C10.5587 11.3161 9.79565 11 9 11H7C6.20435 11 5.44129 11.3161 4.87868 11.8787C4.31607 12.4413 4 13.2044 4 14V14.5C4 14.6326 4.05268 14.7598 4.14645 14.8536C4.24021 14.9473 4.36739 15 4.5 15Z" fill="#51247A"/>
<path d="M5.5 7C5.5 7.66304 5.76339 8.29893 6.23223 8.76777C6.70107 9.23661 7.33696 9.5 8 9.5C8.66304 9.5 9.29893 9.23661 9.76777 8.76777C10.2366 8.29893 10.5 7.66304 10.5 7C10.5 6.33696 10.2366 5.70107 9.76777 5.23223C9.29893 4.76339 8.66304 4.5 8 4.5C7.33696 4.5 6.70107 4.76339 6.23223 5.23223C5.76339 5.70107 5.5 6.33696 5.5 7Z" fill="#51247A"/>
<path d="M17.5 25.75V18.133C17.5 18.0827 17.4847 18.0336 17.4563 17.992C17.4279 17.9505 17.3876 17.9185 17.3407 17.9003C17.2938 17.882 17.2425 17.8783 17.1935 17.8897C17.1445 17.9011 17.1001 17.927 17.066 17.964C16.2654 18.8723 15.1611 19.4575 13.96 19.61C13.476 19.6102 13.0048 19.4547 12.6158 19.1666C12.2269 18.8785 11.9409 18.473 11.8 18.01C11.6532 17.5113 11.6861 16.9769 11.893 16.5H4.75C4.55109 16.5 4.36032 16.579 4.21967 16.7197C4.07902 16.8603 4 17.0511 4 17.25C4 17.4489 4.07902 17.6397 4.21967 17.7803C4.36032 17.921 4.55109 18 4.75 18H5.5V26.5C5.5 26.6326 5.55268 26.7598 5.64645 26.8536C5.74021 26.9473 5.86739 27 6 27H17.459C17.5006 26.9999 17.5415 26.9895 17.5781 26.9698C17.6148 26.9501 17.646 26.9216 17.669 26.887C17.6916 26.8522 17.7052 26.8123 17.7085 26.7709C17.7118 26.7295 17.7048 26.688 17.688 26.65C17.5636 26.3663 17.4996 26.0598 17.5 25.75Z" fill="#51247A"/>
<path d="M19 6.5C19 7.16304 19.2634 7.79893 19.7322 8.26777C20.2011 8.73661 20.837 9 21.5 9C22.163 9 22.7989 8.73661 23.2678 8.26777C23.7366 7.79893 24 7.16304 24 6.5C24 5.83696 23.7366 5.20107 23.2678 4.73223C22.7989 4.26339 22.163 4 21.5 4C20.837 4 20.2011 4.26339 19.7322 4.73223C19.2634 5.20107 19 5.83696 19 6.5Z" fill="#51247A"/>
<path d="M28 14.3899C27.9987 13.3294 27.5768 12.3128 26.827 11.5629C26.0771 10.8131 25.0605 10.3912 24 10.3899H19C17.9812 10.3906 17.001 10.7801 16.2595 11.4788C15.518 12.1775 15.0711 13.1329 15.01 14.1499C15.0211 14.5931 14.889 15.0281 14.6331 15.3902C14.3773 15.7524 14.0115 16.0223 13.59 16.1599C13.2738 16.2577 13.009 16.4766 12.8535 16.7689C12.6981 17.0611 12.6644 17.403 12.76 17.7199C12.771 17.7559 13.219 19.2469 15.03 18.2599C15.7897 17.8777 16.4252 17.2875 16.8625 16.5581C17.2997 15.8287 17.5208 14.9901 17.5 14.1399C17.5 14.0073 17.5527 13.8801 17.6464 13.7863C17.7402 13.6926 17.8674 13.6399 18 13.6399C18.1326 13.6399 18.2598 13.6926 18.3536 13.7863C18.4473 13.8801 18.5 14.0073 18.5 14.1399V25.7499C18.5 26.0814 18.6317 26.3994 18.8661 26.6338C19.1005 26.8682 19.4185 26.9999 19.75 26.9999C20.0815 26.9999 20.3995 26.8682 20.6339 26.6338C20.8683 26.3994 21 26.0814 21 25.7499V19.4999C21 19.3673 21.0527 19.2401 21.1464 19.1463C21.2402 19.0526 21.3674 18.9999 21.5 18.9999C21.6326 18.9999 21.7598 19.0526 21.8536 19.1463C21.9473 19.2401 22 19.3673 22 19.4999V25.7499C22 26.0814 22.1317 26.3994 22.3661 26.6338C22.6005 26.8682 22.9185 26.9999 23.25 26.9999C23.5815 26.9999 23.8995 26.8682 24.1339 26.6338C24.3683 26.3994 24.5 26.0814 24.5 25.7499V14.1399C24.5 14.0073 24.5527 13.8801 24.6464 13.7863C24.7402 13.6926 24.8674 13.6399 25 13.6399C25.1326 13.6399 25.2598 13.6926 25.3536 13.7863C25.4473 13.8801 25.5 14.0073 25.5 14.1399V17.9999C25.5 18.3314 25.6317 18.6494 25.8661 18.8838C26.1005 19.1182 26.4185 19.2499 26.75 19.2499C27.0815 19.2499 27.3995 19.1182 27.6339 18.8838C27.8683 18.6494 28 18.3314 28 17.9999V14.3899Z" fill="#51247A"/>
</svg>
