<svg width="32" height="32" viewBox="0 0 32 32" fill="none" xmlns="http://www.w3.org/2000/svg">
<path fill-rule="evenodd" clip-rule="evenodd" d="M7.99908 29.5C6.93826 29.4999 5.92091 29.0784 5.1708 28.3283C4.42068 27.5782 3.99921 26.5608 3.99908 25.5V14.5C3.99952 13.5226 4.35759 12.579 5.00575 11.8474C5.65391 11.1158 6.54737 10.6466 7.51763 10.5283C7.50509 10.4348 7.4989 10.3405 7.49908 10.2461V9.74609C7.49638 9.49253 7.52792 9.23976 7.59283 8.99463C6.93796 8.95231 6.32601 8.65411 5.88913 8.16443C5.45224 7.67475 5.22549 7.03288 5.25783 6.37744C5.28113 5.92781 5.42411 5.49256 5.67198 5.1167L6.37408 4.061C6.69357 3.58106 7.12664 3.18744 7.63483 2.91512C8.14303 2.6428 8.71061 2.50021 9.28716 2.5H14.2491C14.8291 2.50086 15.3907 2.70323 15.8379 3.07248C16.2852 3.44173 16.5902 3.95491 16.7008 4.52423C16.8115 5.09355 16.7208 5.68362 16.4444 6.19349C16.168 6.70336 15.723 7.10134 15.1856 7.31934C15.5195 7.5356 15.805 7.81872 16.024 8.15085C16.243 8.48297 16.3908 8.85689 16.4581 9.249C17.3574 7.61282 18.3645 6.03822 19.4727 4.53562C19.7204 4.21279 20.0397 3.95187 20.4053 3.77342C20.7477 3.6098 21.1223 3.52503 21.5017 3.52537C21.8812 3.52571 22.2557 3.61114 22.5977 3.77537C22.9391 3.93983 23.2399 4.17778 23.4786 4.47215C26.4942 8.64548 28.001 11.7067 27.9991 13.6557C28.0218 14.9509 27.6503 16.2223 26.9338 17.3015C26.2173 18.3806 25.1898 19.2165 23.9874 19.6982C23.2308 20.0022 22.4229 20.1581 21.6075 20.1572H21.3907C20.9226 20.1577 20.456 20.1066 19.9991 20.0049V25.5C19.9992 26.0253 19.8957 26.5455 19.6947 27.0308C19.4937 27.5162 19.1991 27.9571 18.8277 28.3286C18.4562 28.7 18.0152 28.9947 17.5299 29.1957C17.0446 29.3967 16.5244 29.5001 15.9991 29.5H7.99908Z" fill="white"/>
<path fill-rule="evenodd" clip-rule="evenodd" d="M7.75127 7.5C7.91603 7.50019 8.07828 7.45967 8.22361 7.38203C8.36893 7.3044 8.49282 7.19206 8.58427 7.055L9.13927 6.223C9.18488 6.15445 9.24672 6.09823 9.31929 6.05933C9.39186 6.02042 9.47292 6.00004 9.55526 6H10.4993C10.5649 5.99999 10.6299 6.01292 10.6906 6.03804C10.7513 6.06317 10.8064 6.1 10.8528 6.14643C10.8993 6.19286 10.9361 6.24798 10.9612 6.30865C10.9863 6.36931 10.9993 6.43434 10.9993 6.5V7.861C10.9993 7.92666 10.9863 7.99169 10.9612 8.05235C10.9361 8.11302 10.8993 8.16814 10.8528 8.21457C10.8064 8.261 10.7513 8.29783 10.6906 8.32296C10.6299 8.34808 10.5649 8.36101 10.4993 8.361H10.2493C9.90484 8.39218 9.58486 8.5521 9.35315 8.80882C9.12145 9.06555 8.99508 9.4002 8.99926 9.746V10.246C8.99927 10.4449 9.07829 10.6357 9.21894 10.7763C9.35959 10.917 9.55035 10.996 9.74926 10.996H14.2493C14.4475 10.996 14.6376 10.9175 14.7781 10.7777C14.9187 10.6379 14.9982 10.4482 14.9993 10.25V9.75C15.0034 9.4042 14.8771 9.06955 14.6454 8.81282C14.4137 8.5561 14.0937 8.39618 13.7493 8.365H13.4993C13.3667 8.36497 13.2395 8.31229 13.1457 8.21852C13.052 8.12476 12.9993 7.9976 12.9993 7.865V6.5C12.9993 6.3674 13.052 6.24024 13.1457 6.14648C13.2395 6.05271 13.3667 6.00003 13.4993 6H14.2493C14.5145 6 14.7688 5.89464 14.9564 5.70711C15.1439 5.51957 15.2493 5.26522 15.2493 5C15.2493 4.73478 15.1439 4.48043 14.9564 4.29289C14.7688 4.10536 14.5145 4 14.2493 4H9.28726C8.95798 4.00006 8.63382 4.08142 8.34353 4.23685C8.05325 4.39228 7.80584 4.61698 7.62326 4.891L6.92326 5.945C6.82297 6.09532 6.76528 6.27 6.75633 6.45049C6.74738 6.63097 6.78751 6.8105 6.87244 6.97001C6.95737 7.12951 7.08393 7.26302 7.23867 7.35634C7.39342 7.44966 7.57055 7.49931 7.75126 7.5H7.75127ZM18.2453 19.305C17.2502 18.7378 16.4246 17.9151 15.854 16.922C15.2833 15.9289 14.9882 14.8013 14.9993 13.656V12.5C14.9993 12.4343 14.9864 12.3693 14.9613 12.3086C14.9361 12.248 14.8993 12.1928 14.8529 12.1464C14.8064 12.1 14.7513 12.0631 14.6906 12.038C14.63 12.0129 14.5649 12 14.4993 12H7.99927C7.67096 12 7.34587 12.0647 7.04255 12.1903C6.73923 12.3159 6.46363 12.5001 6.23148 12.7322C5.99933 12.9644 5.81519 13.24 5.68955 13.5433C5.56392 13.8466 5.49926 14.1717 5.49927 14.5V25.5C5.49927 26.163 5.76266 26.7989 6.2315 27.2678C6.70034 27.7366 7.33623 28 7.99927 28H15.9993C16.6623 28 17.2982 27.7366 17.767 27.2678C18.2359 26.7989 18.4993 26.163 18.4993 25.5V19.74C18.4992 19.6515 18.4757 19.5646 18.431 19.4882C18.3864 19.4118 18.3223 19.3485 18.2453 19.305ZM21.9489 5.12773C22.0892 5.19496 22.2127 5.29277 22.3103 5.41398C23.8743 7.57898 26.4993 11.529 26.4993 13.656C26.5143 14.3167 26.3952 14.9736 26.1493 15.587C25.9033 16.2004 25.5355 16.7576 25.0682 17.2249C24.6009 17.6923 24.0437 18.06 23.4303 18.306C22.8169 18.5519 22.16 18.671 21.4993 18.656C20.8385 18.671 20.1816 18.552 19.5682 18.306C18.9548 18.0601 18.3975 17.6924 17.9302 17.225C17.4629 16.7577 17.0951 16.2005 16.8492 15.5871C16.6033 14.9736 16.4842 14.3167 16.4993 13.656C16.4993 11.529 19.1243 7.57898 20.6883 5.41398C20.8354 5.23118 21.0399 5.10344 21.2688 5.05148C21.4976 4.99952 21.7372 5.02639 21.9489 5.12773ZM19.2024 15.9529C19.8116 16.5622 20.6376 16.9049 21.4993 16.906C21.6319 16.906 21.759 16.8533 21.8528 16.7596C21.9466 16.6658 21.9993 16.5386 21.9993 16.406C21.9993 16.2734 21.9466 16.1462 21.8528 16.0524C21.759 15.9587 21.6319 15.906 21.4993 15.906C20.9028 15.9052 20.3309 15.6679 19.9091 15.2461C19.4874 14.8243 19.2501 14.2525 19.2493 13.656C19.2493 13.5234 19.1966 13.3962 19.1028 13.3024C19.009 13.2087 18.8819 13.156 18.7493 13.156C18.6166 13.156 18.4895 13.2087 18.3957 13.3024C18.3019 13.3962 18.2493 13.5234 18.2493 13.656C18.2503 14.5176 18.5931 15.3437 19.2024 15.9529Z" fill="#4085C6"/>
</svg>
