<svg width="32" height="32" viewBox="0 0 32 32" fill="none" xmlns="http://www.w3.org/2000/svg">
<path d="M21.5 21.347C21.2348 21.347 20.9804 21.4524 20.7929 21.6399C20.6054 21.8274 20.5 22.0818 20.5 22.347V23.9998C20.5 24.0655 20.4871 24.1305 20.462 24.1912C20.4369 24.2518 20.4 24.307 20.3536 24.3534C20.3072 24.3998 20.252 24.4367 20.1914 24.4618C20.1307 24.4869 20.0657 24.4998 20 24.4998H14.5C14.4343 24.4998 14.3693 24.4869 14.3086 24.4618C14.248 24.4367 14.1928 24.3998 14.1464 24.3534C14.1 24.307 14.0631 24.2518 14.038 24.1912C14.0129 24.1305 14 24.0655 14 23.9998V7.9998C14 7.93414 14.0129 7.86912 14.038 7.80845C14.0632 7.74778 14.1 7.69266 14.1464 7.64623C14.1929 7.5998 14.248 7.56297 14.3086 7.53784C14.3693 7.51272 14.4343 7.49979 14.5 7.4998H20C20.0657 7.49979 20.1307 7.51272 20.1914 7.53784C20.252 7.56297 20.3071 7.5998 20.3536 7.64623C20.4 7.69266 20.4368 7.74778 20.462 7.80845C20.4871 7.86912 20.5 7.93414 20.5 7.9998V9.82072C20.5 10.0859 20.6054 10.3403 20.7929 10.5278C20.9804 10.7154 21.2348 10.8207 21.5 10.8207C21.7652 10.8207 22.0196 10.7154 22.2071 10.5278C22.3946 10.3403 22.5 10.0859 22.5 9.82072V6.4998C22.5 6.23459 22.3946 5.98023 22.2071 5.7927C22.0196 5.60516 21.7652 5.4998 21.5 5.4998H14V4.4998C14 4.42499 13.9832 4.35113 13.9508 4.28368C13.9184 4.21623 13.8713 4.1569 13.813 4.11007C13.7546 4.06324 13.6865 4.0301 13.6137 4.01309C13.5408 3.99608 13.4651 3.99564 13.392 4.0118L4.392 6.0118C4.28088 6.03639 4.18146 6.09814 4.11019 6.18687C4.03892 6.2756 4.00004 6.38599 4 6.4998V25.4998C4.00006 25.6136 4.03893 25.724 4.11021 25.8127C4.18148 25.9014 4.28088 25.9632 4.392 25.9878L13.392 27.9878C13.4652 28.003 13.5409 28.0019 13.6136 27.9846C13.6864 27.9673 13.7544 27.9343 13.813 27.8878C13.8715 27.8408 13.9187 27.7813 13.9511 27.7136C13.9835 27.6459 14.0002 27.5718 14 27.4968V26.4968H21.5C21.7652 26.4968 22.0196 26.3914 22.2071 26.2039C22.3946 26.0164 22.5 25.762 22.5 25.4968V22.344C22.4992 22.0793 22.3935 21.8257 22.206 21.6388C22.0186 21.4519 21.7647 21.347 21.5 21.347ZM11.5 16.4999C11.5 16.8468 11.3796 17.1831 11.1595 17.4513C10.9393 17.7195 10.633 17.9031 10.2926 17.9708C9.95232 18.0384 9.59905 17.986 9.29304 17.8224C8.98702 17.6588 8.7472 17.3942 8.61442 17.0736C8.48165 16.753 8.46414 16.3963 8.56488 16.0643C8.66562 15.7322 8.87837 15.4454 9.16689 15.2526C9.45541 15.0598 9.80184 14.9731 10.1472 15.0071C10.4925 15.0411 10.8153 15.1938 11.0607 15.4392C11.342 15.7205 11.5 16.102 11.5 16.4999Z" fill="white"/>
<path d="M24.7988 14.4183C24.5691 13.7463 24.1351 13.163 23.5574 12.75C22.9797 12.337 22.2874 12.115 21.5773 12.115C20.8672 12.115 20.1748 12.337 19.5972 12.75C19.0195 13.163 18.5854 13.7463 18.3557 14.4183C17.6309 14.3928 16.9257 14.6564 16.3952 15.1509C15.8647 15.6454 15.5524 16.3304 15.5269 17.0552C15.5015 17.7801 15.765 18.4853 16.2595 19.0158C16.7541 19.5463 17.4391 19.8586 18.1639 19.8841C18.201 19.8854 18.2382 19.8859 18.2754 19.8857H24.8791C25.6044 19.8898 26.3016 19.6057 26.8173 19.0958C27.3331 18.5859 27.6251 17.892 27.6293 17.1668C27.6334 16.4415 27.3493 15.7443 26.8394 15.2286C26.3295 14.7128 25.6356 14.4208 24.9104 14.4166C24.8732 14.4164 24.836 14.417 24.7988 14.4183Z" fill="white"/>
</svg>
