<svg width="32" height="32" viewBox="0 0 32 32" fill="none" xmlns="http://www.w3.org/2000/svg">
<path d="M13.2727 6.72727C13.2727 7.45059 13.5601 8.14428 14.0715 8.65575C14.583 9.16721 15.2767 9.45455 16 9.45455C16.7233 9.45455 17.417 9.16721 17.9285 8.65575C18.4399 8.14428 18.7273 7.45059 18.7273 6.72727C18.7273 6.00396 18.4399 5.31026 17.9285 4.7988C17.417 4.28734 16.7233 4 16 4C15.2767 4 14.583 4.28734 14.0715 4.7988C13.5601 5.31026 13.2727 6.00396 13.2727 6.72727Z" fill="white"/>
<path d="M17.6364 14.909C17.6364 14.7643 17.6938 14.6256 17.7961 14.5233C17.8984 14.421 18.0372 14.3635 18.1818 14.3635H26.3636C26.7976 14.3635 27.2138 14.1911 27.5207 13.8843C27.8276 13.5774 28 13.1612 28 12.7272C28 12.2932 27.8276 11.877 27.5207 11.5701C27.2138 11.2632 26.7976 11.0908 26.3636 11.0908H5.63636C5.20237 11.0908 4.78616 11.2632 4.47928 11.5701C4.1724 11.877 4 12.2932 4 12.7272C4 13.1612 4.1724 13.5774 4.47928 13.8843C4.78616 14.1911 5.20237 14.3635 5.63636 14.3635H13.8182C13.9628 14.3635 14.1016 14.421 14.2039 14.5233C14.3062 14.6256 14.3636 14.7643 14.3636 14.909V15.9999C14.3636 16.1446 14.4211 16.2833 14.5234 16.3856C14.6257 16.4879 14.7644 16.5454 14.9091 16.5454H17.0909C17.2356 16.5454 17.3743 16.4879 17.4766 16.3856C17.5789 16.2833 17.6364 16.1446 17.6364 15.9999V14.909Z" fill="white"/>
<path d="M26.3636 23.6365H21.7087L17.8665 19.0077C17.7175 18.8163 17.6365 18.5806 17.6364 18.3379V18.1819C17.6364 18.0373 17.5789 17.8985 17.4766 17.7962C17.3743 17.6939 17.2356 17.6365 17.0909 17.6365H12.1818C11.1692 17.6365 10.198 18.0387 9.48195 18.7548C8.7659 19.4708 8.36363 20.442 8.36363 21.4547V25.2728C8.36363 25.7068 8.53603 26.123 8.84291 26.4299C9.14979 26.7368 9.56601 26.9092 10 26.9092C10.434 26.9092 10.8502 26.7368 11.1571 26.4299C11.464 26.123 11.6364 25.7068 11.6364 25.2728V21.4547C11.6364 21.31 11.6938 21.1713 11.7961 21.069C11.8984 20.9667 12.0372 20.9092 12.1818 20.9092H14.9429C15.0234 20.9092 15.1029 20.927 15.1757 20.9613C15.2485 20.9956 15.3128 21.0456 15.364 21.1077L19.6185 26.2776C19.7714 26.4741 19.9671 26.6331 20.1908 26.7426C20.4144 26.8521 20.6601 26.909 20.9091 26.9092H26.3636C26.7976 26.9092 27.2138 26.7368 27.5207 26.4299C27.8276 26.123 28 25.7068 28 25.2728C28 24.8388 27.8276 24.4226 27.5207 24.1158C27.2138 23.8089 26.7976 23.6365 26.3636 23.6365Z" fill="white"/>
</svg>
