<svg width="32" height="32" viewBox="0 0 32 32" fill="none" xmlns="http://www.w3.org/2000/svg">
<path d="M27 9.947C27.0048 9.43727 26.8077 8.94636 26.4517 8.58154C26.0956 8.21672 25.6097 8.00764 25.1 8H23.251C23.2181 8.00013 23.1855 7.99376 23.155 7.98126C23.1246 7.96875 23.0969 7.95036 23.0736 7.92713C23.0503 7.9039 23.0318 7.8763 23.0191 7.8459C23.0065 7.81551 23 7.78291 23 7.75V7C23 6.20435 22.6839 5.44129 22.1213 4.87868C21.5587 4.31607 20.7956 4 20 4H17C16.2044 4 15.4413 4.31607 14.8787 4.87868C14.3161 5.44129 14 6.20435 14 7V7.75C14 7.8163 13.9737 7.87989 13.9268 7.92678C13.8799 7.97366 13.8163 8 13.75 8H11.75C11.6837 8 11.6201 7.97366 11.5732 7.92678C11.5263 7.87989 11.5 7.8163 11.5 7.75V7C11.5 6.73478 11.6054 6.48043 11.7929 6.29289C11.9804 6.10536 12.2348 6 12.5 6C12.7652 6 13.0196 5.89464 13.2071 5.70711C13.3946 5.51957 13.5 5.26522 13.5 5C13.5 4.73478 13.3946 4.48043 13.2071 4.29289C13.0196 4.10536 12.7652 4 12.5 4C11.7044 4 10.9413 4.31607 10.3787 4.87868C9.81607 5.44129 9.5 6.20435 9.5 7V7.75C9.5 7.8163 9.47366 7.87989 9.42678 7.92678C9.37989 7.97366 9.3163 8 9.25 8H7.5C6.98183 7.98162 6.47677 8.1652 6.09134 8.51201C5.70591 8.85883 5.47023 9.34177 5.434 9.859L4 26.053C4.0175 26.5856 4.24539 27.0896 4.63376 27.4546C5.02213 27.8195 5.5393 28.0156 6.072 28H26.1C26.3573 27.9947 26.6111 27.9383 26.8464 27.8341C27.0817 27.7298 27.294 27.5798 27.4708 27.3928C27.6476 27.2057 27.7854 26.9854 27.8763 26.7445C27.9672 26.5037 28.0092 26.2472 28 25.99L27 9.947ZM16 7C16 6.73478 16.1054 6.48043 16.2929 6.29289C16.4804 6.10536 16.7348 6 17 6H20C20.2652 6 20.5196 6.10536 20.7071 6.29289C20.8946 6.48043 21 6.73478 21 7V7.75C21 7.8163 20.9737 7.87989 20.9268 7.92678C20.8799 7.97366 20.8163 8 20.75 8H16.25C16.1837 8 16.1201 7.97366 16.0732 7.92678C16.0263 7.87989 16 7.8163 16 7.75V7ZM6.559 25.975C6.48919 25.9753 6.42009 25.961 6.35615 25.933C6.2922 25.905 6.23483 25.8639 6.18773 25.8123C6.14063 25.7608 6.10484 25.7 6.08267 25.6338C6.0605 25.5676 6.05244 25.4975 6.059 25.428L7.459 10.454C7.47047 10.3299 7.5279 10.2145 7.62003 10.1305C7.71215 10.0465 7.83233 9.99997 7.957 10H10.582C10.7099 9.9998 10.833 10.0486 10.926 10.1364C11.019 10.2242 11.0748 10.3443 11.082 10.472L11.915 25.466C11.9188 25.534 11.9087 25.602 11.8853 25.666C11.8619 25.7299 11.8256 25.7884 11.7788 25.8378C11.732 25.8872 11.6756 25.9266 11.613 25.9534C11.5505 25.9803 11.4831 25.9941 11.415 25.994L6.559 25.975Z" fill="white"/>
</svg>
