<svg width="32" height="32" viewBox="0 0 32 32" fill="none" xmlns="http://www.w3.org/2000/svg">
<path fill-rule="evenodd" clip-rule="evenodd" d="M18.9634 29C18.6661 28.9999 18.3704 28.9569 18.0854 28.8721C17.687 28.7535 17.317 28.555 16.9979 28.2885C16.6789 28.022 16.4176 27.6932 16.23 27.3223L16.2207 27.3027C15.9551 27.7801 15.5668 28.1778 15.0959 28.4547C14.625 28.7316 14.0887 28.8778 13.5425 28.8779L13.3476 28.8721C12.5647 28.8234 11.8307 28.4747 11.2983 27.8984L9.85986 26.1719C9.07325 25.2272 8.65101 24.0321 8.66964 22.803C8.68827 21.5738 9.14654 20.392 9.96142 19.4717C9.7345 19.5411 9.5004 19.5843 9.26367 19.6006C9.1958 19.6045 9.12793 19.6074 9.06055 19.6074C8.72731 19.6072 8.39632 19.5528 8.08055 19.4463C7.60341 19.2849 7.17347 19.0082 6.82883 18.6409C6.4842 18.2735 6.23552 17.8268 6.10484 17.3403C5.97416 16.8539 5.96551 16.3427 6.07967 15.8521C6.19382 15.3615 6.42725 14.9066 6.75927 14.5278L9.46386 11.4336C10.0102 10.8093 10.6765 10.3013 11.4231 9.93964C12.1698 9.57802 12.9815 9.37022 13.81 9.32859C13.6813 9.22726 13.5587 9.11834 13.4429 9.00242C12.8692 8.42881 12.4785 7.69797 12.3201 6.90231C12.1618 6.10665 12.243 5.28191 12.5534 4.53239C12.8638 3.78286 13.3895 3.14221 14.064 2.69145C14.7385 2.24069 15.5315 2.00006 16.3428 2C17.4304 2.00285 18.473 2.43507 19.2436 3.20264C19.6258 3.5823 19.9287 4.03404 20.1349 4.53167C20.3411 5.0293 20.4464 5.56291 20.4448 6.10156C20.4416 7.18908 20.0097 8.23146 19.2427 9.00244C19.1234 9.12149 18.9968 9.23303 18.8638 9.33644C20.4905 9.45196 22.0057 10.2054 23.0796 11.4326L25.7866 14.5298C26.0516 14.8319 26.2544 15.1833 26.3831 15.564C26.5118 15.9447 26.564 16.3471 26.5366 16.7481C26.4848 17.5227 26.1407 18.2488 25.574 18.7794C25.0073 19.31 24.2602 19.6056 23.4839 19.6065C23.4145 19.6065 23.3452 19.6035 23.2759 19.5986C23.0693 19.585 22.8648 19.55 22.6655 19.4942C23.4711 20.4156 23.9219 21.594 23.937 22.8179C23.952 24.0418 23.5303 25.2309 22.7475 26.1719L21.3618 27.8369C21.1224 28.1447 20.8243 28.402 20.4848 28.5937C20.1247 28.8008 19.7264 28.9324 19.3139 28.9804C19.1975 28.9938 19.0805 29.0003 18.9634 29ZM15.9444 23.9209C16.0729 24.0897 16.1854 24.2702 16.2803 24.46C16.4001 24.2434 16.5455 24.0421 16.7134 23.8603L17.4771 22.9414L17.274 22.7383C16.8663 22.3301 16.8062 22.2686 16.6714 22.1436C16.5298 22.0143 16.4114 21.8617 16.3213 21.6924C16.2108 21.8888 16.064 22.0625 15.8887 22.2041C15.6396 22.4214 15.4023 22.6519 15.1778 22.8945L15.1304 22.9424L15.9444 23.9209ZM16.0079 19.5693C16.1374 19.6938 16.247 19.8374 16.3331 19.9951C16.4212 19.8364 16.5339 19.6927 16.6671 19.5693H16.0079Z" fill="white"/>
<path fill-rule="evenodd" clip-rule="evenodd" d="M14.5031 7.94154C14.0775 7.51592 13.8126 6.95588 13.7536 6.35684C13.6945 5.75781 13.8451 5.15684 14.1795 4.65634C14.5139 4.15585 15.0115 3.78679 15.5875 3.61204C16.1635 3.4373 16.7823 3.46769 17.3384 3.69804C17.8945 3.92838 18.3536 4.34442 18.6373 4.87528C18.9211 5.40614 19.012 6.01896 18.8946 6.60933C18.7771 7.1997 18.4586 7.73109 17.9933 8.11296C17.528 8.49482 16.9447 8.70354 16.3428 8.70354C16.0011 8.70355 15.6628 8.63625 15.3472 8.50551C15.0315 8.37477 14.7447 8.18313 14.5031 7.94154ZM18.3346 21.6777V21.6776C17.902 21.2439 17.8377 21.1795 17.6936 21.0462C17.6658 21.0206 17.6439 20.9894 17.6294 20.9545C17.6149 20.9196 17.6081 20.882 17.6096 20.8443C17.6111 20.8066 17.6208 20.7696 17.638 20.736C17.6552 20.7024 17.6795 20.673 17.7092 20.6497L19.7989 19.0533C19.849 19.0149 19.9114 18.9961 19.9744 19.0003C20.0374 19.0045 20.0967 19.0315 20.1413 19.0762L21.3714 20.3063C22.0137 20.9489 22.3926 21.8083 22.4338 22.716C22.475 23.6236 22.1755 24.5138 21.5941 25.212L20.2089 26.8771C20.0817 27.0464 19.9214 27.188 19.7378 27.2934C19.5542 27.3988 19.351 27.4657 19.1407 27.4901C18.9303 27.5145 18.7172 27.4958 18.5144 27.4353C18.3115 27.3747 18.123 27.2735 17.9605 27.1378C17.7979 27.0021 17.6647 26.8348 17.5689 26.646C17.473 26.4572 17.4166 26.2508 17.4031 26.0395C17.3895 25.8282 17.419 25.6164 17.4899 25.4169C17.5608 25.2174 17.6716 25.0343 17.8154 24.879L19.2005 23.2139C19.2837 23.114 19.3265 22.9867 19.3205 22.8569C19.3145 22.7271 19.2602 22.6042 19.1682 22.5125C18.7916 22.1358 18.5268 21.8703 18.3346 21.6777ZM8.03094 17.7201C8.18524 17.8553 8.36468 17.9588 8.559 18.0246C8.75333 18.0904 8.95871 18.1173 9.16343 18.1036C9.36814 18.09 9.56816 18.0362 9.75204 17.9452C9.93593 17.8542 10.1001 17.7279 10.2351 17.5734L12.2467 15.2745C12.2815 15.2347 12.3276 15.2066 12.3789 15.1937C12.4301 15.1808 12.4841 15.1838 12.5336 15.2023C12.5831 15.2209 12.6257 15.254 12.6559 15.2974C12.6861 15.3408 12.7023 15.3923 12.7025 15.4452V17.8096C12.7025 17.8438 12.7092 17.8776 12.7223 17.9092C12.7354 17.9407 12.7545 17.9694 12.7787 17.9936C12.8029 18.0177 12.8315 18.0369 12.8631 18.05C12.8947 18.0631 12.9285 18.0698 12.9627 18.0698H19.7271C19.7613 18.0698 19.7951 18.0631 19.8267 18.05C19.8583 18.0369 19.8869 18.0177 19.9111 17.9936C19.9353 17.9694 19.9544 17.9407 19.9675 17.9092C19.9806 17.8776 19.9873 17.8438 19.9873 17.8096V15.6107C19.9873 15.5578 20.0034 15.5061 20.0335 15.4625C20.0636 15.419 20.1062 15.3857 20.1557 15.367C20.2053 15.3484 20.2593 15.3452 20.3107 15.3581C20.362 15.371 20.4082 15.3992 20.4431 15.439L22.3069 17.5734C22.5796 17.885 22.9649 18.0755 23.3781 18.103C23.7913 18.1306 24.1984 17.9928 24.51 17.7201C24.8217 17.4474 25.0122 17.0621 25.0397 16.6489C25.0672 16.2358 24.9295 15.8286 24.6568 15.517L21.951 12.42C21.5112 11.9176 20.9691 11.5151 20.361 11.2394C19.7529 10.9637 19.0929 10.8212 18.4252 10.8215H14.1168C13.4494 10.8216 12.7897 10.9644 12.182 11.2403C11.5743 11.5161 11.0326 11.9187 10.5931 12.421L7.88733 15.517C7.75209 15.6711 7.64853 15.8503 7.58256 16.0444C7.51659 16.2385 7.4895 16.4437 7.50283 16.6483C7.51617 16.8529 7.56967 17.0528 7.66028 17.2367C7.7509 17.4206 7.87685 17.5849 8.03094 17.7201ZM10.1729 22.7156C10.2141 21.8075 10.5934 20.9476 11.2362 20.3049L12.5163 19.027C12.5611 18.9821 12.6208 18.9552 12.6841 18.9514C12.7473 18.9475 12.8098 18.967 12.8597 19.0062L14.9473 20.6286C14.9777 20.6532 15.0023 20.6842 15.0191 20.7195C15.036 20.7548 15.0447 20.7934 15.0447 20.8325C15.0447 20.8716 15.036 20.9103 15.0191 20.9455C15.0023 20.9808 14.9777 21.0119 14.9473 21.0365C14.6506 21.2903 14.3688 21.561 14.1034 21.8474C13.932 22.0195 13.7157 22.2366 13.4383 22.5143C13.3466 22.606 13.2925 22.7287 13.2865 22.8582C13.2805 22.9878 13.3231 23.1149 13.406 23.2147L14.7912 24.8797C15.0318 25.1996 15.1402 25.5997 15.0942 25.9973C15.0482 26.3949 14.8512 26.7597 14.5439 27.0162C14.2366 27.2727 13.8426 27.4014 13.4431 27.3756C13.0437 27.3499 12.6694 27.1716 12.3976 26.8778L11.0135 25.2128C10.4315 24.5144 10.1316 23.6237 10.1729 22.7156Z" fill="black"/>
</svg>
