<svg width="32" height="32" viewBox="0 0 32 32" fill="none" xmlns="http://www.w3.org/2000/svg">
<path fill-rule="evenodd" clip-rule="evenodd" d="M10.938 3.62586L11.66 3.33786C12.878 2.86786 14.231 2.88886 15.434 3.39686C16.637 3.90486 17.596 4.85986 18.109 6.05986L19.085 8.42486C20.922 8.49286 22.697 9.15186 24.139 10.3139C24.176 10.3449 24.213 10.3769 24.247 10.4109C24.304 10.4669 24.368 10.5149 24.437 10.5549C24.437 10.5549 28.737 12.9939 28.737 12.9929C29.217 13.2659 29.594 13.6889 29.808 14.1979C30.023 14.7069 30.062 15.2729 29.921 15.8069C29.78 16.3409 29.466 16.8129 29.029 17.1499C28.591 17.4859 28.054 17.6689 27.504 17.6679C27.273 17.6689 27.044 17.6359 26.825 17.5739C27.251 18.1859 27.617 18.8379 27.919 19.5219C27.921 19.5269 27.923 19.5309 27.925 19.5349C28.17 20.1039 28.194 20.7429 27.996 21.3269C28.646 21.6319 29.192 22.1339 29.551 22.7669C30.009 23.5739 30.127 24.5309 29.88 25.4259C29.632 26.3199 29.04 27.0799 28.233 27.5379C28.06 27.6359 23.925 29.9959 16.5 29.9959C9.07499 29.9959 4.94099 27.6359 4.76399 27.5359C3.95799 27.0759 3.36799 26.3139 3.12399 25.4179C2.87899 24.5229 2.99999 23.5659 3.46099 22.7609C3.68899 22.3609 3.99299 22.0109 4.35599 21.7299C4.71999 21.4479 5.13499 21.2399 5.57799 21.1199C5.63999 21.1029 5.70299 21.0879 5.76599 21.0739C5.71899 20.6269 5.79499 20.1659 5.99599 19.7319C6.67399 18.3429 7.55799 17.0659 8.61599 15.9439L8.26099 14.6309C7.93799 14.6779 7.60999 14.6879 7.28399 14.6619C6.70799 14.6149 6.147 14.4529 5.63499 14.1849H5.63299C5.05999 13.8849 4.55099 13.4739 4.13599 12.9779C3.72099 12.4809 3.40799 11.9069 3.20899 11.2679C2.87099 10.1259 2.96899 8.89886 3.48299 7.82486C3.99299 6.76186 4.87499 5.92386 5.96099 5.46886L9.409 3.92486C9.43799 3.91186 9.46699 3.89986 9.49699 3.88886C9.96499 3.71386 10.461 3.62486 10.938 3.62586Z" fill="white"/>
<path fill-rule="evenodd" clip-rule="evenodd" d="M6.32791 12.8551C6.66291 13.0301 7.02991 13.1361 7.40591 13.1671C7.78291 13.1971 8.16191 13.1521 8.51991 13.0341L8.80491 12.9341C8.86991 12.9131 8.93791 12.9041 9.00691 12.9101C9.07491 12.9151 9.14091 12.9351 9.20091 12.9671C9.26091 12.9991 9.31391 13.0431 9.35691 13.0971C9.39891 13.1501 9.42991 13.2111 9.44791 13.2771L10.2129 16.1031C10.2359 16.1891 10.2359 16.2791 10.2129 16.3651C10.1899 16.4501 10.1449 16.5281 10.0809 16.5901C8.95991 17.6931 8.03391 18.9781 7.34291 20.3901C7.23291 20.6291 7.22091 20.9021 7.31091 21.1501C7.39991 21.3981 7.58391 21.6001 7.82191 21.7131C8.05891 21.8261 8.33191 21.8411 8.58091 21.7541C8.82891 21.6671 9.03391 21.4861 9.14891 21.2491C9.85791 19.8221 10.8439 18.5511 12.0489 17.5081C12.2009 17.3871 12.3129 17.2231 12.3729 17.0391C12.4329 16.8541 12.4379 16.6561 12.3869 16.4681L10.9669 11.2181C10.9319 11.0861 10.8699 10.9631 10.7849 10.8551C10.6999 10.7481 10.5939 10.6601 10.4729 10.5951C10.3529 10.5301 10.2199 10.4911 10.0839 10.4801C9.94691 10.4691 9.80991 10.4851 9.67991 10.5291L7.88691 11.1371C7.30991 11.3251 6.73391 10.8061 6.55491 10.2371C6.47891 9.91607 6.52191 9.57907 6.67791 9.28807C6.83391 8.99707 7.09091 8.77307 7.39991 8.65907L10.7679 7.15007C10.9949 7.09907 11.2329 7.12607 11.4429 7.22707C11.6529 7.32907 11.8209 7.49907 11.9209 7.70907L13.5909 11.3891C13.6709 11.5641 13.7979 11.7121 13.9599 11.8161C14.1209 11.9211 14.3089 11.9761 14.4999 11.9761C14.7589 11.9761 15.0289 11.9761 15.3069 11.9661C15.4209 11.9631 15.5329 11.9991 15.6239 12.0671C15.7149 12.1361 15.7799 12.2341 15.8069 12.3441L16.4069 14.7441C16.4329 14.8521 16.4949 14.9471 16.5819 15.0141C16.6689 15.0811 16.7769 15.1171 16.8869 15.1141H19.6069C19.7179 15.1171 19.8249 15.0811 19.9119 15.0141C19.9999 14.9471 20.0609 14.8521 20.0869 14.7441L20.5589 12.8551C20.5779 12.7811 20.6129 12.7121 20.6629 12.6541C20.7119 12.5951 20.7739 12.5491 20.8439 12.5181C20.9149 12.4881 20.9909 12.4741 21.0669 12.4771C21.1439 12.4801 21.2179 12.5021 21.2849 12.5381C21.4779 12.6421 21.6539 12.7721 21.8099 12.9241C22.0579 13.2021 22.2469 13.5271 22.3659 13.8801C22.4839 14.2321 22.5299 14.6051 22.4999 14.9761V17.6061C22.4999 17.7731 22.5419 17.9381 22.6219 18.0851C22.7019 18.2311 22.8179 18.3561 22.9579 18.4461C23.7329 19.1341 24.3369 19.9921 24.7249 20.9521C24.8379 21.1891 25.0379 21.3721 25.2839 21.4621C25.5309 21.5531 25.8019 21.5431 26.0409 21.4351C26.2799 21.3271 26.4659 21.1301 26.5609 20.8851C26.6559 20.6411 26.6509 20.3691 26.5469 20.1281C26.1059 19.1281 25.5059 18.2061 24.7709 17.3961C24.5959 17.2091 24.4989 16.9621 24.4999 16.7051V15.0431C24.4999 14.9991 24.5119 14.9561 24.5329 14.9181C24.5549 14.8801 24.5869 14.8491 24.6239 14.8261C24.6619 14.8041 24.7049 14.7931 24.7489 14.7921C24.7929 14.7921 24.8359 14.8041 24.8739 14.8251L27.0109 16.0371C27.1609 16.1231 27.3309 16.1691 27.5029 16.1681C27.7239 16.1691 27.9389 16.0961 28.1139 15.9611C28.2889 15.8261 28.4149 15.6371 28.4709 15.4241C28.5279 15.2101 28.5119 14.9841 28.4259 14.7801C28.3399 14.5771 28.1899 14.4071 27.9969 14.2981L23.6969 11.8591C23.5149 11.7561 23.3469 11.6291 23.1969 11.4821C21.8439 10.3921 20.1359 9.83807 18.3999 9.92807C18.3039 9.92507 18.2109 9.89407 18.1319 9.83907C18.0529 9.78507 17.9919 9.70807 17.9549 9.61907L16.7289 6.64907C16.3689 5.80607 15.6959 5.13507 14.8509 4.77907C14.0059 4.42207 13.0559 4.40707 12.1999 4.73707L11.3999 5.05607C11.2799 5.10407 11.1519 5.12807 11.0219 5.12707C10.6809 5.11807 10.3419 5.17507 10.0219 5.29407L6.56391 6.84207C5.80591 7.15307 5.18991 7.73407 4.83591 8.47307C4.48191 9.21207 4.41491 10.0571 4.64691 10.8421C4.78091 11.2721 4.99891 11.6711 5.28691 12.0161C5.57591 12.3621 5.92991 12.6471 6.32791 12.8551ZM8.78991 9.63107C8.60291 9.44407 8.49691 9.19007 8.49691 8.92407C8.49691 8.65907 8.60291 8.40507 8.78991 8.21707C8.97791 8.03007 9.23191 7.92407 9.49691 7.92407C9.76291 7.92407 10.0169 8.03007 10.2039 8.21707C10.3919 8.40507 10.4969 8.65907 10.4969 8.92407C10.4969 9.19007 10.3919 9.44407 10.2039 9.63107C10.0169 9.81907 9.76291 9.92407 9.49691 9.92407C9.23191 9.92407 8.97791 9.81907 8.78991 9.63107ZM20.2269 18.4781C21.1999 19.0921 21.9939 19.9511 22.5299 20.9691C22.6039 21.1051 22.6699 21.2451 22.7279 21.3881C22.7829 21.5101 22.8119 21.6401 22.8149 21.7731C22.8179 21.9061 22.7949 22.0381 22.7459 22.1621C22.6979 22.2851 22.6249 22.3981 22.5329 22.4931C22.4399 22.5891 22.3289 22.6651 22.2069 22.7171C22.0849 22.7691 21.9529 22.7961 21.8209 22.7961C21.6879 22.7971 21.5559 22.7711 21.4329 22.7211C21.3109 22.6701 21.1989 22.5951 21.1059 22.5011C21.0119 22.4061 20.9379 22.2941 20.8879 22.1711C20.8499 22.0831 20.8079 21.9961 20.7619 21.9111C20.3969 21.2121 19.8559 20.6201 19.1939 20.1921C18.5309 19.7641 17.7689 19.5151 16.9809 19.4691C16.1889 19.5241 15.4219 19.7751 14.7519 20.2011C14.0809 20.6271 13.5269 21.2131 13.1399 21.9071C13.0709 22.0311 13.0089 22.1581 12.9539 22.2891C12.8539 22.5351 12.6599 22.7311 12.4159 22.8331C12.1709 22.9361 11.8959 22.9381 11.6499 22.8371C11.4049 22.7371 11.2089 22.5431 11.1059 22.2991C11.0039 22.0541 11.0019 21.7791 11.1019 21.5331C11.1849 21.3331 11.2799 21.1371 11.3859 20.9471C11.9419 19.9351 12.7489 19.0831 13.7299 18.4741C14.7109 17.8641 15.8329 17.5181 16.9859 17.4691C18.1359 17.5161 19.2539 17.8631 20.2269 18.4781ZM16.4999 24.4961C22.2999 24.4961 25.4879 22.7701 25.5189 22.7531C25.9809 22.4921 26.5269 22.4241 27.0389 22.5651C27.5499 22.7071 27.9839 23.0451 28.2459 23.5071C28.5079 23.9681 28.5749 24.5151 28.4339 25.0261C28.2919 25.5381 27.9539 25.9721 27.4919 26.2331C27.3299 26.3251 23.4509 28.4961 16.4999 28.4961C9.54891 28.4961 5.66991 26.3251 5.50791 26.2331C5.04791 25.9701 4.70991 25.5351 4.57091 25.0231C4.43091 24.5111 4.49991 23.9651 4.76291 23.5041C4.89391 23.2761 5.06791 23.0761 5.27491 22.9151C5.48291 22.7541 5.71991 22.6361 5.97391 22.5671C6.22691 22.4981 6.49091 22.4791 6.75191 22.5121C7.01291 22.5451 7.26391 22.6291 7.49191 22.7591C7.51191 22.7701 10.6999 24.4961 16.4999 24.4961Z" fill="black"/>
</svg>
