<svg width="32" height="32" viewBox="0 0 32 32" fill="none" xmlns="http://www.w3.org/2000/svg">
<path d="M8.99659 29.5C8.6132 29.5 8.23496 29.4118 7.89112 29.2422C7.54728 29.0726 7.24706 28.8262 7.01369 28.522C6.78031 28.2178 6.62005 27.8641 6.54528 27.488C6.47052 27.112 6.48326 26.7238 6.58253 26.3535L7.08106 24.4844C6.40578 24.4159 5.77372 24.1203 5.28821 23.6459C4.8027 23.1716 4.49247 22.5466 4.40821 21.8731L3.50343 14.6802L3.50143 14.6104C3.49367 14.3735 3.52401 14.137 3.59128 13.9097L3.61081 13.8423L5.38917 9.38672C5.6099 8.83035 5.99259 8.35307 6.48768 8.01669C6.98277 7.6803 7.56745 7.5003 8.166 7.5H8.99656V5C8.99653 4.67169 9.06117 4.34659 9.1868 4.04326C9.31243 3.73993 9.49657 3.46432 9.72873 3.23217C9.96088 3.00001 10.2365 2.81587 10.5398 2.69024C10.8431 2.56462 11.1682 2.49997 11.4966 2.5H18.4961C19.1277 2.49929 19.736 2.7384 20.1982 3.169L22.1982 5.02691C22.4503 5.26062 22.6514 5.54391 22.7889 5.85901C22.9264 6.1741 22.9973 6.51421 22.9971 6.858V7.5H23.8203C24.422 7.49889 25.01 7.67936 25.5074 8.01781C26.0048 8.35627 26.3886 8.83695 26.6084 9.397L28.3945 13.8702L28.419 13.9668C28.4646 14.1477 28.4902 14.3331 28.4951 14.5196L28.4981 14.6328L27.5908 21.8721C27.4999 22.5975 27.1474 23.2648 26.5993 23.7487C26.0512 24.2326 25.3454 24.4997 24.6143 24.5H24.416L24.9101 26.3565C25.009 26.7266 25.0214 27.1145 24.9464 27.4902C24.8715 27.8659 24.7111 28.2193 24.4778 28.5232C24.2445 28.827 23.9444 29.0731 23.6008 29.2425C23.2572 29.4119 22.8792 29.5 22.4961 29.5H8.99659Z" fill="white"/>
<path d="M26.9634 14.333L25.2124 9.944C25.1024 9.66478 24.9107 9.42528 24.6623 9.25684C24.4139 9.0884 24.1205 8.99888 23.8204 9H21.7474C21.7145 9.00016 21.6819 8.99381 21.6515 8.9813C21.6211 8.96879 21.5935 8.95038 21.5703 8.92714C21.547 8.90389 21.5286 8.87627 21.5161 8.84586C21.5036 8.81546 21.4972 8.78288 21.4974 8.75V6.858C21.4972 6.72055 21.4687 6.58463 21.4136 6.45869C21.3585 6.33275 21.2781 6.2195 21.1774 6.126L19.1774 4.268C18.9924 4.09583 18.7491 4.00008 18.4964 4H11.4964C11.3651 3.99999 11.235 4.02585 11.1137 4.0761C10.9924 4.12635 10.8821 4.20001 10.7893 4.29287C10.6964 4.38573 10.6227 4.49597 10.5725 4.6173C10.5222 4.73863 10.4964 4.86867 10.4964 5V8.75C10.4964 8.8163 10.4701 8.87989 10.4232 8.92678C10.3763 8.97366 10.3127 9 10.2464 9H8.1734C7.87352 8.99871 7.58025 9.08806 7.33203 9.25634C7.08381 9.42461 6.89223 9.66396 6.7824 9.943L5.0304 14.333C5.00811 14.4076 4.99798 14.4852 5.0004 14.563L5.8964 21.687C5.94184 22.0487 6.11743 22.3814 6.39035 22.6231C6.66327 22.8647 7.01485 22.9987 7.37937 23H8.70337C8.74175 22.9997 8.77966 23.0084 8.81416 23.0252C8.84866 23.042 8.87879 23.0666 8.90222 23.097C8.92565 23.1274 8.94174 23.1628 8.94922 23.2004C8.9567 23.2381 8.95539 23.2769 8.94537 23.314L8.03137 26.742C7.99184 26.89 7.98685 27.0452 8.01679 27.1954C8.04674 27.3457 8.11081 27.4871 8.20407 27.6086C8.29732 27.7302 8.41727 27.8287 8.55464 27.8966C8.69202 27.9644 8.84315 27.9998 8.99637 28H22.4964C22.6496 27.9998 22.8007 27.9644 22.938 27.8965C23.0754 27.8287 23.1953 27.7301 23.2886 27.6086C23.3818 27.487 23.4459 27.3457 23.4759 27.1954C23.5058 27.0452 23.5009 26.89 23.4614 26.742L22.5474 23.314C22.5376 23.2769 22.5364 23.238 22.5441 23.2004C22.5517 23.1628 22.5679 23.1274 22.5914 23.097C22.6149 23.0667 22.6451 23.0421 22.6796 23.0253C22.7141 23.0085 22.752 22.9998 22.7904 23H24.6144C24.9799 22.9999 25.3329 22.8664 25.6069 22.6244C25.8809 22.3824 26.0571 22.0487 26.1024 21.686L26.9964 14.558C26.9939 14.482 26.9828 14.4065 26.9634 14.333Z" fill="#51247A"/>
<path d="M11.7164 20.686C11.7305 20.6329 11.7618 20.5859 11.8054 20.5525C11.849 20.519 11.9025 20.5009 11.9574 20.501H19.5364C19.5914 20.5009 19.6448 20.519 19.6884 20.5525C19.732 20.5859 19.7633 20.6329 19.7774 20.686L21.1114 25.686C21.1214 25.7231 21.1227 25.762 21.1153 25.7997C21.1078 25.8374 21.0917 25.8728 21.0683 25.9033C21.0449 25.9338 21.0148 25.9585 20.9803 25.9754C20.9458 25.9923 20.9078 26.0011 20.8694 26.001H10.6244C10.586 26.0011 10.548 25.9924 10.5135 25.9754C10.479 25.9585 10.4489 25.9338 10.4255 25.9034C10.402 25.8729 10.386 25.8374 10.3785 25.7997C10.371 25.762 10.3724 25.7231 10.3824 25.686L11.7164 20.686Z" fill="white"/>
<path d="M19.2474 11H12.7474C12.7145 11.0002 12.6819 10.9938 12.6515 10.9813C12.6211 10.9688 12.5935 10.9504 12.5703 10.9272C12.547 10.9039 12.5286 10.8763 12.5161 10.8459C12.5036 10.8155 12.4972 10.7829 12.4974 10.75V6.25C12.4973 6.21713 12.5037 6.18457 12.5162 6.15417C12.5287 6.12378 12.5471 6.09617 12.5703 6.07293C12.5936 6.04969 12.6212 6.03128 12.6516 6.01876C12.682 6.00625 12.7145 5.99987 12.7474 6H18.0064C18.0693 6.0001 18.1299 6.02363 18.1764 6.066L19.4174 7.218C19.4426 7.24156 19.4627 7.27005 19.4765 7.3017C19.4903 7.33335 19.4974 7.36749 19.4974 7.402V10.751C19.4971 10.8171 19.4707 10.8804 19.4238 10.9271C19.377 10.9738 19.3135 11 19.2474 11Z" fill="white"/>
<path d="M24.7191 17.4097C24.7191 17.7655 24.5868 18.1086 24.3479 18.3723C24.109 18.636 23.7805 18.8013 23.4264 18.8362C23.0723 18.8712 22.7179 18.7731 22.4321 18.5612C22.1463 18.3492 21.9495 18.0386 21.8801 17.6896C21.8106 17.3406 21.8735 16.9783 22.0564 16.6731C22.2393 16.3679 22.5292 16.1416 22.8697 16.0383C23.2102 15.935 23.5769 15.962 23.8986 16.1142C24.2203 16.2663 24.4738 16.5326 24.61 16.8614C24.682 17.0352 24.7191 17.2215 24.7191 17.4097Z" fill="white"/>
</svg>
