<svg width="32" height="32" viewBox="0 0 32 32" fill="none" xmlns="http://www.w3.org/2000/svg">
<path d="M21.5 22.4998C21.2348 22.4998 20.9804 22.6052 20.7929 22.7927C20.6054 22.9802 20.5 23.2346 20.5 23.4998V23.9998C20.5 24.1324 20.4473 24.2596 20.3536 24.3534C20.2598 24.4471 20.1326 24.4998 20 24.4998H14.5C14.3674 24.4998 14.2402 24.4471 14.1464 24.3534C14.0527 24.2596 14 24.1324 14 23.9998V7.9998C14 7.8672 14.0527 7.74002 14.1464 7.64625C14.2402 7.55248 14.3674 7.4998 14.5 7.4998H20C20.1326 7.4998 20.2598 7.55248 20.3536 7.64625C20.4473 7.74002 20.5 7.8672 20.5 7.9998V8.9998C20.5 9.26502 20.6054 9.51937 20.7929 9.70691C20.9804 9.89445 21.2348 9.9998 21.5 9.9998C21.7652 9.9998 22.0196 9.89445 22.2071 9.70691C22.3946 9.51937 22.5 9.26502 22.5 8.9998V6.4998C22.5 6.23459 22.3946 5.98023 22.2071 5.7927C22.0196 5.60516 21.7652 5.4998 21.5 5.4998H14V4.4998C14 4.42499 13.9832 4.35113 13.9508 4.28368C13.9184 4.21623 13.8713 4.1569 13.813 4.11007C13.7546 4.06324 13.6865 4.0301 13.6137 4.01309C13.5408 3.99608 13.4651 3.99564 13.392 4.0118L4.392 6.0118C4.28088 6.03639 4.18146 6.09814 4.11019 6.18687C4.03892 6.2756 4.00005 6.38599 4 6.4998V25.4998C3.99982 25.6138 4.03858 25.7244 4.10988 25.8133C4.18117 25.9023 4.28071 25.9642 4.392 25.9888L13.392 27.9888C13.4652 28.0043 13.5409 28.0034 13.6137 27.9861C13.6865 27.9688 13.7546 27.9356 13.813 27.8888C13.8714 27.8419 13.9185 27.7826 13.9509 27.7151C13.9832 27.6476 14 27.5737 14 27.4988V26.4988H21.5C21.7652 26.4988 22.0196 26.3934 22.2071 26.2059C22.3946 26.0184 22.5 25.764 22.5 25.4988V23.4988C22.4997 23.2338 22.3943 22.9797 22.2068 22.7923C22.0192 22.605 21.765 22.4998 21.5 22.4998ZM11.5 16.4998C11.5 16.7965 11.412 17.0865 11.2472 17.3332C11.0824 17.5798 10.8481 17.7721 10.574 17.8856C10.2999 17.9992 9.99834 18.0289 9.70737 17.971C9.41639 17.9131 9.14912 17.7702 8.93934 17.5605C8.72956 17.3507 8.5867 17.0834 8.52882 16.7924C8.47094 16.5015 8.50065 16.1999 8.61418 15.9258C8.72771 15.6517 8.91997 15.4174 9.16665 15.2526C9.41332 15.0878 9.70333 14.9998 10 14.9998C10.3978 14.9998 10.7794 15.1578 11.0607 15.4391C11.342 15.7204 11.5 16.102 11.5 16.4998Z" fill="#2EA836"/>
<path d="M26.484 14.9999H22.359V13.2499C22.359 13.0689 22.3099 12.8912 22.2169 12.7359C22.1238 12.5806 21.9904 12.4534 21.8308 12.368C21.6711 12.2826 21.4913 12.2422 21.3105 12.2509C21.1296 12.2597 20.9546 12.3174 20.804 12.4179L15.929 15.6679C15.792 15.7592 15.6797 15.8829 15.6021 16.0281C15.5244 16.1732 15.4838 16.3353 15.4838 16.4999C15.4838 16.6645 15.5244 16.8266 15.6021 16.9717C15.6797 17.1169 15.792 17.2406 15.929 17.3319L20.804 20.5819C20.9546 20.6824 21.1296 20.7401 21.3105 20.7489C21.4913 20.7577 21.6711 20.7172 21.8308 20.6318C21.9904 20.5464 22.1238 20.4192 22.2169 20.2639C22.3099 20.1086 22.359 19.9309 22.359 19.7499V17.9999H26.484C26.681 17.9999 26.876 17.9611 27.058 17.8857C27.24 17.8103 27.4054 17.6999 27.5446 17.5606C27.6839 17.4213 27.7944 17.2559 27.8698 17.0739C27.9452 16.8919 27.984 16.6969 27.984 16.4999C27.984 16.3029 27.9452 16.1079 27.8698 15.9259C27.7944 15.7439 27.6839 15.5785 27.5446 15.4392C27.4054 15.3 27.24 15.1895 27.058 15.1141C26.876 15.0387 26.681 14.9999 26.484 14.9999Z" fill="#2EA836"/>
</svg>
