<svg width="32" height="32" viewBox="0 0 32 32" fill="none" xmlns="http://www.w3.org/2000/svg">
<path d="M24.5534 16.4722C24.5316 16.4733 24.5099 16.4673 24.4918 16.4549C24.4737 16.4426 24.4602 16.4247 24.4532 16.404L21.79 9.41077C21.7721 9.36292 21.7691 9.31078 21.7815 9.26121C21.7938 9.21164 21.8209 9.16698 21.8592 9.13312L25.7402 5.72521C25.9264 5.5463 26.0365 5.3024 26.0473 5.04436C26.0581 4.78631 25.9689 4.53405 25.7983 4.34016C25.6277 4.14628 25.3888 4.02573 25.1315 4.00367C24.8741 3.9816 24.6182 4.05971 24.4171 4.22172L20.2384 7.89024C20.1925 7.93019 20.1338 7.95225 20.073 7.95238H13.5268C13.4775 7.95222 13.4293 7.93748 13.3882 7.91002C13.3472 7.88256 13.3152 7.8436 13.2963 7.79802C13.1232 7.38098 12.8584 7.00827 12.5216 6.70756C12.1848 6.40685 11.7845 6.18585 11.3506 6.06097C10.9167 5.93609 10.4602 5.91054 10.0151 5.98621C9.56993 6.06188 9.14754 6.23683 8.77925 6.49807C8.41096 6.75931 8.10624 7.10014 7.88769 7.49526C7.66915 7.89038 7.54239 8.32964 7.51683 8.78045C7.49127 9.23126 7.56757 9.68204 7.74005 10.0993C7.91254 10.5166 8.17678 10.8897 8.51318 11.1909C8.54988 11.2239 8.57601 11.267 8.58832 11.3148C8.60062 11.3626 8.59854 11.4129 8.58234 11.4595L7.06281 15.8086C7.04661 15.8553 7.01692 15.8962 6.97748 15.926C6.93804 15.9558 6.89065 15.9732 6.8413 15.976C6.39937 16.0004 5.96828 16.122 5.57878 16.3323C5.18929 16.5425 4.85101 16.8361 4.58808 17.1921C4.32516 17.5482 4.14407 17.9578 4.05775 18.3919C3.97142 18.826 3.98199 19.2739 4.0887 19.7034C4.19541 20.1329 4.39563 20.5336 4.67507 20.8769C4.9545 21.2201 5.30626 21.4974 5.70524 21.689C6.10421 21.8806 6.54057 21.9818 6.98315 21.9853C7.42574 21.9888 7.86364 21.8946 8.2656 21.7093C8.31077 21.6886 8.36105 21.6818 8.4101 21.6896C8.45916 21.6975 8.50479 21.7197 8.54124 21.7534L10.6371 23.6889C10.6734 23.7224 10.699 23.7658 10.7106 23.8138C10.7222 23.8618 10.7193 23.9122 10.7023 23.9585C10.5058 24.4947 10.4661 25.0756 10.5877 25.6335C10.7093 26.1914 10.9873 26.7031 11.3891 27.1088C11.7908 27.5146 12.2998 27.7975 12.8564 27.9246C13.4131 28.0517 13.9944 28.0176 14.5325 27.8264C15.0705 27.6353 15.543 27.2949 15.8946 26.845C16.2463 26.3952 16.4627 25.8546 16.5183 25.2863C16.574 24.718 16.4668 24.1457 16.2091 23.6361C15.9515 23.1266 15.5541 22.7009 15.0634 22.4089C15.0208 22.3838 14.9866 22.3466 14.9651 22.3019C14.9437 22.2573 14.936 22.2073 14.9431 22.1584L15.5966 17.5857C15.6036 17.5366 15.6251 17.4906 15.6583 17.4537C15.6915 17.4167 15.7349 17.3905 15.7831 17.3783C16.2101 17.2681 16.6075 17.0648 16.9468 16.7829C16.9848 16.7511 17.0314 16.7314 17.0807 16.7262C17.1299 16.7211 17.1796 16.7307 17.2234 16.7538L21.4252 18.9649C21.4689 18.9881 21.5048 19.0237 21.5283 19.0672C21.5519 19.1107 21.562 19.1602 21.5575 19.2095C21.5494 19.2987 21.5454 19.3879 21.5454 19.4791C21.5454 20.0739 21.7218 20.6552 22.0522 21.1497C22.3826 21.6442 22.8522 22.0296 23.4017 22.2572C23.9511 22.4848 24.5557 22.5444 25.139 22.4283C25.7223 22.3123 26.2581 22.0259 26.6787 21.6054C27.0992 21.1849 27.3856 20.6491 27.5016 20.0658C27.6176 19.4825 27.5581 18.8779 27.3305 18.3284C27.1029 17.779 26.7175 17.3093 26.223 16.9789C25.7285 16.6485 25.1471 16.4722 24.5524 16.4722H24.5534ZM22.5618 17.0665C22.5701 17.0887 22.5714 17.1128 22.5657 17.1358C22.56 17.1587 22.5475 17.1794 22.5299 17.1951C22.5122 17.2109 22.4902 17.2209 22.4667 17.2239C22.4433 17.2268 22.4195 17.2227 22.3984 17.2119L18.1586 14.9827C18.1148 14.9596 18.0789 14.924 18.0554 14.8805C18.0318 14.8369 18.0217 14.7874 18.0263 14.7381C18.0343 14.6499 18.0383 14.5597 18.0383 14.4695C18.0386 13.9432 17.9008 13.4261 17.6386 12.9698C17.3764 12.5134 16.999 12.1339 16.5442 11.8691C16.0894 11.6043 15.5731 11.4635 15.0468 11.4608C14.5205 11.4581 14.0027 11.5936 13.5452 11.8537C13.0877 12.1138 12.7064 12.4894 12.4396 12.943C12.1727 13.3966 12.0296 13.9123 12.0245 14.4386C12.0194 14.9648 12.1525 15.4832 12.4105 15.9419C12.6685 16.4006 13.0424 16.7836 13.4947 17.0525C13.5372 17.0778 13.5712 17.1151 13.5926 17.1597C13.614 17.2042 13.6218 17.2541 13.615 17.3031L12.9615 21.8747C12.9543 21.9234 12.9329 21.9689 12.8999 22.0055C12.8669 22.0421 12.8238 22.068 12.7761 22.0802C12.604 22.1248 12.4362 22.1849 12.2749 22.2596C12.2298 22.2801 12.1796 22.287 12.1306 22.2794C12.0816 22.2717 12.036 22.2498 11.9993 22.2165L9.9024 20.281C9.86601 20.2474 9.84039 20.2037 9.82879 20.1556C9.8172 20.1074 9.82014 20.0569 9.83725 20.0104C10.0442 19.4432 10.0756 18.8268 9.92744 18.2415C9.77924 17.6562 9.45827 17.1291 9.00632 16.7288C8.97367 16.6999 8.95032 16.6621 8.93925 16.6199C8.92819 16.5778 8.9299 16.5334 8.94418 16.4922L10.4707 12.1241C10.4866 12.0771 10.5162 12.0361 10.5557 12.0062C10.5952 11.9764 10.6428 11.9591 10.6922 11.9567C11.2559 11.924 11.799 11.7338 12.2597 11.4075C12.7205 11.0813 13.0803 10.6322 13.2983 10.1114C13.3172 10.0658 13.3492 10.0269 13.3902 9.9994C13.4313 9.97194 13.4795 9.9572 13.5288 9.95704H19.6821C19.733 9.95696 19.7826 9.97235 19.8245 10.0012C19.8664 10.03 19.8985 10.0709 19.9167 10.1184L22.5618 17.0665ZM15.0313 15.4698C14.8331 15.4698 14.6393 15.411 14.4744 15.3009C14.3096 15.1908 14.1811 15.0342 14.1053 14.8511C14.0294 14.6679 14.0096 14.4664 14.0482 14.272C14.0869 14.0775 14.1824 13.8989 14.3226 13.7588C14.4627 13.6186 14.6413 13.5231 14.8358 13.4844C15.0302 13.4458 15.2317 13.4656 15.4149 13.5415C15.598 13.6173 15.7546 13.7458 15.8647 13.9106C15.9749 14.0755 16.0336 14.2693 16.0336 14.4675C16.0318 14.7328 15.9256 14.9867 15.738 15.1742C15.5505 15.3618 15.2966 15.468 15.0313 15.4698ZM10.5208 7.95238C10.7849 7.95237 11.0384 8.05659 11.2261 8.2424C11.4138 8.42821 11.5205 8.68059 11.5232 8.94468V8.96874C11.5212 9.16654 11.4607 9.35934 11.3494 9.52285C11.2381 9.68635 11.0808 9.81326 10.8975 9.88759C10.7142 9.96192 10.513 9.98035 10.3192 9.94055C10.1255 9.90075 9.9478 9.8045 9.80862 9.66393C9.66944 9.52337 9.57497 9.34476 9.5371 9.1506C9.49923 8.95645 9.51966 8.75543 9.59581 8.57286C9.67196 8.3903 9.80043 8.23434 9.96503 8.12464C10.1296 8.01494 10.323 7.9564 10.5208 7.95639V7.95238ZM6.01037 18.978C6.01037 18.7797 6.06915 18.5859 6.17929 18.4211C6.28943 18.2563 6.44597 18.1278 6.62912 18.0519C6.81227 17.9761 7.01381 17.9562 7.20824 17.9949C7.40267 18.0336 7.58127 18.129 7.72145 18.2692C7.86163 18.4094 7.95709 18.588 7.99576 18.7824C8.03444 18.9769 8.01459 19.1784 7.93872 19.3616C7.86286 19.5447 7.73439 19.7012 7.56956 19.8114C7.40473 19.9215 7.21094 19.9803 7.0127 19.9803C6.74686 19.9803 6.49192 19.8747 6.30394 19.6867C6.11597 19.4988 6.01037 19.2438 6.01037 18.978ZM13.5278 25.9943C13.262 25.9943 13.007 25.8887 12.8191 25.7007C12.6311 25.5127 12.5255 25.2578 12.5255 24.9919C12.5299 24.7275 12.6369 24.4751 12.8239 24.288C13.0109 24.101 13.2634 23.994 13.5278 23.9896C13.7937 23.9896 14.0486 24.0952 14.2366 24.2832C14.4245 24.4712 14.5301 24.7261 14.5301 24.9919C14.5301 25.2578 14.4245 25.5127 14.2366 25.7007C14.0486 25.8887 13.7937 25.9943 13.5278 25.9943ZM24.5534 20.4815C24.3552 20.4815 24.1614 20.4227 23.9966 20.3125C23.8317 20.2024 23.7032 20.0459 23.6274 19.8627C23.5515 19.6796 23.5317 19.478 23.5703 19.2836C23.609 19.0892 23.7045 18.9106 23.8447 18.7704C23.9848 18.6302 24.1634 18.5347 24.3579 18.4961C24.5523 18.4574 24.7538 18.4772 24.937 18.5531C25.1201 18.629 25.2767 18.7574 25.3868 18.9223C25.497 19.0871 25.5557 19.2809 25.5557 19.4791C25.5557 19.745 25.4501 19.9999 25.2622 20.1879C25.0742 20.3759 24.8192 20.4815 24.5534 20.4815Z" fill="white"/>
</svg>
