<svg width="32" height="32" viewBox="0 0 32 32" fill="none" xmlns="http://www.w3.org/2000/svg">
<path d="M15.5527 30C9.63525 30 5 26.96 5 23.0801C5.02532 22.2096 5.24851 21.3563 5.65265 20.5849C6.05679 19.8135 6.63127 19.1443 7.33252 18.6279C7.27637 18.0049 7.25146 17.3789 7.25732 16.7578C7.25732 14.9302 8.52246 13.4346 10.6152 12.5454C10.4976 12.4699 10.3865 12.3846 10.2832 12.2905C9.749 11.7709 9.36104 11.1197 9.1584 10.4025C8.95577 9.68535 8.94559 8.92744 9.12891 8.20507L8.50537 8.00487L9.84668 6.64159C9.58073 6.18291 9.47169 5.65 9.53611 5.12373C9.60053 4.59746 9.83489 4.10658 10.2036 3.72559C10.4291 3.49712 10.6974 3.31541 10.9932 3.1909C11.2891 3.06639 11.6066 3.00152 11.9276 3.00003C12.2485 2.99853 12.5666 3.06043 12.8636 3.18217C13.1606 3.30392 13.4306 3.48311 13.6582 3.70947C13.6943 3.74512 13.729 3.78174 13.7637 3.81885C13.9805 3.57577 14.2439 3.37866 14.5383 3.23918C14.8327 3.09971 15.1521 3.02071 15.4775 3.00685H15.4927C15.8202 2.99974 16.1459 3.05714 16.4512 3.17579C16.7515 3.29534 17.0249 3.474 17.2549 3.70118C17.293 3.73927 17.3291 3.77784 17.3652 3.81642C17.3906 3.78858 17.416 3.76075 17.4414 3.73342C17.9009 3.27201 18.5246 3.01161 19.1758 3.0093C19.8068 3.00835 20.4134 3.25299 20.8672 3.69143C21.6006 4.41692 22.0438 5.38533 22.1134 6.41462C22.183 7.4439 21.8742 8.46316 21.2451 9.28078C21.5232 9.74051 21.6405 10.2797 21.5787 10.8134C21.5168 11.3471 21.2792 11.8451 20.9033 12.229C20.7769 12.3529 20.6386 12.464 20.4902 12.5606C22.5596 13.4531 23.8164 14.9458 23.8291 16.7715C23.835 17.3916 23.8106 18.0176 23.7549 18.6406C24.1963 18.9926 24.5946 19.3954 24.9414 19.8408L26.0859 18.1231L26.0957 23.0654C26.0957 26.9541 21.4648 30 15.5527 30Z" fill="white"/>
<path d="M11.282 7.32139C11.364 7.23946 11.4291 7.14217 11.4735 7.03507C11.5179 6.92797 11.5407 6.81318 11.5407 6.69724C11.5407 6.58131 11.5179 6.46651 11.4735 6.35941C11.4291 6.25231 11.364 6.15502 11.282 6.07309C11.1119 5.89777 11.0179 5.66232 11.0206 5.41803C11.0233 5.17375 11.1225 4.94043 11.2965 4.76893C11.4705 4.59743 11.7052 4.50164 11.9495 4.50245C12.1938 4.50325 12.4278 4.60057 12.6007 4.77321C13.1114 5.28519 13.3982 5.97882 13.3982 6.70197C13.3982 7.42512 13.1114 8.11875 12.6007 8.63073C12.5173 8.71184 12.451 8.80889 12.4059 8.91611C12.3608 9.02333 12.3376 9.13854 12.3379 9.25488C12.3381 9.37185 12.3614 9.48762 12.4065 9.59555C12.4516 9.70347 12.5176 9.8014 12.6007 9.88372C12.6858 9.96867 12.7533 10.0696 12.7992 10.1808C12.8451 10.2919 12.8686 10.4111 12.8682 10.5314C12.8607 10.71 12.8023 10.8828 12.6999 11.0294C12.5975 11.176 12.4553 11.2903 12.2902 11.3588C12.125 11.4274 11.9437 11.4473 11.7676 11.4163C11.5915 11.3852 11.4279 11.3045 11.2961 11.1837C10.7854 10.6717 10.4986 9.97803 10.4986 9.25489C10.4986 8.53174 10.7854 7.83811 11.2961 7.32612L11.282 7.32139ZM14.0977 9.25015C14.0973 9.60873 14.1681 9.96382 14.3058 10.2949C14.4436 10.626 14.6456 10.9264 14.9002 11.1789C14.9851 11.264 15.0861 11.3315 15.1972 11.3774C15.3084 11.4233 15.4275 11.4468 15.5478 11.4464C15.7265 11.4389 15.8993 11.3805 16.0459 11.2781C16.1925 11.1757 16.3068 11.0335 16.3753 10.8684C16.4438 10.7032 16.4637 10.5219 16.4327 10.3458C16.4017 10.1697 16.321 10.0061 16.2001 9.87429C16.1181 9.79236 16.053 9.69507 16.0086 9.58797C15.9642 9.48088 15.9414 9.36608 15.9414 9.25015C15.9414 9.13421 15.9642 9.01941 16.0086 8.91232C16.053 8.80522 16.1181 8.70793 16.2001 8.626C16.7108 8.11402 16.9976 7.42039 16.9976 6.69724C16.9976 5.97409 16.7108 5.28046 16.2001 4.76848C16.1137 4.68304 16.011 4.61577 15.8982 4.57063C15.7853 4.5255 15.6646 4.50341 15.5431 4.50568C15.3644 4.51319 15.1916 4.57158 15.045 4.67399C14.8984 4.77639 14.7842 4.91855 14.7156 5.08372C14.6471 5.24889 14.6272 5.43019 14.6582 5.6063C14.6892 5.78241 14.7699 5.94599 14.8908 6.07778C14.9734 6.1594 15.0389 6.25659 15.0837 6.36373C15.1284 6.47087 15.1515 6.58582 15.1515 6.70193C15.1515 6.81804 15.1284 6.93299 15.0837 7.04013C15.0389 7.14727 14.9734 7.24447 14.8908 7.32608C14.6368 7.57881 14.4355 7.87942 14.2986 8.2105C14.1617 8.54159 14.0918 8.89655 14.093 9.25484L14.0977 9.25015ZM18.4949 7.32139C18.2418 7.5738 18.0409 7.87368 17.9039 8.20385C17.7669 8.53402 17.6963 8.88798 17.6963 9.24545C17.6963 9.60292 17.7669 9.95688 17.9039 10.2871C18.0409 10.6172 18.2418 10.9171 18.4949 11.1695C18.5819 11.2606 18.6869 11.3327 18.8033 11.3812C18.9196 11.4297 19.0447 11.4535 19.1707 11.4511C19.3533 11.4522 19.5321 11.3988 19.6842 11.2978C19.8364 11.1969 19.955 11.0529 20.025 10.8842C20.095 10.7155 20.1132 10.5298 20.0772 10.3508C20.0412 10.1718 19.9527 10.0075 19.823 9.87899C19.6576 9.71338 19.5648 9.48888 19.5649 9.25484C19.564 9.13771 19.5868 9.02162 19.632 8.91355C19.6772 8.80548 19.7437 8.70766 19.8277 8.626C20.3369 8.11419 20.6228 7.42157 20.6228 6.69959C20.6228 5.9776 20.3369 5.28498 19.8277 4.77317C19.6547 4.60318 19.4216 4.50831 19.1791 4.50915C18.9365 4.51 18.7041 4.6065 18.5323 4.7777C18.3605 4.9489 18.2631 5.18097 18.2614 5.42351C18.2597 5.66605 18.3537 5.89947 18.5231 6.07309C18.6072 6.15344 18.6743 6.24979 18.7207 6.35646C18.767 6.46313 18.7915 6.57799 18.7928 6.69427C18.7941 6.81056 18.7722 6.92594 18.7283 7.03363C18.6844 7.14132 18.6194 7.23916 18.5372 7.32139H18.4949ZM24.5956 23.0659C24.5956 26.0599 20.541 28.5002 15.5525 28.5002C10.564 28.5002 6.5 26.0928 6.5 23.08C6.55275 22.3004 6.80261 21.5469 7.22615 20.8903C7.64969 20.2336 8.23304 19.6953 8.92151 19.3257C8.80406 18.4799 8.74916 17.6267 8.75726 16.7728C8.75726 14.6751 11.6246 13.1546 15.5431 13.1546C19.4616 13.1546 22.3149 14.6891 22.329 16.7822C22.3378 17.6392 22.2829 18.4957 22.1647 19.3445C22.8552 19.7067 23.4407 20.2407 23.8649 20.895C24.289 21.5493 24.5374 22.3018 24.5862 23.08L24.5956 23.0659ZM8.34898 23.0659C8.34898 25.0134 11.634 26.6606 15.5525 26.6606C19.471 26.6606 22.756 25.0134 22.756 23.0659C22.7295 22.7204 22.6281 22.3848 22.4587 22.0825C22.2893 21.7802 22.0561 21.5184 21.7752 21.3154C21.6233 21.8974 21.44 22.4708 21.2262 23.033C21.0729 23.4349 20.825 23.7938 20.5035 24.0795C19.1731 25.2087 17.4852 25.829 15.7402 25.83H15.3601C13.6256 25.8345 11.9453 25.2262 10.6156 24.1124C10.2879 23.8226 10.0338 23.4591 9.8742 23.0518C9.663 22.4934 9.47996 21.9161 9.31571 21.3248C9.0367 21.5303 8.80513 21.7934 8.63671 22.0962C8.4683 22.3991 8.36697 22.7346 8.3396 23.08L8.34898 23.0659ZM11.6011 22.376C11.6532 22.5008 11.7317 22.6129 11.8311 22.7045C12.8209 23.5357 14.0723 23.9911 15.3648 23.9904H15.7449C17.0453 23.9895 18.3035 23.5291 19.2974 22.6905C19.3918 22.6021 19.4641 22.4928 19.5086 22.3713C19.8412 21.5004 20.091 20.6001 20.2547 19.6823C20.2597 19.6489 20.2675 19.6159 20.2782 19.5838C20.2745 19.5357 20.2825 19.4873 20.3017 19.443C18.8136 20.1254 17.189 20.4577 15.5525 20.4144C13.9155 20.4637 12.289 20.1361 10.7986 19.4571C10.8079 19.5457 10.8236 19.6336 10.8456 19.7199C11.012 20.6309 11.2618 21.5248 11.5917 22.3901L11.6011 22.376ZM20.5175 16.7869C20.5175 16.0735 18.5465 14.9989 15.5713 14.9989C12.7039 14.9989 10.625 16.0688 10.625 16.7869C10.6461 16.9081 10.6919 17.0235 10.7598 17.1261C10.8276 17.2286 10.9159 17.316 11.0192 17.3828C11.7795 16.4443 13.5205 15.8295 15.5713 15.8295C17.6221 15.8295 19.3678 16.4255 20.1233 17.3828C20.2198 17.3149 20.3019 17.2285 20.3647 17.1286C20.4276 17.0287 20.4699 16.9173 20.4894 16.8009L20.5175 16.7869Z" fill="#EB602B"/>
</svg>
