<svg width="32" height="32" viewBox="0 0 32 32" fill="none" xmlns="http://www.w3.org/2000/svg">
<path fill-rule="evenodd" clip-rule="evenodd" d="M4.50004 29.9961C3.9522 29.9963 3.41949 29.8164 2.98391 29.4841C2.54833 29.1519 2.23404 28.6857 2.0894 28.1573C1.99293 27.8081 1.97426 27.4421 2.03471 27.085C2.25726 25.8307 2.75616 24.6416 3.49523 23.604C4.2343 22.5664 5.19501 21.7063 6.30771 21.086C6.28232 21.0626 6.25693 21.0382 6.23251 21.0138C5.88296 20.6641 5.64492 20.2187 5.54848 19.7338C5.45205 19.2489 5.50156 18.7463 5.69075 18.2895C5.87994 17.8327 6.20031 17.4423 6.61136 17.1676C7.02242 16.8929 7.50569 16.7462 8.00009 16.7462H11.2295C11.1368 16.4636 11.0719 16.1727 11.0357 15.8775C10.9615 15.2879 11.0046 14.6895 11.1625 14.1167C11.3205 13.5438 11.5902 13.0078 11.9561 12.5396L13.563 10.3584L12.0997 8.13869C11.5297 7.28676 11.2788 6.26101 11.3912 5.24221C11.4201 4.92472 11.5118 4.61616 11.6612 4.33449C11.8151 4.03982 12.0265 3.77901 12.283 3.56749C12.5395 3.35597 12.8358 3.19803 13.1543 3.10302C13.3848 3.03473 13.624 3.00004 13.8643 3.00002C14.1969 2.99868 14.5263 3.06363 14.8334 3.19106C15.1405 3.31849 15.4192 3.50585 15.6531 3.7422C15.887 3.97854 16.0714 4.25913 16.1956 4.56757C16.3198 4.87601 16.3813 5.20611 16.3765 5.53859L18.688 9.06402C18.855 9.31811 18.9742 9.60059 19.0396 9.89752L20.1382 8.4507C20.4562 8.03017 20.8989 7.72086 21.4031 7.56696C21.9073 7.41306 22.4473 7.42245 22.9458 7.59377C23.2612 7.70311 23.5517 7.87407 23.8003 8.0967L24.0044 5.39802C24.0273 5.07314 24.1143 4.75601 24.2603 4.46491C24.4084 4.16858 24.6141 3.9047 24.8652 3.68866C25.1164 3.47263 25.408 3.30876 25.7232 3.20661C25.9711 3.12628 26.2301 3.08542 26.4908 3.08552L26.7027 3.09431C27.361 3.1478 27.9716 3.45931 28.4012 3.96097C28.8309 4.46263 29.0449 5.11378 28.9966 5.77253L28.4761 12.6241C28.4117 13.4379 28.1394 14.2215 27.6854 14.9C27.2315 15.5784 26.611 16.129 25.8833 16.4991C25.3838 16.7331 24.8393 16.8554 24.2876 16.8575C24.1194 16.8576 23.9514 16.8461 23.7847 16.8233C23.0945 16.7296 22.4442 16.4452 21.9068 16.002C21.6488 15.8038 21.4104 15.5812 21.1949 15.3375L19.105 18.0928C18.7365 18.5706 18.2764 18.9699 17.7515 19.2676C17.2302 19.5633 16.6549 19.7515 16.0596 19.8213C15.8816 19.8433 15.7024 19.8544 15.523 19.8545L15.5186 18.3545V19.8545C15.4879 19.8545 15.4571 19.8545 15.4263 19.8535C15.3167 20.293 15.0891 20.6941 14.7681 21.0137C14.7437 21.0381 14.7183 21.0625 14.6929 21.0859C15.8034 21.7045 16.7625 22.562 17.5012 23.5964C18.2399 24.6308 18.7397 25.8163 18.9644 27.0674C19.0274 27.4267 19.0108 27.7955 18.9159 28.1478C18.8211 28.5001 18.6502 28.8273 18.4153 29.1065C18.1804 29.3856 17.8872 29.6099 17.5563 29.7636C17.2254 29.9173 16.8649 29.9967 16.5001 29.9961L4.50004 29.9961Z" fill="white"/>
<path fill-rule="evenodd" clip-rule="evenodd" d="M26.1861 4.63341C26.3428 4.58191 26.5098 4.56983 26.6723 4.59824C26.8347 4.62664 26.9877 4.69466 27.1176 4.79627C27.2476 4.89787 27.3505 5.02994 27.4172 5.18078C27.4839 5.33162 27.5124 5.49658 27.5002 5.66107L26.9802 12.5101C26.9353 13.0672 26.7483 13.6036 26.437 14.0679C26.1257 14.5322 25.7006 14.9089 25.2022 15.1621C24.8212 15.3326 24.4 15.3931 23.9864 15.337C23.5727 15.2808 23.183 15.11 22.8612 14.8441C22.3637 14.4628 21.9638 13.969 21.6942 13.4031C21.6572 13.3258 21.6009 13.2594 21.5308 13.2102C21.4607 13.1609 21.3791 13.1305 21.2938 13.1219C21.2086 13.1133 21.1226 13.1267 21.044 13.1609C20.9655 13.195 20.897 13.2488 20.8452 13.3171L17.9092 17.1861C17.6644 17.5019 17.3592 17.7659 17.0114 17.9626C16.6635 18.1593 16.28 18.2849 15.8832 18.3321C15.7638 18.3468 15.6436 18.3542 15.5232 18.3541C14.8488 18.3557 14.1936 18.1291 13.6642 17.7111C13.0325 17.2158 12.6226 16.4905 12.5244 15.6938C12.4262 14.8971 12.6476 14.0939 13.1402 13.4601L15.1852 10.6861C15.2455 10.6039 15.2792 10.5053 15.2819 10.4034C15.2846 10.3015 15.2561 10.2013 15.2002 10.1161L13.3522 7.31307C12.975 6.75295 12.8085 6.07731 12.8822 5.40607C12.8927 5.27463 12.9294 5.14662 12.9903 5.02967C13.0512 4.91271 13.1349 4.80918 13.2366 4.72523C13.3383 4.64127 13.4558 4.57861 13.5822 4.54096C13.7085 4.50332 13.8412 4.49145 13.9722 4.50607C14.2361 4.53138 14.4791 4.66041 14.6478 4.86479C14.8166 5.06918 14.8973 5.3322 14.8722 5.59607C14.8457 5.80665 14.8961 6.01973 15.0142 6.19607L17.4332 9.88607C17.5452 10.0566 17.6024 10.2573 17.597 10.4613C17.5917 10.6652 17.524 10.8627 17.4032 11.0271L14.7272 14.6651C14.6409 14.7719 14.5767 14.8949 14.5382 15.0267C14.4997 15.1586 14.4877 15.2968 14.503 15.4333C14.5182 15.5698 14.5604 15.7019 14.627 15.8221C14.6937 15.9422 14.7835 16.0479 14.8912 16.1331C14.9962 16.2154 15.1164 16.2763 15.2449 16.3122C15.3734 16.348 15.5078 16.3582 15.6402 16.3421C15.7737 16.3271 15.9028 16.2853 16.0198 16.2194C16.1368 16.1534 16.2393 16.0645 16.3212 15.9581L21.3322 9.35807C21.4592 9.18871 21.6365 9.06399 21.8389 9.00185C22.0412 8.93972 22.258 8.94338 22.4581 9.01231C22.6582 9.08123 22.8313 9.21187 22.9524 9.38541C23.0736 9.55896 23.1365 9.76647 23.1322 9.97807C23.0992 12.2971 23.6092 12.8931 24.0912 13.2691C24.1291 13.3105 24.1793 13.3387 24.2343 13.3495C24.2894 13.3603 24.3465 13.3531 24.3972 13.3291C24.5642 13.2225 24.704 13.0786 24.8057 12.9087C24.9074 12.7388 24.9682 12.5475 24.9832 12.3501L25.5002 5.51107C25.5137 5.31298 25.5863 5.12348 25.7086 4.96704C25.8308 4.81059 25.9972 4.69438 26.1861 4.63341ZM11.6076 21.4764C11.6767 21.5601 11.7727 21.6173 11.8792 21.6381C13.2792 21.9106 14.5641 22.6002 15.5651 23.6162C16.5661 24.6322 17.2365 25.9272 17.4882 27.3311C17.5122 27.4745 17.5047 27.6215 17.4661 27.7617C17.4274 27.9019 17.3587 28.032 17.2646 28.1429C17.1706 28.2538 17.0534 28.3429 16.9214 28.4039C16.7894 28.4649 16.6457 28.4964 16.5002 28.4961H4.50023C4.35497 28.4961 4.21146 28.4644 4.07969 28.4032C3.94792 28.3421 3.83105 28.253 3.73721 28.1421C3.64337 28.0312 3.57481 27.9013 3.5363 27.7612C3.49779 27.6211 3.49026 27.4744 3.51423 27.3311C3.76546 25.9271 4.43555 24.6321 5.43645 23.616C6.43734 22.5999 7.72222 21.9104 9.12223 21.6381C9.22874 21.6174 9.32472 21.5603 9.3937 21.4765C9.46268 21.3928 9.50034 21.2876 9.50023 21.1791V20.7461C9.50023 20.6804 9.48731 20.6154 9.46218 20.5547C9.43706 20.4941 9.40023 20.439 9.3538 20.3925C9.30737 20.3461 9.25224 20.3093 9.19158 20.2841C9.13091 20.259 9.06589 20.2461 9.00023 20.2461H8.00023C7.73501 20.2461 7.48065 20.1407 7.29312 19.9532C7.10558 19.7657 7.00023 19.5113 7.00023 19.2461C7.00023 18.9809 7.10558 18.7265 7.29312 18.539C7.48065 18.3515 7.73501 18.2461 8.00023 18.2461H13.0002C13.2654 18.2461 13.5198 18.3515 13.7073 18.539C13.8949 18.7265 14.0002 18.9809 14.0002 19.2461C14.0002 19.5113 13.8949 19.7657 13.7073 19.9532C13.5198 20.1407 13.2654 20.2461 13.0002 20.2461H12.0002C11.8676 20.2461 11.7404 20.2988 11.6467 20.3925C11.5529 20.4863 11.5002 20.6135 11.5002 20.7461V21.1791C11.5005 21.2876 11.5385 21.3927 11.6076 21.4764Z" fill="black"/>
</svg>
