<svg width="32" height="32" viewBox="0 0 32 32" fill="none" xmlns="http://www.w3.org/2000/svg">
<path d="M8.00001 28.5996C7.28402 28.5997 6.59731 28.3154 6.09093 27.8092C5.58456 27.303 5.29999 26.6164 5.29981 25.9004C5.30121 25.3653 5.46036 24.8426 5.75733 24.3975C4.77352 24.359 3.84007 23.9522 3.1421 23.2578C2.77886 22.8965 2.49088 22.4667 2.29484 21.9933C2.0988 21.5199 1.99859 21.0124 2.00001 20.5V7.89992C2.00031 6.86569 2.41128 5.8739 3.14259 5.14259C3.8739 4.41128 4.86569 4.00031 5.89991 4.00002H25.0996C25.612 3.99857 26.1196 4.09882 26.593 4.29495C27.0664 4.49108 27.4962 4.77919 27.8574 5.1426C28.5865 5.8754 28.9971 6.86621 29 7.89992V20.5C28.9999 21.5097 28.6083 22.48 27.9074 23.2069C27.2066 23.9338 26.2512 24.3605 25.2422 24.3975C25.5393 24.8425 25.6986 25.3653 25.7002 25.9004C25.6998 26.6163 25.4152 27.3028 24.9088 27.8089C24.4025 28.3151 23.7159 28.5995 23 28.5996H8.00001Z" fill="white"/>
<path d="M25.1 22.9C25.4152 22.9 25.7273 22.838 26.0185 22.7174C26.3097 22.5967 26.5742 22.42 26.7971 22.1971C27.02 21.9742 27.1967 21.7097 27.3174 21.4185C27.438 21.1273 27.5 20.8152 27.5 20.5V7.9C27.5 7.58482 27.4379 7.27273 27.3173 6.98155C27.1967 6.69036 27.0199 6.42578 26.7971 6.20292C26.5742 5.98006 26.3096 5.80328 26.0185 5.68267C25.7273 5.56206 25.4152 5.49999 25.1 5.5H5.9C5.26348 5.5 4.65303 5.75286 4.20294 6.20294C3.75286 6.65303 3.5 7.26348 3.5 7.9V20.5C3.49999 20.8152 3.56206 21.1273 3.68267 21.4185C3.80328 21.7096 3.98006 21.9742 4.20292 22.1971C4.42578 22.4199 4.69036 22.5967 4.98155 22.7173C5.27273 22.8379 5.58482 22.9 5.9 22.9H14C14.0796 22.9 14.1558 22.9316 14.2121 22.9879C14.2684 23.0442 14.3 23.1204 14.3 23.2V24.4C14.3 24.4796 14.2684 24.5558 14.2121 24.6121C14.1558 24.6684 14.0796 24.7 14 24.7H8C7.68174 24.7 7.37652 24.8264 7.15147 25.0515C6.92643 25.2765 6.8 25.5817 6.8 25.9C6.8 26.2183 6.92643 26.5235 7.15147 26.7485C7.37652 26.9736 7.68174 27.1 8 27.1H23C23.3183 27.1 23.6235 26.9736 23.8485 26.7485C24.0736 26.5235 24.2 26.2183 24.2 25.9C24.2 25.5817 24.0736 25.2765 23.8485 25.0515C23.6235 24.8264 23.3183 24.7 23 24.7H17C16.9204 24.7 16.8442 24.6684 16.7879 24.6121C16.7316 24.5558 16.7 24.4796 16.7 24.4V23.2C16.7 23.1204 16.7316 23.0442 16.7879 22.9879C16.8442 22.9316 16.9204 22.9 17 22.9H25.1ZM24.8 7.9C24.8796 7.90002 24.9559 7.93163 25.0121 7.98789C25.0684 8.04414 25.1 8.12044 25.1 8.2V18.4C25.1 18.4796 25.0684 18.5558 25.0121 18.6121C24.9558 18.6684 24.8796 18.7 24.8 18.7H6.2C6.12044 18.7 6.04414 18.6684 5.98789 18.6121C5.93163 18.5559 5.90002 18.4796 5.9 18.4V8.2C5.9 8.12043 5.93161 8.04413 5.98787 7.98787C6.04413 7.93161 6.12043 7.9 6.2 7.9H24.8Z" fill="#51247A"/>
</svg>
