<svg width="32" height="32" viewBox="0 0 32 32" fill="none" xmlns="http://www.w3.org/2000/svg">
<path fill-rule="evenodd" clip-rule="evenodd" d="M22.9151 26.0737C22.3181 26.0537 21.748 25.8205 21.3081 25.4163C20.8682 25.0122 20.5876 24.4638 20.5171 23.8706C19.0124 24.7833 17.2892 25.2729 15.5293 25.2876H15.3497C13.6337 25.2869 11.9492 24.8277 10.4703 23.9575C10.38 24.5312 10.0932 25.0556 9.65886 25.4411C9.22455 25.8266 8.66977 26.0492 8.08945 26.0708L7.99766 26.0728C7.3656 26.0732 6.75692 25.8338 6.29453 25.4029C4.94212 24.1379 3.86331 22.6093 3.12469 20.9112C2.38608 19.2131 2.00334 17.3816 2.0001 15.5299C1.99298 13.6876 2.3663 11.8637 3.09668 10.1724C3.82707 8.48104 4.89879 6.95873 6.24473 5.70077C6.4781 5.47811 6.75302 5.30357 7.05381 5.18709C7.34324 5.07393 7.65125 5.01581 7.96201 5.01571C8.31294 5.01703 8.65983 5.09062 8.98106 5.2319C9.28312 5.36641 9.5555 5.55949 9.78246 5.79995C10.0094 6.04041 10.1864 6.32349 10.3033 6.63281C10.375 6.82406 10.4233 7.02325 10.4473 7.22608C11.9577 6.29871 13.6902 5.79586 15.4624 5.77051L15.6616 5.76856C17.3828 5.76895 19.0718 6.23531 20.5493 7.11817C20.5758 6.94795 20.6197 6.78089 20.6803 6.61963C20.8552 6.15556 21.164 5.7539 21.5676 5.46563C21.9711 5.17736 22.4512 5.01546 22.9469 5.00049H22.9581C23.2849 4.99412 23.6099 5.05012 23.9156 5.16549C24.2211 5.28209 24.5005 5.45781 24.7379 5.68258C26.0864 6.94775 27.1606 8.47646 27.8939 10.1739C28.6271 11.8713 29.0039 13.7013 29.0008 15.5504C28.9977 17.3994 28.6148 19.2281 27.8758 20.9231C27.1367 22.6181 26.0574 24.1431 24.7047 25.4038C24.2421 25.8365 23.6321 26.0767 22.9986 26.0756L22.9151 26.0737Z" fill="white"/>
<path fill-rule="evenodd" clip-rule="evenodd" d="M23.3768 6.56617C23.4999 6.61312 23.6124 6.6839 23.708 6.77444C24.9074 7.89884 25.8629 9.25768 26.5153 10.7667C27.1677 12.2757 27.5031 13.9026 27.5006 15.5466C27.4982 17.1906 27.158 18.8165 26.5011 20.3236C25.8442 21.8306 24.8847 23.1866 23.682 24.3074C23.586 24.3973 23.4732 24.4673 23.3501 24.5136C23.227 24.5598 23.096 24.5813 22.9646 24.5768C22.8332 24.5723 22.7039 24.542 22.5842 24.4875C22.4646 24.433 22.3568 24.3554 22.2671 24.2593C22.1774 24.1631 22.1076 24.0502 22.0616 23.927C22.0157 23.8038 21.9944 23.6727 21.9992 23.5413C22.0039 23.4099 22.0345 23.2807 22.0892 23.1611C22.1439 23.0415 22.2217 22.9339 22.318 22.8444C23.3203 21.9072 24.1198 20.7745 24.6671 19.5162C25.2144 18.2578 25.4979 16.9006 25.5 15.5284C25.5054 14.16 25.2273 12.8052 24.6833 11.5495C24.1393 10.2938 23.3411 9.16443 22.339 8.23244C22.1692 8.07437 22.0597 7.86216 22.0291 7.63218C21.9986 7.4022 22.0489 7.16875 22.1716 6.97182C22.2942 6.77488 22.4815 6.62673 22.7014 6.55273C22.9213 6.47872 23.1601 6.48348 23.3768 6.56617ZM8.68004 22.8395C7.67871 21.9027 6.87995 20.7707 6.33302 19.5133C5.78609 18.2558 5.5026 16.8997 5.50004 15.5285C5.49476 14.1648 5.771 12.8148 6.31147 11.5628C6.85194 10.3108 7.64501 9.18383 8.64104 8.25243C8.73843 8.16281 8.81705 8.05476 8.87236 7.93452C8.92767 7.81429 8.95857 7.68428 8.96326 7.55202C8.96794 7.41975 8.94633 7.28788 8.89967 7.16403C8.85301 7.04018 8.78223 6.92683 8.69144 6.83054C8.60064 6.73425 8.49164 6.65695 8.37074 6.6031C8.24985 6.54926 8.11946 6.51994 7.98716 6.51686C7.85485 6.51378 7.72324 6.537 7.59997 6.58516C7.4767 6.63332 7.36422 6.70547 7.26904 6.79743C6.07353 7.91484 5.12168 9.26711 4.47312 10.7695C3.82457 12.2719 3.49329 13.8921 3.50004 15.5285C3.50268 17.1746 3.84265 18.8026 4.49898 20.3122C5.1553 21.8218 6.11405 23.1808 7.31604 24.3055C7.41222 24.3955 7.52521 24.4656 7.64855 24.5119C7.77188 24.5582 7.90313 24.5796 8.03478 24.5751C8.16643 24.5705 8.29588 24.54 8.41572 24.4854C8.53557 24.4307 8.64344 24.3529 8.73317 24.2565C8.8229 24.16 8.89272 24.0468 8.93862 23.9234C8.98452 23.7999 9.00561 23.6686 9.00068 23.5369C8.99574 23.4053 8.96488 23.2759 8.90986 23.1563C8.85484 23.0366 8.77674 22.9289 8.68004 22.8395ZM23.757 15.3855C23.7329 13.2089 22.8536 11.1292 21.309 9.59548C20.5445 8.83688 19.6349 8.24012 18.6346 7.84083C17.6343 7.44153 16.5638 7.2479 15.487 7.27148C13.2806 7.30774 11.177 8.21081 9.63104 9.78548C8.47402 10.9233 7.68182 12.3797 7.35531 13.9692C7.0288 15.5587 7.18276 17.2095 7.79759 18.7112C8.41242 20.2129 9.46029 21.4977 10.8078 22.4019C12.1552 23.3061 13.7413 23.7888 15.364 23.7885H15.513C17.7197 23.7647 19.8269 22.8667 21.3723 21.2914C22.9178 19.7161 23.7754 17.5922 23.757 15.3855ZM14.5 11.5275C14.5 11.2623 14.6054 11.0079 14.7929 10.8204C14.9805 10.6328 15.2348 10.5275 15.5 10.5275C15.7653 10.5275 16.0196 10.6328 16.2071 10.8204C16.3947 11.0079 16.5 11.2623 16.5 11.5275V16.0275C16.5 16.2927 16.3947 16.5471 16.2071 16.7346C16.0196 16.9221 15.7653 17.0275 15.5 17.0275C15.2348 17.0275 14.9805 16.9221 14.7929 16.7346C14.6054 16.5471 14.5 16.2927 14.5 16.0275V11.5275ZM15.52 20.5505H15.5C15.3359 20.5519 15.1731 20.5209 15.0209 20.4593C14.8687 20.3978 14.7301 20.3069 14.6131 20.1918C14.496 20.0767 14.4028 19.9397 14.3387 19.7885C14.2746 19.6374 14.2409 19.4751 14.2395 19.311C14.2382 19.1468 14.2691 18.984 14.3307 18.8318C14.3922 18.6796 14.4831 18.5411 14.5982 18.424C14.7133 18.307 14.8504 18.2137 15.0015 18.1497C15.1526 18.0856 15.3149 18.0519 15.479 18.0505H15.5C15.6642 18.0492 15.827 18.0802 15.9792 18.1418C16.1313 18.2034 16.2699 18.2944 16.3869 18.4095C16.5039 18.5247 16.597 18.6617 16.6611 18.8129C16.7251 18.964 16.7587 19.1263 16.76 19.2905C16.7614 19.4546 16.7303 19.6174 16.6687 19.7696C16.6071 19.9218 16.5161 20.0603 16.401 20.1773C16.2858 20.2943 16.1488 20.3875 15.9976 20.4515C15.8465 20.5155 15.6842 20.5492 15.52 20.5505Z" fill="#E62645"/>
</svg>
