<svg width="32" height="32" viewBox="0 0 32 32" fill="none" xmlns="http://www.w3.org/2000/svg">
<path d="M26.3737 14.0045C26.347 13.9767 26.327 13.9432 26.315 13.9066C26.3031 13.8699 26.2996 13.831 26.3049 13.7929C26.3103 13.7548 26.3244 13.7186 26.3459 13.6868C26.3675 13.655 26.3961 13.6286 26.4294 13.6095L27.2396 13.1407C27.4125 13.0409 27.5641 12.9081 27.6856 12.7498C27.8072 12.5915 27.8964 12.4108 27.9481 12.218C27.9998 12.0252 28.013 11.8241 27.9871 11.6262C27.9611 11.4283 27.8964 11.2375 27.7966 11.0646C27.6969 10.8917 27.564 10.7402 27.4057 10.6186C27.2474 10.497 27.0667 10.4079 26.8739 10.3561C26.6812 10.3044 26.4801 10.2912 26.2822 10.3172C26.0843 10.3431 25.8934 10.4079 25.7205 10.5076L24.642 11.1304C24.6066 11.1507 24.5667 11.1622 24.5259 11.1638C24.4851 11.1654 24.4445 11.1571 24.4075 11.1395C24.3706 11.122 24.3385 11.0958 24.3139 11.0632C24.2893 11.0306 24.273 10.9925 24.2663 10.9522L23.8612 8.53889C23.7447 7.8287 23.3792 7.18317 22.8301 6.71796C22.281 6.25274 21.5842 5.99822 20.8646 6.00001H11.1344C10.4144 5.9983 9.71741 6.2531 9.16827 6.71873C8.61914 7.18435 8.25381 7.83035 8.13779 8.54091L7.7327 10.9542C7.72587 10.9945 7.7094 11.0326 7.68469 11.0652C7.65999 11.0979 7.62777 11.124 7.59079 11.1415C7.55381 11.159 7.51315 11.1673 7.47227 11.1657C7.43139 11.1642 7.39149 11.1527 7.35597 11.1324L6.27946 10.5096C5.93029 10.3082 5.5154 10.2537 5.12607 10.3582C4.73673 10.4626 4.40483 10.7175 4.20339 11.0666C4.00195 11.4158 3.94746 11.8307 4.05192 12.22C4.15638 12.6094 4.41122 12.9412 4.76038 13.1427L5.57056 13.6116C5.60391 13.6306 5.63247 13.657 5.65405 13.6888C5.67564 13.7206 5.68969 13.7569 5.69512 13.7949C5.70037 13.8331 5.6969 13.872 5.68498 13.9086C5.67305 13.9453 5.65297 13.9787 5.62626 14.0065C4.81256 14.846 4.35685 15.9688 4.3553 17.1378V19.1633C4.35695 19.6709 4.51158 20.1662 4.799 20.5846C5.08643 21.003 5.4933 21.3251 5.96653 21.5087C6.01392 21.5274 6.05461 21.5599 6.08332 21.6019C6.11203 21.644 6.12744 21.6938 6.12755 21.7447V23.7205C6.12755 24.3248 6.36762 24.9044 6.79494 25.3317C7.22226 25.759 7.80183 25.9991 8.40616 25.9991C9.01048 25.9991 9.59005 25.759 10.0174 25.3317C10.4447 24.9044 10.6848 24.3248 10.6848 23.7205V21.9482C10.6848 21.8811 10.7114 21.8167 10.7589 21.7692C10.8064 21.7217 10.8708 21.6951 10.9379 21.6951H21.0651C21.1322 21.6951 21.1966 21.7217 21.2441 21.7692C21.2916 21.8167 21.3183 21.8811 21.3183 21.9482V23.7205C21.3183 24.3248 21.5583 24.9044 21.9857 25.3317C22.413 25.759 22.9926 25.9991 23.5969 25.9991C24.2012 25.9991 24.7808 25.759 25.2081 25.3317C25.6354 24.9044 25.8755 24.3248 25.8755 23.7205V21.7487C25.8756 21.6978 25.891 21.6481 25.9197 21.606C25.9484 21.5639 25.9891 21.5314 26.0365 21.5128C26.5097 21.3291 26.9166 21.0071 27.204 20.5887C27.4915 20.1703 27.6461 19.6749 27.6477 19.1673V17.1419C27.647 15.9703 27.19 14.845 26.3737 14.0045ZM11.1344 8.02746H20.8686C21.1083 8.02758 21.3402 8.11272 21.5231 8.26774C21.7059 8.42277 21.8279 8.63762 21.8672 8.87409L22.3523 11.7836C22.3577 11.8195 22.3554 11.8561 22.3456 11.891C22.3359 11.9259 22.3188 11.9583 22.2955 11.9862C22.2717 12.0142 22.2421 12.0367 22.2087 12.0521C22.1753 12.0674 22.1389 12.0754 22.1021 12.0753H9.90092C9.86413 12.0753 9.82777 12.0674 9.79436 12.0519C9.76096 12.0365 9.73132 12.014 9.70751 11.9859C9.6837 11.9579 9.66629 11.925 9.6565 11.8895C9.6467 11.8541 9.64475 11.8169 9.65078 11.7806L10.1359 8.87106C10.1758 8.63514 10.298 8.421 10.4808 8.26658C10.6636 8.11217 10.8951 8.02745 11.1344 8.02746ZM23.5969 19.1673C23.2964 19.1673 23.0027 19.0782 22.7529 18.9113C22.5031 18.7444 22.3084 18.5072 22.1934 18.2296C22.0785 17.952 22.0484 17.6466 22.107 17.3519C22.1656 17.0572 22.3103 16.7866 22.5227 16.5741C22.7352 16.3617 23.0059 16.217 23.3005 16.1584C23.5952 16.0998 23.9006 16.1298 24.1782 16.2448C24.4558 16.3598 24.693 16.5545 24.8599 16.8043C25.0269 17.0541 25.116 17.3478 25.116 17.6483C25.116 18.0511 24.9559 18.4375 24.671 18.7224C24.3861 19.0073 23.9998 19.1673 23.5969 19.1673ZM6.88709 17.6483C6.88709 17.3478 6.97618 17.0541 7.1431 16.8043C7.31001 16.5545 7.54726 16.3598 7.82483 16.2448C8.10241 16.1298 8.40784 16.0998 8.70251 16.1584C8.99719 16.217 9.26786 16.3617 9.4803 16.5741C9.69275 16.7866 9.83743 17.0572 9.89604 17.3519C9.95466 17.6466 9.92457 17.952 9.8096 18.2296C9.69462 18.5072 9.49992 18.7444 9.25011 18.9113C9.0003 19.0782 8.7066 19.1673 8.40616 19.1673C8.00327 19.1673 7.61689 19.0073 7.33201 18.7224C7.04713 18.4375 6.88709 18.0511 6.88709 17.6483Z" fill="#2EA836"/>
</svg>
