<svg width="32" height="32" viewBox="0 0 32 32" fill="none" xmlns="http://www.w3.org/2000/svg">
<path d="M16.5 17.5C16.5 17.3674 16.4473 17.2402 16.3536 17.1465C16.2598 17.0527 16.1326 17 16 17H14.6C14.5516 17 14.5042 16.9859 14.4637 16.9595C14.4231 16.9331 14.3911 16.8954 14.3715 16.8512C14.3519 16.8069 14.3456 16.7579 14.3533 16.7101C14.3611 16.6624 14.3825 16.6179 14.415 16.582C14.8764 16.0545 15.2 15.421 15.357 14.738C15.3932 14.5905 15.3952 14.4367 15.3631 14.2882C15.3309 14.1398 15.2653 14.0006 15.1713 13.8813C15.0774 13.762 14.9574 13.6656 14.8207 13.5995C14.6839 13.5335 14.5339 13.4994 14.382 13.5H10.618C10.4664 13.4999 10.3167 13.5343 10.1803 13.6005C10.0439 13.6668 9.92437 13.7632 9.83073 13.8825C9.73709 14.0017 9.67179 14.1407 9.63979 14.289C9.60779 14.4372 9.60991 14.5907 9.646 14.738C9.80301 15.421 10.1266 16.0545 10.588 16.582C10.6207 16.618 10.6422 16.6628 10.6498 16.7109C10.6574 16.759 10.6508 16.8082 10.6309 16.8526C10.6109 16.8969 10.5784 16.9345 10.5374 16.9607C10.4964 16.9869 10.4487 17.0006 10.4 17H9C8.86739 17 8.74021 17.0527 8.64645 17.1465C8.55268 17.2402 8.5 17.3674 8.5 17.5C8.5 17.6326 8.55268 17.7598 8.64645 17.8536C8.74021 17.9473 8.86739 18 9 18H16C16.1326 18 16.2598 17.9473 16.3536 17.8536C16.4473 17.7598 16.5 17.6326 16.5 17.5Z" fill="#51247A"/>
<path d="M28 8.5C28 8.1717 27.9353 7.84661 27.8097 7.54329C27.6841 7.23998 27.4999 6.96438 27.2678 6.73223C27.0356 6.50009 26.76 6.31594 26.4567 6.1903C26.1534 6.06466 25.8283 6 25.5 6H6.5C5.83696 6 5.20107 6.26339 4.73223 6.73223C4.26339 7.20107 4 7.83696 4 8.5L4 20.5C4.00019 20.9387 4.11579 21.3696 4.3352 21.7494C4.55461 22.1292 4.87011 22.4447 5.25 22.664C5.32601 22.7079 5.38913 22.771 5.43301 22.847C5.47689 22.923 5.5 23.0092 5.5 23.097V24.75C5.5 25.0815 5.6317 25.3995 5.86612 25.6339C6.10054 25.8683 6.41848 26 6.75 26C7.08152 26 7.39946 25.8683 7.63388 25.6339C7.8683 25.3995 8 25.0815 8 24.75V23.5C8 23.3674 8.05268 23.2402 8.14645 23.1464C8.24021 23.0527 8.36739 23 8.5 23H23.5C23.6326 23 23.7598 23.0527 23.8536 23.1464C23.9473 23.2402 24 23.3674 24 23.5V24.75C24 25.0815 24.1317 25.3995 24.3661 25.6339C24.6005 25.8683 24.9185 26 25.25 26C25.5815 26 25.8995 25.8683 26.1339 25.6339C26.3683 25.3995 26.5 25.0815 26.5 24.75V23.1C26.5 23.0122 26.5231 22.926 26.567 22.85C26.6109 22.774 26.674 22.7109 26.75 22.667C27.1303 22.4474 27.4461 22.1315 27.6655 21.7511C27.885 21.3707 28.0003 20.9392 28 20.5V8.5ZM18.5 18.5C18.5 19.0304 18.2893 19.5391 17.9142 19.9142C17.5391 20.2893 17.0304 20.5 16.5 20.5H8.5C7.96957 20.5 7.46086 20.2893 7.08579 19.9142C6.71071 19.5391 6.5 19.0304 6.5 18.5V10.5C6.5 9.96957 6.71071 9.46086 7.08579 9.08579C7.46086 8.71071 7.96957 8.5 8.5 8.5H16.5C17.0304 8.5 17.5391 8.71071 17.9142 9.08579C18.2893 9.46086 18.5 9.96957 18.5 10.5V18.5ZM25 20C25 20.1326 24.9473 20.2598 24.8536 20.3536C24.7598 20.4473 24.6326 20.5 24.5 20.5H22.5C22.3674 20.5 22.2402 20.4473 22.1464 20.3536C22.0527 20.2598 22 20.1326 22 20V19C22 18.8674 22.0527 18.7402 22.1464 18.6464C22.2402 18.5527 22.3674 18.5 22.5 18.5H24.5C24.6326 18.5 24.7598 18.5527 24.8536 18.6464C24.9473 18.7402 25 18.8674 25 19V20ZM25 16C25 16.1326 24.9473 16.2598 24.8536 16.3536C24.7598 16.4473 24.6326 16.5 24.5 16.5H22.5C22.3674 16.5 22.2402 16.4473 22.1464 16.3536C22.0527 16.2598 22 16.1326 22 16V9C22 8.86739 22.0527 8.74021 22.1464 8.64645C22.2402 8.55268 22.3674 8.5 22.5 8.5H24.5C24.6326 8.5 24.7598 8.55268 24.8536 8.64645C24.9473 8.74021 25 8.86739 25 9V16Z" fill="#51247A"/>
</svg>
