<svg width="32" height="32" viewBox="0 0 32 32" fill="none" xmlns="http://www.w3.org/2000/svg">
<path d="M23.057 11.4479C23.057 10.539 23.9368 9.31316 25.4114 8.16855C25.5243 8.08129 25.6173 7.97095 25.6842 7.84488C25.7511 7.71882 25.7903 7.57994 25.7992 7.43752C25.8081 7.2951 25.7866 7.15241 25.736 7.01899C25.6853 6.88556 25.6069 6.76447 25.5057 6.6638L23.1804 4.34147C23.025 4.18663 22.8231 4.087 22.6057 4.05783C22.3883 4.02866 22.1673 4.07156 21.9766 4.17996L19.0443 5.85424L16.0348 4.13181C15.8834 4.04543 15.7121 4 15.5378 4C15.3634 4 15.1921 4.04543 15.0407 4.13181L12.0312 5.85424L9.09292 4.17996C8.9022 4.07156 8.68122 4.02866 8.4638 4.05783C8.24638 4.087 8.04451 4.18663 7.88912 4.34147L5.56077 6.67082C5.45963 6.77149 5.38114 6.89258 5.33053 7.02601C5.27991 7.15943 5.25835 7.30212 5.26728 7.44454C5.2762 7.58696 5.31541 7.72584 5.38228 7.85191C5.44915 7.97797 5.54215 8.08831 5.65507 8.17557C7.12972 9.31316 8.0095 10.539 8.0095 11.4479C7.90689 12.4204 7.47922 13.3298 6.79567 14.029C5.68365 15.246 5.04632 16.8222 5 18.4701C5 25.3036 14.9865 27.8788 15.4119 27.9851C15.4916 28.005 15.5749 28.005 15.6546 27.9851C16.08 27.8788 26.0665 25.3036 26.0665 18.4701C26.0202 16.8222 25.3828 15.246 24.2708 14.029C23.5873 13.3298 23.1596 12.4204 23.057 11.4479Z" fill="white"/>
</svg>
