<svg width="32" height="32" viewBox="0 0 32 32" fill="none" xmlns="http://www.w3.org/2000/svg">
<path d="M27 5.5C27 5.10218 26.842 4.72064 26.5607 4.43934C26.2794 4.15804 25.8978 4 25.5 4H6.5C6.10218 4 5.72064 4.15804 5.43934 4.43934C5.15804 4.72064 5 5.10218 5 5.5V25C5.00029 25.3626 5.13374 25.7124 5.375 25.983C5.45562 26.0744 5.50007 26.1921 5.5 26.314V27C5.5 27.2652 5.60536 27.5196 5.79289 27.7071C5.98043 27.8946 6.23478 28 6.5 28C6.76522 28 7.01957 27.8946 7.20711 27.7071C7.39464 27.5196 7.5 27.2652 7.5 27C7.5 26.8674 7.55268 26.7402 7.64645 26.6464C7.74021 26.5527 7.86739 26.5 8 26.5H24C24.1326 26.5 24.2598 26.5527 24.3536 26.6464C24.4473 26.7402 24.5 26.8674 24.5 27C24.5 27.2652 24.6054 27.5196 24.7929 27.7071C24.9804 27.8946 25.2348 28 25.5 28C25.7652 28 26.0196 27.8946 26.2071 27.7071C26.3946 27.5196 26.5 27.2652 26.5 27V26.314C26.4999 26.1921 26.5444 26.0744 26.625 25.983C26.8663 25.7124 26.9997 25.3626 27 25V5.5ZM16 24.5H10.5C10.2348 24.5 9.98043 24.3946 9.79289 24.2071C9.60536 24.0196 9.5 23.7652 9.5 23.5C9.5 23.2348 9.60536 22.9804 9.79289 22.7929C9.98043 22.6054 10.2348 22.5 10.5 22.5H16C16.2652 22.5 16.5196 22.6054 16.7071 22.7929C16.8946 22.9804 17 23.2348 17 23.5C17 23.7652 16.8946 24.0196 16.7071 24.2071C16.5196 24.3946 16.2652 24.5 16 24.5ZM19.5 20C19.5 20.1326 19.4473 20.2598 19.3536 20.3536C19.2598 20.4473 19.1326 20.5 19 20.5H8C7.86739 20.5 7.74021 20.4473 7.64645 20.3536C7.55268 20.2598 7.5 20.1326 7.5 20V7C7.5 6.86739 7.55268 6.74021 7.64645 6.64645C7.74021 6.55268 7.86739 6.5 8 6.5H19C19.1326 6.5 19.2598 6.55268 19.3536 6.64645C19.4473 6.74021 19.5 6.86739 19.5 7V20ZM24.25 20.5C24.25 20.6989 24.171 20.8897 24.0303 21.0303C23.8897 21.171 23.6989 21.25 23.5 21.25C23.3011 21.25 23.1103 21.171 22.9697 21.0303C22.829 20.8897 22.75 20.6989 22.75 20.5V18.5C22.75 18.3011 22.829 18.1103 22.9697 17.9697C23.1103 17.829 23.3011 17.75 23.5 17.75C23.6989 17.75 23.8897 17.829 24.0303 17.9697C24.171 18.1103 24.25 18.3011 24.25 18.5V20.5ZM24.5 15.25H22.5C22.3011 15.25 22.1103 15.171 21.9697 15.0303C21.829 14.8897 21.75 14.6989 21.75 14.5C21.75 14.3011 21.829 14.1103 21.9697 13.9697C22.1103 13.829 22.3011 13.75 22.5 13.75H24.5C24.6989 13.75 24.8897 13.829 25.0303 13.9697C25.171 14.1103 25.25 14.3011 25.25 14.5C25.25 14.6989 25.171 14.8897 25.0303 15.0303C24.8897 15.171 24.6989 15.25 24.5 15.25ZM24.5 12.25H22.5C22.3011 12.25 22.1103 12.171 21.9697 12.0303C21.829 11.8897 21.75 11.6989 21.75 11.5C21.75 11.3011 21.829 11.1103 21.9697 10.9697C22.1103 10.829 22.3011 10.75 22.5 10.75H24.5C24.6989 10.75 24.8897 10.829 25.0303 10.9697C25.171 11.1103 25.25 11.3011 25.25 11.5C25.25 11.6989 25.171 11.8897 25.0303 12.0303C24.8897 12.171 24.6989 12.25 24.5 12.25ZM24.5 9.25H22.5C22.3011 9.25 22.1103 9.17098 21.9697 9.03033C21.829 8.88968 21.75 8.69891 21.75 8.5C21.75 8.30109 21.829 8.11032 21.9697 7.96967C22.1103 7.82902 22.3011 7.75 22.5 7.75H24.5C24.6989 7.75 24.8897 7.82902 25.0303 7.96967C25.171 8.11032 25.25 8.30109 25.25 8.5C25.25 8.69891 25.171 8.88968 25.0303 9.03033C24.8897 9.17098 24.6989 9.25 24.5 9.25Z" fill="white"/>
</svg>
