<svg width="32" height="32" viewBox="0 0 32 32" fill="none" xmlns="http://www.w3.org/2000/svg">
<path d="M11.6176 27.8891C12.7245 28.11 13.8719 27.9991 14.916 27.5704C15.9601 27.1417 16.8543 26.4143 17.4866 25.4794C17.5966 25.3222 17.6615 25.1379 17.6743 24.9465C17.6871 24.7551 17.6473 24.5638 17.5592 24.3934C17.4711 24.223 17.3381 24.08 17.1745 23.9797C17.0109 23.8795 16.823 23.826 16.6312 23.8248C16.4665 23.821 16.3034 23.8581 16.1564 23.9328C16.0095 24.0074 15.8834 24.1173 15.7893 24.2526C15.4746 24.7374 15.049 25.1404 14.5477 25.4281C14.0463 25.7159 13.4837 25.8802 12.9063 25.9074C12.3289 25.9347 11.7533 25.8241 11.2271 25.5848C10.7009 25.3455 10.2393 24.9844 9.88027 24.5313C9.52129 24.0782 9.27532 23.5462 9.16269 22.9793C9.05006 22.4123 9.07402 21.8267 9.23256 21.2708C9.39111 20.7149 9.67971 20.2048 10.0745 19.7825C10.4693 19.3603 10.9589 19.0381 11.5028 18.8425C11.7113 18.7717 11.8925 18.6379 12.0216 18.4596C12.1508 18.2814 12.2214 18.0674 12.2237 17.8473C12.2229 17.6774 12.1811 17.5101 12.1018 17.3597C12.0226 17.2093 11.9082 17.0803 11.7685 16.9836C11.6287 16.8868 11.4677 16.8252 11.299 16.8039C11.1304 16.7827 10.9591 16.8024 10.7997 16.8615C9.61895 17.2852 8.60958 18.0842 7.92616 19.1362C7.24274 20.1882 6.92293 21.4352 7.01572 22.6863C7.10851 23.9374 7.60876 25.1235 8.4399 26.0632C9.27103 27.0029 10.3872 27.6443 11.6176 27.8891Z" fill="#51247A"/>
<path d="M12.7453 6.60799C12.7453 7.29967 13.0201 7.96303 13.5092 8.45212C13.9983 8.94121 14.6616 9.21598 15.3533 9.21598C16.045 9.21598 16.7083 8.94121 17.1974 8.45212C17.6865 7.96303 17.9613 7.29967 17.9613 6.60799C17.9613 5.91631 17.6865 5.25296 17.1974 4.76386C16.7083 4.27477 16.045 4 15.3533 4C14.6616 4 13.9983 4.27477 13.5092 4.76386C13.0201 5.25296 12.7453 5.91631 12.7453 6.60799Z" fill="#51247A"/>
<path d="M13.7885 20.6911C13.7885 21.1061 13.9533 21.5042 14.2468 21.7976C14.5402 22.0911 14.9382 22.2559 15.3532 22.2559H20.0476C20.1361 22.2559 20.2231 22.2784 20.3005 22.3213C20.3779 22.3642 20.4431 22.4261 20.4899 22.5011L22.8893 26.2149C23.0306 26.4389 23.2264 26.6235 23.4585 26.7512C23.6906 26.8789 23.9513 26.9457 24.2162 26.9451C24.4963 26.9455 24.7713 26.8707 25.0126 26.7286C25.2539 26.5865 25.4526 26.3822 25.5881 26.1371C25.7235 25.892 25.7907 25.6151 25.7826 25.3352C25.7745 25.0552 25.6915 24.7826 25.5421 24.5457L23.1428 20.832C22.8149 20.3075 22.3585 19.8756 21.8168 19.5771C21.2751 19.2786 20.6661 19.1234 20.0476 19.1263H17.4396C17.3013 19.1263 17.1686 19.0714 17.0708 18.9736C16.973 18.8757 16.918 18.7431 16.918 18.6047V17.3007C16.918 17.2316 16.9455 17.1652 16.9944 17.1163C17.0433 17.0674 17.1097 17.0399 17.1788 17.0399H20.5692C20.9842 17.0399 21.3823 16.8751 21.6757 16.5816C21.9692 16.2882 22.134 15.8902 22.134 15.4751C22.134 15.0601 21.9692 14.6621 21.6757 14.3687C21.3823 14.0752 20.9842 13.9104 20.5692 13.9104H17.1788C17.1097 13.9104 17.0433 13.8829 16.9944 13.834C16.9455 13.7851 16.918 13.7187 16.918 13.6496V12.3456C16.918 11.9305 16.7532 11.5325 16.4597 11.2391C16.1663 10.9456 15.7683 10.7808 15.3532 10.7808C14.9382 10.7808 14.5402 10.9456 14.2468 11.2391C13.9533 11.5325 13.7885 11.9305 13.7885 12.3456V20.6911Z" fill="#51247A"/>
</svg>
