<svg width="32" height="32" viewBox="0 0 32 32" fill="none" xmlns="http://www.w3.org/2000/svg">
<path fill-rule="evenodd" clip-rule="evenodd" d="M22.6005 29.9733C21.2064 29.9644 19.8538 29.4977 18.7509 28.6449C17.648 27.7922 16.8559 26.6006 16.4965 25.2536L16.4511 25.3082C16.2192 25.5758 15.9364 25.7944 15.6191 25.9513C15.3017 26.1083 14.9563 26.2004 14.603 26.2223L14.1889 26.2233C13.6832 27.3403 12.8663 28.288 11.836 28.9527C10.8056 29.6174 9.60549 29.9711 8.37933 29.9713C8.0998 29.9711 7.82058 29.9528 7.5434 29.9166C5.97911 29.7102 4.54687 28.9312 3.52348 27.7302C2.50009 26.5293 1.95819 24.9916 2.00252 23.4143C2.04685 21.8371 2.67424 20.3323 3.76347 19.1907C4.8527 18.0491 6.32642 17.3518 7.89984 17.2335C8.05902 17.2213 8.21918 17.2154 8.37884 17.2154C8.4179 17.2154 8.45647 17.2155 8.49505 17.2165C8.41033 17.1505 8.32978 17.0794 8.25384 17.0036C7.78544 16.5352 7.52217 15.9001 7.5219 15.2377C7.52162 14.5754 7.78436 13.94 8.25237 13.4713C8.37848 13.345 8.51758 13.2324 8.66737 13.1354C7.97425 12.6957 7.38843 12.1064 6.95293 11.4107C6.51743 10.7149 6.24332 9.93049 6.15073 9.11493C6.05815 8.29938 6.14944 7.47344 6.41789 6.69779C6.68635 5.92214 7.12516 5.21648 7.70209 4.63265C8.27902 4.04882 8.9794 3.60165 9.75181 3.32398C10.5242 3.04631 11.349 2.94521 12.1656 3.02809C12.9822 3.11096 13.7699 3.37572 14.4707 3.80292C15.1716 4.23011 15.7678 4.80888 16.2157 5.49672H21.3641C21.649 5.49698 21.9306 5.55773 22.1903 5.67494C22.4478 5.79103 22.6776 5.96082 22.8641 6.17294L23.8104 7.24081C24.1481 7.62139 24.328 8.11637 24.3135 8.62494C24.299 9.13351 24.0911 9.61742 23.7323 9.97812L22.8788 10.8316C23.3323 11.2157 23.634 11.7488 23.73 12.3353C23.8259 12.9218 23.7097 13.5233 23.4022 14.0318C23.2329 14.3111 23.0107 14.5546 22.7479 14.7486C22.6638 14.811 22.5757 14.8679 22.4843 14.919L23.2821 17.2662C24.9069 17.4313 26.4062 18.2141 27.4703 19.4529C28.5344 20.6918 29.0821 22.2921 29.0001 23.9231C28.9181 25.5542 28.2128 27.0915 27.0298 28.2174C25.8468 29.3433 24.2766 29.9719 22.6434 29.9732L22.6005 29.9733ZM14.4555 13.1925C14.5722 13.2751 14.6816 13.3674 14.7827 13.4684C15.2339 13.9169 15.4959 14.5214 15.5146 15.1574L17.0927 14.5768L17.0907 14.5715C16.9555 14.1808 16.9023 13.7663 16.9345 13.3542C16.9668 12.942 17.0838 12.5409 17.2782 12.176C17.4112 11.9272 17.5785 11.6984 17.7753 11.4963L16.2094 11.4943C15.8089 12.1094 15.289 12.6377 14.6806 13.048C14.6064 13.0983 14.5312 13.1461 14.4555 13.1925H14.4555Z" fill="white"/>
<path fill-rule="evenodd" clip-rule="evenodd" d="M13.8406 11.8053C13.156 12.2654 12.3458 12.5022 11.5212 12.4831C10.6966 12.464 9.89824 12.1899 9.23579 11.6985C8.57334 11.2071 8.07938 10.5226 7.82181 9.73905C7.56425 8.95551 7.55573 8.11141 7.79744 7.32283C8.03914 6.53425 8.5192 5.8399 9.1716 5.33527C9.824 4.83064 10.6167 4.54049 11.4407 4.50473C12.2647 4.46897 13.0796 4.68935 13.7733 5.13557C14.4669 5.58179 15.0053 6.23194 15.3145 6.99662H21.3643C21.4348 6.9966 21.5046 7.01154 21.569 7.04046C21.6334 7.06939 21.691 7.11163 21.7379 7.16442L22.6887 8.23614C22.7731 8.33126 22.8181 8.45503 22.8144 8.58217C22.8107 8.70932 22.7586 8.83026 22.6688 8.92032L21.7349 9.85421C21.6884 9.90055 21.6332 9.93729 21.5726 9.96231C21.5119 9.98733 21.4469 10.0002 21.3813 10L15.3075 9.99304C15.0095 10.7295 14.4988 11.3605 13.8406 11.8053ZM11.2874 7.02532C10.935 7.09532 10.6195 7.28961 10.3984 7.57278C10.1774 7.85594 10.0654 8.20912 10.0829 8.56794C10.1005 8.92676 10.2464 9.26732 10.494 9.52756C10.7417 9.78779 11.0746 9.95037 11.4321 9.98565C11.7897 10.0209 12.1479 9.92658 12.4417 9.71978C12.7355 9.51298 12.9451 9.20751 13.0325 8.85904C13.1198 8.51058 13.0791 8.14232 12.9176 7.8214C12.7561 7.50049 12.4847 7.24827 12.1529 7.11074C11.8791 6.99735 11.5779 6.96764 11.2874 7.02536V7.02532ZM26.0721 20.1607C26.799 20.88 27.2811 21.81 27.4497 22.8186C27.6184 23.8273 27.4652 24.8635 27.0118 25.7802C26.5584 26.6969 25.8279 27.4475 24.9239 27.9256C24.0198 28.4038 22.9882 28.5851 21.9753 28.4438C20.9624 28.3026 20.0197 27.846 19.281 27.1389C18.5422 26.4317 18.0448 25.5098 17.8595 24.5041C17.6742 23.4984 17.8102 22.4598 18.2484 21.5357C18.6865 20.6117 19.4045 19.849 20.3006 19.356L20.0489 18.6179C20.0342 18.5749 20.008 18.5366 19.9732 18.5074C19.9384 18.4781 19.8963 18.4589 19.8514 18.4518C19.8065 18.4447 19.7605 18.45 19.7183 18.4671C19.6762 18.4843 19.6396 18.5126 19.6124 18.549L15.3175 24.3261C15.2157 24.4429 15.0918 24.5383 14.953 24.6069C14.8141 24.6755 14.663 24.7158 14.5085 24.7256H13.1231C12.8429 25.8995 12.1376 26.9279 11.1434 27.6121C10.1492 28.2962 8.93663 28.5875 7.74013 28.4297C6.54363 28.2719 5.44808 27.6762 4.66521 26.7578C3.88234 25.8393 3.46772 24.6632 3.50148 23.4568C3.53524 22.2504 4.01498 21.0993 4.84799 20.2261C5.681 19.3528 6.80815 18.8193 8.0116 18.7287C9.21506 18.638 10.4094 18.9967 11.3638 19.7354C12.3182 20.4741 12.9649 21.5403 13.179 22.728H14.016L16.8876 18.8666C16.9198 18.8235 16.9371 18.7711 16.9371 18.7172C16.9371 18.6634 16.9197 18.611 16.8875 18.5678C16.8552 18.5247 16.8099 18.4931 16.7583 18.4778C16.7067 18.4626 16.6515 18.4644 16.601 18.483C15.4273 18.9813 14.2222 19.4017 12.9933 19.7415C12.806 19.7419 12.6225 19.6897 12.4635 19.5908C12.3046 19.4919 12.1766 19.3503 12.0943 19.1822L10.6471 16.2357H10.0208C9.75585 16.2357 9.5018 16.1305 9.31449 15.9432C9.12718 15.7559 9.02195 15.5018 9.02195 15.2369C9.02195 14.972 9.12718 14.718 9.31449 14.5307C9.5018 14.3433 9.75585 14.2381 10.0208 14.2381H13.0172C13.2821 14.2381 13.5361 14.3433 13.7234 14.5307C13.9107 14.718 14.016 14.972 14.016 15.2369C14.016 15.5018 13.9107 15.7559 13.7234 15.9432C13.5361 16.1305 13.2821 16.2357 13.0172 16.2357H12.8724L13.3948 17.2975C13.4222 17.3527 13.4691 17.3959 13.5264 17.4187C13.5837 17.4416 13.6474 17.4425 13.7054 17.4213L18.7554 15.5625C18.8164 15.54 18.8663 15.4945 18.8943 15.4357C18.9222 15.3769 18.9262 15.3095 18.9052 15.2479L18.5107 14.0883C18.4411 13.8916 18.4134 13.6826 18.4293 13.4746C18.4452 13.2666 18.5043 13.0642 18.6029 12.8804C18.7016 12.6966 18.8375 12.5354 19.002 12.4071C19.1665 12.2789 19.356 12.1864 19.5584 12.1356L21.0147 11.771C21.1422 11.7381 21.275 11.7308 21.4055 11.7494C21.5359 11.7681 21.6613 11.8124 21.7746 11.8797C21.8878 11.947 21.9866 12.0361 22.0653 12.1418C22.1439 12.2475 22.2009 12.3677 22.2329 12.4955C22.2649 12.6233 22.2714 12.7561 22.2518 12.8864C22.2323 13.0167 22.1871 13.1419 22.119 13.2546C22.0509 13.3674 21.9611 13.4656 21.8549 13.5435C21.7487 13.6214 21.6281 13.6776 21.5001 13.7087L20.5682 13.9415L22.2113 18.7747C22.2642 18.7702 22.3163 18.7631 22.3684 18.7561C22.4552 18.7424 22.5429 18.7346 22.6308 18.7328C23.9217 18.7343 25.1593 19.2478 26.0721 20.1607ZM6.89236 26.0557C7.24545 26.2705 7.6406 26.407 8.05103 26.4557C8.46145 26.5045 8.87756 26.4644 9.27115 26.3383C9.66474 26.2121 10.0266 26.0028 10.3322 25.7246C10.6379 25.4464 10.8801 25.1057 11.0426 24.7256H8.6454C8.51424 24.7256 8.38436 24.6998 8.26318 24.6496C8.142 24.5994 8.03189 24.5258 7.93914 24.4331C7.8464 24.3403 7.77283 24.2302 7.72263 24.109C7.67244 23.9879 7.6466 23.858 7.6466 23.7268C7.6466 23.5957 7.67244 23.4658 7.72263 23.3446C7.77283 23.2234 7.8464 23.1133 7.93914 23.0206C8.03189 22.9278 8.142 22.8542 8.26318 22.804C8.38436 22.7539 8.51424 22.728 8.6454 22.728H11.1195C10.9783 22.2863 10.7323 21.8853 10.4024 21.5594C10.0726 21.2335 9.66871 20.9923 9.22534 20.8564C8.78196 20.7206 8.31229 20.6941 7.85646 20.7793C7.40064 20.8645 6.97223 21.0589 6.60787 21.3457C6.24351 21.6325 5.95403 22.0033 5.76419 22.4264C5.57435 22.8495 5.48979 23.3123 5.51775 23.7751C5.54571 24.238 5.68535 24.6872 5.92474 25.0844C6.16412 25.4815 6.49612 25.8148 6.89236 26.0557ZM20.9396 25.9273C21.2964 26.1885 21.7089 26.3636 22.1446 26.4389C22.5804 26.5142 23.0277 26.4877 23.4515 26.3614C23.8753 26.2352 24.2642 26.0126 24.5877 25.7111C24.9113 25.4096 25.1607 25.0374 25.3165 24.6235C25.4722 24.2096 25.5302 23.7653 25.4857 23.3253C25.4413 22.8853 25.2957 22.4616 25.0603 22.0872C24.8249 21.7128 24.5061 21.398 24.1288 21.1673C23.7515 20.9366 23.326 20.7963 22.8855 20.7573L23.7005 23.1545C23.7745 23.4021 23.7497 23.6688 23.6313 23.8985C23.5129 24.1282 23.31 24.303 23.0654 24.3863C22.8208 24.4696 22.5534 24.4548 22.3194 24.345C22.0854 24.2353 21.9031 24.0391 21.8108 23.7977L20.9548 21.2797C20.5857 21.5439 20.2847 21.892 20.0766 22.2954C19.8684 22.6987 19.7591 23.1458 19.7576 23.5996C19.7562 24.0535 19.8625 24.5012 20.068 24.9059C20.2735 25.3106 20.5722 25.6607 20.9396 25.9273Z" fill="#4085C6"/>
</svg>
