<svg width="32" height="32" viewBox="0 0 32 32" fill="none" xmlns="http://www.w3.org/2000/svg">
<path d="M23.555 12.0005H9.33329C8.97968 12.0005 8.64055 12.141 8.39051 12.391C8.14047 12.641 8 12.9802 8 13.3338V26.6666C8 27.0202 8.14047 27.3594 8.39051 27.6094C8.64055 27.8594 8.97968 27.9999 9.33329 27.9999H23.555C23.9086 27.9999 24.2477 27.8594 24.4978 27.6094C24.7478 27.3594 24.8883 27.0202 24.8883 26.6666V13.3338C24.8883 12.9802 24.7478 12.641 24.4978 12.391C24.2477 12.141 23.9086 12.0005 23.555 12.0005ZM20.444 13.3338C20.8395 13.3338 21.2262 13.4511 21.5551 13.6708C21.884 13.8906 22.1403 14.2029 22.2917 14.5684C22.4431 14.9338 22.4827 15.3359 22.4055 15.7239C22.3283 16.1118 22.1379 16.4682 21.8582 16.7479C21.5785 17.0276 21.2221 17.218 20.8342 17.2952C20.4462 17.3724 20.0441 17.3328 19.6787 17.1814C19.3132 17.03 19.0009 16.7737 18.7811 16.4448C18.5614 16.1159 18.4441 15.7292 18.4441 15.3337C18.4448 14.8035 18.6557 14.2952 19.0306 13.9203C19.4055 13.5454 19.9138 13.3345 20.444 13.3338ZM12.4443 13.3338C12.8398 13.3338 13.2265 13.4511 13.5554 13.6708C13.8843 13.8906 14.1406 14.2029 14.292 14.5684C14.4433 14.9338 14.483 15.3359 14.4058 15.7239C14.3286 16.1118 14.1381 16.4682 13.8584 16.7479C13.5788 17.0276 13.2224 17.218 12.8345 17.2952C12.4465 17.3724 12.0444 17.3328 11.6789 17.1814C11.3135 17.03 11.0012 16.7737 10.7814 16.4448C10.5616 16.1159 10.4444 15.7292 10.4444 15.3337C10.4451 14.8035 10.656 14.2952 11.0309 13.9203C11.4058 13.5454 11.9141 13.3345 12.4443 13.3338ZM15.1109 22.2223C15.1109 22.3402 15.064 22.4533 14.9807 22.5366C14.8973 22.6199 14.7843 22.6668 14.6664 22.6668H14.3402C14.2313 22.6659 14.1259 22.7051 14.0439 22.7769C13.962 22.8487 13.9093 22.948 13.8958 23.0561L13.5482 25.8338C13.5345 25.9417 13.4817 26.0408 13.3998 26.1124C13.3179 26.184 13.2126 26.2231 13.1038 26.2222H11.7776C11.6689 26.2231 11.5635 26.184 11.4816 26.1124C11.3997 26.0408 11.3469 25.9417 11.3332 25.8338L10.9857 23.0561C10.9722 22.948 10.9194 22.8487 10.8375 22.7769C10.7556 22.7051 10.6502 22.6659 10.5412 22.6668H10.2221C10.1043 22.6668 9.99123 22.6199 9.90788 22.5366C9.82454 22.4533 9.77771 22.3402 9.77771 22.2223V20.8891C9.77771 20.1818 10.0587 19.5036 10.5587 19.0035C11.0588 18.5034 11.7371 18.2225 12.4443 18.2225C13.1515 18.2225 13.8298 18.5034 14.3298 19.0035C14.8299 19.5036 15.1109 20.1818 15.1109 20.8891V22.2223ZM23.1106 22.2223C23.1106 22.3402 23.0637 22.4533 22.9804 22.5366C22.897 22.6199 22.784 22.6668 22.6661 22.6668H22.3399C22.231 22.6659 22.1256 22.7051 22.0436 22.7769C21.9617 22.8487 21.909 22.948 21.8955 23.0561L21.548 25.8338C21.5343 25.9417 21.4814 26.0408 21.3995 26.1124C21.3176 26.184 21.2123 26.2231 21.1035 26.2222H19.7702C19.6615 26.2231 19.5561 26.184 19.4742 26.1124C19.3923 26.0408 19.3395 25.9417 19.3258 25.8338L18.9783 23.0561C18.9648 22.948 18.912 22.8487 18.8301 22.7769C18.7482 22.7051 18.6428 22.6659 18.5338 22.6668H18.2219C18.104 22.6668 17.9909 22.6199 17.9076 22.5366C17.8242 22.4533 17.7774 22.3402 17.7774 22.2223V20.8891C17.7774 20.1818 18.0584 19.5036 18.5584 19.0035C19.0585 18.5034 19.7368 18.2225 20.444 18.2225C21.1512 18.2225 21.8295 18.5034 22.3295 19.0035C22.8296 19.5036 23.1106 20.1818 23.1106 20.8891V22.2223Z" fill="#2EA836"/>
<path d="M20.5746 10.7589C20.6158 10.8003 20.6649 10.8331 20.7189 10.8555C20.7729 10.8779 20.8308 10.8894 20.8892 10.8894C20.9477 10.8894 21.0056 10.8779 21.0595 10.8555C21.1135 10.8331 21.1626 10.8003 21.2039 10.7589L23.8704 8.0923C23.9328 8.03014 23.9752 7.95088 23.9924 7.86456C24.0096 7.77825 24.0008 7.68876 23.9671 7.60746C23.9334 7.52615 23.8763 7.45668 23.8031 7.40786C23.7299 7.35903 23.6438 7.33306 23.5558 7.33321H22.4447C22.3268 7.33321 22.2138 7.28639 22.1305 7.20304C22.0471 7.1197 22.0003 7.00665 22.0003 6.88878V5.11107C22.0003 4.8164 21.8832 4.53379 21.6749 4.32543C21.4665 4.11706 21.1839 4 20.8892 4C20.5945 4 20.3119 4.11706 20.1036 4.32543C19.8952 4.53379 19.7781 4.8164 19.7781 5.11107V6.88878C19.7781 7.00665 19.7313 7.1197 19.648 7.20304C19.5646 7.28639 19.4516 7.33321 19.3337 7.33321H18.2226C18.1346 7.33306 18.0485 7.35903 17.9753 7.40786C17.9021 7.45668 17.845 7.52615 17.8113 7.60746C17.7776 7.68876 17.7688 7.77825 17.786 7.86456C17.8032 7.95088 17.8457 8.03014 17.908 8.0923L20.5746 10.7589Z" fill="#2EA836"/>
<path d="M9.33408 7.55622H10.4451C10.563 7.55622 10.6761 7.60304 10.7594 7.68639C10.8428 7.76974 10.8896 7.88278 10.8896 8.00065V9.77836C10.8896 10.073 11.0066 10.3556 11.215 10.564C11.4234 10.7724 11.706 10.8894 12.0006 10.8894C12.2953 10.8894 12.5779 10.7724 12.7863 10.564C12.9947 10.3556 13.1117 10.073 13.1117 9.77836V8.00065C13.1117 7.88278 13.1585 7.76974 13.2419 7.68639C13.3252 7.60304 13.4383 7.55622 13.5561 7.55622H14.6672C14.7552 7.55638 14.8413 7.5304 14.9145 7.48158C14.9878 7.43275 15.0449 7.36328 15.0786 7.28198C15.1123 7.20067 15.1211 7.11119 15.1039 7.02487C15.0866 6.93856 15.0442 6.85929 14.9819 6.79714L12.3153 4.13057C12.274 4.08918 12.225 4.05634 12.171 4.03394C12.117 4.01153 12.0591 4 12.0006 4C11.9422 4 11.8843 4.01153 11.8303 4.03394C11.7763 4.05634 11.7273 4.08918 11.686 4.13057L9.01942 6.79714C8.95711 6.85929 8.91465 6.93856 8.89744 7.02487C8.88022 7.11119 8.88903 7.20067 8.92273 7.28198C8.95643 7.36328 9.01352 7.43275 9.08675 7.48158C9.15998 7.5304 9.24606 7.55638 9.33408 7.55622Z" fill="#2EA836"/>
</svg>
