<svg width="32" height="32" viewBox="0 0 32 32" fill="none" xmlns="http://www.w3.org/2000/svg">
<path d="M26.0439 13.0137C25.5386 12.1692 24.7908 11.4964 23.8978 11.0828C24.1264 10.7014 24.2481 10.2655 24.25 9.82081V6.49999C24.2508 6.17151 24.1864 5.84614 24.0607 5.54267C23.935 5.23919 23.7504 4.96364 23.5176 4.73192C23.0478 4.26468 22.4126 4.00166 21.75 3.99999H15.6855C15.6524 3.87212 15.6071 3.74769 15.5503 3.62841C15.4181 3.35879 15.2283 3.12157 14.9941 2.93358C14.7608 2.74855 14.4891 2.61788 14.1989 2.55107C13.9087 2.48426 13.6072 2.48299 13.3165 2.54735L4.31304 4.54835C3.86945 4.64751 3.47289 4.89487 3.18875 5.24966C2.90462 5.60444 2.74986 6.04545 2.75 6.49999V25.5C2.75016 25.955 2.90544 26.3964 3.19022 26.7513C3.475 27.1062 3.87226 27.3534 4.31645 27.4521L13.3472 29.459C13.7847 29.5479 14.2393 29.4881 14.639 29.2893C15.0388 29.0905 15.3607 28.7639 15.5537 28.3613C15.6099 28.2446 15.6545 28.1226 15.687 27.9971H21.75C22.413 27.9969 23.0488 27.7335 23.5176 27.2647C23.9864 26.7959 24.2498 26.1601 24.25 25.4971V22.3379C24.2491 22.0111 24.1842 21.6876 24.059 21.3857H25.1455C26.1902 21.3855 27.1979 20.9991 27.9749 20.3009C28.7519 19.6027 29.2433 18.6419 29.3548 17.6032C29.4663 16.5645 29.1899 15.5213 28.5787 14.6741C27.9675 13.8269 27.0648 13.2355 26.044 13.0137H26.0439Z" fill="white"/>
<path d="M21.7498 21.347C21.4846 21.347 21.2302 21.4524 21.0427 21.6399C20.8551 21.8274 20.7498 22.0818 20.7498 22.347V23.9998C20.7498 24.0655 20.7369 24.1305 20.7118 24.1912C20.6867 24.2518 20.6498 24.307 20.6034 24.3534C20.557 24.3998 20.5018 24.4367 20.4412 24.4618C20.3805 24.4869 20.3155 24.4998 20.2498 24.4998H14.7498C14.6841 24.4998 14.6191 24.4869 14.5584 24.4618C14.4978 24.4367 14.4426 24.3998 14.3962 24.3534C14.3498 24.307 14.3129 24.2518 14.2878 24.1912C14.2627 24.1305 14.2498 24.0655 14.2498 23.9998V7.9998C14.2498 7.93414 14.2627 7.86912 14.2878 7.80845C14.313 7.74778 14.3498 7.69266 14.3962 7.64623C14.4426 7.5998 14.4978 7.56297 14.5584 7.53784C14.6191 7.51272 14.6841 7.49979 14.7498 7.4998H20.2498C20.3155 7.49979 20.3805 7.51272 20.4411 7.53784C20.5018 7.56297 20.5569 7.5998 20.6034 7.64623C20.6498 7.69266 20.6866 7.74778 20.7118 7.80845C20.7369 7.86912 20.7498 7.93414 20.7498 7.9998V9.82072C20.7498 10.0859 20.8551 10.3403 21.0427 10.5278C21.2302 10.7154 21.4846 10.8207 21.7498 10.8207C22.015 10.8207 22.2694 10.7154 22.4569 10.5278C22.6444 10.3403 22.7498 10.0859 22.7498 9.82072V6.4998C22.7498 6.23459 22.6444 5.98023 22.4569 5.7927C22.2694 5.60516 22.015 5.4998 21.7498 5.4998H14.2498V4.4998C14.2498 4.42499 14.2329 4.35113 14.2006 4.28368C14.1682 4.21623 14.1211 4.1569 14.0628 4.11007C14.0044 4.06324 13.9363 4.0301 13.8634 4.01309C13.7906 3.99608 13.7148 3.99564 13.6418 4.0118L4.64179 6.0118C4.53067 6.03639 4.43125 6.09814 4.35998 6.18687C4.28871 6.2756 4.24983 6.38599 4.24979 6.4998V25.4998C4.24985 25.6136 4.28872 25.724 4.36 25.8127C4.43127 25.9014 4.53067 25.9632 4.64179 25.9878L13.6418 27.9878C13.715 28.003 13.7907 28.0019 13.8634 27.9846C13.9362 27.9673 14.0042 27.9343 14.0628 27.8878C14.1213 27.8408 14.1685 27.7813 14.2009 27.7136C14.2333 27.6459 14.25 27.5718 14.2498 27.4968V26.4968H21.7498C22.015 26.4968 22.2694 26.3914 22.4569 26.2039C22.6444 26.0164 22.7498 25.762 22.7498 25.4968V22.344C22.749 22.0793 22.6433 21.8257 22.4558 21.6388C22.2684 21.4519 22.0145 21.347 21.7498 21.347ZM11.7498 16.4999C11.7498 16.8468 11.6294 17.1831 11.4093 17.4513C11.1891 17.7195 10.8828 17.9031 10.5424 17.9708C10.2021 18.0384 9.84884 17.986 9.54283 17.8224C9.23681 17.6588 8.99699 17.3942 8.86421 17.0736C8.73144 16.753 8.71393 16.3963 8.81467 16.0643C8.91541 15.7322 9.12816 15.4454 9.41668 15.2526C9.7052 15.0598 10.0516 14.9731 10.397 15.0071C10.7423 15.0411 11.0651 15.1938 11.3105 15.4392C11.5918 15.7205 11.7498 16.102 11.7498 16.4999Z" fill="#2EA836"/>
<path d="M25.0486 14.4185C24.8189 13.7466 24.3849 13.1633 23.8072 12.7503C23.2295 12.3373 22.5372 12.1152 21.8271 12.1152C21.117 12.1152 20.4246 12.3373 19.8469 12.7503C19.2693 13.1633 18.8352 13.7466 18.6055 14.4185C17.8807 14.3931 17.1755 14.6566 16.645 15.1511C16.1145 15.6457 15.8021 16.3307 15.7767 17.0555C15.7513 17.7803 16.0148 18.4855 16.5093 19.016C17.0039 19.5465 17.6889 19.8589 18.4137 19.8843C18.4508 19.8856 18.488 19.8861 18.5252 19.8859H25.1289C25.8542 19.8901 26.5514 19.6059 27.0671 19.0961C27.5829 18.5862 27.8749 17.8923 27.8791 17.167C27.8832 16.4418 27.5991 15.7446 27.0892 15.2288C26.5793 14.7131 25.8854 14.421 25.1601 14.4169C25.123 14.4167 25.0858 14.4172 25.0486 14.4185Z" fill="#9AD0FC"/>
</svg>
