<svg width="32" height="32" viewBox="0 0 32 32" fill="none" xmlns="http://www.w3.org/2000/svg">
<path fill-rule="evenodd" clip-rule="evenodd" d="M23.483 30C23.3396 29.9996 23.1963 29.9895 23.0543 29.9697C22.2589 29.8558 21.5411 29.4313 21.0582 28.789L18.9771 26.0205C18.8066 25.7927 18.6497 25.555 18.5074 25.3086V26.1738C18.5053 26.9764 18.187 27.7458 17.6217 28.3154C17.3402 28.5971 17.0061 28.8205 16.6383 28.973C16.2705 29.1255 15.8762 29.204 15.4781 29.2041C15.0799 29.2042 14.6856 29.1258 14.3178 28.9735C13.9499 28.8212 13.6156 28.5979 13.3341 28.3164C12.7679 27.7468 12.4489 26.977 12.4464 26.1738V24.1045C12.443 22.8857 12.7543 21.6866 13.3501 20.6234C13.9459 19.5601 14.806 18.6686 15.8472 18.0351C15.8155 18.0322 15.7842 18.0302 15.7525 18.0273C14.6848 17.9287 13.6532 17.5904 12.7344 17.0376L12.3834 16.8266C12.4005 16.8603 12.4171 16.894 12.4332 16.9282C12.6981 17.5039 12.7364 18.1584 12.5405 18.7611C12.3446 19.3638 11.9289 19.8707 11.3761 20.1806L11.4014 20.291C11.5058 20.7257 11.5185 21.1773 11.4388 21.6172C11.359 22.0571 11.1885 22.4755 10.9382 22.8459C10.6879 23.2163 10.3632 23.5305 9.98478 23.7686C9.60638 24.0066 9.18256 24.1632 8.74031 24.2285C8.08231 24.3255 7.41042 24.2164 6.81692 23.9162C6.22343 23.616 5.73743 23.1394 5.42569 22.5519C5.11395 21.9643 4.99176 21.2947 5.0759 20.6349C5.16003 19.9752 5.44637 19.3576 5.89559 18.8672L5.86385 18.7344C5.73706 18.2001 5.75781 17.6415 5.92389 17.1181C6.08997 16.5947 6.39512 16.1263 6.80675 15.7629C7.21838 15.3996 7.721 15.1548 8.26092 15.0549C8.80084 14.955 9.35775 15.0037 9.87215 15.1958L10.901 15.5747C10.5313 15.0017 10.3657 14.3208 10.4309 13.6421C10.496 12.9634 10.7882 12.3265 11.26 11.8343C11.7319 11.3421 12.3559 11.0234 13.0313 10.9297C13.7067 10.836 14.3939 10.9727 14.982 11.3178L15.8516 11.8403C15.9868 11.9225 16.1389 11.9729 16.2964 11.9878L16.3526 11.9883C16.4904 11.9939 16.628 11.9728 16.7578 11.9263L17.0845 11.8032C17.2007 11.7593 17.3177 11.7181 17.4356 11.6797C17.354 11.6103 17.2754 11.5381 17.1997 11.4619C16.4404 10.7021 16.0139 9.67179 16.0142 8.59759C16.0145 7.52339 16.4414 6.49329 17.2012 5.73389C17.9621 4.97646 18.9913 4.5502 20.065 4.54789C20.8661 4.54788 21.6493 4.78545 22.3154 5.23055C22.9816 5.67564 23.5008 6.30828 23.8074 7.04846C24.114 7.78864 24.1942 8.6031 24.0379 9.38887C23.8815 10.1746 23.4957 10.8964 22.9292 11.4629C22.8531 11.5391 22.7749 11.6118 22.6939 11.6812C22.8091 11.7188 22.9243 11.7593 23.0386 11.8023C23.2086 11.8662 23.3924 11.8847 23.5718 11.856C23.7522 11.8272 23.9221 11.7521 24.065 11.6382L24.8032 11.0469C25.319 10.6362 25.9541 10.4038 26.6131 10.3846C27.2722 10.3654 27.9197 10.5604 28.4585 10.9404C28.8415 11.2116 29.1562 11.568 29.3779 11.9816C29.5996 12.3952 29.7223 12.8546 29.7362 13.3236C29.7501 13.7926 29.6549 14.2585 29.4581 14.6845C29.2613 15.1104 28.9683 15.4849 28.6021 15.7783L27.8599 16.3716C26.6237 17.3533 25.0966 17.8969 23.5181 17.917L23.5982 18.7236L23.6118 18.9482L23.6138 21.751C23.6146 21.9788 23.6886 22.2002 23.8247 22.3828L25.9058 25.1494C26.1452 25.468 26.3193 25.8307 26.4183 26.2167C26.5172 26.6027 26.539 27.0045 26.4824 27.3989C26.4258 27.7934 26.2919 28.1728 26.0884 28.5154C25.8849 28.858 25.6157 29.1571 25.2964 29.3955C24.9796 29.6343 24.6184 29.8076 24.2339 29.9053C23.9885 29.9681 23.7363 29.9999 23.483 30ZM6.97664 14.6474C6.82848 14.6467 6.68047 14.6379 6.53328 14.6211C5.5773 14.514 4.69257 14.064 4.04307 13.3544C3.39357 12.6448 3.02336 11.7238 3.00107 10.7621C2.97877 9.80042 3.30591 8.86326 3.92182 8.12434C4.53774 7.38543 5.40067 6.89488 6.35066 6.74362L6.46736 5.69479C6.52807 5.14933 6.7358 4.6306 7.06836 4.194C7.40092 3.7574 7.84582 3.41933 8.35555 3.21588C8.86528 3.01243 9.42069 2.95124 9.96248 3.03886C10.5043 3.12648 11.0121 3.35961 11.4317 3.71335L13.4132 5.37935C13.7945 5.70036 14.0721 6.12719 14.211 6.60592C14.3499 7.08465 14.3437 7.59379 14.1933 8.06903C14.043 8.54427 13.7551 8.96427 13.3661 9.27597C12.9771 9.58767 12.5045 9.77708 12.0079 9.82027L11.7906 9.82955C11.5531 9.82971 11.3167 9.79634 11.0885 9.73043L10.918 11.2588L10.8663 11.4633C10.6875 12.3612 10.2028 13.1693 9.49501 13.7499C8.78718 14.3305 7.89993 14.6477 6.98445 14.6474L6.97664 14.6474Z" fill="white"/>
<path fill-rule="evenodd" clip-rule="evenodd" d="M6.98451 13.1474C6.89109 13.1471 6.79775 13.1416 6.70492 13.1311C6.05217 13.0585 5.45503 12.7295 5.04485 12.2166C4.63467 11.7036 4.44505 11.0487 4.51771 10.396C4.59038 9.74325 4.91936 9.1461 5.43231 8.73592C5.94525 8.32574 6.60012 8.13612 7.25287 8.20879C7.30661 8.21492 7.35967 8.22308 7.41205 8.23328C7.44729 8.24096 7.48377 8.24092 7.519 8.23317C7.55422 8.22543 7.58735 8.21015 7.61612 8.18839C7.6443 8.16751 7.66789 8.14107 7.68544 8.11071C7.70298 8.08034 7.71411 8.0467 7.71812 8.01186L7.95791 5.86086C7.98864 5.58543 8.09357 5.32351 8.26152 5.10305C8.42946 4.8826 8.65411 4.71188 8.91149 4.60912C9.16888 4.50635 9.44933 4.4754 9.72293 4.51956C9.99652 4.56372 10.253 4.68133 10.465 4.85986L12.4476 6.52716C12.6547 6.70171 12.7841 6.95141 12.8071 7.22132C12.8302 7.49123 12.7451 7.75925 12.5705 7.96641C12.396 8.17357 12.1463 8.3029 11.8764 8.32596C11.6065 8.34902 11.3384 8.26391 11.1313 8.08936L10.2436 7.34244C10.2082 7.31311 10.1657 7.29386 10.1203 7.2867C10.075 7.27955 10.0286 7.28476 9.98594 7.30179C9.94331 7.31882 9.90607 7.34703 9.87814 7.38346C9.85021 7.41988 9.83262 7.46317 9.82724 7.50876L9.43751 11.0005C9.42969 11.033 9.42015 11.065 9.40894 11.0964C9.31284 11.6699 9.01649 12.1907 8.57258 12.5662C8.12867 12.9418 7.56596 13.1477 6.98451 13.1474ZM11.0703 17.5552C11.1548 17.7385 11.183 17.9428 11.1514 18.1421C11.1199 18.3414 11.0299 18.5269 10.8929 18.6751C10.756 18.8233 10.5781 18.9276 10.3819 18.9748C10.1857 19.022 9.97988 19.0099 9.79051 18.9401C9.76527 18.9308 9.73797 18.9284 9.7115 18.9334C9.68503 18.9383 9.66039 18.9503 9.6402 18.968C9.62 18.9858 9.605 19.0088 9.59679 19.0344C9.58858 19.0601 9.58747 19.0874 9.59358 19.1136C9.64609 19.3349 9.74706 19.7807 9.82742 20.1355C9.88603 20.3942 9.93367 20.6046 9.94357 20.6442C10.0174 20.9547 10.0035 21.2796 9.9033 21.5826C9.8031 21.8856 9.62058 22.1548 9.37617 22.36C9.13175 22.5652 8.83506 22.6984 8.51929 22.7447C8.20352 22.7909 7.8811 22.7484 7.5881 22.6219C7.29509 22.4954 7.04305 22.2899 6.86015 22.0284C6.67725 21.7669 6.57071 21.4596 6.55244 21.141C6.53417 20.8224 6.60489 20.5049 6.75669 20.2242C6.90849 19.9435 7.13538 19.7105 7.41201 19.5513C7.45984 19.524 7.49753 19.4818 7.51942 19.4313C7.5413 19.3807 7.54622 19.3244 7.53343 19.2707L7.32323 18.3881C7.25924 18.1184 7.26971 17.8364 7.35352 17.5721C7.43733 17.3079 7.59133 17.0713 7.79908 16.8878C8.00683 16.7042 8.26054 16.5806 8.5331 16.5299C8.80566 16.4793 9.08685 16.5037 9.34665 16.6004L10.4976 17.0249C10.7513 17.1188 10.9572 17.3096 11.0703 17.5552H11.0703ZM17.5138 8.59861C17.5139 9.18875 17.7185 9.76064 18.0929 10.2168C18.4673 10.673 18.9883 10.9852 19.5671 11.1003C20.1459 11.2155 20.7467 11.1263 21.2672 10.8481C21.7877 10.5699 22.1955 10.1198 22.4214 9.5746C22.6472 9.02937 22.677 8.4227 22.5057 7.85797C22.3343 7.29324 21.9725 6.80538 21.4818 6.47752C20.9911 6.14967 20.4019 6.00209 19.8146 6.05995C19.2273 6.1178 18.6782 6.3775 18.2609 6.79481C17.7826 7.27323 17.5138 7.92206 17.5138 8.59861H17.5138ZM25.7411 12.2177C26.0126 12.0009 26.3498 11.8829 26.6972 11.8831H26.7074C27.0245 11.8832 27.3337 11.9818 27.5924 12.1652C27.851 12.3486 28.0463 12.6078 28.1513 12.907C28.2563 13.2062 28.2657 13.5306 28.1783 13.8354C28.091 14.1403 27.9111 14.4104 27.6635 14.6085L26.9237 15.2003C26.3073 15.6888 25.5954 16.0427 24.8339 16.2391C24.0724 16.4356 23.2782 16.4704 22.5024 16.3411C22.4747 16.3371 22.4467 16.335 22.4187 16.335C22.3472 16.3347 22.2764 16.3494 22.211 16.3782C22.1455 16.4069 22.0868 16.4491 22.0387 16.5021C21.9906 16.555 21.9541 16.6174 21.9317 16.6853C21.9093 16.7532 21.9014 16.8251 21.9085 16.8962L22.1065 18.8727L22.1136 19.0257V21.7511C22.1146 22.3029 22.2935 22.8397 22.6238 23.2817L24.7064 26.051C24.95 26.3758 25.0546 26.784 24.9972 27.1858C24.9398 27.5877 24.7251 27.9503 24.4003 28.1938C24.0756 28.4374 23.6674 28.542 23.2655 28.4846C22.8637 28.4272 22.5011 28.2125 22.2575 27.8877L20.1759 25.1194C19.4463 24.1459 19.0508 22.9627 19.0484 21.746C19.0483 21.7207 19.0418 21.6959 19.0295 21.6737C19.0172 21.6516 18.9995 21.633 18.978 21.6195C18.9565 21.6061 18.9318 21.5984 18.9064 21.5973C18.881 21.5963 18.8557 21.6018 18.8331 21.6134L18.4178 21.8175C17.993 22.028 17.6357 22.3533 17.3864 22.7566C17.1372 23.1599 17.006 23.625 17.0077 24.099V26.1735C17.0077 26.5795 16.8465 26.9688 16.5594 27.2558C16.2724 27.5429 15.8831 27.7041 15.4771 27.7041C15.0712 27.7041 14.6819 27.5429 14.3948 27.2558C14.1078 26.9688 13.9465 26.5795 13.9465 26.1735V24.1041C13.9429 23.061 14.2318 22.0377 14.7802 21.1504C15.3287 20.263 16.1148 19.5472 17.0495 19.0839L18.6362 18.29C18.7293 18.2436 18.8059 18.1699 18.8559 18.0787C18.9058 17.9875 18.9267 17.8832 18.9158 17.7798L18.7831 16.4533C18.7784 16.4064 18.7631 16.3612 18.7382 16.3212C18.7133 16.2812 18.6795 16.2474 18.6395 16.2225C18.5995 16.1975 18.5543 16.1821 18.5074 16.1774C18.4605 16.1727 18.4131 16.1788 18.3689 16.1952C17.5784 16.4943 16.7303 16.61 15.8885 16.5334C15.0468 16.4569 14.2334 16.1902 13.5098 15.7534L12.6476 15.236C12.3039 15.0251 12.0573 14.6869 11.9615 14.2951C11.8657 13.9034 11.9284 13.4896 12.136 13.1438C12.3436 12.798 12.6793 12.5481 13.0701 12.4485C13.4609 12.3488 13.8753 12.4075 14.2231 12.6116L15.0791 13.1259C15.4076 13.3247 15.7769 13.4463 16.1592 13.4816C16.5415 13.517 16.9269 13.4652 17.2862 13.33L17.6138 13.2065C19.1927 12.6139 20.9328 12.6139 22.5116 13.2065C22.9255 13.3617 23.3725 13.4067 23.8089 13.3371C24.2454 13.2676 24.6563 13.0858 25.0013 12.8096L25.7411 12.2177Z" fill="#962A8B"/>
</svg>
