<svg width="32" height="32" viewBox="0 0 32 32" fill="none" xmlns="http://www.w3.org/2000/svg">
<path fill-rule="evenodd" clip-rule="evenodd" d="M10.7328 28.9895C10.3592 28.9879 9.99063 28.9038 9.65323 28.7434C9.15029 28.5024 8.74239 28.1001 8.49439 27.6005C8.24639 27.101 8.17254 26.5329 8.28458 25.9865L8.59658 24.4894H4.00284C3.68998 24.49 3.38137 24.4171 3.10181 24.2766C2.82225 24.1361 2.57956 23.932 2.39324 23.6807C2.20692 23.4294 2.08218 23.1378 2.02905 22.8295C1.97591 22.5212 1.99587 22.2047 2.08731 21.9055C2.33043 21.0445 2.77249 20.2527 3.37784 19.594C3.61088 19.3406 3.86613 19.1085 4.14053 18.9006C4.06279 18.743 3.99607 18.5802 3.94083 18.4133C3.65427 17.5455 3.69446 16.6028 4.05383 15.7625C4.4132 14.9222 5.06704 14.242 5.89251 13.8497C6.71799 13.4574 7.65829 13.38 8.5368 13.6321C9.4153 13.8841 10.1716 14.4483 10.6635 15.2185C10.7665 15.0441 10.8903 14.8827 11.0321 14.738C10.6331 14.5165 10.3219 14.1653 10.15 13.7425C9.97817 13.3197 9.95604 12.8509 10.0873 12.4138C10.3303 11.5506 10.7731 10.7568 11.3798 10.0964C11.6125 9.84253 11.868 9.61044 12.143 9.40309C12.0652 9.2455 11.9984 9.08266 11.9433 8.91578C11.7515 8.33181 11.7064 7.70964 11.8118 7.10411C11.9173 6.49858 12.1701 5.92829 12.5479 5.44351C12.9257 4.95873 13.4171 4.57434 13.9785 4.32423C14.54 4.07413 15.1543 3.96598 15.7674 4.00933C16.3805 4.05268 16.9736 4.24619 17.4942 4.57281C18.0149 4.89942 18.4473 5.34911 18.7531 5.88224C19.059 6.41536 19.229 7.01555 19.2482 7.62989C19.2674 8.24423 19.1352 8.85386 18.8632 9.40504C19.8676 10.1648 20.5933 11.2348 20.9276 12.449C21.0105 12.7386 21.0255 13.0433 20.9716 13.3397C20.9193 13.6322 20.8026 13.9095 20.63 14.1514C20.4574 14.3934 20.2332 14.5939 19.9736 14.7386C20.1147 14.8832 20.238 15.0442 20.3408 15.2181C20.8329 14.4476 21.5895 13.8834 22.4684 13.6316C23.3472 13.3797 24.2878 13.4574 25.1133 13.8502C25.9389 14.243 26.5925 14.9238 26.9515 15.7647C27.3104 16.6055 27.3499 17.5484 27.0625 18.4163C27.0075 18.5833 26.9406 18.7462 26.8623 18.9036C27.8672 19.6627 28.5933 20.7324 28.9277 21.9466C29.0116 22.2441 29.0255 22.5569 28.9683 22.8606C28.911 23.1643 28.7842 23.4506 28.5977 23.6971C28.4112 23.9436 28.1702 24.1435 27.8935 24.2811C27.6168 24.4188 27.3119 24.4905 27.0029 24.4906H22.4091L22.7206 25.9837C22.7945 26.3477 22.7875 26.7234 22.7001 27.0843C22.6115 27.4448 22.4438 27.781 22.2092 28.0686C21.9746 28.3562 21.6789 28.5881 21.3437 28.7474C21.0117 28.9045 20.6494 28.9872 20.2821 28.9896L10.7328 28.9895Z" fill="white"/>
<path fill-rule="evenodd" clip-rule="evenodd" d="M19.0027 13.489H12.0027C11.9247 13.489 11.8478 13.4708 11.7781 13.4358C11.7084 13.4008 11.6478 13.35 11.6013 13.2874C11.5547 13.2248 11.5235 13.1522 11.51 13.0754C11.4965 12.9986 11.5012 12.9197 11.5237 12.845C11.702 12.1988 12.0313 11.6043 12.4846 11.1105C12.9379 10.6167 13.5021 10.2378 14.1307 10.005C14.1736 9.98973 14.2116 9.96304 14.2404 9.92779C14.2693 9.89255 14.288 9.85009 14.2944 9.805C14.3009 9.75991 14.295 9.71391 14.2772 9.67196C14.2595 9.63001 14.2306 9.59371 14.1937 9.56698C13.8062 9.28964 13.5167 8.89644 13.3671 8.44403C13.2174 7.99162 13.2152 7.50338 13.3609 7.04965C13.5065 6.59593 13.7924 6.20016 14.1774 5.91938C14.5625 5.6386 15.0267 5.4873 15.5032 5.4873C15.9797 5.4873 16.4439 5.6386 16.829 5.91938C17.214 6.20016 17.4999 6.59593 17.6455 7.04965C17.7912 7.50338 17.789 7.99162 17.6393 8.44403C17.4896 8.89644 17.2002 9.28964 16.8127 9.56698C16.7758 9.59377 16.747 9.63009 16.7292 9.67204C16.7114 9.71399 16.7054 9.76 16.7117 9.80512C16.7181 9.85024 16.7366 9.89277 16.7654 9.92816C16.7941 9.96354 16.8319 9.99044 16.8747 10.006C17.5032 10.2389 18.0674 10.6179 18.5206 11.1116C18.9739 11.6054 19.3033 12.1999 19.4817 12.846C19.504 12.9206 19.5085 12.9994 19.4949 13.0761C19.4814 13.1528 19.4501 13.2252 19.4036 13.2877C19.357 13.3501 19.2966 13.4009 19.227 13.4358C19.1574 13.4708 19.0806 13.489 19.0027 13.489ZM26.5206 20.6108C26.9739 21.1045 27.3033 21.699 27.4817 22.3451V22.3471C27.504 22.4217 27.5086 22.5005 27.495 22.5772C27.4815 22.6539 27.4502 22.7264 27.4036 22.7888C27.3571 22.8513 27.2966 22.902 27.227 22.937C27.1574 22.9719 27.0806 22.9901 27.0027 22.9901H21.7877C21.7302 22.99 21.6745 22.9701 21.63 22.9337C21.5855 22.8972 21.555 22.8465 21.5437 22.7901L21.0227 20.2901C21.0131 20.2428 21.0174 20.1936 21.0351 20.1487C21.0529 20.1038 21.0833 20.065 21.1227 20.0371C21.4314 19.8122 21.7709 19.633 22.1307 19.5051C22.1738 19.4898 22.2118 19.463 22.2407 19.4276C22.2697 19.3922 22.2883 19.3496 22.2947 19.3044C22.3011 19.2591 22.295 19.213 22.277 19.171C22.259 19.129 22.2299 19.0927 22.1927 19.0661C21.8053 18.7887 21.516 18.3954 21.3664 17.943C21.2168 17.4906 21.2147 17.0024 21.3604 16.5487C21.5061 16.0951 21.792 15.6994 22.177 15.4186C22.562 15.1379 23.0262 14.9866 23.5027 14.9866C23.9792 14.9866 24.4434 15.1379 24.8284 15.4186C25.2134 15.6994 25.4993 16.0951 25.645 16.5487C25.7907 17.0024 25.7886 17.4906 25.639 17.943C25.4894 18.3954 25.2001 18.7887 24.8127 19.0661C24.7758 19.0929 24.747 19.1292 24.7292 19.1711C24.7114 19.2131 24.7054 19.2591 24.7117 19.3042C24.7181 19.3493 24.7366 19.3919 24.7654 19.4273C24.7941 19.4626 24.8319 19.4895 24.8747 19.5051C25.5032 19.738 26.0674 20.117 26.5206 20.6108ZM9.9807 20.289C9.99035 20.2417 9.98603 20.1925 9.96828 20.1476C9.95052 20.1027 9.9201 20.0639 9.8807 20.036C9.57226 19.8107 9.23271 19.6315 8.8727 19.504C8.82961 19.4887 8.79153 19.4619 8.7626 19.4266C8.73367 19.3912 8.71499 19.3485 8.7086 19.3033C8.70221 19.258 8.70835 19.2119 8.72635 19.1699C8.74435 19.1278 8.77352 19.0916 8.8107 19.065C9.1982 18.7876 9.48765 18.3944 9.63733 17.942C9.787 17.4896 9.78918 17.0014 9.64354 16.5477C9.49791 16.0939 9.21198 15.6982 8.82696 15.4174C8.44194 15.1366 7.97772 14.9853 7.5012 14.9853C7.02467 14.9853 6.56046 15.1366 6.17544 15.4174C5.79042 15.6982 5.50449 16.0939 5.35886 16.5477C5.21322 17.0014 5.2154 17.4896 5.36507 17.942C5.51475 18.3944 5.8042 18.7876 6.1917 19.065C6.22858 19.0917 6.25746 19.128 6.27522 19.17C6.29298 19.2119 6.29893 19.2579 6.29245 19.303C6.28596 19.3481 6.26728 19.3906 6.23842 19.4258C6.20956 19.461 6.17162 19.4877 6.1287 19.503C5.50011 19.7358 4.93588 20.1147 4.48259 20.6085C4.0293 21.1023 3.69994 21.6968 3.5217 22.343C3.49879 22.418 3.49384 22.4973 3.50723 22.5745C3.52063 22.6517 3.552 22.7248 3.59882 22.7876C3.64564 22.8505 3.70659 22.9015 3.77675 22.9365C3.84691 22.9714 3.92431 22.9894 4.0027 22.989H9.2157C9.27321 22.989 9.32895 22.969 9.37343 22.9326C9.41791 22.8961 9.44839 22.8454 9.4597 22.789L9.9807 20.289ZM18.8217 15.7144C19 15.8602 19.1226 16.0631 19.1687 16.2888L21.2517 26.2888C21.2813 26.434 21.2783 26.584 21.2429 26.7279C21.2074 26.8718 21.1404 27.0061 21.0468 27.1209C20.9531 27.2358 20.835 27.3284 20.7011 27.392C20.5673 27.4556 20.4209 27.4887 20.2727 27.4888H10.7327C10.5845 27.4887 10.4381 27.4556 10.3043 27.392C10.1704 27.3284 10.0523 27.2358 9.95865 27.1209C9.86495 27.0061 9.79796 26.8718 9.76251 26.7279C9.72707 26.584 9.72406 26.434 9.7537 26.2888L11.8367 16.2888C11.8827 16.0631 12.0053 15.8602 12.1837 15.7144C12.3621 15.5686 12.5853 15.4889 12.8157 15.4888H18.1897C18.4201 15.4889 18.6433 15.5686 18.8217 15.7144ZM17.6328 25.4427C17.7309 25.3979 17.812 25.3226 17.8639 25.228C17.9157 25.1334 17.9357 25.0246 17.9207 24.9178L17.5637 22.4178C17.5468 22.2985 17.4875 22.1893 17.3965 22.1103C17.3056 22.0313 17.1892 21.9878 17.0687 21.9878H13.9367C13.8162 21.9878 13.6998 22.0313 13.6089 22.1103C13.5179 22.1893 13.4586 22.2985 13.4417 22.4178L13.0847 24.9178C13.0747 24.9886 13.08 25.0608 13.1003 25.1295C13.1206 25.1981 13.1554 25.2616 13.2023 25.3156C13.2492 25.3696 13.3072 25.413 13.3723 25.4427C13.4374 25.4724 13.5081 25.4878 13.5797 25.4878H17.4257C17.4972 25.4877 17.5678 25.4723 17.6328 25.4427Z" fill="#51247A"/>
</svg>
