<svg width="32" height="32" viewBox="0 0 32 32" fill="none" xmlns="http://www.w3.org/2000/svg">
<path d="M20.5 14V5C20.5 4.73478 20.3946 4.48043 20.2071 4.29289C20.0196 4.10536 19.7652 4 19.5 4H12.5C12.2348 4 11.9804 4.10536 11.7929 4.29289C11.6054 4.48043 11.5 4.73478 11.5 5V14C11.5 14.2652 11.6054 14.5196 11.7929 14.7071C11.9804 14.8946 12.2348 15 12.5 15H19.5C19.7652 15 20.0196 14.8946 20.2071 14.7071C20.3946 14.5196 20.5 14.2652 20.5 14ZM18.5 12C18.5 12.2652 18.3946 12.5196 18.2071 12.7071C18.0196 12.8946 17.7652 13 17.5 13H14.5C14.2348 13 13.9804 12.8946 13.7929 12.7071C13.6054 12.5196 13.5 12.2652 13.5 12V7C13.5 6.73478 13.6054 6.48043 13.7929 6.29289C13.9804 6.10536 14.2348 6 14.5 6H17.5C17.7652 6 18.0196 6.10536 18.2071 6.29289C18.3946 6.48043 18.5 6.73478 18.5 7V12Z" fill="white"/>
<path d="M5 14C5 14.663 5.26339 15.2989 5.73223 15.7678C6.20107 16.2366 6.83696 16.5 7.5 16.5C8.16304 16.5 8.79893 16.2366 9.26777 15.7678C9.73661 15.2989 10 14.663 10 14C10 13.337 9.73661 12.7011 9.26777 12.2322C8.79893 11.7634 8.16304 11.5 7.5 11.5C6.83696 11.5 6.20107 11.7634 5.73223 12.2322C5.26339 12.7011 5 13.337 5 14Z" fill="white"/>
<path d="M7.5 17C6.57174 17 5.6815 17.3687 5.02513 18.0251C4.36875 18.6815 4 19.5717 4 20.5L4 22.5C4 22.6326 4.05268 22.7598 4.14645 22.8536C4.24021 22.9473 4.36739 23 4.5 23H5.094C5.21838 22.9994 5.33853 23.0451 5.43099 23.1283C5.52344 23.2116 5.58156 23.3262 5.594 23.45L6 27.55C6.01244 27.6738 6.07056 27.7884 6.16301 27.8717C6.25547 27.9549 6.37562 28.0006 6.5 28H8.5C8.62438 28.0006 8.74453 27.9549 8.83699 27.8717C8.92944 27.7884 8.98756 27.6738 9 27.55L9.409 23.45C9.42144 23.3262 9.47956 23.2116 9.57201 23.1283C9.66447 23.0451 9.78462 22.9994 9.909 23H10.5C10.6326 23 10.7598 22.9473 10.8536 22.8536C10.9473 22.7598 11 22.6326 11 22.5V20.5C11 20.0404 10.9095 19.5852 10.7336 19.1606C10.5577 18.736 10.2999 18.3501 9.97487 18.0251C9.64987 17.7001 9.26403 17.4423 8.83939 17.2664C8.41475 17.0905 7.95963 17 7.5 17Z" fill="white"/>
<path d="M25.75 17.2499C25.3092 17.2498 24.8782 17.3793 24.5104 17.6222C24.1426 17.8652 23.8544 18.2109 23.6815 18.6164C23.5087 19.0218 23.4589 19.4692 23.5382 19.9027C23.6176 20.3363 23.8227 20.737 24.128 21.0549C24.1741 21.1017 24.2 21.1647 24.2 21.2304C24.2 21.2961 24.1741 21.3591 24.128 21.4059C23.0978 22.4278 21.7056 23.0013 20.2545 23.0013C18.8034 23.0013 17.4112 22.4278 16.381 21.4059C16.3349 21.3591 16.309 21.2961 16.309 21.2304C16.309 21.1647 16.3349 21.1017 16.381 21.0549C16.7013 20.7208 16.9108 20.2961 16.9809 19.8386C17.0509 19.3811 16.9781 18.9131 16.7723 18.4985C16.5666 18.0839 16.2379 17.7429 15.8312 17.522C15.4245 17.3011 14.9595 17.211 14.4997 17.2641C14.04 17.3172 13.6078 17.5109 13.2621 17.8187C12.9165 18.1265 12.6742 18.5334 12.5683 18.984C12.4625 19.4345 12.4982 19.9068 12.6707 20.3363C12.8432 20.7658 13.1439 21.1316 13.532 21.3839C13.6015 21.4294 13.6586 21.4916 13.6981 21.5648C13.7375 21.6379 13.7581 21.7198 13.758 21.8029V26.9999C13.758 27.2651 13.8634 27.5195 14.0509 27.707C14.2384 27.8945 14.4928 27.9999 14.758 27.9999C15.0232 27.9999 15.2776 27.8945 15.4651 27.707C15.6526 27.5195 15.758 27.2651 15.758 26.9999V23.9839C15.7581 23.9387 15.7704 23.8945 15.7936 23.8558C15.8168 23.817 15.8501 23.7853 15.8899 23.764C15.9297 23.7427 15.9745 23.7325 16.0196 23.7346C16.0647 23.7367 16.1084 23.751 16.146 23.7759C17.3689 24.5745 18.7979 24.9998 20.2585 24.9998C21.7191 24.9998 23.1481 24.5745 24.371 23.7759C24.4088 23.7514 24.4525 23.7375 24.4975 23.7356C24.5425 23.7336 24.5872 23.7438 24.627 23.7649C24.6666 23.7863 24.6997 23.8181 24.7228 23.8568C24.7459 23.8956 24.758 23.9398 24.758 23.9849V26.9999C24.758 27.2651 24.8634 27.5195 25.0509 27.707C25.2384 27.8945 25.4928 27.9999 25.758 27.9999C26.0232 27.9999 26.2776 27.8945 26.4651 27.707C26.6526 27.5195 26.758 27.2651 26.758 26.9999V21.7999C26.758 21.7167 26.7787 21.6348 26.8184 21.5616C26.858 21.4884 26.9153 21.4263 26.985 21.3809C27.3906 21.1155 27.6996 20.7263 27.866 20.2711C28.0324 19.8158 28.0473 19.3191 27.9085 18.8547C27.7697 18.3903 27.4845 17.9832 27.0956 17.6941C26.7066 17.4049 26.2347 17.2491 25.75 17.2499Z" fill="white"/>
</svg>
