<svg width="32" height="32" viewBox="0 0 32 32" fill="none" xmlns="http://www.w3.org/2000/svg">
<path d="M22.47 25.9644H6.49594C6.36355 25.9644 6.23658 26.0169 6.14296 26.1106C6.04934 26.2042 5.99675 26.3312 5.99675 26.4635C5.99675 26.8607 6.15453 27.2416 6.43538 27.5225C6.71623 27.8033 7.09714 27.9611 7.49432 27.9611H21.4716C21.8688 27.9611 22.2497 27.8033 22.5306 27.5225C22.8114 27.2416 22.9692 26.8607 22.9692 26.4635C22.9692 26.3312 22.9166 26.2042 22.823 26.1106C22.7294 26.0169 22.6024 25.9644 22.47 25.9644Z" fill="white"/>
<path d="M22.47 11.4879C21.7952 11.4882 21.1262 11.6124 20.4962 11.8543C20.2676 11.9427 20.0245 11.9877 19.7794 11.9871H4.99838C4.78884 11.9871 4.58461 12.0531 4.41462 12.1756C4.24463 12.2981 4.1175 12.471 4.05123 12.6698C3.98497 12.8686 3.98293 13.0832 4.04541 13.2832C4.10789 13.4832 4.23172 13.6585 4.39935 13.7842L6.2164 15.155C6.44196 15.3262 6.61476 15.5575 6.71505 15.8223C6.81533 16.0871 6.83905 16.3749 6.78348 16.6525C6.31886 19.0617 6.06266 21.5065 6.01772 23.9597C6.01599 24.0263 6.02762 24.0926 6.05193 24.1547C6.07624 24.2168 6.11274 24.2733 6.15926 24.3211C6.20579 24.3688 6.26141 24.4067 6.32283 24.4326C6.38426 24.4585 6.45025 24.4719 6.51691 24.4718H22.445C22.5121 24.4719 22.5784 24.4584 22.6401 24.4323C22.7018 24.4061 22.7576 24.3679 22.8042 24.3197C22.8507 24.2715 22.8872 24.2145 22.9112 24.1519C22.9353 24.0894 22.9465 24.0227 22.9442 23.9557C22.9283 23.4565 22.9023 22.9573 22.8694 22.4581C24.2947 22.3643 25.6275 21.7188 26.5847 20.6585C27.542 19.5982 28.0483 18.2066 27.9964 16.7791C27.9444 15.3516 27.3382 14.0005 26.3064 13.0126C25.2746 12.0247 23.8984 11.4778 22.47 11.4879ZM15.9805 20.4733C15.9805 20.8705 15.8228 21.2514 15.5419 21.5323C15.2611 21.8131 14.8802 21.9709 14.483 21.9709C14.0858 21.9709 13.7049 21.8131 13.424 21.5323C13.1432 21.2514 12.9854 20.8705 12.9854 20.4733V15.9806C12.9854 15.5835 13.1432 15.2025 13.424 14.9217C13.7049 14.6408 14.0858 14.4831 14.483 14.4831C14.8802 14.4831 15.2611 14.6408 15.5419 14.9217C15.8228 15.2025 15.9805 15.5835 15.9805 15.9806V20.4733ZM25.9643 16.979C25.9644 17.4796 25.857 17.9743 25.6492 18.4297C25.4415 18.8852 25.1383 19.2906 24.7603 19.6187C24.3235 20 23.7979 20.2654 23.2318 20.3905C23.1642 20.4048 23.0945 20.405 23.0268 20.391C22.9592 20.3771 22.8952 20.3492 22.839 20.3092C22.7827 20.2693 22.7353 20.218 22.6998 20.1588C22.6643 20.0996 22.6414 20.0337 22.6327 19.9652C22.395 18.0065 21.9882 16.072 21.4167 14.1836C21.3959 14.1166 21.3895 14.046 21.3978 13.9764C21.4061 13.9067 21.429 13.8396 21.465 13.7794C21.501 13.7193 21.5492 13.6673 21.6066 13.627C21.664 13.5867 21.7293 13.559 21.7981 13.5456C22.3047 13.4463 22.8269 13.4605 23.3274 13.5872C23.8278 13.7138 24.2939 13.9498 24.6923 14.2781C25.0907 14.6064 25.4113 15.0189 25.6313 15.4859C25.8512 15.9529 25.965 16.4628 25.9643 16.979Z" fill="white"/>
<path d="M20.0649 9.80857C19.7448 8.9792 19.243 8.23206 18.5963 7.62202C17.9497 7.01198 17.1746 6.55454 16.328 6.28329C16.2272 6.25113 16.1392 6.18776 16.0767 6.10234C16.0143 6.01693 15.9806 5.91387 15.9805 5.80806V5.49757C15.9805 5.10039 15.8228 4.71948 15.5419 4.43863C15.2611 4.15778 14.8802 4 14.483 4C14.0858 4 13.7049 4.15778 13.424 4.43863C13.1432 4.71948 12.9854 5.10039 12.9854 5.49757V5.80806C12.9853 5.91387 12.9516 6.01693 12.8892 6.10234C12.8267 6.18776 12.7388 6.25113 12.638 6.28329C11.7914 6.55454 11.0163 7.01198 10.3696 7.62202C9.72294 8.23206 9.22113 8.9792 8.90104 9.80857C8.87145 9.88426 8.8608 9.96603 8.87 10.0468C8.8792 10.1275 8.90797 10.2048 8.95382 10.2719C8.99967 10.339 9.0612 10.3939 9.13308 10.4318C9.20496 10.4697 9.28501 10.4895 9.36628 10.4895H19.5997C19.6809 10.4895 19.761 10.4697 19.8329 10.4318C19.9047 10.3939 19.9663 10.339 20.0121 10.2719C20.058 10.2048 20.0867 10.1275 20.0959 10.0468C20.1051 9.96603 20.0945 9.88426 20.0649 9.80857Z" fill="white"/>
</svg>
