<svg width="32" height="32" viewBox="0 0 32 32" fill="none" xmlns="http://www.w3.org/2000/svg">
<path d="M25 23.5005C25 23.1027 24.842 22.7211 24.5607 22.4398C24.2794 22.1585 23.8978 22.0005 23.5 22.0005H21.5C21.3674 22.0005 21.2402 21.9478 21.1464 21.854C21.0527 21.7603 21 21.6331 21 21.5005V19.5005C21 19.1027 20.842 18.7211 20.5607 18.4398C20.2794 18.1585 19.8978 18.0005 19.5 18.0005H17.5C17.3674 18.0005 17.2402 17.9478 17.1464 17.854C17.0527 17.7603 17 17.6331 17 17.5005V15.5005C17 15.1027 16.842 14.7211 16.5607 14.4398C16.2794 14.1585 15.8978 14.0005 15.5 14.0005H13.5C13.3674 14.0005 13.2402 13.9478 13.1464 13.854C13.0527 13.7603 13 13.6331 13 13.5005V11.5005C13 11.1027 12.842 10.7211 12.5607 10.4398C12.2794 10.1585 11.8978 10.0005 11.5 10.0005H5C4.73478 10.0005 4.48043 10.1058 4.29289 10.2934C4.10536 10.4809 4 10.7353 4 11.0005V27.0005C4 27.2657 4.10536 27.5201 4.29289 27.7076C4.48043 27.8951 4.73478 28.0005 5 28.0005H24C24.2652 28.0005 24.5196 27.8951 24.7071 27.7076C24.8946 27.5201 25 27.2657 25 27.0005V23.5005Z" fill="#2EA836"/>
<path d="M27.691 10.7885C27.5997 10.7506 27.4991 10.7406 27.4021 10.7598C27.3051 10.779 27.216 10.8266 27.146 10.8965L26.061 11.9825C26.0145 12.029 25.9594 12.066 25.8986 12.0912C25.8379 12.1164 25.7728 12.1294 25.707 12.1294C25.6412 12.1294 25.5761 12.1164 25.5154 12.0912C25.4546 12.066 25.3994 12.029 25.353 11.9825L17.811 4.43948C17.5296 4.15809 17.1479 4 16.75 4C16.352 4 15.9704 4.15809 15.689 4.43948C15.4076 4.72088 15.2495 5.10253 15.2495 5.50048C15.2495 5.89843 15.4076 6.28009 15.689 6.56148L23.232 14.1005C23.2786 14.1469 23.3155 14.2021 23.3407 14.2628C23.3659 14.3236 23.3789 14.3887 23.3789 14.4545C23.3789 14.5202 23.3659 14.5854 23.3407 14.6461C23.3155 14.7069 23.2786 14.762 23.232 14.8085L22.146 15.9005C22.0759 15.9704 22.0281 16.0596 22.0088 16.1567C21.9894 16.2538 21.9993 16.3545 22.0372 16.4459C22.0751 16.5374 22.1393 16.6156 22.2217 16.6705C22.3041 16.7254 22.401 16.7547 22.5 16.7545H27.5C27.6326 16.7545 27.7598 16.7018 27.8535 16.608C27.9473 16.5143 28 16.3871 28 16.2545V11.2545C28.0008 11.1549 27.9718 11.0573 27.9167 10.9743C27.8617 10.8912 27.7831 10.8265 27.691 10.7885Z" fill="#2EA836"/>
</svg>
