<svg width="32" height="32" viewBox="0 0 32 32" fill="none" xmlns="http://www.w3.org/2000/svg">
<path d="M25.3274 10.4546C25.3116 8.80006 24.667 7.21343 23.5244 6.01664C22.3817 4.81985 20.8266 4.10251 19.1746 4.01017C17.5225 3.91782 15.8971 4.45736 14.6282 5.51935C13.3593 6.58134 12.5419 8.08625 12.3418 9.72877C12.3312 9.82628 12.2922 9.91854 12.2296 9.9941C12.1671 10.0697 12.0837 10.1252 11.9899 10.1539C11.0635 10.4334 10.2516 11.0034 9.67387 11.7797C9.09617 12.5559 8.78337 13.4974 8.78162 14.465V14.9663C8.78162 15.2322 8.88725 15.4872 9.07527 15.6752C9.26329 15.8633 9.5183 15.9689 9.78421 15.9689H16.8024C17.0683 15.9689 17.3233 15.8633 17.5113 15.6752C17.6993 15.4872 17.8049 15.2322 17.8049 14.9663V14.465C17.8025 13.5214 17.5042 12.6022 16.9521 11.837C16.3999 11.0717 15.6217 10.4989 14.727 10.199C14.6126 10.1607 14.5159 10.0824 14.4546 9.97853C14.3933 9.87466 14.3714 9.75217 14.3931 9.63352C14.5986 8.53111 15.2084 7.54516 16.1029 6.86885C16.9974 6.19254 18.1122 5.87462 19.2289 5.97738C20.3456 6.08014 21.3836 6.59617 22.1397 7.42437C22.8958 8.25257 23.3153 9.33324 23.3162 10.4546V26.9974C23.3162 27.2633 23.4218 27.5183 23.6098 27.7064C23.7979 27.8944 24.0529 28 24.3188 28C24.5847 28 24.8397 27.8944 25.0277 27.7064C25.2157 27.5183 25.3214 27.2633 25.3214 26.9974L25.3274 10.4546Z" fill="white"/>
<path d="M12.8842 24.2062C12.3587 24.8814 11.9862 25.6627 11.7924 26.4961C11.7924 26.8949 11.9509 27.2775 12.2329 27.5595C12.5149 27.8415 12.8975 28 13.2963 28C13.6952 28 14.0777 27.8415 14.3597 27.5595C14.6417 27.2775 14.8002 26.8949 14.8002 26.4961C14.6064 25.6627 14.2339 24.8814 13.7084 24.2062C13.6599 24.143 13.5975 24.0917 13.526 24.0565C13.4546 24.0213 13.376 24.0029 13.2963 24.0029C13.2166 24.0029 13.138 24.0213 13.0666 24.0565C12.9951 24.0917 12.9327 24.143 12.8842 24.2062Z" fill="white"/>
<path d="M12.8842 18.1905C12.3587 18.8657 11.9862 19.6471 11.7924 20.4805C11.7924 20.8793 11.9509 21.2618 12.2329 21.5439C12.5149 21.8259 12.8975 21.9844 13.2963 21.9844C13.6952 21.9844 14.0777 21.8259 14.3597 21.5439C14.6417 21.2618 14.8002 20.8793 14.8002 20.4805C14.6064 19.6471 14.2339 18.8657 13.7084 18.1905C13.6599 18.1273 13.5975 18.0761 13.526 18.0409C13.4546 18.0056 13.376 17.9873 13.2963 17.9873C13.2166 17.9873 13.138 18.0056 13.0666 18.0409C12.9951 18.0761 12.9327 18.1273 12.8842 18.1905Z" fill="white"/>
<path d="M8.06075 23.8522C7.98173 23.8328 7.89909 23.8335 7.82042 23.8543C7.74176 23.8752 7.6696 23.9155 7.61059 23.9715C6.9482 24.5128 6.41174 25.1919 6.03852 25.9617C5.99402 26.1545 5.98801 26.3542 6.02084 26.5494C6.05368 26.7445 6.12471 26.9313 6.22987 27.099C6.33502 27.2666 6.47224 27.4119 6.63364 27.5264C6.79505 27.6409 6.97747 27.7224 7.17045 27.7663C7.28099 27.7914 7.39397 27.8042 7.50732 27.8044C7.84771 27.8038 8.17783 27.6878 8.44372 27.4753C8.70961 27.2627 8.89554 26.9663 8.9711 26.6344C8.96748 25.7788 8.77796 24.9341 8.41567 24.159C8.38602 24.0828 8.33818 24.015 8.27631 23.9615C8.21445 23.908 8.14044 23.8705 8.06075 23.8522Z" fill="white"/>
<path d="M9.39721 17.9872C9.31815 17.9684 9.2357 17.9695 9.15716 17.9903C9.07863 18.0112 9.00646 18.051 8.94705 18.1065C8.28405 18.6478 7.7472 19.3273 7.37398 20.0976C7.28589 20.4862 7.35561 20.8939 7.56784 21.2311C7.78006 21.5683 8.11745 21.8076 8.50591 21.8963C8.69874 21.9408 8.89847 21.9468 9.09363 21.9139C9.28879 21.8811 9.47555 21.8101 9.64321 21.7049C9.81087 21.5998 9.95612 21.4625 10.0706 21.3011C10.1852 21.1397 10.2667 20.9573 10.3106 20.7643C10.3048 19.9082 10.1129 19.0635 9.74812 18.2889C9.71818 18.2141 9.67066 18.1477 9.60958 18.0951C9.54849 18.0426 9.47565 18.0056 9.39721 17.9872Z" fill="white"/>
<path d="M18.982 23.9715C18.9225 23.9162 18.8503 23.8764 18.7718 23.8556C18.6933 23.8348 18.6109 23.8337 18.5318 23.8522C18.4529 23.8701 18.3796 23.9067 18.3179 23.9591C18.2563 24.0115 18.2083 24.078 18.1779 24.153C17.8155 24.928 17.6263 25.7728 17.6235 26.6284C17.6988 26.9603 17.8845 27.2568 18.1502 27.4695C18.4159 27.6822 18.7459 27.7985 19.0863 27.7994C19.1996 27.7992 19.3126 27.7864 19.4231 27.7613C19.6161 27.7174 19.7985 27.6359 19.9599 27.5214C20.1213 27.4068 20.2586 27.2616 20.3637 27.0939C20.4689 26.9263 20.5399 26.7395 20.5727 26.5444C20.6056 26.3492 20.5996 26.1495 20.5551 25.9566C20.1809 25.1886 19.6442 24.5112 18.982 23.9715Z" fill="white"/>
<path d="M18.0857 21.8963C18.4745 21.8078 18.8123 21.5685 19.0248 21.231C19.2372 20.8935 19.307 20.4855 19.2186 20.0966C18.8451 19.3268 18.3083 18.6476 17.6455 18.1065C17.5861 18.051 17.5139 18.0112 17.4354 17.9903C17.3569 17.9695 17.2744 17.9684 17.1954 17.9872C17.1165 18.005 17.0431 18.0417 16.9815 18.0941C16.9198 18.1465 16.8718 18.213 16.8415 18.2879C16.4789 19.063 16.2897 19.9077 16.287 20.7633C16.3757 21.1518 16.6149 21.4892 16.9522 21.7014C17.2894 21.9136 17.6971 21.9834 18.0857 21.8953V21.8963Z" fill="white"/>
</svg>
