<svg width="32" height="32" viewBox="0 0 32 32" fill="none" xmlns="http://www.w3.org/2000/svg">
<path d="M16 13.5C16.9395 13.5 17.8578 13.2214 18.639 12.6995C19.4201 12.1775 20.0289 11.4357 20.3884 10.5677C20.7479 9.6998 20.842 8.74473 20.6587 7.82332C20.4754 6.90191 20.0231 6.05554 19.3588 5.39124C18.6945 4.72695 17.8481 4.27455 16.9267 4.09127C16.0053 3.90799 15.0502 4.00206 14.1823 4.36157C13.3143 4.72109 12.5725 5.32991 12.0505 6.11104C11.5286 6.89218 11.25 7.81054 11.25 8.75C11.2516 10.0093 11.7525 11.2166 12.643 12.107C13.5335 12.9975 14.7407 13.4984 16 13.5ZM18.068 8.931C18.1519 8.91841 18.2376 8.92738 18.3171 8.95707C18.3966 8.98676 18.4673 9.03619 18.5224 9.1007C18.5775 9.16522 18.6153 9.2427 18.6322 9.32585C18.6491 9.409 18.6445 9.49509 18.619 9.576C18.4217 10.2021 18.0069 10.7369 17.4495 11.0836C16.8921 11.4304 16.229 11.5661 15.5801 11.4663C14.9313 11.3665 14.3397 11.0377 13.9123 10.5395C13.4849 10.0412 13.2499 9.40645 13.25 8.75C13.25 8.679 13.25 8.61 13.259 8.541C13.2661 8.45692 13.2943 8.376 13.3411 8.30578C13.3879 8.23555 13.4517 8.17831 13.5266 8.13938C13.6014 8.10045 13.6849 8.0811 13.7693 8.08314C13.8536 8.08517 13.9361 8.10851 14.009 8.151C14.9675 8.70966 16.0576 9.00272 17.167 9C17.4686 8.99971 17.7698 8.97664 18.068 8.931Z" fill="white"/>
<path d="M16 14.238C14.6739 14.238 13.4021 14.7648 12.4645 15.7025C11.5268 16.6402 11 17.912 11 19.238V22.238C11 22.3707 11.0527 22.4978 11.1464 22.5916C11.2402 22.6854 11.3674 22.738 11.5 22.738H13.046C13.1707 22.7375 13.2911 22.7835 13.3836 22.8671C13.4761 22.9508 13.534 23.0659 13.546 23.19L13.964 27.542C13.9746 27.6672 14.0319 27.7839 14.1245 27.8687C14.2172 27.9536 14.3384 28.0005 14.464 28H17.544C17.6696 28.0005 17.7908 27.9536 17.8835 27.8687C17.9761 27.7839 18.0334 27.6672 18.044 27.542L18.463 23.19C18.475 23.0659 18.5329 22.9508 18.6254 22.8671C18.7179 22.7835 18.8383 22.7375 18.963 22.738H20.509C20.6416 22.738 20.7688 22.6854 20.8626 22.5916C20.9563 22.4978 21.009 22.3707 21.009 22.238V19.238C21.009 18.5807 20.8794 17.9298 20.6275 17.3225C20.3757 16.7153 20.0066 16.1637 19.5414 15.6993C19.0761 15.2349 18.5238 14.8668 17.9162 14.6161C17.3085 14.3653 16.6574 14.2369 16 14.238Z" fill="white"/>
</svg>
