<svg width="32" height="32" viewBox="0 0 32 32" fill="none" xmlns="http://www.w3.org/2000/svg">
<path d="M27.1377 8.43027C27.0818 8.26514 26.9839 8.11737 26.8537 8.00143C26.7234 7.8855 26.5653 7.80538 26.3948 7.76892C26.2267 7.72981 26.0512 7.73524 25.8858 7.78467C25.7204 7.8341 25.5708 7.92582 25.4516 8.05077L21.5952 12.0421C21.5681 12.0702 21.5348 12.0915 21.4979 12.1045C21.461 12.1174 21.4216 12.1215 21.3828 12.1165L19.8226 11.9213C19.7685 11.9147 19.718 11.8907 19.6788 11.853C19.6396 11.8152 19.6137 11.7657 19.6051 11.7119L19.3555 10.1576C19.3496 10.119 19.3526 10.0795 19.3643 10.0421C19.376 10.0048 19.396 9.97062 19.4229 9.94223L23.2803 5.95296C23.4007 5.82931 23.487 5.67665 23.5309 5.50979C23.5748 5.34294 23.5749 5.16756 23.531 5.00069C23.4886 4.83142 23.4029 4.67608 23.2824 4.5499C23.1619 4.42372 23.0106 4.33104 22.8435 4.28095C21.6609 3.92292 20.4012 3.90676 19.2099 4.23433C18.0186 4.5619 16.9442 5.21984 16.111 6.13214C15.2778 7.04444 14.7196 8.17386 14.5011 9.38992C14.2826 10.606 14.4125 11.8591 14.876 13.0044C14.8943 13.048 14.8994 13.0961 14.8907 13.1427C14.8819 13.1892 14.8596 13.2321 14.8267 13.2661L4.76039 23.6666C4.32924 24.0977 4.0636 24.6669 4.01004 25.2743C3.95648 25.8817 4.11842 26.4885 4.46747 26.9885C4.68699 27.2799 4.96672 27.5205 5.28762 27.6941C5.60852 27.8677 5.96304 27.9701 6.32707 27.9944C6.6911 28.0186 7.05608 27.9642 7.39718 27.8347C7.73827 27.7053 8.04747 27.5038 8.30372 27.2442C8.30372 27.2442 17.307 17.9208 18.4203 16.744C18.4531 16.7099 18.4954 16.6863 18.5417 16.6765C18.588 16.6666 18.6362 16.6708 18.68 16.6886C19.8404 17.1144 21.0975 17.2032 22.3062 16.9445C23.5148 16.6859 24.6255 16.0904 25.51 15.227C26.3944 14.3636 27.0164 13.2676 27.3041 12.0655C27.5918 10.8635 27.5334 9.60455 27.1357 8.4343L27.1377 8.43027ZM7.56788 25.8308C7.42951 25.974 7.2518 26.0729 7.05722 26.115C6.86264 26.1572 6.65993 26.1407 6.47473 26.0676C6.28952 25.9946 6.13014 25.8683 6.01674 25.7046C5.90333 25.541 5.841 25.3474 5.83762 25.1483C5.83424 24.9493 5.88997 24.7537 5.99775 24.5863C6.10554 24.4189 6.26054 24.2872 6.44316 24.2079C6.62578 24.1286 6.82781 24.1052 7.02371 24.1408C7.21961 24.1763 7.40057 24.2691 7.54372 24.4075C7.73567 24.593 7.84606 24.8472 7.85059 25.1142C7.85512 25.3811 7.75343 25.6389 7.56788 25.8308Z" fill="white"/>
</svg>
