<svg width="32" height="32" viewBox="0 0 32 32" fill="none" xmlns="http://www.w3.org/2000/svg">
<path fill-rule="evenodd" clip-rule="evenodd" d="M15.5039 29.0007C15.1133 29.0007 14.7231 28.9838 14.3335 28.95C13.8977 28.9117 13.4794 28.7602 13.1202 28.5104C12.761 28.2607 12.4733 27.9213 12.2856 27.5261C11.9303 27.7731 11.517 27.9238 11.0861 27.9637C10.6552 28.0036 10.2213 27.9312 9.82664 27.7537C9.11005 27.4217 8.42427 27.0269 7.77732 26.574C7.50883 26.3903 7.28002 26.1545 7.10447 25.8806C6.92489 25.6045 6.80206 25.2955 6.74314 24.9714C6.70474 24.7605 6.69342 24.5456 6.70945 24.3318C6.64305 24.3367 6.50877 24.3396 6.50877 24.3396C6.10866 24.3397 5.71439 24.2436 5.35913 24.0596C5.00386 23.8755 4.698 23.6089 4.46727 23.282C4.0159 22.6424 3.62055 21.9651 3.28562 21.2576C3.1444 20.961 3.06337 20.6395 3.04719 20.3114C3.03102 19.9834 3.08003 19.6554 3.19139 19.3464C3.26502 19.1408 3.3648 18.9455 3.48826 18.7654C3.29232 18.6747 3.10925 18.5584 2.94383 18.4197C2.69141 18.2103 2.48293 17.9531 2.33041 17.6628C2.17788 17.3725 2.08434 17.0549 2.05516 16.7283C2.019 16.3205 2 15.9124 2 15.5007C1.9999 13.7279 2.349 11.9724 3.02735 10.3344C3.7057 8.69652 4.70002 7.20823 5.95354 5.95457C8.48515 3.4227 11.9188 2.00019 15.4993 2C19.0797 1.99981 22.5135 3.42194 25.0454 5.95354C27.5773 8.48515 28.9998 11.9188 29 15.4993C29 15.9133 28.9818 16.3217 28.9453 16.7244C28.9163 17.0512 28.8231 17.3692 28.6709 17.66C28.5187 17.9507 28.3107 18.2086 28.0586 18.4187C27.8933 18.5562 27.7112 18.672 27.5166 18.7634C27.7638 19.1231 27.9127 19.541 27.9487 19.9759C27.9847 20.4108 27.9064 20.8476 27.7217 21.2429C27.3856 21.9528 26.989 22.6324 26.5361 23.2742C26.3528 23.5397 26.1184 23.7661 25.8467 23.9402C25.442 24.2029 24.9697 24.3423 24.4873 24.3415C24.4219 24.3415 24.3555 24.3386 24.289 24.3337C24.3044 24.5406 24.2939 24.7486 24.2578 24.9529C24.1409 25.6048 23.7722 26.1847 23.2314 26.5671C22.5879 27.0159 21.907 27.4086 21.1963 27.7409C20.8653 27.8949 20.5047 27.9749 20.1396 27.9753C19.6317 27.976 19.1358 27.821 18.7187 27.531C18.6268 27.7243 18.5106 27.9051 18.373 28.0691C18.1623 28.3214 17.9034 28.5292 17.6115 28.6804C17.3196 28.8316 17.0005 28.9232 16.6728 28.9499C16.2847 28.9841 15.895 29.0011 15.5039 29.0007Z" fill="white"/>
<path fill-rule="evenodd" clip-rule="evenodd" d="M7.01852 7.01923C8.69672 5.34253 10.8342 4.20086 13.161 3.73847C15.4878 3.27607 17.8994 3.5137 20.0912 4.42133C22.283 5.32895 24.1565 6.86585 25.4752 8.83784C26.7939 10.8098 27.4985 13.1284 27.5 15.5007C27.5 15.8677 27.483 16.2317 27.451 16.5907C27.4391 16.7215 27.4016 16.8487 27.3406 16.965C27.2795 17.0813 27.1962 17.1844 27.0953 17.2685C26.9944 17.3526 26.8779 17.416 26.7525 17.455C26.6272 17.4941 26.4953 17.5081 26.3645 17.4962C26.2337 17.4843 26.1065 17.4468 25.9902 17.3858C25.8739 17.3247 25.7708 17.2414 25.6867 17.1405C25.6026 17.0396 25.5393 16.9231 25.5002 16.7977C25.4611 16.6724 25.4471 16.5405 25.459 16.4097C25.4863 16.1104 25.5 15.8074 25.5 15.5007C25.5 12.8485 24.4464 10.305 22.5711 8.42964C20.6957 6.55428 18.1522 5.50071 15.5 5.50071C12.8478 5.50071 10.3043 6.55428 8.42893 8.42964C6.55357 10.305 5.5 12.8485 5.5 15.5007C5.5 15.808 5.51367 16.111 5.541 16.4097C5.55288 16.5405 5.53889 16.6724 5.49982 16.7977C5.46074 16.9231 5.39735 17.0396 5.31327 17.1405C5.22919 17.2414 5.12606 17.3247 5.00976 17.3858C4.89347 17.4468 4.7663 17.4843 4.6355 17.4962C4.5047 17.5081 4.37285 17.4941 4.24746 17.455C4.12207 17.416 4.00561 17.3526 3.90471 17.2685C3.80382 17.1844 3.72048 17.0813 3.65945 16.965C3.59841 16.8487 3.56088 16.7215 3.549 16.5907C3.517 16.2317 3.5 15.8677 3.5 15.5007C3.50345 12.3192 4.76884 9.26892 7.01852 7.01923ZM15.5 23.5637C16.9582 23.5621 18.3562 22.9822 19.3874 21.9511C20.4185 20.9199 20.9984 19.5219 21 18.0637C21 15.7057 17.748 10.2207 16.349 7.97271C16.2536 7.83573 16.1264 7.72385 15.9784 7.64659C15.8304 7.56933 15.6659 7.52899 15.499 7.52899C15.3321 7.52899 15.1676 7.56933 15.0196 7.64659C14.8716 7.72385 14.7444 7.83573 14.649 7.97271C13.252 10.2217 10 15.7067 10 18.0637C10.0016 19.5219 10.5815 20.9199 11.6126 21.9511C12.6438 22.9822 14.0418 23.5621 15.5 23.5637ZM12.25 17.5637C12.3826 17.5637 12.5098 17.6164 12.6036 17.7102C12.6973 17.8039 12.75 17.9311 12.75 18.0637C12.7508 18.7928 13.0407 19.4918 13.5563 20.0074C14.0719 20.523 14.7709 20.8129 15.5 20.8137C15.6326 20.8137 15.7598 20.8664 15.8536 20.9602C15.9473 21.0539 16 21.1811 16 21.3137C16 21.4463 15.9473 21.5735 15.8536 21.6673C15.7598 21.761 15.6326 21.8137 15.5 21.8137C14.5058 21.8127 13.5525 21.4172 12.8495 20.7142C12.1465 20.0112 11.751 19.058 11.75 18.0637C11.75 17.9311 11.8027 17.8039 11.8964 17.7102C11.9902 17.6164 12.1174 17.5637 12.25 17.5637ZM11.289 24.5737C10.7628 24.3289 10.2589 24.0388 9.783 23.7067C9.67545 23.63 9.55375 23.5753 9.42495 23.5459C9.29614 23.5164 9.16278 23.5128 9.03258 23.5352C8.90237 23.5576 8.77789 23.6056 8.66634 23.6764C8.55478 23.7472 8.45837 23.8394 8.38266 23.9477C8.30695 24.056 8.25344 24.1782 8.22524 24.3073C8.19704 24.4364 8.19469 24.5698 8.21834 24.6997C8.24199 24.8297 8.29117 24.9538 8.36303 25.0646C8.43489 25.1755 8.528 25.271 8.637 25.3457C9.20814 25.7448 9.81311 26.0931 10.445 26.3867C10.6848 26.4945 10.9574 26.5036 11.2039 26.4118C11.4503 26.3201 11.6507 26.135 11.7616 25.8967C11.8726 25.6583 11.8852 25.3858 11.7968 25.1382C11.7083 24.8906 11.5259 24.6878 11.289 24.5737ZM25.5054 19.1825C25.6697 19.1904 25.8295 19.2386 25.9706 19.323C26.1118 19.4074 26.23 19.5253 26.3147 19.6663C26.3994 19.8072 26.448 19.9669 26.4563 20.1312C26.4645 20.2954 26.4321 20.4592 26.362 20.6079C26.0649 21.2372 25.7136 21.8395 25.312 22.4079C25.237 22.517 25.1412 22.6102 25.0299 22.682C24.9187 22.7537 24.7943 22.8027 24.664 22.826C24.5337 22.8494 24.4001 22.8466 24.2708 22.8179C24.1416 22.7892 24.0194 22.7351 23.9112 22.6588C23.803 22.5824 23.7111 22.4854 23.6407 22.3733C23.5704 22.2611 23.5229 22.1362 23.5013 22.0056C23.4796 21.875 23.484 21.7414 23.5144 21.6125C23.5447 21.4837 23.6003 21.3621 23.678 21.2549C24.0126 20.7812 24.3054 20.2793 24.553 19.7549C24.6373 19.576 24.7728 19.4261 24.9424 19.3242C25.1119 19.2224 25.3078 19.173 25.5054 19.1825ZM6.45 19.7619C6.33675 19.522 6.13285 19.3369 5.88314 19.2474C5.63344 19.1578 5.35839 19.1712 5.1185 19.2844C4.87861 19.3977 4.69354 19.6016 4.60399 19.8513C4.51444 20.101 4.52775 20.376 4.641 20.6159C4.93902 21.245 5.29065 21.8472 5.692 22.4159C5.8452 22.6322 6.07796 22.7788 6.33917 22.8236C6.60039 22.8683 6.8687 22.8076 7.08518 22.6547C7.30166 22.5019 7.44861 22.2693 7.49376 22.0082C7.53892 21.747 7.47858 21.4786 7.326 21.2619C6.99103 20.7883 6.69792 20.2864 6.45 19.7619ZM14.634 25.4629C15.2129 25.5124 15.7951 25.5124 16.374 25.4629C16.6383 25.4401 16.9008 25.5232 17.1038 25.694C17.3068 25.8647 17.4337 26.1091 17.4565 26.3734C17.4793 26.6377 17.3962 26.9002 17.2254 27.1032C17.0547 27.3062 16.8103 27.4331 16.546 27.4559C15.8526 27.5154 15.1554 27.5154 14.462 27.4559C14.1977 27.4331 13.9533 27.3062 13.7826 27.1032C13.6118 26.9002 13.5287 26.6377 13.5515 26.3734C13.5743 26.1091 13.7012 25.8647 13.9042 25.694C14.1072 25.5232 14.3697 25.4401 14.634 25.4629ZM21.222 23.7005C20.7462 24.0326 20.2427 24.323 19.717 24.5685C19.4766 24.6806 19.2905 24.8835 19.1998 25.1328C19.109 25.382 19.1209 25.6571 19.233 25.8975C19.3451 26.1379 19.548 26.324 19.7973 26.4148C20.0465 26.5055 20.3216 26.4936 20.562 26.3815C21.1931 26.0866 21.7976 25.738 22.369 25.3395C22.4766 25.2642 22.5683 25.1684 22.639 25.0577C22.7096 24.9469 22.7577 24.8233 22.7805 24.694C22.8033 24.5646 22.8005 24.432 22.7721 24.3038C22.7437 24.1755 22.6903 24.0541 22.615 23.9465C22.5397 23.8389 22.4439 23.7472 22.3332 23.6766C22.2224 23.6059 22.0988 23.5578 21.9694 23.535C21.8401 23.5122 21.7075 23.515 21.5793 23.5434C21.451 23.5718 21.3296 23.6252 21.222 23.7005Z" fill="#EB602B"/>
</svg>
