<svg width="32" height="32" viewBox="0 0 32 32" fill="none" xmlns="http://www.w3.org/2000/svg">
<path d="M6.72627 29.9912C6.14715 29.9527 5.58315 29.7897 5.0727 29.5135C4.56224 29.2373 4.11733 28.8543 3.76827 28.3906C3.202 27.6015 2.93454 26.6368 3.0136 25.6688C3.09266 24.7007 3.51311 23.7923 4.19992 23.1055L13.7136 13.2754C13.3129 11.8846 13.2946 10.4115 13.6608 9.01128C14.027 7.61103 14.7641 6.33546 15.7943 5.31893C16.8246 4.3024 18.11 3.58254 19.515 3.23519C20.9201 2.88784 22.3928 2.92584 23.778 3.34521C24.1925 3.47025 24.5675 3.70042 24.8666 4.01333C25.1657 4.32623 25.3788 4.71122 25.485 5.13086C25.5917 5.54595 25.59 5.98149 25.48 6.39573C25.3701 6.80997 25.1556 7.18903 24.8571 7.49658L21.4352 11.0356L21.4372 11.0493L21.4499 11.0508L24.8718 7.5083C25.1715 7.19869 25.5457 6.97134 25.9586 6.84808C26.3715 6.72481 26.8092 6.70977 27.2295 6.80439C27.6499 6.89902 28.0389 7.10014 28.3592 7.38843C28.6794 7.67673 28.9202 8.04252 29.0583 8.45068L29.2585 9.04248L29.2409 9.07812C29.5391 10.2651 29.5627 11.5045 29.3099 12.702C29.0571 13.8995 28.5346 15.0236 27.7822 15.9889C27.0297 16.9542 26.0671 17.7351 24.9674 18.2725C23.8678 18.8098 22.6601 19.0893 21.4362 19.0898C20.7717 19.0898 20.1098 19.0075 19.4655 18.8447C17.2736 21.1318 10.2141 28.4424 9.88253 28.7861C9.50667 29.1707 9.0577 29.4762 8.56203 29.6846C8.06636 29.8931 7.53401 30.0003 6.99629 30C6.90645 30 6.81612 29.9971 6.72627 29.9912Z" fill="white"/>
<path d="M27.6374 8.93022C27.5815 8.76507 27.4836 8.61729 27.3534 8.50135C27.2231 8.38541 27.065 8.3053 26.8945 8.26887C26.7263 8.22976 26.5509 8.23519 26.3855 8.28462C26.2201 8.33405 26.0704 8.42577 25.9513 8.55072L22.0949 12.5421C22.0678 12.5702 22.0344 12.5916 21.9975 12.6045C21.9606 12.6174 21.9212 12.6215 21.8825 12.6165L20.3223 12.4213C20.2682 12.4147 20.2177 12.3907 20.1785 12.353C20.1393 12.3152 20.1134 12.2656 20.1048 12.2119L19.8552 10.6576C19.8493 10.6189 19.8523 10.5794 19.864 10.5421C19.8757 10.5048 19.8957 10.4706 19.9226 10.4422L23.78 6.45295C23.9004 6.32804 23.9867 6.17428 24.0306 6.00644C24.0744 5.83859 24.0745 5.66228 24.0306 5.49443C23.9867 5.32657 23.9005 5.1728 23.7801 5.04786C23.6598 4.92293 23.5093 4.83102 23.3432 4.78095C22.1607 4.42292 20.901 4.40676 19.7096 4.73433C18.5183 5.0619 17.444 5.71983 16.6107 6.63212C15.7775 7.54441 15.2194 8.67383 15.0008 9.88989C14.7823 11.1059 14.9122 12.359 15.3757 13.5044C15.3941 13.548 15.3992 13.5961 15.3904 13.6426C15.3816 13.6891 15.3594 13.7321 15.3264 13.7661L5.26008 24.1666C4.82893 24.5977 4.56329 25.1669 4.50973 25.7743C4.45617 26.3816 4.61811 26.9885 4.96716 27.4885C5.18671 27.7798 5.46644 28.0205 5.78734 28.1941C6.10823 28.3676 6.46275 28.47 6.82677 28.4943C7.19079 28.5185 7.55576 28.4641 7.89685 28.3347C8.23794 28.2052 8.54714 28.0038 8.80341 27.7442C8.80341 27.7442 17.8067 18.4208 18.92 17.244C18.9528 17.2098 18.9951 17.1863 19.0414 17.1765C19.0876 17.1666 19.1358 17.1708 19.1797 17.1886C20.34 17.6144 21.5972 17.7031 22.8058 17.4444C24.0144 17.1858 25.1252 16.5903 26.0096 15.727C26.8941 14.8636 27.5161 13.7675 27.8038 12.5655C28.0915 11.3634 28.0331 10.1045 27.6354 8.93425L27.6374 8.93022ZM8.06757 26.3308C7.90572 26.4982 7.69083 26.6043 7.4595 26.6311C7.22817 26.6578 6.99472 26.6035 6.79894 26.4774C6.60315 26.3514 6.45714 26.1613 6.38577 25.9396C6.31441 25.718 6.32212 25.4784 6.40758 25.2618C6.49304 25.0452 6.65097 24.8649 6.85445 24.7516C7.05794 24.6384 7.29439 24.5992 7.52352 24.6408C7.75265 24.6824 7.96028 24.8021 8.11104 24.9796C8.26179 25.157 8.34635 25.3813 8.35028 25.6142C8.35256 25.7463 8.32876 25.8776 8.28025 26.0006C8.23174 26.1235 8.15947 26.2357 8.06757 26.3308Z" fill="#4085C6"/>
</svg>
