<svg width="32" height="32" viewBox="0 0 32 32" fill="none" xmlns="http://www.w3.org/2000/svg">
<path d="M6.20239 12.6311C6.29522 12.6416 6.38855 12.647 6.48198 12.6474C7.06342 12.6476 7.62612 12.4417 8.07003 12.0662C8.51394 11.6907 8.81029 11.1699 8.9064 10.5964C8.9176 10.565 8.92714 10.533 8.93497 10.5005L9.32475 7.00876C9.33014 6.96318 9.34772 6.91989 9.37565 6.88346C9.40358 6.84704 9.44082 6.81882 9.48345 6.80179C9.52607 6.78476 9.5725 6.77955 9.61784 6.78671C9.66318 6.79386 9.70576 6.81312 9.74107 6.84244L10.6288 7.58936C10.7314 7.67579 10.85 7.74117 10.9778 7.78176C11.1057 7.82236 11.2402 7.83738 11.3739 7.82596C11.5075 7.81454 11.6376 7.77691 11.7567 7.71522C11.8758 7.65353 11.9816 7.56898 12.068 7.4664C12.1545 7.36383 12.2198 7.24523 12.2604 7.11739C12.301 6.98955 12.3161 6.85496 12.3046 6.72132C12.2932 6.58767 12.2556 6.45758 12.1939 6.33848C12.1322 6.21937 12.0477 6.11359 11.9451 6.02716L9.96249 4.35986C9.75051 4.18134 9.49404 4.06372 9.22044 4.01956C8.94684 3.9754 8.66639 4.00635 8.40901 4.10911C8.15163 4.21188 7.92698 4.3826 7.75903 4.60305C7.59109 4.8235 7.48615 5.08542 7.45542 5.36085L7.21563 7.51181C7.21161 7.54665 7.20049 7.5803 7.18293 7.61067C7.16538 7.64103 7.14178 7.66747 7.11359 7.68834C7.08483 7.7101 7.0517 7.72538 7.01647 7.73313C6.98124 7.74088 6.94476 7.74091 6.90952 7.73323C6.85714 7.72303 6.80408 7.71487 6.75034 7.70874C6.42713 7.67277 6.10001 7.7008 5.78764 7.79124C5.47527 7.88169 5.18377 8.03277 4.92979 8.23587C4.41686 8.64605 4.08787 9.24319 4.01521 9.89593C3.94255 10.5487 4.13216 11.2035 4.54234 11.7165C4.95251 12.2294 5.54965 12.5584 6.20239 12.6311Z" fill="white"/>
<path d="M10.5982 17.835C10.6918 17.5813 10.6809 17.3008 10.5678 17.0552C10.4547 16.8095 10.2488 16.6188 9.99515 16.5249L8.84417 16.1004C8.58437 16.0036 8.30317 15.9793 8.0306 16.0299C7.75803 16.0805 7.50432 16.2041 7.29657 16.3877C7.08881 16.5713 6.93481 16.8078 6.851 17.072C6.7672 17.3363 6.75675 17.6184 6.82075 17.8881L7.03095 18.7707C7.04374 18.8243 7.03883 18.8807 7.01694 18.9312C6.99505 18.9818 6.95736 19.024 6.90953 19.0513C6.6329 19.2105 6.40599 19.4435 6.25419 19.7242C6.10238 20.0049 6.03167 20.3224 6.04994 20.641C6.06822 20.9596 6.17477 21.2669 6.35767 21.5284C6.54058 21.79 6.79263 21.9955 7.08565 22.122C7.37866 22.2485 7.70109 22.2909 8.01687 22.2447C8.33265 22.1984 8.62934 22.0652 8.87375 21.86C9.11817 21.6548 9.30067 21.3856 9.40087 21.0826C9.50106 20.7796 9.51498 20.4546 9.44109 20.1442C9.41762 20.0503 9.18191 18.9962 9.0911 18.6136C9.08499 18.5874 9.0861 18.56 9.09431 18.5344C9.10252 18.5087 9.11752 18.4858 9.13772 18.468C9.15792 18.4502 9.18256 18.4382 9.20903 18.4333C9.23549 18.4284 9.2628 18.4308 9.28803 18.4401C9.41379 18.4864 9.54743 18.5075 9.68134 18.5022C9.81524 18.4968 9.94678 18.4651 10.0684 18.409C10.1901 18.3528 10.2995 18.2732 10.3904 18.1747C10.4813 18.0762 10.5519 17.9608 10.5982 17.835Z" fill="white"/>
<path d="M17.0113 8.09855C17.0113 8.77511 17.2801 9.42395 17.7584 9.90235C18.2368 10.3807 18.8857 10.6495 19.5622 10.6495C20.2388 10.6495 20.8876 10.3807 21.366 9.90235C21.8444 9.42395 22.1132 8.77511 22.1132 8.09855C22.1132 7.422 21.8444 6.77316 21.366 6.29476C20.8876 5.81637 20.2388 5.54761 19.5622 5.54761C18.8857 5.54761 18.2368 5.81637 17.7584 6.29476C17.2801 6.77316 17.0113 7.422 17.0113 8.09855Z" fill="white"/>
<path d="M26.1947 11.3831C25.8472 11.3829 25.5101 11.5009 25.2386 11.7177L24.4988 12.3096C24.1538 12.5857 23.7429 12.7675 23.3064 12.8371C22.87 12.9067 22.4229 12.8617 22.0091 12.7065C20.4303 12.1139 18.6901 12.1139 17.1113 12.7065L16.7837 12.83C16.4244 12.9651 16.039 13.017 15.6567 12.9816C15.2744 12.9463 14.9051 12.8246 14.5766 12.6259L13.7206 12.1116C13.3727 11.9075 12.9584 11.8488 12.5676 11.9485C12.1768 12.0482 11.8411 12.298 11.6335 12.6438C11.4259 12.9896 11.3632 13.4034 11.459 13.7951C11.5548 14.1869 11.8014 14.525 12.1451 14.736L13.0073 15.2534C13.7309 15.6902 14.5442 15.9569 15.386 16.0334C16.2277 16.11 17.0758 15.9943 17.8664 15.6952C17.9009 15.6822 17.9376 15.6757 17.9745 15.6758C18.051 15.6755 18.1248 15.7038 18.1815 15.7551C18.2381 15.8065 18.2735 15.8772 18.2806 15.9533L18.4133 17.2798C18.4242 17.3832 18.4033 17.4875 18.3533 17.5787C18.3034 17.6699 18.2267 17.7436 18.1337 17.79L16.547 18.5839C15.6123 19.0471 14.8262 19.763 14.2777 20.6503C13.7292 21.5377 13.4404 22.561 13.444 23.6041V25.6735C13.444 26.0794 13.6053 26.4687 13.8923 26.7557C14.1794 27.0428 14.5687 27.204 14.9746 27.204C15.3805 27.204 15.7698 27.0428 16.0569 26.7557C16.3439 26.4687 16.5052 26.0794 16.5052 25.6735V23.599C16.5034 23.1249 16.6346 22.6598 16.8839 22.2565C17.1331 21.8532 17.4905 21.5279 17.9153 21.3175L18.3306 21.1134C18.3532 21.1018 18.3785 21.0963 18.4039 21.0973C18.4293 21.0984 18.454 21.106 18.4755 21.1195C18.497 21.1329 18.5147 21.1516 18.527 21.1737C18.5393 21.1958 18.5458 21.2207 18.5459 21.246C18.5483 22.4626 18.9438 23.6459 19.6734 24.6194L21.755 27.3877C21.8756 27.5485 22.0267 27.684 22.1997 27.7864C22.3726 27.8888 22.564 27.9561 22.763 27.9845C22.962 28.013 23.1646 28.0019 23.3593 27.952C23.554 27.9022 23.737 27.8144 23.8978 27.6938C24.0586 27.5732 24.1941 27.4221 24.2965 27.2492C24.3989 27.0762 24.4662 26.8848 24.4947 26.6858C24.5231 26.4868 24.512 26.2842 24.4622 26.0895C24.4123 25.8948 24.3245 25.7118 24.2039 25.551L22.1213 22.7817C21.791 22.3397 21.6121 21.8029 21.6111 21.2511V18.5257L21.604 18.3727L21.406 16.3962C21.3989 16.325 21.4068 16.2532 21.4292 16.1852C21.4516 16.1173 21.4881 16.0549 21.5362 16.002C21.5843 15.949 21.643 15.9068 21.7084 15.8781C21.7739 15.8493 21.8447 15.8346 21.9162 15.835C21.9442 15.835 21.9722 15.837 21.9999 15.8411C22.7757 15.9703 23.5699 15.9356 24.3314 15.7391C25.0929 15.5426 25.8048 15.1887 26.4212 14.7003L27.161 14.1085C27.4085 13.9103 27.5884 13.6402 27.6758 13.3354C27.7631 13.0306 27.7537 12.7062 27.6487 12.407C27.5438 12.1078 27.3485 11.8485 27.0898 11.6651C26.8312 11.4817 26.522 11.3831 26.2049 11.3831H26.1947Z" fill="white"/>
</svg>
