<svg width="32" height="32" viewBox="0 0 32 32" fill="none" xmlns="http://www.w3.org/2000/svg">
<path fill-rule="evenodd" clip-rule="evenodd" d="M21.5 30C20.837 29.9998 20.2012 29.7364 19.7324 29.2676C19.2636 28.7988 19.0002 28.163 19 27.5V27H12V27.5C11.9998 28.163 11.7364 28.7988 11.2676 29.2676C10.7988 29.7364 10.163 29.9998 9.5 30H7.5C6.83701 29.9998 6.20123 29.7364 5.73242 29.2676C5.26362 28.7988 5.00017 28.163 5 27.5V27C4.99975 26.8086 5.02688 26.6182 5.08057 26.4346C4.98413 26.36 4.89247 26.2794 4.80615 26.1934C4.29234 25.6776 4.00267 24.98 4 24.252V22.457C3.99981 22.0943 4.07147 21.7351 4.21084 21.4002C4.3502 21.0653 4.55452 20.7613 4.812 20.5058L5.52147 19.7968C5.7606 19.5584 5.94853 19.2736 6.07373 18.96L7.80322 14.6358C8.02441 14.0792 8.40765 13.6019 8.90328 13.2657C9.39891 12.9294 9.98409 12.7498 10.583 12.75H11.6274C11.3345 12.482 11.0699 12.1845 10.8379 11.8623C10.1298 10.8848 9.74898 9.70845 9.75 8.50145C9.75134 7.90457 9.98823 7.33235 10.4092 6.90918C10.5818 6.73686 10.7813 6.59387 11 6.48583V5.49999C11 5.00554 11.1465 4.52218 11.4212 4.11104C11.6959 3.69991 12.0864 3.37947 12.5432 3.19026C13 3.00105 13.5027 2.95157 13.9876 3.04807C14.4726 3.14458 14.918 3.38273 15.2676 3.73241C15.3514 3.81572 15.4291 3.90498 15.5 3.9995C15.5709 3.90498 15.6486 3.81572 15.7324 3.73241C16.082 3.38286 16.5275 3.14482 17.0124 3.04839C17.4973 2.95195 17.9999 3.00146 18.4567 3.19065C18.9134 3.37984 19.3038 3.70021 19.5786 4.11127C19.8533 4.52232 19.9999 5.0056 20 5.49999V6.48339C20.375 6.67033 20.6906 6.95799 20.9114 7.31417C21.1322 7.67034 21.2494 8.08095 21.25 8.49999C21.2478 9.29965 21.0799 10.0902 20.7568 10.8217C20.4338 11.5532 19.9626 12.2098 19.373 12.75H20.4082C21.007 12.7489 21.5924 12.9277 22.0884 13.2631C22.5845 13.5986 22.9684 14.0752 23.1904 14.6313L24.9248 18.9551C25.0489 19.2687 25.236 19.5536 25.4746 19.792L26.1953 20.5137C26.4518 20.7684 26.6547 21.0719 26.792 21.4062C26.9296 21.7395 27.0003 22.0965 27 22.457V24.25C26.9971 24.9796 26.7065 25.6786 26.1914 26.1953C26.1062 26.2809 26.0151 26.3605 25.9189 26.4336C25.973 26.6175 26.0003 26.8083 26 27V27.5C25.9998 28.163 25.7364 28.7988 25.2676 29.2676C24.7988 29.7364 24.163 29.9998 23.5 30H21.5ZM19 17.75C18.5858 17.7509 18.178 17.6483 17.8135 17.4517C17.7709 17.5542 17.7217 17.6539 17.666 17.75H19ZM13.334 17.75C13.2783 17.654 13.2292 17.5543 13.187 17.4517C12.8223 17.6483 12.4143 17.7509 12 17.75H13.334Z" fill="white"/>
<path fill-rule="evenodd" clip-rule="evenodd" d="M14.4055 12.7148C14.3441 12.6298 14.2575 12.5662 14.158 12.533C13.3119 12.2501 12.576 11.7087 12.0542 10.985C11.5324 10.2614 11.2511 9.39214 11.25 8.5C11.25 8.30109 11.329 8.11033 11.4697 7.96968C11.6103 7.82904 11.8011 7.75001 12 7.75C12.0657 7.75001 12.1307 7.73708 12.1914 7.71196C12.252 7.68683 12.3071 7.65 12.3536 7.60357C12.4 7.55714 12.4368 7.50202 12.462 7.44135C12.4871 7.38069 12.5 7.31566 12.5 7.25V5.5C12.5 5.23478 12.6054 4.98043 12.7929 4.79289C12.9804 4.60536 13.2348 4.5 13.5 4.5C13.7652 4.5 14.0196 4.60536 14.2071 4.79289C14.3946 4.98043 14.5 5.23478 14.5 5.5V7.25C14.5 7.31566 14.5129 7.38069 14.538 7.44135C14.5632 7.50202 14.6 7.55714 14.6464 7.60357C14.6929 7.65 14.748 7.68683 14.8087 7.71196C14.8693 7.73708 14.9343 7.75001 15 7.75H16C16.0657 7.75001 16.1307 7.73708 16.1914 7.71196C16.252 7.68683 16.3071 7.65 16.3536 7.60357C16.4 7.55714 16.4368 7.50202 16.462 7.44135C16.4871 7.38069 16.5 7.31566 16.5 7.25V5.5C16.5 5.23478 16.6054 4.98043 16.7929 4.79289C16.9804 4.60536 17.2348 4.5 17.5 4.5C17.7652 4.5 18.0196 4.60536 18.2071 4.79289C18.3946 4.98043 18.5 5.23478 18.5 5.5V7.25C18.5 7.31566 18.5129 7.38069 18.538 7.44135C18.5632 7.50202 18.6 7.55714 18.6464 7.60357C18.6929 7.65 18.748 7.68683 18.8087 7.71196C18.8693 7.73708 18.9343 7.75001 19 7.75C19.1989 7.75001 19.3897 7.82904 19.5303 7.96968C19.671 8.11033 19.75 8.30109 19.75 8.5C19.7487 9.3921 19.4674 10.2613 18.9456 10.9849C18.4238 11.7085 17.688 12.25 16.842 12.533C16.7425 12.5661 16.6559 12.6297 16.5945 12.7148C16.5331 12.7999 16.5001 12.9021 16.5 13.007V16.5C16.5 16.7652 16.3946 17.0196 16.2071 17.2071C16.0196 17.3946 15.7652 17.5 15.5 17.5C15.2348 17.5 14.9804 17.3946 14.7929 17.2071C14.6054 17.0196 14.5 16.7652 14.5 16.5V13.007C14.4999 12.9021 14.4669 12.7999 14.4055 12.7148ZM7 26.5H10C10.0657 26.5 10.1307 26.5129 10.1914 26.538C10.252 26.5631 10.3072 26.6 10.3536 26.6464C10.4 26.6928 10.4369 26.748 10.462 26.8086C10.4871 26.8693 10.5 26.9343 10.5 27V27.5C10.5 27.7652 10.3946 28.0196 10.2071 28.2071C10.0196 28.3946 9.76522 28.5 9.5 28.5H7.5C7.23479 28.5 6.98043 28.3946 6.7929 28.2071C6.60536 28.0196 6.5 27.7652 6.5 27.5V27C6.49999 26.9343 6.51292 26.8693 6.53804 26.8086C6.56317 26.748 6.6 26.6929 6.64643 26.6464C6.69286 26.6 6.74798 26.5632 6.80865 26.538C6.86932 26.5129 6.93434 26.5 7 26.5ZM24 26.5H21C20.9343 26.5 20.8693 26.5129 20.8086 26.538C20.748 26.5631 20.6928 26.6 20.6464 26.6464C20.6 26.6928 20.5631 26.748 20.538 26.8086C20.5129 26.8693 20.5 26.9343 20.5 27V27.5C20.5 27.7652 20.6054 28.0196 20.7929 28.2071C20.9804 28.3946 21.2348 28.5 21.5 28.5H23.5C23.7652 28.5 24.0196 28.3946 24.2071 28.2071C24.3946 28.0196 24.5 27.7652 24.5 27.5V27C24.5 26.9343 24.4871 26.8693 24.462 26.8086C24.4369 26.748 24.4 26.6928 24.3536 26.6464C24.3072 26.6 24.252 26.5631 24.1914 26.538C24.1307 26.5129 24.0657 26.5 24 26.5ZM24.415 20.854L25.134 21.573C25.2503 21.6889 25.3426 21.8267 25.4054 21.9784C25.4682 22.1301 25.5004 22.2928 25.5 22.457V24.25C25.4995 24.5814 25.3676 24.899 25.1333 25.1333C24.899 25.3676 24.5814 25.4995 24.25 25.5H6.75C6.41864 25.4995 6.10101 25.3676 5.8667 25.1333C5.6324 24.899 5.50053 24.5814 5.5 24.25V22.457C5.49964 22.2928 5.5318 22.1301 5.59462 21.9784C5.65744 21.8267 5.74967 21.6889 5.866 21.573L6.582 20.857C6.96483 20.4746 7.26593 20.0184 7.467 19.516L9.196 15.193C9.30613 14.914 9.49792 14.6747 9.74629 14.5064C9.99465 14.3382 10.288 14.2488 10.588 14.25H12C12.2652 14.25 12.5196 14.3554 12.7071 14.5429C12.8946 14.7304 13 14.9848 13 15.25C13 15.5152 12.8946 15.7696 12.7071 15.9571C12.5196 16.1446 12.2652 16.25 12 16.25H11.265C11.1651 16.25 11.0676 16.2799 10.9849 16.3359C10.9022 16.3919 10.8381 16.4713 10.801 16.564L10.001 18.564C9.97055 18.6399 9.95921 18.7222 9.96796 18.8035C9.97671 18.8849 10.0053 18.9628 10.0512 19.0306C10.0971 19.0983 10.1589 19.1537 10.2313 19.192C10.3036 19.2302 10.3842 19.2502 10.466 19.25H20.533C20.6148 19.2501 20.6954 19.2302 20.7677 19.1919C20.84 19.1537 20.9019 19.0983 20.9478 19.0305C20.9937 18.9628 21.0223 18.8849 21.031 18.8035C21.0398 18.7222 21.0284 18.6399 20.998 18.564L20.198 16.564C20.1609 16.4713 20.0968 16.3919 20.0141 16.3359C19.9314 16.2799 19.8339 16.25 19.734 16.25H19C18.7348 16.25 18.4804 16.1446 18.2929 15.9571C18.1054 15.7696 18 15.5152 18 15.25C18 14.9848 18.1054 14.7304 18.2929 14.5429C18.4804 14.3554 18.7348 14.25 19 14.25H20.408C20.7081 14.2489 21.0016 14.3384 21.2499 14.5068C21.4983 14.6753 21.69 14.9148 21.8 15.194V15.189L23.532 19.513C23.732 20.0154 24.0325 20.4717 24.415 20.854Z" fill="#4085C6"/>
</svg>
