<svg width="32" height="32" viewBox="0 0 32 32" fill="none" xmlns="http://www.w3.org/2000/svg">
<path d="M12.5028 13.0017H19.5028C19.5807 13.0017 19.6575 12.9834 19.7271 12.9485C19.7967 12.9136 19.8571 12.8628 19.9037 12.8004C19.9502 12.7379 19.9815 12.6655 19.995 12.5888C20.0086 12.5121 20.0041 12.4333 19.9818 12.3587C19.8034 11.7126 19.474 11.1181 19.0207 10.6243C18.5675 10.1306 18.0033 9.75158 17.3748 9.51867C17.332 9.50314 17.2942 9.47624 17.2655 9.44085C17.2368 9.40546 17.2182 9.36293 17.2118 9.31781C17.2055 9.27269 17.2115 9.22669 17.2293 9.18474C17.2471 9.14278 17.2759 9.10647 17.3128 9.07967C17.7003 8.80234 17.9898 8.40913 18.1394 7.95673C18.2891 7.50432 18.2913 7.01607 18.1457 6.56235C18 6.10862 17.7141 5.71285 17.3291 5.43207C16.9441 5.15129 16.4798 5 16.0033 5C15.5268 5 15.0626 5.15129 14.6775 5.43207C14.2925 5.71285 14.0066 6.10862 13.861 6.56235C13.7153 7.01607 13.7175 7.50432 13.8672 7.95673C14.0169 8.40913 14.3063 8.80234 14.6938 9.07967C14.7307 9.10641 14.7596 9.14271 14.7773 9.18466C14.7951 9.2266 14.801 9.27261 14.7946 9.3177C14.7881 9.36278 14.7694 9.40524 14.7405 9.44049C14.7117 9.47573 14.6737 9.50242 14.6308 9.51767C14.0022 9.75044 13.438 10.1294 12.9847 10.6232C12.5314 11.117 12.202 11.7115 12.0238 12.3577C12.0013 12.4324 11.9967 12.5113 12.0101 12.5881C12.0236 12.6649 12.0549 12.7375 12.1014 12.8001C12.148 12.8627 12.2085 12.9135 12.2782 12.9485C12.3479 12.9835 12.4248 13.0017 12.5028 13.0017Z" fill="#51247A"/>
<path d="M27.9818 21.8577C27.8034 21.2116 27.474 20.6171 27.0207 20.1234C26.5675 19.6296 26.0033 19.2506 25.3748 19.0177C25.332 19.0022 25.2942 18.9753 25.2655 18.9399C25.2367 18.9045 25.2182 18.862 25.2118 18.8168C25.2055 18.7717 25.2115 18.7257 25.2293 18.6838C25.2471 18.6418 25.2759 18.6055 25.3128 18.5787C25.7002 18.3013 25.9895 17.9081 26.1391 17.4557C26.2886 17.0033 26.2907 16.5151 26.145 16.0614C25.9994 15.6078 25.7134 15.2121 25.3284 14.9314C24.9434 14.6506 24.4793 14.4994 24.0028 14.4994C23.5263 14.4994 23.0622 14.6506 22.6772 14.9314C22.2922 15.2121 22.0062 15.6078 21.8605 16.0614C21.7149 16.5151 21.717 17.0033 21.8665 17.4557C22.0161 17.9081 22.3054 18.3013 22.6928 18.5787C22.73 18.6053 22.7591 18.6416 22.7772 18.6836C22.7952 18.7256 22.8013 18.7717 22.7949 18.817C22.7885 18.8623 22.7698 18.9049 22.7409 18.9403C22.712 18.9757 22.6739 19.0024 22.6308 19.0177C22.271 19.1456 21.9315 19.3248 21.6228 19.5497C21.5834 19.5776 21.5529 19.6164 21.5352 19.6613C21.5174 19.7063 21.5131 19.7554 21.5228 19.8027L22.0438 22.3027C22.0551 22.3591 22.0856 22.4098 22.1301 22.4463C22.1746 22.4827 22.2303 22.5027 22.2878 22.5027H27.5028C27.5807 22.5027 27.6575 22.4845 27.7271 22.4495C27.7967 22.4146 27.8571 22.3639 27.9037 22.3014C27.9502 22.239 27.9815 22.1665 27.995 22.0898C28.0086 22.0131 28.0041 21.9343 27.9818 21.8597V21.8577Z" fill="#51247A"/>
<path d="M10.4808 19.8017C10.4905 19.7544 10.4862 19.7053 10.4684 19.6604C10.4506 19.6154 10.4202 19.5766 10.3808 19.5487C10.0724 19.3235 9.73281 19.1442 9.37279 19.0167C9.32971 19.0015 9.29163 18.9747 9.2627 18.9393C9.23376 18.9039 9.21509 18.8613 9.20869 18.816C9.2023 18.7708 9.20844 18.7246 9.22644 18.6826C9.24444 18.6406 9.27362 18.6043 9.31079 18.5777C9.6983 18.3004 9.98774 17.9072 10.1374 17.4548C10.2871 17.0024 10.2893 16.5141 10.1436 16.0604C9.998 15.6067 9.71207 15.2109 9.32705 14.9301C8.94204 14.6493 8.47782 14.498 8.00129 14.498C7.52477 14.498 7.06055 14.6493 6.67553 14.9301C6.29052 15.2109 6.00459 15.6067 5.85895 16.0604C5.71331 16.5141 5.71549 17.0024 5.86517 17.4548C6.01484 17.9072 6.30429 18.3004 6.69179 18.5777C6.72868 18.6045 6.75756 18.6408 6.77531 18.6827C6.79307 18.7247 6.79903 18.7707 6.79254 18.8157C6.78606 18.8608 6.76738 18.9033 6.73852 18.9385C6.70966 18.9738 6.67172 19.0005 6.62879 19.0157C6.0002 19.2485 5.43597 19.6274 4.98268 20.1212C4.52938 20.615 4.20003 21.2095 4.02179 21.8557C3.9989 21.9307 3.99396 22.01 4.00736 22.0872C4.02077 22.1645 4.05214 22.2375 4.09896 22.3003C4.14577 22.3632 4.20672 22.4142 4.27687 22.4492C4.34701 22.4842 4.42441 22.5022 4.50279 22.5017H9.71579C9.7733 22.5017 9.82903 22.4818 9.87351 22.4453C9.91799 22.4088 9.94848 22.3581 9.95979 22.3017L10.4808 19.8017Z" fill="#51247A"/>
<path d="M19.6688 15.8017C19.6227 15.576 19.5001 15.3731 19.3218 15.2274C19.1434 15.0816 18.9201 15.0019 18.6898 15.0017H13.3158C13.0854 15.0019 12.8622 15.0816 12.6838 15.2274C12.5054 15.3731 12.3829 15.576 12.3368 15.8017L10.2538 25.8017C10.2241 25.9469 10.2272 26.0969 10.2626 26.2409C10.298 26.3848 10.365 26.519 10.4587 26.6339C10.5524 26.7487 10.6705 26.8413 10.8044 26.9049C10.9382 26.9685 11.0846 27.0016 11.2328 27.0017H20.7728C20.921 27.0016 21.0673 26.9685 21.2012 26.9049C21.3351 26.8413 21.4531 26.7487 21.5468 26.6339C21.6405 26.519 21.7075 26.3848 21.743 26.2409C21.7784 26.0969 21.7814 25.9469 21.7518 25.8017L19.6688 15.8017ZM18.3028 24.8287C18.2559 24.8827 18.198 24.9259 18.1329 24.9556C18.0679 24.9853 17.9973 25.0007 17.9258 25.0007H14.0798C14.0082 25.0007 13.9375 24.9853 13.8724 24.9556C13.8073 24.9259 13.7493 24.8826 13.7023 24.8286C13.6554 24.7745 13.6206 24.711 13.6004 24.6424C13.5801 24.5738 13.5748 24.5016 13.5848 24.4307L13.9418 21.9307C13.9587 21.8114 14.018 21.7022 14.109 21.6232C14.1999 21.5442 14.3163 21.5007 14.4368 21.5007H17.5688C17.6893 21.5007 17.8057 21.5442 17.8966 21.6232C17.9876 21.7022 18.0469 21.8114 18.0638 21.9307L18.4208 24.4307C18.4308 24.5016 18.4254 24.5739 18.405 24.6425C18.3847 24.7112 18.3498 24.7747 18.3028 24.8287Z" fill="#51247A"/>
</svg>
