<svg width="32" height="32" viewBox="0 0 32 32" fill="none" xmlns="http://www.w3.org/2000/svg">
<path d="M14.2128 15.7234C14.2128 15.0463 14.4818 14.3968 14.9606 13.918C15.4394 13.4392 16.0888 13.1702 16.766 13.1702H24.1702C24.2379 13.1702 24.3029 13.1433 24.3507 13.0954C24.3986 13.0476 24.4255 12.9826 24.4255 12.9149V6.53191C24.4255 6.12563 24.2641 5.73598 23.9768 5.44869C23.6896 5.1614 23.2999 5 22.8936 5H5.53191C5.12563 5 4.73598 5.1614 4.44869 5.44869C4.1614 5.73598 4 6.12563 4 6.53191V16.7447C4 17.151 4.1614 17.5406 4.44869 17.8279C4.73598 18.1152 5.12563 18.2766 5.53191 18.2766H7.06383V21.8511C7.06365 21.9522 7.0935 22.0511 7.1496 22.1352C7.20569 22.2194 7.28551 22.285 7.37893 22.3237C7.47235 22.3624 7.57516 22.3725 7.67434 22.3528C7.77351 22.333 7.86458 22.2842 7.936 22.2126L11.871 18.2766H13.9574C14.0252 18.2766 14.0901 18.2497 14.138 18.2018C14.1859 18.1539 14.2128 18.089 14.2128 18.0213V15.7234Z" fill="white"/>
<path d="M26.9787 14.7021H16.766C16.4951 14.7021 16.2353 14.8097 16.0438 15.0013C15.8523 15.1928 15.7447 15.4526 15.7447 15.7234V21.8511C15.7447 22.1219 15.8523 22.3817 16.0438 22.5732C16.2353 22.7648 16.4951 22.8724 16.766 22.8724H21.3617L25.1078 26.2017C25.1813 26.267 25.2721 26.3097 25.3693 26.3246C25.4665 26.3396 25.566 26.3261 25.6557 26.2859C25.7455 26.2456 25.8217 26.1803 25.8752 26.0978C25.9287 26.0153 25.9573 25.9191 25.9575 25.8208V22.8724H26.9787C27.2496 22.8724 27.5094 22.7648 27.7009 22.5732C27.8924 22.3817 28 22.1219 28 21.8511V15.7234C28 15.4526 27.8924 15.1928 27.7009 15.0013C27.5094 14.8097 27.2496 14.7021 26.9787 14.7021Z" fill="white"/>
</svg>
