<svg width="32" height="32" viewBox="0 0 32 32" fill="none" xmlns="http://www.w3.org/2000/svg">
<path d="M23.7959 16.7539C23.7667 16.731 23.7328 16.7149 23.6967 16.7068C23.6605 16.6986 23.623 16.6987 23.5869 16.7069C23.5506 16.7148 23.5165 16.7307 23.4873 16.7536C23.458 16.7764 23.4343 16.8056 23.4179 16.8389L21.5479 20.5779C21.5317 20.6101 21.5227 20.6455 21.5215 20.6815C21.5203 20.7176 21.5269 20.7534 21.5409 20.7867C21.5548 20.8199 21.5758 20.8498 21.6024 20.8741C21.629 20.8985 21.6605 20.9168 21.6949 20.9279C22.1597 21.0764 22.611 21.2644 23.0439 21.4899C23.1037 21.52 23.1729 21.5257 23.2369 21.5059C23.3002 21.4848 23.3527 21.4395 23.3829 21.3799L25.2059 17.7349C25.2224 17.7017 25.2313 17.6653 25.2321 17.6282C25.2328 17.5912 25.2253 17.5545 25.2101 17.5207C25.1948 17.4869 25.1723 17.4569 25.1441 17.4329C25.1158 17.4089 25.0826 17.3915 25.0469 17.3819C24.5917 17.2592 24.1661 17.0456 23.7959 16.7539Z" fill="white"/>
<path d="M17.5969 8.59685C17.5661 8.58123 17.5325 8.5721 17.4981 8.57003C17.4637 8.56797 17.4292 8.57301 17.3969 8.58485C17.3645 8.59669 17.3349 8.61517 17.3101 8.63911C17.2853 8.66305 17.2658 8.69192 17.2529 8.72385C17.0701 9.1657 16.8179 9.57552 16.5059 9.93785C16.4813 9.96657 16.4635 10.0005 16.4538 10.037C16.4442 10.0736 16.4429 10.1119 16.4501 10.149C16.4573 10.1861 16.4728 10.2211 16.4955 10.2514C16.5181 10.2817 16.5473 10.3064 16.5809 10.3239L22.2289 13.2159C22.2619 13.2326 22.2982 13.2419 22.3352 13.2429C22.3722 13.244 22.409 13.2369 22.4429 13.2221C22.4768 13.2073 22.5071 13.1851 22.5314 13.1572C22.5558 13.1294 22.5737 13.0965 22.5839 13.0609C22.7108 12.6068 22.9285 12.1833 23.2239 11.8159C23.2471 11.7868 23.2635 11.753 23.272 11.7169C23.2805 11.6807 23.2808 11.6432 23.2729 11.6069C23.2651 11.5706 23.2493 11.5365 23.2266 11.5071C23.2039 11.4777 23.175 11.4537 23.1419 11.4369L17.5969 8.59685Z" fill="white"/>
<path d="M23.9539 14.001C23.9539 14.5314 24.1646 15.0401 24.5396 15.4152C24.9147 15.7903 25.4234 16.001 25.9539 16.001C26.4843 16.001 26.993 15.7903 27.3681 15.4152C27.7431 15.0401 27.9539 14.5314 27.9539 14.001C27.9539 13.4705 27.7431 12.9618 27.3681 12.5868C26.993 12.2117 26.4843 12.001 25.9539 12.001C25.4234 12.001 24.9147 12.2117 24.5396 12.5868C24.1646 12.9618 23.9539 13.4705 23.9539 14.001Z" fill="white"/>
<path d="M15.2528 4.87886C14.9743 4.60023 14.6435 4.37921 14.2795 4.22841C13.9155 4.07761 13.5254 4 13.1313 4C12.7373 4 12.3472 4.07761 11.9832 4.22841C11.6192 4.37921 11.2884 4.60023 11.0098 4.87886L10.2098 5.67886C10.1824 5.70629 10.149 5.72691 10.1122 5.73906C10.0754 5.75122 10.0362 5.75458 9.99785 5.74886L6.07985 5.18886C5.70046 5.13802 5.31466 5.20703 4.97643 5.38624C4.63819 5.56545 4.36442 5.8459 4.19341 6.18836C4.0224 6.53081 3.96271 6.91816 4.02267 7.29621C4.08263 7.67427 4.25926 8.02413 4.52785 8.29686L11.8348 15.6039C12.1074 15.8748 12.458 16.0533 12.8374 16.1143C13.2168 16.1753 13.6058 16.1156 13.9495 15.9437C14.2931 15.7718 14.5742 15.4964 14.7529 15.1562C14.9317 14.8161 14.9992 14.4284 14.9458 14.0479L14.3868 10.1299C14.3814 10.0915 14.3849 10.0525 14.3971 10.0157C14.4092 9.97892 14.4297 9.94544 14.4568 9.91786L15.2568 9.12286C15.8179 8.55889 16.1325 7.79553 16.1317 7.00003C16.131 6.20454 15.8149 5.44177 15.2528 4.87886Z" fill="white"/>
<path d="M12.6868 26.0379C12.6132 26.2632 12.594 26.5028 12.6308 26.7369C12.6676 26.9711 12.7594 27.1932 12.8987 27.385C13.0379 27.5769 13.2206 27.733 13.4319 27.8405C13.6431 27.9481 13.8768 28.0041 14.1138 28.0039H23.7948C24.0315 28.004 24.2649 27.948 24.4758 27.8406C24.6867 27.7332 24.8692 27.5774 25.0084 27.3859C25.1475 27.1945 25.2394 26.9728 25.2765 26.739C25.3136 26.5053 25.2949 26.266 25.2218 26.0409C24.7248 24.8011 23.8544 23.7464 22.7314 23.0231C21.6084 22.2998 20.2883 21.9437 18.9538 22.0039C17.6199 21.9435 16.3002 22.2993 15.1774 23.022C14.0545 23.7448 13.1842 24.7987 12.6868 26.0379Z" fill="white"/>
</svg>
