<svg width="32" height="32" viewBox="0 0 32 32" fill="none" xmlns="http://www.w3.org/2000/svg">
<path d="M15.633 22.7825C15.633 22.0907 15.9078 21.4271 16.397 20.9379C16.8863 20.4487 17.5498 20.1738 18.2417 20.1738H18.5025C18.5717 20.1738 18.6381 20.1463 18.687 20.0974C18.7359 20.0485 18.7634 19.9821 18.7634 19.913V14.5808C18.7634 14.4424 18.8184 14.3097 18.9162 14.2119C19.014 14.114 19.1468 14.059 19.2851 14.059C19.4235 14.059 19.5562 14.114 19.6541 14.2119C19.7519 14.3097 19.8069 14.4424 19.8069 14.5808V18.6086C19.808 18.7881 19.8464 18.9654 19.9197 19.1292C19.9929 19.293 20.0995 19.4398 20.2326 19.5603C20.0574 19.7407 19.9119 19.9478 19.8017 20.1738C19.6361 20.4969 19.5486 20.8543 19.546 21.2173V21.739H18.2417C17.9649 21.739 17.6995 21.849 17.5038 22.0447C17.3081 22.2404 17.1982 22.5058 17.1982 22.7825V26.9564C17.1982 27.2332 17.3081 27.4986 17.5038 27.6943C17.6995 27.89 17.9649 27.9999 18.2417 27.9999H25.546C25.8227 27.9999 26.0882 27.89 26.2838 27.6943C26.4795 27.4986 26.5895 27.2332 26.5895 26.9564V22.7825C26.5895 22.5058 26.4795 22.2404 26.2838 22.0447C26.0882 21.849 25.8227 21.739 25.546 21.739H24.2417V21.2173C24.2335 20.6773 24.0422 20.156 23.6991 19.7389C23.3559 19.3218 22.8813 19.0337 22.353 18.9217C22.387 18.8222 22.408 18.7187 22.4156 18.6138V14.8417C22.4142 13.7351 21.974 12.6742 21.1915 11.8918C20.4091 11.1093 19.3482 10.6691 18.2417 10.6677H14.0792L8.65313 5.24165C8.35806 4.95639 7.96276 4.79844 7.55236 4.80181C7.14196 4.80518 6.74931 4.96961 6.45896 5.25968C6.16862 5.54975 6.00382 5.94225 6.00007 6.35264C5.99631 6.76304 6.15389 7.15849 6.43887 7.45383L12.5025 13.5175V26.9564C12.5025 27.2332 12.6125 27.4986 12.8081 27.6943C13.0038 27.89 13.2693 27.9999 13.546 27.9999H15.4827C15.5231 27.9999 15.5629 27.9904 15.599 27.9724C15.6351 27.9543 15.6666 27.9281 15.6909 27.8959C15.7151 27.8636 15.7316 27.8261 15.7389 27.7864C15.7463 27.7467 15.7443 27.7059 15.7331 27.667C15.6654 27.4362 15.6303 27.197 15.6288 26.9564L15.633 22.7825ZM22.6764 21.2173V21.739H21.1112V21.2173C21.1112 21.0097 21.1937 20.8107 21.3404 20.6639C21.4872 20.5171 21.6863 20.4347 21.8938 20.4347C22.1014 20.4347 22.3004 20.5171 22.4472 20.6639C22.594 20.8107 22.6764 21.0097 22.6764 21.2173Z" fill="white"/>
<path d="M13.0243 6.6087C13.0243 7.30056 13.2991 7.9641 13.7883 8.45332C14.2776 8.94255 14.9411 9.21739 15.633 9.21739C16.3248 9.21739 16.9884 8.94255 17.4776 8.45332C17.9668 7.9641 18.2417 7.30056 18.2417 6.6087C18.2417 5.91683 17.9668 5.25329 17.4776 4.76407C16.9884 4.27484 16.3248 4 15.633 4C14.9411 4 14.2776 4.27484 13.7883 4.76407C13.2991 5.25329 13.0243 5.91683 13.0243 6.6087Z" fill="white"/>
</svg>
