<svg width="32" height="32" viewBox="0 0 32 32" fill="none" xmlns="http://www.w3.org/2000/svg">
<path fill-rule="evenodd" clip-rule="evenodd" d="M21.8701 29.0002C20.0306 28.9999 18.248 28.3619 16.826 27.1948C15.404 26.0278 14.4305 24.404 14.0713 22.5998C14.062 22.5519 14.0532 22.5051 14.0445 22.4572C13.8515 22.5174 13.6504 22.5481 13.4483 22.548H4.99611C4.68668 22.5479 4.38149 22.476 4.10459 22.3379C3.82769 22.1998 3.58663 21.9993 3.40041 21.7521C3.21271 21.4997 3.08602 21.2072 3.03029 20.8976C2.97668 20.5934 2.9944 20.2808 3.08205 19.9846C3.59423 18.2735 4.60798 16.7554 5.99221 15.6266C5.72651 15.5609 5.47357 15.4515 5.24367 15.3029C4.9685 15.1255 4.73098 14.8956 4.54471 14.6263C4.35844 14.3571 4.22706 14.0538 4.15809 13.7337C4.08912 13.4136 4.0839 13.0831 4.14275 12.761C4.20159 12.439 4.32334 12.1316 4.50102 11.8566C4.78539 11.3643 4.92375 10.8012 4.89994 10.2331L4.89895 8.93818C4.87255 8.04845 5.02498 7.16247 5.34719 6.33271C5.9213 4.84089 7.0054 3.60072 8.40709 2.83235C9.80878 2.06398 11.4374 1.81709 13.0038 2.13552C14.5703 2.45394 15.9732 3.31708 16.9637 4.57173C17.9541 5.82638 18.468 7.39138 18.4141 8.98895L18.4151 10.175C18.3846 10.7787 18.5324 11.3781 18.8399 11.8986C19.1486 12.3955 19.2688 12.9866 19.1788 13.5646C20.2702 13.172 21.4344 13.0229 22.5896 13.1278C23.7448 13.2327 24.8631 13.5891 25.866 14.1719C26.8689 14.7547 27.7322 15.5498 28.3953 16.5015C29.0584 17.4532 29.5053 18.5385 29.7046 19.6812C29.9039 20.8239 29.8508 21.9964 29.5491 23.1164C29.2474 24.2364 28.7043 25.2769 27.9579 26.1648C27.2115 27.0527 26.2799 27.7666 25.2284 28.2564C24.177 28.7462 23.0311 29.0001 21.8711 29.0002H21.8701Z" fill="white"/>
<path fill-rule="evenodd" clip-rule="evenodd" d="M6.4169 14.1847C6.25633 14.1555 6.10544 14.0872 5.9776 13.9857C5.84976 13.8843 5.74892 13.7529 5.68401 13.6031C5.6191 13.4534 5.59212 13.2899 5.60547 13.1273C5.61882 12.9646 5.67208 12.8078 5.76054 12.6706C6.20989 11.9186 6.43159 11.0525 6.3988 10.1771V8.93832C6.37507 8.23295 6.49351 7.53002 6.74706 6.87137C7.00061 6.21273 7.3841 5.61183 7.87469 5.10446C8.36528 4.59709 8.95294 4.19361 9.60269 3.91805C10.2524 3.64249 10.951 3.50049 11.6568 3.50049C12.3625 3.50049 13.0611 3.64249 13.7108 3.91805C14.3606 4.19361 14.9482 4.59709 15.4388 5.10446C15.9294 5.61183 16.3129 6.21273 16.5665 6.87137C16.82 7.53002 16.9384 8.23295 16.9147 8.93832V10.1751C16.8821 11.05 17.1034 11.9157 17.5519 12.6676C17.6917 12.8887 17.7386 13.1561 17.6824 13.4116C17.6261 13.6671 17.4713 13.8901 17.2515 14.032C17.0317 14.1739 16.7648 14.2234 16.5088 14.1696C16.2528 14.1157 16.0283 13.963 15.8843 13.7446C15.7049 13.4625 15.554 13.1632 15.4337 12.8512C15.418 12.8129 15.3932 12.779 15.3613 12.7525C15.3294 12.726 15.2916 12.7078 15.251 12.6994C15.2104 12.6915 15.1685 12.6937 15.129 12.706C15.0895 12.7183 15.0536 12.7402 15.0247 12.7698C14.5872 13.2208 14.0637 13.5793 13.485 13.8241C12.9064 14.0689 12.2845 14.1951 11.6562 14.1951C11.028 14.1951 10.4061 14.0689 9.82744 13.8241C9.24881 13.5793 8.72524 13.2208 8.28776 12.7698C8.25901 12.74 8.22322 12.7179 8.18368 12.7055C8.14415 12.6931 8.10214 12.6909 8.06152 12.699C8.02089 12.7071 7.98296 12.7253 7.9512 12.7519C7.91944 12.7785 7.89487 12.8126 7.87976 12.8512C7.75905 13.163 7.60811 13.4622 7.4291 13.7446C7.3229 13.9099 7.17001 14.04 6.98981 14.1184C6.8096 14.1967 6.6102 14.2198 6.41686 14.1847H6.4169ZM9.8485 11.5685C10.3509 11.9996 10.9949 12.2295 11.6567 12.214C12.3187 12.2282 12.9626 11.9974 13.4649 11.566C13.9673 11.1346 14.2926 10.5329 14.3785 9.87632C14.4037 9.75834 14.385 9.63523 14.326 9.53001C14.267 9.42479 14.1717 9.34466 14.0579 9.3046C13.2183 9.00944 12.46 8.5208 11.8443 7.8782C11.8212 7.85403 11.7933 7.8348 11.7626 7.82167C11.7318 7.80853 11.6986 7.80176 11.6652 7.80176C11.6317 7.80176 11.5986 7.80853 11.5678 7.82167C11.537 7.8348 11.5092 7.85403 11.486 7.8782C10.8666 8.52383 10.1029 9.01335 9.25756 9.30658C9.14337 9.34646 9.04767 9.42666 8.98845 9.53213C8.92922 9.6376 8.91056 9.76106 8.93595 9.87932C9.02106 10.5358 9.34612 11.1375 9.8485 11.5685ZM21.8708 14.5961C20.3759 14.5943 18.9266 15.111 17.77 16.0581C16.6134 17.0052 15.8211 18.3241 15.5281 19.79C15.2351 21.2559 15.4596 22.7781 16.1633 24.097C16.867 25.416 18.0063 26.45 19.387 27.0229C20.7678 27.5959 22.3045 27.6722 23.7353 27.2389C25.166 26.8056 26.4022 25.8895 27.2331 24.6468C28.064 23.4041 28.4382 21.9117 28.2919 20.424C28.1456 18.9362 27.4879 17.5453 26.4308 16.4882C25.2218 15.2779 23.5816 14.5973 21.8708 14.5961ZM21.3745 16.8295C21.6041 16.8295 21.8266 16.9092 22.0041 17.0549C22.1816 17.2005 22.3031 17.4033 22.3479 17.6285C22.3927 17.8537 22.358 18.0874 22.2497 18.2899C22.1415 18.4924 21.9663 18.6511 21.7542 18.739C21.5421 18.8269 21.306 18.8385 21.0863 18.7718C20.8666 18.7051 20.6767 18.5643 20.5492 18.3734C20.4216 18.1825 20.3642 17.9532 20.3867 17.7247C20.4092 17.4962 20.5102 17.2826 20.6726 17.1202C20.7648 17.028 20.8742 16.9549 20.9946 16.905C21.1151 16.8552 21.2442 16.8295 21.3745 16.8295ZM20.3819 25.2668C20.1845 25.2668 19.9951 25.1884 19.8555 25.0488C19.7159 24.9092 19.6375 24.7198 19.6375 24.5224C19.6375 24.3249 19.7159 24.1356 19.8555 23.996C19.9951 23.8564 20.1845 23.7779 20.3819 23.7779H20.8782C20.944 23.7779 21.0072 23.7518 21.0537 23.7052C21.1003 23.6587 21.1264 23.5955 21.1264 23.5297V21.5445C21.1265 21.5119 21.1202 21.4796 21.1078 21.4494C21.0954 21.4192 21.0771 21.3918 21.054 21.3687C21.0309 21.3456 21.0035 21.3274 20.9734 21.3149C20.9432 21.3025 20.9108 21.2962 20.8782 21.2963H20.3819C20.1845 21.2963 19.9951 21.2179 19.8555 21.0783C19.7159 20.9387 19.6375 20.7493 19.6375 20.5519C19.6375 20.3544 19.7159 20.1651 19.8555 20.0255C19.9951 19.8859 20.1845 19.8074 20.3819 19.8074H21.3745C21.7034 19.8079 22.0187 19.9388 22.2513 20.1714C22.4839 20.404 22.6148 20.7193 22.6153 21.0482V23.5297C22.6153 23.5955 22.6415 23.6587 22.688 23.7052C22.7346 23.7518 22.7977 23.7779 22.8635 23.7779H23.3598C23.5573 23.7779 23.7466 23.8564 23.8862 23.996C24.0258 24.1356 24.1043 24.3249 24.1043 24.5224C24.1043 24.7198 24.0258 24.9092 23.8862 25.0488C23.7466 25.1884 23.5573 25.2668 23.3598 25.2668H20.3819ZM15.0753 15.9612C14.0225 15.3965 12.8474 15.0983 11.6527 15.0927C10.0516 15.1 8.49498 15.6204 7.21136 16.5774C5.92774 17.5345 4.98471 18.8778 4.52071 20.4102C4.49858 20.4843 4.49406 20.5625 4.50751 20.6386C4.52097 20.7148 4.55203 20.7867 4.59822 20.8487C4.6444 20.9107 4.70444 20.961 4.77354 20.9957C4.84263 21.0304 4.91887 21.0484 4.99618 21.0484H13.4484C13.575 21.0487 13.697 21.0005 13.7892 20.9138C13.8815 20.8271 13.9371 20.7083 13.9447 20.5819C14.0281 19.1883 14.4807 17.842 15.256 16.6809C15.2946 16.6231 15.3207 16.5579 15.3325 16.4894C15.3443 16.421 15.3416 16.3508 15.3246 16.2834C15.3075 16.216 15.2765 16.153 15.2336 16.0983C15.1907 16.0437 15.1367 15.9987 15.0753 15.9662L15.0753 15.9612Z" fill="#962A8B"/>
</svg>
