<svg width="32" height="32" viewBox="0 0 32 32" fill="none" xmlns="http://www.w3.org/2000/svg">
<path fill-rule="evenodd" clip-rule="evenodd" d="M15.996 30C15.3889 29.9995 14.7961 29.815 14.296 29.4709C13.7958 29.1268 13.4117 28.6391 13.1942 28.0723C13.1212 27.8802 13.0677 27.6813 13.0346 27.4785C13.0023 27.5088 12.9701 27.5391 12.9389 27.5703C12.8582 27.9942 12.6855 28.3952 12.433 28.7451C12.1554 29.1306 11.7901 29.4446 11.3674 29.6612C10.9446 29.8779 10.4764 29.991 10.0014 29.9912C9.77949 29.9908 9.5583 29.9662 9.34171 29.918C8.67141 29.7669 8.07326 29.3904 7.64726 28.8512C7.22127 28.3121 6.99324 27.6431 7.0013 26.956C7.00936 26.269 7.25302 25.6055 7.69155 25.0765C8.13008 24.5475 8.7369 24.1851 9.41056 24.0498C9.65428 23.8112 9.91154 23.5869 10.1811 23.3779C9.88195 23.2933 9.59815 23.1618 9.34024 22.9883C9.04519 22.7918 8.78771 22.5441 8.57999 22.2568C7.73679 21.9938 6.97745 21.5139 6.37796 20.8653C5.77847 20.2166 5.35985 19.4218 5.16399 18.5606L4.84856 16.9844C4.43944 16.9406 4.05378 16.7717 3.74424 16.5006C3.43471 16.2295 3.21638 15.8695 3.11907 15.4697C2.94929 14.7898 2.96126 14.0771 3.1538 13.4033C3.34633 12.7294 3.71266 12.118 4.21605 11.6304C4.71943 11.1428 5.34217 10.7962 6.02182 10.6252C6.70146 10.4542 7.41412 10.4649 8.08831 10.6562C8.0639 10.5166 7.98968 10.064 7.98968 10.064L8.00238 9.88867C8.1308 8.12742 8.88499 6.4702 10.1287 5.2165C11.3723 3.96279 13.0234 3.19531 14.7836 3.05273C15.1801 3.01758 15.5878 3 15.996 3C16.4042 3 16.8119 3.01758 17.2191 3.05371C18.9772 3.19864 20.6257 3.96705 21.8672 5.22034C23.1086 6.47363 23.8614 8.1293 23.9896 9.88871L24.0024 10.064C24.0024 10.064 23.9291 10.5118 23.9047 10.6495C24.5811 10.4585 25.2958 10.4491 25.977 10.6221C26.6582 10.7952 27.2818 11.1446 27.785 11.6352C28.2882 12.1259 28.6533 12.7404 28.8435 13.417C29.0337 14.0936 29.0424 14.8083 28.8686 15.4893C28.7687 15.8853 28.5498 16.2412 28.2415 16.5091C27.9331 16.7769 27.5501 16.9438 27.144 16.9873L26.8364 18.5244C26.6463 19.394 26.2293 20.1978 25.6277 20.8539C25.0261 21.51 24.2615 21.9951 23.4116 22.2598C23.0185 22.7993 22.4566 23.1922 21.8148 23.376C22.0863 23.5859 22.3452 23.8115 22.5902 24.0518C22.9688 24.1294 23.3289 24.2793 23.6508 24.4932C24.1402 24.8183 24.5234 25.2799 24.7527 25.8209C24.9821 26.3618 25.0475 26.9582 24.9409 27.536C24.8342 28.1138 24.5603 28.6475 24.153 29.071C23.7457 29.4945 23.223 29.789 22.6498 29.918C22.4344 29.9663 22.2143 29.9909 21.9935 29.9912C21.5178 29.9909 21.049 29.8777 20.6254 29.6611C20.2019 29.4445 19.8358 29.1306 19.557 28.7451C19.3042 28.3928 19.1304 27.9901 19.0472 27.5645C19.0179 27.5352 18.9877 27.5069 18.9574 27.4785C18.9252 27.6808 18.8718 27.8792 18.7982 28.0703C18.5814 28.6378 18.1974 29.1262 17.6971 29.4707C17.1967 29.8153 16.6035 29.9999 15.996 30Z" fill="white"/>
<path fill-rule="evenodd" clip-rule="evenodd" d="M11.4039 16.3312C11.2989 16.2711 11.2193 16.1749 11.1799 16.0606C10.3976 14.1079 9.83368 12.0746 9.49849 9.99791C9.60081 8.59379 10.202 7.27259 11.1935 6.27307C12.1849 5.27356 13.5012 4.66166 14.9045 4.54798C15.6308 4.48401 16.3613 4.48401 17.0877 4.54798C18.4909 4.66169 19.8072 5.27361 20.7986 6.27313C21.7901 7.27266 22.3913 8.59386 22.4936 9.99798C22.1587 12.0746 21.5951 14.1079 20.8132 16.0606C20.7794 16.1589 20.7157 16.2442 20.6312 16.3046C20.5466 16.3649 20.4453 16.3975 20.3414 16.3975C20.3078 16.3978 20.2743 16.3944 20.2415 16.3875C17.4353 15.8657 14.5569 15.8657 11.7507 16.3875C11.6321 16.4113 11.5089 16.3913 11.4039 16.3312ZM25.5496 12.0615C25.8748 12.136 26.1819 12.2749 26.4527 12.4699C26.7234 12.6648 26.9525 12.912 27.1264 13.1968C27.3003 13.4815 27.4155 13.7982 27.4651 14.1282C27.5148 14.4581 27.4981 14.7947 27.4158 15.1181C27.3891 15.2268 27.3268 15.3234 27.2387 15.3925C27.1506 15.4615 27.0419 15.499 26.93 15.4989H26.3222C26.2068 15.4986 26.0948 15.5383 26.0054 15.6112C25.9159 15.6841 25.8544 15.7857 25.8314 15.8988L25.3655 18.2309C25.2117 18.9064 24.8633 19.5221 24.3634 20.0018C23.8634 20.4815 23.2339 20.8041 22.5526 20.9299C22.5118 20.9372 22.4734 20.9546 22.441 20.9804C22.4085 21.0062 22.383 21.0397 22.3667 21.0778C22.2528 21.348 22.062 21.5787 21.8179 21.7412C21.5739 21.9036 21.2874 21.9907 20.9942 21.9915H17.2456C17.1793 21.9915 17.1157 22.0178 17.0689 22.0647C17.022 22.1115 16.9957 22.1751 16.9957 22.2414V22.8412C16.9959 22.9015 17.018 22.9597 17.0579 23.0049C17.0978 23.0501 17.1528 23.0793 17.2126 23.0871C18.9689 23.2693 20.5981 24.0869 21.7939 25.3862V25.3922C21.8172 25.4232 21.8473 25.4484 21.882 25.4658C21.9167 25.4831 21.955 25.4922 21.9938 25.4922C22.2877 25.4926 22.575 25.5794 22.82 25.7418C23.065 25.9043 23.2569 26.1351 23.3717 26.4057C23.4866 26.6762 23.5194 26.9746 23.4661 27.2637C23.4127 27.5527 23.2756 27.8197 23.0717 28.0315C22.8678 28.2432 22.6062 28.3904 22.3194 28.4546C22.0326 28.5189 21.7332 28.4974 21.4584 28.3929C21.1837 28.2884 20.9458 28.1054 20.7742 27.8668C20.6026 27.6281 20.5049 27.3443 20.4934 27.0506C20.4938 26.9927 20.474 26.9364 20.4374 26.8916L20.1945 26.5917C19.4194 25.7833 18.3947 25.2593 17.2856 25.1043C17.2499 25.0984 17.2134 25.1004 17.1785 25.1101C17.1437 25.1197 17.1114 25.1368 17.0838 25.1602C17.0562 25.1836 17.0341 25.2127 17.0188 25.2455C17.0036 25.2783 16.9957 25.314 16.9957 25.3502V25.883C17.222 26.0854 17.3815 26.3518 17.4532 26.6469C17.5248 26.942 17.5051 27.2519 17.3968 27.5356C17.2884 27.8193 17.0965 28.0634 16.8463 28.2356C16.5962 28.4078 16.2997 28.5 15.996 28.5C15.6924 28.5 15.3958 28.4078 15.1457 28.2356C14.8956 28.0634 14.7037 27.8193 14.5953 27.5356C14.4869 27.2519 14.4673 26.942 14.5389 26.6469C14.6105 26.3518 14.77 26.0854 14.9964 25.883V25.3522C14.9963 25.3156 14.9882 25.2794 14.9727 25.2463C14.9571 25.2131 14.9345 25.1838 14.9065 25.1603C14.8785 25.1366 14.8456 25.1194 14.8101 25.1101C14.7747 25.1008 14.7376 25.0994 14.7016 25.1063C13.5941 25.2607 12.571 25.7841 11.7977 26.5917L11.5527 26.8966C11.5175 26.9406 11.4981 26.9952 11.4978 27.0516C11.486 27.3453 11.3882 27.6291 11.2165 27.8677C11.0447 28.1063 10.8066 28.2891 10.5318 28.3935C10.257 28.4978 9.95757 28.5191 9.67075 28.4547C9.38393 28.3902 9.12239 28.2429 8.91863 28.031C8.71487 27.8191 8.57789 27.552 8.52472 27.2629C8.47155 26.9738 8.50454 26.6754 8.61958 26.4049C8.73462 26.1343 8.92665 25.9036 9.17177 25.7413C9.41689 25.5791 9.70431 25.4924 9.99828 25.4922C10.0371 25.4923 10.0754 25.4833 10.1102 25.466C10.1449 25.4486 10.1751 25.4233 10.1983 25.3922C11.3937 24.0922 13.0229 23.2738 14.7795 23.0911C14.8395 23.0831 14.8946 23.0535 14.9345 23.0079C14.9744 22.9623 14.9964 22.9038 14.9964 22.8432V22.2434C14.9964 22.2106 14.9899 22.178 14.9774 22.1477C14.9648 22.1174 14.9464 22.0898 14.9232 22.0666C14.9 22.0434 14.8725 22.025 14.8421 22.0125C14.8118 21.9999 14.7793 21.9935 14.7465 21.9935H10.998C10.7042 21.9923 10.4173 21.9045 10.1732 21.7411C9.92907 21.5777 9.73855 21.3459 9.62548 21.0748C9.60912 21.0367 9.58356 21.0032 9.5511 20.9774C9.51864 20.9516 9.48029 20.9342 9.43948 20.9269C8.75814 20.8011 8.1286 20.4785 7.62867 19.9988C7.12873 19.5191 6.78033 18.9034 6.62654 18.2279L6.16071 15.8958C6.13765 15.7827 6.07617 15.6811 5.9867 15.6082C5.89723 15.5353 5.7853 15.4956 5.6699 15.4959H5.06217C4.95024 15.496 4.84151 15.4585 4.75342 15.3895C4.66533 15.3204 4.60297 15.2238 4.57635 15.1151C4.4833 14.7464 4.47561 14.3613 4.55386 13.9892C4.63212 13.6171 4.79426 13.2678 5.02793 12.9678C5.26161 12.6678 5.56066 12.4251 5.9023 12.2582C6.24395 12.0912 6.61919 12.0045 6.99944 12.0045C7.37969 12.0045 7.75492 12.0912 8.09657 12.2582C8.43822 12.4251 8.73726 12.6678 8.97094 12.9678C9.20461 13.2678 9.36675 13.6171 9.44501 13.9892C9.52327 14.3613 9.51558 14.7464 9.42253 15.1151C9.3959 15.2238 9.33354 15.3204 9.24545 15.3895C9.15736 15.4585 9.04863 15.496 8.93671 15.4959H8.4239C8.38668 15.4959 8.34994 15.5043 8.31638 15.5204C8.28283 15.5365 8.2533 15.5599 8.22998 15.5889C8.2067 15.6175 8.18998 15.6508 8.18099 15.6866C8.17201 15.7223 8.17098 15.7596 8.17798 15.7958L8.58682 17.838C8.64758 18.0718 8.76339 18.2877 8.92459 18.4677C9.08579 18.6477 9.28769 18.7865 9.51346 18.8726C9.56503 18.8934 9.62209 18.8964 9.67555 18.881C9.729 18.8656 9.77575 18.8327 9.80836 18.7877C9.98607 18.5395 10.237 18.3532 10.5261 18.2549C12.2982 17.7162 14.1442 17.4598 15.9961 17.4952C17.8479 17.4595 19.6938 17.7155 21.466 18.2539C21.755 18.3522 22.0059 18.5385 22.1837 18.7867C22.2163 18.8317 22.263 18.8646 22.3165 18.88C22.3699 18.8954 22.427 18.8924 22.4786 18.8716C22.7043 18.7855 22.9063 18.6467 23.0675 18.4668C23.2287 18.2868 23.3445 18.0708 23.4053 17.837L23.8141 15.7938C23.8211 15.7576 23.82 15.7203 23.811 15.6845C23.8021 15.6488 23.7853 15.6155 23.7621 15.5869C23.7387 15.558 23.7091 15.5348 23.6755 15.5189C23.642 15.503 23.6053 15.4948 23.5682 15.4949H23.0554C22.9435 15.495 22.8347 15.4575 22.7466 15.3885C22.6586 15.3194 22.5962 15.2228 22.5696 15.1141C22.4639 14.699 22.4666 14.2638 22.5775 13.8501C22.6885 13.4364 22.9039 13.0581 23.2031 12.7516C23.5023 12.4452 23.8752 12.2207 24.2861 12.0999C24.697 11.979 25.1321 11.9658 25.5496 12.0615Z" fill="black"/>
</svg>
