<svg width="32" height="32" viewBox="0 0 32 32" fill="none" xmlns="http://www.w3.org/2000/svg">
<path fill-rule="evenodd" clip-rule="evenodd" d="M12.7398 29.5C12.2641 29.5001 11.7896 29.453 11.3233 29.3594C9.77142 29.0503 8.36365 28.2411 7.31547 27.0558C6.26729 25.8704 5.63647 24.3742 5.51959 22.7962C5.40272 21.2183 5.80622 19.6454 6.66833 18.3186C7.53044 16.9918 8.80365 15.984 10.293 15.4497C10.5729 15.3469 10.8688 15.2947 11.167 15.2954C11.5557 15.2957 11.9393 15.3846 12.2886 15.5552V12.3457C12.2875 11.9431 12.3662 11.5443 12.5203 11.1723C12.6743 10.8003 12.9006 10.4626 13.1861 10.1787C13.2022 10.1621 13.2188 10.146 13.2359 10.1299C12.9495 9.95677 12.6852 9.74952 12.4488 9.51269C11.8742 8.93819 11.483 8.20622 11.3245 7.40935C11.1659 6.61248 11.2473 5.7865 11.5582 5.03587C11.8692 4.28523 12.3957 3.64366 13.0712 3.19228C13.7468 2.74089 14.5411 2.49998 15.3535 2.5C16.4422 2.50315 17.4858 2.93545 18.2578 3.70312C18.6981 4.14496 19.0321 4.68108 19.2347 5.27097C19.4373 5.86085 19.5032 6.48908 19.4274 7.10817C19.3516 7.72727 19.1361 8.32103 18.7971 8.84459C18.4581 9.36816 18.0046 9.80782 17.4707 10.1304C17.4873 10.1465 17.5049 10.1631 17.5215 10.1797C17.8067 10.4635 18.0328 10.8011 18.1867 11.1729C18.3406 11.5447 18.4192 11.9433 18.418 12.3457V12.4101H20.5694C21.1754 12.4103 21.7678 12.5901 22.2716 12.9268C22.7755 13.2635 23.1683 13.742 23.4003 14.3019C23.6323 14.8618 23.6932 15.4778 23.5752 16.0723C23.4572 16.6667 23.1656 17.2128 22.7374 17.6416C22.569 17.8092 22.3823 17.9573 22.1807 18.083C22.3028 18.1387 22.4239 18.1992 22.542 18.2637C23.3061 18.6864 23.9502 19.2963 24.4141 20.0361L26.8018 23.7314C27.0183 24.0717 27.1656 24.4513 27.2352 24.8485C27.3048 25.2457 27.2954 25.6528 27.2075 26.0464C27.1196 26.4399 26.9549 26.8123 26.7229 27.1422C26.4909 27.472 26.1962 27.7529 25.8555 27.9687C25.5148 28.1845 25.1349 28.331 24.7375 28.3998C24.3402 28.4686 23.9331 28.4583 23.5397 28.3696C23.1463 28.2809 22.7743 28.1155 22.4449 27.8828C22.1155 27.6501 21.8353 27.3548 21.6202 27.0137L19.5157 23.7558H18.918C19.1178 24.1657 19.2042 24.6216 19.1683 25.0762C19.1324 25.5307 18.9755 25.9674 18.7139 26.3409C18.0509 27.3142 17.1601 28.1109 16.119 28.6615C15.0779 29.212 13.9175 29.4999 12.7398 29.5Z" fill="white"/>
<path fill-rule="evenodd" clip-rule="evenodd" d="M12.7453 6.60797C12.7453 7.21134 12.9545 7.79605 13.3373 8.26247C13.7201 8.72889 14.2527 9.04816 14.8445 9.16588C15.4363 9.28361 16.0506 9.19249 16.5827 8.90807C17.1148 8.62365 17.5319 8.16352 17.7628 7.60608C17.9937 7.04864 18.0242 6.42838 17.849 5.85099C17.6739 5.27359 17.304 4.77478 16.8023 4.43956C16.3006 4.10433 15.6982 3.95343 15.0977 4.01256C14.4973 4.07169 13.9359 4.33719 13.5092 4.76384C13.267 5.00601 13.0749 5.29351 12.9439 5.60993C12.8128 5.92634 12.7453 6.26548 12.7453 6.60797ZM11.6176 27.8891C12.7245 28.1099 13.8719 27.9991 14.916 27.5704C15.9601 27.1417 16.8543 26.4143 17.4866 25.4794C17.5966 25.3222 17.6616 25.1379 17.6744 24.9465C17.6872 24.7551 17.6474 24.5638 17.5593 24.3934C17.4712 24.223 17.3381 24.0799 17.1745 23.9797C17.011 23.8794 16.8231 23.8259 16.6312 23.8248C16.4665 23.821 16.3034 23.8581 16.1565 23.9328C16.0095 24.0074 15.8834 24.1173 15.7893 24.2526C15.4746 24.7374 15.0489 25.1403 14.5476 25.4281C14.0463 25.7158 13.4837 25.8801 12.9063 25.9073C12.3289 25.9345 11.7533 25.8239 11.2272 25.5846C10.701 25.3453 10.2393 24.9842 9.88037 24.5311C9.52141 24.0781 9.27544 23.5461 9.16282 22.9791C9.05019 22.4122 9.07413 21.8266 9.23267 21.2707C9.3912 20.7148 9.67978 20.2047 10.0745 19.7825C10.4693 19.3602 10.9589 19.038 11.5028 18.8425C11.6349 18.7979 11.7568 18.7274 11.8614 18.6353C11.966 18.5431 12.0512 18.4311 12.1121 18.3057C12.1729 18.1803 12.2083 18.044 12.216 17.9049C12.2237 17.7657 12.2037 17.6264 12.1571 17.495C12.1105 17.3636 12.0382 17.2428 11.9444 17.1397C11.8507 17.0365 11.7373 16.953 11.611 16.8941C11.4847 16.8351 11.3479 16.8019 11.2087 16.7963C11.0694 16.7907 10.9304 16.8128 10.7997 16.8615C9.61894 17.2852 8.60957 18.0842 7.92615 19.1362C7.24273 20.1882 6.92293 21.4352 7.01572 22.6863C7.10851 23.9373 7.60877 25.1235 8.43991 26.0632C9.27105 27.0028 10.3873 27.6442 11.6176 27.8891ZM14.2468 21.7976C14.1015 21.6523 13.9862 21.4798 13.9076 21.2899C13.829 21.1 13.7885 20.8966 13.7885 20.6911V12.3456C13.7885 12.1401 13.829 11.9366 13.9076 11.7468C13.9863 11.5569 14.1015 11.3844 14.2468 11.2391C14.3921 11.0938 14.5646 10.9786 14.7545 10.8999C14.9443 10.8213 15.1478 10.7808 15.3533 10.7808C15.5588 10.7808 15.7622 10.8213 15.9521 10.8999C16.1419 10.9786 16.3144 11.0938 16.4597 11.2391C16.605 11.3844 16.7203 11.5569 16.7989 11.7468C16.8776 11.9366 16.918 12.1401 16.918 12.3456V13.6496C16.918 13.7187 16.9455 13.7851 16.9944 13.834C17.0433 13.8829 17.1097 13.9104 17.1788 13.9104H20.5692C20.9842 13.9104 21.3822 14.0752 21.6757 14.3687C21.9691 14.6621 22.134 15.0601 22.134 15.4751C22.134 15.8901 21.9691 16.2881 21.6757 16.5816C21.3822 16.875 20.9842 17.0399 20.5692 17.0399H17.1788C17.1097 17.0399 17.0433 17.0674 16.9944 17.1163C16.9455 17.1652 16.918 17.2315 16.918 17.3007V18.6047C16.918 18.6732 16.9315 18.741 16.9577 18.8043C16.9839 18.8676 17.0223 18.9251 17.0708 18.9735C17.1192 19.022 17.1767 19.0604 17.24 19.0866C17.3033 19.1128 17.3711 19.1263 17.4396 19.1263H20.0476C20.6661 19.1234 21.2751 19.2785 21.8168 19.577C22.3585 19.8756 22.8149 20.3075 23.1428 20.832L25.5421 24.5457C25.763 24.8974 25.8352 25.3225 25.7428 25.7275C25.6504 26.1324 25.4011 26.4842 25.0495 26.7054C24.698 26.9266 24.273 26.9992 23.8679 26.9072C23.4628 26.8152 23.1109 26.5662 22.8893 26.2149L20.4899 22.5011C20.4431 22.426 20.3779 22.3641 20.3005 22.3212C20.2231 22.2784 20.1361 22.2559 20.0476 22.2559H15.3532C15.1477 22.2559 14.9443 22.2154 14.7544 22.1368C14.5646 22.0581 14.3921 21.9429 14.2468 21.7976Z" fill="#4085C6"/>
</svg>
