<svg width="32" height="32" viewBox="0 0 32 32" fill="none" xmlns="http://www.w3.org/2000/svg">
<path fill-rule="evenodd" clip-rule="evenodd" d="M25.3291 27.8301L25.1318 27.8057C24.7551 27.7463 24.403 27.5807 24.1172 27.3281L20.792 24.3721H16.7666C16.4355 24.3722 16.1077 24.3071 15.8018 24.1805C15.4959 24.0539 15.2179 23.8682 14.9837 23.6342C14.7496 23.4001 14.5638 23.1222 14.4371 22.8164C14.3104 22.5105 14.2451 22.1827 14.2451 21.8516V19.7529C14.1502 19.7686 14.0542 19.7765 13.958 19.7764H12.4922L8.99707 23.2734C8.71559 23.5553 8.35661 23.747 7.96582 23.8242C7.83681 23.8494 7.70567 23.8622 7.57422 23.8623C7.30896 23.8624 7.04631 23.8099 6.80142 23.7079C6.55654 23.606 6.33427 23.4566 6.14742 23.2683C5.96058 23.08 5.81287 22.8565 5.71282 22.6109C5.61276 22.3652 5.56233 22.1022 5.56445 21.8369V19.7764H5.53223C4.72814 19.7763 3.95698 19.4569 3.38836 18.8884C2.81973 18.3198 2.50019 17.5487 2.5 16.7446V6.53174C2.50041 5.72771 2.82002 4.95674 3.3886 4.38825C3.95718 3.81976 4.7282 3.50028 5.53223 3.5H22.8936C23.6976 3.50028 24.4686 3.81976 25.0372 4.38825C25.6058 4.95674 25.9254 5.72771 25.9258 6.53174V12.915C25.926 13.0112 25.9178 13.1073 25.9014 13.2021H26.9785C27.3097 13.202 27.6376 13.2671 27.9436 13.3938C28.2496 13.5205 28.5276 13.7062 28.7617 13.9404C28.9959 14.1746 29.1816 14.4526 29.3083 14.7586C29.435 15.0645 29.5001 15.3925 29.5 15.7236V21.8516C29.4997 22.437 29.2959 23.0042 28.9233 23.4559C28.5508 23.9075 28.0327 24.2155 27.458 24.3272V25.8203C27.4571 26.2105 27.3431 26.5921 27.1299 26.9189C26.9228 27.2397 26.6274 27.4937 26.2793 27.6504C26.0182 27.7688 25.7349 27.83 25.4482 27.8301H25.3291Z" fill="white"/>
<path fill-rule="evenodd" clip-rule="evenodd" d="M14.9608 13.918C14.482 14.3968 14.213 15.0462 14.213 15.7234V18.0213C14.213 18.089 14.186 18.154 14.1381 18.2018C14.0903 18.2497 14.0253 18.2766 13.9576 18.2766H11.8712L7.93618 22.2126C7.86476 22.2842 7.7737 22.333 7.67453 22.3527C7.57536 22.3725 7.47256 22.3624 7.37914 22.3237C7.28573 22.285 7.20591 22.2194 7.14981 22.1352C7.09371 22.0511 7.06385 21.9522 7.06401 21.8511V18.2766H5.53209C5.12581 18.2766 4.73617 18.1152 4.44888 17.8279C4.16159 17.5406 4.00019 17.151 4.00018 16.7447V6.53191C4.00019 6.12562 4.16158 5.73598 4.44887 5.44869C4.73616 5.1614 5.12581 5 5.53209 5H22.8938C23.3001 5.00001 23.6897 5.16141 23.977 5.4487C24.2643 5.73599 24.4257 6.12563 24.4257 6.53191V12.9149C24.4257 12.9826 24.3988 13.0475 24.3509 13.0954C24.303 13.1433 24.2381 13.1702 24.1704 13.1702H16.7662C16.4309 13.1702 16.0989 13.2362 15.7891 13.3645C15.4793 13.4929 15.1979 13.6809 14.9608 13.918ZM16.7662 14.7021H26.9789C27.2497 14.7021 27.5095 14.8097 27.701 15.0012C27.8926 15.1928 28.0002 15.4525 28.0002 15.7234V21.8511C28.0002 22.122 27.8926 22.3817 27.701 22.5732C27.5095 22.7648 27.2497 22.8724 26.9789 22.8724H25.9577V25.8208C25.9575 25.9191 25.9289 26.0153 25.8754 26.0978C25.8219 26.1803 25.7457 26.2456 25.6559 26.2859C25.5662 26.3261 25.4667 26.3395 25.3695 26.3246C25.2723 26.3097 25.1815 26.267 25.108 26.2017L21.3619 22.8724H16.7662C16.4953 22.8724 16.2356 22.7648 16.044 22.5732C15.8525 22.3817 15.7449 22.122 15.7449 21.8511V15.7234C15.7449 15.4525 15.8525 15.1928 16.044 15.0012C16.2356 14.8097 16.4953 14.7021 16.7662 14.7021Z" fill="#51247A"/>
</svg>
