<svg width="32" height="32" viewBox="0 0 32 32" fill="none" xmlns="http://www.w3.org/2000/svg">
<path fill-rule="evenodd" clip-rule="evenodd" d="M15.4989 27.5018C13.726 27.5015 11.9762 27.1001 10.3804 26.3275C8.78469 25.555 7.38445 24.4314 6.2846 23.0408C5.9188 22.5706 5.73222 21.9856 5.75823 21.3904C5.46685 21.3254 5.19134 21.2029 4.9478 21.0302C4.70426 20.8575 4.49756 20.638 4.33977 20.3846L2.34177 17.1883C2.14402 16.8717 2.02812 16.511 2.00451 16.1385C1.9809 15.766 2.05031 15.3935 2.20651 15.0545C2.36271 14.7155 2.60077 14.4207 2.89927 14.1966C3.19776 13.9725 3.54731 13.8262 3.91643 13.7708C4.29895 11.5324 5.32195 9.45269 6.86166 7.78343C8.40137 6.11417 10.3918 4.92686 12.5922 4.36514C14.7925 3.80341 17.1085 3.89134 19.26 4.61829C21.4114 5.34525 23.3061 6.68007 24.7148 8.46126C25.0841 8.93636 25.2705 9.52828 25.2402 10.1293C25.7925 10.2507 26.2799 10.5734 26.6073 11.0345L28.6601 14.3075C28.8583 14.6242 28.9745 14.9854 28.9982 15.3582C29.0219 15.7311 28.9524 16.1041 28.7958 16.4433C28.6393 16.7826 28.4008 17.0776 28.1017 17.3016C27.8027 17.5256 27.4525 17.6716 27.0829 17.7264C26.6162 20.4608 25.1973 22.942 23.0773 24.731C20.9573 26.52 18.2729 27.5015 15.4989 27.5018Z" fill="white"/>
<path fill-rule="evenodd" clip-rule="evenodd" d="M8.90663 15.6381C8.84181 15.5209 8.74679 15.4231 8.63142 15.3551C8.51606 15.287 8.38457 15.2511 8.25063 15.2511H7.81463C7.74312 15.2517 7.67232 15.2369 7.60699 15.2079C7.54166 15.1788 7.48334 15.136 7.43595 15.0825C7.38856 15.0289 7.3532 14.9658 7.33228 14.8974C7.31135 14.8291 7.30533 14.757 7.31463 14.6861C7.52324 13.0762 8.20214 11.5637 9.26633 10.3379C10.3305 9.11202 11.7327 8.22738 13.2973 7.79471C14.8619 7.36203 16.5194 7.40055 18.0622 7.90543C19.605 8.41032 20.9645 9.35914 21.9706 10.6331C22.137 10.8356 22.3762 10.9648 22.6368 10.9928C22.8974 11.0207 23.1585 10.9453 23.3641 10.7826C23.5696 10.6199 23.703 10.3831 23.7357 10.123C23.7683 9.86297 23.6976 9.60049 23.5386 9.39208C22.2689 7.7864 20.5474 6.5977 18.596 5.97914C16.6446 5.36058 14.5527 5.34049 12.5898 5.92145C10.6269 6.50242 8.8829 7.65782 7.58252 9.23882C6.28214 10.8198 5.48494 12.754 5.29363 14.7921C5.28213 14.9166 5.22441 15.0322 5.13186 15.1163C5.03931 15.2003 4.91864 15.2466 4.79363 15.2461H4.24963C4.11583 15.2461 3.98447 15.282 3.8692 15.3499C3.75392 15.4178 3.65891 15.5154 3.59402 15.6324C3.52914 15.7494 3.49674 15.8816 3.50019 16.0154C3.50364 16.1492 3.5428 16.2796 3.61363 16.3931L5.61363 19.5931C5.68117 19.7009 5.77502 19.7899 5.88635 19.8515C5.99769 19.9132 6.12287 19.9455 6.25013 19.9455C6.37739 19.9455 6.50257 19.9132 6.6139 19.8515C6.72524 19.7899 6.81909 19.7009 6.88663 19.5931L8.88663 16.3931C8.95645 16.2803 8.99509 16.1509 8.9986 16.0183C9.00211 15.8856 8.97038 15.7544 8.90663 15.6381ZM27.3856 15.1041L25.3856 11.9041C25.3134 11.8025 25.218 11.7197 25.1072 11.6626C24.9965 11.6055 24.8737 11.5757 24.7491 11.5757C24.6245 11.5757 24.5017 11.6055 24.391 11.6626C24.2803 11.7197 24.1848 11.8025 24.1126 11.9041L22.1126 15.1041C22.0418 15.2176 22.0026 15.348 21.9992 15.4818C21.9957 15.6155 22.0281 15.7478 22.093 15.8648C22.1579 15.9818 22.2529 16.0793 22.3682 16.1472C22.4835 16.2152 22.6148 16.251 22.7486 16.2511H23.1846C23.2561 16.2505 23.3269 16.2653 23.3922 16.2944C23.4575 16.3235 23.5159 16.3662 23.5632 16.4198C23.6106 16.4733 23.646 16.5364 23.6669 16.6048C23.6879 16.6731 23.6939 16.7452 23.6846 16.8161C23.476 18.4259 22.7971 19.9385 21.7329 21.1643C20.6687 22.3901 19.2666 23.2748 17.702 23.7075C16.1374 24.1401 14.4799 24.1016 12.9371 23.5967C11.3943 23.0918 10.0347 22.143 9.02863 20.8691C8.8623 20.6665 8.62309 20.5374 8.36248 20.5094C8.10188 20.4814 7.84071 20.5569 7.63519 20.7196C7.42967 20.8822 7.29623 21.1191 7.26358 21.3791C7.23094 21.6392 7.30169 21.9017 7.46063 22.1101C8.73071 23.7159 10.4526 24.9046 12.4044 25.523C14.3562 26.1413 16.4484 26.161 18.4115 25.5794C20.3746 24.9979 22.1185 23.8418 23.4186 22.2601C24.7186 20.6784 25.5152 18.7436 25.7056 16.7051C25.7171 16.5806 25.7748 16.4649 25.8674 16.3809C25.9599 16.2969 26.0806 16.2505 26.2056 16.2511H26.7526C26.8864 16.251 27.0178 16.2151 27.133 16.1472C27.2483 16.0793 27.3433 15.9818 27.4082 15.8648C27.4731 15.7477 27.5055 15.6155 27.502 15.4818C27.4986 15.348 27.4594 15.2176 27.3886 15.1041H27.3856ZM14.8116 18.0211C15.1934 16.7993 15.9073 15.7076 16.8736 14.8681V14.8691C16.9816 14.792 17.0545 14.6753 17.0763 14.5445C17.0982 14.4137 17.0672 14.2795 16.9901 14.1716C16.9131 14.0636 16.7963 13.9907 16.6655 13.9689C16.5347 13.947 16.4006 13.978 16.2926 14.0551C14.4706 15.3451 13.3836 18.5631 13.0496 20.7631C13.0405 20.8281 13.0186 20.8908 12.9853 20.9474C12.952 21.004 12.9078 21.0535 12.8554 21.0931C12.8029 21.1327 12.7431 21.1615 12.6795 21.178C12.6159 21.1944 12.5497 21.1982 12.4846 21.1891C12.4196 21.18 12.3569 21.1581 12.3003 21.1248C12.2437 21.0914 12.1942 21.0473 12.1546 20.9948C12.1151 20.9423 12.0862 20.8826 12.0697 20.819C12.0533 20.7554 12.0495 20.6891 12.0586 20.6241C12.2399 19.4882 12.5344 18.3733 12.9376 17.2961C12.973 17.2027 12.9796 17.1009 12.9566 17.0038C12.9336 16.9067 12.8821 16.8187 12.8086 16.7511C12.4279 16.4206 12.1738 15.9682 12.0896 15.4711C12.0502 15.023 12.1217 14.5721 12.2978 14.1583C12.474 13.7444 12.7494 13.3803 13.0996 13.0981C13.7218 12.5677 14.4327 12.1513 15.1996 11.8681C16.0755 11.5491 16.873 11.0466 17.5386 10.3941C17.5906 10.3403 17.654 10.2989 17.7241 10.2729C17.7942 10.2469 17.8692 10.237 17.9436 10.2438C18.0181 10.2506 18.0901 10.274 18.1543 10.3123C18.2185 10.3506 18.2733 10.4028 18.3146 10.4651C18.8795 11.5036 19.1837 12.6637 19.2011 13.8458C19.2185 15.0278 18.9486 16.1964 18.4146 17.2511C18.1458 17.7032 17.7708 18.0831 17.3221 18.3577C16.8734 18.6323 16.3646 18.7934 15.8396 18.8271C15.5793 18.8175 15.323 18.7599 15.0836 18.6571C14.9651 18.6066 14.8706 18.5122 14.8199 18.3937C14.7692 18.2752 14.7663 18.1417 14.8116 18.0211Z" fill="black"/>
</svg>
