<svg width="32" height="32" viewBox="0 0 32 32" fill="none" xmlns="http://www.w3.org/2000/svg">
<path fill-rule="evenodd" clip-rule="evenodd" d="M22.75 28.9991C22.1117 28.9972 21.4935 28.775 21 28.3702C20.5817 28.7159 20.0702 28.9298 19.5303 28.9849C18.9905 29.04 18.4464 28.9338 17.9668 28.6797C17.9062 28.7229 17.8425 28.7618 17.7764 28.796C17.5244 28.9289 17.2439 28.9986 16.959 28.9991H5.50001C4.96962 28.9989 4.46099 28.7882 4.08595 28.4131C3.7109 28.0381 3.50015 27.5295 3.50001 26.9991V19.8692C3.18393 19.7573 2.89671 19.5765 2.65919 19.3399C2.26519 18.946 2.03135 18.42 2.00293 17.8636C1.97452 17.3073 2.15356 16.7601 2.50538 16.3282C2.17866 15.9627 1.99866 15.4893 2.00001 14.9991V14.4991C2.00131 13.6212 2.25853 12.7628 2.7402 12.0288C3.22186 11.2949 3.90706 10.7173 4.71192 10.3668C4.69825 10.3536 4.68458 10.3404 4.6714 10.3268C4.112 9.76728 3.73108 9.05449 3.57681 8.27851C3.42253 7.50254 3.50184 6.69824 3.80469 5.96734C4.10755 5.23644 4.62035 4.61176 5.27824 4.17232C5.93613 3.73287 6.70957 3.49839 7.50073 3.49853C8.29189 3.49867 9.06524 3.73342 9.72298 4.1731C10.3807 4.61278 10.8933 5.23764 11.1959 5.96865C11.4985 6.69965 11.5775 7.50398 11.423 8.2799C11.2684 9.05582 10.8872 9.76848 10.3276 10.3278L10.2881 10.3668C11.0929 10.7173 11.7781 11.2949 12.2598 12.0288C12.7415 12.7628 12.9987 13.6212 13 14.4991V14.8101C13.0078 14.7695 13.0113 14.7283 13.0103 14.687L13.0127 14.5581C13.0902 13.2764 13.6135 12.0622 14.4921 11.1257C15.3706 10.1893 16.5491 9.58964 17.8232 9.43068C17.3699 8.83812 17.0912 8.13056 17.0189 7.38796C16.9465 6.64536 17.0833 5.89732 17.4137 5.22838C17.7442 4.55943 18.2552 3.99625 18.8889 3.60246C19.5226 3.20868 20.2539 3 21 3C21.7461 3 22.4774 3.20868 23.1111 3.60246C23.7449 3.99625 24.2558 4.55943 24.5863 5.22838C24.9167 5.89732 25.0535 6.64536 24.9811 7.38796C24.9088 8.13056 24.6302 8.83812 24.1768 9.43068C25.5074 9.59685 26.7316 10.243 27.6197 11.2477C28.5077 12.2525 28.9985 13.5468 29 14.8877V18.4991C29.001 18.8603 28.9302 19.2182 28.7919 19.552C28.6537 19.8857 28.4505 20.1887 28.1943 20.4434C27.6775 20.9573 26.9789 21.2468 26.25 21.2491C25.9963 21.2489 25.7439 21.2134 25.5 21.1436V26.2491C25.501 26.6103 25.4302 26.9682 25.2919 27.302C25.1537 27.6357 24.9505 27.9387 24.6943 28.1934C24.1775 28.7073 23.4789 28.9968 22.75 28.9991Z" fill="white"/>
<path fill-rule="evenodd" clip-rule="evenodd" d="M18.5 6.99903C18.5 7.5774 18.7006 8.13788 19.0675 8.58496C19.4344 9.03204 19.945 9.33806 20.5123 9.45088C21.0795 9.56371 21.6684 9.47635 22.1784 9.2037C22.6885 8.93104 23.0883 8.48996 23.3096 7.95561C23.5309 7.42126 23.5601 6.8267 23.3922 6.27324C23.2243 5.71977 22.8697 5.24165 22.3888 4.92033C21.9079 4.59901 21.3305 4.45437 20.7549 4.51107C20.1793 4.56776 19.6412 4.82228 19.2322 5.23126C18.7634 5.70011 18.5 6.33599 18.5 6.99903ZM5 7.49903C5 8.07742 5.20055 8.63791 5.56748 9.08501C5.9344 9.53211 6.445 9.83815 7.01228 9.95099C7.57955 10.0638 8.1684 9.97647 8.6785 9.70382C9.18859 9.43117 9.58836 8.99009 9.8097 8.45573C10.031 7.92136 10.0602 7.32679 9.89235 6.77331C9.72445 6.21982 9.36983 5.74168 8.88892 5.42035C8.40801 5.09901 7.83056 4.95437 7.25495 5.01106C6.67935 5.06775 6.14121 5.32228 5.73223 5.73126C5.50008 5.96341 5.31594 6.239 5.1903 6.54232C5.06466 6.84563 5 7.17072 5 7.49903ZM11 15.499C11.0657 15.499 11.1307 15.4861 11.1914 15.461C11.252 15.4359 11.3072 15.3991 11.3536 15.3526C11.4 15.3062 11.4369 15.2511 11.462 15.1904C11.4871 15.1297 11.5 15.0647 11.5 14.999V14.499C11.5 13.7034 11.1839 12.9403 10.6213 12.3777C10.0587 11.8151 9.29564 11.499 8.5 11.499H6.5C5.70435 11.499 4.94129 11.8151 4.37868 12.3777C3.81607 12.9403 3.5 13.7034 3.5 14.499V14.999C3.49999 15.0647 3.51292 15.1297 3.53804 15.1904C3.56317 15.251 3.6 15.3062 3.64643 15.3526C3.69286 15.399 3.74798 15.4359 3.80865 15.461C3.86931 15.4861 3.93434 15.499 4 15.499H11ZM17 18.632V26.249C16.9996 26.5588 17.0636 26.8653 17.188 27.149C17.2048 27.187 17.2118 27.2286 17.2085 27.2699C17.2052 27.3113 17.1916 27.3512 17.169 27.386C17.146 27.4207 17.1148 27.4491 17.0781 27.4688C17.0415 27.4885 17.0006 27.4989 16.959 27.499H5.5C5.43434 27.499 5.36931 27.4861 5.30865 27.461C5.24798 27.4359 5.19286 27.399 5.14643 27.3526C5.1 27.3062 5.06317 27.251 5.03804 27.1904C5.01292 27.1297 4.99999 27.0647 5 26.999V18.499H4.25C4.05109 18.499 3.86032 18.42 3.71967 18.2794C3.57902 18.1387 3.5 17.9479 3.5 17.749C3.5 17.5501 3.57902 17.3594 3.71967 17.2187C3.86032 17.078 4.05109 16.999 4.25 16.999H11.393C11.1861 17.4759 11.1532 18.0103 11.3 18.509C11.4409 18.9721 11.7269 19.3776 12.1158 19.6657C12.5048 19.9537 12.976 20.1092 13.46 20.109C14.6611 19.9565 15.7654 19.3713 16.566 18.463C16.6001 18.426 16.6445 18.4001 16.6935 18.3887C16.7425 18.3774 16.7938 18.3811 16.8407 18.3993C16.8876 18.4176 16.9279 18.4495 16.9563 18.4911C16.9847 18.5326 17 18.5817 17 18.632ZM26.327 12.0622C27.0768 12.8121 27.4987 13.8287 27.5 14.8891V18.4991C27.5 18.8306 27.3683 19.1486 27.1339 19.383C26.8995 19.6174 26.5815 19.7491 26.25 19.7491C25.9185 19.7491 25.6005 19.6174 25.3661 19.383C25.1317 19.1486 25 18.8306 25 18.4991V14.6391C25 14.5065 24.9473 14.3793 24.8536 14.2856C24.7598 14.1918 24.6326 14.1391 24.5 14.1391C24.3674 14.1391 24.2402 14.1918 24.1464 14.2856C24.0527 14.3793 24 14.5065 24 14.6391V26.2491C24 26.5806 23.8683 26.8986 23.6339 27.133C23.3995 27.3674 23.0815 27.4991 22.75 27.4991C22.4185 27.4991 22.1005 27.3674 21.8661 27.133C21.6317 26.8986 21.5 26.5806 21.5 26.2491V19.9991C21.5 19.8665 21.4473 19.7393 21.3536 19.6456C21.2598 19.5518 21.1326 19.4991 21 19.4991C20.8674 19.4991 20.7402 19.5518 20.6464 19.6456C20.5527 19.7393 20.5 19.8665 20.5 19.9991V26.2491C20.5 26.5806 20.3683 26.8986 20.1339 27.133C19.8995 27.3674 19.5815 27.4991 19.25 27.4991C18.9185 27.4991 18.6005 27.3674 18.3661 27.133C18.1317 26.8986 18 26.5806 18 26.2491V14.6391C18 14.5065 17.9473 14.3793 17.8536 14.2856C17.7598 14.1918 17.6326 14.1391 17.5 14.1391C17.3674 14.1391 17.2402 14.1918 17.1464 14.2856C17.0527 14.3793 17 14.5065 17 14.6391C17.0209 15.4893 16.7998 16.3279 16.3625 17.0573C15.9252 17.7867 15.2897 18.3769 14.53 18.7591C12.7247 19.743 12.2738 18.2646 12.2601 18.2195L12.26 18.2191C12.1644 17.9022 12.198 17.5603 12.3535 17.2681C12.509 16.9758 12.7738 16.7569 13.09 16.6591C13.5115 16.5215 13.8773 16.2516 14.1331 15.8895C14.389 15.5274 14.5211 15.0924 14.51 14.6491C14.5711 13.6321 15.018 12.6768 15.7595 11.978C16.501 11.2793 17.4812 10.8898 18.5 10.8891H23.5C24.5605 10.8905 25.5771 11.3124 26.327 12.0622Z" fill="black"/>
</svg>
