<svg width="32" height="32" viewBox="0 0 32 32" fill="none" xmlns="http://www.w3.org/2000/svg">
<path d="M12 25.5H9C8.9337 25.5 8.87011 25.5263 8.82322 25.5732C8.77634 25.6201 8.75 25.6837 8.75 25.75V26.25C8.75 26.7141 8.93437 27.1592 9.26256 27.4874C9.59075 27.8156 10.0359 28 10.5 28C10.9641 28 11.4092 27.8156 11.7374 27.4874C12.0656 27.1592 12.25 26.7141 12.25 26.25V25.75C12.25 25.6837 12.2237 25.6201 12.1768 25.5732C12.1299 25.5263 12.0663 25.5 12 25.5Z" fill="#51247A"/>
<path d="M23 25.5H20C19.9337 25.5 19.8701 25.5263 19.8232 25.5732C19.7763 25.6201 19.75 25.6837 19.75 25.75V26.25C19.75 26.7141 19.9344 27.1592 20.2626 27.4874C20.5908 27.8156 21.0359 28 21.5 28C21.9641 28 22.4092 27.8156 22.7374 27.4874C23.0656 27.1592 23.25 26.7141 23.25 26.25V25.75C23.25 25.6837 23.2237 25.6201 23.1768 25.5732C23.1299 25.5263 23.0663 25.5 23 25.5Z" fill="#51247A"/>
<path d="M26.25 8.253H25.75C25.7169 8.253 25.6842 8.24644 25.6536 8.23369C25.6231 8.22094 25.5954 8.20225 25.5722 8.17872C25.5489 8.15519 25.5305 8.12727 25.5182 8.09659C25.5058 8.06591 25.4996 8.03308 25.5 8V7C25.5 6.20435 25.1839 5.44129 24.6213 4.87868C24.0587 4.31607 23.2956 4 22.5 4H9.5C8.70435 4 7.94129 4.31607 7.37868 4.87868C6.81607 5.44129 6.5 6.20435 6.5 7V8C6.5 8.0663 6.47366 8.12989 6.42678 8.17678C6.37989 8.22366 6.3163 8.25 6.25 8.25H5.75C5.28603 8.25053 4.84122 8.43507 4.51315 8.76315C4.18507 9.09122 4.00053 9.53603 4 10V13C4.00053 13.464 4.18507 13.9088 4.51315 14.2369C4.84122 14.5649 5.28603 14.7495 5.75 14.75H6.25C6.3163 14.75 6.37989 14.7763 6.42678 14.8232C6.47366 14.8701 6.5 14.9337 6.5 15V21.5C6.5 22.2956 6.81607 23.0587 7.37868 23.6213C7.94129 24.1839 8.70435 24.5 9.5 24.5H22.5C23.2956 24.5 24.0587 24.1839 24.6213 23.6213C25.1839 23.0587 25.5 22.2956 25.5 21.5V15C25.5 14.9337 25.5263 14.8701 25.5732 14.8232C25.6201 14.7763 25.6837 14.75 25.75 14.75H26.25C26.714 14.7495 27.1588 14.5649 27.4869 14.2369C27.8149 13.9088 27.9995 13.464 28 13V10C27.9987 9.53655 27.8138 9.09251 27.4858 8.76509C27.1578 8.43766 26.7134 8.25353 26.25 8.253ZM11.5 20.751H9.5C9.30109 20.751 9.11032 20.672 8.96967 20.5313C8.82902 20.3907 8.75 20.1999 8.75 20.001C8.75 19.8021 8.82902 19.6113 8.96967 19.4707C9.11032 19.33 9.30109 19.251 9.5 19.251H11.5C11.6989 19.251 11.8897 19.33 12.0303 19.4707C12.171 19.6113 12.25 19.8021 12.25 20.001C12.25 20.1999 12.171 20.3907 12.0303 20.5313C11.8897 20.672 11.6989 20.751 11.5 20.751ZM22.5 20.751H20.5C20.3011 20.751 20.1103 20.672 19.9697 20.5313C19.829 20.3907 19.75 20.1999 19.75 20.001C19.75 19.8021 19.829 19.6113 19.9697 19.4707C20.1103 19.33 20.3011 19.251 20.5 19.251H22.5C22.6989 19.251 22.8897 19.33 23.0303 19.4707C23.171 19.6113 23.25 19.8021 23.25 20.001C23.25 20.1999 23.171 20.3907 23.0303 20.5313C22.8897 20.672 22.6989 20.751 22.5 20.751ZM23.5 16.751C23.5 16.8173 23.4737 16.8809 23.4268 16.9278C23.3799 16.9747 23.3163 17.001 23.25 17.001H8.75C8.6837 17.001 8.62011 16.9747 8.57322 16.9278C8.52634 16.8809 8.5 16.8173 8.5 16.751V7C8.5 6.73478 8.60536 6.48043 8.79289 6.29289C8.98043 6.10536 9.23478 6 9.5 6H22.5C22.7652 6 23.0196 6.10536 23.2071 6.29289C23.3946 6.48043 23.5 6.73478 23.5 7V16.751Z" fill="#51247A"/>
</svg>
