<svg width="32" height="32" viewBox="0 0 32 32" fill="none" xmlns="http://www.w3.org/2000/svg">
<path d="M28 23.1024C27.9984 21.8114 27.4849 20.5739 26.5721 19.6611C25.6593 18.7482 24.4217 18.2347 23.1308 18.2332C22.987 18.2332 22.8521 18.2631 22.7113 18.2751L21.0682 13.4419L22.0001 13.2091C22.1282 13.178 22.2488 13.1219 22.355 13.044C22.4613 12.966 22.5511 12.8679 22.6192 12.7551C22.6874 12.6423 22.7325 12.5172 22.7521 12.3868C22.7716 12.2565 22.7652 12.1237 22.7332 11.9958C22.7012 11.868 22.6442 11.7478 22.5655 11.6421C22.4868 11.5364 22.388 11.4473 22.2747 11.38C22.1615 11.3127 22.036 11.2684 21.9056 11.2498C21.7751 11.2311 21.6423 11.2385 21.5147 11.2714L20.0584 11.636C19.8561 11.6868 19.6666 11.7793 19.5021 11.9075C19.3376 12.0358 19.2016 12.197 19.103 12.3808C19.0044 12.5646 18.9452 12.767 18.9293 12.975C18.9134 13.183 18.9411 13.392 19.0107 13.5887L19.4052 14.7483C19.4262 14.8099 19.4223 14.8773 19.3943 14.9361C19.3663 14.9948 19.3165 15.0404 19.2554 15.0629L14.2054 16.9217C14.1475 16.9429 14.0837 16.942 14.0264 16.9191C13.9691 16.8963 13.9223 16.8531 13.8948 16.7979L13.3724 15.7361H13.5172C13.7821 15.7361 14.0362 15.6309 14.2235 15.4436C14.4108 15.2563 14.516 15.0022 14.516 14.7373C14.516 14.4724 14.4108 14.2184 14.2235 14.031C14.0362 13.8437 13.7821 13.7385 13.5172 13.7385H10.5208C10.2559 13.7385 10.0019 13.8437 9.81454 14.031C9.62723 14.2184 9.522 14.4724 9.522 14.7373C9.522 15.0022 9.62723 15.2563 9.81454 15.4436C10.0019 15.6309 10.2559 15.7361 10.5208 15.7361H11.1471L12.5943 18.6826C12.6767 18.8507 12.8047 18.9923 12.9636 19.0912C13.1225 19.1901 13.3061 19.2423 13.4933 19.2419C14.7222 18.9021 15.9273 18.4817 17.101 17.9834C17.1515 17.9648 17.2067 17.963 17.2583 17.9782C17.3099 17.9935 17.3553 18.0251 17.3875 18.0682C17.4197 18.1113 17.4372 18.1637 17.4372 18.2176C17.4372 18.2714 17.4198 18.3238 17.3876 18.367L14.516 22.2284H13.679C13.465 21.0407 12.8183 19.9745 11.864 19.2359C10.9096 18.4972 9.71534 18.1385 8.51193 18.2291C7.30852 18.3198 6.18141 18.8532 5.34842 19.7264C4.51543 20.5997 4.03569 21.7507 4.00191 22.957C3.96814 24.1634 4.38272 25.3394 5.16554 26.2579C5.94836 27.1764 7.04385 27.7721 8.24031 27.9299C9.43676 28.0877 10.6492 27.7964 11.6434 27.1123C12.6376 26.4282 13.343 25.3999 13.6231 24.226H15.0085C15.163 24.2163 15.3141 24.1759 15.453 24.1073C15.5919 24.0388 15.7158 23.9433 15.8175 23.8265L20.1124 18.0494C20.1396 18.0129 20.1762 17.9846 20.2184 17.9675C20.2605 17.9503 20.3065 17.945 20.3514 17.9521C20.3963 17.9592 20.4385 17.9784 20.4733 18.0077C20.5081 18.037 20.5342 18.0752 20.5489 18.1183L20.8006 18.8564C20.0487 19.2696 19.4197 19.8744 18.9774 20.6094C18.535 21.3444 18.2952 22.1834 18.2821 23.0412C18.2691 23.8989 18.4834 24.7448 18.9032 25.493C19.323 26.2411 19.9334 26.8647 20.6723 27.3005C21.4112 27.7363 22.2524 27.9687 23.1102 27.9741C23.968 27.9795 24.812 27.7577 25.5564 27.3312C26.3007 26.9048 26.9189 26.2889 27.3481 25.5461C27.7773 24.8034 28.0022 23.9602 28 23.1024ZM8.89774 25.9739C8.36699 25.9764 7.84593 25.8318 7.39241 25.5561C6.93889 25.2804 6.57065 24.8843 6.3286 24.412C6.08654 23.9396 5.98013 23.4095 6.02118 22.8803C6.06223 22.3511 6.24913 21.8437 6.56114 21.4143C6.87314 20.985 7.29804 20.6505 7.78866 20.448C8.27927 20.2455 8.81641 20.183 9.34042 20.2673C9.86444 20.3516 10.3548 20.5795 10.7571 20.9257C11.1595 21.2719 11.458 21.7228 11.6195 22.2284H9.14545C8.88055 22.2284 8.62649 22.3336 8.43918 22.5209C8.25187 22.7082 8.14664 22.9623 8.14664 23.2272C8.14664 23.4921 8.25187 23.7462 8.43918 23.9335C8.62649 24.1208 8.88055 24.226 9.14545 24.226H11.5426C11.3215 24.7444 10.9529 25.1865 10.4827 25.4972C10.0125 25.808 9.46135 25.9737 8.89774 25.9739ZM23.1308 25.9739C22.5234 25.9757 21.9312 25.7844 21.4396 25.4277C20.9481 25.0709 20.5826 24.5671 20.3961 23.9891C20.2096 23.411 20.2116 22.7887 20.4019 22.2119C20.5922 21.6351 20.9609 21.1337 21.4548 20.7801L22.3108 23.2981C22.4031 23.5395 22.5855 23.7356 22.8194 23.8454C23.0534 23.9551 23.3208 23.9699 23.5654 23.8867C23.8101 23.8034 24.0129 23.6285 24.1314 23.3988C24.2498 23.1691 24.2746 22.9025 24.2005 22.6549L23.3855 20.2577C24.1208 20.3223 24.8027 20.6683 25.289 21.2236C25.7754 21.7788 26.0285 22.5004 25.9957 23.2378C25.9628 23.9752 25.6465 24.6714 25.1127 25.1812C24.5789 25.691 23.8689 25.975 23.1308 25.9739Z" fill="white"/>
<path d="M12.1119 11.9905C12.9064 11.9889 13.6823 11.7504 14.3406 11.3057C14.9989 10.8609 15.5096 10.2299 15.8075 9.49346L21.8813 9.50045C21.9469 9.50057 22.0119 9.48775 22.0726 9.46273C22.1333 9.4377 22.1884 9.40097 22.2349 9.35462L23.1688 8.42073C23.2586 8.33068 23.3107 8.20975 23.3144 8.0826C23.3181 7.95546 23.2732 7.83169 23.1887 7.73655L22.2379 6.66483C22.191 6.61205 22.1335 6.5698 22.0691 6.54088C22.0047 6.51195 21.9349 6.49701 21.8643 6.49703H15.8145C15.5427 5.82498 15.0931 5.23957 14.5139 4.80353C13.9348 4.36748 13.2479 4.09723 12.5269 4.02173C11.8059 3.94623 11.078 4.06833 10.421 4.37495C9.76414 4.68156 9.20303 5.16114 8.79786 5.76229C8.39268 6.36344 8.15871 7.0635 8.12101 7.78747C8.08331 8.51143 8.2433 9.23201 8.58384 9.87199C8.92438 10.512 9.43264 11.0472 10.0541 11.4204C10.6757 11.7936 11.387 11.9907 12.1119 11.9905ZM11.0202 6.9355C11.2298 6.72607 11.4968 6.58348 11.7874 6.52574C12.078 6.46801 12.3792 6.49774 12.6529 6.61116C12.9266 6.72459 13.1605 6.91662 13.3251 7.16298C13.4897 7.40934 13.5775 7.69896 13.5775 7.99524C13.5775 8.29152 13.4897 8.58115 13.3251 8.82751C13.1605 9.07386 12.9266 9.2659 12.6529 9.37932C12.3792 9.49274 12.078 9.52247 11.7874 9.46474C11.4968 9.40701 11.2298 9.26441 11.0202 9.05498C10.881 8.91584 10.7706 8.75064 10.6952 8.56881C10.6199 8.38697 10.5811 8.19207 10.5811 7.99524C10.5811 7.79841 10.6199 7.60351 10.6952 7.42168C10.7706 7.23984 10.881 7.07464 11.0202 6.9355Z" fill="white"/>
</svg>
