<svg width="32" height="32" viewBox="0 0 32 32" fill="none" xmlns="http://www.w3.org/2000/svg">
<path fill-rule="evenodd" clip-rule="evenodd" d="M13.9639 29.997C13.4625 29.9977 12.9791 29.81 12.6096 29.471C12.2401 29.132 12.0116 28.6665 11.9693 28.1669L11.6397 24.7352H11C10.4696 24.7351 9.96101 24.5243 9.58596 24.1493C9.21092 23.7743 9.00016 23.2656 9.00002 22.7352V19.7352C8.9977 18.8813 9.16477 18.0354 9.49156 17.2464C9.81835 16.4575 10.2984 15.7412 10.9038 15.139C11.201 14.8412 11.5263 14.5727 11.875 14.3373C11.593 14.135 11.3279 13.91 11.0825 13.6644C10.1779 12.7591 9.573 11.5979 9.34978 10.3376C9.12656 9.0774 9.29575 7.77902 9.83446 6.61807C10.3732 5.45712 11.2554 4.48962 12.3619 3.84639C13.4684 3.20317 14.7457 2.91527 16.0211 3.02161C17.2965 3.12795 18.5085 3.62342 19.4932 4.44099C20.4779 5.25857 21.1877 6.35882 21.5267 7.59296C21.8657 8.82709 21.8175 10.1356 21.3887 11.3414C20.9599 12.5473 20.1711 13.5924 19.1289 14.3353C20.0157 14.9295 20.7424 15.733 21.2447 16.6748C21.747 17.6167 22.0095 18.6678 22.0088 19.7352V22.7352C22.0087 23.2656 21.7979 23.7743 21.4229 24.1493C21.0478 24.5243 20.5392 24.7351 20.0088 24.7352H19.3692L19.0372 28.1825C18.9913 28.6784 18.7619 29.1393 18.3939 29.475C18.0259 29.8106 17.5459 29.9967 17.0479 29.997H13.9639Z" fill="white"/>
<path fill-rule="evenodd" clip-rule="evenodd" d="M18.139 13.1964C17.1919 13.8293 16.049 14.1008 14.9185 13.9614C13.788 13.822 12.7452 13.281 11.9802 12.437C11.2152 11.5931 10.7789 10.5023 10.7509 9.36359C10.7229 8.22486 11.1051 7.11398 11.8276 6.23344C12.5502 5.3529 13.5652 4.76133 14.6875 4.56655C15.8098 4.37178 16.9647 4.58677 17.9417 5.17235C18.9188 5.75792 19.6529 6.67509 20.0102 7.75666C20.3675 8.83824 20.3243 10.0122 19.8884 11.0646C19.5289 11.9325 18.9201 12.6744 18.139 13.1964ZM17.8171 9.45395C17.7376 9.42427 17.6519 9.41529 17.568 9.42788C17.2699 9.47352 16.9687 9.49659 16.667 9.49688C15.5576 9.4996 14.4675 9.20654 13.509 8.64788C13.4361 8.6054 13.3537 8.58205 13.2693 8.58002C13.1849 8.57798 13.1014 8.59733 13.0266 8.63626C12.9517 8.67519 12.8879 8.73243 12.8411 8.80266C12.7944 8.87288 12.7661 8.9538 12.759 9.03788C12.7515 9.10728 12.7485 9.1771 12.75 9.24688C12.75 9.90333 12.9849 10.5381 13.4123 11.0363C13.8397 11.5346 14.4314 11.8634 15.0802 11.9632C15.729 12.063 16.3921 11.9273 16.9495 11.5805C17.5069 11.2338 17.9218 10.699 18.119 10.0729C18.1576 9.95068 18.1478 9.81832 18.0916 9.70314C18.0355 9.58796 17.9372 9.49876 17.8171 9.45395ZM11.9645 16.1994C12.6641 15.499 13.5556 15.0219 14.5264 14.8283C15.4972 14.6347 16.5035 14.7334 17.4182 15.1119C18.3329 15.4904 19.1147 16.1316 19.6649 16.9545C20.2151 17.7774 20.5088 18.745 20.509 19.7349V22.7349C20.509 22.8006 20.4961 22.8656 20.471 22.9263C20.4459 22.9869 20.4091 23.042 20.3626 23.0885C20.3162 23.1349 20.2611 23.1717 20.2004 23.1969C20.1397 23.222 20.0747 23.2349 20.009 23.2349H18.463C18.3383 23.2343 18.2179 23.2803 18.1254 23.364C18.0329 23.4476 17.975 23.5628 17.963 23.6869L17.544 28.0389C17.5335 28.1641 17.4762 28.2807 17.3835 28.3656C17.2909 28.4505 17.1697 28.4973 17.044 28.4969H13.964C13.8384 28.4973 13.7172 28.4505 13.6245 28.3656C13.5319 28.2807 13.4746 28.1641 13.464 28.0389L13.046 23.6869C13.0341 23.5628 12.9761 23.4476 12.8836 23.364C12.7911 23.2803 12.6707 23.2343 12.546 23.2349H11C10.9344 23.2349 10.8693 23.222 10.8087 23.1969C10.748 23.1717 10.6929 23.1349 10.6464 23.0885C10.6 23.042 10.5632 22.9869 10.538 22.9263C10.5129 22.8656 10.5 22.8006 10.5 22.7349V19.7349C10.5 18.4088 11.0268 17.1371 11.9645 16.1994Z" fill="#4085C6"/>
</svg>
