<svg width="32" height="32" viewBox="0 0 32 32" fill="none" xmlns="http://www.w3.org/2000/svg">
<path fill-rule="evenodd" clip-rule="evenodd" d="M7.50049 29.5039C7.27002 29.5039 7.04346 29.4639 6.82715 29.3867C6.43018 29.2422 6.09863 28.9873 5.86231 28.6475C5.62891 28.3154 5.50293 27.918 5.50293 27.5049V23.5049H4.88281C4.42285 23.5049 3.98486 23.3779 3.60595 23.1387C3.22411 22.9004 2.9165 22.5527 2.72216 22.1377C2.52734 21.7178 2.45898 21.2578 2.52294 20.8037C2.58739 20.3496 2.78026 19.9268 3.08056 19.5801L5.59765 16.4356C5.45214 16.3521 5.31738 16.2461 5.20117 16.1231L4.58594 15.4888C3.61231 14.4346 2.96045 13.169 2.67627 11.8008C2.3916 10.4326 2.48438 9.01124 2.94482 7.69141C3.40527 6.37207 4.21582 5.20166 5.29003 4.30713C6.36376 3.4126 7.66112 2.82666 9.04247 2.61182C9.45507 2.53907 9.90624 2.5 10.3545 2.5C11.1416 2.5 11.9214 2.61963 12.6719 2.85498C13.8491 3.22461 14.9341 3.87988 15.81 4.75049L16.0063 4.93164L16.2485 4.70898C17.0762 3.88378 18.1572 3.22998 19.332 2.85937C20.0849 2.62255 20.8662 2.50244 21.6553 2.50244C22.0976 2.50244 22.543 2.54053 22.9795 2.61621C24.3584 2.8125 25.6924 3.4082 26.793 4.33105C27.8926 5.25195 28.7129 6.46142 29.1621 7.82812C29.6113 9.19189 29.6689 10.6514 29.3301 12.0493C28.9892 13.4482 28.2676 14.7187 27.2432 15.7246L17.8389 25.4092C17.6084 25.6484 17.333 25.8379 17.0234 25.9707C16.7109 26.1035 16.3818 26.1699 16.043 26.1699C15.7036 26.1699 15.3745 26.1035 15.0644 25.9717C14.7529 25.8379 14.477 25.6484 14.2431 25.4053L12.9263 24.0488C12.9087 24.0293 12.8916 24.0097 12.875 23.9902L9.06347 28.7519C8.80615 29.0771 8.45312 29.3125 8.04687 29.4277C7.86767 29.4785 7.68457 29.5039 7.50048 29.5039L7.50049 29.5039Z" fill="white"/>
<path fill-rule="evenodd" clip-rule="evenodd" d="M11.1628 11.6143C10.9498 11.5438 10.7272 11.5067 10.5028 11.5043C10.2032 11.5045 9.90749 11.572 9.63747 11.7018C9.36746 11.8317 9.13006 12.0205 8.94281 12.2543L6.67281 15.0743C6.62358 15.1279 6.55543 15.1602 6.48281 15.1643C6.4479 15.168 6.41263 15.1635 6.3797 15.1514C6.34676 15.1392 6.31704 15.1197 6.29281 15.0943L5.66281 14.4443C4.89883 13.6172 4.37413 12.5978 4.14486 11.4954C3.91558 10.393 3.99037 9.24898 4.3612 8.18579C4.73203 7.12259 5.38496 6.18023 6.25012 5.45954C7.11528 4.73885 8.16011 4.26696 9.27281 4.09435C10.2572 3.92119 11.2688 3.98705 12.2225 4.28637C13.1761 4.58569 14.0439 5.10972 14.7528 5.81435L15.8328 6.81435C15.879 6.85722 15.9398 6.88105 16.0028 6.88105C16.0659 6.88105 16.1266 6.85722 16.1728 6.81435L17.2628 5.81435C17.9691 5.11206 18.8335 4.58937 19.7836 4.2901C20.7336 3.99083 21.7415 3.9237 22.7228 4.09435C23.8673 4.25763 24.9434 4.73767 25.8295 5.48025C26.7156 6.22283 27.3764 7.19838 27.7373 8.29671C28.0982 9.39504 28.1449 10.5724 27.8719 11.6958C27.599 12.8193 27.0174 13.844 26.1928 14.6543L16.7628 24.3643C16.6695 24.4611 16.5577 24.5381 16.434 24.5907C16.3103 24.6433 16.1772 24.6704 16.0428 24.6704C15.9084 24.6704 15.7754 24.6433 15.6516 24.5907C15.5279 24.5381 15.4161 24.4611 15.3228 24.3643L14.0028 23.0043C13.9592 22.9565 13.9351 22.8941 13.9351 22.8293C13.9351 22.7646 13.9592 22.7022 14.0028 22.6543L15.0028 21.3843C15.2924 21.0343 15.4752 20.6084 15.5296 20.1573C15.584 19.7063 15.5075 19.2491 15.3094 18.8403C15.1114 18.4315 14.7999 18.0882 14.4123 17.8513C14.0246 17.6145 13.577 17.494 13.1228 17.5043H12.7528C12.6865 17.5043 12.6229 17.478 12.576 17.4311C12.5292 17.3842 12.5028 17.3207 12.5028 17.2543V13.5043C12.5032 13.0892 12.3745 12.6842 12.1344 12.3456C11.8942 12.0069 11.5547 11.7513 11.1628 11.6143V11.6143ZM6.92959 22.0777C6.88271 22.0308 6.81912 22.0044 6.75282 22.0044H4.88282C4.71492 22.0069 4.54989 21.9608 4.40765 21.8715C4.26541 21.7823 4.15204 21.6538 4.0812 21.5015C4.01037 21.3493 3.9851 21.1798 4.00846 21.0135C4.03181 20.8473 4.10278 20.6913 4.21282 20.5644L10.1128 13.1944C10.1775 13.1139 10.2655 13.0553 10.3648 13.0268C10.464 12.9982 10.5697 13.0012 10.6673 13.0351C10.7648 13.0691 10.8495 13.1325 10.9096 13.2165C10.9696 13.3006 11.0022 13.4011 11.0028 13.5044V18.7544C11.0028 18.8207 11.0292 18.8843 11.076 18.9312C11.1229 18.9781 11.1865 19.0044 11.2528 19.0044H13.1228C13.2907 19.002 13.4557 19.0481 13.598 19.1374C13.7402 19.2266 13.8536 19.3551 13.9244 19.5073C13.9953 19.6596 14.0205 19.8291 13.9972 19.9954C13.9738 20.1616 13.9028 20.3176 13.7928 20.4444L7.89282 27.8144C7.82788 27.8963 7.73895 27.9557 7.63852 27.9844C7.53808 28.0131 7.43117 28.0096 7.33282 27.9744C7.23618 27.9395 7.15266 27.8756 7.09361 27.7915C7.03456 27.7074 7.00286 27.6072 7.00282 27.5044V22.2544C7.00282 22.1881 6.97648 22.1246 6.92959 22.0777V22.0777Z" fill="#E62645"/>
</svg>
