<svg width="32" height="32" viewBox="0 0 32 32" fill="none" xmlns="http://www.w3.org/2000/svg">
<path d="M14.8246 14.1901C14.8246 14.4076 14.9 14.6184 15.038 14.7866C15.176 14.9547 15.368 15.0698 15.5813 15.1122C15.7946 15.1547 16.0161 15.1218 16.2079 15.0193C16.3997 14.9167 16.55 14.7509 16.6333 14.5499C16.7165 14.349 16.7275 14.1254 16.6644 13.9172C16.6012 13.7091 16.4679 13.5293 16.287 13.4084C16.1062 13.2876 15.889 13.2332 15.6726 13.2545C15.4561 13.2758 15.2537 13.3716 15.0999 13.5254C14.9236 13.7017 14.8246 13.9408 14.8246 14.1901V14.1901Z" fill="white"/>
<path d="M27.5 4.00002H20.5C20.3674 4.00002 20.2402 4.0527 20.1464 4.14647C20.0527 4.24024 20 4.36741 20 4.50002L19.9808 10.4805C19.9808 10.5799 19.9413 10.6753 19.8709 10.7457C19.8006 10.816 19.7052 10.8555 19.6058 10.8555H12.346C12.2719 10.8555 12.1995 10.8335 12.138 10.7923C12.0764 10.7512 12.0284 10.6927 12 10.6243V8.00039C12.0001 7.93469 11.9873 7.86961 11.9622 7.80887C11.9372 7.74813 11.9004 7.69292 11.854 7.64639L8.354 4.14639C8.26024 4.05266 8.13308 4 8.0005 4C7.86792 4 7.74076 4.05266 7.647 4.14639L4.147 7.64639C4.10042 7.69283 4.06346 7.748 4.03824 7.80875C4.01301 7.86949 4.00002 7.93462 4 8.00039V27.5C4 27.6326 4.05268 27.7598 4.14645 27.8536C4.24021 27.9473 4.36739 28 4.5 28H11.5C11.6326 28 11.7598 27.9473 11.8536 27.8536C11.9473 27.7598 12 27.6326 12 27.5V23.0474C12.0284 22.979 12.0764 22.9205 12.138 22.8794C12.1996 22.8382 12.2719 22.8163 12.346 22.8162H19.6058C19.7053 22.8162 19.8007 22.8558 19.871 22.9261C19.9413 22.9964 19.9808 23.0918 19.9808 23.1912V25.782H20V27.5C20 27.6326 20.0527 27.7598 20.1464 27.8536C20.2402 27.9473 20.3674 28 20.5 28H27.5C27.6326 28 27.7598 27.9473 27.8536 27.8536C27.9473 27.7598 28 27.6326 28 27.5V4.50002C28 4.36741 27.9473 4.24024 27.8536 4.14647C27.7598 4.0527 27.6326 4.00002 27.5 4.00002V4.00002ZM7.25 25C7.25 25.1989 7.17098 25.3897 7.03033 25.5304C6.88968 25.671 6.69891 25.75 6.5 25.75C6.30109 25.75 6.11032 25.671 5.96967 25.5304C5.82902 25.3897 5.75 25.1989 5.75 25V24C5.75 23.8011 5.82902 23.6103 5.96967 23.4697C6.11032 23.329 6.30109 23.25 6.5 23.25C6.69891 23.25 6.88968 23.329 7.03033 23.4697C7.17098 23.6103 7.25 23.8011 7.25 24V25ZM7.25 20.5C7.25 20.6989 7.17098 20.8897 7.03033 21.0304C6.88968 21.171 6.69891 21.25 6.5 21.25C6.30109 21.25 6.11032 21.171 5.96967 21.0304C5.82902 20.8897 5.75 20.6989 5.75 20.5V19.5C5.75 19.3011 5.82902 19.1103 5.96967 18.9697C6.11032 18.829 6.30109 18.75 6.5 18.75C6.69891 18.75 6.88968 18.829 7.03033 18.9697C7.17098 19.1103 7.25 19.3011 7.25 19.5V20.5ZM7.25 16.0533C7.25 16.2522 7.17098 16.443 7.03033 16.5836C6.88968 16.7243 6.69891 16.8033 6.5 16.8033C6.30109 16.8033 6.11032 16.7243 5.96967 16.5836C5.82902 16.443 5.75 16.2522 5.75 16.0533V15.0533C5.75 14.8544 5.82902 14.6636 5.96967 14.523C6.11032 14.3823 6.30109 14.3033 6.5 14.3033C6.69891 14.3033 6.88968 14.3823 7.03033 14.523C7.17098 14.6636 7.25 14.8544 7.25 15.0533V16.0533ZM10.25 25C10.25 25.1989 10.171 25.3897 10.0303 25.5304C9.88968 25.671 9.69891 25.75 9.5 25.75C9.30109 25.75 9.11032 25.671 8.96967 25.5304C8.82902 25.3897 8.75 25.1989 8.75 25V24C8.75 23.8011 8.82902 23.6103 8.96967 23.4697C9.11032 23.329 9.30109 23.25 9.5 23.25C9.69891 23.25 9.88968 23.329 10.0303 23.4697C10.171 23.6103 10.25 23.8011 10.25 24V25ZM10.25 20.5C10.25 20.6989 10.171 20.8897 10.0303 21.0304C9.88968 21.171 9.69891 21.25 9.5 21.25C9.30109 21.25 9.11032 21.171 8.96967 21.0304C8.82902 20.8897 8.75 20.6989 8.75 20.5V19.5C8.75 19.3011 8.82902 19.1103 8.96967 18.9697C9.11032 18.829 9.30109 18.75 9.5 18.75C9.69891 18.75 9.88968 18.829 10.0303 18.9697C10.171 19.1103 10.25 19.3011 10.25 19.5V20.5ZM10.25 16.0533C10.25 16.2522 10.171 16.443 10.0303 16.5836C9.88968 16.7243 9.69891 16.8033 9.5 16.8033C9.30109 16.8033 9.11032 16.7243 8.96967 16.5836C8.82902 16.443 8.75 16.2522 8.75 16.0533V15.0533C8.75 14.8544 8.82902 14.6636 8.96967 14.523C9.11032 14.3823 9.30109 14.3033 9.5 14.3033C9.69891 14.3033 9.88968 14.3823 10.0303 14.523C10.171 14.6636 10.25 14.8544 10.25 15.0533V16.0533ZM15.3001 21.097C15.6197 20.5936 15.8685 20.0487 16.0396 19.4774C16.0448 19.4613 16.0542 19.4468 16.0669 19.4355C16.0797 19.4243 16.0952 19.4167 16.1119 19.4136C16.1286 19.4104 16.1458 19.4119 16.1618 19.4178C16.1777 19.4237 16.1917 19.4338 16.2024 19.447C16.5591 19.9528 16.8386 20.5089 17.0316 21.097L15.3001 21.097ZM19.9808 20.722C19.9808 20.8215 19.9413 20.9168 19.8709 20.9872C19.8006 21.0575 19.7052 21.097 19.6058 21.097H18.201C18.2017 21.0446 18.195 20.9924 18.1812 20.9418C17.8634 19.8664 17.2714 18.8921 16.4634 18.1146C16.4219 18.0798 16.3885 18.0365 16.3655 17.9875C16.3424 17.9386 16.3303 17.8852 16.3299 17.8311V17.1527C16.3299 17.1352 16.3348 17.1181 16.3439 17.1033C16.3531 17.0884 16.3663 17.0764 16.3819 17.0687C16.3975 17.0608 16.415 17.0575 16.4324 17.0591C16.4498 17.0607 16.4664 17.0671 16.4804 17.0775L16.5886 17.1595C16.8642 17.3661 17.1712 17.5268 17.4979 17.6356L17.9402 17.783C17.9978 17.8021 18.0581 17.8119 18.1188 17.812C18.2537 17.812 18.3842 17.7636 18.4865 17.6757C18.5889 17.5877 18.6563 17.4659 18.6765 17.3325C18.6933 17.1965 18.6618 17.0589 18.5873 16.9439C18.5128 16.8288 18.4002 16.7437 18.2692 16.7034L17.8537 16.5654C17.6423 16.4948 17.4437 16.3907 17.2655 16.257L16.8834 15.9705C16.5653 15.7319 16.1871 15.5866 15.7911 15.5508C15.3951 15.5149 14.9969 15.5899 14.6411 15.7674C14.2497 15.9614 13.9193 16.2597 13.6864 16.6293C13.4535 16.9989 13.327 17.4255 13.3208 17.8624C13.3152 17.937 13.3246 18.0119 13.3482 18.0828C13.3719 18.1538 13.4093 18.2193 13.4585 18.2757C13.5076 18.332 13.5675 18.3781 13.6346 18.4111C13.7016 18.4442 13.7746 18.4636 13.8493 18.4683C13.9239 18.4729 13.9987 18.4627 14.0694 18.4383C14.14 18.4138 14.2051 18.3756 14.2609 18.3257C14.3167 18.2759 14.362 18.2156 14.3943 18.1481C14.4266 18.0806 14.4452 18.0074 14.4489 17.9328C14.4464 17.7113 14.5012 17.4929 14.6081 17.2989C14.715 17.1049 14.8703 16.9418 15.0589 16.8256C15.0731 16.817 15.0895 16.8122 15.1062 16.8119C15.1229 16.8117 15.1393 16.8158 15.1539 16.824C15.1684 16.8322 15.1806 16.8442 15.189 16.8586C15.1974 16.873 15.2018 16.8894 15.2017 16.9062V17.4164C15.2018 17.9498 15.1434 18.4816 15.0277 19.0022C14.8745 19.6423 14.5912 20.2439 14.1955 20.7697C14.1241 20.8641 14.0847 20.9788 14.083 21.0971H12.346C12.2719 21.0971 12.1995 21.0751 12.1379 21.0339C12.0764 20.9927 12.0284 20.9342 12 20.8658V12.8059C12.0284 12.7375 12.0764 12.679 12.138 12.6379C12.1995 12.5967 12.2719 12.5748 12.346 12.5747H19.6058C19.7053 12.5747 19.8007 12.6142 19.871 12.6846C19.9413 12.7549 19.9808 12.8503 19.9808 12.9497L19.9808 20.722ZM23.25 21.5C23.25 21.6989 23.171 21.8897 23.0303 22.0304C22.8897 22.171 22.6989 22.25 22.5 22.25C22.3011 22.25 22.1103 22.171 21.9697 22.0304C21.829 21.8897 21.75 21.6989 21.75 21.5V20.5C21.75 20.3011 21.829 20.1103 21.9697 19.9697C22.1103 19.829 22.3011 19.75 22.5 19.75C22.6989 19.75 22.8897 19.829 23.0303 19.9697C23.171 20.1103 23.25 20.3011 23.25 20.5V21.5ZM23.25 17C23.25 17.1989 23.171 17.3897 23.0303 17.5304C22.8897 17.671 22.6989 17.75 22.5 17.75C22.3011 17.75 22.1103 17.671 21.9697 17.5304C21.829 17.3897 21.75 17.1989 21.75 17V16C21.75 15.8011 21.829 15.6103 21.9697 15.4697C22.1103 15.329 22.3011 15.25 22.5 15.25C22.6989 15.25 22.8897 15.329 23.0303 15.4697C23.171 15.6103 23.25 15.8011 23.25 16V17ZM23.25 12.5C23.25 12.6989 23.171 12.8897 23.0303 13.0304C22.8897 13.171 22.6989 13.25 22.5 13.25C22.3011 13.25 22.1103 13.171 21.9697 13.0304C21.829 12.8897 21.75 12.6989 21.75 12.5V11.5C21.75 11.3011 21.829 11.1103 21.9697 10.9697C22.1103 10.829 22.3011 10.75 22.5 10.75C22.6989 10.75 22.8897 10.829 23.0303 10.9697C23.171 11.1103 23.25 11.3011 23.25 11.5V12.5ZM23.25 8.00002C23.25 8.19894 23.171 8.3897 23.0303 8.53035C22.8897 8.67101 22.6989 8.75002 22.5 8.75002C22.3011 8.75002 22.1103 8.67101 21.9697 8.53035C21.829 8.3897 21.75 8.19894 21.75 8.00002V7.00002C21.75 6.80111 21.829 6.61035 21.9697 6.46969C22.1103 6.32904 22.3011 6.25002 22.5 6.25002C22.6989 6.25002 22.8897 6.32904 23.0303 6.46969C23.171 6.61035 23.25 6.80111 23.25 7.00002V8.00002ZM26.25 21.5C26.25 21.6989 26.171 21.8897 26.0303 22.0304C25.8897 22.171 25.6989 22.25 25.5 22.25C25.3011 22.25 25.1103 22.171 24.9697 22.0304C24.829 21.8897 24.75 21.6989 24.75 21.5V20.5C24.75 20.3011 24.829 20.1103 24.9697 19.9697C25.1103 19.829 25.3011 19.75 25.5 19.75C25.6989 19.75 25.8897 19.829 26.0303 19.9697C26.171 20.1103 26.25 20.3011 26.25 20.5V21.5ZM26.25 17C26.25 17.1989 26.171 17.3897 26.0303 17.5304C25.8897 17.671 25.6989 17.75 25.5 17.75C25.3011 17.75 25.1103 17.671 24.9697 17.5304C24.829 17.3897 24.75 17.1989 24.75 17V16C24.75 15.8011 24.829 15.6103 24.9697 15.4697C25.1103 15.329 25.3011 15.25 25.5 15.25C25.6989 15.25 25.8897 15.329 26.0303 15.4697C26.171 15.6103 26.25 15.8011 26.25 16V17ZM26.25 12.5C26.25 12.6989 26.171 12.8897 26.0303 13.0304C25.8897 13.171 25.6989 13.25 25.5 13.25C25.3011 13.25 25.1103 13.171 24.9697 13.0304C24.829 12.8897 24.75 12.6989 24.75 12.5V11.5C24.75 11.3011 24.829 11.1103 24.9697 10.9697C25.1103 10.829 25.3011 10.75 25.5 10.75C25.6989 10.75 25.8897 10.829 26.0303 10.9697C26.171 11.1103 26.25 11.3011 26.25 11.5V12.5ZM26.25 8.00002C26.25 8.19894 26.171 8.3897 26.0303 8.53035C25.8897 8.67101 25.6989 8.75002 25.5 8.75002C25.3011 8.75002 25.1103 8.67101 24.9697 8.53035C24.829 8.3897 24.75 8.19894 24.75 8.00002V7.00002C24.75 6.80111 24.829 6.61035 24.9697 6.46969C25.1103 6.32904 25.3011 6.25002 25.5 6.25002C25.6989 6.25002 25.8897 6.32904 26.0303 6.46969C26.171 6.61035 26.25 6.80111 26.25 7.00002V8.00002Z" fill="white"/>
</svg>
