<svg width="32" height="32" viewBox="0 0 32 32" fill="none" xmlns="http://www.w3.org/2000/svg">
<path d="M12 21.25C12.0024 19.0627 12.8723 16.9657 14.419 15.419C15.9657 13.8723 18.0627 13.0024 20.25 13C21.6051 13 22.9389 13.3375 24.131 13.982C24.1691 14.0023 24.2119 14.0124 24.2551 14.0114C24.2982 14.0104 24.3404 13.9982 24.3775 13.9761C24.4146 13.9539 24.4454 13.9226 24.4669 13.8851C24.4883 13.8476 24.4997 13.8052 24.5 13.762V10C24.5001 9.53894 24.3409 9.09201 24.0493 8.73484C23.7578 8.37767 23.3517 8.13221 22.9 8.04C22.7872 8.01698 22.6859 7.95576 22.613 7.86668C22.5401 7.77759 22.5002 7.66609 22.5 7.551V6C22.5 5.46957 22.2893 4.96086 21.9142 4.58579C21.5391 4.21071 21.0304 4 20.5 4H8C7.20435 4 6.44129 4.31607 5.87868 4.87868C5.31607 5.44129 5 6.20435 5 7V25C5 25.7956 5.31607 26.5587 5.87868 27.1213C6.44129 27.6839 7.20435 28 8 28H14.787C14.8382 27.9999 14.8882 27.9841 14.9301 27.9548C14.9721 27.9254 15.004 27.8838 15.0215 27.8357C15.0391 27.7876 15.0415 27.7353 15.0283 27.6858C15.0152 27.6363 14.9871 27.592 14.948 27.559C14.0251 26.787 13.2828 25.8219 12.7735 24.7318C12.2641 23.6418 12.0001 22.4532 12 21.25ZM7 7C7 6.73478 7.10536 6.48043 7.29289 6.29289C7.48043 6.10536 7.73478 6 8 6H20.25C20.3163 6 20.3799 6.02634 20.4268 6.07322C20.4737 6.12011 20.5 6.1837 20.5 6.25V7.75C20.5 7.8163 20.4737 7.87989 20.4268 7.92678C20.3799 7.97366 20.3163 8 20.25 8H8C7.73478 8 7.48043 7.89464 7.29289 7.70711C7.10536 7.51957 7 7.26522 7 7Z" fill="#51247A"/>
<path d="M20.25 28C21.585 28 22.8901 27.6041 24.0001 26.8624C25.1101 26.1207 25.9753 25.0665 26.4862 23.8331C26.9971 22.5997 27.1308 21.2425 26.8703 19.9331C26.6098 18.6238 25.967 17.421 25.023 16.477C24.079 15.533 22.8762 14.8902 21.5669 14.6297C20.2575 14.3693 18.9003 14.5029 17.6669 15.0138C16.4335 15.5247 15.3793 16.3899 14.6376 17.4999C13.8959 18.6099 13.5 19.915 13.5 21.25C13.5021 23.0396 14.214 24.7552 15.4794 26.0206C16.7448 27.286 18.4604 27.9979 20.25 28ZM20.25 25.25C19.9848 25.25 19.7304 25.1446 19.5429 24.9571C19.3554 24.7696 19.25 24.5152 19.25 24.25V22C19.25 21.8674 19.1973 21.7402 19.1036 21.6464C19.0098 21.5527 18.8826 21.5 18.75 21.5H17.956C17.8715 21.4998 17.7887 21.4761 17.7168 21.4316C17.6449 21.3871 17.5868 21.3236 17.5488 21.2481C17.5109 21.1725 17.4947 21.0879 17.5019 21.0037C17.5092 20.9195 17.5397 20.8389 17.59 20.771L19.854 17.685C19.8964 17.6281 19.9516 17.5819 20.015 17.5501C20.0785 17.5182 20.1485 17.5017 20.2195 17.5017C20.2905 17.5017 20.3605 17.5182 20.424 17.5501C20.4874 17.5819 20.5426 17.6281 20.585 17.685L22.852 20.775C22.9025 20.8429 22.933 20.9235 22.9403 21.0078C22.9476 21.0921 22.9313 21.1767 22.8932 21.2523C22.8551 21.3278 22.7968 21.3913 22.7247 21.4356C22.6526 21.4798 22.5696 21.5032 22.485 21.503H21.75C21.6174 21.503 21.4902 21.5557 21.3964 21.6494C21.3027 21.7432 21.25 21.8704 21.25 22.003V24.253C21.2492 24.5177 21.1435 24.7713 20.956 24.9582C20.7686 25.1451 20.5147 25.25 20.25 25.25Z" fill="#51247A"/>
</svg>
