<svg width="32" height="32" viewBox="0 0 32 32" fill="none" xmlns="http://www.w3.org/2000/svg">
<path d="M15.5008 27.3564C8.18289 27.3564 2.00076 23.5625 2.00076 19.0713C1.98421 15.4846 2.23851 11.9019 2.76148 8.35352C2.94829 7.14107 3.56295 6.03553 4.49423 5.23699C5.4255 4.43845 6.61187 3.99965 7.83863 4H9.76343C10.4121 3.99985 11.0535 4.13593 11.6462 4.39944C12.2389 4.66294 12.7697 5.04799 13.2041 5.52965C13.6385 6.01132 13.967 6.57885 14.1681 7.19551C14.3693 7.81216 14.4387 8.4642 14.3718 9.10938C14.3003 9.75892 14.0902 10.3855 13.7557 10.9469C13.4212 11.5083 12.9701 11.9913 12.4328 12.3633C12.1552 12.5574 11.8331 12.6783 11.4963 12.7148L11.4143 12.7236L11.2781 12.7266C11.1685 12.7266 11.0591 12.7178 10.9509 12.7002L11.1277 13.9815C12.564 13.3839 14.1529 13.2574 15.6658 13.6201C16.3829 12.4841 17.4035 11.5713 18.6122 10.9848C19.8208 10.3983 21.1694 10.1615 22.5056 10.3013C24.4049 10.5499 26.1361 11.5189 27.341 13.008C28.5459 14.4971 29.1324 16.3924 28.9792 18.3018C28.6179 24.2998 24.0818 27.3564 15.5008 27.3564Z" fill="white"/>
<path d="M22.3495 11.793C21.1638 11.6689 19.969 11.9196 18.9333 12.51C17.8975 13.1003 17.0729 14.0006 16.5755 15.084C16.5306 15.1824 16.4497 15.2598 16.3494 15.3003C16.2492 15.3409 16.1372 15.3415 16.0365 15.302C15.1534 14.9651 14.2019 14.8471 13.2632 14.958C12.3246 15.069 11.4268 15.4056 10.6465 15.939C10.5731 15.9892 10.488 16.0199 10.3994 16.028C10.3108 16.0362 10.2216 16.0216 10.1402 15.9857C10.0588 15.9497 9.98789 15.8936 9.93424 15.8226C9.88058 15.7516 9.84591 15.6681 9.83353 15.58L9.01553 9.64103C9.00644 9.579 8.9754 9.52229 8.92807 9.48119C8.88073 9.44009 8.82022 9.41733 8.75753 9.41703H8.10053C7.89784 9.40978 7.70587 9.32417 7.56504 9.17821C7.42421 9.03226 7.34551 8.83735 7.34551 8.63453C7.34551 8.43171 7.42421 8.2368 7.56504 8.09085C7.70587 7.94489 7.89784 7.85928 8.10053 7.85203H8.76153C9.19996 7.85477 9.62292 8.01441 9.95384 8.30203C10.2847 8.58965 10.5017 8.98625 10.5655 9.42003L10.7595 10.778C10.7723 10.8667 10.8077 10.9506 10.8622 11.0216C10.9167 11.0927 10.9885 11.1486 11.0708 11.1839C11.1531 11.2193 11.2432 11.2329 11.3322 11.2234C11.4213 11.214 11.5065 11.1818 11.5795 11.13C11.939 10.8811 12.241 10.5582 12.4652 10.1828C12.6895 9.80751 12.8307 9.38851 12.8795 8.95403C12.9248 8.51781 12.8779 8.07695 12.7419 7.66002C12.6059 7.24308 12.3838 6.85936 12.09 6.53373C11.7963 6.2081 11.4374 5.94782 11.0366 5.76974C10.6358 5.59167 10.2021 5.49978 9.76353 5.50003H7.85253C6.98337 5.49644 6.14168 5.80432 5.47998 6.36788C4.81828 6.93144 4.38034 7.71339 4.24553 8.57203C3.73237 12.0479 3.48332 15.5576 3.50053 19.071C3.50053 22.685 9.11053 25.856 15.5005 25.856C23.2515 25.856 27.1725 23.345 27.4845 18.182C27.606 16.6628 27.1418 15.1547 26.1871 13.9668C25.2323 12.7788 23.8593 12.0011 22.3495 11.793Z" fill="#00A2C7"/>
</svg>
