<svg width="32" height="32" viewBox="0 0 32 32" fill="none" xmlns="http://www.w3.org/2000/svg">
<path fill-rule="evenodd" clip-rule="evenodd" d="M8 28.5996C7.28407 28.5995 6.59749 28.3151 6.09117 27.809C5.58484 27.3028 5.30019 26.6163 5.2998 25.9004C5.30142 25.3653 5.46072 24.8425 5.7578 24.3975C4.74878 24.3605 3.79339 23.9338 3.09257 23.2069C2.39175 22.48 2.0001 21.5097 2 20.5V7.89991C2.00302 6.86609 2.41357 5.87515 3.14258 5.1421C3.50392 4.77886 3.93372 4.49088 4.40709 4.29484C4.88047 4.0988 5.38803 3.99859 5.90039 4.00001H25.1006C25.6127 4.00001 26.1198 4.10088 26.593 4.29687C27.0661 4.49286 27.496 4.78013 27.8581 5.14228C28.2202 5.50443 28.5074 5.93435 28.7033 6.40751C28.8993 6.88067 29.0001 7.38779 29 7.89991V20.5C29.0013 21.0121 28.9011 21.5193 28.7054 21.9925C28.5096 22.4657 28.2221 22.8954 27.8594 23.2569C27.1612 23.9516 26.2274 24.3587 25.2432 24.3975C25.54 24.8426 25.699 25.3654 25.7002 25.9004C25.7014 26.2555 25.6319 26.6073 25.4957 26.9352C25.3596 27.2632 25.1595 27.5607 24.9072 27.8106C24.4004 28.3149 23.7149 28.5985 23 28.5996H8Z" fill="white"/>
<path fill-rule="evenodd" clip-rule="evenodd" d="M25.1003 22.9C25.4155 22.9 25.7275 22.838 26.0187 22.7174C26.3099 22.5967 26.5745 22.42 26.7974 22.1971C27.0202 21.9742 27.197 21.7097 27.3176 21.4185C27.4382 21.1273 27.5003 20.8152 27.5003 20.5V7.9C27.5003 7.58482 27.4382 7.27273 27.3176 6.98155C27.197 6.69036 27.0202 6.42578 26.7974 6.20292C26.5745 5.98006 26.3099 5.80328 26.0187 5.68267C25.7275 5.56206 25.4155 5.49999 25.1003 5.5H5.90027C5.26376 5.5 4.65331 5.75286 4.20322 6.20294C3.75313 6.65303 3.50027 7.26348 3.50027 7.9V20.5C3.50026 20.8152 3.56233 21.1273 3.68294 21.4185C3.80355 21.7096 3.98033 21.9742 4.2032 22.1971C4.42606 22.4199 4.69064 22.5967 4.98182 22.7173C5.27301 22.8379 5.5851 22.9 5.90027 22.9H14.0003C14.0798 22.9 14.1561 22.9316 14.2124 22.9879C14.2686 23.0442 14.3002 23.1204 14.3003 23.2V24.4C14.3002 24.4796 14.2686 24.5558 14.2124 24.6121C14.1561 24.6684 14.0798 24.7 14.0003 24.7H8.00027C7.68201 24.7 7.37679 24.8264 7.15175 25.0515C6.9267 25.2765 6.80027 25.5817 6.80027 25.9C6.80027 26.2183 6.9267 26.5235 7.15175 26.7485C7.37679 26.9736 7.68201 27.1 8.00027 27.1H23.0003C23.3185 27.1 23.6238 26.9736 23.8488 26.7485C24.0738 26.5235 24.2003 26.2183 24.2003 25.9C24.2003 25.5817 24.0738 25.2765 23.8488 25.0515C23.6238 24.8264 23.3185 24.7 23.0003 24.7H17.0003C16.9207 24.7 16.8444 24.6684 16.7882 24.6121C16.7319 24.5558 16.7003 24.4796 16.7003 24.4V23.2C16.7003 23.1204 16.7319 23.0442 16.7882 22.9879C16.8444 22.9316 16.9207 22.9 17.0003 22.9H25.1003ZM24.8003 7.9C24.8798 7.90002 24.9561 7.93163 25.0124 7.98789C25.0686 8.04414 25.1003 8.12044 25.1003 8.2V18.4C25.1002 18.4796 25.0686 18.5558 25.0124 18.6121C24.9561 18.6684 24.8798 18.7 24.8003 18.7H6.20027C6.12071 18.7 6.04442 18.6684 5.98816 18.6121C5.9319 18.5559 5.90029 18.4796 5.90027 18.4V8.2C5.90027 8.12043 5.93188 8.04413 5.98814 7.98787C6.0444 7.93161 6.12071 7.9 6.20027 7.9H24.8003ZM15.4978 16.5C15.6681 16.5001 15.8372 16.4718 15.9982 16.4164L17.8327 15.7716C18.0275 15.7037 18.1964 15.5768 18.316 15.4087C18.4356 15.2406 18.5 15.0394 18.5003 14.8331V13.9972C18.5001 13.9183 18.4812 13.8405 18.4451 13.7704C18.4089 13.7002 18.3566 13.6397 18.2924 13.5938C18.2279 13.5478 18.1536 13.5176 18.0753 13.5057C17.997 13.4938 17.917 13.5006 17.8418 13.5255L15.735 14.2221C15.5807 14.2718 15.4148 14.2718 15.2606 14.2221L13.1588 13.5255C13.0455 13.4877 12.9224 13.4917 12.8118 13.5366C12.7012 13.5815 12.6102 13.6645 12.5554 13.7706C12.5192 13.8407 12.5003 13.9184 12.5003 13.9972V14.8331C12.5006 15.0394 12.565 15.2406 12.6846 15.4087C12.8042 15.5768 12.973 15.7037 13.1679 15.7716L15.0034 16.4164C15.1624 16.4713 15.3295 16.4996 15.4978 16.5ZM15.3448 9.52563C15.4474 9.49146 15.5583 9.49146 15.661 9.52563L20.1593 11.0263C20.2586 11.0597 20.345 11.1234 20.4062 11.2085C20.4674 11.2936 20.5003 11.3957 20.5003 11.5006C20.5003 11.6054 20.4674 11.7075 20.4062 11.7926C20.345 11.8777 20.2586 11.9414 20.1593 11.9748L15.6569 13.4755C15.5544 13.5102 15.4433 13.5102 15.3408 13.4755L11.826 12.304C11.7884 12.2917 11.7484 12.2884 11.7093 12.2945C11.6701 12.3006 11.633 12.3158 11.6009 12.339C11.5696 12.3621 11.5443 12.3923 11.5269 12.4271C11.5095 12.4618 11.5005 12.5002 11.5008 12.5391V13.9998C11.5008 14.1325 11.4481 14.2597 11.3543 14.3535C11.2605 14.4473 11.1332 14.5 11.0006 14.5C10.8679 14.5 10.7406 14.4473 10.6468 14.3535C10.553 14.2597 10.5003 14.1325 10.5003 13.9998V11.4986C10.5008 11.394 10.5341 11.2922 10.5955 11.2074C10.6569 11.1227 10.7433 11.0594 10.8425 11.0263L15.3448 9.52563Z" fill="#51247A"/>
</svg>
