<svg width="32" height="32" viewBox="0 0 32 32" fill="none" xmlns="http://www.w3.org/2000/svg">
<path d="M20.687 10.317C20.6338 10.3031 20.5866 10.2721 20.5528 10.2287C20.519 10.1853 20.5004 10.132 20.5 10.077V9C20.5 8.20435 20.1839 7.44129 19.6213 6.87868C19.0587 6.31607 18.2956 6 17.5 6H8.5C7.70435 6 6.94129 6.31607 6.37868 6.87868C5.81607 7.44129 5.5 8.20435 5.5 9V10.077C5.49996 10.1325 5.48146 10.1864 5.44743 10.2302C5.41339 10.274 5.36575 10.3052 5.312 10.319C4.93758 10.4149 4.6056 10.6324 4.36814 10.9374C4.13069 11.2423 4.0012 11.6175 4 12.004V14.004C4.00099 14.3909 4.13048 14.7666 4.36814 15.0719C4.60579 15.3773 4.93815 15.595 5.313 15.691C5.36656 15.7049 5.41398 15.7363 5.44782 15.7801C5.48166 15.8239 5.50002 15.8777 5.5 15.933V20C5.50134 20.5013 5.62892 20.9942 5.87098 21.4333C6.11304 21.8723 6.46177 22.2433 6.885 22.512C6.92035 22.5347 6.94942 22.5659 6.96951 22.6028C6.98961 22.6397 7.0001 22.681 7 22.723V24.004C7 24.4681 7.18437 24.9132 7.51256 25.2414C7.84075 25.5696 8.28587 25.754 8.75 25.754C9.21413 25.754 9.65925 25.5696 9.98744 25.2414C10.3156 24.9132 10.5 24.4681 10.5 24.004V23.25C10.5 23.1837 10.5263 23.1201 10.5732 23.0732C10.6201 23.0263 10.6837 23 10.75 23H15.25C15.3163 23 15.3799 23.0263 15.4268 23.0732C15.4737 23.1201 15.5 23.1837 15.5 23.25V24.004C15.5 24.4681 15.6844 24.9132 16.0126 25.2414C16.3408 25.5696 16.7859 25.754 17.25 25.754C17.7141 25.754 18.1592 25.5696 18.4874 25.2414C18.8156 24.9132 19 24.4681 19 24.004V22.723C18.9999 22.681 19.0104 22.6397 19.0305 22.6028C19.0506 22.5659 19.0797 22.5347 19.115 22.512C19.5382 22.2433 19.887 21.8723 20.129 21.4333C20.3711 20.9942 20.4987 20.5013 20.5 20V15.933C20.5 15.8777 20.5183 15.8239 20.5522 15.7801C20.586 15.7363 20.6334 15.7049 20.687 15.691C21.0618 15.595 21.3942 15.3773 21.6319 15.0719C21.8695 14.7666 21.999 14.3909 22 14.004V12.004C21.9992 11.617 21.8698 11.2413 21.6321 10.9359C21.3944 10.6305 21.0619 10.4128 20.687 10.317ZM9.5 20.254H8.5C8.30109 20.254 8.11032 20.175 7.96967 20.0343C7.82902 19.8937 7.75 19.7029 7.75 19.504C7.75 19.3051 7.82902 19.1143 7.96967 18.9737C8.11032 18.833 8.30109 18.754 8.5 18.754H9.5C9.69891 18.754 9.88968 18.833 10.0303 18.9737C10.171 19.1143 10.25 19.3051 10.25 19.504C10.25 19.7029 10.171 19.8937 10.0303 20.0343C9.88968 20.175 9.69891 20.254 9.5 20.254ZM17.5 20.254H16.5C16.3011 20.254 16.1103 20.175 15.9697 20.0343C15.829 19.8937 15.75 19.7029 15.75 19.504C15.75 19.3051 15.829 19.1143 15.9697 18.9737C16.1103 18.833 16.3011 18.754 16.5 18.754H17.5C17.6989 18.754 17.8897 18.833 18.0303 18.9737C18.171 19.1143 18.25 19.3051 18.25 19.504C18.25 19.7029 18.171 19.8937 18.0303 20.0343C17.8897 20.175 17.6989 20.254 17.5 20.254ZM18.5 16.5C18.5 16.5663 18.4737 16.6299 18.4268 16.6768C18.3799 16.7237 18.3163 16.75 18.25 16.75H7.75C7.6837 16.75 7.62011 16.7237 7.57322 16.6768C7.52634 16.6299 7.5 16.5663 7.5 16.5V9C7.5 8.73478 7.60536 8.48043 7.79289 8.29289C7.98043 8.10536 8.23478 8 8.5 8H17.5C17.7652 8 18.0196 8.10536 18.2071 8.29289C18.3946 8.48043 18.5 8.73478 18.5 9V16.5Z" fill="#51247A"/>
<path d="M25.25 12.004C24.6227 12.0023 24.0136 12.2155 23.5243 12.6081C23.0349 13.0006 22.6947 13.5489 22.5603 14.1617C22.4259 14.7745 22.5054 15.4148 22.7855 15.9762C23.0656 16.5375 23.5295 16.986 24.1 17.247C24.1434 17.267 24.1802 17.299 24.2061 17.3392C24.232 17.3795 24.2458 17.4262 24.246 17.474V24.754C24.246 25.0193 24.3514 25.2736 24.5389 25.4611C24.7264 25.6487 24.9808 25.754 25.246 25.754C25.5112 25.754 25.7656 25.6487 25.9531 25.4611C26.1406 25.2736 26.246 25.0193 26.246 24.754V17.477C26.2462 17.4292 26.26 17.3825 26.2859 17.3422C26.3118 17.302 26.3486 17.27 26.392 17.25C26.9636 16.9903 27.4289 16.5425 27.7105 15.9813C27.992 15.4201 28.0727 14.7794 27.9392 14.1659C27.8056 13.5525 27.4659 13.0033 26.9765 12.6099C26.4872 12.2165 25.8779 12.0027 25.25 12.004Z" fill="#51247A"/>
</svg>
