<svg width="32" height="32" viewBox="0 0 32 32" fill="none" xmlns="http://www.w3.org/2000/svg">
<path fill-rule="evenodd" clip-rule="evenodd" d="M15.3116 29.9947C14.6566 29.9947 14.0176 29.7921 13.4823 29.4146C12.947 29.0372 12.5416 28.5034 12.3215 27.8864C12.1015 27.2695 12.0777 26.5996 12.2534 25.9686C12.4291 25.3376 12.7956 24.7764 13.3028 24.3619L17.7974 20.6988L16.9288 17.9342L14.3243 19.7369C13.565 20.2636 12.6559 20.5309 11.7324 20.4991C10.8089 20.4672 9.92043 20.1379 9.19928 19.5602C8.74182 19.1929 8.36387 18.7363 8.08844 18.2184L6.48688 15.6754C6.03907 14.9629 5.89243 14.1017 6.07917 13.2812C6.26591 12.4606 6.77075 11.7478 7.48278 11.2992C8.19481 10.8507 9.05578 10.7032 9.87652 10.889C10.6973 11.0749 11.4106 11.579 11.8599 12.2906L12.4859 13.2823L14.9713 11.5631C14.0314 11.4875 13.1427 11.1044 12.4425 10.4729C11.7423 9.84136 11.2698 8.99669 11.098 8.06958C10.9263 7.14247 11.0649 6.18459 11.4924 5.34417C11.9198 4.50376 12.6124 3.82765 13.4628 3.42048C14.3133 3.0133 15.2742 2.89776 16.1969 3.09173C17.1196 3.28569 17.9527 3.77836 18.5672 4.49349C19.1817 5.20861 19.5434 6.10633 19.5964 7.04774C19.6493 7.98914 19.3905 8.92174 18.86 9.70123C19.5003 9.74114 20.1134 9.97415 20.6187 10.3695C21.1239 10.7649 21.4974 11.3041 21.69 11.9161L24.2779 20.1422C24.4602 20.7375 24.5111 21.3653 24.4271 21.9822C24.3431 22.5991 24.1263 23.1904 23.7916 23.7154C24.391 23.8429 24.9401 24.1426 25.3717 24.5777C25.9646 25.1735 26.2984 25.9793 26.3004 26.8199C26.3001 27.6618 25.9655 28.4692 25.3702 29.0645C24.7749 29.6599 23.9675 29.9944 23.1256 29.9947H15.3116Z" fill="white"/>
<path fill-rule="evenodd" clip-rule="evenodd" d="M13.3393 9.25853C12.8827 8.802 12.5986 8.20129 12.5354 7.55877C12.4721 6.91625 12.6335 6.27167 12.9922 5.73485C13.3509 5.19804 13.8847 4.8022 14.5025 4.61479C15.1203 4.42738 15.784 4.45999 16.3805 4.70706C16.977 4.95413 17.4693 5.40039 17.7737 5.96978C18.078 6.53918 18.1755 7.19648 18.0496 7.8297C17.9236 8.46293 17.582 9.03289 17.0829 9.44247C16.5838 9.85205 15.9582 10.0759 15.3126 10.0759C14.9461 10.0759 14.5832 10.0037 14.2446 9.86349C13.906 9.72324 13.5984 9.51767 13.3393 9.25853ZM20.0088 25.1456H23.1254C23.3452 25.1456 23.563 25.1889 23.7661 25.2731C23.9693 25.3572 24.1539 25.4806 24.3093 25.636C24.4648 25.7915 24.5882 25.9761 24.6723 26.1793C24.7564 26.3824 24.7998 26.6001 24.7998 26.82C24.7998 27.0399 24.7564 27.2576 24.6723 27.4608C24.5882 27.6639 24.4648 27.8485 24.3093 28.004C24.1539 28.1595 23.9693 28.2828 23.7661 28.367C23.563 28.4511 23.3452 28.4944 23.1254 28.4944H15.3115C14.9659 28.4945 14.6287 28.3877 14.3463 28.1886C14.0638 27.9894 13.8499 27.7078 13.7338 27.3823C13.6178 27.0568 13.6053 26.7033 13.6981 26.3704C13.7908 26.0375 13.9844 25.7415 14.2521 25.5229L19.3859 21.3379C19.4292 21.3026 19.4609 21.2552 19.477 21.2017C19.4932 21.1482 19.4929 21.0911 19.4763 21.0377L17.8633 15.9028C17.8498 15.8613 17.8268 15.8234 17.7962 15.7922C17.7656 15.761 17.7282 15.7374 17.6869 15.7231C17.6456 15.7089 17.6015 15.7046 17.5583 15.7106C17.515 15.7166 17.4738 15.7328 17.438 15.7577L13.4707 18.5037C13.1429 18.731 12.7703 18.8854 12.3779 18.9565C11.9854 19.0276 11.5823 19.0137 11.1957 18.9159C10.8091 18.818 10.4479 18.6384 10.1366 18.3892C9.82519 18.14 9.57086 17.8269 9.39071 17.4711L7.75647 14.8758C7.51962 14.5 7.44177 14.0455 7.54004 13.6122C7.63832 13.179 7.90468 12.8025 8.28051 12.5657C8.65635 12.3288 9.11088 12.251 9.54412 12.3493C9.97735 12.4475 10.3538 12.7139 10.5907 13.0897L11.8968 15.1593C11.9169 15.1912 11.9432 15.2187 11.9742 15.2401C12.0052 15.2615 12.0402 15.2765 12.0771 15.2841C12.114 15.2917 12.152 15.2918 12.1889 15.2843C12.2258 15.2769 12.2609 15.2621 12.292 15.2408L17.7126 11.4901C17.9281 11.3416 18.1756 11.2457 18.4349 11.2102C18.6943 11.1746 18.9584 11.2004 19.206 11.2854C19.4536 11.3704 19.6778 11.5123 19.8607 11.6996C20.0435 11.887 20.1798 12.1146 20.2588 12.3642L22.8475 20.5923C23.007 21.1188 23.0073 21.6808 22.8484 22.2075C22.6896 22.7342 22.3785 23.2022 21.9545 23.5526L20.0088 25.1456Z" fill="black"/>
</svg>
