<svg width="32" height="32" viewBox="0 0 32 32" fill="none" xmlns="http://www.w3.org/2000/svg">
<path d="M6.20239 12.6311C6.29522 12.6416 6.38855 12.647 6.48198 12.6474C7.06342 12.6476 7.62612 12.4417 8.07003 12.0662C8.51394 11.6907 8.81029 11.1699 8.9064 10.5964C8.9176 10.565 8.92714 10.533 8.93497 10.5005L9.32475 7.00876C9.33014 6.96318 9.34772 6.91989 9.37565 6.88346C9.40358 6.84704 9.44082 6.81882 9.48345 6.80179C9.52607 6.78476 9.5725 6.77955 9.61784 6.78671C9.66318 6.79386 9.70576 6.81312 9.74107 6.84244L10.6288 7.58936C10.7314 7.67579 10.85 7.74117 10.9778 7.78176C11.1057 7.82236 11.2402 7.83738 11.3739 7.82596C11.5075 7.81454 11.6376 7.77691 11.7567 7.71522C11.8758 7.65353 11.9816 7.56898 12.068 7.4664C12.1545 7.36383 12.2198 7.24523 12.2604 7.11739C12.301 6.98955 12.3161 6.85496 12.3046 6.72132C12.2932 6.58767 12.2556 6.45758 12.1939 6.33848C12.1322 6.21937 12.0477 6.11359 11.9451 6.02716L9.96249 4.35986C9.75051 4.18134 9.49404 4.06372 9.22044 4.01956C8.94684 3.9754 8.66639 4.00635 8.40901 4.10911C8.15163 4.21188 7.92698 4.3826 7.75903 4.60305C7.59109 4.8235 7.48615 5.08542 7.45542 5.36085L7.21563 7.51181C7.21161 7.54665 7.20049 7.5803 7.18293 7.61067C7.16538 7.64103 7.14178 7.66747 7.11359 7.68834C7.08483 7.7101 7.0517 7.72538 7.01647 7.73313C6.98124 7.74088 6.94476 7.74091 6.90952 7.73323C6.85714 7.72303 6.80408 7.71487 6.75034 7.70874C6.42713 7.67277 6.10001 7.7008 5.78764 7.79124C5.47527 7.88169 5.18377 8.03277 4.92979 8.23587C4.41686 8.64605 4.08787 9.24319 4.01521 9.89593C3.94255 10.5487 4.13216 11.2035 4.54234 11.7165C4.95251 12.2294 5.54965 12.5584 6.20239 12.6311Z" fill="#51247A"/>
<path d="M10.5982 17.8349C10.6918 17.5812 10.6809 17.3007 10.5678 17.055C10.4547 16.8094 10.2488 16.6186 9.99515 16.5248L8.84417 16.1003C8.58437 16.0035 8.30317 15.9791 8.0306 16.0297C7.75803 16.0803 7.50432 16.204 7.29657 16.3876C7.08881 16.5711 6.93481 16.8077 6.851 17.0719C6.7672 17.3362 6.75675 17.6182 6.82075 17.888L7.03095 18.7706C7.04374 18.8242 7.03883 18.8805 7.01694 18.9311C6.99505 18.9817 6.95736 19.0238 6.90953 19.0512C6.6329 19.2104 6.40599 19.4434 6.25419 19.7241C6.10238 20.0048 6.03167 20.3223 6.04994 20.6409C6.06822 20.9595 6.17477 21.2668 6.35767 21.5283C6.54058 21.7899 6.79263 21.9954 7.08565 22.1218C7.37866 22.2483 7.70109 22.2908 8.01687 22.2446C8.33265 22.1983 8.62934 22.0651 8.87375 21.8599C9.11817 21.6546 9.30067 21.3855 9.40087 21.0824C9.50106 20.7794 9.51498 20.4545 9.44109 20.144C9.41762 20.0502 9.18191 18.9961 9.0911 18.6135C9.08499 18.5873 9.0861 18.5599 9.09431 18.5342C9.10252 18.5086 9.11752 18.4857 9.13772 18.4679C9.15792 18.4501 9.18256 18.4381 9.20903 18.4332C9.23549 18.4283 9.2628 18.4306 9.28803 18.44C9.41379 18.4863 9.54743 18.5074 9.68134 18.502C9.81524 18.4967 9.94678 18.465 10.0684 18.4088C10.1901 18.3526 10.2995 18.273 10.3904 18.1746C10.4813 18.0761 10.5519 17.9607 10.5982 17.8349Z" fill="#51247A"/>
<path d="M17.0113 8.09855C17.0113 8.77511 17.2801 9.42395 17.7584 9.90235C18.2368 10.3807 18.8857 10.6495 19.5622 10.6495C20.2388 10.6495 20.8876 10.3807 21.366 9.90235C21.8444 9.42395 22.1132 8.77511 22.1132 8.09855C22.1132 7.422 21.8444 6.77316 21.366 6.29476C20.8876 5.81637 20.2388 5.54761 19.5622 5.54761C18.8857 5.54761 18.2368 5.81637 17.7584 6.29476C17.2801 6.77316 17.0113 7.422 17.0113 8.09855Z" fill="#51247A"/>
<path d="M26.1947 11.3832C25.8472 11.383 25.5101 11.501 25.2386 11.7179L24.4988 12.3097C24.1538 12.5859 23.7429 12.7676 23.3064 12.8372C22.87 12.9068 22.4229 12.8618 22.0091 12.7066C20.4303 12.114 18.6901 12.114 17.1113 12.7066L16.7837 12.8301C16.4244 12.9652 16.039 13.0171 15.6567 12.9817C15.2744 12.9464 14.9051 12.8248 14.5766 12.626L13.7206 12.1117C13.3727 11.9076 12.9584 11.849 12.5676 11.9486C12.1768 12.0483 11.8411 12.2982 11.6335 12.644C11.4259 12.9897 11.3632 13.4035 11.459 13.7953C11.5548 14.187 11.8014 14.5252 12.1451 14.7361L13.0073 15.2535C13.7309 15.6903 14.5442 15.957 15.386 16.0336C16.2277 16.1101 17.0758 15.9944 17.8664 15.6953C17.9009 15.6824 17.9376 15.6758 17.9745 15.6759C18.051 15.6756 18.1248 15.7039 18.1815 15.7552C18.2381 15.8066 18.2735 15.8773 18.2806 15.9535L18.4133 17.2799C18.4242 17.3833 18.4033 17.4876 18.3533 17.5788C18.3034 17.67 18.2267 17.7437 18.1337 17.7901L16.547 18.584C15.6123 19.0472 14.8262 19.7631 14.2777 20.6505C13.7292 21.5378 13.4404 22.5611 13.444 23.6043V25.6736C13.444 26.0795 13.6053 26.4688 13.8923 26.7559C14.1794 27.0429 14.5687 27.2042 14.9746 27.2042C15.3805 27.2042 15.7698 27.0429 16.0569 26.7559C16.3439 26.4688 16.5052 26.0795 16.5052 25.6736V23.5992C16.5034 23.125 16.6346 22.6599 16.8839 22.2567C17.1331 21.8534 17.4905 21.528 17.9153 21.3176L18.3306 21.1135C18.3532 21.1019 18.3785 21.0964 18.4039 21.0975C18.4293 21.0985 18.454 21.1062 18.4755 21.1196C18.497 21.1331 18.5147 21.1517 18.527 21.1738C18.5393 21.196 18.5458 21.2208 18.5459 21.2462C18.5483 22.4628 18.9438 23.646 19.6734 24.6195L21.755 27.3878C21.8756 27.5486 22.0267 27.6841 22.1997 27.7865C22.3726 27.8889 22.564 27.9562 22.763 27.9847C22.962 28.0131 23.1646 28.002 23.3593 27.9522C23.554 27.9023 23.737 27.8145 23.8978 27.6939C24.0586 27.5733 24.1941 27.4223 24.2965 27.2493C24.3989 27.0763 24.4662 26.8849 24.4947 26.6859C24.5231 26.487 24.512 26.2843 24.4622 26.0896C24.4123 25.8949 24.3245 25.7119 24.2039 25.5511L22.1213 22.7818C21.791 22.3398 21.6121 21.8031 21.6111 21.2513V18.5258L21.604 18.3728L21.406 16.3963C21.3989 16.3251 21.4068 16.2533 21.4292 16.1854C21.4516 16.1174 21.4881 16.055 21.5362 16.0021C21.5843 15.9492 21.643 15.907 21.7084 15.8782C21.7739 15.8494 21.8447 15.8347 21.9162 15.8351C21.9442 15.8351 21.9722 15.8371 21.9999 15.8412C22.7757 15.9704 23.5699 15.9357 24.3314 15.7392C25.0929 15.5427 25.8048 15.1889 26.4212 14.7004L27.161 14.1086C27.4085 13.9105 27.5884 13.6403 27.6758 13.3355C27.7631 13.0307 27.7537 12.7063 27.6487 12.4071C27.5438 12.1079 27.3485 11.8487 27.0898 11.6652C26.8312 11.4818 26.522 11.3833 26.2049 11.3832H26.1947Z" fill="#51247A"/>
</svg>
