<svg width="32" height="32" viewBox="0 0 32 32" fill="none" xmlns="http://www.w3.org/2000/svg">
<path fill-rule="evenodd" clip-rule="evenodd" d="M16.5 29C16.294 29 16.089 28.9717 15.8907 28.916L7.90238 26.7197C7.22027 26.5432 6.61529 26.1469 6.18096 25.5921C5.74664 25.0373 5.50716 24.3549 5.49955 23.6504C4.73365 23.1658 4.10282 22.4953 3.66578 21.7013C3.22874 20.9073 2.99971 20.0156 3 19.1093C3.00029 18.203 3.2299 17.3114 3.66745 16.5177C4.10501 15.724 4.73627 15.0539 5.50248 14.5698C5.5225 14.0928 5.64985 13.6265 5.87507 13.2056C6.10029 12.7847 6.41756 12.42 6.80326 12.1387C7.21363 11.8378 7.6881 11.6361 8.18949 11.5493C8.37475 11.5171 8.56245 11.5009 8.75049 11.501C8.78564 11.501 8.8208 11.5015 8.85549 11.5024L8.48442 8.9541L8.48051 8.8916C8.42986 8.07458 8.54117 7.25561 8.80806 6.48175C9.07495 5.70789 9.49215 4.99441 10.0357 4.38232C11.4727 2.79736 13.6436 2 16.4996 2C19.3555 2 21.5264 2.79688 22.9522 4.36914C23.4999 4.98205 23.9205 5.69766 24.1894 6.47444C24.4583 7.25121 24.5702 8.07366 24.5186 8.89404L24.5059 9.01758L24.1416 11.4995C24.1768 11.4985 24.211 11.4975 24.2461 11.4975C24.9496 11.4976 25.6346 11.7226 26.2012 12.1396C26.6024 12.4328 26.9289 12.8164 27.1543 13.2592C27.3612 13.6675 27.4781 14.1154 27.4971 14.5727C28.263 15.057 28.8939 15.7271 29.3312 16.5207C29.7685 17.3143 29.998 18.2056 29.9983 19.1117C29.9986 20.0178 29.7697 20.9093 29.3329 21.7032C28.8961 22.4971 28.2656 23.1676 27.5 23.6523C27.4917 24.367 27.2454 25.0586 26.8001 25.6176C26.3548 26.1767 25.7358 26.5714 25.041 26.7393L17.0967 28.919C16.9024 28.9731 16.7017 29.0003 16.5 29Z" fill="white"/>
<path fill-rule="evenodd" clip-rule="evenodd" d="M26.2807 15.614C26.1964 15.5729 26.1253 15.5089 26.0757 15.4293C26.026 15.3498 25.9997 15.2578 25.9997 15.164V14.7C26.0001 14.4362 25.9379 14.176 25.8184 13.9408C25.6988 13.7056 25.5252 13.5021 25.3117 13.347C25.0846 13.1802 24.8216 13.069 24.5437 13.0225C24.2657 12.976 23.9808 12.9953 23.7117 13.079L22.7117 13.409C22.6713 13.4224 22.6281 13.4253 22.5863 13.4173C22.5444 13.4093 22.5053 13.3907 22.4726 13.3634C22.44 13.336 22.4148 13.3008 22.3996 13.261C22.3844 13.2212 22.3796 13.1782 22.3857 13.136L23.0217 8.8C23.0603 8.17984 22.9758 7.55818 22.7733 6.97074C22.5708 6.38331 22.2542 5.84169 21.8417 5.377C20.7117 4.132 18.9147 3.5 16.4997 3.5C14.0847 3.5 12.2877 4.132 11.1577 5.378C10.7454 5.84256 10.4288 6.38402 10.2263 6.97128C10.0238 7.55853 9.93936 8.18 9.97774 8.8L10.6097 13.14C10.6156 13.1823 10.6108 13.2253 10.5956 13.2652C10.5803 13.305 10.5553 13.3404 10.5227 13.368C10.4901 13.3954 10.451 13.4139 10.4092 13.422C10.3674 13.43 10.3242 13.4273 10.2837 13.414L9.26674 13.077C9.0002 12.9968 8.71863 12.9797 8.44437 13.0273C8.1701 13.0749 7.9107 13.1857 7.68674 13.351C7.47419 13.506 7.3012 13.7089 7.18182 13.9433C7.06245 14.1777 7.00007 14.437 6.99974 14.7V15.16C6.99982 15.2538 6.97351 15.3458 6.92383 15.4253C6.87414 15.5049 6.80307 15.5689 6.71874 15.61C6.05518 15.9231 5.49429 16.4183 5.10147 17.038C4.70865 17.6577 4.50008 18.3763 4.50008 19.11C4.50008 19.8437 4.70865 20.5623 5.10147 21.182C5.49429 21.8017 6.05518 22.2969 6.71874 22.61C6.80294 22.651 6.87392 22.7148 6.9236 22.7942C6.97328 22.8736 6.99966 22.9654 6.99974 23.059V23.628C7.00259 24.0077 7.13197 24.3757 7.36742 24.6736C7.60287 24.9715 7.93095 25.1825 8.29974 25.273L16.2997 27.473C16.4305 27.5098 16.5689 27.5098 16.6997 27.473L24.6887 25.281C25.0598 25.1916 25.3903 24.9807 25.6279 24.682C25.8654 24.3832 25.9963 24.0137 25.9997 23.632V23.063C25.9998 22.9693 26.0262 22.8776 26.0758 22.7982C26.1255 22.7188 26.1965 22.655 26.2807 22.614C26.9443 22.3009 27.5052 21.8057 27.898 21.186C28.2908 20.5663 28.4993 19.8477 28.4993 19.114C28.4993 18.3803 28.2908 17.6617 27.898 17.042C27.5052 16.4223 26.9443 15.9271 26.2807 15.614ZM9.49974 20.614C9.49975 20.6797 9.48683 20.7447 9.4617 20.8054C9.43658 20.866 9.39975 20.9211 9.35332 20.9676C9.30689 21.014 9.25176 21.0508 9.1911 21.076C9.13043 21.1011 9.06541 21.114 8.99974 21.114C7.89974 21.114 6.49974 20.614 6.49974 19.114C6.49974 17.614 7.89974 17.114 8.99974 17.114C9.06541 17.114 9.13043 17.1269 9.1911 17.152C9.25176 17.1772 9.30689 17.214 9.35332 17.2604C9.39975 17.3069 9.43658 17.362 9.4617 17.4226C9.48683 17.4833 9.49975 17.5483 9.49974 17.614V20.614ZM20.7827 13.763C20.7689 13.8543 20.7302 13.94 20.6707 14.0106C20.6112 14.0811 20.5334 14.1339 20.4457 14.163L16.8147 15.363C16.6102 15.4309 16.3893 15.4309 16.1847 15.363L12.5537 14.163C12.4661 14.134 12.3882 14.0812 12.3287 14.0106C12.2693 13.94 12.2305 13.8543 12.2167 13.763L11.7517 10.563C11.7413 10.4916 11.7465 10.4187 11.7669 10.3495C11.7873 10.2802 11.8225 10.2162 11.87 10.1619C11.9175 10.1075 11.9763 10.0641 12.0422 10.0346C12.1081 10.0051 12.1796 9.99023 12.2517 9.991C14.4087 10.026 15.5157 9.618 16.1767 9.07C16.2664 8.99569 16.3793 8.95502 16.4957 8.95502C16.6122 8.95502 16.725 8.99569 16.8147 9.07C17.4767 9.618 18.5827 10.026 20.7397 9.991C20.8119 9.99028 20.8834 10.0052 20.9493 10.0347C21.0151 10.0642 21.0738 10.1076 21.1213 10.162C21.1688 10.2163 21.204 10.2803 21.2245 10.3495C21.2449 10.4187 21.2501 10.4916 21.2397 10.563L20.7827 13.763ZM23.9997 21.114C23.9341 21.114 23.8691 21.1011 23.8084 21.076C23.7477 21.0509 23.6926 21.014 23.6461 20.9676C23.5997 20.9212 23.5629 20.866 23.5378 20.8054C23.5126 20.7447 23.4997 20.6797 23.4997 20.614V17.614C23.4997 17.5483 23.5126 17.4833 23.5378 17.4226C23.5629 17.362 23.5997 17.3068 23.6461 17.2604C23.6926 17.214 23.7477 17.1771 23.8084 17.152C23.8691 17.1269 23.9341 17.114 23.9997 17.114C25.1047 17.114 26.4997 17.614 26.4997 19.114C26.4997 20.614 25.1047 21.114 23.9997 21.114ZM13.4997 11.75C13.4997 11.9814 13.58 12.2056 13.7267 12.3844C13.8735 12.5632 14.0777 12.6857 14.3046 12.7308C14.5315 12.7759 14.7671 12.741 14.9711 12.6319C15.1752 12.5229 15.3351 12.3465 15.4236 12.1327C15.5122 11.919 15.5238 11.6811 15.4567 11.4597C15.3895 11.2383 15.2477 11.0471 15.0553 10.9185C14.863 10.79 14.632 10.7322 14.4017 10.7548C14.1715 10.7775 13.9562 10.8793 13.7926 11.0429C13.6998 11.1357 13.6261 11.246 13.5758 11.3673C13.5256 11.4886 13.4997 11.6187 13.4997 11.75ZM17.7926 12.4571C17.6291 12.2935 17.5272 12.0782 17.5046 11.848C17.4819 11.6178 17.5398 11.3868 17.6683 11.1944C17.7968 11.0021 17.9881 10.8602 18.2095 10.7931C18.4309 10.7259 18.6687 10.7376 18.8825 10.8261C19.0962 10.9147 19.2726 11.0746 19.3817 11.2786C19.4907 11.4827 19.5257 11.7182 19.4805 11.9451C19.4354 12.172 19.313 12.3763 19.1341 12.523C18.9553 12.6698 18.7311 12.75 18.4997 12.75C18.3684 12.75 18.2384 12.7242 18.1171 12.6739C17.9957 12.6236 17.8855 12.55 17.7926 12.4571Z" fill="#51247A"/>
</svg>
