<svg width="32" height="32" viewBox="0 0 32 32" fill="none" xmlns="http://www.w3.org/2000/svg">
<path fill-rule="evenodd" clip-rule="evenodd" d="M12.3123 29C11.3676 28.9971 10.4622 28.6221 9.79226 27.9561C9.31516 27.4816 8.98319 26.881 8.83526 26.2246H8.73463L8.44507 26.1484C7.18998 25.7608 6.09167 24.9821 5.31048 23.9261C4.52929 22.87 4.10613 21.5919 4.10279 20.2783V16.9199C4.10192 15.6246 4.40872 14.3475 4.99795 13.194C5.58717 12.0404 6.44197 11.0433 7.49195 10.2847C7.03876 9.80134 6.68357 9.23474 6.44605 8.61621H4.53882C4.20589 8.61708 3.87606 8.55228 3.56821 8.42554C3.26035 8.29879 2.98051 8.11258 2.74469 7.87756C2.50888 7.64254 2.32173 7.36333 2.19395 7.0559C2.06616 6.74848 2.00026 6.41887 2 6.08594C1.99974 5.75301 2.06514 5.4233 2.19245 5.11568C2.31976 4.80805 2.50648 4.52855 2.74193 4.29317C2.97738 4.05779 3.25694 3.87115 3.5646 3.74393C3.87226 3.61671 4.20199 3.55141 4.53492 3.55176H7.92018C9.11609 2.54865 10.6273 1.9992 12.1882 2H12.4334C13.9937 2.00029 15.5044 2.54883 16.7014 3.5498H20.0862C20.7578 3.5498 21.4018 3.81659 21.8767 4.29147C22.3516 4.76636 22.6184 5.41044 22.6184 6.08203C22.6184 6.75362 22.3516 7.3977 21.8767 7.87259C21.4018 8.34747 20.7578 8.61426 20.0862 8.61426H18.179C17.9418 9.23634 17.5852 9.80597 17.1292 10.291C17.3176 10.4297 17.4973 10.5742 17.6702 10.7265C18.879 10.1739 20.2063 9.93082 21.5325 10.0193C22.8587 10.1078 24.142 10.5251 25.2666 11.2334C26.3912 11.9418 27.3218 12.919 27.9744 14.0769C28.627 15.2348 28.9811 16.537 29.0047 17.8659C29.0283 19.1948 28.7207 20.5087 28.1096 21.689C27.4986 22.8694 26.6033 23.879 25.5045 24.6269C24.4058 25.3748 23.1381 25.8373 21.8159 25.9729C20.4937 26.1084 19.1586 25.9127 17.9309 25.4033L17.8137 25.3535L17.6243 25.4746C17.1792 25.7576 16.6995 25.9821 16.197 26.1426L15.9744 26.2139L15.7903 26.2217C15.6423 26.8784 15.3108 27.4796 14.8342 27.9551C14.1638 28.6216 13.2577 28.9971 12.3123 29ZM12.3123 7.06592C12.3025 7.06604 12.2931 7.06892 12.2849 7.07422L12.3123 7.06592Z" fill="white"/>
<path fill-rule="evenodd" clip-rule="evenodd" d="M21.0395 5.687C21.1044 5.84382 21.1297 6.01424 21.1131 6.18317C21.0965 6.3521 21.0384 6.51431 20.9441 6.65545C20.8498 6.79659 20.7222 6.91228 20.5725 6.9923C20.4227 7.07231 20.2556 7.11416 20.0859 7.11415H17.2038C17.1392 7.11392 17.0769 7.138 17.0293 7.18161C16.9817 7.22522 16.9522 7.28515 16.9468 7.34949C16.7961 9.0041 15.0734 10.7268 12.3123 10.7268C9.50468 10.7268 7.82628 8.94424 7.67459 7.35053C7.66868 7.28646 7.63905 7.22691 7.5915 7.18356C7.54395 7.14022 7.48193 7.1162 7.41759 7.11622H4.53859C4.40277 7.11664 4.2682 7.09026 4.1426 7.03857C4.01699 6.98689 3.90282 6.91093 3.80663 6.81504C3.71045 6.71915 3.63413 6.60521 3.58205 6.47977C3.52998 6.35433 3.50317 6.21985 3.50317 6.08403C3.50317 5.9482 3.52998 5.81372 3.58205 5.68828C3.63413 5.56284 3.71045 5.44891 3.80663 5.35301C3.90282 5.25712 4.01699 5.18116 4.1426 5.12948C4.2682 5.07779 4.40277 5.05141 4.53859 5.05183H8.393C8.42789 5.0519 8.46244 5.04489 8.49455 5.03123C8.52667 5.01757 8.55568 4.99754 8.57983 4.97235C9.07228 4.49044 9.65624 4.11202 10.2973 3.8594C10.9383 3.60677 11.6235 3.48507 12.3123 3.50146C13.0001 3.48527 13.6843 3.60709 14.3243 3.85973C14.9643 4.11237 15.5471 4.49071 16.0385 4.97239C16.0631 4.99714 16.0923 5.01674 16.1246 5.03003C16.1568 5.04332 16.1914 5.05004 16.2263 5.0498H20.0859C20.29 5.04978 20.4896 5.11031 20.6593 5.22373C20.8291 5.33715 20.9614 5.49837 21.0395 5.68699V5.687ZM13.509 8.09625C13.7403 7.81436 13.8648 7.45984 13.8603 7.09518C13.8559 6.73053 13.7228 6.37915 13.4846 6.10299C13.2464 5.82684 12.9184 5.64364 12.5584 5.58568C12.1983 5.52773 11.8294 5.59874 11.5166 5.78621C11.2037 5.97367 10.9672 6.26555 10.8485 6.61039C10.7299 6.95523 10.7367 7.33089 10.868 7.67115C10.9992 8.0114 11.2463 8.29441 11.5658 8.47027C11.8853 8.64613 12.2566 8.70356 12.6143 8.63244C12.9656 8.56262 13.2818 8.37312 13.509 8.09625ZM14.2432 14.7461C13.6867 15.9008 13.438 17.1796 13.521 18.4586C13.0504 18.2577 12.5374 18.1767 12.0278 18.2229C11.5182 18.2691 11.0281 18.4411 10.6014 18.7234C10.1746 19.0057 9.82464 19.3895 9.58279 19.8404C9.34094 20.2913 9.21478 20.7951 9.21565 21.3068V24.4695C9.21495 24.5096 9.20496 24.549 9.18646 24.5845C9.16797 24.6201 9.14148 24.6509 9.10907 24.6745C9.07666 24.6981 9.03922 24.7139 8.99969 24.7206C8.96016 24.7273 8.91961 24.7247 8.88124 24.7131C7.93321 24.4191 7.10389 23.8299 6.51419 23.0315C5.92448 22.2331 5.60523 21.2672 5.60298 20.2746V16.92C5.60186 15.7213 5.92338 14.5445 6.5338 13.5129C7.14423 12.4813 8.02105 11.6331 9.07227 11.0571C9.10953 11.0376 9.15096 11.0274 9.19302 11.0274C9.23508 11.0274 9.27652 11.0376 9.31378 11.0571C9.86733 11.3357 10.4584 11.5325 11.0685 11.6413C11.1279 11.6522 11.1816 11.6836 11.2203 11.73C11.2589 11.7764 11.2801 11.8349 11.2801 11.8953V15.8878C11.2801 16.0246 11.3345 16.1559 11.4312 16.2526C11.528 16.3494 11.6592 16.4038 11.7961 16.4038H12.8283C12.8961 16.4038 12.9632 16.3905 13.0258 16.3646C13.0884 16.3387 13.1453 16.3007 13.1932 16.2527C13.2412 16.2048 13.2792 16.1479 13.3051 16.0853C13.3311 16.0227 13.3444 15.9556 13.3444 15.8878V11.8984C13.3442 11.8387 13.3646 11.7808 13.4023 11.7345C13.4399 11.6882 13.4924 11.6564 13.5509 11.6444C14.1638 11.5424 14.7563 11.3424 15.3056 11.052C15.3433 11.0317 15.3856 11.021 15.4285 11.021C15.4714 11.021 15.5136 11.0317 15.5514 11.052C15.9608 11.2829 16.3447 11.5564 16.6968 11.8679C15.6447 12.6 14.7996 13.5914 14.2432 14.7461ZM13.7448 19.8246C13.4535 19.5436 13.086 19.3544 12.688 19.2806C12.29 19.2068 11.8791 19.2517 11.5065 19.4097C11.1338 19.5676 10.8158 19.8316 10.592 20.1689C10.3683 20.5062 10.2486 20.9018 10.248 21.3066V25.4354C10.248 25.9829 10.4655 26.5079 10.8526 26.8951C11.2397 27.2822 11.7648 27.4997 12.3123 27.4997C12.8598 27.4997 13.3848 27.2822 13.772 26.8951C14.1591 26.5079 14.3766 25.9829 14.3766 25.4354V21.5176C14.0983 20.9809 13.8862 20.4124 13.7448 19.8246ZM15.52 23.1032H15.5201C15.5774 23.1732 15.6347 23.2431 15.6993 23.3077C16.0426 23.6432 16.4172 23.9449 16.8182 24.2088C16.4824 24.4229 16.1204 24.5928 15.7412 24.7142C15.7027 24.7264 15.6619 24.7292 15.622 24.7226C15.5822 24.716 15.5445 24.7 15.5121 24.676C15.4801 24.6519 15.4542 24.6207 15.4363 24.5849C15.4184 24.5491 15.4089 24.5096 15.4088 24.4696V22.9712C15.4471 23.0143 15.4836 23.0587 15.52 23.1032ZM21.5476 15.5625H20.5997C20.5638 15.5625 20.5294 15.5768 20.504 15.6022C20.4786 15.6276 20.4643 15.662 20.4643 15.6979V17.5937C20.4643 17.6296 20.4786 17.6641 20.5039 17.6895C20.5293 17.7149 20.5638 17.7292 20.5997 17.7292H21.5476C21.8349 17.7292 22.1105 17.6151 22.3136 17.4119C22.5168 17.2087 22.6309 16.9332 22.6309 16.6458C22.6309 16.3585 22.5168 16.083 22.3136 15.8798C22.1105 15.6766 21.8349 15.5625 21.5476 15.5625ZM16.876 12.9731C18.0618 12.0018 19.5525 11.4803 21.0852 11.5006C22.6179 11.5208 24.0943 12.0815 25.2541 13.0838C26.4138 14.0861 27.1825 15.4657 27.4247 16.9793C27.6668 18.4929 27.3668 20.0434 26.5776 21.3575C25.7884 22.6715 24.5606 23.6648 23.1107 24.1622C21.6608 24.6596 20.0818 24.6291 18.6521 24.0762C17.2225 23.5233 16.0339 22.4835 15.2959 21.14C14.5579 19.7965 14.3179 18.2356 14.6182 16.7324C14.9131 15.2558 15.7111 13.9272 16.876 12.9731ZM20.6002 18.8125H21.5481C21.8326 18.8125 22.1143 18.7565 22.3772 18.6476C22.6401 18.5387 22.8789 18.3791 23.0801 18.1779C23.2813 17.9767 23.4409 17.7379 23.5498 17.475C23.6587 17.2121 23.7147 16.9304 23.7147 16.6458C23.7147 16.3613 23.6587 16.0796 23.5498 15.8167C23.4409 15.5538 23.2813 15.315 23.0801 15.1138C22.8789 14.9126 22.6401 14.753 22.3772 14.6441C22.1143 14.5352 21.8326 14.4792 21.5481 14.4792H19.9231C19.7794 14.4792 19.6416 14.5362 19.5401 14.6378C19.4385 14.7394 19.3814 14.8771 19.3814 15.0208V21.5208C19.3814 21.6645 19.4384 21.8022 19.54 21.9038C19.6416 22.0054 19.7794 22.0625 19.923 22.0625C20.0667 22.0625 20.2045 22.0054 20.306 21.9038C20.4076 21.8022 20.4647 21.6645 20.4647 21.5208V18.9479C20.4648 18.912 20.4791 18.8776 20.5045 18.8522C20.5299 18.8268 20.5643 18.8126 20.6002 18.8125Z" fill="#4085C6"/>
</svg>
