<svg width="32" height="32" viewBox="0 0 32 32" fill="none" xmlns="http://www.w3.org/2000/svg">
<path d="M28.252 14.2319C28.0972 14.0771 27.9225 13.9436 27.7325 13.8349C27.7154 13.3563 27.618 12.8839 27.4444 12.4375C27.1878 11.7784 26.7703 11.1941 26.23 10.7378C25.6897 10.2815 25.0437 9.96767 24.351 9.82501C24.4469 9.5604 24.4973 9.28145 24.5 9.00001V6.50001C24.5 6.1717 24.4354 5.8466 24.3098 5.54327C24.1841 5.23994 24 4.96434 23.7678 4.73218C23.5357 4.50003 23.2601 4.31589 22.9567 4.19026C22.6534 4.06463 22.3283 3.99998 22 4.00001H15.9365C15.9047 3.87473 15.8602 3.75301 15.8037 3.63673C15.6749 3.36664 15.4869 3.12899 15.2538 2.94135C15.0207 2.75371 14.7484 2.62089 14.457 2.55273C14.1645 2.48428 13.8603 2.48245 13.5669 2.54736L4.56445 4.54786C4.12066 4.64705 3.7239 4.89445 3.43952 5.24929C3.15515 5.60414 3.00013 6.04527 3 6.50001V25.5C3.00038 25.955 3.1558 26.3964 3.44063 26.7512C3.72547 27.1061 4.12271 27.3533 4.56689 27.4522L13.5977 29.459C14.0366 29.5479 14.4927 29.4873 14.8933 29.287C15.2939 29.0867 15.6159 28.7581 15.8081 28.3535C15.8621 28.239 15.9052 28.1197 15.937 27.9971H22C22.3284 27.9981 22.6538 27.9339 22.9573 27.8082C23.2607 27.6825 23.5361 27.4977 23.7676 27.2647C24.2352 26.795 24.4984 26.1598 24.5 25.4971V23.4912C24.4994 23.3263 24.4827 23.1617 24.4501 23H26.4844C27.1474 22.9998 27.7831 22.7364 28.252 22.2676C28.7208 21.7988 28.9842 21.163 28.9844 20.5V15.9995C28.9853 15.6711 28.9211 15.3457 28.7954 15.0423C28.6696 14.7389 28.485 14.4635 28.252 14.2319Z" fill="white"/>
<path d="M22 22.4998C21.7348 22.4998 21.4804 22.6052 21.2929 22.7927C21.1054 22.9802 21 23.2346 21 23.4998V23.9998C21 24.0655 20.9871 24.1305 20.962 24.1912C20.9369 24.2518 20.9 24.307 20.8536 24.3534C20.8072 24.3998 20.752 24.4367 20.6914 24.4618C20.6307 24.4869 20.5657 24.4998 20.5 24.4998H15C14.9343 24.4998 14.8693 24.4869 14.8086 24.4618C14.748 24.4367 14.6928 24.3998 14.6464 24.3534C14.6 24.307 14.5631 24.2518 14.538 24.1912C14.5129 24.1305 14.5 24.0655 14.5 23.9998V7.9998C14.5 7.93414 14.5129 7.86912 14.538 7.80845C14.5632 7.74778 14.6 7.69266 14.6464 7.64623C14.6929 7.5998 14.748 7.56297 14.8086 7.53784C14.8693 7.51272 14.9343 7.49979 15 7.4998H20.5C20.5657 7.49979 20.6307 7.51272 20.6914 7.53784C20.752 7.56297 20.8071 7.5998 20.8536 7.64623C20.9 7.69266 20.9368 7.74778 20.962 7.80845C20.9871 7.86912 21 7.93414 21 7.9998V8.9998C21 9.26502 21.1054 9.51937 21.2929 9.70691C21.4804 9.89445 21.7348 9.9998 22 9.9998C22.2652 9.9998 22.5196 9.89445 22.7071 9.70691C22.8946 9.51937 23 9.26502 23 8.9998V6.4998C23 6.23459 22.8946 5.98023 22.7071 5.7927C22.5196 5.60516 22.2652 5.4998 22 5.4998H14.5V4.4998C14.5 4.42499 14.4832 4.35113 14.4508 4.28368C14.4184 4.21623 14.3713 4.1569 14.313 4.11007C14.2546 4.06324 14.1865 4.0301 14.1137 4.01309C14.0408 3.99608 13.9651 3.99564 13.892 4.0118L4.892 6.0118C4.78088 6.03639 4.68146 6.09814 4.61019 6.18687C4.53892 6.2756 4.50004 6.38599 4.5 6.4998V25.4998C4.50006 25.6136 4.53893 25.724 4.61021 25.8127C4.68148 25.9014 4.78088 25.9632 4.892 25.9878L13.892 27.9878C13.9652 28.003 14.0409 28.0019 14.1136 27.9846C14.1864 27.9673 14.2544 27.9343 14.313 27.8878C14.3715 27.8408 14.4187 27.7813 14.4511 27.7136C14.4835 27.6459 14.5002 27.5718 14.5 27.4968V26.4968H22C22.2652 26.4968 22.5196 26.3914 22.7071 26.2039C22.8946 26.0164 23 25.762 23 25.4968V23.4968C22.9992 23.2321 22.8935 22.9785 22.706 22.7916C22.5186 22.6047 22.2647 22.4998 22 22.4998ZM12 16.4998C12 16.8468 11.8796 17.183 11.6595 17.4513C11.4393 17.7195 11.133 17.9031 10.7926 17.9707C10.4523 18.0384 10.099 17.986 9.79304 17.8224C9.48702 17.6588 9.2472 17.3942 9.11442 17.0736C8.98165 16.753 8.96414 16.3963 9.06488 16.0642C9.16562 15.7322 9.37837 15.4453 9.66689 15.2526C9.95541 15.0598 10.3018 14.973 10.6472 15.007C10.9925 15.041 11.3153 15.1937 11.5607 15.4391C11.842 15.7204 12 16.102 12 16.4998Z" fill="#2EA836"/>
<path d="M26.484 14.9996H26.234V14.0586C26.2439 13.6912 26.1801 13.3256 26.0464 12.9832C25.9126 12.6409 25.7116 12.3289 25.4553 12.0655C25.199 11.8022 24.8925 11.5929 24.5539 11.45C24.2153 11.307 23.8515 11.2334 23.484 11.2334C23.1165 11.2334 22.7527 11.307 22.4141 11.45C22.0756 11.5929 21.7691 11.8022 21.5127 12.0655C21.2564 12.3289 21.0554 12.6409 20.9216 12.9832C20.7879 13.3256 20.7241 13.6912 20.734 14.0586V14.9996H20.484C20.2188 14.9996 19.9644 15.1049 19.7769 15.2925C19.5894 15.48 19.484 15.7344 19.484 15.9996V20.4996C19.484 20.7648 19.5894 21.0191 19.7769 21.2067C19.9644 21.3942 20.2188 21.4996 20.484 21.4996H26.484C26.7492 21.4996 27.0036 21.3942 27.1911 21.2067C27.3787 21.0191 27.484 20.7648 27.484 20.4996V15.9996C27.484 15.7344 27.3787 15.48 27.1911 15.2925C27.0036 15.1049 26.7492 14.9996 26.484 14.9996ZM22.234 14.0586C22.2273 13.8902 22.2546 13.7222 22.3144 13.5647C22.3742 13.4072 22.4652 13.2633 22.5819 13.1418C22.6986 13.0203 22.8387 12.9237 22.9937 12.8576C23.1488 12.7916 23.3155 12.7576 23.484 12.7576C23.6525 12.7576 23.8193 12.7916 23.9743 12.8576C24.1293 12.9237 24.2694 13.0203 24.3861 13.1418C24.5028 13.2633 24.5938 13.4072 24.6536 13.5647C24.7134 13.7222 24.7407 13.8902 24.734 14.0586V14.9996H22.234V14.0586ZM23.484 18.7496C23.2527 18.7496 23.0285 18.6694 22.8496 18.5226C22.6708 18.3758 22.5484 18.1716 22.5032 17.9447C22.4581 17.7178 22.493 17.4822 22.6021 17.2782C22.7111 17.0741 22.8876 16.9142 23.1013 16.8257C23.315 16.7372 23.5529 16.7255 23.7743 16.7926C23.9957 16.8598 24.1869 17.0016 24.3155 17.194C24.444 17.3864 24.5019 17.6173 24.4792 17.8476C24.4565 18.0778 24.3547 18.2931 24.1911 18.4567C24.0036 18.6442 23.7492 18.7496 23.484 18.7496Z" fill="#E62645"/>
</svg>
