<svg width="32" height="32" viewBox="0 0 32 32" fill="none" xmlns="http://www.w3.org/2000/svg">
<path fill-rule="evenodd" clip-rule="evenodd" d="M14.7458 30C14.2843 30.0001 13.837 29.8406 13.4797 29.5485C13.1224 29.2564 12.8771 28.8498 12.7854 28.3975L12.1174 25.2363H10.9988C10.6897 25.236 10.385 25.1641 10.1084 25.0263C9.8318 24.8885 9.59089 24.6885 9.40457 24.4419C9.21824 24.1954 9.09156 23.909 9.03445 23.6053C8.97735 23.3016 8.99138 22.9888 9.07543 22.6914L10.6307 17.229C10.9211 16.1484 11.5406 15.1849 12.4031 14.4722C12.0489 14.2375 11.7192 13.9679 11.4187 13.6675C10.5444 12.7938 9.94891 11.6804 9.7075 10.4682C9.46609 9.25604 9.58965 7.99946 10.0625 6.8575C10.5354 5.71553 11.3364 4.73948 12.3641 4.05283C13.3919 3.36618 14.6002 2.99979 15.8362 3C17.1771 2.99977 18.4826 3.43087 19.5598 4.2296C20.6369 5.02833 21.4286 6.15234 21.8178 7.43558C22.2071 8.71881 22.1732 10.0932 21.7214 11.3558C21.2695 12.6183 20.4235 13.702 19.3083 14.4468L19.2712 14.4722C20.1405 15.1933 20.7629 16.1678 21.0515 17.2598L22.5984 22.6885C22.7288 23.1404 22.6955 23.6237 22.5046 24.0535C22.3136 24.4833 21.9772 24.832 21.5544 25.0381C21.2805 25.1733 20.979 25.2432 20.6736 25.2422H19.5554L18.8835 28.4111C18.7893 28.8605 18.5432 29.2638 18.1866 29.5532C17.83 29.8425 17.3847 30.0003 16.9255 30H14.7458Z" fill="white"/>
<path fill-rule="evenodd" clip-rule="evenodd" d="M18.4757 13.1993C17.5286 13.8322 16.3856 14.1037 15.2551 13.9643C14.1246 13.8249 13.0818 13.2839 12.3168 12.44C11.5518 11.596 11.1156 10.5053 11.0876 9.36652C11.0596 8.22779 11.4417 7.11691 12.1643 6.23637C12.8869 5.35583 13.9018 4.76426 15.0241 4.56948C16.1464 4.37471 17.3013 4.5897 18.2784 5.17528C19.2554 5.76085 19.9895 6.67802 20.3468 7.75959C20.7042 8.84117 20.6609 10.0151 20.2251 11.0675C19.8656 11.9355 19.2568 12.6773 18.4757 13.1993ZM17.7812 11.1943C18.0365 10.939 18.2391 10.6358 18.3773 10.3022C18.5155 9.96855 18.5867 9.61095 18.5867 9.24981C18.5864 9.23942 18.5854 9.22906 18.5837 9.21881C18.5819 9.20857 18.5809 9.19821 18.5807 9.18781C17.6872 9.06523 16.8495 8.68271 16.1717 8.08781C16.0798 8.00517 15.9607 7.95944 15.8372 7.95944C15.7136 7.95944 15.5945 8.00517 15.5027 8.08781C14.8244 8.68257 13.9864 9.06505 13.0927 9.18781C13.0924 9.19821 13.0914 9.20857 13.0897 9.21881C13.0879 9.22906 13.0869 9.23942 13.0867 9.24981C13.0867 9.79371 13.2479 10.3254 13.5501 10.7776C13.8523 11.2299 14.2818 11.5824 14.7843 11.7905C15.2868 11.9986 15.8397 12.0531 16.3731 11.947C16.9066 11.8408 17.3966 11.5789 17.7812 11.1943ZM19.6007 17.6398L21.1557 23.0998C21.1778 23.1746 21.1822 23.2536 21.1684 23.3304C21.1546 23.4072 21.123 23.4796 21.0761 23.542C21.0293 23.6044 20.9685 23.655 20.8986 23.6897C20.8287 23.7244 20.7517 23.7422 20.6737 23.7418H18.7457C18.6304 23.7418 18.5187 23.7816 18.4294 23.8545C18.3401 23.9274 18.2787 24.0289 18.2557 24.1418L17.4157 28.0998C17.3926 28.2128 17.3313 28.3143 17.242 28.3872C17.1527 28.4601 17.0409 28.4999 16.9257 28.4998H14.7457C14.6304 28.4999 14.5186 28.4601 14.4293 28.3872C14.34 28.3143 14.2787 28.2128 14.2557 28.0998L13.4177 24.1358C13.3946 24.0227 13.333 23.9211 13.2435 23.8482C13.1541 23.7753 13.0421 23.7356 12.9267 23.7358H10.9987C10.9215 23.7357 10.8454 23.7176 10.7763 23.6831C10.7073 23.6487 10.6472 23.5987 10.6007 23.5371C10.5542 23.4754 10.5226 23.4039 10.5084 23.3281C10.4941 23.2522 10.4977 23.1741 10.5187 23.0998L12.0737 17.6398C12.292 16.8081 12.7797 16.0721 13.4606 15.5468C14.1415 15.0216 14.9772 14.7367 15.8372 14.7367C16.6971 14.7367 17.5328 15.0216 18.2137 15.5468C18.8946 16.0721 19.3823 16.8081 19.6007 17.6398Z" fill="#4085C6"/>
</svg>
