<svg width="32" height="32" viewBox="0 0 32 32" fill="none" xmlns="http://www.w3.org/2000/svg">
<path d="M15.0005 17.2454C15.0005 18.2395 15.3954 19.1929 16.0983 19.8958C16.8013 20.5988 17.7547 20.9937 18.7488 20.9937C19.7429 20.9937 20.6963 20.5988 21.3992 19.8958C22.1022 19.1929 22.4971 18.2395 22.4971 17.2454C22.4971 16.2513 22.1022 15.2979 21.3992 14.5949C20.6963 13.892 19.7429 13.4971 18.7488 13.4971C17.7547 13.4971 16.8013 13.892 16.0983 14.5949C15.3954 15.2979 15.0005 16.2513 15.0005 17.2454Z" fill="white"/>
<path d="M25.4397 10.2486H24.1243C24.019 10.2449 23.9171 10.2101 23.8316 10.1485C23.746 10.087 23.6806 10.0015 23.6436 9.9028C23.0258 8.59939 22.3871 7.25 20.9977 7.25H16C14.9295 7.25 14.3647 8.02765 13.3422 9.44001C12.9584 9.96678 12.8324 10.2486 12.4986 10.2486H6.50128C4.43921 10.2486 4.00541 11.4571 4.00541 12.4706V22.854C3.98221 23.1882 4.03383 23.5233 4.15651 23.835C4.27919 24.1467 4.46983 24.4272 4.71456 24.6559C4.9593 24.8847 5.25196 25.056 5.57124 25.1573C5.89053 25.2587 6.2284 25.2876 6.56026 25.2419H25.4397C25.7716 25.2876 26.1095 25.2587 26.4288 25.1573C26.748 25.056 27.0407 24.8847 27.2854 24.6559C27.5302 24.4272 27.7208 24.1467 27.8435 23.835C27.9662 23.5233 28.0178 23.1882 27.9946 22.854V12.4706C27.9946 11.4571 27.5518 10.2486 25.4397 10.2486ZM24.4962 17.2455C24.4962 18.3822 24.1591 19.4934 23.5276 20.4386C22.896 21.3837 21.9984 22.1204 20.9482 22.5554C19.898 22.9904 18.7424 23.1042 17.6275 22.8825C16.5126 22.6607 15.4885 22.1133 14.6847 21.3095C13.8809 20.5057 13.3336 19.4816 13.1118 18.3668C12.89 17.2519 13.0038 16.0963 13.4388 15.0461C13.8739 13.9959 14.6105 13.0982 15.5557 12.4667C16.5008 11.8352 17.612 11.4981 18.7488 11.4981C20.2726 11.4997 21.7335 12.1057 22.811 13.1832C23.8885 14.2607 24.4946 15.7217 24.4962 17.2455ZM9.00315 13.997C9.00315 14.2441 8.92988 14.4856 8.79259 14.6911C8.6553 14.8966 8.46016 15.0567 8.23186 15.1513C8.00355 15.2459 7.75233 15.2706 7.50996 15.2224C7.2676 15.1742 7.04497 15.0552 6.87023 14.8804C6.6955 14.7057 6.5765 14.4831 6.52829 14.2407C6.48008 13.9983 6.50482 13.7471 6.59939 13.5188C6.69396 13.2905 6.8541 13.0954 7.05957 12.9581C7.26504 12.8208 7.5066 12.7475 7.75372 12.7475C8.08509 12.7475 8.40289 12.8792 8.6372 13.1135C8.87152 13.3478 9.00315 13.6656 9.00315 13.997Z" fill="white"/>
<path d="M6.50518 9.23299L9.50383 9.24899C9.63638 9.24899 9.7635 9.19633 9.85723 9.10261C9.95095 9.00888 10.0036 8.88176 10.0036 8.74921V8.49932C10.0036 8.10168 9.84564 7.72032 9.56447 7.43914C9.28329 7.15796 8.90193 7 8.50428 7H7.50473C7.10709 7 6.72573 7.15796 6.44455 7.43914C6.16337 7.72032 6.00541 8.10168 6.00541 8.49932V8.73322C6.00541 8.86577 6.05806 8.99289 6.15179 9.08661C6.24552 9.18034 6.37264 9.23299 6.50518 9.23299Z" fill="white"/>
</svg>
