<svg width="32" height="32" viewBox="0 0 32 32" fill="none" xmlns="http://www.w3.org/2000/svg">
<path d="M25.7807 16.114C25.6963 16.0729 25.6253 16.0089 25.5756 15.9293C25.5259 15.8498 25.4996 15.7578 25.4997 15.664V15.2C25.5 14.9362 25.4379 14.676 25.3183 14.4408C25.1987 14.2056 25.0251 14.0021 24.8117 13.847C24.5846 13.6802 24.3215 13.5691 24.0436 13.5225C23.7657 13.476 23.4807 13.4953 23.2117 13.579L22.2117 13.909C22.1712 13.9224 22.128 13.9252 22.0862 13.9172C22.0444 13.9092 22.0053 13.8907 21.9726 13.8633C21.9399 13.836 21.9148 13.8007 21.8996 13.761C21.8844 13.7212 21.8796 13.6782 21.8857 13.636L22.5217 9.3C22.5602 8.67984 22.4758 8.05818 22.2733 7.47075C22.0707 6.88332 21.7542 6.34169 21.3417 5.877C20.2117 4.632 18.4147 4 15.9997 4C13.5847 4 11.7877 4.632 10.6577 5.878C10.2453 6.34257 9.92878 6.88403 9.72628 7.47128C9.52378 8.05853 9.43929 8.68 9.47767 9.3L10.1097 13.64C10.1156 13.6823 10.1107 13.7253 10.0955 13.7652C10.0803 13.805 10.0552 13.8404 10.0227 13.868C9.99005 13.8954 9.95097 13.914 9.90914 13.922C9.86732 13.9301 9.82412 13.9273 9.78367 13.914L8.76667 13.577C8.50013 13.4967 8.21855 13.4797 7.94429 13.5273C7.67002 13.5749 7.41062 13.6857 7.18667 13.851C6.97411 14.006 6.80112 14.2089 6.68175 14.4433C6.56237 14.6777 6.49999 14.937 6.49967 15.2V15.66C6.49976 15.7538 6.47346 15.8458 6.42377 15.9253C6.37408 16.0049 6.30301 16.0689 6.21867 16.11C5.55511 16.4231 4.99422 16.9183 4.60139 17.538C4.20857 18.1577 4 18.8763 4 19.61C4 20.3437 4.20857 21.0623 4.60139 21.682C4.99422 22.3017 5.55511 22.7969 6.21867 23.11C6.30285 23.151 6.37383 23.2149 6.42351 23.2942C6.47319 23.3736 6.49958 23.4654 6.49967 23.559V24.128C6.50251 24.5077 6.63189 24.8757 6.86735 25.1736C7.1028 25.4715 7.43087 25.6825 7.79967 25.773L15.7997 27.973C15.9305 28.0098 16.0689 28.0098 16.1997 27.973L24.1887 25.781C24.5597 25.6916 24.8903 25.4808 25.1278 25.182C25.3654 24.8832 25.4962 24.5137 25.4997 24.132V23.563C25.4998 23.4694 25.5261 23.3776 25.5758 23.2982C25.6255 23.2189 25.6965 23.155 25.7807 23.114C26.4442 22.8009 27.0051 22.3057 27.3979 21.686C27.7908 21.0663 27.9993 20.3477 27.9993 19.614C27.9993 18.8803 27.7908 18.1617 27.3979 17.542C27.0051 16.9223 26.4442 16.4271 25.7807 16.114ZM8.99967 21.114C8.99967 21.2466 8.94699 21.3738 8.85322 21.4676C8.75945 21.5613 8.63228 21.614 8.49967 21.614C7.39967 21.614 5.99967 21.114 5.99967 19.614C5.99967 18.114 7.39967 17.614 8.49967 17.614C8.63228 17.614 8.75945 17.6667 8.85322 17.7604C8.94699 17.8542 8.99967 17.9814 8.99967 18.114V21.114ZM20.2827 14.263C20.2689 14.3543 20.2301 14.44 20.1706 14.5106C20.1112 14.5812 20.0333 14.6339 19.9457 14.663L16.3147 15.863C16.1102 15.9309 15.8892 15.9309 15.6847 15.863L12.0537 14.663C11.966 14.6339 11.8882 14.5812 11.8287 14.5106C11.7692 14.44 11.7304 14.3543 11.7167 14.263L11.2517 11.063C11.2413 10.9916 11.2465 10.9187 11.2669 10.8495C11.2873 10.7803 11.3225 10.7163 11.37 10.6619C11.4175 10.6076 11.4762 10.5641 11.5421 10.5346C11.608 10.5051 11.6795 10.4902 11.7517 10.491C13.9087 10.526 15.0157 10.118 15.6767 9.57C15.7664 9.49569 15.8792 9.45502 15.9957 9.45502C16.1121 9.45502 16.225 9.49569 16.3147 9.57C16.9767 10.118 18.0827 10.526 20.2397 10.491C20.3119 10.4902 20.3833 10.5051 20.4492 10.5346C20.5151 10.5641 20.5738 10.6076 20.6213 10.6619C20.6688 10.7163 20.704 10.7803 20.7244 10.8495C20.7449 10.9187 20.7501 10.9916 20.7397 11.063L20.2827 14.263ZM23.4997 21.614C23.3671 21.614 23.2399 21.5613 23.1461 21.4676C23.0523 21.3738 22.9997 21.2466 22.9997 21.114V18.114C22.9997 17.9814 23.0523 17.8542 23.1461 17.7604C23.2399 17.6667 23.3671 17.614 23.4997 17.614C24.6047 17.614 25.9997 18.114 25.9997 19.614C25.9997 21.114 24.6047 21.614 23.4997 21.614Z" fill="white"/>
<path d="M12.9997 12.25C12.9997 12.5152 13.105 12.7696 13.2926 12.9571C13.4801 13.1446 13.7345 13.25 13.9997 13.25C14.2649 13.25 14.5192 13.1446 14.7068 12.9571C14.8943 12.7696 14.9997 12.5152 14.9997 12.25C14.9997 11.9848 14.8943 11.7304 14.7068 11.5429C14.5192 11.3554 14.2649 11.25 13.9997 11.25C13.7345 11.25 13.4801 11.3554 13.2926 11.5429C13.105 11.7304 12.9997 11.9848 12.9997 12.25Z" fill="white"/>
<path d="M16.9997 12.25C16.9997 12.5152 17.105 12.7696 17.2926 12.9571C17.4801 13.1446 17.7345 13.25 17.9997 13.25C18.2649 13.25 18.5192 13.1446 18.7068 12.9571C18.8943 12.7696 18.9997 12.5152 18.9997 12.25C18.9997 11.9848 18.8943 11.7304 18.7068 11.5429C18.5192 11.3554 18.2649 11.25 17.9997 11.25C17.7345 11.25 17.4801 11.3554 17.2926 11.5429C17.105 11.7304 16.9997 11.9848 16.9997 12.25Z" fill="white"/>
</svg>
