<svg width="32" height="32" viewBox="0 0 32 32" fill="none" xmlns="http://www.w3.org/2000/svg">
<path d="M4.5024 17.9702H7.5024C7.635 17.9702 7.76218 17.9175 7.85595 17.8237C7.94972 17.73 8.0024 17.6028 8.0024 17.4702C7.95199 15.8557 7.53407 14.2739 6.7804 12.8452C6.76236 12.8099 6.75277 12.7708 6.7524 12.7312V9.19019C6.7524 8.99127 6.67338 8.80051 6.53273 8.65986C6.39207 8.5192 6.20131 8.44019 6.0024 8.44019C5.80348 8.44019 5.61272 8.5192 5.47207 8.65986C5.33141 8.80051 5.2524 8.99127 5.2524 9.19019V12.7312C5.25248 12.7708 5.24323 12.8098 5.2254 12.8452C4.47088 14.2736 4.05258 15.8555 4.0024 17.4702C4.0024 17.6028 4.05507 17.73 4.14884 17.8237C4.24261 17.9175 4.36979 17.9702 4.5024 17.9702Z" fill="white"/>
<path d="M25.1894 24.2561L25.1724 24.2501L20.2024 22.6031C20.1165 22.5752 20.0247 22.5711 19.9367 22.5911C19.8486 22.6112 19.7677 22.6547 19.7024 22.7171L16.3454 25.9481C16.2524 26.037 16.1286 26.0867 15.9999 26.0867C15.8712 26.0867 15.7474 26.037 15.6544 25.9481L12.2544 22.7301C12.1889 22.6681 12.1079 22.6249 12.0198 22.6052C11.9318 22.5855 11.8401 22.5899 11.7544 22.6181L6.8164 24.2561C6.13609 24.508 5.52647 24.92 5.03909 25.4574C4.55171 25.9947 4.20092 26.6415 4.0164 27.3431C3.99698 27.417 3.99478 27.4944 4.00995 27.5693C4.02511 27.6443 4.05726 27.7147 4.1039 27.7752C4.15054 27.8358 4.21045 27.8848 4.27901 27.9186C4.34757 27.9524 4.42297 27.97 4.4994 27.9701H27.4994C27.5757 27.97 27.651 27.9524 27.7195 27.9186C27.7879 27.8849 27.8478 27.836 27.8944 27.7755C27.941 27.7151 27.9732 27.6448 27.9884 27.57C28.0037 27.4953 28.0016 27.418 27.9824 27.3441C27.7992 26.6428 27.4498 25.996 26.9636 25.4585C26.4774 24.921 25.8688 24.5085 25.1894 24.2561Z" fill="white"/>
<path d="M27.5884 5.97808L16.4314 4.03708C16.1475 3.98764 15.8573 3.98764 15.5734 4.03708L4.41639 5.97808C4.30051 5.99838 4.1955 6.0589 4.11983 6.14898C4.04415 6.23906 4.00267 6.35294 4.00267 6.47058C4.00267 6.58823 4.04415 6.70211 4.11983 6.79219C4.1955 6.88227 4.30051 6.94278 4.41639 6.96308L15.5734 8.90308C15.8572 8.95374 16.1476 8.95374 16.4314 8.90308L27.5884 6.96308C27.7043 6.94278 27.8093 6.88227 27.885 6.79219C27.9606 6.70211 28.0021 6.58823 28.0021 6.47058C28.0021 6.35294 27.9606 6.23906 27.885 6.14898C27.8093 6.0589 27.7043 5.99838 27.5884 5.97808Z" fill="white"/>
<path d="M22.4604 9.37801L16.3454 10.441C16.1187 10.4797 15.8871 10.4797 15.6604 10.441L9.54539 9.37801C9.50949 9.37174 9.47265 9.3734 9.43745 9.38286C9.40226 9.39233 9.36956 9.40938 9.34164 9.43282C9.31373 9.45625 9.29128 9.48551 9.27586 9.51854C9.26044 9.55156 9.25243 9.58756 9.25239 9.62401V13.985C9.25251 14.0462 9.23008 14.1053 9.18939 14.151C8.8533 14.5588 8.68333 15.0784 8.71339 15.606C8.70809 16.1031 8.8388 16.5921 9.09137 17.0202C9.34395 17.4483 9.70878 17.7993 10.1464 18.035L10.2974 18.227C10.8074 21.274 14.3174 23.217 15.9834 23.217C17.6494 23.217 21.1584 21.274 21.6684 18.228L21.8194 18.036C22.2567 17.7996 22.6212 17.4484 22.8737 17.0202C23.1262 16.592 23.2571 16.1031 23.2524 15.606C23.2784 15.0992 23.1215 14.5999 22.8104 14.199C22.7732 14.1543 22.7527 14.0981 22.7524 14.04V9.62401C22.7525 9.58761 22.7446 9.55162 22.7293 9.51859C22.714 9.48556 22.6917 9.45629 22.6638 9.43284C22.636 9.40938 22.6033 9.39232 22.5682 9.38285C22.533 9.37337 22.4963 9.37172 22.4604 9.37801ZM21.1944 16.678C20.9336 16.7973 20.7061 16.9787 20.5317 17.2064C20.3574 17.4341 20.2415 17.7011 20.1944 17.984C19.8174 20.233 17.0204 21.723 15.9874 21.723C14.9544 21.723 12.1524 20.231 11.7754 17.985C11.7279 17.7023 11.612 17.4354 11.4377 17.2078C11.2634 16.9801 11.036 16.7986 10.7754 16.679C10.5969 16.5589 10.4518 16.3956 10.3533 16.2043C10.2549 16.0131 10.2064 15.8 10.2124 15.585C10.1928 15.4334 10.2282 15.2797 10.3124 15.152C10.4426 15.0927 10.5531 14.9973 10.6307 14.8772C10.7083 14.757 10.7499 14.6171 10.7504 14.474V12.533C10.7503 12.4942 10.7593 12.4559 10.7767 12.4212C10.794 12.3864 10.8193 12.3562 10.8504 12.333C10.8807 12.3099 10.9159 12.2939 10.9534 12.2862C10.9908 12.2786 11.0294 12.2796 11.0664 12.289C12.6772 12.7153 14.3361 12.9331 16.0024 12.937C17.6689 12.9338 19.3282 12.7167 20.9394 12.291C20.9764 12.2814 21.0151 12.2804 21.0525 12.288C21.0899 12.2957 21.1251 12.3118 21.1553 12.3352C21.1855 12.3585 21.21 12.3885 21.2268 12.4228C21.2437 12.4571 21.2524 12.4948 21.2524 12.533V14.354C21.2257 14.5102 21.2497 14.6707 21.3207 14.8123C21.3918 14.9539 21.5063 15.0691 21.6474 15.141C21.7364 15.2693 21.7739 15.4264 21.7524 15.581C21.7591 15.7957 21.7115 16.0087 21.6139 16.2001C21.5164 16.3915 21.3721 16.5552 21.1944 16.676V16.678Z" fill="white"/>
<path d="M16.9414 18.291C16.8657 18.3317 16.7863 18.3651 16.7044 18.391C16.5177 18.446 16.324 18.4733 16.1294 18.472C15.9331 18.4734 15.7376 18.4458 15.5494 18.39C15.4671 18.3643 15.3874 18.3308 15.3114 18.29C15.1362 18.1958 14.9308 18.1749 14.7402 18.2321C14.5497 18.2893 14.3897 18.4199 14.2954 18.595C14.2011 18.7702 14.1803 18.9757 14.2375 19.1662C14.2947 19.3567 14.4252 19.5168 14.6004 19.611C14.7629 19.6981 14.9337 19.7685 15.1104 19.821C15.4402 19.9205 15.7829 19.9707 16.1274 19.97H16.1344C16.4778 19.9718 16.8196 19.9223 17.1484 19.823C17.3252 19.7692 17.4964 19.6982 17.6594 19.611C17.7475 19.565 17.8255 19.5019 17.8889 19.4254C17.9524 19.3489 18 19.2605 18.029 19.1655C18.058 19.0704 18.0678 18.9706 18.0579 18.8717C18.048 18.7728 18.0185 18.6769 17.9712 18.5895C17.9239 18.5021 17.8597 18.425 17.7823 18.3626C17.705 18.3002 17.616 18.2539 17.5205 18.2262C17.4251 18.1985 17.3251 18.1901 17.2264 18.2014C17.1276 18.2127 17.0321 18.2435 16.9454 18.292L16.9414 18.291Z" fill="white"/>
<path d="M15.1914 15.985C15.3245 15.8373 15.3935 15.6427 15.3832 15.4442C15.3728 15.2456 15.2841 15.0592 15.1364 14.926C14.7631 14.6251 14.298 14.4609 13.8184 14.4609C13.3388 14.4609 12.8737 14.6251 12.5004 14.926C12.3649 15.0617 12.2865 15.2442 12.2813 15.4359C12.2762 15.6276 12.3446 15.814 12.4727 15.9568C12.6007 16.0996 12.7786 16.1879 12.9698 16.2036C13.1609 16.2192 13.3508 16.1611 13.5004 16.041C13.5961 15.9867 13.7043 15.9581 13.8144 15.9581C13.9245 15.9581 14.0327 15.9867 14.1284 16.041C14.2017 16.1075 14.2874 16.1588 14.3807 16.192C14.4739 16.2251 14.5727 16.2395 14.6716 16.2343C14.7704 16.2291 14.8672 16.2044 14.9564 16.1616C15.0456 16.1188 15.1255 16.0588 15.1914 15.985Z" fill="white"/>
<path d="M17.0664 14.9302C16.9309 15.0658 16.8525 15.2483 16.8473 15.44C16.8421 15.6317 16.9106 15.8182 17.0387 15.9609C17.1667 16.1037 17.3446 16.192 17.5358 16.2077C17.7269 16.2233 17.9168 16.1652 18.0664 16.0452C18.1621 15.9908 18.2703 15.9622 18.3804 15.9622C18.4905 15.9622 18.5987 15.9908 18.6944 16.0452C18.7664 16.1173 18.8524 16.174 18.9472 16.2118C19.0419 16.2495 19.1433 16.2676 19.2452 16.2649C19.3471 16.2621 19.4474 16.2386 19.5399 16.1958C19.6325 16.153 19.7153 16.0918 19.7834 16.0159C19.8514 15.94 19.9033 15.851 19.9359 15.7544C19.9684 15.6577 19.9809 15.5555 19.9725 15.4539C19.9642 15.3523 19.9352 15.2534 19.8874 15.1634C19.8396 15.0733 19.7739 14.994 19.6944 14.9302C19.3217 14.6312 18.8582 14.4683 18.3804 14.4683C17.9026 14.4683 17.4391 14.6312 17.0664 14.9302Z" fill="white"/>
</svg>
