<svg width="32" height="32" viewBox="0 0 32 32" fill="none" xmlns="http://www.w3.org/2000/svg">
<path d="M5.51463 29.001C4.60268 29.0011 3.72643 28.6466 3.0711 28.0124C2.41577 27.3782 2.03273 26.514 2.00293 25.6026L2 25.5108L3.44187 9.22658C3.51028 8.34824 3.90743 7.52802 4.55404 6.92965C5.20066 6.33129 6.04916 5.9988 6.93015 5.99858L7.52927 6.00053C7.65266 4.90051 8.17695 3.88449 9.00199 3.14654C9.82704 2.40859 10.895 2.00043 12.0019 2.00002C12.3303 1.99918 12.6557 2.06349 12.9591 2.18921C13.2625 2.31493 13.5379 2.49956 13.7695 2.73244C13.8061 2.76906 13.8413 2.80617 13.8755 2.84475C14.6399 2.29315 15.5593 1.99747 16.5019 2.00002H19.5019C20.6088 2.00022 21.6768 2.40824 22.5019 3.14612C23.327 3.884 23.8513 4.90001 23.9746 6.00002H24.6015C25.5011 6.00705 26.3619 6.3675 26.998 7.00357C27.6342 7.63964 27.9948 8.50034 28.0019 9.39992L28.999 25.3965C29.02 25.8658 28.946 26.3345 28.7812 26.7744C28.5385 27.4178 28.1085 27.9737 27.5468 28.3704C26.9851 28.7671 26.3174 28.9864 25.6299 29L5.51463 29.001Z" fill="white"/>
<path d="M26.5019 9.447C26.5068 8.93727 26.3096 8.44635 25.9536 8.08152C25.5976 7.71669 25.1116 7.50762 24.6019 7.5H22.7529C22.72 7.50014 22.6874 7.49378 22.6569 7.48128C22.6265 7.46878 22.5988 7.45038 22.5755 7.42715C22.5522 7.40392 22.5337 7.37631 22.521 7.34591C22.5084 7.31551 22.5019 7.28292 22.5019 7.25V6.5C22.5019 5.70435 22.1859 4.94129 21.6232 4.37868C21.0606 3.81607 20.2976 3.5 19.5019 3.5H16.5019C15.7063 3.5 14.9432 3.81607 14.3806 4.37868C13.818 4.94129 13.5019 5.70435 13.5019 6.5V7.25C13.5019 7.3163 13.4756 7.37989 13.4287 7.42678C13.3818 7.47366 13.3182 7.5 13.2519 7.5H11.2519C11.1856 7.5 11.122 7.47366 11.0751 7.42678C11.0283 7.37989 11.0019 7.3163 11.0019 7.25V6.5C11.0019 6.23478 11.1073 5.98043 11.2948 5.79289C11.4824 5.60536 11.7367 5.5 12.0019 5.5C12.2671 5.5 12.5215 5.39464 12.709 5.20711C12.8966 5.01957 13.0019 4.76522 13.0019 4.5C13.0019 4.23478 12.8966 3.98043 12.709 3.79289C12.5215 3.60536 12.2671 3.5 12.0019 3.5C11.2063 3.5 10.4432 3.81607 9.8806 4.37868C9.31799 4.94129 9.00192 5.70435 9.00192 6.5V7.25C9.00192 7.3163 8.97558 7.37989 8.9287 7.42678C8.88182 7.47366 8.81823 7.5 8.75192 7.5H7.00192C6.48375 7.48162 5.9787 7.6652 5.59326 8.01201C5.20783 8.35883 4.97215 8.84177 4.93592 9.359L3.50192 25.553C3.5194 26.0856 3.74729 26.5896 4.13566 26.9546C4.52404 27.3195 5.04122 27.5157 5.57392 27.5H25.6019C25.8593 27.4947 26.113 27.4383 26.3483 27.3341C26.5836 27.2298 26.7959 27.0798 26.9727 26.8928C27.1495 26.7057 27.2874 26.4854 27.3782 26.2445C27.4691 26.0037 27.5111 25.7472 27.5019 25.49L26.5019 9.447ZM15.5019 6.5C15.5019 6.23478 15.6073 5.98043 15.7948 5.79289C15.9824 5.60536 16.2367 5.5 16.5019 5.5H19.5019C19.7671 5.5 20.0215 5.60536 20.209 5.79289C20.3966 5.98043 20.5019 6.23478 20.5019 6.5V7.25C20.5019 7.3163 20.4756 7.37989 20.4287 7.42678C20.3818 7.47366 20.3182 7.5 20.2519 7.5H15.7519C15.6856 7.5 15.622 7.47366 15.5751 7.42678C15.5283 7.37989 15.5019 7.3163 15.5019 7.25V6.5ZM6.06092 25.475C5.99111 25.4753 5.92201 25.461 5.85807 25.433C5.79412 25.405 5.73676 25.3639 5.68966 25.3123C5.64255 25.2608 5.60677 25.2 5.5846 25.1338C5.56242 25.0676 5.55436 24.9975 5.56092 24.928L6.96092 9.954C6.97239 9.82986 7.02982 9.71449 7.12195 9.6305C7.21408 9.54651 7.33426 9.49997 7.45892 9.5H10.0839C10.2118 9.4998 10.3349 9.54862 10.4279 9.63641C10.5209 9.72421 10.5768 9.8443 10.5839 9.972L11.4169 24.966C11.4207 25.034 11.4106 25.102 11.3872 25.1659C11.3637 25.2298 11.3275 25.2883 11.2807 25.3377C11.2339 25.3872 11.1775 25.4265 11.1149 25.4534C11.0524 25.4803 10.985 25.4941 10.9169 25.494L6.06092 25.475Z" fill="black"/>
</svg>
