<svg width="32" height="32" viewBox="0 0 32 32" fill="none" xmlns="http://www.w3.org/2000/svg">
<path fill-rule="evenodd" clip-rule="evenodd" d="M20.4092 28.909C19.9322 28.9087 19.4615 28.7998 19.0329 28.5905C18.6043 28.3812 18.229 28.077 17.9356 27.701L13.9927 22.909H12.6362V25.7723C12.6362 26.6041 12.3058 27.4018 11.7176 27.9899C11.1295 28.5781 10.3318 28.9085 9.5 28.9085C8.66822 28.9085 7.87051 28.5781 7.28235 27.9899C6.69419 27.4018 6.36377 26.6041 6.36377 25.7723V21.9539C6.36413 20.5436 6.9245 19.1912 7.92171 18.1939C8.91891 17.1966 10.2713 16.6361 11.6816 16.6356H12.3682C12.3652 16.5907 12.3638 16.3631 12.3638 16.3631H5.13623C4.30445 16.3631 3.50674 16.0327 2.91858 15.4445C2.33042 14.8564 2 14.0587 2 13.2269C2 12.3951 2.33042 11.5974 2.91858 11.0092C3.50674 10.4211 4.30445 10.0907 5.13623 10.0907H12.3901C11.641 9.27695 11.2406 8.20205 11.2748 7.09653C11.309 5.99101 11.7752 4.94294 12.5732 4.17714C13.3713 3.41134 14.4377 2.98883 15.5437 3.00022C16.6497 3.01162 17.7072 3.45603 18.4893 4.23811C19.2792 5.03265 19.7241 6.10651 19.7275 7.22688C19.7303 8.28833 19.3312 9.31148 18.6103 10.0907H25.8633C26.695 10.0909 27.4927 10.4213 28.0809 11.0094C28.6691 11.5975 28.9997 12.3951 29 13.2269C28.9976 14.0583 28.6674 14.8552 28.0811 15.4447C27.7905 15.7368 27.4449 15.9684 27.0642 16.1261C26.6835 16.2838 26.2753 16.3643 25.8633 16.3631H18.6367V16.4998C18.6378 16.8859 18.5287 17.2644 18.3223 17.5907C18.5287 17.9169 18.6378 18.2954 18.6367 18.6815V18.6912L21.9131 22.6356H25.8633C26.6952 22.6356 27.493 22.966 28.0813 23.5543C28.6695 24.1425 29 24.9404 29 25.7723C29 26.6042 28.6695 27.402 28.0813 27.9903C27.493 28.5785 26.6952 28.909 25.8633 28.909H20.4092Z" fill="white"/>
<path fill-rule="evenodd" clip-rule="evenodd" d="M12.7727 7.22727C12.7727 7.85824 12.9915 8.46969 13.3918 8.95744C13.792 9.44518 14.3491 9.77904 14.9679 9.90214C15.5868 10.0252 16.2291 9.92995 16.7856 9.63251C17.3421 9.33508 17.7782 8.8539 18.0196 8.27096C18.2611 7.68802 18.293 7.03939 18.1098 6.43559C17.9267 5.83179 17.5398 5.31018 17.0152 4.95963C16.4905 4.60909 15.8606 4.45129 15.2327 4.51314C14.6047 4.57498 14.0177 4.85264 13.5715 5.2988C13.0601 5.81028 12.7727 6.50396 12.7727 7.22727ZM17.1364 15.409C17.1364 15.3374 17.1505 15.2664 17.1779 15.2003C17.2053 15.1341 17.2455 15.0739 17.2961 15.0233C17.3468 14.9726 17.4069 14.9324 17.4731 14.905C17.5392 14.8776 17.6102 14.8635 17.6818 14.8635H25.8636C26.0785 14.8635 26.2913 14.8212 26.4898 14.7389C26.6883 14.6567 26.8687 14.5362 27.0207 14.3842C27.1726 14.2323 27.2932 14.0519 27.3754 13.8534C27.4576 13.6548 27.5 13.442 27.5 13.2272C27.5 13.0123 27.4576 12.7995 27.3754 12.6009C27.2932 12.4024 27.1726 12.222 27.0207 12.0701C26.8687 11.9181 26.6883 11.7976 26.4898 11.7154C26.2913 11.6331 26.0785 11.5908 25.8636 11.5908H5.13637C4.92148 11.5908 4.70869 11.6331 4.51016 11.7154C4.31163 11.7976 4.13124 11.9181 3.97929 12.0701C3.82734 12.222 3.70681 12.4024 3.62458 12.6009C3.54234 12.7995 3.50002 13.0123 3.50002 13.2272C3.50002 13.442 3.54234 13.6548 3.62458 13.8534C3.70681 14.0519 3.82734 14.2323 3.97929 14.3842C4.13124 14.5362 4.31163 14.6567 4.51016 14.7389C4.70869 14.8212 4.92148 14.8635 5.13637 14.8635H13.3182C13.3898 14.8635 13.4608 14.8776 13.5269 14.905C13.5931 14.9324 13.6532 14.9726 13.7039 15.0233C13.7545 15.0739 13.7947 15.1341 13.8221 15.2003C13.8495 15.2664 13.8636 15.3374 13.8636 15.409V16.4999C13.8636 16.6446 13.9211 16.7833 14.0234 16.8856C14.1257 16.9879 14.2644 17.0454 14.4091 17.0454H16.5909C16.7356 17.0454 16.8743 16.9879 16.9766 16.8856C17.0789 16.7833 17.1364 16.6446 17.1364 16.4999V15.409ZM21.2087 24.1362H25.8636C26.2976 24.1362 26.7138 24.3086 27.0207 24.6155C27.3276 24.9224 27.5 25.3386 27.5 25.7726C27.5 26.2066 27.3276 26.6228 27.0207 26.9297C26.7138 27.2366 26.2976 27.409 25.8636 27.409H20.4091C20.1601 27.4088 19.9144 27.3519 19.6908 27.2424C19.4671 27.1329 19.2714 26.9738 19.1185 26.7773L14.864 21.6075C14.8128 21.5454 14.7485 21.4953 14.6757 21.461C14.6029 21.4267 14.5234 21.4089 14.4429 21.409H11.6818C11.6102 21.409 11.5392 21.4231 11.4731 21.4505C11.4069 21.4779 11.3468 21.5181 11.2961 21.5687C11.2455 21.6194 11.2053 21.6795 11.1779 21.7457C11.1505 21.8118 11.1364 21.8828 11.1364 21.9544V25.7726C11.1369 25.9878 11.095 26.2011 11.013 26.4001C10.931 26.5991 10.8106 26.7799 10.6586 26.9323C10.5065 27.0847 10.326 27.2056 10.1272 27.2881C9.92837 27.3706 9.71525 27.413 9.50002 27.413C9.28479 27.413 9.07167 27.3706 8.87287 27.2881C8.67407 27.2056 8.49349 27.0847 8.34149 26.9323C8.18948 26.7799 8.06903 26.5991 7.98703 26.4001C7.90504 26.2011 7.8631 25.9878 7.86364 25.7726V21.9544C7.86367 20.9418 8.26595 19.9706 8.98198 19.2546C9.69802 18.5385 10.6692 18.1362 11.6818 18.1362H16.5909C16.7356 18.1362 16.8743 18.1937 16.9766 18.296C17.0789 18.3983 17.1364 18.537 17.1364 18.6817V18.8377C17.1365 19.0803 17.2175 19.316 17.3665 19.5075L21.2087 24.1362Z" fill="#00A2C7"/>
</svg>
