<svg width="32" height="32" viewBox="0 0 32 32" fill="none" xmlns="http://www.w3.org/2000/svg">
<path fill-rule="evenodd" clip-rule="evenodd" d="M16.016 9.663C15.363 8.932 15 7.985 15 7C15 5.939 15.421 4.922 16.172 4.172C16.922 3.421 17.939 3 19 3C20.061 3 21.078 3.421 21.829 4.172C22.579 4.922 23 5.939 23 7C23 7.985 22.637 8.932 21.985 9.662C23.265 9.776 24.471 10.336 25.388 11.253C26.418 12.283 26.998 13.681 27 15.138V18.75C27 19.48 26.71 20.179 26.195 20.695C25.679 21.21 24.979 21.5 24.25 21.5C23.994 21.5 23.742 21.464 23.5 21.395V27.25C23.5 27.98 23.21 28.679 22.695 29.195C22.179 29.71 21.479 30 20.75 30C20.109 30 19.49 29.776 19 29.371C18.51 29.776 17.891 30 17.25 30C16.521 30 15.821 29.71 15.305 29.195C14.79 28.679 14.5 27.98 14.5 27.25V20.955C14.418 21.15 14.325 21.342 14.223 21.529C13.9 22.119 13.487 22.653 13 23.112V25.5C13.094 25.571 13.184 25.648 13.268 25.732C13.737 26.201 14 26.837 14 27.5C14 28.163 13.737 28.799 13.268 29.268C12.799 29.737 12.163 30 11.5 30H9.5C8.837 30 8.201 29.737 7.732 29.268C7.263 28.799 7 28.163 7 27.5C7 26.837 7.263 26.201 7.732 25.732C7.816 25.648 7.906 25.571 8 25.5V23.112C7.513 22.652 7.1 22.118 6.778 21.528C6.327 20.704 6.062 19.79 6.003 18.852C6.001 18.821 6 18.789 6 18.758V18C5.906 17.929 5.816 17.852 5.732 17.768C5.263 17.299 5 16.663 5 16C5 15.337 5.263 14.701 5.732 14.232C6.201 13.763 6.837 13.5 7.5 13.5H11.3C11.319 13.364 11.355 13.23 11.406 13.103C11.811 12.083 12.513 11.208 13.42 10.591C14.194 10.064 15.088 9.746 16.016 9.663Z" fill="white"/>
<path fill-rule="evenodd" clip-rule="evenodd" d="M16.5 7C16.5 7.663 16.763 8.299 17.232 8.768C17.701 9.237 18.337 9.5 19 9.5C19.663 9.5 20.299 9.237 20.768 8.768C21.237 8.299 21.5 7.663 21.5 7C21.5 6.337 21.237 5.701 20.768 5.232C20.299 4.763 19.663 4.5 19 4.5C18.337 4.5 17.701 4.763 17.232 5.232C16.763 5.701 16.5 6.337 16.5 7ZM21.5 11.14H16.5C15.702 11.142 14.923 11.382 14.264 11.831C13.604 12.28 13.095 12.916 12.8 13.657C12.785 13.695 12.779 13.736 12.783 13.776C12.788 13.817 12.802 13.856 12.824 13.889C12.847 13.923 12.878 13.951 12.914 13.97C12.949 13.99 12.989 14 13.03 14H13.5C13.994 14.001 14.469 14.186 14.833 14.52C14.879 14.562 14.939 14.586 15.002 14.586C15.064 14.586 15.124 14.562 15.17 14.52C15.26 14.437 15.378 14.391 15.5 14.391C15.633 14.391 15.76 14.444 15.854 14.538C15.947 14.631 16 14.759 16 14.891V27.25C16 27.582 16.132 27.9 16.366 28.134C16.601 28.368 16.919 28.5 17.25 28.5C17.581 28.5 17.9 28.368 18.134 28.134C18.368 27.9 18.5 27.582 18.5 27.25V21C18.5 20.868 18.553 20.74 18.646 20.647C18.74 20.553 18.867 20.5 19 20.5C19.133 20.5 19.26 20.553 19.354 20.647C19.447 20.74 19.5 20.868 19.5 21V27.25C19.5 27.582 19.632 27.9 19.866 28.134C20.101 28.368 20.419 28.5 20.75 28.5C21.081 28.5 21.4 28.368 21.634 28.134C21.868 27.9 22 27.582 22 27.25V14.89C22 14.758 22.053 14.63 22.146 14.537C22.24 14.443 22.367 14.39 22.5 14.39C22.633 14.39 22.76 14.443 22.854 14.537C22.947 14.63 23 14.758 23 14.89V18.75C23 19.082 23.132 19.4 23.366 19.634C23.601 19.868 23.919 20 24.25 20C24.581 20 24.9 19.868 25.134 19.634C25.368 19.4 25.5 19.082 25.5 18.75V15.14C25.499 14.08 25.077 13.063 24.327 12.313C23.577 11.563 22.56 11.142 21.5 11.14ZM13.5 17V18.758C13.455 19.477 13.253 20.177 12.907 20.809C12.561 21.44 12.081 21.988 11.5 22.414V26.5C11.765 26.5 12.02 26.605 12.207 26.793C12.395 26.98 12.5 27.235 12.5 27.5C12.5 27.765 12.395 28.02 12.207 28.207C12.02 28.395 11.765 28.5 11.5 28.5H9.5C9.235 28.5 8.98 28.395 8.793 28.207C8.605 28.02 8.5 27.765 8.5 27.5C8.5 27.235 8.605 26.98 8.793 26.793C8.98 26.605 9.235 26.5 9.5 26.5V22.414C8.919 21.988 8.439 21.44 8.094 20.808C7.748 20.177 7.545 19.477 7.5 18.758V17C7.235 17 6.98 16.895 6.793 16.707C6.605 16.52 6.5 16.265 6.5 16C6.5 15.735 6.605 15.48 6.793 15.293C6.98 15.105 7.235 15 7.5 15H13.5C13.765 15 14.02 15.105 14.207 15.293C14.395 15.48 14.5 15.735 14.5 16C14.5 16.265 14.395 16.52 14.207 16.707C14.02 16.895 13.765 17 13.5 17ZM9.573 17.073C9.526 17.12 9.5 17.184 9.5 17.25V18.758C9.502 19.288 9.712 19.796 10.086 20.172L10.323 20.409C10.346 20.432 10.374 20.451 10.404 20.463C10.435 20.476 10.467 20.482 10.5 20.482C10.533 20.482 10.565 20.476 10.596 20.463C10.626 20.451 10.654 20.432 10.677 20.409L10.914 20.172C11.288 19.796 11.498 19.288 11.5 18.758V17.25C11.5 17.184 11.474 17.12 11.427 17.073C11.38 17.026 11.316 17 11.25 17H9.75C9.684 17 9.62 17.026 9.573 17.073Z" fill="#4085C6"/>
</svg>
