<svg width="32" height="32" viewBox="0 0 32 32" fill="none" xmlns="http://www.w3.org/2000/svg">
<path d="M22.47 25.9644H6.49594C6.36355 25.9644 6.23658 26.0169 6.14296 26.1106C6.04934 26.2042 5.99675 26.3312 5.99675 26.4635C5.99675 26.8607 6.15453 27.2416 6.43538 27.5225C6.71623 27.8033 7.09714 27.9611 7.49432 27.9611H21.4716C21.8688 27.9611 22.2497 27.8033 22.5306 27.5225C22.8114 27.2416 22.9692 26.8607 22.9692 26.4635C22.9692 26.3312 22.9166 26.2042 22.823 26.1106C22.7294 26.0169 22.6024 25.9644 22.47 25.9644Z" fill="#51247A"/>
<path d="M22.47 11.4878C21.7952 11.488 21.1262 11.6122 20.4962 11.8542C20.2676 11.9426 20.0245 11.9876 19.7794 11.987H4.99838C4.78884 11.987 4.58461 12.0529 4.41462 12.1755C4.24463 12.298 4.1175 12.4709 4.05123 12.6697C3.98497 12.8685 3.98293 13.083 4.04541 13.2831C4.10789 13.4831 4.23172 13.6584 4.39935 13.7841L6.2164 15.1549C6.44196 15.3261 6.61476 15.5573 6.71505 15.8222C6.81533 16.087 6.83905 16.3747 6.78348 16.6524C6.31886 19.0616 6.06266 21.5064 6.01772 23.9596C6.01599 24.0262 6.02762 24.0925 6.05193 24.1546C6.07624 24.2166 6.11274 24.2732 6.15926 24.321C6.20579 24.3687 6.26141 24.4066 6.32283 24.4325C6.38426 24.4584 6.45025 24.4717 6.51691 24.4717H22.445C22.5121 24.4718 22.5784 24.4583 22.6401 24.4322C22.7018 24.406 22.7576 24.3677 22.8042 24.3196C22.8507 24.2714 22.8872 24.2143 22.9112 24.1518C22.9353 24.0893 22.9465 24.0225 22.9442 23.9556C22.9283 23.4564 22.9023 22.9572 22.8694 22.458C24.2947 22.3642 25.6275 21.7187 26.5847 20.6584C27.542 19.5981 28.0483 18.2065 27.9964 16.779C27.9444 15.3515 27.3382 14.0004 26.3064 13.0125C25.2746 12.0246 23.8984 11.4777 22.47 11.4878ZM15.9805 20.4732C15.9805 20.8704 15.8228 21.2513 15.5419 21.5322C15.2611 21.813 14.8802 21.9708 14.483 21.9708C14.0858 21.9708 13.7049 21.813 13.424 21.5322C13.1432 21.2513 12.9854 20.8704 12.9854 20.4732V15.9805C12.9854 15.5833 13.1432 15.2024 13.424 14.9216C13.7049 14.6407 14.0858 14.4829 14.483 14.4829C14.8802 14.4829 15.2611 14.6407 15.5419 14.9216C15.8228 15.2024 15.9805 15.5833 15.9805 15.9805V20.4732ZM25.9643 16.9789C25.9644 17.4795 25.857 17.9742 25.6492 18.4296C25.4415 18.885 25.1383 19.2905 24.7603 19.6186C24.3235 19.9999 23.7979 20.2653 23.2318 20.3904C23.1642 20.4047 23.0945 20.4049 23.0268 20.3909C22.9592 20.3769 22.8952 20.3491 22.839 20.3091C22.7827 20.2691 22.7353 20.2179 22.6998 20.1587C22.6643 20.0995 22.6414 20.0335 22.6327 19.965C22.395 18.0064 21.9882 16.0719 21.4167 14.1834C21.3959 14.1165 21.3895 14.0459 21.3978 13.9762C21.4061 13.9066 21.429 13.8395 21.465 13.7793C21.501 13.7191 21.5492 13.6672 21.6066 13.6269C21.664 13.5866 21.7293 13.5589 21.7981 13.5455C22.3047 13.4462 22.8269 13.4604 23.3274 13.5871C23.8278 13.7137 24.2939 13.9497 24.6923 14.278C25.0907 14.6063 25.4113 15.0187 25.6313 15.4857C25.8512 15.9528 25.965 16.4627 25.9643 16.9789Z" fill="#51247A"/>
<path d="M20.0649 9.80857C19.7448 8.9792 19.243 8.23206 18.5963 7.62202C17.9497 7.01198 17.1746 6.55454 16.328 6.28329C16.2272 6.25113 16.1392 6.18776 16.0767 6.10234C16.0143 6.01693 15.9806 5.91387 15.9805 5.80806V5.49757C15.9805 5.10039 15.8228 4.71948 15.5419 4.43863C15.2611 4.15778 14.8802 4 14.483 4C14.0858 4 13.7049 4.15778 13.424 4.43863C13.1432 4.71948 12.9854 5.10039 12.9854 5.49757V5.80806C12.9853 5.91387 12.9516 6.01693 12.8892 6.10234C12.8267 6.18776 12.7388 6.25113 12.638 6.28329C11.7914 6.55454 11.0163 7.01198 10.3696 7.62202C9.72294 8.23206 9.22113 8.9792 8.90104 9.80857C8.87145 9.88426 8.8608 9.96603 8.87 10.0468C8.8792 10.1275 8.90797 10.2048 8.95382 10.2719C8.99967 10.339 9.0612 10.3939 9.13308 10.4318C9.20496 10.4697 9.28501 10.4895 9.36628 10.4895H19.5997C19.6809 10.4895 19.761 10.4697 19.8329 10.4318C19.9047 10.3939 19.9663 10.339 20.0121 10.2719C20.058 10.2048 20.0867 10.1275 20.0959 10.0468C20.1051 9.96603 20.0945 9.88426 20.0649 9.80857Z" fill="#51247A"/>
</svg>
