<svg width="32" height="32" viewBox="0 0 32 32" fill="none" xmlns="http://www.w3.org/2000/svg">
<path d="M21.5 22.4998C21.2348 22.4998 20.9804 22.6052 20.7929 22.7927C20.6054 22.9802 20.5 23.2346 20.5 23.4998V23.9998C20.5 24.1324 20.4473 24.2596 20.3536 24.3534C20.2598 24.4471 20.1326 24.4998 20 24.4998H14.5C14.3674 24.4998 14.2402 24.4471 14.1464 24.3534C14.0527 24.2596 14 24.1324 14 23.9998V7.9998C14 7.8672 14.0527 7.74002 14.1464 7.64625C14.2402 7.55248 14.3674 7.4998 14.5 7.4998H20C20.1326 7.4998 20.2598 7.55248 20.3536 7.64625C20.4473 7.74002 20.5 7.8672 20.5 7.9998V8.9998C20.5 9.26502 20.6054 9.51937 20.7929 9.70691C20.9804 9.89445 21.2348 9.9998 21.5 9.9998C21.7652 9.9998 22.0196 9.89445 22.2071 9.70691C22.3946 9.51937 22.5 9.26502 22.5 8.9998V6.4998C22.5 6.23459 22.3946 5.98023 22.2071 5.7927C22.0196 5.60516 21.7652 5.4998 21.5 5.4998H14V4.4998C14 4.42499 13.9832 4.35113 13.9508 4.28368C13.9184 4.21623 13.8713 4.1569 13.813 4.11007C13.7546 4.06324 13.6865 4.0301 13.6137 4.01309C13.5408 3.99608 13.4651 3.99564 13.392 4.0118L4.392 6.0118C4.28088 6.03639 4.18146 6.09814 4.11019 6.18687C4.03892 6.2756 4.00005 6.38599 4 6.4998V25.4998C3.99982 25.6138 4.03858 25.7244 4.10988 25.8133C4.18117 25.9023 4.28071 25.9642 4.392 25.9888L13.392 27.9888C13.4652 28.0043 13.5409 28.0034 13.6137 27.9861C13.6865 27.9688 13.7546 27.9356 13.813 27.8888C13.8714 27.8419 13.9185 27.7826 13.9509 27.7151C13.9832 27.6476 14 27.5737 14 27.4988V26.4988H21.5C21.7652 26.4988 22.0196 26.3934 22.2071 26.2059C22.3946 26.0184 22.5 25.764 22.5 25.4988V23.4988C22.4997 23.2338 22.3943 22.9797 22.2068 22.7923C22.0192 22.605 21.765 22.4998 21.5 22.4998ZM11.5 16.4998C11.5 16.7965 11.412 17.0865 11.2472 17.3332C11.0824 17.5798 10.8481 17.7721 10.574 17.8856C10.2999 17.9992 9.99834 18.0289 9.70737 17.971C9.41639 17.9131 9.14912 17.7702 8.93934 17.5605C8.72956 17.3507 8.5867 17.0834 8.52882 16.7924C8.47094 16.5015 8.50065 16.1999 8.61418 15.9258C8.72771 15.6517 8.91997 15.4174 9.16665 15.2526C9.41332 15.0878 9.70333 14.9998 10 14.9998C10.3978 14.9998 10.7794 15.1578 11.0607 15.4391C11.342 15.7204 11.5 16.102 11.5 16.4998Z" fill="#2EA836"/>
<path d="M27.538 15.6677L22.663 12.4177C22.5124 12.3175 22.3375 12.26 22.1568 12.2514C21.9761 12.2427 21.7965 12.2833 21.637 12.3686C21.4775 12.454 21.3442 12.5811 21.2512 12.7362C21.1583 12.8914 21.1091 13.0688 21.109 13.2497V14.9997H16.984C16.5862 14.9997 16.2047 15.1578 15.9233 15.4391C15.642 15.7204 15.484 16.1019 15.484 16.4997C15.484 16.8976 15.642 17.2791 15.9233 17.5604C16.2047 17.8417 16.5862 17.9997 16.984 17.9997H21.109V19.7497C21.1091 19.9306 21.1583 20.1081 21.2512 20.2632C21.3442 20.4184 21.4775 20.5454 21.637 20.6308C21.7965 20.7162 21.9761 20.7567 22.1568 20.7481C22.3375 20.7394 22.5124 20.6819 22.663 20.5817L27.538 17.3317C27.675 17.2404 27.7873 17.1167 27.8649 16.9715C27.9426 16.8264 27.9832 16.6643 27.9832 16.4997C27.9832 16.3351 27.9426 16.173 27.8649 16.0279C27.7873 15.8828 27.675 15.7591 27.538 15.6677Z" fill="#2EA836"/>
</svg>
