<svg width="32" height="32" viewBox="0 0 32 32" fill="none" xmlns="http://www.w3.org/2000/svg">
<path d="M16.2318 4C13.7845 4.00247 11.438 4.97564 9.70732 6.706C7.97661 8.43636 7.00296 10.7826 7 13.2299C7 19.0835 15.2282 27.3808 15.5808 27.7296C15.7539 27.9027 15.9888 28 16.2337 28C16.4785 28 16.7134 27.9027 16.8865 27.7296C17.2372 27.3808 25.4673 19.0835 25.4673 13.2299C25.4644 10.7819 24.4902 8.43515 22.7587 6.70468C21.0272 4.97422 18.6798 4.00148 16.2318 4ZM16.2318 10.0009C16.8712 9.99947 17.4967 10.1878 18.029 10.5419C18.5613 10.8961 18.9766 11.4003 19.2222 11.9907C19.4678 12.581 19.5328 13.2309 19.4088 13.8582C19.2848 14.4855 18.9775 15.0619 18.5258 15.5144C18.0741 15.9669 17.4982 16.2752 16.8712 16.4002C16.2441 16.5253 15.5941 16.4615 15.0033 16.2169C14.4125 15.9723 13.9076 15.5579 13.5525 15.0262C13.1974 14.4945 13.008 13.8693 13.0084 13.2299C13.0099 12.375 13.3498 11.5554 13.9538 10.9503C14.5578 10.3452 15.3768 10.0039 16.2318 10.0009Z" fill="#51247A"/>
</svg>
