<svg width="32" height="32" viewBox="0 0 32 32" fill="none" xmlns="http://www.w3.org/2000/svg">
<path fill-rule="evenodd" clip-rule="evenodd" d="M6.03146 29C5.63337 29.0001 5.23917 28.9217 4.87138 28.7694C4.50358 28.6171 4.16939 28.3938 3.8879 28.1123C3.60641 27.8308 3.38313 27.4966 3.23082 27.1288C3.07851 26.761 3.00015 26.3668 3.00021 25.9688V21.6289C2.99909 21.5321 3.00661 21.4353 3.02267 21.3398H3.00021V12.7236H3.02316C3.00788 12.6295 3.00021 12.5343 3.00021 12.439V10.6704C2.99473 10.246 3.09793 9.82732 3.30001 9.4541C3.50613 9.07197 3.80692 8.74917 4.17355 8.5166L13.8747 2.3896C14.1544 2.21278 14.4661 2.09282 14.7922 2.0366C14.934 2.01247 15.0776 2.00023 15.2214 2C15.6835 1.99986 16.1367 2.12667 16.5316 2.36657C16.9265 2.60648 17.2479 2.95026 17.4607 3.3604C17.6736 3.77054 17.7696 4.23126 17.7384 4.69227C17.7073 5.15329 17.55 5.59687 17.2839 5.97461C17.0927 6.24584 16.8499 6.47679 16.5695 6.6543L13.4231 8.6416H19.3054C20.1094 8.64188 20.8804 8.96136 21.449 9.52985C22.0176 10.0983 22.3372 10.8693 22.3376 11.6733V12.439C22.3375 12.5343 22.33 12.6295 22.3151 12.7237H22.3376V13.8384L25.4274 11.46C25.6848 11.2568 25.9804 11.1074 26.2966 11.0205C26.6188 10.9302 26.9558 10.9048 27.2879 10.946C27.62 10.9873 27.9405 11.0942 28.2309 11.2606C28.5212 11.427 28.7755 11.6495 28.9789 11.9152C29.1824 12.1809 29.3308 12.4845 29.4157 12.8082C29.5013 13.1316 29.5213 13.469 29.4745 13.8003C29.4277 14.1316 29.3151 14.4502 29.1433 14.7373C28.9723 15.0257 28.7452 15.2768 28.4753 15.4756L23.6921 19.1563C23.425 19.3598 23.1057 19.4834 22.7712 19.5127L22.6257 19.5186C22.5291 19.5188 22.4327 19.5106 22.3376 19.4942V21.0176L25.4147 18.6182C25.6681 18.4176 25.958 18.268 26.2682 18.1777C26.5882 18.0847 26.9233 18.0552 27.2546 18.0908C27.5891 18.128 27.9128 18.2318 28.2066 18.396C28.5004 18.5602 28.7584 18.7816 28.9654 19.047C29.1723 19.3125 29.324 19.6167 29.4116 19.9417C29.4992 20.2667 29.5208 20.606 29.4753 20.9394C29.43 21.2721 29.3185 21.5923 29.1474 21.8811C28.9763 22.1699 28.7491 22.4215 28.4792 22.6211L23.6989 26.3467C23.4389 26.5467 23.1286 26.6708 22.8024 26.7051L22.7253 26.7129L22.6257 26.7139C22.5012 26.7138 22.3771 26.7004 22.2555 26.6739C22.0962 27.3364 21.7186 27.9261 21.1835 28.3481C20.6483 28.77 19.9868 28.9996 19.3054 29H6.03146Z" fill="white"/>
<path fill-rule="evenodd" clip-rule="evenodd" d="M4.49998 12.4389V10.6704C4.49604 10.4942 4.53779 10.3199 4.62117 10.1646C4.70456 10.0093 4.82673 9.8782 4.9758 9.7841L6.84236 8.60778L14.6761 3.65754C14.9055 3.5138 15.1825 3.46688 15.4464 3.52706C15.7103 3.58724 15.9396 3.74962 16.0839 3.97859C16.2283 4.20755 16.276 4.48443 16.2165 4.74849C16.157 5.01256 15.9953 5.24228 15.7667 5.38726L10.6673 8.60778L8.98772 9.6707C8.94108 9.70035 8.90533 9.74433 8.88582 9.79603C8.86631 9.84773 8.8641 9.90436 8.87952 9.95743C8.89494 10.0105 8.92716 10.0571 8.97134 10.0903C9.01552 10.1235 9.06928 10.1415 9.12454 10.1415H19.3058C19.712 10.1415 20.1016 10.3029 20.3888 10.5901C20.676 10.8773 20.8374 11.2669 20.8374 11.6731V12.4389C20.8374 12.5066 20.8105 12.5715 20.7626 12.6194C20.7147 12.6673 20.6498 12.6942 20.5821 12.6942H4.75525C4.68754 12.6942 4.62262 12.6673 4.57474 12.6194C4.52687 12.5715 4.49998 12.5066 4.49998 12.4389ZM27.5858 14.2678C27.6946 14.187 27.7862 14.0854 27.8553 13.9689C27.9244 13.8524 27.9697 13.7232 27.9884 13.5891C28.0071 13.4549 27.9989 13.3183 27.9644 13.1873C27.9298 13.0563 27.8695 12.9335 27.7869 12.8261C27.7044 12.7186 27.6013 12.6286 27.4837 12.5614C27.3661 12.4942 27.2362 12.4511 27.1018 12.4345C26.9673 12.418 26.8309 12.4284 26.7005 12.4651C26.57 12.5018 26.4482 12.5641 26.3421 12.6483L22.4711 15.6279C22.4395 15.6518 22.4138 15.6826 22.3961 15.718C22.3784 15.7534 22.3691 15.7925 22.369 15.8321V17.764C22.3694 17.8113 22.3828 17.8575 22.4079 17.8976C22.4329 17.9377 22.4685 17.9701 22.5107 17.9912C22.553 18.0123 22.6003 18.0214 22.6474 18.0173C22.6944 18.0132 22.7395 17.9963 22.7775 17.9682L27.5858 14.2678ZM26.337 19.7998L22.4711 22.8141C22.4395 22.838 22.4138 22.8688 22.3961 22.9042C22.3784 22.9397 22.3691 22.9787 22.369 23.0183V24.9584C22.369 25.0058 22.3823 25.0523 22.4072 25.0926C22.4321 25.1329 22.4678 25.1655 22.5102 25.1867C22.5526 25.2079 22.6001 25.2169 22.6473 25.2126C22.6945 25.2083 22.7396 25.191 22.7775 25.1626L27.5868 21.4162C27.696 21.3351 27.7878 21.233 27.8569 21.1159C27.9261 20.9988 27.9711 20.869 27.9894 20.7343C28.0077 20.5995 27.999 20.4625 27.9636 20.3312C27.9282 20.1999 27.867 20.0769 27.7835 19.9696C27.7 19.8623 27.5959 19.7727 27.4773 19.7062C27.3587 19.6397 27.228 19.5975 27.0928 19.5821C26.9577 19.5668 26.8209 19.5786 26.6904 19.6169C26.5599 19.6551 26.4384 19.719 26.3329 19.8049L26.337 19.7998ZM20.8374 14.2236H4.49997V19.8396H20.8374V14.2236ZM4.75525 21.3716C4.72155 21.3716 4.68819 21.3783 4.65709 21.3912C4.62598 21.4042 4.59775 21.4232 4.57402 21.4471C4.55029 21.471 4.53153 21.4994 4.51882 21.5306C4.50611 21.5618 4.49971 21.5952 4.49998 21.6289V25.9685C4.49997 26.1696 4.53958 26.3688 4.61654 26.5547C4.69351 26.7405 4.80633 26.9093 4.94855 27.0516C5.09078 27.1938 5.25963 27.3066 5.44546 27.3836C5.63129 27.4606 5.83046 27.5002 6.03161 27.5002H19.3058C19.507 27.5002 19.7061 27.4606 19.892 27.3836C20.0778 27.3066 20.2466 27.1938 20.3889 27.0516C20.5311 26.9093 20.6439 26.7405 20.7209 26.5546C20.7978 26.3688 20.8374 26.1696 20.8374 25.9685V21.6289C20.8374 21.5612 20.8105 21.4963 20.7626 21.4484C20.7147 21.4005 20.6498 21.3736 20.5821 21.3736L4.75525 21.3716Z" fill="#51247A"/>
</svg>
