<svg width="32" height="32" viewBox="0 0 32 32" fill="none" xmlns="http://www.w3.org/2000/svg">
<path d="M14 16C14 16.5304 14.2107 17.0391 14.5858 17.4142C14.9609 17.7893 15.4696 18 16 18C16.5304 18 17.0391 17.7893 17.4142 17.4142C17.7893 17.0391 18 16.5304 18 16C18 15.4696 17.7893 14.9609 17.4142 14.5858C17.0391 14.2107 16.5304 14 16 14C15.4696 14 14.9609 14.2107 14.5858 14.5858C14.2107 14.9609 14 15.4696 14 16Z" fill="#51247A"/>
<path d="M13.962 13.6909C13.9999 13.5996 14.0099 13.4991 13.9907 13.4021C13.9714 13.305 13.9239 13.2159 13.854 13.1459L5.707 4.99994C5.56715 4.86013 5.38898 4.76492 5.19503 4.72636C5.00108 4.68779 4.80005 4.70759 4.61735 4.78326C4.43465 4.85893 4.27848 4.98707 4.1686 5.15148C4.05871 5.31589 4.00004 5.50919 4 5.70694V13.4999C4 13.6325 4.05268 13.7597 4.14645 13.8535C4.24021 13.9473 4.36739 13.9999 4.5 13.9999H13.5C13.5989 13.9999 13.6957 13.9706 13.7779 13.9155C13.8601 13.8605 13.9242 13.7824 13.962 13.6909Z" fill="#51247A"/>
<path d="M5.99998 15C5.90096 14.9998 5.80412 15.0291 5.72173 15.084C5.63934 15.1389 5.57511 15.2171 5.53719 15.3085C5.49928 15.4 5.48937 15.5007 5.50874 15.5978C5.52811 15.6949 5.57587 15.7841 5.64598 15.854L9.39998 19.6C9.44642 19.6466 9.5016 19.6835 9.56235 19.7087C9.62309 19.7339 9.68821 19.7469 9.75398 19.7469C9.81975 19.7469 9.88487 19.7339 9.94561 19.7087C10.0064 19.6835 10.0615 19.6466 10.108 19.6L12.858 16.85C12.9493 16.7564 13.0002 16.6307 13 16.5V15.5C13 15.3674 12.9473 15.2402 12.8535 15.1464C12.7598 15.0527 12.6326 15 12.5 15H5.99998Z" fill="#51247A"/>
<path d="M15.146 12.854C15.1925 12.9004 15.2477 12.9372 15.3085 12.9623C15.3692 12.9873 15.4343 13.0002 15.5 13H16.5C16.6326 13 16.7598 12.9474 16.8536 12.8536C16.9473 12.7598 17 12.6326 17 12.5V6.00004C17.0002 5.90102 16.971 5.80418 16.916 5.72179C16.8611 5.6394 16.7829 5.57517 16.6915 5.53726C16.6 5.49934 16.4993 5.48944 16.4022 5.5088C16.3051 5.52817 16.2159 5.57593 16.146 5.64604L12.4 9.40004C12.3534 9.44649 12.3165 9.50166 12.2913 9.56241C12.2661 9.62315 12.2531 9.68827 12.2531 9.75404C12.2531 9.81981 12.2661 9.88493 12.2913 9.94567C12.3165 10.0064 12.3534 10.0616 12.4 10.108L15.146 12.854Z" fill="#51247A"/>
<path d="M21.9 12.4L19.15 15.15C19.0558 15.2423 19.0019 15.3681 19 15.5V16.5C19 16.6326 19.0527 16.7598 19.1464 16.8536C19.2402 16.9473 19.3674 17 19.5 17H26C26.099 17.0002 26.1959 16.971 26.2783 16.916C26.3606 16.8611 26.4249 16.7829 26.4628 16.6915C26.5007 16.6 26.5106 16.4993 26.4912 16.4022C26.4719 16.3051 26.4241 16.2159 26.354 16.146L22.6 12.4C22.5065 12.3084 22.3809 12.2571 22.25 12.2571C22.1191 12.2571 21.9935 12.3084 21.9 12.4Z" fill="#51247A"/>
<path d="M16.854 19.146C16.8075 19.0996 16.7523 19.0628 16.6915 19.0378C16.6308 19.0127 16.5657 18.9999 16.5 19H15.5C15.3674 19 15.2402 19.0527 15.1464 19.1464C15.0527 19.2402 15 19.3674 15 19.5V26C15 26.0989 15.0294 26.1957 15.0844 26.2779C15.1394 26.3601 15.2176 26.4242 15.309 26.462C15.3696 26.4868 15.4345 26.4997 15.5 26.5C15.5657 26.5001 15.6308 26.4873 15.6915 26.4622C15.7523 26.4372 15.8075 26.4004 15.854 26.354L19.6 22.6C19.6466 22.5536 19.6835 22.4984 19.7087 22.4376C19.7339 22.3769 19.7469 22.3118 19.7469 22.246C19.7469 22.1802 19.7339 22.1151 19.7087 22.0544C19.6835 21.9936 19.6466 21.9384 19.6 21.892L16.854 19.146Z" fill="#51247A"/>
<path d="M18.309 13.962C18.3696 13.9868 18.4345 13.9997 18.5 14C18.5657 14.0001 18.6308 13.9873 18.6915 13.9622C18.7523 13.9372 18.8075 13.9004 18.854 13.854L27 5.707C27.1398 5.56715 27.235 5.38898 27.2736 5.19503C27.3122 5.00108 27.2923 4.80005 27.2167 4.61735C27.141 4.43465 27.0129 4.27848 26.8485 4.1686C26.684 4.05871 26.4907 4.00004 26.293 4H18.5C18.3674 4 18.2402 4.05268 18.1464 4.14645C18.0527 4.24021 18 4.36739 18 4.5V13.5C18 13.5989 18.0294 13.6957 18.0844 13.7779C18.1394 13.8601 18.2176 13.9242 18.309 13.962Z" fill="#51247A"/>
<path d="M27.5 18H18.5C18.401 17.9998 18.3041 18.0291 18.2217 18.084C18.1393 18.1389 18.0751 18.2171 18.0372 18.3085C17.9993 18.4 17.9894 18.5007 18.0087 18.5978C18.0281 18.6949 18.0759 18.7841 18.146 18.854L26.293 27C26.4328 27.1398 26.611 27.235 26.8049 27.2736C26.9989 27.3122 27.1999 27.2923 27.3826 27.2167C27.5653 27.141 27.7215 27.0129 27.8314 26.8485C27.9413 26.6841 27.9999 26.4908 28 26.293V18.5C28 18.3674 27.9473 18.2402 27.8535 18.1464C27.7598 18.0527 27.6326 18 27.5 18Z" fill="#51247A"/>
<path d="M13.691 18.038C13.5997 18 13.4991 17.9901 13.4021 18.0093C13.3051 18.0285 13.216 18.0761 13.146 18.146L5 26.293C4.86019 26.4328 4.76499 26.611 4.72642 26.8049C4.68785 26.9989 4.70765 27.1999 4.78332 27.3826C4.85899 27.5653 4.98713 27.7215 5.15154 27.8314C5.31595 27.9412 5.50925 27.9999 5.707 28H13.5C13.6326 28 13.7598 27.9473 13.8536 27.8535C13.9473 27.7597 14 27.6326 14 27.5V18.5C14 18.401 13.9706 18.3043 13.9156 18.2221C13.8606 18.1398 13.7824 18.0758 13.691 18.038Z" fill="#51247A"/>
</svg>
