<svg width="32" height="32" viewBox="0 0 32 32" fill="none" xmlns="http://www.w3.org/2000/svg">
<path fill-rule="evenodd" clip-rule="evenodd" d="M5.49743 30C4.94744 29.9991 4.41307 29.817 3.97702 29.4818C3.54096 29.1466 3.22753 28.677 3.08521 28.1458C2.94288 27.6145 2.97961 27.0512 3.1897 26.5429C3.3998 26.0346 3.77155 25.6097 4.24743 25.334V18.25C4.2476 17.587 4.51104 16.9512 4.97985 16.4824C5.44865 16.0136 6.08444 15.7502 6.74743 15.75H6.87731C7.00382 15.3917 7.21908 15.0713 7.50298 14.8187C7.78687 14.5661 8.13016 14.3896 8.50076 14.3056C8.87137 14.2216 9.25721 14.2329 9.62225 14.3385C9.9873 14.444 10.3196 14.6404 10.5882 14.9092C10.6446 14.9652 10.6978 15.0244 10.7474 15.0864V9.5C10.7476 8.83701 11.011 8.20122 11.4798 7.73242C11.9487 7.26362 12.5844 7.00017 13.2474 7H13.3099C13.2684 6.83658 13.2474 6.66862 13.2474 6.5V5.5C13.2476 4.83701 13.511 4.20122 13.9798 3.73242C14.4487 3.26362 15.0844 3.00017 15.7474 3H17.2474C17.9104 3.00017 18.5462 3.26362 19.015 3.73242C19.4838 4.20122 19.7473 4.83701 19.7474 5.5V6.5C19.7475 6.66862 19.7265 6.83658 19.6849 7H19.7474C20.4104 7.00017 21.0462 7.26362 21.515 7.73242C21.9838 8.20122 22.2473 8.83701 22.2474 9.5V15.0864C22.2971 15.0244 22.3502 14.9652 22.4066 14.9092C22.6155 14.7002 22.8635 14.5344 23.1364 14.4213C23.4094 14.3082 23.702 14.25 23.9974 14.25C24.2929 14.25 24.5855 14.3082 24.8584 14.4213C25.1314 14.5344 25.3794 14.7002 25.5882 14.9092C25.8249 15.1467 26.0057 15.4339 26.1175 15.75H26.2474C26.9104 15.7502 27.5462 16.0136 28.015 16.4824C28.4838 16.9512 28.7473 17.587 28.7474 18.25V25.334C29.224 25.6093 29.5965 26.0341 29.8071 26.5426C30.0177 27.0511 30.0546 27.6148 29.9122 28.1465C29.7698 28.6781 29.4559 29.1479 29.0194 29.483C28.5828 29.8181 28.0478 29.9999 27.4974 30H5.49743Z" fill="white"/>
<path fill-rule="evenodd" clip-rule="evenodd" d="M17.7474 7H15.2474C15.1818 7.00001 15.1168 6.98708 15.0561 6.96196C14.9954 6.93683 14.9403 6.9 14.8939 6.85357C14.8474 6.80714 14.8106 6.75202 14.7855 6.69135C14.7604 6.63069 14.7474 6.56566 14.7474 6.5V5.5C14.7474 5.23478 14.8528 4.98043 15.0403 4.79289C15.2279 4.60536 15.4822 4.5 15.7474 4.5H17.2474C17.5127 4.5 17.767 4.60536 17.9545 4.79289C18.1421 4.98043 18.2474 5.23478 18.2474 5.5V6.5C18.2474 6.56566 18.2345 6.63069 18.2094 6.69135C18.1843 6.75202 18.1474 6.80714 18.101 6.85357C18.0546 6.9 17.9995 6.93683 17.9388 6.96196C17.8781 6.98708 17.8131 7.00001 17.7474 7ZM27.3206 26.4268C27.3439 26.45 27.3714 26.4684 27.4018 26.481C27.4321 26.4935 27.4646 26.5 27.4974 26.5C27.7627 26.5 28.017 26.6054 28.2045 26.7929C28.3921 26.9804 28.4974 27.2348 28.4974 27.5C28.4974 27.7652 28.3921 28.0196 28.2045 28.2071C28.017 28.3946 27.7627 28.5 27.4974 28.5H5.49744C5.23222 28.5 4.97787 28.3946 4.79033 28.2071C4.60279 28.0196 4.49744 27.7652 4.49744 27.5C4.49744 27.2348 4.60279 26.9804 4.79033 26.7929C4.97787 26.6054 5.23222 26.5 5.49744 26.5C5.56374 26.5 5.62733 26.4737 5.67421 26.4268C5.7211 26.3799 5.74744 26.3163 5.74744 26.25V18.25C5.74744 17.9848 5.85279 17.7304 6.04033 17.5429C6.22787 17.3554 6.48222 17.25 6.74744 17.25H8.24744V16.5C8.24744 16.3011 8.32645 16.1103 8.46711 15.9697C8.60776 15.829 8.79852 15.75 8.99744 15.75C9.19635 15.75 9.38711 15.829 9.52777 15.9697C9.66842 16.1103 9.74744 16.3011 9.74744 16.5V17.25C10.0127 17.25 10.267 17.3554 10.4545 17.5429C10.6421 17.7304 10.7474 17.9848 10.7474 18.25V26C10.7474 26.0657 10.7603 26.1307 10.7855 26.1914C10.8106 26.252 10.8474 26.3072 10.8938 26.3536C10.9403 26.4 10.9954 26.4369 11.0561 26.462C11.1167 26.4871 11.1818 26.5 11.2474 26.5H11.7474C11.8131 26.5 11.8781 26.4871 11.9388 26.462C11.9995 26.4369 12.0546 26.4 12.101 26.3536C12.1475 26.3072 12.1843 26.252 12.2094 26.1914C12.2345 26.1307 12.2475 26.0657 12.2474 26V9.5C12.2474 9.23478 12.3528 8.98043 12.5403 8.79289C12.7279 8.60536 12.9822 8.5 13.2474 8.5H19.7474C20.0127 8.5 20.267 8.60536 20.4545 8.79289C20.6421 8.98043 20.7474 9.23478 20.7474 9.5V26C20.7474 26.0657 20.7603 26.1307 20.7855 26.1914C20.8106 26.252 20.8474 26.3072 20.8938 26.3536C20.9403 26.4 20.9954 26.4369 21.0561 26.462C21.1167 26.4871 21.1818 26.5 21.2474 26.5H21.7474C21.8131 26.5 21.8781 26.4871 21.9388 26.462C21.9995 26.4369 22.0546 26.4 22.101 26.3536C22.1475 26.3072 22.1843 26.252 22.2094 26.1914C22.2345 26.1307 22.2475 26.0657 22.2474 26V18.25C22.2474 17.9848 22.3528 17.7304 22.5403 17.5429C22.7279 17.3554 22.9822 17.25 23.2474 17.25V16.5C23.2474 16.3011 23.3265 16.1103 23.4671 15.9697C23.6078 15.829 23.7985 15.75 23.9974 15.75C24.1963 15.75 24.3871 15.829 24.5278 15.9697C24.6684 16.1103 24.7474 16.3011 24.7474 16.5V17.25H26.2474C26.5127 17.25 26.767 17.3554 26.9545 17.5429C27.1421 17.7304 27.2474 17.9848 27.2474 18.25V26.25C27.2474 26.2828 27.2539 26.3153 27.2665 26.3457C27.279 26.376 27.2974 26.4036 27.3206 26.4268ZM18.4974 11H14.4974C14.2985 11 14.1078 11.079 13.9671 11.2197C13.8265 11.3603 13.7474 11.5511 13.7474 11.75C13.7474 11.9489 13.8265 12.1397 13.9671 12.2803C14.1078 12.421 14.2985 12.5 14.4974 12.5H18.4974C18.6963 12.5 18.8871 12.421 19.0278 12.2803C19.1684 12.1397 19.2474 11.9489 19.2474 11.75C19.2474 11.5511 19.1684 11.3603 19.0278 11.2197C18.8871 11.079 18.6963 11 18.4974 11ZM18.4974 15H14.4974C14.2985 15 14.1078 15.079 13.9671 15.2197C13.8265 15.3603 13.7474 15.5511 13.7474 15.75C13.7474 15.9489 13.8265 16.1397 13.9671 16.2803C14.1078 16.421 14.2985 16.5 14.4974 16.5H18.4974C18.6963 16.5 18.8871 16.421 19.0278 16.2803C19.1684 16.1397 19.2474 15.9489 19.2474 15.75C19.2474 15.5511 19.1684 15.3603 19.0278 15.2197C18.8871 15.079 18.6963 15 18.4974 15ZM18.4974 19H14.4974C14.2985 19 14.1078 19.079 13.9671 19.2197C13.8265 19.3603 13.7474 19.5511 13.7474 19.75C13.7474 19.9489 13.8265 20.1397 13.9671 20.2803C14.1078 20.421 14.2985 20.5 14.4974 20.5H18.4974C18.6963 20.5 18.8871 20.421 19.0278 20.2803C19.1684 20.1397 19.2474 19.9489 19.2474 19.75C19.2474 19.5511 19.1684 19.3603 19.0278 19.2197C18.8871 19.079 18.6963 19 18.4974 19ZM14.2474 24.5H18.7474C18.9463 24.5 19.1371 24.421 19.2778 24.2803C19.4184 24.1397 19.4974 23.9489 19.4974 23.75C19.4974 23.5511 19.4184 23.3603 19.2778 23.2197C19.1371 23.079 18.9463 23 18.7474 23H14.2474C14.0485 23 13.8578 23.079 13.7171 23.2197C13.5765 23.3603 13.4974 23.5511 13.4974 23.75C13.4974 23.9489 13.5765 24.1397 13.7171 24.2803C13.8578 24.421 14.0485 24.5 14.2474 24.5Z" fill="black"/>
</svg>
