<svg width="32" height="32" viewBox="0 0 32 32" fill="none" xmlns="http://www.w3.org/2000/svg">
<path d="M22.8498 12.293C21.6641 12.1688 20.4693 12.4196 19.4336 13.0099C18.3978 13.6003 17.5732 14.5005 17.0758 15.584C17.0309 15.6824 16.95 15.7598 16.8497 15.8003C16.7495 15.8409 16.6375 15.8415 16.5368 15.802C15.6537 15.4651 14.7022 15.3471 13.7635 15.458C12.8249 15.5689 11.9271 15.9055 11.1468 16.439C11.0734 16.4892 10.9883 16.5199 10.8997 16.528C10.8111 16.5362 10.7219 16.5216 10.6405 16.4857C10.5591 16.4497 10.4882 16.3936 10.4345 16.3226C10.3809 16.2516 10.3462 16.1681 10.3338 16.08L9.51583 10.141C9.50674 10.079 9.47571 10.0223 9.42837 9.98119C9.38103 9.94009 9.32053 9.91733 9.25783 9.91703H8.60083C8.39814 9.90978 8.20617 9.82417 8.06534 9.67821C7.92451 9.53226 7.84581 9.33735 7.84581 9.13453C7.84581 8.93171 7.92451 8.7368 8.06534 8.59085C8.20617 8.44489 8.39814 8.35928 8.60083 8.35203H9.26183C9.70027 8.35477 10.1232 8.51441 10.4541 8.80203C10.7851 9.08965 11.002 9.48625 11.0658 9.92003L11.2598 11.278C11.2726 11.3667 11.308 11.4506 11.3625 11.5216C11.417 11.5927 11.4889 11.6486 11.5712 11.6839C11.6535 11.7192 11.7435 11.7328 11.8325 11.7234C11.9216 11.714 12.0068 11.6818 12.0798 11.63C12.4393 11.3811 12.7413 11.0581 12.9655 10.6828C13.1897 10.3075 13.331 9.8885 13.3798 9.45403C13.4251 9.01781 13.3782 8.57696 13.2422 8.16003C13.1062 7.74309 12.8841 7.35938 12.5903 7.03375C12.2966 6.70812 11.9377 6.44784 11.5369 6.26976C11.1361 6.09169 10.7024 5.99979 10.2638 6.00003H8.35283C7.48368 5.99644 6.64199 6.30432 5.98029 6.86788C5.31858 7.43144 4.88065 8.21339 4.74583 9.07203C4.23267 12.5479 3.98362 16.0576 4.00083 19.571C4.00083 23.185 9.61083 26.356 16.0008 26.356C23.7518 26.356 27.6728 23.845 27.9848 18.682C28.1063 17.1628 27.6421 15.6547 26.6874 14.4668C25.7326 13.2788 24.3596 12.5011 22.8498 12.293Z" fill="#51247A"/>
</svg>
