<svg width="32" height="32" viewBox="0 0 32 32" fill="none" xmlns="http://www.w3.org/2000/svg">
<path d="M28.252 14.7319C28.0972 14.5771 27.9225 14.4436 27.7325 14.3349C27.7154 13.8563 27.618 13.3839 27.4444 12.9375C27.1878 12.2784 26.7703 11.6941 26.23 11.2378C25.6897 10.7815 25.0437 10.4677 24.351 10.325C24.4469 10.0604 24.4973 9.78145 24.5 9.50001V7.00001C24.5 6.6717 24.4354 6.3466 24.3098 6.04327C24.1841 5.73994 24 5.46434 23.7678 5.23218C23.5357 5.00003 23.2601 4.81589 22.9567 4.69026C22.6534 4.56463 22.3283 4.49998 22 4.50001H15.9365C15.9047 4.37473 15.8602 4.25301 15.8037 4.13673C15.6749 3.86664 15.4869 3.62899 15.2538 3.44135C15.0207 3.25371 14.7484 3.12089 14.457 3.05273C14.1645 2.98428 13.8603 2.98245 13.5669 3.04736L4.56445 5.04786C4.12066 5.14705 3.7239 5.39445 3.43952 5.74929C3.15515 6.10414 3.00013 6.54527 3 7.00001V26C3.00038 26.455 3.1558 26.8964 3.44063 27.2512C3.72547 27.6061 4.12271 27.8533 4.56689 27.9522L13.5977 29.959C14.0366 30.0479 14.4927 29.9873 14.8933 29.787C15.2939 29.5867 15.6159 29.2581 15.8081 28.8535C15.8621 28.739 15.9052 28.6197 15.937 28.4971H22C22.3284 28.4981 22.6538 28.4339 22.9573 28.3082C23.2607 28.1825 23.5361 27.9977 23.7676 27.7647C24.2352 27.295 24.4984 26.6598 24.5 25.9971V23.9912C24.4994 23.8263 24.4827 23.6617 24.4501 23.5H26.4844C27.1474 23.4998 27.7831 23.2364 28.252 22.7676C28.7208 22.2988 28.9842 21.663 28.9844 21V16.4995C28.9853 16.1711 28.9211 15.8457 28.7954 15.5423C28.6696 15.2389 28.485 14.9635 28.252 14.7319Z" fill="white"/>
<path d="M22 22.9998C21.7348 22.9998 21.4804 23.1052 21.2929 23.2927C21.1054 23.4802 21 23.7346 21 23.9998V24.4998C21 24.5655 20.9871 24.6305 20.962 24.6912C20.9369 24.7518 20.9 24.807 20.8536 24.8534C20.8072 24.8998 20.752 24.9367 20.6914 24.9618C20.6307 24.9869 20.5657 24.9998 20.5 24.9998H15C14.9343 24.9998 14.8693 24.9869 14.8086 24.9618C14.748 24.9367 14.6928 24.8998 14.6464 24.8534C14.6 24.807 14.5631 24.7518 14.538 24.6912C14.5129 24.6305 14.5 24.5655 14.5 24.4998V8.4998C14.5 8.43414 14.5129 8.36912 14.538 8.30845C14.5632 8.24778 14.6 8.19266 14.6464 8.14623C14.6929 8.0998 14.748 8.06297 14.8086 8.03784C14.8693 8.01272 14.9343 7.99979 15 7.9998H20.5C20.5657 7.99979 20.6307 8.01272 20.6914 8.03784C20.752 8.06297 20.8071 8.0998 20.8536 8.14623C20.9 8.19266 20.9368 8.24778 20.962 8.30845C20.9871 8.36912 21 8.43414 21 8.4998V9.4998C21 9.76502 21.1054 10.0194 21.2929 10.2069C21.4804 10.3944 21.7348 10.4998 22 10.4998C22.2652 10.4998 22.5196 10.3944 22.7071 10.2069C22.8946 10.0194 23 9.76502 23 9.4998V6.9998C23 6.73459 22.8946 6.48023 22.7071 6.2927C22.5196 6.10516 22.2652 5.9998 22 5.9998H14.5V4.9998C14.5 4.92499 14.4832 4.85113 14.4508 4.78368C14.4184 4.71623 14.3713 4.6569 14.313 4.61007C14.2546 4.56324 14.1865 4.5301 14.1137 4.51309C14.0408 4.49608 13.9651 4.49564 13.892 4.5118L4.892 6.5118C4.78088 6.53639 4.68146 6.59814 4.61019 6.68687C4.53892 6.7756 4.50004 6.88599 4.5 6.9998V25.9998C4.50006 26.1136 4.53893 26.224 4.61021 26.3127C4.68148 26.4014 4.78088 26.4632 4.892 26.4878L13.892 28.4878C13.9652 28.503 14.0409 28.5019 14.1136 28.4846C14.1864 28.4673 14.2544 28.4343 14.313 28.3878C14.3715 28.3408 14.4187 28.2813 14.4511 28.2136C14.4835 28.1459 14.5002 28.0718 14.5 27.9968V26.9968H22C22.2652 26.9968 22.5196 26.8914 22.7071 26.7039C22.8946 26.5164 23 26.262 23 25.9968V23.9968C22.9992 23.7321 22.8935 23.4785 22.706 23.2916C22.5186 23.1047 22.2647 22.9998 22 22.9998ZM12 16.9998C12 17.3468 11.8796 17.683 11.6595 17.9513C11.4393 18.2195 11.133 18.4031 10.7926 18.4707C10.4523 18.5384 10.099 18.486 9.79304 18.3224C9.48702 18.1588 9.2472 17.8942 9.11442 17.5736C8.98165 17.253 8.96414 16.8963 9.06488 16.5642C9.16562 16.2322 9.37837 15.9453 9.66689 15.7526C9.95541 15.5598 10.3018 15.473 10.6472 15.507C10.9925 15.541 11.3153 15.6937 11.5607 15.9391C11.842 16.2204 12 16.602 12 16.9998Z" fill="#2EA836"/>
<path d="M26.484 15.4996H26.234V14.5586C26.2439 14.1912 26.1801 13.8256 26.0464 13.4832C25.9126 13.1409 25.7116 12.8289 25.4553 12.5655C25.199 12.3022 24.8925 12.0929 24.5539 11.95C24.2153 11.807 23.8515 11.7334 23.484 11.7334C23.1165 11.7334 22.7527 11.807 22.4141 11.95C22.0756 12.0929 21.7691 12.3022 21.5127 12.5655C21.2564 12.8289 21.0554 13.1409 20.9216 13.4832C20.7879 13.8256 20.7241 14.1912 20.734 14.5586V15.4996H20.484C20.2188 15.4996 19.9644 15.6049 19.7769 15.7925C19.5894 15.98 19.484 16.2344 19.484 16.4996V20.9996C19.484 21.2648 19.5894 21.5191 19.7769 21.7067C19.9644 21.8942 20.2188 21.9996 20.484 21.9996H26.484C26.7492 21.9996 27.0036 21.8942 27.1911 21.7067C27.3787 21.5191 27.484 21.2648 27.484 20.9996V16.4996C27.484 16.2344 27.3787 15.98 27.1911 15.7925C27.0036 15.6049 26.7492 15.4996 26.484 15.4996ZM22.234 14.5586C22.2273 14.3902 22.2546 14.2222 22.3144 14.0647C22.3742 13.9072 22.4652 13.7633 22.5819 13.6418C22.6986 13.5203 22.8387 13.4237 22.9937 13.3576C23.1488 13.2916 23.3155 13.2576 23.484 13.2576C23.6525 13.2576 23.8193 13.2916 23.9743 13.3576C24.1293 13.4237 24.2694 13.5203 24.3861 13.6418C24.5028 13.7633 24.5938 13.9072 24.6536 14.0647C24.7134 14.2222 24.7407 14.3902 24.734 14.5586V15.4996H22.234V14.5586ZM23.484 19.2496C23.2527 19.2496 23.0285 19.1694 22.8496 19.0226C22.6708 18.8758 22.5484 18.6716 22.5032 18.4447C22.4581 18.2178 22.493 17.9822 22.6021 17.7782C22.7111 17.5741 22.8876 17.4142 23.1013 17.3257C23.315 17.2372 23.5529 17.2255 23.7743 17.2926C23.9957 17.3598 24.1869 17.5016 24.3155 17.694C24.444 17.8864 24.5019 18.1173 24.4792 18.3476C24.4565 18.5778 24.3547 18.7931 24.1911 18.9567C24.0036 19.1442 23.7492 19.2496 23.484 19.2496Z" fill="#E62645"/>
</svg>
