<svg width="32" height="32" viewBox="0 0 32 32" fill="none" xmlns="http://www.w3.org/2000/svg">
<path d="M28.0005 11C28.0005 10.7348 27.8951 10.4804 27.7076 10.2929C27.5201 10.1054 27.2657 10 27.0005 10H20.5005C20.1027 10 19.7211 10.158 19.4398 10.4393C19.1585 10.7206 19.0005 11.1022 19.0005 11.5V13.5C19.0005 13.6326 18.9478 13.7598 18.854 13.8536C18.7603 13.9473 18.6331 14 18.5005 14H16.5005C16.1027 14 15.7211 14.158 15.4398 14.4393C15.1585 14.7206 15.0005 15.1022 15.0005 15.5V17.5C15.0005 17.6326 14.9478 17.7598 14.854 17.8536C14.7603 17.9473 14.6331 18 14.5005 18H12.5005C12.1027 18 11.7211 18.158 11.4398 18.4393C11.1585 18.7206 11.0005 19.1022 11.0005 19.5V21.5C11.0005 21.6326 10.9478 21.7598 10.854 21.8536C10.7603 21.9473 10.6331 22 10.5005 22H8.50049C8.10266 22 7.72113 22.158 7.43983 22.4393C7.15852 22.7206 7.00049 23.1022 7.00049 23.5V27C7.00049 27.2652 7.10585 27.5196 7.29338 27.7071C7.48092 27.8946 7.73527 28 8.00049 28H27.0005C27.2657 28 27.5201 27.8946 27.7076 27.7071C27.8951 27.5196 28.0005 27.2652 28.0005 27V11Z" fill="#2EA836"/>
<path d="M15.9005 9.854C15.9706 9.92275 16.0594 9.96932 16.1559 9.9879C16.2523 10.0065 16.3521 9.99626 16.4427 9.95851C16.5334 9.92075 16.6109 9.85714 16.6656 9.7756C16.7204 9.69406 16.7499 9.5982 16.7505 9.5V4.5C16.7505 4.36739 16.6978 4.24021 16.604 4.14645C16.5103 4.05268 16.3831 4 16.2505 4H11.2505C11.1518 4.00061 11.0555 4.03041 10.9737 4.08564C10.892 4.14087 10.8283 4.21907 10.7909 4.31038C10.7535 4.40169 10.7439 4.50203 10.7634 4.59877C10.7829 4.69551 10.8306 4.78431 10.9005 4.854L11.9825 5.939C12.029 5.98545 12.066 6.04062 12.0912 6.10137C12.1164 6.16211 12.1294 6.22723 12.1294 6.293C12.1294 6.35877 12.1164 6.42389 12.0912 6.48463C12.066 6.54538 12.029 6.60055 11.9825 6.647L4.43948 14.189C4.15809 14.4704 4 14.852 4 15.25C4 15.648 4.15809 16.0296 4.43948 16.311C4.72088 16.5924 5.10253 16.7505 5.50048 16.7505C5.89843 16.7505 6.28009 16.5924 6.56148 16.311L14.1005 8.768C14.1469 8.72144 14.2021 8.68449 14.2628 8.65929C14.3236 8.63408 14.3887 8.62111 14.4545 8.62111C14.5202 8.62111 14.5854 8.63408 14.6461 8.65929C14.7069 8.68449 14.762 8.72144 14.8085 8.768L15.9005 9.854Z" fill="#2EA836"/>
</svg>
