<svg width="32" height="32" viewBox="0 0 32 32" fill="none" xmlns="http://www.w3.org/2000/svg">
<path d="M14.75 6.5H17.25C17.3826 6.5 17.5098 6.44732 17.6036 6.35355C17.6973 6.25979 17.75 6.13261 17.75 6V5C17.75 4.73478 17.6446 4.48043 17.4571 4.29289C17.2696 4.10536 17.0152 4 16.75 4H15.25C14.9848 4 14.7304 4.10536 14.5429 4.29289C14.3554 4.48043 14.25 4.73478 14.25 5V6C14.25 6.13261 14.3027 6.25979 14.3964 6.35355C14.4902 6.44732 14.6174 6.5 14.75 6.5Z" fill="white"/>
<path d="M27 26C26.9337 26 26.8701 25.9737 26.8232 25.9268C26.7763 25.8799 26.75 25.8163 26.75 25.75V17.75C26.75 17.4848 26.6446 17.2304 26.4571 17.0429C26.2696 16.8554 26.0152 16.75 25.75 16.75H24.25V16C24.25 15.8011 24.171 15.6103 24.0303 15.4697C23.8897 15.329 23.6989 15.25 23.5 15.25C23.3011 15.25 23.1103 15.329 22.9697 15.4697C22.829 15.6103 22.75 15.8011 22.75 16V16.75C22.4848 16.75 22.2304 16.8554 22.0429 17.0429C21.8554 17.2304 21.75 17.4848 21.75 17.75V25.5C21.75 25.6326 21.6973 25.7598 21.6036 25.8536C21.5098 25.9473 21.3826 26 21.25 26H20.75C20.6174 26 20.4902 25.9473 20.3964 25.8536C20.3027 25.7598 20.25 25.6326 20.25 25.5V9C20.25 8.73478 20.1446 8.48043 19.9571 8.29289C19.7696 8.10536 19.5152 8 19.25 8H12.75C12.4848 8 12.2304 8.10536 12.0429 8.29289C11.8554 8.48043 11.75 8.73478 11.75 9V25.5C11.75 25.6326 11.6973 25.7598 11.6036 25.8536C11.5098 25.9473 11.3826 26 11.25 26H10.75C10.6174 26 10.4902 25.9473 10.3964 25.8536C10.3027 25.7598 10.25 25.6326 10.25 25.5V17.75C10.25 17.4848 10.1446 17.2304 9.95711 17.0429C9.76957 16.8554 9.51522 16.75 9.25 16.75V16C9.25 15.8011 9.17098 15.6103 9.03033 15.4697C8.88968 15.329 8.69891 15.25 8.5 15.25C8.30109 15.25 8.11032 15.329 7.96967 15.4697C7.82902 15.6103 7.75 15.8011 7.75 16V16.75H6.25C5.98478 16.75 5.73043 16.8554 5.54289 17.0429C5.35536 17.2304 5.25 17.4848 5.25 17.75V25.75C5.25 25.8163 5.22366 25.8799 5.17678 25.9268C5.12989 25.9737 5.0663 26 5 26C4.73478 26 4.48043 26.1054 4.29289 26.2929C4.10536 26.4804 4 26.7348 4 27C4 27.2652 4.10536 27.5196 4.29289 27.7071C4.48043 27.8946 4.73478 28 5 28H27C27.2652 28 27.5196 27.8946 27.7071 27.7071C27.8946 27.5196 28 27.2652 28 27C28 26.7348 27.8946 26.4804 27.7071 26.2929C27.5196 26.1054 27.2652 26 27 26ZM14 10.5H18C18.1989 10.5 18.3897 10.579 18.5303 10.7197C18.671 10.8603 18.75 11.0511 18.75 11.25C18.75 11.4489 18.671 11.6397 18.5303 11.7803C18.3897 11.921 18.1989 12 18 12H14C13.8011 12 13.6103 11.921 13.4697 11.7803C13.329 11.6397 13.25 11.4489 13.25 11.25C13.25 11.0511 13.329 10.8603 13.4697 10.7197C13.6103 10.579 13.8011 10.5 14 10.5ZM14 14.5H18C18.1989 14.5 18.3897 14.579 18.5303 14.7197C18.671 14.8603 18.75 15.0511 18.75 15.25C18.75 15.4489 18.671 15.6397 18.5303 15.7803C18.3897 15.921 18.1989 16 18 16H14C13.8011 16 13.6103 15.921 13.4697 15.7803C13.329 15.6397 13.25 15.4489 13.25 15.25C13.25 15.0511 13.329 14.8603 13.4697 14.7197C13.6103 14.579 13.8011 14.5 14 14.5ZM14 18.5H18C18.1989 18.5 18.3897 18.579 18.5303 18.7197C18.671 18.8603 18.75 19.0511 18.75 19.25C18.75 19.4489 18.671 19.6397 18.5303 19.7803C18.3897 19.921 18.1989 20 18 20H14C13.8011 20 13.6103 19.921 13.4697 19.7803C13.329 19.6397 13.25 19.4489 13.25 19.25C13.25 19.0511 13.329 18.8603 13.4697 18.7197C13.6103 18.579 13.8011 18.5 14 18.5ZM18.25 24H13.75C13.5511 24 13.3603 23.921 13.2197 23.7803C13.079 23.6397 13 23.4489 13 23.25C13 23.0511 13.079 22.8603 13.2197 22.7197C13.3603 22.579 13.5511 22.5 13.75 22.5H18.25C18.4489 22.5 18.6397 22.579 18.7803 22.7197C18.921 22.8603 19 23.0511 19 23.25C19 23.4489 18.921 23.6397 18.7803 23.7803C18.6397 23.921 18.4489 24 18.25 24Z" fill="white"/>
</svg>
