<svg width="32" height="32" viewBox="0 0 32 32" fill="none" xmlns="http://www.w3.org/2000/svg">
<path d="M9.79321 27.909C10.7025 28.0904 11.645 27.9993 12.5027 27.6472C13.3604 27.295 14.095 26.6974 14.6144 25.9294C14.7048 25.8003 14.7581 25.6489 14.7686 25.4917C14.7791 25.3345 14.7464 25.1773 14.6741 25.0373C14.6017 24.8974 14.4924 24.7798 14.358 24.6975C14.2236 24.6152 14.0693 24.5712 13.9117 24.5703C13.7764 24.5672 13.6424 24.5976 13.5217 24.6589C13.401 24.7202 13.2974 24.8105 13.2202 24.9216C12.9616 25.3199 12.612 25.6509 12.2002 25.8873C11.7883 26.1237 11.3262 26.2587 10.8518 26.2811C10.3775 26.3034 9.90469 26.2126 9.47244 26.016C9.04019 25.8194 8.66094 25.5228 8.36605 25.1506C8.07116 24.7784 7.8691 24.3414 7.77658 23.8757C7.68406 23.4099 7.70374 22.9288 7.83398 22.4722C7.96422 22.0156 8.2013 21.5965 8.52559 21.2496C8.84989 20.9028 9.25209 20.6381 9.69895 20.4775C9.87014 20.4193 10.0191 20.3094 10.1251 20.1629C10.2312 20.0165 10.2892 19.8407 10.2911 19.6599C10.2904 19.5203 10.2561 19.3829 10.191 19.2594C10.1259 19.1359 10.0319 19.0299 9.91715 18.9504C9.80234 18.8709 9.67006 18.8203 9.53153 18.8028C9.39299 18.7854 9.25229 18.8016 9.12136 18.8501C8.15139 19.1982 7.32222 19.8545 6.76081 20.7187C6.1994 21.5829 5.93669 22.6073 6.01291 23.635C6.08913 24.6627 6.50008 25.6371 7.18283 26.409C7.86558 27.1809 8.7825 27.7078 9.79321 27.909Z" fill="#51247A"/>
<path d="M10.7196 10.4272C10.7196 10.9954 10.9453 11.5403 11.3471 11.9421C11.7488 12.3438 12.2938 12.5696 12.862 12.5696C13.4302 12.5696 13.9751 12.3438 14.3768 11.9421C14.7786 11.5403 15.0043 10.9954 15.0043 10.4272C15.0043 9.85898 14.7786 9.31405 14.3768 8.91228C13.9751 8.5105 13.4302 8.28479 12.862 8.28479C12.2938 8.28479 11.7488 8.5105 11.3471 8.91228C10.9453 9.31405 10.7196 9.85898 10.7196 10.4272Z" fill="#51247A"/>
<path d="M11.5765 21.996C11.5765 22.3369 11.712 22.6639 11.953 22.905C12.1941 23.146 12.521 23.2815 12.862 23.2815H16.7182C16.7909 23.2815 16.8624 23.2999 16.926 23.3352C16.9895 23.3704 17.0431 23.4212 17.0816 23.4828L19.0526 26.5336C19.1686 26.7177 19.3295 26.8693 19.5202 26.9742C19.7108 27.0791 19.925 27.1339 20.1426 27.1335C20.3727 27.1338 20.5986 27.0724 20.7968 26.9556C20.995 26.8389 21.1583 26.6711 21.2695 26.4698C21.3808 26.2684 21.436 26.0409 21.4294 25.811C21.4227 25.581 21.3545 25.3571 21.2318 25.1625L19.2608 22.1117C18.9915 21.6809 18.6165 21.3261 18.1715 21.0809C17.7266 20.8357 17.2263 20.7082 16.7182 20.7106H14.5759C14.4622 20.7106 14.3532 20.6655 14.2729 20.5851C14.1925 20.5048 14.1474 20.3958 14.1474 20.2821V19.2109C14.1474 19.1541 14.17 19.0996 14.2101 19.0594C14.2503 19.0193 14.3048 18.9967 14.3616 18.9967H17.1467C17.4876 18.9967 17.8146 18.8613 18.0557 18.6202C18.2967 18.3791 18.4321 18.0522 18.4321 17.7113C18.4321 17.3704 18.2967 17.0434 18.0557 16.8023C17.8146 16.5613 17.4876 16.4258 17.1467 16.4258H14.3616C14.3048 16.4258 14.2503 16.4033 14.2101 16.3631C14.17 16.3229 14.1474 16.2684 14.1474 16.2116V15.1404C14.1474 14.7995 14.012 14.4725 13.7709 14.2315C13.5298 13.9904 13.2029 13.855 12.862 13.855C12.521 13.855 12.1941 13.9904 11.953 14.2315C11.712 14.4725 11.5765 14.7995 11.5765 15.1404V21.996Z" fill="#51247A"/>
<path d="M20.2808 7.1633C20.1728 7.05616 20.0915 6.92514 20.0434 6.7808C19.9953 6.63647 19.9819 6.48286 20.0041 6.33236C20.0263 6.18186 20.0835 6.03868 20.1712 5.91437C20.2589 5.79007 20.3746 5.68811 20.509 5.61672C21.0591 5.34257 21.6929 5.28807 22.2817 5.4643L23.7914 4.22354C23.8898 4.14193 24.0034 4.08056 24.1256 4.04295C24.2478 4.00534 24.3762 3.99224 24.5035 4.0044C24.6307 4.01655 24.7543 4.05373 24.8672 4.11378C24.9801 4.17384 25.08 4.25559 25.1612 4.35436C25.2423 4.45312 25.3032 4.56695 25.3403 4.6893C25.3774 4.81166 25.3899 4.94013 25.3772 5.06734C25.3645 5.19456 25.3268 5.31801 25.2663 5.43062C25.2057 5.54322 25.1235 5.64276 25.0244 5.72351L23.7807 6.74486C23.9397 7.0772 24.0209 7.44136 24.0182 7.80974C24.0155 8.17812 23.929 8.54105 23.7652 8.87103C23.6939 9.00562 23.592 9.12155 23.4677 9.20946C23.3433 9.29737 23.2 9.3548 23.0494 9.37711C22.8988 9.39941 22.745 9.38596 22.6005 9.33785C22.456 9.28974 22.3249 9.20832 22.2177 9.10016L20.2808 7.1633Z" fill="#51247A"/>
<path d="M17.3001 11.0805C17.4358 10.9447 17.6088 10.8522 17.7971 10.8147C17.9855 10.7772 18.1807 10.7964 18.3581 10.8699C18.5355 10.9434 18.6872 11.0678 18.7939 11.2275C18.9006 11.3871 18.9575 11.5748 18.9575 11.7669C18.9575 11.9589 18.9006 12.1466 18.7939 12.3063C18.6872 12.466 18.5355 12.5904 18.3581 12.6639C18.1807 12.7373 17.9855 12.7565 17.7971 12.7191C17.6088 12.6816 17.4358 12.5891 17.3001 12.4533C17.1181 12.2712 17.0158 12.0243 17.0158 11.7669C17.0158 11.5094 17.1181 11.2625 17.3001 11.0805Z" fill="#51247A"/>
<path d="M19.7029 14.8562C19.5671 14.7204 19.4746 14.5474 19.4371 14.3591C19.3996 14.1708 19.4189 13.9755 19.4923 13.7981C19.5658 13.6207 19.6902 13.4691 19.8499 13.3624C20.0096 13.2557 20.1973 13.1987 20.3893 13.1987C20.5813 13.1987 20.7691 13.2557 20.9287 13.3624C21.0884 13.4691 21.2128 13.6207 21.2863 13.7981C21.3598 13.9755 21.379 14.1708 21.3415 14.3591C21.304 14.5474 21.2115 14.7204 21.0757 14.8562C20.8936 15.0382 20.6467 15.1404 20.3893 15.1404C20.1319 15.1404 19.885 15.0382 19.7029 14.8562Z" fill="#51247A"/>
<path d="M21.4187 10.3448C21.5545 10.2091 21.7275 10.1167 21.9158 10.0794C22.1041 10.042 22.2992 10.0613 22.4766 10.1348C22.6539 10.2083 22.8055 10.3327 22.9121 10.4924C23.0187 10.652 23.0756 10.8397 23.0756 11.0316C23.0756 11.2236 23.0187 11.4113 22.9121 11.5709C22.8055 11.7305 22.6539 11.855 22.4766 11.9285C22.2992 12.002 22.1041 12.0213 21.9158 11.9839C21.7275 11.9466 21.5545 11.8542 21.4187 11.7185C21.3284 11.6284 21.2568 11.5213 21.2079 11.4034C21.1591 11.2856 21.1339 11.1592 21.1339 11.0316C21.1339 10.9041 21.1591 10.7777 21.2079 10.6599C21.2568 10.542 21.3284 10.4349 21.4187 10.3448Z" fill="#51247A"/>
<path d="M20.7322 9.65835C20.5965 9.79416 20.4235 9.88665 20.2352 9.92414C20.0468 9.96162 19.8516 9.94241 19.6742 9.86894C19.4968 9.79547 19.3451 9.67103 19.2384 9.51137C19.1317 9.3517 19.0748 9.16399 19.0748 8.97196C19.0748 8.77993 19.1317 8.59221 19.2384 8.43255C19.3451 8.27288 19.4968 8.14845 19.6742 8.07497C19.8516 8.0015 20.0468 7.98229 20.2352 8.01978C20.4235 8.05726 20.5965 8.14975 20.7322 8.28556C20.9142 8.46762 21.0165 8.71452 21.0165 8.97196C21.0165 9.22939 20.9142 9.47629 20.7322 9.65835Z" fill="#51247A"/>
<path d="M17.3003 7.59923C17.1645 7.46347 17.072 7.29048 17.0345 7.10214C16.997 6.91381 17.0162 6.71858 17.0897 6.54117C17.1632 6.36375 17.2876 6.2121 17.4473 6.10541C17.6069 5.99872 17.7946 5.94177 17.9867 5.94177C18.1787 5.94177 18.3664 5.99872 18.5261 6.10541C18.6857 6.2121 18.8102 6.36375 18.8836 6.54117C18.9571 6.71858 18.9763 6.91381 18.9388 7.10214C18.9014 7.29048 18.8089 7.46347 18.6731 7.59923C18.491 7.78124 18.2441 7.88349 17.9867 7.88349C17.7292 7.88349 17.4823 7.78124 17.3003 7.59923Z" fill="#51247A"/>
</svg>
