<svg width="32" height="32" viewBox="0 0 32 32" fill="none" xmlns="http://www.w3.org/2000/svg">
<path d="M26.73 23.4559H25.4666C25.3996 23.4559 25.3353 23.4826 25.2879 23.5299C25.2405 23.5773 25.2139 23.6416 25.2139 23.7086V26.2353C25.2139 26.3024 25.2405 26.3666 25.2879 26.414C25.3353 26.4614 25.3996 26.488 25.4666 26.488H26.73C27.1321 26.488 27.5177 26.3283 27.802 26.044C28.0863 25.7597 28.246 25.3741 28.246 24.972C28.246 24.5699 28.0863 24.1843 27.802 23.9C27.5177 23.6157 27.1321 23.4559 26.73 23.4559Z" fill="#51247A"/>
<path d="M23.6979 23.4559V23.4448C23.696 23.0439 23.5355 22.6601 23.2514 22.3774C22.9672 22.0946 22.5827 21.9358 22.1818 21.9358H21.4238V19.6658C21.4238 19.5988 21.3972 19.5345 21.3498 19.4871C21.3024 19.4397 21.2382 19.4131 21.1711 19.4131H19.1498C19.0827 19.4131 19.0185 19.4397 18.9711 19.4871C18.9237 19.5345 18.8971 19.5988 18.8971 19.6658V21.6872C18.8971 21.7542 18.8705 21.8185 18.8231 21.8659C18.7757 21.9132 18.7114 21.9399 18.6444 21.9399H10.5588C10.4918 21.9399 10.4276 21.9132 10.3802 21.8659C10.3328 21.8185 10.3062 21.7542 10.3062 21.6872V10.8222C10.3062 9.68297 10.7587 8.59041 11.5643 7.78485C12.3698 6.9793 13.4624 6.52674 14.6016 6.52674C15.7408 6.52674 16.8334 6.9793 17.639 7.78485C18.4445 8.59041 18.8971 9.68297 18.8971 10.8222V17.6444C18.8971 17.7114 18.9237 17.7757 18.9711 17.8231C19.0185 17.8705 19.0827 17.8971 19.1498 17.8971H21.1711C21.2382 17.8971 21.3024 17.8705 21.3498 17.8231C21.3972 17.7757 21.4238 17.7114 21.4238 17.6444V10.8222C21.4238 9.01284 20.7051 7.27759 19.4256 5.99818C18.1462 4.71877 16.411 4 14.6016 4C12.7923 4 11.057 4.71877 9.7776 5.99818C8.49818 7.27759 7.77942 9.01284 7.77942 10.8222V21.9399H6.50897C6.10759 21.9417 5.72334 22.1027 5.44047 22.3875C5.1576 22.6722 4.9992 23.0576 5 23.4589L5.0182 26.491C5.02007 26.8919 5.18062 27.2757 5.46473 27.5585C5.74884 27.8412 6.13338 28 6.53424 28H22.2071C22.4055 27.9999 22.6018 27.9599 22.7845 27.8825C22.9671 27.805 23.1323 27.6917 23.2704 27.5492C23.5469 27.2655 23.7005 26.8842 23.6979 26.488V23.4559Z" fill="#51247A"/>
</svg>
