<svg width="32" height="32" viewBox="0 0 32 32" fill="none" xmlns="http://www.w3.org/2000/svg">
<path d="M25.5662 16.2698H20.4312C20.3341 16.2701 20.2392 16.2986 20.158 16.3518C20.0769 16.4051 20.013 16.4809 19.9742 16.5698L18.8152 19.1758C18.6982 19.439 18.508 19.663 18.2672 19.821C18.0264 19.979 17.7452 20.0644 17.4572 20.0668H17.4422C17.1568 20.0662 16.8776 19.9842 16.6373 19.8304C16.3969 19.6767 16.2054 19.4576 16.0852 19.1988L13.9852 14.7098C13.9662 14.6698 13.937 14.6354 13.9005 14.6103C13.864 14.5852 13.8215 14.5702 13.7773 14.5669C13.7331 14.5635 13.6888 14.5719 13.6489 14.5912C13.609 14.6106 13.5749 14.6401 13.5502 14.6768L12.9322 15.6058C12.7951 15.8114 12.6094 15.98 12.3915 16.0965C12.1736 16.2131 11.9303 16.274 11.6832 16.2738H6.43417C6.3851 16.2739 6.33715 16.2885 6.29628 16.3156C6.25542 16.3428 6.22345 16.3814 6.20436 16.4266C6.18528 16.4718 6.17992 16.5216 6.18895 16.5699C6.19799 16.6181 6.22102 16.6626 6.25517 16.6978L15.2552 25.9608C15.3527 26.0611 15.4693 26.1408 15.5981 26.1952C15.7269 26.2497 15.8653 26.2777 16.0052 26.2777C16.145 26.2777 16.2834 26.2497 16.4123 26.1952C16.5411 26.1408 16.6577 26.0611 16.7552 25.9608L25.7552 16.6978C25.7893 16.6626 25.8124 16.6181 25.8214 16.5699C25.8304 16.5216 25.8251 16.4718 25.806 16.4266C25.7869 16.3814 25.7549 16.3428 25.7141 16.3156C25.6732 16.2885 25.6252 16.2739 25.5762 16.2738L25.5662 16.2698Z" fill="white"/>
<path d="M27.3612 9.30285C26.9238 8.45368 26.2928 7.71924 25.5193 7.15882C24.7457 6.59841 23.8513 6.22772 22.9081 6.07666C21.9649 5.92561 20.9994 5.99844 20.0895 6.28926C19.1796 6.58008 18.3509 7.08075 17.6702 7.75085L16.3372 8.96585C16.2451 9.04989 16.1249 9.09648 16.0002 9.09648C15.8755 9.09648 15.7553 9.04989 15.6632 8.96585L14.3302 7.75085C13.6494 7.08075 12.8207 6.58008 11.9108 6.28926C11.001 5.99844 10.0355 5.92561 9.09228 6.07666C8.14908 6.22772 7.25462 6.59841 6.48107 7.15882C5.70753 7.71924 5.07659 8.45368 4.63917 9.30285C4.27782 10.0146 4.06465 10.7923 4.01257 11.5888C3.96049 12.3853 4.07058 13.1841 4.33617 13.9369C4.37033 14.0346 4.43399 14.1193 4.51836 14.1793C4.60273 14.2393 4.70364 14.2716 4.80717 14.2718H11.1532C11.2355 14.2718 11.3166 14.2514 11.3891 14.2125C11.4617 14.1736 11.5236 14.1174 11.5692 14.0488L12.6312 12.4548C12.7774 12.2319 12.9812 12.0525 13.2209 11.9356C13.4606 11.8188 13.7274 11.7687 13.9932 11.7908C14.2586 11.8109 14.5139 11.9012 14.7328 12.0525C14.9518 12.2039 15.1265 12.4107 15.2392 12.6519L17.2002 16.8588C17.2201 16.9025 17.2521 16.9395 17.2924 16.9655C17.3328 16.9914 17.3797 17.0052 17.4277 17.0052C17.4756 17.0052 17.5226 16.9914 17.5629 16.9655C17.6033 16.9395 17.6353 16.9025 17.6552 16.8588L18.4092 15.1588C18.5271 14.894 18.7192 14.6689 18.9624 14.511C19.2055 14.353 19.4892 14.2689 19.7792 14.2688H27.1902C27.2937 14.2689 27.3948 14.2368 27.4793 14.177C27.5639 14.1172 27.6278 14.0326 27.6622 13.9349C27.9278 13.1825 28.0381 12.3842 27.9863 11.588C27.9346 10.7919 27.7219 10.0145 27.3612 9.30285Z" fill="white"/>
</svg>
