<svg width="32" height="32" viewBox="0 0 32 32" fill="none" xmlns="http://www.w3.org/2000/svg">
<path fill-rule="evenodd" clip-rule="evenodd" d="M6.3927 29.9992C5.57561 29.9993 4.79181 29.6754 4.21308 29.0986C3.63435 28.5218 3.30791 27.7391 3.3053 26.922V17.9992C3.30336 17.2766 3.44477 16.5608 3.72135 15.8932C3.99794 15.2256 4.4042 14.6195 4.91662 14.11C4.95422 14.0724 4.99182 14.0353 5.03039 13.9992H5.00549L5.00256 12.4992V13.9992C4.49568 13.9999 4.00745 13.8081 3.63661 13.4626C3.26577 13.117 3.04001 12.6435 3.005 12.1378C2.98094 11.7995 3.04398 11.4606 3.18812 11.1535C3.57647 10.3086 4.19028 9.58715 4.96204 9.06848C4.51243 8.52824 4.22603 7.87109 4.13638 7.17397C4.04673 6.47685 4.15754 5.76862 4.45584 5.1322C4.75414 4.49578 5.22758 3.95751 5.82072 3.58042C6.41386 3.20334 7.10216 3.00304 7.80502 3.00298C8.50788 3.00292 9.19621 3.2031 9.78942 3.58008C10.3826 3.95707 10.8562 4.49525 11.1546 5.13162C11.453 5.76799 11.5639 6.4762 11.4744 7.17334C11.3848 7.87047 11.0986 8.52767 10.649 9.06799C11.2075 9.44371 11.6856 9.9269 12.0553 10.4894C12.4261 9.92663 12.9051 9.44329 13.4645 9.0675C13.0142 8.52747 12.7271 7.87028 12.637 7.17295C12.5469 6.47562 12.6573 5.76704 12.9555 5.13026C13.2537 4.49348 13.7272 3.95489 14.3205 3.57759C14.9139 3.2003 15.6024 2.99994 16.3056 3C17.0087 3.00006 17.6972 3.20054 18.2905 3.57793C18.8838 3.95533 19.3572 4.49401 19.6552 5.13084C19.9533 5.76767 20.0637 6.47627 19.9734 7.17358C19.8832 7.8709 19.596 8.52804 19.1456 9.06799C19.7046 9.44305 20.183 9.92596 20.5528 10.4884C20.9232 9.92512 21.4019 9.44112 21.9611 9.06457C21.5116 8.52434 21.2253 7.86725 21.1357 7.17022C21.0462 6.47318 21.1571 5.76506 21.4554 5.12876C21.7537 4.49246 22.2271 3.95432 22.8202 3.57734C23.4133 3.20036 24.1015 3.00015 24.8043 3.00015C25.5071 3.00015 26.1953 3.20036 26.7884 3.57734C27.3815 3.95432 27.8549 4.49246 28.1532 5.12876C28.4516 5.76506 28.5624 6.47318 28.4729 7.17022C28.3833 7.86725 28.0971 8.52434 27.6476 9.06457C28.4216 9.58526 29.0373 10.3092 29.4269 11.1568C29.6386 11.6169 29.6681 12.1402 29.5094 12.6212C29.3506 13.1021 29.0154 13.505 28.5714 13.7486C28.2794 13.9076 27.9527 13.9919 27.6202 13.9943H27.5753C27.6153 14.0323 27.6554 14.0709 27.6945 14.11C28.2068 14.6196 28.613 15.2257 28.8895 15.8932C29.1661 16.5608 29.3076 17.2766 29.3058 17.9992V26.8771C29.3046 27.2903 29.2216 27.6992 29.0616 28.0802C28.7395 28.846 28.1266 29.4526 27.3575 29.7668C26.9835 29.9187 26.5836 29.997 26.1798 29.9972C23.6476 29.9923 21.7257 26.3537 20.9757 24.6818C20.8392 24.4719 20.6523 24.2994 20.4321 24.1802C20.2119 24.061 19.9654 23.9988 19.715 23.9992H12.8986C12.6464 24.0004 12.3985 24.0646 12.1774 24.1861C11.9564 24.3075 11.7692 24.4823 11.6329 24.6945C10.8737 26.3449 8.92693 29.965 6.44983 29.9992H6.3927Z" fill="white"/>
<path fill-rule="evenodd" clip-rule="evenodd" d="M22.6053 6.69802C22.6053 7.20677 22.7817 7.69979 23.1045 8.09306C23.4272 8.48633 23.8763 8.75553 24.3753 8.85479C24.8743 8.95405 25.3922 8.87723 25.8409 8.63741C26.2896 8.39759 26.6412 8.00962 26.8359 7.5396C27.0306 7.06958 27.0563 6.54659 26.9087 6.05975C26.761 5.5729 26.4491 5.15232 26.0261 4.86967C25.6031 4.58702 25.0951 4.45978 24.5888 4.50964C24.0825 4.55949 23.6092 4.78336 23.2494 5.1431C23.0452 5.34729 22.8833 5.5897 22.7727 5.8565C22.6622 6.1233 22.6053 6.40925 22.6053 6.69802ZM5.60639 6.70193C5.60639 7.21069 5.78279 7.7037 6.10554 8.09697C6.42828 8.49024 6.8774 8.75944 7.37638 8.8587C7.87535 8.95795 8.39331 8.88112 8.84199 8.6413C9.29067 8.40148 9.64231 8.0135 9.837 7.54348C10.0317 7.07345 10.0574 6.55046 9.90971 6.06362C9.76202 5.57677 9.45011 5.1562 9.02709 4.87355C8.60408 4.5909 8.09615 4.46367 7.58985 4.51354C7.08355 4.56341 6.6102 4.78728 6.25046 5.14702C5.83808 5.55941 5.6064 6.11873 5.60639 6.70193ZM23.8053 13.999H8.80533C7.74447 13.999 6.72705 14.4205 5.97691 15.1706C5.22676 15.9207 4.80533 16.9382 4.80533 17.999V26.918C4.80594 27.1291 4.84868 27.338 4.93105 27.5323C5.01342 27.7267 5.13376 27.9027 5.28502 28.0499C5.43627 28.1972 5.61541 28.3127 5.81191 28.3899C6.00842 28.467 6.21834 28.5041 6.42937 28.499C8.26937 28.474 10.3054 23.991 10.3054 23.991C10.5701 23.5379 10.9486 23.1619 11.4034 22.9001C11.8582 22.6384 12.3736 22.5002 12.8983 22.499H19.7153C20.2388 22.4986 20.7533 22.6351 21.2077 22.8951C21.6621 23.1551 22.0405 23.5295 22.3053 23.981C22.3053 23.981 24.3003 28.493 26.1653 28.497C26.3795 28.4987 26.5919 28.4582 26.7903 28.3776C26.9888 28.297 27.1694 28.1781 27.3217 28.0276C27.4741 27.8771 27.5953 27.698 27.6782 27.5005C27.7612 27.3031 27.8044 27.0912 27.8053 26.877V17.999C27.8053 17.4737 27.7019 16.9536 27.5009 16.4683C27.2999 15.983 27.0052 15.542 26.6338 15.1706C26.2623 14.7991 25.8214 14.5045 25.3361 14.3035C24.8508 14.1025 24.3306 13.999 23.8053 13.999ZM11.8053 19.499H11.0553C10.9227 19.499 10.7955 19.5517 10.7018 19.6455C10.608 19.7392 10.5553 19.8664 10.5553 19.999V20.749C10.5553 20.9479 10.4763 21.1387 10.3357 21.2794C10.195 21.42 10.0042 21.499 9.80533 21.499C9.60642 21.499 9.41566 21.42 9.275 21.2794C9.13435 21.1387 9.05533 20.9479 9.05533 20.749V19.999C9.05534 19.9334 9.04242 19.8683 9.01729 19.8077C8.99217 19.747 8.95534 19.6919 8.90891 19.6455C8.86248 19.599 8.80735 19.5622 8.74669 19.5371C8.68602 19.5119 8.621 19.499 8.55533 19.499H7.80533C7.60642 19.499 7.41566 19.42 7.275 19.2794C7.13435 19.1387 7.05533 18.9479 7.05533 18.749C7.05533 18.5501 7.13435 18.3593 7.275 18.2187C7.41566 18.078 7.60642 17.999 7.80533 17.999H8.55533C8.621 17.999 8.68602 17.9861 8.74669 17.961C8.80735 17.9359 8.86248 17.899 8.90891 17.8526C8.95534 17.8062 8.99217 17.751 9.01729 17.6904C9.04242 17.6297 9.05534 17.5647 9.05533 17.499V16.749C9.05533 16.5501 9.13435 16.3593 9.275 16.2187C9.41566 16.078 9.60642 15.999 9.80533 15.999C10.0042 15.999 10.195 16.078 10.3357 16.2187C10.4763 16.3593 10.5553 16.5501 10.5553 16.749V17.499C10.5553 17.6316 10.608 17.7588 10.7018 17.8526C10.7955 17.9463 10.9227 17.999 11.0553 17.999H11.8053C12.0042 17.999 12.195 18.078 12.3357 18.2187C12.4763 18.3593 12.5553 18.5501 12.5553 18.749C12.5553 18.9479 12.4763 19.1387 12.3357 19.2794C12.195 19.42 12.0042 19.499 11.8053 19.499ZM20.3053 19.499C20.074 19.499 19.8498 19.4188 19.6709 19.272C19.4921 19.1253 19.3697 18.921 19.3245 18.6941C19.2794 18.4672 19.3143 18.2317 19.4234 18.0276C19.5325 17.8236 19.7089 17.6637 19.9226 17.5751C20.1364 17.4866 20.3742 17.4749 20.5956 17.5421C20.817 17.6092 21.0082 17.7511 21.1368 17.9434C21.2653 18.1358 21.3232 18.3668 21.3005 18.597C21.2778 18.8273 21.176 19.0425 21.0124 19.2061C20.9196 19.299 20.8094 19.3727 20.688 19.4229C20.5667 19.4732 20.4367 19.499 20.3053 19.499ZM22.8053 21.499C22.574 21.499 22.3498 21.4188 22.1709 21.272C21.9921 21.1253 21.8697 20.921 21.8245 20.6941C21.7794 20.4672 21.8143 20.2317 21.9234 20.0276C22.0325 19.8236 22.2089 19.6637 22.4226 19.5751C22.6364 19.4866 22.8742 19.4749 23.0956 19.5421C23.317 19.6092 23.5082 19.7511 23.6368 19.9434C23.7653 20.1358 23.8232 20.3668 23.8005 20.597C23.7778 20.8273 23.676 21.0425 23.5124 21.2061C23.4196 21.299 23.3094 21.3727 23.188 21.4229C23.0667 21.4732 22.9367 21.499 22.8053 21.499ZM22.8053 17.499C22.574 17.499 22.3498 17.4188 22.1709 17.272C21.9921 17.1253 21.8697 16.921 21.8245 16.6941C21.7794 16.4672 21.8143 16.2317 21.9234 16.0276C22.0325 15.8236 22.2089 15.6637 22.4226 15.5752C22.6364 15.4866 22.8742 15.4749 23.0956 15.5421C23.317 15.6092 23.5082 15.7511 23.6368 15.9434C23.7653 16.1358 23.8232 16.3668 23.8005 16.597C23.7778 16.8273 23.676 17.0425 23.5124 17.2061C23.4196 17.299 23.3094 17.3727 23.188 17.4229C23.0667 17.4732 22.9367 17.499 22.8053 17.499ZM25.3053 19.499C25.074 19.499 24.8498 19.4188 24.6709 19.272C24.4921 19.1253 24.3697 18.921 24.3245 18.6941C24.2794 18.4672 24.3143 18.2317 24.4234 18.0276C24.5325 17.8236 24.7089 17.6637 24.9226 17.5751C25.1364 17.4866 25.3742 17.4749 25.5956 17.5421C25.817 17.6092 26.0082 17.7511 26.1368 17.9434C26.2653 18.1358 26.3232 18.3668 26.3005 18.597C26.2778 18.8273 26.176 19.0425 26.0124 19.2061C25.9196 19.299 25.8094 19.3727 25.688 19.4229C25.5667 19.4732 25.4367 19.499 25.3053 19.499ZM10.8523 12.4371C10.7788 12.4775 10.6963 12.4987 10.6124 12.4988H5.00543C4.92104 12.4997 4.8378 12.4792 4.76346 12.4393C4.68912 12.3993 4.62611 12.3412 4.58029 12.2703C4.53447 12.1994 4.50733 12.1181 4.50141 12.0339C4.4955 11.9497 4.51098 11.8654 4.54643 11.7888C4.83293 11.1652 5.29231 10.6369 5.87006 10.2665C6.44781 9.89612 7.11968 9.69925 7.80596 9.69925C8.49224 9.69925 9.16411 9.89612 9.74186 10.2665C10.3196 10.6369 10.779 11.1652 11.0655 11.7888C11.1186 11.9038 11.1262 12.0346 11.0866 12.155C11.0471 12.2753 10.9634 12.3761 10.8524 12.4371H10.8523ZM26.7404 10.2626C27.3181 10.6327 27.7776 11.1607 28.0644 11.784C28.0996 11.8602 28.1151 11.9439 28.1095 12.0276C28.1038 12.1113 28.0772 12.1922 28.0321 12.2629C27.987 12.3336 27.9248 12.3919 27.8513 12.4322C27.7778 12.4726 27.6953 12.4939 27.6114 12.494H21.9994C21.9155 12.4941 21.8328 12.473 21.7592 12.4326C21.6855 12.3923 21.6232 12.3341 21.578 12.2634C21.5327 12.1926 21.506 12.1116 21.5003 12.0279C21.4947 11.9441 21.5102 11.8602 21.5454 11.784C21.7599 11.318 22.0718 10.9033 22.4601 10.568C22.8484 10.2327 23.3042 9.98463 23.7965 9.84044C24.2889 9.69625 24.8064 9.65932 25.3143 9.73215C25.8221 9.80498 26.3084 9.98587 26.7404 10.2626ZM14.1064 6.69802C14.1065 7.20674 14.2829 7.69971 14.6056 8.09294C14.9284 8.48616 15.3775 8.75532 15.8764 8.85454C16.3754 8.95376 16.8933 8.87691 17.3419 8.63708C17.7906 8.39725 18.1422 8.00929 18.3368 7.53929C18.5315 7.06929 18.5572 6.54633 18.4095 6.05952C18.2618 5.57272 17.9499 5.15218 17.5269 4.86957C17.1039 4.58695 16.596 4.45974 16.0897 4.50962C15.5835 4.5595 15.1101 4.78337 14.7504 5.1431C14.5462 5.34729 14.3843 5.58971 14.2738 5.85651C14.1633 6.1233 14.1064 6.40925 14.1064 6.69802ZM19.1114 12.4989H13.4994C13.4155 12.499 13.3328 12.4779 13.2592 12.4375C13.1855 12.3972 13.1232 12.339 13.078 12.2683C13.0327 12.1975 13.006 12.1165 13.0003 12.0328C12.9947 11.949 13.0102 11.8651 13.0454 11.7889C13.3322 11.1656 13.7917 10.6377 14.3694 10.2675C14.9471 9.89744 15.6188 9.70073 16.3049 9.70073C16.991 9.70073 17.6627 9.89744 18.2405 10.2675C18.8182 10.6377 19.2776 11.1656 19.5644 11.7889C19.5996 11.8651 19.6151 11.9488 19.6095 12.0325C19.6038 12.1162 19.5772 12.1971 19.5321 12.2678C19.487 12.3385 19.4248 12.3968 19.3513 12.4371C19.2778 12.4775 19.1953 12.4988 19.1114 12.4989Z" fill="#962A8B"/>
</svg>
