<svg width="32" height="32" viewBox="0 0 32 32" fill="none" xmlns="http://www.w3.org/2000/svg">
<path d="M27.8184 16.225C28.2398 16.0281 28.5948 15.7129 28.8403 15.3179C29.0858 14.9229 29.2112 14.465 29.2012 14V12.0991C29.2445 11.7882 29.2197 11.4715 29.1284 11.1711C29.0371 10.8707 28.8815 10.5937 28.6725 10.3595C28.4634 10.1253 28.2059 9.93933 27.9177 9.8146C27.6296 9.68987 27.3178 9.62934 27.0039 9.63721C26.422 9.62656 25.8567 9.83128 25.4165 10.2121C24.9763 10.5928 24.6924 11.1228 24.6191 11.7002H23.3122C23.7573 11.2467 24.005 10.6355 24.001 10V6.5C23.9948 5.83886 23.7295 5.20653 23.262 4.73901C22.7944 4.27149 22.1621 4.00613 21.501 4H15.4717C15.4303 3.78575 15.3461 3.58207 15.2241 3.40117C15.1021 3.22027 14.9448 3.06588 14.7617 2.94727C14.4404 2.66476 14.0289 2.50616 13.6011 2.5H13.2363L4.15772 4.51758C3.72655 4.59504 3.33346 4.81392 3.04053 5.13965L2.60108 5.5791V5.92773C2.535 6.1113 2.50113 6.3049 2.50098 6.5V25.5C2.49278 25.7509 2.53618 26.0009 2.62849 26.2344C2.72079 26.4679 2.86003 26.6799 3.0376 26.8574C3.33097 27.1849 3.72542 27.4049 4.15821 27.4824L13.2363 29.5H13.6011C13.8878 29.501 14.1694 29.4248 14.4165 29.2793C14.6772 29.1722 14.9043 28.9969 15.0739 28.7718C15.2435 28.5467 15.3494 28.2801 15.3804 28H21.4014C22.0623 27.9932 22.6942 27.7276 23.1616 27.2603C23.629 26.7929 23.8946 26.1609 23.9014 25.5V22.5C23.9073 21.9687 23.7354 21.4507 23.4131 21.0283C23.3652 20.948 23.3111 20.8716 23.2512 20.7998H24.5195C24.6145 21.3902 24.9258 21.9241 25.3929 22.2975C25.86 22.6708 26.4494 22.8569 27.0462 22.8195C27.643 22.7821 28.2045 22.5238 28.6213 22.095C29.0381 21.6662 29.2803 21.0976 29.3008 20.5V18.5C29.3119 18.0156 29.1762 17.5391 28.9117 17.1331C28.6472 16.7271 28.2661 16.4105 27.8184 16.225Z" fill="white"/>
<path d="M21.501 21.5C21.2378 21.5064 20.9871 21.6138 20.801 21.8C20.6148 21.9862 20.5074 22.2368 20.501 22.5V24C20.501 24.1 20.401 24.3 20.401 24.4C20.301 24.5 20.201 24.5 20.001 24.5H14.501C14.401 24.5 14.201 24.4 14.101 24.4C14.001 24.3 14.001 24.2 14.001 24V8C14.001 7.9 14.101 7.7 14.101 7.6C14.201 7.5 14.301 7.5 14.501 7.5H20.001C20.101 7.5 20.301 7.6 20.401 7.6C20.501 7.7 20.501 7.8 20.501 8V10C20.5047 10.2628 20.6117 10.5135 20.7988 10.698C20.986 10.8825 21.2382 10.986 21.501 10.986C21.7638 10.986 22.016 10.8825 22.2031 10.698C22.3903 10.5135 22.4973 10.2628 22.501 10V6.5C22.5047 6.36856 22.4797 6.23788 22.4279 6.11702C22.3761 5.99616 22.2987 5.88799 22.201 5.8C22.113 5.70228 22.0048 5.62485 21.884 5.57305C21.7631 5.52125 21.6324 5.49633 21.501 5.5H14.001V4.3C14.001 4.2 13.901 4.2 13.801 4.1C13.7471 4.04564 13.6768 4.01051 13.601 4H13.401L4.40098 6C4.30098 6 4.20098 6.1 4.10098 6.2C4.10098 6.3 4.00098 6.4 4.00098 6.5V25.5C3.99426 25.5543 3.99975 25.6094 4.01705 25.6613C4.03435 25.7132 4.06303 25.7606 4.10098 25.8C4.20098 25.9 4.30098 26 4.40098 26L13.401 28H13.601C13.701 28 13.701 27.9 13.801 27.9C13.901 27.9 13.901 27.8 13.901 27.7V26.5H21.401C21.6642 26.4936 21.9148 26.3862 22.101 26.2C22.2871 26.0138 22.3946 25.7632 22.401 25.5V22.5C22.4047 22.3686 22.3797 22.2379 22.3279 22.117C22.2761 21.9962 22.1987 21.888 22.101 21.8C22.101 21.6 21.801 21.5 21.501 21.5ZM11.501 16.5C11.5089 16.7956 11.4013 17.0826 11.201 17.3C10.9896 17.5242 10.7549 17.7254 10.501 17.9C10.2442 17.9887 9.9717 18.0228 9.70098 18C9.40766 17.9284 9.13422 17.7917 8.90098 17.6C8.67234 17.3927 8.52963 17.1073 8.50098 16.8C8.4346 16.4972 8.46974 16.1809 8.60098 15.9C8.71222 15.6032 8.92473 15.3553 9.20098 15.2C9.41842 14.9997 9.70543 14.892 10.001 14.9C10.3982 14.9262 10.7797 15.065 11.101 15.3C11.3659 15.6434 11.5069 16.0663 11.501 16.5Z" fill="#2EA836"/>
<path d="M26.101 12.0001V12.7001C26.101 13.1001 26.001 13.2001 25.601 13.2001H20.101C19.801 13.2001 19.601 13.1001 19.601 12.7001V12.0001C19.5814 11.7749 19.478 11.5653 19.3114 11.4126C19.1448 11.2598 18.927 11.1751 18.701 11.1751C18.475 11.1751 18.2571 11.2598 18.0905 11.4126C17.9239 11.5653 17.8206 11.7749 17.801 12.0001V14.0001C17.7958 14.1416 17.8215 14.2825 17.8764 14.413C17.9313 14.5434 18.014 14.6604 18.1187 14.7556C18.2235 14.8508 18.3477 14.922 18.4828 14.9643C18.618 15.0065 18.7607 15.0187 18.901 15.0001H26.601C26.7413 15.0187 26.884 15.0065 27.0191 14.9643C27.1542 14.922 27.2785 14.8508 27.3832 14.7556C27.488 14.6604 27.5707 14.5434 27.6256 14.413C27.6804 14.2825 27.7062 14.1416 27.701 14.0001V12.0001C27.901 10.8001 26.101 10.9001 26.101 12.0001Z" fill="black"/>
<path d="M19.501 20.5001V19.8001C19.501 19.4001 19.601 19.3001 20.001 19.3001H25.501C25.801 19.3001 26.001 19.4001 26.001 19.8001V20.5001C26.0206 20.7253 26.1239 20.935 26.2905 21.0877C26.4571 21.2404 26.675 21.3251 26.901 21.3251C27.127 21.3251 27.3448 21.2404 27.5114 21.0877C27.678 20.935 27.7814 20.7253 27.801 20.5001V18.5001C27.8062 18.3587 27.7804 18.2178 27.7256 18.0873C27.6707 17.9568 27.588 17.8399 27.4832 17.7447C27.3785 17.6494 27.2542 17.5782 27.1191 17.536C26.984 17.4938 26.8413 17.4815 26.701 17.5001H19.001C18.8607 17.4815 18.718 17.4938 18.5828 17.536C18.4477 17.5782 18.3235 17.6494 18.2187 17.7447C18.114 17.8399 18.0313 17.9568 17.9764 18.0873C17.9215 18.2178 17.8958 18.3587 17.901 18.5001V20.5001C17.701 21.6001 19.501 21.6001 19.501 20.5001Z" fill="black"/>
</svg>
