<svg width="32" height="32" viewBox="0 0 32 32" fill="none" xmlns="http://www.w3.org/2000/svg">
<path fill-rule="evenodd" clip-rule="evenodd" d="M2 29.4893V3H11.1274V10.1489H17.127L16.793 8.17822C16.7264 7.78576 16.7377 7.38401 16.8263 6.99593C16.915 6.60785 17.0792 6.24103 17.3097 5.91642C17.5401 5.59182 17.8322 5.31578 18.1693 5.10409C18.5064 4.89239 18.882 4.74917 19.2744 4.68262L22.2969 4.17188C22.6898 4.1048 23.0921 4.1159 23.4807 4.20455C23.8693 4.29319 24.2366 4.45764 24.5616 4.68848C24.8862 4.91747 25.1621 5.20877 25.3731 5.54541C25.5865 5.88471 25.7305 6.26292 25.7969 6.6582L28.9785 25.4062V25.4316C29.0691 26.1811 28.8761 26.9373 28.4375 27.5518C27.971 28.206 27.2641 28.6485 26.4717 28.7822L23.4532 29.293C22.6612 29.4268 21.8485 29.241 21.1934 28.7764C20.8679 28.5457 20.5911 28.2531 20.3789 27.9153C20.1667 27.5774 20.0234 27.201 19.957 26.8076L18.7871 19.9199V29.4893H2Z" fill="white"/>
<path fill-rule="evenodd" clip-rule="evenodd" d="M3.5 4.5H9.6276V27.9892H3.5V4.5ZM11.1595 11.6489H17.2871V27.9893H11.1595V11.6489ZM24.3176 6.90508L27.4784 25.532V25.5361C27.5121 25.7345 27.5063 25.9376 27.4614 26.1338C27.4166 26.33 27.3335 26.5155 27.2169 26.6796C27.1004 26.8436 26.9526 26.9831 26.7821 27.0901C26.6116 27.197 26.4217 27.2694 26.2233 27.3029L23.2034 27.8136C23.005 27.8473 22.802 27.8416 22.6058 27.7968C22.4097 27.752 22.2242 27.669 22.0602 27.5525C21.8961 27.436 21.7566 27.2884 21.6496 27.118C21.5426 26.9476 21.4702 26.7578 21.4366 26.5594L18.2717 7.9274C18.204 7.52695 18.298 7.11599 18.5332 6.78487C18.7684 6.45374 19.1254 6.22956 19.5258 6.1616L22.5467 5.651C22.7454 5.61672 22.9488 5.62199 23.1455 5.66651C23.3421 5.71103 23.528 5.79392 23.6925 5.91043C23.857 6.02694 23.9969 6.17478 24.1042 6.34547C24.2115 6.51616 24.284 6.70634 24.3176 6.90512V6.90508Z" fill="#51247A"/>
</svg>
