<svg width="32" height="32" viewBox="0 0 32 32" fill="none" xmlns="http://www.w3.org/2000/svg">
<path d="M27.4595 12.4579C27.1062 12.0061 26.6083 11.6896 26.0492 11.5615C25.4902 11.4333 24.9041 11.5014 24.3893 11.7542C23.8745 12.007 23.4624 12.4292 23.222 12.95C22.9816 13.4707 22.9277 14.0583 23.0692 14.6141C23.0958 14.7228 23.1582 14.8194 23.2463 14.8885C23.3344 14.9575 23.4431 14.995 23.555 14.9949H24.0678C24.105 14.9948 24.1417 15.003 24.1752 15.0189C24.2088 15.0348 24.2383 15.0581 24.2617 15.0869C24.285 15.1155 24.3017 15.1488 24.3107 15.1846C24.3197 15.2203 24.3207 15.2576 24.3137 15.2938L23.9049 17.337C23.8441 17.5709 23.7283 17.7868 23.5671 17.9668C23.4059 18.1467 23.204 18.2856 22.9782 18.3716C22.9267 18.3925 22.8696 18.3954 22.8161 18.38C22.7627 18.3646 22.7159 18.3318 22.6833 18.2867C22.5056 18.0385 22.2546 17.8522 21.9656 17.7539C20.1934 17.2155 18.3475 16.9595 16.4957 16.9952C14.6438 16.9598 12.7979 17.2162 11.0257 17.7549C10.7367 17.8532 10.4857 18.0395 10.308 18.2877C10.2754 18.3328 10.2287 18.3656 10.1752 18.381C10.1218 18.3964 10.0647 18.3935 10.0131 18.3726C9.78736 18.2866 9.58547 18.1477 9.42428 17.9678C9.26309 17.7878 9.14726 17.5719 9.08646 17.338L8.67762 15.2958C8.67061 15.2596 8.67164 15.2223 8.68062 15.1866C8.6896 15.1508 8.70632 15.1175 8.7296 15.0889C8.75291 15.0599 8.78244 15.0365 8.816 15.0204C8.84956 15.0043 8.8863 14.9959 8.92352 14.9959H9.43633C9.54826 14.996 9.65698 14.9585 9.74506 14.8895C9.83315 14.8204 9.89551 14.7238 9.92215 14.6151C10.0152 14.2464 10.0229 13.8613 9.94462 13.4892C9.86636 13.1171 9.70422 12.7678 9.47054 12.4678C9.23687 12.1678 8.93782 11.9251 8.59618 11.7582C8.25454 11.5913 7.8793 11.5045 7.49906 11.5045C7.11881 11.5045 6.74358 11.5913 6.40194 11.7582C6.0603 11.9251 5.76125 12.1678 5.52758 12.4678C5.2939 12.7678 5.13176 13.1171 5.0535 13.4892C4.97524 13.8613 4.98293 14.2464 5.07597 14.6151C5.10261 14.7238 5.16497 14.8204 5.25306 14.8895C5.34114 14.9585 5.44986 14.996 5.56179 14.9959H6.16956C6.28495 14.9957 6.39688 15.0353 6.48634 15.1082C6.57581 15.1811 6.6373 15.2827 6.66037 15.3958L7.1262 17.7279C7.27999 18.4034 7.62839 19.0191 8.12832 19.4988C8.62826 19.9785 9.25781 20.3011 9.93914 20.4269C9.97994 20.4342 10.0183 20.4516 10.0507 20.4774C10.0832 20.5033 10.1087 20.5367 10.1251 20.5748C10.2381 20.846 10.4286 21.0777 10.6728 21.2411C10.9169 21.4045 11.2038 21.4923 11.4976 21.4935H15.2461C15.3124 21.4935 15.376 21.5198 15.4229 21.5667C15.4697 21.6135 15.496 21.6771 15.496 21.7434V22.3432C15.4961 22.4037 15.4741 22.4623 15.4342 22.5079C15.3943 22.5535 15.3392 22.5831 15.2791 22.5911C13.5225 22.7739 11.8933 23.5922 10.6979 24.8922C10.6747 24.9233 10.6445 24.9486 10.6098 24.966C10.5751 24.9833 10.5368 24.9923 10.4979 24.9922C10.204 24.9924 9.91657 25.079 9.67146 25.2413C9.42634 25.4035 9.23433 25.6343 9.11929 25.9048C9.00425 26.1753 8.97126 26.4736 9.02442 26.7628C9.07758 27.0519 9.21455 27.319 9.41829 27.5309C9.62203 27.7428 9.88356 27.8901 10.1704 27.9545C10.4572 28.019 10.7566 27.9977 11.0314 27.8934C11.3062 27.789 11.5443 27.6062 11.716 27.3676C11.8878 27.1291 11.9856 26.8453 11.9974 26.5516C11.9978 26.4952 12.0171 26.4406 12.0523 26.3966L12.2973 26.0917C13.0706 25.2841 14.0937 24.7608 15.2012 24.6063C15.2372 24.5995 15.2743 24.6007 15.3097 24.6101C15.3452 24.6194 15.3781 24.6366 15.4061 24.6603C15.4342 24.6838 15.4568 24.7131 15.4723 24.7463C15.4879 24.7794 15.496 24.8156 15.496 24.8522V25.383C15.2697 25.5855 15.1102 25.8519 15.0385 26.147C14.9669 26.4421 14.9866 26.752 15.0949 27.0357C15.2033 27.3193 15.3952 27.5634 15.6454 27.7356C15.8955 27.9079 16.192 28.0001 16.4957 28.0001C16.7993 28.0001 17.0959 27.9079 17.346 27.7356C17.5961 27.5634 17.788 27.3193 17.8964 27.0357C18.0048 26.752 18.0244 26.4421 17.9528 26.147C17.8812 25.8519 17.7216 25.5855 17.4953 25.383V24.8502C17.4952 24.8137 17.5033 24.7777 17.5189 24.7446C17.5344 24.7116 17.5571 24.6825 17.5853 24.6593C17.6125 24.636 17.6445 24.619 17.6791 24.6095C17.7136 24.6 17.7499 24.5982 17.7852 24.6043C18.8944 24.7594 19.919 25.2833 20.6941 26.0917L20.937 26.3916C20.9736 26.4365 20.9934 26.4927 20.993 26.5506C21.0045 26.8443 21.1022 27.1281 21.2738 27.3668C21.4454 27.6055 21.6833 27.7885 21.9581 27.893C22.2328 27.9975 22.5322 28.019 22.8191 27.9548C23.1059 27.8905 23.3675 27.7433 23.5714 27.5316C23.7753 27.3198 23.9124 27.0528 23.9658 26.7637C24.0191 26.4746 23.9863 26.1763 23.8715 25.9057C23.7566 25.6351 23.5647 25.4042 23.3197 25.2418C23.0747 25.0794 22.7874 24.9926 22.4934 24.9922C22.4546 24.9922 22.4164 24.9831 22.3817 24.9658C22.347 24.9484 22.3168 24.9232 22.2935 24.8922V24.8862C21.0977 23.587 19.4685 22.7693 17.7122 22.5871C17.6524 22.5793 17.5974 22.5501 17.5575 22.5049C17.5176 22.4596 17.4955 22.4015 17.4953 22.3412V21.7414C17.4953 21.6751 17.5216 21.6115 17.5685 21.5647C17.6154 21.5178 17.6789 21.4915 17.7452 21.4915H21.4938C21.787 21.4907 22.0735 21.4037 22.3175 21.2412C22.5616 21.0787 22.7524 20.848 22.8663 20.5778C22.8826 20.5397 22.9082 20.5063 22.9406 20.4804C22.9731 20.4546 23.0114 20.4372 23.0522 20.4299C23.7335 20.3041 24.3631 19.9815 24.863 19.5018C25.363 19.0221 25.7114 18.4064 25.8651 17.7309L26.331 15.3988C26.354 15.2857 26.4155 15.1841 26.505 15.1112C26.5945 15.0383 26.7064 14.9987 26.8218 14.9989H27.4296C27.5415 14.999 27.6502 14.9615 27.7383 14.8925C27.8264 14.8234 27.8887 14.7268 27.9154 14.6181C28.0099 14.2471 28.018 13.8594 27.9389 13.4849C27.8599 13.1104 27.6959 12.759 27.4595 12.4579Z" fill="#51247A"/>
<path d="M11.6795 15.5606C11.719 15.675 11.7986 15.7711 11.9035 15.8312C12.0085 15.8913 12.1317 15.9113 12.2503 15.8875C15.0565 15.3657 17.9348 15.3657 20.7411 15.8875C20.7739 15.8944 20.8074 15.8977 20.841 15.8975C20.9449 15.8974 21.0462 15.8649 21.1308 15.8045C21.2153 15.7441 21.279 15.6589 21.3128 15.5606C22.0948 13.6079 22.6583 11.5746 22.9932 9.49793C22.8909 8.09381 22.2897 6.7726 21.2982 5.77308C20.3068 4.77355 18.9905 4.16166 17.5873 4.04798C16.8609 3.98401 16.1304 3.98401 15.4041 4.04798C14.0008 4.16166 12.6845 4.77355 11.6931 5.77308C10.7016 6.7726 10.1004 8.09381 9.99811 9.49793C10.3333 11.5746 10.8972 13.6079 11.6795 15.5606Z" fill="#51247A"/>
</svg>
