<svg width="32" height="32" viewBox="0 0 32 32" fill="none" xmlns="http://www.w3.org/2000/svg">
<path d="M12.0727 15.2601C11.9037 14.718 11.593 14.2308 11.1727 13.8491C11.1166 13.798 11.0729 13.7349 11.0448 13.6644C11.0167 13.594 11.005 13.5181 11.0106 13.4424C11.0162 13.3668 11.0389 13.2934 11.0771 13.2279C11.1152 13.1623 11.1677 13.1063 11.2307 13.0641C11.9418 12.5856 12.4804 11.8914 12.7671 11.0838C13.0539 10.2762 13.0737 9.39778 12.8236 8.57805C12.5735 7.75832 12.0667 7.04059 11.3779 6.53061C10.6891 6.02063 9.85476 5.74536 8.99772 5.74536C8.14068 5.74536 7.3063 6.02063 6.61751 6.53061C5.92872 7.04059 5.42194 7.75832 5.17183 8.57805C4.92173 9.39778 4.94152 10.2762 5.22829 11.0838C5.51507 11.8914 6.05366 12.5856 6.76472 13.0641C6.8277 13.1063 6.88024 13.1623 6.91837 13.2279C6.9565 13.2934 6.97922 13.3668 6.98481 13.4424C6.9904 13.5181 6.97871 13.594 6.95063 13.6644C6.92254 13.7349 6.8788 13.798 6.82272 13.8491C6.40241 14.2308 6.09171 14.718 5.92272 15.2601L4.02272 21.3511C3.99938 21.4258 3.99393 21.505 4.0068 21.5822C4.01967 21.6595 4.0505 21.7326 4.09682 21.7958C4.14313 21.8589 4.20363 21.9103 4.27344 21.9458C4.34324 21.9813 4.42041 21.9999 4.49872 22.0001H5.86572C5.98825 21.9991 6.10687 22.0432 6.19904 22.1239C6.29121 22.2047 6.35053 22.3165 6.36572 22.4381L6.99872 27.5631C7.01413 27.6845 7.07355 27.796 7.1657 27.8765C7.25785 27.9571 7.37634 28.001 7.49872 28.0001H10.4987C10.6211 28.001 10.7396 27.9571 10.8317 27.8765C10.9239 27.796 10.9833 27.6845 10.9987 27.5631L11.6397 22.4381C11.6549 22.3165 11.7142 22.2047 11.8064 22.1239C11.8986 22.0432 12.0172 21.9991 12.1397 22.0001H13.4987C13.5771 22 13.6544 21.9815 13.7243 21.9461C13.7943 21.9107 13.8549 21.8593 13.9013 21.7962C13.9477 21.733 13.9787 21.6598 13.9916 21.5825C14.0045 21.5052 13.9991 21.4259 13.9757 21.3511L12.0727 15.2601ZM8.66172 8.84505C8.75389 8.76073 8.87429 8.71396 8.99922 8.71396C9.12414 8.71396 9.24454 8.76073 9.33672 8.84505C9.72076 9.19534 10.16 9.47984 10.6367 9.68705C10.7465 9.73513 10.8354 9.82105 10.8872 9.92916C10.9389 10.0373 10.9501 10.1604 10.9187 10.2761C10.8045 10.6989 10.5541 11.0723 10.2063 11.3386C9.85854 11.6049 9.43273 11.7492 8.99472 11.7492C8.55671 11.7492 8.1309 11.6049 7.78312 11.3386C7.43534 11.0723 7.18497 10.6989 7.07072 10.2761C7.03932 10.1604 7.05052 10.0373 7.10228 9.92916C7.15404 9.82105 7.24292 9.73513 7.35272 9.68705C7.83244 9.48038 8.27473 9.19588 8.66172 8.84505Z" fill="white"/>
<path d="M15.9987 4C15.7335 4 15.4791 4.10536 15.2916 4.29289C15.1041 4.48043 14.9987 4.73478 14.9987 5V27C14.9987 27.2652 15.1041 27.5196 15.2916 27.7071C15.4791 27.8946 15.7335 28 15.9987 28C16.2639 28 16.5183 27.8946 16.7058 27.7071C16.8934 27.5196 16.9987 27.2652 16.9987 27V5C16.9987 4.73478 16.8934 4.48043 16.7058 4.29289C16.5183 4.10536 16.2639 4 15.9987 4V4Z" fill="white"/>
<path d="M25.5227 13.6999C25.4523 13.6587 25.3931 13.601 25.3502 13.5316C25.3072 13.4623 25.2819 13.3836 25.2764 13.3022C25.2709 13.2209 25.2853 13.1394 25.3185 13.0649C25.3517 12.9905 25.4026 12.9252 25.4667 12.8749C26.1216 12.3614 26.6001 11.6565 26.8354 10.8582C27.0708 10.06 27.0513 9.20821 26.7797 8.42156C26.5081 7.63492 25.9979 6.95258 25.3201 6.4696C24.6424 5.98662 23.8309 5.72705 22.9987 5.72705C22.1665 5.72705 21.355 5.98662 20.6773 6.4696C19.9996 6.95258 19.4894 7.63492 19.2178 8.42156C18.9461 9.20821 18.9267 10.06 19.162 10.8582C19.3973 11.6565 19.8758 12.3614 20.5307 12.8749C20.5949 12.9252 20.6458 12.9905 20.6789 13.0649C20.7121 13.1394 20.7266 13.2209 20.721 13.3022C20.7155 13.3836 20.6902 13.4623 20.6473 13.5316C20.6043 13.601 20.5451 13.6587 20.4747 13.6999C19.7221 14.1376 19.0974 14.765 18.6629 15.5195C18.2285 16.274 17.9994 17.1293 17.9987 17.9999V20.4999C17.9987 20.6325 18.0514 20.7597 18.1452 20.8535C18.2389 20.9472 18.3661 20.9999 18.4987 20.9999H19.8507C19.9746 20.9992 20.0944 21.0445 20.1868 21.1271C20.2792 21.2097 20.3376 21.3237 20.3507 21.4469L20.9987 27.5539C21.0121 27.6769 21.0706 27.7907 21.163 27.873C21.2553 27.9554 21.375 28.0006 21.4987 27.9999H24.4987C24.6225 28.0006 24.7421 27.9554 24.8345 27.873C24.9268 27.7907 24.9854 27.6769 24.9987 27.5539L25.6527 21.4469C25.6659 21.3237 25.7243 21.2097 25.8167 21.1271C25.909 21.0445 26.0288 20.9992 26.1527 20.9999H27.4987C27.6313 20.9999 27.7585 20.9472 27.8523 20.8535C27.946 20.7597 27.9987 20.6325 27.9987 20.4999V17.9999C27.998 17.1293 27.769 16.274 27.3345 15.5195C26.9001 14.765 26.2754 14.1376 25.5227 13.6999ZM21.0507 9.3079C21.0677 9.23537 21.1008 9.16755 21.1474 9.10942C21.194 9.05128 21.253 9.0043 21.3201 8.9719C21.3872 8.9395 21.4607 8.92251 21.5352 8.92216C21.6097 8.92182 21.6833 8.93813 21.7507 8.9699C22.5091 9.31974 23.3345 9.50058 24.1697 9.4999C24.3448 9.49935 24.5197 9.48967 24.6937 9.4709C24.7328 9.46702 24.7723 9.47132 24.8097 9.48355C24.8471 9.49577 24.8815 9.51565 24.9107 9.5419C24.939 9.56856 24.9615 9.60083 24.9766 9.63664C24.9918 9.67245 24.9993 9.71102 24.9987 9.7499C24.9987 10.2803 24.788 10.789 24.4129 11.1641C24.0379 11.5392 23.5292 11.7499 22.9987 11.7499C22.4683 11.7499 21.9596 11.5392 21.5845 11.1641C21.2094 10.789 20.9987 10.2803 20.9987 9.7499C20.9987 9.60104 21.0161 9.45269 21.0507 9.3079Z" fill="white"/>
</svg>
