<svg width="32" height="32" viewBox="0 0 32 32" fill="none" xmlns="http://www.w3.org/2000/svg">
<path d="M22.5 22.4998C22.2348 22.4998 21.9804 22.6052 21.7929 22.7927C21.6054 22.9802 21.5 23.2346 21.5 23.4998V23.9998C21.5 24.1324 21.4473 24.2596 21.3536 24.3534C21.2598 24.4471 21.1326 24.4998 21 24.4998H15.5C15.3674 24.4998 15.2402 24.4471 15.1464 24.3534C15.0527 24.2596 15 24.1324 15 23.9998V7.9998C15 7.8672 15.0527 7.74002 15.1464 7.64625C15.2402 7.55248 15.3674 7.4998 15.5 7.4998H21C21.1326 7.4998 21.2598 7.55248 21.3536 7.64625C21.4473 7.74002 21.5 7.8672 21.5 7.9998V8.9998C21.5 9.26502 21.6054 9.51937 21.7929 9.70691C21.9804 9.89445 22.2348 9.9998 22.5 9.9998C22.7652 9.9998 23.0196 9.89445 23.2071 9.70691C23.3946 9.51937 23.5 9.26502 23.5 8.9998V6.4998C23.5 6.23459 23.3946 5.98023 23.2071 5.7927C23.0196 5.60516 22.7652 5.4998 22.5 5.4998H15V4.4998C15 4.42499 14.9832 4.35113 14.9508 4.28368C14.9184 4.21623 14.8713 4.1569 14.813 4.11007C14.7546 4.06324 14.6865 4.0301 14.6137 4.01309C14.5408 3.99608 14.465 3.99564 14.392 4.0118L5.392 6.0118C5.28088 6.03639 5.18146 6.09814 5.11019 6.18687C5.03892 6.2756 5.00004 6.38599 5 6.4998V25.4998C5.00004 25.6136 5.03892 25.724 5.11019 25.8127C5.18146 25.9015 5.28088 25.9632 5.392 25.9878L14.392 27.9878C14.4652 28.003 14.5409 28.0018 14.6136 27.9846C14.6863 27.9673 14.7544 27.9343 14.813 27.8878C14.8715 27.8408 14.9187 27.7813 14.9511 27.7136C14.9834 27.6459 15.0002 27.5718 15 27.4968V26.4968H22.5C22.7652 26.4968 23.0196 26.3914 23.2071 26.2039C23.3946 26.0164 23.5 25.762 23.5 25.4968V23.4968C23.4992 23.2321 23.3935 22.9785 23.206 22.7916C23.0186 22.6047 22.7647 22.4998 22.5 22.4998ZM12.5 16.4998C12.5 16.7965 12.412 17.0865 12.2472 17.3332C12.0824 17.5798 11.8481 17.7721 11.574 17.8856C11.2999 17.9992 10.9983 18.0289 10.7074 17.971C10.4164 17.9131 10.1491 17.7702 9.93934 17.5605C9.72956 17.3507 9.5867 17.0834 9.52882 16.7924C9.47094 16.5015 9.50065 16.1999 9.61418 15.9258C9.72771 15.6517 9.91997 15.4174 10.1666 15.2526C10.4133 15.0878 10.7033 14.9998 11 14.9998C11.3978 14.9998 11.7794 15.1578 12.0607 15.4391C12.342 15.7204 12.5 16.102 12.5 16.4998Z" fill="white"/>
<path d="M26.984 14.9998H26.734V14.0588C26.7439 13.6914 26.6801 13.3258 26.5464 12.9835C26.4126 12.6412 26.2116 12.3291 25.9553 12.0658C25.699 11.8024 25.3925 11.5931 25.0539 11.4502C24.7153 11.3073 24.3515 11.2336 23.984 11.2336C23.6165 11.2336 23.2527 11.3073 22.9141 11.4502C22.5756 11.5931 22.2691 11.8024 22.0127 12.0658C21.7564 12.3291 21.5554 12.6412 21.4216 12.9835C21.2879 13.3258 21.2241 13.6914 21.234 14.0588V14.9998H20.984C20.7188 14.9998 20.4644 15.1052 20.2769 15.2927C20.0894 15.4802 19.984 15.7346 19.984 15.9998V20.4998C19.984 20.765 20.0894 21.0194 20.2769 21.2069C20.4644 21.3945 20.7188 21.4998 20.984 21.4998H26.984C27.2492 21.4998 27.5036 21.3945 27.6911 21.2069C27.8787 21.0194 27.984 20.765 27.984 20.4998V15.9998C27.984 15.7346 27.8787 15.4802 27.6911 15.2927C27.5036 15.1052 27.2492 14.9998 26.984 14.9998ZM22.734 14.0588C22.7273 13.8905 22.7546 13.7225 22.8144 13.5649C22.8742 13.4074 22.9652 13.2636 23.0819 13.1421C23.1986 13.0206 23.3387 12.9239 23.4937 12.8579C23.6488 12.7918 23.8155 12.7578 23.984 12.7578C24.1525 12.7578 24.3193 12.7918 24.4743 12.8579C24.6293 12.9239 24.7694 13.0206 24.8861 13.1421C25.0028 13.2636 25.0938 13.4074 25.1536 13.5649C25.2134 13.7225 25.2407 13.8905 25.234 14.0588V14.9998H22.734V14.0588ZM23.984 18.7498C23.7862 18.7498 23.5929 18.6912 23.4284 18.5813C23.264 18.4714 23.1358 18.3152 23.0601 18.1325C22.9844 17.9498 22.9646 17.7487 23.0032 17.5547C23.0418 17.3607 23.137 17.1826 23.2769 17.0427C23.4168 16.9029 23.5949 16.8076 23.7889 16.769C23.9829 16.7304 24.184 16.7502 24.3667 16.8259C24.5494 16.9016 24.7056 17.0298 24.8155 17.1942C24.9254 17.3587 24.984 17.552 24.984 17.7498C24.984 18.015 24.8787 18.2694 24.6911 18.4569C24.5036 18.6445 24.2492 18.7498 23.984 18.7498Z" fill="white"/>
</svg>
