<svg width="32" height="32" viewBox="0 0 32 32" fill="none" xmlns="http://www.w3.org/2000/svg">
<path d="M15.7339 29.9946C15.4159 29.9952 15.1009 29.933 14.807 29.8115C14.5131 29.69 14.2462 29.5116 14.0215 29.2866C13.6572 28.9262 5 20.2895 5 13.7246C5.00247 10.8796 6.13431 8.1519 8.14682 6.14095C10.1593 4.12999 12.8879 3.00027 15.7329 3C18.5779 2.99973 21.3067 4.12895 23.3195 6.13953C25.3324 8.15011 26.4648 10.8776 26.4678 13.7226C26.4678 20.1303 18.3682 28.3696 17.4443 29.2875C17.22 29.5124 16.9533 29.6906 16.6598 29.8119C16.3662 29.9333 16.0515 29.9954 15.7339 29.9946Z" fill="white"/>
<path d="M15.7318 4.49463C13.2845 4.4971 10.938 5.47026 9.20733 7.20062C7.47662 8.93097 6.50297 11.2772 6.5 13.7245C6.5 19.5781 14.7282 27.8754 15.0808 28.2242C15.254 28.3974 15.4888 28.4946 15.7337 28.4946C15.9785 28.4946 16.2133 28.3974 16.3865 28.2242C16.7372 27.8754 24.9673 19.5781 24.9673 13.7245C24.9643 11.2765 23.9902 8.92975 22.2587 7.19929C20.5272 5.46883 18.1798 4.4961 15.7318 4.49463ZM15.7318 10.4955C16.4805 10.4929 17.2069 10.7501 17.7872 11.2233C18.3675 11.6964 18.7656 12.3562 18.9138 13.0901C19.0619 13.8241 18.9509 14.5866 18.5996 15.2478C18.2483 15.909 17.6785 16.4279 16.9874 16.7159C16.2963 17.0039 15.5267 17.0433 14.8098 16.8273C14.0929 16.6113 13.4732 16.1533 13.0563 15.5314C12.6394 14.9095 12.4511 14.1622 12.5236 13.417C12.5961 12.6718 12.9248 11.9748 13.4538 11.4449C14.0577 10.8396 14.8768 10.4982 15.7318 10.4955Z" fill="#51247A"/>
</svg>
