<svg width="32" height="32" viewBox="0 0 32 32" fill="none" xmlns="http://www.w3.org/2000/svg">
<path d="M28 23.1022C27.9984 21.8113 27.4849 20.5737 26.5721 19.6609C25.6593 18.7481 24.4217 18.2346 23.1308 18.233C22.987 18.233 22.8521 18.263 22.7113 18.275L21.0682 13.4417L22.0001 13.209C22.1282 13.1779 22.2488 13.1218 22.355 13.0438C22.4613 12.9659 22.5511 12.8677 22.6192 12.755C22.6874 12.6422 22.7325 12.517 22.7521 12.3867C22.7716 12.2564 22.7652 12.1235 22.7332 11.9957C22.7012 11.8679 22.6442 11.7477 22.5655 11.642C22.4868 11.5363 22.388 11.4472 22.2747 11.3799C22.1615 11.3125 22.036 11.2683 21.9056 11.2497C21.7751 11.231 21.6423 11.2384 21.5147 11.2713L20.0584 11.6359C19.8561 11.6867 19.6666 11.7791 19.5021 11.9074C19.3376 12.0356 19.2016 12.1968 19.103 12.3807C19.0044 12.5645 18.9452 12.7669 18.9293 12.9749C18.9134 13.1829 18.9411 13.3919 19.0107 13.5886L19.4052 14.7482C19.4262 14.8098 19.4223 14.8772 19.3943 14.9359C19.3663 14.9947 19.3165 15.0402 19.2554 15.0628L14.2054 16.9216C14.1475 16.9428 14.0837 16.9419 14.0264 16.919C13.9691 16.8962 13.9223 16.853 13.8948 16.7977L13.3724 15.736H13.5172C13.7821 15.736 14.0362 15.6308 14.2235 15.4435C14.4108 15.2561 14.516 15.0021 14.516 14.7372C14.516 14.4723 14.4108 14.2182 14.2235 14.0309C14.0362 13.8436 13.7821 13.7384 13.5172 13.7384H10.5208C10.2559 13.7384 10.0019 13.8436 9.81454 14.0309C9.62723 14.2182 9.522 14.4723 9.522 14.7372C9.522 15.0021 9.62723 15.2561 9.81454 15.4435C10.0019 15.6308 10.2559 15.736 10.5208 15.736H11.1471L12.5943 18.6825C12.6767 18.8506 12.8047 18.9922 12.9636 19.0911C13.1225 19.19 13.3061 19.2422 13.4933 19.2418C14.7222 18.902 15.9273 18.4816 17.101 17.9833C17.1515 17.9647 17.2067 17.9628 17.2583 17.9781C17.3099 17.9934 17.3553 18.0249 17.3875 18.0681C17.4197 18.1112 17.4372 18.1636 17.4372 18.2174C17.4372 18.2713 17.4198 18.3237 17.3876 18.3669L14.516 22.2283H13.679C13.465 21.0406 12.8183 19.9744 11.864 19.2357C10.9096 18.4971 9.71534 18.1384 8.51193 18.229C7.30852 18.3196 6.18141 18.8531 5.34842 19.7263C4.51543 20.5996 4.03569 21.7506 4.00191 22.9569C3.96814 24.1632 4.38272 25.3393 5.16554 26.2578C5.94836 27.1762 7.04385 27.7719 8.24031 27.9297C9.43676 28.0875 10.6492 27.7963 11.6434 27.1122C12.6376 26.4281 13.343 25.3997 13.6231 24.2259H15.0085C15.163 24.2161 15.3141 24.1758 15.453 24.1072C15.5919 24.0386 15.7158 23.9432 15.8175 23.8264L20.1124 18.0492C20.1396 18.0128 20.1762 17.9845 20.2184 17.9673C20.2605 17.9502 20.3065 17.9449 20.3514 17.952C20.3963 17.9591 20.4385 17.9783 20.4733 18.0076C20.5081 18.0369 20.5342 18.0751 20.5489 18.1182L20.8006 18.8563C20.0487 19.2694 19.4197 19.8742 18.9774 20.6093C18.535 21.3443 18.2952 22.1833 18.2821 23.0411C18.2691 23.8988 18.4834 24.7447 18.9032 25.4928C19.323 26.2409 19.9334 26.8646 20.6723 27.3004C21.4112 27.7362 22.2524 27.9686 23.1102 27.974C23.968 27.9794 24.812 27.7576 25.5564 27.3311C26.3007 26.9047 26.9189 26.2888 27.3481 25.546C27.7773 24.8032 28.0022 23.9601 28 23.1022ZM8.89774 25.9738C8.36699 25.9763 7.84593 25.8317 7.39241 25.556C6.93889 25.2802 6.57065 24.8842 6.3286 24.4119C6.08654 23.9395 5.98013 23.4093 6.02118 22.8802C6.06223 22.351 6.24913 21.8436 6.56114 21.4142C6.87314 20.9848 7.29804 20.6503 7.78866 20.4479C8.27927 20.2454 8.81641 20.1828 9.34042 20.2672C9.86444 20.3515 10.3548 20.5794 10.7571 20.9256C11.1595 21.2718 11.458 21.7227 11.6195 22.2283H9.14545C8.88055 22.2283 8.62649 22.3335 8.43918 22.5208C8.25187 22.7081 8.14664 22.9622 8.14664 23.2271C8.14664 23.492 8.25187 23.746 8.43918 23.9333C8.62649 24.1207 8.88055 24.2259 9.14545 24.2259H11.5426C11.3215 24.7443 10.9529 25.1863 10.4827 25.4971C10.0125 25.8078 9.46135 25.9736 8.89774 25.9738ZM23.1308 25.9738C22.5234 25.9756 21.9312 25.7843 21.4396 25.4275C20.9481 25.0708 20.5826 24.567 20.3961 23.9889C20.2096 23.4109 20.2116 22.7885 20.4019 22.2117C20.5922 21.6349 20.9609 21.1336 21.4548 20.78L22.3108 23.298C22.4031 23.5394 22.5855 23.7355 22.8194 23.8453C23.0534 23.955 23.3208 23.9698 23.5654 23.8865C23.8101 23.8033 24.0129 23.6284 24.1314 23.3987C24.2498 23.169 24.2746 22.9024 24.2005 22.6548L23.3855 20.2576C24.1208 20.3222 24.8027 20.6682 25.289 21.2235C25.7754 21.7787 26.0285 22.5003 25.9957 23.2377C25.9628 23.9751 25.6465 24.6713 25.1127 25.1811C24.5789 25.6909 23.8689 25.9749 23.1308 25.9738Z" fill="#51247A"/>
<path d="M12.1119 11.9905C12.9064 11.9889 13.6823 11.7504 14.3406 11.3057C14.9989 10.8609 15.5096 10.2299 15.8075 9.49346L21.8813 9.50045C21.9469 9.50057 22.0119 9.48775 22.0726 9.46273C22.1333 9.4377 22.1884 9.40097 22.2349 9.35462L23.1688 8.42073C23.2586 8.33068 23.3107 8.20975 23.3144 8.0826C23.3181 7.95546 23.2732 7.83169 23.1887 7.73655L22.2379 6.66483C22.191 6.61205 22.1335 6.5698 22.0691 6.54088C22.0047 6.51195 21.9349 6.49701 21.8643 6.49703H15.8145C15.5427 5.82498 15.0931 5.23957 14.5139 4.80353C13.9348 4.36748 13.2479 4.09723 12.5269 4.02173C11.8059 3.94623 11.078 4.06833 10.421 4.37495C9.76414 4.68156 9.20303 5.16114 8.79786 5.76229C8.39268 6.36344 8.15871 7.0635 8.12101 7.78747C8.08331 8.51143 8.2433 9.23201 8.58384 9.87199C8.92438 10.512 9.43264 11.0472 10.0541 11.4204C10.6757 11.7936 11.387 11.9907 12.1119 11.9905ZM11.0202 6.9355C11.2298 6.72607 11.4968 6.58348 11.7874 6.52574C12.078 6.46801 12.3792 6.49774 12.6529 6.61116C12.9266 6.72459 13.1605 6.91662 13.3251 7.16298C13.4897 7.40934 13.5775 7.69896 13.5775 7.99524C13.5775 8.29152 13.4897 8.58115 13.3251 8.82751C13.1605 9.07386 12.9266 9.2659 12.6529 9.37932C12.3792 9.49274 12.078 9.52247 11.7874 9.46474C11.4968 9.40701 11.2298 9.26441 11.0202 9.05498C10.881 8.91584 10.7706 8.75064 10.6952 8.56881C10.6199 8.38697 10.5811 8.19207 10.5811 7.99524C10.5811 7.79841 10.6199 7.60351 10.6952 7.42168C10.7706 7.23984 10.881 7.07464 11.0202 6.9355Z" fill="#51247A"/>
</svg>
