<svg width="32" height="32" viewBox="0 0 32 32" fill="none" xmlns="http://www.w3.org/2000/svg">
<path d="M23.4991 14C23.4984 13.4382 23.2877 12.897 22.9084 12.4825C22.5292 12.0681 22.0087 11.8104 21.4491 11.76C21.3517 11.7517 21.2588 11.7149 21.182 11.6543C21.1052 11.5937 21.0479 11.5119 21.0171 11.419C20.7278 10.6299 20.2085 9.94574 19.5261 9.455C19.061 9.12861 18.6953 8.67967 18.4699 8.15802C18.2445 7.63638 18.1681 7.06246 18.2491 6.5C18.2491 5.83696 17.9858 5.20107 17.5169 4.73223C17.0481 4.26339 16.4122 4 15.7491 4C15.0861 4 14.4502 4.26339 13.9814 4.73223C13.5125 5.20107 13.2491 5.83696 13.2491 6.5C13.3304 7.06257 13.2539 7.63663 13.0283 8.15833C12.8026 8.68003 12.4367 9.1289 11.9711 9.455C11.2892 9.94504 10.7701 10.6286 10.4811 11.417C10.4503 11.5095 10.3931 11.591 10.3165 11.6514C10.2399 11.7119 10.1473 11.7485 10.0501 11.757C9.58405 11.7988 9.14256 11.9847 8.78707 12.2891C8.43159 12.5934 8.1798 13.001 8.06671 13.4551C7.95363 13.9092 7.98488 14.3872 8.15612 14.8227C8.32736 15.2582 8.63007 15.6295 9.02215 15.885C9.0913 15.9301 9.14822 15.9915 9.18783 16.064C9.22744 16.1364 9.2485 16.2175 9.24915 16.3V25C9.24915 25.7956 9.56522 26.5587 10.1278 27.1213C10.6904 27.6839 11.4535 28 12.2491 28H19.2491C20.0448 28 20.8079 27.6839 21.3705 27.1213C21.9331 26.5587 22.2491 25.7956 22.2491 25V16.3C22.2491 16.2168 22.2699 16.1349 22.3095 16.0617C22.3492 15.9886 22.4064 15.9264 22.4761 15.881C22.7894 15.6771 23.047 15.3983 23.2256 15.0699C23.4042 14.7415 23.4982 14.3738 23.4991 14ZM13.5331 11.75C13.4445 11.7502 13.358 11.7231 13.2853 11.6723C13.2126 11.6215 13.1574 11.5496 13.1271 11.4662C13.0968 11.3829 13.093 11.2923 13.1161 11.2067C13.1392 11.1212 13.1881 11.0448 13.2561 10.988C13.9469 10.475 14.4933 9.79227 14.8425 9.00594C15.1917 8.21962 15.3318 7.3564 15.2491 6.5C15.2491 6.36739 15.3018 6.24021 15.3956 6.14645C15.4894 6.05268 15.6165 6 15.7491 6C15.8818 6 16.0089 6.05268 16.1027 6.14645C16.1965 6.24021 16.2491 6.36739 16.2491 6.5C16.1667 7.35624 16.3069 8.21925 16.656 9.00539C17.0052 9.79153 17.5516 10.4741 18.2421 10.987C18.3101 11.044 18.3589 11.1205 18.3818 11.2062C18.4048 11.2919 18.4008 11.3826 18.3704 11.4659C18.3401 11.5492 18.2848 11.6212 18.2121 11.672C18.1394 11.7229 18.0528 11.7501 17.9641 11.75H13.5331ZM20.2491 25C20.2491 25.2652 20.1438 25.5196 19.9563 25.7071C19.7687 25.8946 19.5144 26 19.2491 26H12.2491C11.9839 26 11.7296 25.8946 11.542 25.7071C11.3545 25.5196 11.2491 25.2652 11.2491 25V17C11.2491 16.8674 11.3018 16.7402 11.3956 16.6464C11.4894 16.5527 11.6165 16.5 11.7491 16.5H19.7491C19.8818 16.5 20.0089 16.5527 20.1027 16.6464C20.1965 16.7402 20.2491 16.8674 20.2491 17V18C20.2491 18.1326 20.1965 18.2598 20.1027 18.3536C20.0089 18.4473 19.8818 18.5 19.7491 18.5H18.2491C18.0502 18.5 17.8595 18.579 17.7188 18.7197C17.5782 18.8603 17.4991 19.0511 17.4991 19.25C17.4991 19.4489 17.5782 19.6397 17.7188 19.7803C17.8595 19.921 18.0502 20 18.2491 20H19.7491C19.8818 20 20.0089 20.0527 20.1027 20.1464C20.1965 20.2402 20.2491 20.3674 20.2491 20.5V21.5C20.2491 21.6326 20.1965 21.7598 20.1027 21.8536C20.0089 21.9473 19.8818 22 19.7491 22H18.2491C18.0502 22 17.8595 22.079 17.7188 22.2197C17.5782 22.3603 17.4991 22.5511 17.4991 22.75C17.4991 22.9489 17.5782 23.1397 17.7188 23.2803C17.8595 23.421 18.0502 23.5 18.2491 23.5H19.7491C19.8818 23.5 20.0089 23.5527 20.1027 23.6464C20.1965 23.7402 20.2491 23.8674 20.2491 24V25Z" fill="#51247A"/>
</svg>
