<svg width="32" height="32" viewBox="0 0 32 32" fill="none" xmlns="http://www.w3.org/2000/svg">
<path d="M17 11.5H15.25C15.1837 11.5 15.1201 11.5263 15.0732 11.5732C15.0263 11.6201 15 11.6837 15 11.75V15.25C15 15.3163 15.0263 15.3799 15.0732 15.4268C15.1201 15.4737 15.1837 15.5 15.25 15.5H17C17.5304 15.5 18.0391 15.2893 18.4142 14.9142C18.7893 14.5391 19 14.0304 19 13.5C19 12.9696 18.7893 12.4609 18.4142 12.0858C18.0391 11.7107 17.5304 11.5 17 11.5Z" fill="white"/>
<path d="M16 4C13.6266 4 11.3065 4.70379 9.33316 6.02236C7.35977 7.34094 5.8217 9.21509 4.91345 11.4078C4.0052 13.6005 3.76756 16.0133 4.23058 18.3411C4.6936 20.6689 5.83649 22.8071 7.51472 24.4853C9.19295 26.1635 11.3311 27.3064 13.6589 27.7694C15.9867 28.2324 18.3995 27.9948 20.5922 27.0866C22.7849 26.1783 24.6591 24.6402 25.9776 22.6668C27.2962 20.6935 28 18.3734 28 16C27.9966 12.8185 26.7312 9.76821 24.4815 7.51852C22.2318 5.26883 19.1815 4.00344 16 4V4ZM17 17.5H15.25C15.1837 17.5 15.1201 17.5263 15.0732 17.5732C15.0263 17.6201 15 17.6837 15 17.75V22.5C15 22.7652 14.8946 23.0196 14.7071 23.2071C14.5196 23.3946 14.2652 23.5 14 23.5C13.7348 23.5 13.4804 23.3946 13.2929 23.2071C13.1054 23.0196 13 22.7652 13 22.5V10.5C13 10.2348 13.1054 9.98043 13.2929 9.79289C13.4804 9.60536 13.7348 9.5 14 9.5H17C18.0609 9.5 19.0783 9.92143 19.8284 10.6716C20.5786 11.4217 21 12.4391 21 13.5C21 14.5609 20.5786 15.5783 19.8284 16.3284C19.0783 17.0786 18.0609 17.5 17 17.5Z" fill="white"/>
</svg>
