<svg width="32" height="32" viewBox="0 0 32 32" fill="none" xmlns="http://www.w3.org/2000/svg">
<path d="M16 6.5C16 7.16304 16.2634 7.79893 16.7322 8.26777C17.2011 8.73661 17.837 9 18.5 9C19.163 9 19.7989 8.73661 20.2678 8.26777C20.7366 7.79893 21 7.16304 21 6.5C21 5.83696 20.7366 5.20107 20.2678 4.73223C19.7989 4.26339 19.163 4 18.5 4C17.837 4 17.2011 4.26339 16.7322 4.73223C16.2634 5.20107 16 5.83696 16 6.5Z" fill="#51247A"/>
<path d="M21 10.64H16C15.2023 10.6416 14.4234 10.8823 13.7639 11.331C13.1044 11.7796 12.5945 12.4157 12.3 13.157C12.2848 13.1948 12.2792 13.2357 12.2834 13.2762C12.2877 13.3166 12.3017 13.3555 12.3244 13.3893C12.3471 13.4231 12.3776 13.4508 12.4135 13.4701C12.4493 13.4894 12.4893 13.4997 12.53 13.5H13C13.4937 13.5004 13.9694 13.686 14.333 14.02C14.3789 14.0623 14.4391 14.0857 14.5015 14.0857C14.5639 14.0857 14.624 14.0623 14.67 14.02C14.7598 13.9369 14.8777 13.8909 15 13.891C15.1326 13.891 15.2598 13.9437 15.3535 14.0375C15.4473 14.1312 15.5 14.2584 15.5 14.391V26.75C15.5 27.0815 15.6317 27.3995 15.8661 27.6339C16.1005 27.8683 16.4185 28 16.75 28C17.0815 28 17.3995 27.8683 17.6339 27.6339C17.8683 27.3995 18 27.0815 18 26.75V20.5C18 20.3674 18.0527 20.2402 18.1464 20.1465C18.2402 20.0527 18.3674 20 18.5 20C18.6326 20 18.7598 20.0527 18.8535 20.1465C18.9473 20.2402 19 20.3674 19 20.5V26.75C19 27.0815 19.1317 27.3995 19.3661 27.6339C19.6005 27.8683 19.9185 28 20.25 28C20.5815 28 20.8995 27.8683 21.1339 27.6339C21.3683 27.3995 21.5 27.0815 21.5 26.75V14.39C21.5 14.2574 21.5527 14.1302 21.6464 14.0365C21.7402 13.9427 21.8674 13.89 22 13.89C22.1326 13.89 22.2598 13.9427 22.3535 14.0365C22.4473 14.1302 22.5 14.2574 22.5 14.39V18.25C22.5 18.5815 22.6317 18.8995 22.8661 19.1339C23.1005 19.3683 23.4185 19.5 23.75 19.5C24.0815 19.5 24.3995 19.3683 24.6339 19.1339C24.8683 18.8995 25 18.5815 25 18.25V14.64C24.9987 13.5796 24.5768 12.5629 23.827 11.813C23.0771 11.0632 22.0604 10.6413 21 10.64Z" fill="#51247A"/>
<path d="M13 18.258V16.5C13.2652 16.5 13.5196 16.3946 13.7071 16.2071C13.8946 16.0196 14 15.7652 14 15.5C14 15.2348 13.8946 14.9804 13.7071 14.7929C13.5196 14.6054 13.2652 14.5 13 14.5H7C6.73478 14.5 6.48043 14.6054 6.29289 14.7929C6.10536 14.9804 6 15.2348 6 15.5C6 15.7652 6.10536 16.0196 6.29289 16.2071C6.48043 16.3946 6.73478 16.5 7 16.5V18.258C7.04532 18.9767 7.24794 19.6766 7.59353 20.3084C7.93912 20.9401 8.41926 21.4882 9 21.914V26C8.73478 26 8.48043 26.1054 8.29289 26.2929C8.10536 26.4804 8 26.7348 8 27C8 27.2652 8.10536 27.5196 8.29289 27.7071C8.48043 27.8946 8.73478 28 9 28H11C11.2652 28 11.5196 27.8946 11.7071 27.7071C11.8946 27.5196 12 27.2652 12 27C12 26.7348 11.8946 26.4804 11.7071 26.2929C11.5196 26.1054 11.2652 26 11 26V21.914C11.5809 21.4884 12.0612 20.9403 12.4068 20.3086C12.7525 19.6768 12.955 18.9767 13 18.258ZM9 16.75C9 16.6837 9.02634 16.6201 9.07322 16.5732C9.12011 16.5263 9.1837 16.5 9.25 16.5H10.75C10.8163 16.5 10.8799 16.5263 10.9268 16.5732C10.9737 16.6201 11 16.6837 11 16.75V18.258C10.9983 18.7881 10.7877 19.2961 10.414 19.672L10.177 19.909C10.1538 19.9323 10.1262 19.9508 10.0958 19.9634C10.0654 19.976 10.0329 19.9824 10 19.9824C9.96712 19.9824 9.93456 19.976 9.90418 19.9634C9.87381 19.9508 9.84622 19.9323 9.823 19.909L9.586 19.672C9.21229 19.2961 9.00175 18.7881 9 18.258V16.75Z" fill="#51247A"/>
</svg>
