<svg width="32" height="32" viewBox="0 0 32 32" fill="none" xmlns="http://www.w3.org/2000/svg">
<path d="M16 24.063C17.4582 24.0615 18.8562 23.4815 19.8873 22.4504C20.9184 21.4193 21.4984 20.0212 21.5 18.563C21.5 16.205 18.248 10.72 16.849 8.47204C16.7536 8.33506 16.6264 8.22318 16.4784 8.14593C16.3304 8.06867 16.1659 8.02832 15.999 8.02832C15.8321 8.02832 15.6676 8.06867 15.5196 8.14593C15.3716 8.22318 15.2444 8.33506 15.149 8.47204C13.752 10.721 10.5 16.206 10.5 18.563C10.5016 20.0212 11.0816 21.4193 12.1127 22.4504C13.1438 23.4815 14.5418 24.0615 16 24.063ZM12.75 18.063C12.8826 18.063 13.0098 18.1157 13.1036 18.2095C13.1973 18.3033 13.25 18.4304 13.25 18.563C13.2508 19.2921 13.5408 19.9912 14.0563 20.5067C14.5719 21.0223 15.2709 21.3122 16 21.313C16.1326 21.313 16.2598 21.3657 16.3536 21.4595C16.4473 21.5533 16.5 21.6804 16.5 21.813C16.5 21.9456 16.4473 22.0728 16.3536 22.1666C16.2598 22.2604 16.1326 22.313 16 22.313C15.0058 22.312 14.0526 21.9166 13.3495 21.2135C12.6465 20.5105 12.2511 19.5573 12.25 18.563C12.25 18.4304 12.3027 18.3033 12.3964 18.2095C12.4902 18.1157 12.6174 18.063 12.75 18.063Z" fill="white"/>
<path d="M11.789 25.073C11.2628 24.8282 10.7589 24.5381 10.283 24.206C10.1754 24.1292 10.0538 24.0746 9.92495 24.0451C9.79614 24.0157 9.66279 24.0121 9.53258 24.0345C9.40237 24.0569 9.27789 24.1049 9.16634 24.1757C9.05478 24.2465 8.95837 24.3387 8.88266 24.447C8.80695 24.5553 8.75344 24.6775 8.72524 24.8066C8.69704 24.9356 8.69469 25.069 8.71834 25.199C8.74199 25.329 8.79117 25.453 8.86303 25.5639C8.93489 25.6748 9.02801 25.7703 9.137 25.845C9.70813 26.2441 10.3131 26.5924 10.945 26.886C11.1848 26.9938 11.4574 27.0028 11.7039 26.9111C11.9503 26.8194 12.1507 26.6343 12.2616 26.396C12.3726 26.1576 12.3852 25.8851 12.2968 25.6375C12.2083 25.3899 12.0259 25.1871 11.789 25.073Z" fill="white"/>
<path d="M26.384 19.7759C26.2652 19.7199 26.1366 19.6879 26.0054 19.6816C25.8742 19.6753 25.7431 19.6949 25.6195 19.7393C25.4959 19.7837 25.3823 19.852 25.2851 19.9403C25.1879 20.0286 25.109 20.1352 25.053 20.2539C24.8054 20.7784 24.5126 21.2803 24.178 21.7539C24.1003 21.8611 24.0447 21.9827 24.0144 22.1115C23.984 22.2404 23.9796 22.374 24.0012 22.5046C24.0229 22.6352 24.0703 22.7602 24.1407 22.8723C24.2111 22.9844 24.303 23.0815 24.4112 23.1578C24.5194 23.2341 24.6416 23.2882 24.7708 23.3169C24.9001 23.3456 25.0337 23.3484 25.164 23.3251C25.2943 23.3017 25.4187 23.2528 25.5299 23.181C25.6412 23.1092 25.737 23.0161 25.812 22.9069C26.2136 22.3385 26.5649 21.7363 26.862 21.1069C26.918 20.9882 26.9501 20.8595 26.9564 20.7283C26.9627 20.5972 26.943 20.466 26.8987 20.3424C26.8543 20.2188 26.786 20.1052 26.6977 20.008C26.6094 19.9108 26.5028 19.8319 26.384 19.7759Z" fill="white"/>
<path d="M6.95 20.261C6.83675 20.0211 6.63285 19.836 6.38314 19.7465C6.13344 19.6569 5.85839 19.6702 5.6185 19.7835C5.37861 19.8967 5.19353 20.1006 5.10399 20.3503C5.01444 20.6 5.02775 20.8751 5.141 21.115C5.43904 21.744 5.79067 22.3462 6.192 22.915C6.34503 23.1317 6.57787 23.2787 6.83929 23.3237C7.10072 23.3687 7.36932 23.308 7.586 23.155C7.80268 23.0019 7.9497 22.7691 7.9947 22.5077C8.03971 22.2462 7.97903 21.9777 7.826 21.761C7.49104 21.2873 7.19794 20.7854 6.95 20.261Z" fill="white"/>
<path d="M16.874 25.962C16.2951 26.0115 15.7129 26.0115 15.134 25.962C14.8697 25.9392 14.6072 26.0223 14.4042 26.193C14.2012 26.3638 14.0743 26.6082 14.0515 26.8725C14.0287 27.1367 14.1118 27.3993 14.2826 27.6023C14.4533 27.8053 14.6977 27.9322 14.962 27.955C15.6554 28.0145 16.3526 28.0145 17.046 27.955C17.3103 27.9322 17.5547 27.8053 17.7254 27.6023C17.8962 27.3993 17.9793 27.1367 17.9565 26.8725C17.9337 26.6082 17.8068 26.3638 17.6038 26.193C17.4008 26.0223 17.1383 25.9392 16.874 25.962Z" fill="white"/>
<path d="M21.722 24.2C21.2462 24.5321 20.7427 24.8225 20.217 25.068C19.9766 25.1801 19.7905 25.3831 19.6998 25.6323C19.609 25.8815 19.6209 26.1566 19.733 26.397C19.8451 26.6375 20.048 26.8235 20.2973 26.9143C20.5465 27.005 20.8216 26.9931 21.062 26.881C21.6931 26.5861 22.2976 26.2375 22.869 25.839C23.0863 25.6869 23.2344 25.4547 23.2805 25.1935C23.3266 24.9322 23.2671 24.6634 23.115 24.446C22.9629 24.2287 22.7307 24.0807 22.4694 24.0345C22.2082 23.9884 21.9393 24.0479 21.722 24.2Z" fill="white"/>
<path d="M16 4C12.8185 4.00344 9.76821 5.26883 7.51852 7.51852C5.26883 9.76821 4.00344 12.8185 4 16C4 16.367 4.017 16.731 4.049 17.09C4.073 17.3542 4.20096 17.598 4.40471 17.7678C4.60847 17.9376 4.87134 18.0195 5.1355 17.9955C5.39966 17.9715 5.64346 17.8435 5.81327 17.6398C5.98309 17.436 6.065 17.1732 6.041 16.909C6.01367 16.6103 6 16.3073 6 16C6 13.3478 7.05357 10.8043 8.92893 8.92893C10.8043 7.05357 13.3478 6 16 6C18.6522 6 21.1957 7.05357 23.0711 8.92893C24.9464 10.8043 26 13.3478 26 16C26 16.3067 25.9863 16.6097 25.959 16.909C25.935 17.1732 26.0169 17.436 26.1867 17.6398C26.3565 17.8435 26.6003 17.9715 26.8645 17.9955C27.1287 18.0195 27.3915 17.9376 27.5953 17.7678C27.799 17.598 27.927 17.3542 27.951 17.09C27.983 16.731 28 16.367 28 16C27.9966 12.8185 26.7312 9.76821 24.4815 7.51852C22.2318 5.26883 19.1815 4.00344 16 4V4Z" fill="white"/>
</svg>
