<svg width="32" height="32" viewBox="0 0 32 32" fill="none" xmlns="http://www.w3.org/2000/svg">
<path d="M24.2571 15.885C24.2329 13.7084 23.3536 11.6287 21.8091 10.095C21.0445 9.33638 20.135 8.73962 19.1347 8.34033C18.1344 7.94104 17.0639 7.7474 15.9871 7.77096C13.7807 7.80722 11.6771 8.71029 10.1311 10.285C9.35784 11.0556 8.74783 11.9741 8.33753 12.9858C7.92724 13.9974 7.72507 15.0814 7.74311 16.173C7.74193 17.2395 7.95122 18.2957 8.35899 19.2812C8.76676 20.2667 9.365 21.162 10.1194 21.9159C10.8738 22.6698 11.7696 23.2673 12.7554 23.6744C13.7412 24.0814 14.7976 24.2899 15.8641 24.288H16.0131C18.2198 24.2642 20.327 23.3662 21.8724 21.7909C23.4179 20.2156 24.2755 18.0917 24.2571 15.885ZM15.0001 12.027C15.0001 11.7617 15.1055 11.5074 15.293 11.3199C15.4805 11.1323 15.7349 11.027 16.0001 11.027C16.2653 11.027 16.5197 11.1323 16.7072 11.3199C16.8948 11.5074 17.0001 11.7617 17.0001 12.027V16.527C17.0001 16.7922 16.8948 17.0465 16.7072 17.2341C16.5197 17.4216 16.2653 17.527 16.0001 17.527C15.7349 17.527 15.4805 17.4216 15.293 17.2341C15.1055 17.0465 15.0001 16.7922 15.0001 16.527V12.027ZM16.0221 21.05H16.0001C15.6686 21.0527 15.3495 20.9237 15.1132 20.6913C14.8768 20.4588 14.7424 20.142 14.7396 19.8105C14.7368 19.4789 14.8659 19.1599 15.0983 18.9235C15.3308 18.6871 15.6476 18.5527 15.9791 18.55H16.0001C16.3316 18.5473 16.6506 18.6765 16.8869 18.909C17.1232 19.1416 17.2575 19.4584 17.2601 19.79C17.2628 20.1215 17.1336 20.4405 16.9011 20.6768C16.6685 20.9131 16.3516 21.0473 16.0201 21.05H16.0221Z" fill="white"/>
<path d="M9.1801 23.339C8.17876 22.4022 7.37998 21.2702 6.83305 20.0127C6.28612 18.7553 6.00264 17.3992 6.0001 16.028C5.99482 14.6643 6.27106 13.3142 6.81153 12.0623C7.352 10.8103 8.14507 9.68334 9.1411 8.75195C9.23849 8.66233 9.31711 8.55428 9.37242 8.43404C9.42773 8.31381 9.45863 8.1838 9.46332 8.05154C9.468 7.91927 9.44639 7.7874 9.39973 7.66355C9.35307 7.5397 9.28229 7.42635 9.1915 7.33006C9.1007 7.23377 8.9917 7.15647 8.8708 7.10262C8.74991 7.04878 8.61952 7.01946 8.48722 7.01638C8.35491 7.0133 8.2233 7.03652 8.10003 7.08468C7.97676 7.13284 7.86428 7.20499 7.7691 7.29695C6.5736 8.41436 5.62175 9.76662 4.9732 11.269C4.32464 12.7714 3.99336 14.3916 4.0001 16.028C4.00273 17.674 4.34269 19.3021 4.99902 20.8117C5.65534 22.3213 6.6141 23.6803 7.8161 24.805C8.0105 24.9858 8.2688 25.0821 8.53416 25.0725C8.79953 25.0629 9.05022 24.9484 9.2311 24.754C9.41198 24.5595 9.50822 24.3013 9.49866 24.0359C9.48909 23.7705 9.3745 23.5198 9.1801 23.339Z" fill="white"/>
<path d="M24.2081 7.27396C24.1125 7.18341 23.9999 7.11263 23.8769 7.06569C23.7539 7.01875 23.6228 6.99657 23.4911 7.00043C23.3595 7.00429 23.2299 7.03411 23.1099 7.08817C22.9898 7.14224 22.8816 7.21949 22.7914 7.31549C22.7013 7.41149 22.631 7.52435 22.5846 7.64759C22.5382 7.77083 22.5166 7.90202 22.521 8.03363C22.5254 8.16524 22.5558 8.29468 22.6104 8.41452C22.665 8.53436 22.7427 8.64224 22.8391 8.73196C23.8411 9.66397 24.6393 10.7934 25.1834 12.0491C25.7274 13.3048 26.0055 14.6595 26.0001 16.028C25.9979 17.4002 25.7144 18.7573 25.1671 20.0157C24.6199 21.274 23.8204 22.4067 22.8181 23.344C22.6241 23.5248 22.5099 23.7754 22.5006 24.0405C22.4913 24.3055 22.5877 24.5635 22.7686 24.7575C22.9495 24.9515 23.2 25.0657 23.4651 25.075C23.7302 25.0842 23.9881 24.9878 24.1821 24.807C25.3848 23.6861 26.3443 22.3301 27.0012 20.8231C27.658 19.316 27.9983 17.6901 28.0007 16.0461C28.0031 14.4021 27.6678 12.7752 27.0153 11.2662C26.3629 9.75721 25.4074 8.39836 24.2081 7.27396Z" fill="white"/>
</svg>
