<svg width="32" height="32" viewBox="0 0 32 32" fill="none" xmlns="http://www.w3.org/2000/svg">
<path d="M13.3478 28H7.08696C6.53346 28 6.00264 27.7801 5.61126 27.3888C5.21988 26.9974 5 26.4666 5 25.9131V6.08698" stroke="#51247A" stroke-width="1.33" stroke-linecap="round" stroke-linejoin="round"/>
<path d="M24.8261 4H7.08696C6.53346 4 6.00264 4.21988 5.61126 4.61126C5.21988 5.00264 5 5.53346 5 6.08696C5 6.64045 5.21988 7.17128 5.61126 7.56266C6.00264 7.95404 6.53346 8.17391 7.08696 8.17391H23.7826C24.0594 8.17391 24.3248 8.28385 24.5205 8.47954C24.7161 8.67523 24.8261 8.94064 24.8261 9.21739V12.8696" stroke="#51247A" stroke-width="1.33" stroke-linecap="round" stroke-linejoin="round"/>
<path d="M7.08694 6.08698H23.7826" stroke="#51247A" stroke-width="1.33" stroke-linecap="round" stroke-linejoin="round"/>
<path d="M14.3882 21.7391C14.3882 23.3996 15.0478 24.9921 16.2219 26.1662C17.3961 27.3404 18.9885 28 20.649 28C22.3095 28 23.902 27.3404 25.0761 26.1662C26.2503 24.9921 26.9099 23.3996 26.9099 21.7391C26.9099 20.0787 26.2503 18.4862 25.0761 17.312C23.902 16.1379 22.3095 15.4783 20.649 15.4783C18.9885 15.4783 17.3961 16.1379 16.2219 17.312C15.0478 18.4862 14.3882 20.0787 14.3882 21.7391Z" stroke="#51247A" stroke-width="1.33" stroke-linecap="round" stroke-linejoin="round"/>
<path d="M20.649 24.8696V18.6087" stroke="#51247A" stroke-width="1.33" stroke-linecap="round" stroke-linejoin="round"/>
<path d="M20.649 18.6087L18.3012 20.9565" stroke="#51247A" stroke-width="1.33" stroke-linecap="round" stroke-linejoin="round"/>
<path d="M20.649 18.6087L22.9969 20.9565" stroke="#51247A" stroke-width="1.33" stroke-linecap="round" stroke-linejoin="round"/>
</svg>
