<svg width="32" height="32" viewBox="0 0 32 32" fill="none" xmlns="http://www.w3.org/2000/svg">
<path d="M5.59411 14.0178C4.76594 13.1322 4.23005 12.0135 4.05908 10.8131C3.88811 9.61279 4.09032 8.3889 4.63831 7.30734V7.30734C5.07537 6.45783 5.70604 5.72299 6.47942 5.16212C7.2528 4.60125 8.14722 4.23007 9.09047 4.07855C10.0337 3.92703 10.9994 3.99941 11.9095 4.28984C12.8197 4.58027 13.6487 5.08063 14.3299 5.75051L15.9994 7.27291L17.6689 5.75051C18.3497 5.08047 19.1784 4.57987 20.0883 4.28912C20.9981 3.99837 21.9636 3.92562 22.9067 4.07673C23.8499 4.22785 24.7443 4.5986 25.5178 5.15906C26.2913 5.71952 26.9221 6.45398 27.3594 7.30317V7.30317C27.9265 8.42393 28.1223 9.69607 27.9184 10.9355C27.7145 12.1749 27.1215 13.3172 26.2252 14.1972L16.3719 24.3417C16.3233 24.3918 16.2651 24.4317 16.2007 24.459C16.1364 24.4862 16.0672 24.5003 15.9973 24.5003C15.9274 24.5003 15.8583 24.4862 15.7939 24.459C15.7296 24.4317 15.6713 24.3918 15.6227 24.3417L14.4749 23.1594" stroke="#51247A" stroke-width="1.33" stroke-linecap="round" stroke-linejoin="round"/>
<path d="M10.2604 13.3917L4.09258 21.0944C4.04459 21.1515 4.01385 21.221 4.00397 21.2949C3.99409 21.3689 4.00547 21.444 4.03679 21.5117C4.06811 21.5794 4.11806 21.6367 4.18079 21.677C4.24352 21.7173 4.31644 21.7389 4.391 21.7393H7.13006V28L13.2979 20.2972C13.3459 20.2402 13.3766 20.1706 13.3865 20.0967C13.3964 20.0228 13.385 19.9476 13.3537 19.8799C13.3224 19.8123 13.2724 19.7549 13.2097 19.7146C13.147 19.6743 13.074 19.6527 12.9995 19.6524H10.2604V13.3917Z" stroke="#51247A" stroke-width="1.33" stroke-linecap="round" stroke-linejoin="round"/>
</svg>
