<svg width="32" height="32" viewBox="0 0 32 32" fill="none" xmlns="http://www.w3.org/2000/svg">
<path d="M19.3072 8.25399C19.3444 8.05538 19.3646 7.85398 19.3678 7.65194C19.3678 6.68339 18.983 5.7545 18.2981 5.06963C17.6133 4.38476 16.6844 4 15.7158 4C14.7473 4 13.8184 4.38476 13.1335 5.06963C12.4486 5.7545 12.0639 6.68339 12.0639 7.65194C12.0674 7.85401 12.0879 8.05541 12.1254 8.25399C12.8078 8.24466 13.4804 8.09109 14.0992 7.80336C14.718 7.51564 15.2689 7.10027 15.7158 6.58453C16.163 7.10019 16.7141 7.5155 17.333 7.80321C17.952 8.09092 18.6248 8.24454 19.3072 8.25399V8.25399Z" stroke="#51247A" stroke-width="1.33" stroke-linecap="round" stroke-linejoin="round"/>
<path d="M12.0639 7.65194C12.0639 8.6205 12.4486 9.54939 13.1335 10.2343C13.8184 10.9191 14.7473 11.3039 15.7158 11.3039C16.6844 11.3039 17.6133 10.9191 18.2981 10.2343C18.983 9.54939 19.3678 8.6205 19.3678 7.65194C19.3678 6.68339 18.983 5.7545 18.2981 5.06963C17.6133 4.38476 16.6844 4 15.7158 4C14.7473 4 13.8184 4.38476 13.1335 5.06963C12.4486 5.7545 12.0639 6.68339 12.0639 7.65194V7.65194Z" stroke="#51247A" stroke-width="1.33" stroke-linecap="round" stroke-linejoin="round"/>
<path d="M15.7388 12.869C16.631 12.8681 17.4974 13.1682 18.198 13.7207C18.8986 14.2732 19.3923 15.0458 19.5994 15.9137L21.4775 22.7814H18.3922L17.2924 27.9985H14.1622L13.0624 22.7814H10L11.8781 15.9137C12.0852 15.0458 12.579 14.2732 13.2795 13.7207C13.9801 13.1682 14.8466 12.8681 15.7388 12.869Z" stroke="#51247A" stroke-width="1.33" stroke-linecap="round" stroke-linejoin="round"/>
</svg>
