<svg width="32" height="32" viewBox="0 0 32 32" fill="none" xmlns="http://www.w3.org/2000/svg">
<path d="M4 9.26663C4 9.53056 4.05198 9.79189 4.15298 10.0357C4.25398 10.2796 4.40202 10.5011 4.58864 10.6877C4.77526 10.8744 4.99681 11.0224 5.24064 11.1234C5.48448 11.2244 5.74581 11.2764 6.00974 11.2764C6.27366 11.2764 6.535 11.2244 6.77883 11.1234C7.02266 11.0224 7.24421 10.8744 7.43084 10.6877C7.61746 10.5011 7.76549 10.2796 7.86649 10.0357C7.96749 9.79189 8.01947 9.53056 8.01947 9.26663C8.01947 9.00271 7.96749 8.74137 7.86649 8.49754C7.76549 8.25371 7.61746 8.03216 7.43084 7.84554C7.24421 7.65891 7.02266 7.51088 6.77883 7.40988C6.535 7.30888 6.27366 7.2569 6.00974 7.2569C5.74581 7.2569 5.48448 7.30888 5.24064 7.40988C4.99681 7.51088 4.77526 7.65891 4.58864 7.84554C4.40202 8.03216 4.25398 8.25371 4.15298 8.49754C4.05198 8.74137 4 9.00271 4 9.26663V9.26663Z" stroke="#51247A" stroke-width="1.33" stroke-linecap="round" stroke-linejoin="round"/>
<path d="M8.008 9.48889L8.56939 4.46455C8.57977 4.37037 8.61561 4.28079 8.67305 4.20544C8.73049 4.13009 8.80737 4.0718 8.89543 4.03683C8.9835 4.00186 9.07942 3.99154 9.17291 4.00696C9.26639 4.02238 9.35392 4.06297 9.42608 4.12437L11.4515 5.82941" stroke="#51247A" stroke-width="1.33" stroke-linecap="round" stroke-linejoin="round"/>
<path d="M6.08698 19.8767C6.08698 20.2055 6.21758 20.5208 6.45006 20.7533C6.68254 20.9857 6.99785 21.1164 7.32663 21.1164C7.6554 21.1164 7.97071 20.9857 8.20319 20.7533C8.43567 20.5208 8.56628 20.2055 8.56628 19.8767C8.56628 19.5479 8.43567 19.2326 8.20319 19.0001C7.97071 18.7677 7.6554 18.6371 7.32663 18.6371C6.99785 18.6371 6.68254 18.7677 6.45006 19.0001C6.21758 19.2326 6.08698 19.5479 6.08698 19.8767V19.8767Z" stroke="#51247A" stroke-width="1.33" stroke-linecap="round" stroke-linejoin="round"/>
<path d="M8.53182 19.5897L7.89739 16.9216C7.87544 16.8297 7.87886 16.7335 7.90729 16.6434C7.93571 16.5533 7.98808 16.4726 8.05878 16.41C8.12949 16.3473 8.21589 16.305 8.30876 16.2876C8.40163 16.2702 8.49748 16.2783 8.58608 16.3111L9.7673 16.7484" stroke="#51247A" stroke-width="1.33" stroke-linecap="round" stroke-linejoin="round"/>
<path d="M17.0435 6.62767C17.0435 7.31954 17.3183 7.98307 17.8075 8.4723C18.2968 8.96152 18.9603 9.23637 19.6521 9.23637C20.344 9.23637 21.0075 8.96152 21.4968 8.4723C21.986 7.98307 22.2608 7.31954 22.2608 6.62767C22.2608 5.93581 21.986 5.27228 21.4968 4.78305C21.0075 4.29383 20.344 4.01898 19.6521 4.01898C18.9603 4.01898 18.2968 4.29383 17.8075 4.78305C17.3183 5.27228 17.0435 5.93581 17.0435 6.62767V6.62767Z" stroke="#51247A" stroke-width="1.33" stroke-linecap="round" stroke-linejoin="round"/>
<path d="M27.6567 11.0959C27.3975 10.7717 27.0201 10.5637 26.6076 10.5178C26.1951 10.4718 25.7813 10.5915 25.457 10.8506L24.7005 11.4559C24.3477 11.7383 23.9275 11.9242 23.4811 11.9953C23.0348 12.0665 22.5776 12.0205 22.1544 11.8618C20.5398 11.2562 18.7604 11.2562 17.1457 11.8618L16.8139 11.9932C16.4465 12.1317 16.0524 12.1848 15.6614 12.1487C15.2704 12.1125 14.8927 11.988 14.5569 11.7845L13.6751 11.2565C13.3194 11.0478 12.8957 10.9878 12.4961 11.0897C12.0964 11.1917 11.7531 11.4472 11.5409 11.8008C11.3286 12.1544 11.2645 12.5775 11.3624 12.9782C11.4604 13.3788 11.7125 13.7246 12.064 13.9404L12.9458 14.4694C13.6855 14.9161 14.5171 15.1889 15.3777 15.2671C16.2384 15.3454 17.1055 15.2271 17.9137 14.9212C17.9588 14.904 18.0073 14.8974 18.0554 14.9019C18.1034 14.9065 18.1498 14.9221 18.1908 14.9476C18.2318 14.9731 18.2664 15.0077 18.2919 15.0487C18.3173 15.0898 18.3329 15.1361 18.3374 15.1842L18.473 16.5407C18.4842 16.6465 18.4628 16.7531 18.4117 16.8463C18.3606 16.9396 18.2823 17.015 18.1871 17.0625L16.5635 17.8743C15.6079 18.3482 14.8042 19.0804 14.2436 19.9878C13.6829 20.8952 13.3877 21.9415 13.3913 23.0082V25.1244C13.3913 25.5395 13.5562 25.9376 13.8498 26.2311C14.1433 26.5247 14.5414 26.6896 14.9565 26.6896C15.3717 26.6896 15.7698 26.5247 16.0633 26.2311C16.3568 25.9376 16.5217 25.5395 16.5217 25.1244V23.0009C16.52 22.516 16.6541 22.0404 16.909 21.628C17.1639 21.2156 17.5294 20.8829 17.9638 20.6677L18.6087 20.3411V20.5873C18.6101 21.8308 19.0127 23.0406 19.7565 24.0371L21.8863 26.868C22.0096 27.0324 22.1641 27.171 22.341 27.2757C22.5178 27.3804 22.7136 27.4493 22.9171 27.4784C23.1206 27.5074 23.3278 27.4961 23.5269 27.4451C23.726 27.3941 23.9131 27.3044 24.0776 27.1811C24.242 27.0577 24.3805 26.9032 24.4853 26.7263C24.59 26.5495 24.6589 26.3537 24.6879 26.1502C24.717 25.9468 24.7057 25.7395 24.6547 25.5404C24.6037 25.3413 24.5139 25.1542 24.3906 24.9897L22.2609 22.1598C21.9234 21.7077 21.7405 21.1588 21.7391 20.5946V17.8127L21.7318 17.6562L21.5304 15.635C21.5223 15.5552 21.5327 15.4746 21.5607 15.3995C21.5888 15.3244 21.6338 15.2567 21.6922 15.2018C21.7507 15.1469 21.821 15.1062 21.8977 15.0829C21.9744 15.0596 22.0555 15.0542 22.1346 15.0673C22.9281 15.2002 23.7406 15.1651 24.5197 14.9641C25.2987 14.7631 26.0269 14.4009 26.657 13.9007L27.4136 13.2955C27.7374 13.036 27.9449 12.6585 27.9905 12.246C28.0361 11.8335 27.916 11.4198 27.6567 11.0959Z" stroke="#51247A" stroke-width="1.33" stroke-linecap="round" stroke-linejoin="round"/>
</svg>
