<svg width="32" height="32" viewBox="0 0 32 32" fill="none" xmlns="http://www.w3.org/2000/svg">
<path d="M4 23.8261C4 24.9331 4.43975 25.9947 5.22251 26.7775C6.00527 27.5602 7.06692 28 8.17391 28C9.2809 28 10.3426 27.5602 11.1253 26.7775C11.9081 25.9947 12.3478 24.9331 12.3478 23.8261C12.3478 22.7191 11.9081 21.6574 11.1253 20.8747C10.3426 20.0919 9.2809 19.6522 8.17391 19.6522C7.06692 19.6522 6.00527 20.0919 5.22251 20.8747C4.43975 21.6574 4 22.7191 4 23.8261V23.8261Z" stroke="#51247A" stroke-width="1.33" stroke-linecap="round" stroke-linejoin="round"/>
<path d="M19.6522 23.8261C19.6522 24.9331 20.0919 25.9947 20.8747 26.7775C21.6574 27.5602 22.7191 28 23.8261 28C24.9331 28 25.9947 27.5602 26.7775 26.7775C27.5602 25.9947 28 24.9331 28 23.8261C28 22.7191 27.5602 21.6574 26.7775 20.8747C25.9947 20.0919 24.9331 19.6522 23.8261 19.6522C22.7191 19.6522 21.6574 20.0919 20.8747 20.8747C20.0919 21.6574 19.6522 22.7191 19.6522 23.8261V23.8261Z" stroke="#51247A" stroke-width="1.33" stroke-linecap="round" stroke-linejoin="round"/>
<path d="M14.9566 23.8261L20.8877 15.8477L12.8696 18.6087L8.9576 22.9558C8.88994 23.0308 8.84549 23.1238 8.82964 23.2235C8.8138 23.3233 8.82724 23.4255 8.86834 23.5177C8.90944 23.61 8.97642 23.6883 9.06117 23.7432C9.14592 23.7982 9.24479 23.8273 9.34578 23.8271H14.9566L11.5653 15.4793" stroke="#51247A" stroke-width="1.33" stroke-linecap="round" stroke-linejoin="round"/>
<path d="M23.8261 23.8261L20.3753 14.4588C20.3501 14.3901 20.3397 14.3169 20.3446 14.2439C20.3496 14.1709 20.3699 14.0998 20.4041 14.0351C20.4384 13.9705 20.4858 13.9137 20.5434 13.8686C20.601 13.8235 20.6674 13.791 20.7384 13.7732L22.2608 13.3913" stroke="#51247A" stroke-width="1.33" stroke-linecap="round" stroke-linejoin="round"/>
<path d="M10.2609 15.4783H13.3913" stroke="#51247A" stroke-width="1.33" stroke-linecap="round" stroke-linejoin="round"/>
<path d="M15.687 9.73914L22.0334 9.74644C22.102 9.74656 22.1699 9.73317 22.2333 9.70703C22.2966 9.68089 22.3543 9.64251 22.4028 9.59409L23.3774 8.61949C23.4716 8.52536 23.5262 8.3988 23.53 8.26572C23.5339 8.13264 23.4868 8.00311 23.3983 7.90366L22.4049 6.78401C22.3563 6.72926 22.2967 6.68536 22.23 6.65515C22.1633 6.62495 22.091 6.60912 22.0178 6.6087H15.687C15.3237 5.71076 14.6595 4.9671 13.8081 4.50518C12.9567 4.04326 11.9712 3.89184 11.0204 4.07686C10.0696 4.26189 9.21272 4.77184 8.59668 5.51933C7.98063 6.26681 7.64374 7.20529 7.64374 8.17392C7.64374 9.14255 7.98063 10.081 8.59668 10.8285C9.21272 11.576 10.0696 12.086 11.0204 12.271C11.9712 12.456 12.9567 12.3046 13.8081 11.8427C14.6595 11.3807 15.3237 10.6371 15.687 9.73914V9.73914Z" stroke="#51247A" stroke-width="1.33" stroke-linecap="round" stroke-linejoin="round"/>
<path d="M10.2609 8.17392C10.2609 8.58904 10.4258 8.98716 10.7193 9.2807C11.0128 9.57423 11.411 9.73914 11.8261 9.73914C12.2412 9.73914 12.6393 9.57423 12.9329 9.2807C13.2264 8.98716 13.3913 8.58904 13.3913 8.17392C13.3913 7.7588 13.2264 7.36068 12.9329 7.06715C12.6393 6.77361 12.2412 6.6087 11.8261 6.6087C11.411 6.6087 11.0128 6.77361 10.7193 7.06715C10.4258 7.36068 10.2609 7.7588 10.2609 8.17392Z" stroke="#51247A" stroke-width="1.33" stroke-linecap="round" stroke-linejoin="round"/>
</svg>
