<svg width="32" height="32" viewBox="0 0 32 32" fill="none" xmlns="http://www.w3.org/2000/svg">
<path d="M6.08694 7H19.6522V22.6522H6.08694V7Z" stroke="#51247A" stroke-width="1.33" stroke-linecap="round" stroke-linejoin="round"/>
<path d="M8.17392 22.6522V23.6956C8.17392 23.9724 8.28386 24.2378 8.47955 24.4335C8.67524 24.6292 8.94065 24.7391 9.2174 24.7391C9.49415 24.7391 9.75956 24.6292 9.95525 24.4335C10.1509 24.2378 10.2609 23.9724 10.2609 23.6956V22.6522" stroke="#51247A" stroke-width="1.33" stroke-linecap="round" stroke-linejoin="round"/>
<path d="M15.4783 22.6522V23.6956C15.4783 23.9724 15.5882 24.2378 15.7839 24.4335C15.9796 24.6292 16.245 24.7391 16.5217 24.7391C16.7985 24.7391 17.0639 24.6292 17.2596 24.4335C17.4553 24.2378 17.5652 23.9724 17.5652 23.6956V22.6522" stroke="#51247A" stroke-width="1.33" stroke-linecap="round" stroke-linejoin="round"/>
<path d="M6.08696 15.3478H5.04348C4.76673 15.3478 4.50132 15.2379 4.30563 15.0422C4.10994 14.8465 4 14.5811 4 14.3043V12.2174C4 11.9406 4.10994 11.6752 4.30563 11.4795C4.50132 11.2838 4.76673 11.1739 5.04348 11.1739H6.08696" stroke="#51247A" stroke-width="1.33" stroke-linecap="round" stroke-linejoin="round"/>
<path d="M19.6522 15.3478H20.6957C20.9724 15.3478 21.2378 15.2379 21.4335 15.0422C21.6292 14.8465 21.7391 14.5811 21.7391 14.3043V12.2174C21.7391 11.9406 21.6292 11.6752 21.4335 11.4795C21.2378 11.2838 20.9724 11.1739 20.6957 11.1739H19.6522" stroke="#51247A" stroke-width="1.33" stroke-linecap="round" stroke-linejoin="round"/>
<path d="M6.08694 17.4348H19.6522" stroke="#51247A" stroke-width="1.33" stroke-linecap="round" stroke-linejoin="round"/>
<path d="M8.17392 19.5217H9.2174" stroke="#51247A" stroke-width="1.33" stroke-linecap="round" stroke-linejoin="round"/>
<path d="M16.5217 19.5217H17.5652" stroke="#51247A" stroke-width="1.33" stroke-linecap="round" stroke-linejoin="round"/>
<path d="M9.21738 9.34784C9.28656 9.34784 9.35292 9.37532 9.40184 9.42425C9.45076 9.47317 9.47825 9.53952 9.47825 9.60871" stroke="#51247A" stroke-width="1.33" stroke-linecap="round" stroke-linejoin="round"/>
<path d="M8.95651 9.60871C8.95651 9.53952 8.984 9.47317 9.03292 9.42425C9.08184 9.37532 9.1482 9.34784 9.21738 9.34784" stroke="#51247A" stroke-width="1.33" stroke-linecap="round" stroke-linejoin="round"/>
<path d="M9.21738 9.86957C9.1482 9.86957 9.08184 9.84209 9.03292 9.79317C8.984 9.74424 8.95651 9.67789 8.95651 9.6087" stroke="#51247A" stroke-width="1.33" stroke-linecap="round" stroke-linejoin="round"/>
<path d="M9.47825 9.6087C9.47825 9.67789 9.45076 9.74424 9.40184 9.79317C9.35292 9.84209 9.28656 9.86957 9.21738 9.86957" stroke="#51247A" stroke-width="1.33" stroke-linecap="round" stroke-linejoin="round"/>
<path d="M11.8261 9.6087H12.8696" stroke="#51247A" stroke-width="1.33" stroke-linecap="round" stroke-linejoin="round"/>
<path d="M23.8261 15.3478C23.8261 15.9013 24.046 16.4321 24.4373 16.8235C24.8287 17.2149 25.3595 17.4348 25.913 17.4348C26.4665 17.4348 26.9974 17.2149 27.3887 16.8235C27.7801 16.4321 28 15.9013 28 15.3478C28 14.7943 27.7801 14.2635 27.3887 13.8721C26.9974 13.4807 26.4665 13.2609 25.913 13.2609C25.3595 13.2609 24.8287 13.4807 24.4373 13.8721C24.046 14.2635 23.8261 14.7943 23.8261 15.3478Z" stroke="#51247A" stroke-width="1.33" stroke-linecap="round" stroke-linejoin="round"/>
<path d="M25.913 17.4348V24.7391" stroke="#51247A" stroke-width="1.33" stroke-linecap="round" stroke-linejoin="round"/>
</svg>
