<svg width="32" height="32" viewBox="0 0 32 32" fill="none" xmlns="http://www.w3.org/2000/svg">
<path d="M4.78261 12.087C4.78261 12.848 5.08494 13.5779 5.62308 14.1161C6.16123 14.6542 6.89112 14.9565 7.65217 14.9565C8.41323 14.9565 9.14311 14.6542 9.68126 14.1161C10.2194 13.5779 10.5217 12.848 10.5217 12.087C10.5217 11.3259 10.2194 10.596 9.68126 10.0579C9.14311 9.51974 8.41323 9.21741 7.65217 9.21741C6.89112 9.21741 6.16123 9.51974 5.62308 10.0579C5.08494 10.596 4.78261 11.3259 4.78261 12.087V12.087Z" stroke="#51247A" stroke-width="1.33" stroke-linecap="round" stroke-linejoin="round"/>
<path d="M11.3043 19.6522C11.3043 18.6836 10.9196 17.7546 10.2347 17.0697C9.54974 16.3848 8.62079 16 7.65217 16C6.68356 16 5.75461 16.3848 5.0697 17.0697C4.38478 17.7546 4 18.6836 4 19.6522V22.7826H5.65183L6.08696 28H9.21739L9.65252 22.7826H11.3043V19.6522Z" stroke="#51247A" stroke-width="1.33" stroke-linecap="round" stroke-linejoin="round"/>
<path d="M22.0073 22.7826H13.3913" stroke="#51247A" stroke-width="1.33" stroke-linecap="round" stroke-linejoin="round"/>
<path d="M13.3913 4H20.6957V13.3913H13.3913V4Z" stroke="#51247A" stroke-width="1.33" stroke-linecap="round" stroke-linejoin="round"/>
<path d="M15.4783 6.08698H18.6087V11.3044H15.4783V6.08698Z" stroke="#51247A" stroke-width="1.33" stroke-linecap="round" stroke-linejoin="round"/>
<path d="M28 25.6532C28.0034 25.6864 27.9997 25.7199 27.9892 25.7516C27.9787 25.7833 27.9616 25.8123 27.939 25.8369C27.9164 25.8614 27.8889 25.8809 27.8582 25.8941C27.8275 25.9072 27.7944 25.9137 27.761 25.913H21.9791C21.9458 25.9137 21.9127 25.9072 21.882 25.8941C21.8513 25.8809 21.8238 25.8614 21.8012 25.8369C21.7786 25.8123 21.7615 25.7833 21.751 25.7516C21.7404 25.7199 21.7368 25.6864 21.7402 25.6532L22.3214 18.8706C22.3288 18.8001 22.3617 18.7347 22.414 18.6869C22.4663 18.639 22.5343 18.6119 22.6052 18.6108H27.1339C27.2048 18.6119 27.2728 18.639 27.3251 18.6869C27.3774 18.7347 27.4103 18.8001 27.4177 18.8706L28 25.6532Z" stroke="#51247A" stroke-width="1.33" stroke-linecap="round" stroke-linejoin="round"/>
<path d="M25.913 13.9131L26.9565 12.3478H22.7826L23.8261 13.9131C23.5456 13.9972 23.2996 14.1695 23.1248 14.4045C22.9499 14.6395 22.8555 14.9245 22.8555 15.2174C22.8555 15.5103 22.9499 15.7954 23.1248 16.0303C23.2996 16.2653 23.5456 16.4376 23.8261 16.5218H25.913C26.1936 16.4376 26.4395 16.2653 26.6144 16.0303C26.7892 15.7954 26.8836 15.5103 26.8836 15.2174C26.8836 14.9245 26.7892 14.6395 26.6144 14.4045C26.4395 14.1695 26.1936 13.9972 25.913 13.9131Z" stroke="#51247A" stroke-width="1.33" stroke-linecap="round" stroke-linejoin="round"/>
<path d="M24.8696 16.5217V18.6087" stroke="#51247A" stroke-width="1.33" stroke-linecap="round" stroke-linejoin="round"/>
</svg>
