<svg width="32" height="32" viewBox="0 0 32 32" fill="none" xmlns="http://www.w3.org/2000/svg">
<path d="M12.2894 16.7582C11.8647 18.5373 12.4344 20.0848 15.4198 19.3888C17.7687 21.362 18.9332 20.426 19.4038 18.4612C19.8306 16.6758 18.7026 13.2949 16.9871 11.6222C16.9298 11.5662 16.8603 11.5242 16.7841 11.4993C16.7079 11.4745 16.627 11.4676 16.5476 11.4791C16.4683 11.4906 16.3927 11.5202 16.3267 11.5657C16.2607 11.6111 16.206 11.6712 16.1669 11.7412C14.9795 13.8667 12.7809 14.7088 12.2894 16.7582Z" stroke="#51247A" stroke-width="1.33" stroke-linecap="round" stroke-linejoin="round"/>
<path d="M15.4783 21.6041C15.2988 19.3022 15.3311 16.3418 16.3871 14.665" stroke="#51247A" stroke-width="1.33" stroke-linecap="round" stroke-linejoin="round"/>
<path d="M22.7586 10.1258C21.5832 8.74275 20.0118 7.75357 18.2564 7.29182C16.5011 6.83006 14.6463 6.91796 12.9425 7.54366C11.2387 8.16935 9.76781 9.30271 8.72848 10.7908C7.68915 12.2788 7.13137 14.0499 7.13043 15.865V18.4737" stroke="#51247A" stroke-width="1.33" stroke-linecap="round" stroke-linejoin="round"/>
<path d="M10.2609 14.2997L7.13043 18.4737L4 14.2997" stroke="#51247A" stroke-width="1.33" stroke-linecap="round" stroke-linejoin="round"/>
<path d="M9.24139 21.6093C10.4171 22.9928 11.989 23.9821 13.7448 24.4437C15.5007 24.9053 17.3559 24.817 19.06 24.1906C20.764 23.5643 22.2348 22.4301 23.2738 20.9412C24.3127 19.4523 24.8697 17.6805 24.8696 15.865V13.2563" stroke="#51247A" stroke-width="1.33" stroke-linecap="round" stroke-linejoin="round"/>
<path d="M21.7391 17.4302L24.8696 13.2563L28 17.4302" stroke="#51247A" stroke-width="1.33" stroke-linecap="round" stroke-linejoin="round"/>
</svg>
