<svg width="32" height="32" viewBox="0 0 32 32" fill="none" xmlns="http://www.w3.org/2000/svg">
<path d="M19.4783 28H12.1739C11.6204 28 11.0896 27.7801 10.6982 27.3888C10.3069 26.9974 10.087 26.4665 10.087 25.9131V15.4783H21.5652V25.9131C21.5652 26.4665 21.3454 26.9974 20.954 27.3888C20.5626 27.7801 20.0318 28 19.4783 28V28Z" stroke="#51247A" stroke-width="1.33" stroke-linecap="round" stroke-linejoin="round"/>
<path d="M17.3913 5.56522C17.3913 5.1501 17.2264 4.75198 16.9329 4.45844C16.6393 4.16491 16.2412 4 15.8261 4C15.411 4 15.0128 4.16491 14.7193 4.45844C14.4258 4.75198 14.2609 5.1501 14.2609 5.56522C14.2609 10.191 11.1304 8.71757 11.1304 12.3478H20.5217C20.5217 8.71757 17.3913 10.1899 17.3913 5.56522Z" stroke="#51247A" stroke-width="1.33" stroke-linecap="round" stroke-linejoin="round"/>
<path d="M8 13.9131C8 14.3282 8.16491 14.7263 8.45844 15.0198C8.75198 15.3134 9.1501 15.4783 9.56522 15.4783H22.087C22.5021 15.4783 22.9002 15.3134 23.1937 15.0198C23.4873 14.7263 23.6522 14.3282 23.6522 13.9131C23.6522 13.4979 23.4873 13.0998 23.1937 12.8063C22.9002 12.5127 22.5021 12.3478 22.087 12.3478H9.56522C9.1501 12.3478 8.75198 12.5127 8.45844 12.8063C8.16491 13.0998 8 13.4979 8 13.9131Z" stroke="#51247A" stroke-width="1.33" stroke-linecap="round" stroke-linejoin="round"/>
<path d="M18.4348 18.6087H21.5652" stroke="#51247A" stroke-width="1.33" stroke-linecap="round" stroke-linejoin="round"/>
<path d="M18.4348 21.7391H21.5652" stroke="#51247A" stroke-width="1.33" stroke-linecap="round" stroke-linejoin="round"/>
<path d="M18.4348 24.8696H21.5652" stroke="#51247A" stroke-width="1.33" stroke-linecap="round" stroke-linejoin="round"/>
</svg>
