<svg width="32" height="32" viewBox="0 0 32 32" fill="none" xmlns="http://www.w3.org/2000/svg">
<path d="M16.0175 25.7563C16.0175 23.5745 17.0909 22.4836 19.2727 22.4836H24.7273C25.0166 22.4836 25.2941 22.3686 25.4987 22.164C25.7033 21.9594 25.8182 21.682 25.8182 21.3926V6.11991C25.8182 5.83059 25.7033 5.55311 25.4987 5.34853C25.2941 5.14394 25.0166 5.02901 24.7273 5.02901H19.2727C18.8282 4.96558 18.375 5.0065 17.949 5.14854C17.523 5.29058 17.1359 5.52984 16.8184 5.84737C16.5008 6.1649 16.2616 6.55198 16.1195 6.97797C15.9775 7.40397 15.9366 7.85718 16 8.30173C16.0634 7.85718 16.0225 7.40397 15.8805 6.97797C15.7384 6.55198 15.4992 6.1649 15.1816 5.84737C14.8641 5.52984 14.477 5.29058 14.051 5.14854C13.625 5.0065 13.1718 4.96558 12.7273 5.02901H7.27273C6.98341 5.02901 6.70593 5.14394 6.50134 5.34853C6.29676 5.55311 6.18182 5.83059 6.18182 6.11991V21.3926C6.18182 21.682 6.29676 21.9594 6.50134 22.164C6.70593 22.3686 6.98341 22.4836 7.27273 22.4836H12.7273C14.9091 22.4836 16.0175 23.5745 16.0175 25.7563Z" stroke="#51247A" stroke-width="1.33" stroke-linecap="round" stroke-linejoin="round"/>
<path d="M25.8182 7.21082H26.9091C27.1984 7.21082 27.4759 7.32576 27.6805 7.53034C27.8851 7.73493 28 8.0124 28 8.30173V23.5745C28 23.8638 27.8851 24.1413 27.6805 24.3458C27.4759 24.5504 27.1984 24.6654 26.9091 24.6654H21.4545C19.2727 24.6654 17.6364 25.7563 17.6364 27.9381H14.3636C14.3636 25.7563 12.7273 24.6654 10.5455 24.6654H5.09091C4.80158 24.6654 4.5241 24.5504 4.31952 24.3458C4.11493 24.1413 4 23.8638 4 23.5745V8.30173C4 8.0124 4.11493 7.73493 4.31952 7.53034C4.5241 7.32576 4.80158 7.21082 5.09091 7.21082H6.18182" stroke="#51247A" stroke-width="1.33" stroke-linecap="round" stroke-linejoin="round"/>
<path d="M16 8.30173V25.2108" stroke="#51247A" stroke-width="1.33" stroke-linecap="round" stroke-linejoin="round"/>
</svg>
