<svg width="32" height="32" viewBox="0 0 32 32" fill="none" xmlns="http://www.w3.org/2000/svg">
<path d="M19.566 28C19.7177 28.0002 19.8677 27.9674 20.0054 27.9037C20.1432 27.8401 20.2654 27.7471 20.3636 27.6314C20.4617 27.5157 20.5334 27.3799 20.5737 27.2336C20.614 27.0873 20.6219 26.934 20.5969 26.7843C20.2889 25.0748 19.39 23.5278 18.0573 22.4137C16.7245 21.2996 15.0427 20.6893 13.3056 20.6893C11.5685 20.6893 9.8867 21.2996 8.55395 22.4137C7.22121 23.5278 6.3223 25.0748 6.0143 26.7843C5.98928 26.9339 5.99716 27.0871 6.0374 27.2334C6.07765 27.3796 6.14928 27.5153 6.24732 27.631C6.34535 27.7467 6.46744 27.8397 6.60506 27.9034C6.74269 27.9671 6.89255 28.0001 7.04422 28H19.566Z" stroke="#51247A" stroke-width="1.33" stroke-linecap="round" stroke-linejoin="round"/>
<path d="M14.6126 4C14.5726 4.33948 14.6559 4.68204 14.8474 4.96522L17.5427 9.05774L13.6818 13.9882C13.4269 14.3168 13.3126 14.733 13.3641 15.1457C13.4155 15.5584 13.6284 15.9339 13.9562 16.1899C14.2799 16.444 14.691 16.5594 15.0996 16.5109C15.5082 16.4624 15.8809 16.2539 16.136 15.9311L23.2202 6.87791C22.8821 10.696 23.4894 11.7165 24.3107 12.3593C25.1319 13.0021 25.9802 11.9231 26.0512 11.0591L26.5813 4" stroke="#51247A" stroke-width="1.33" stroke-linecap="round" stroke-linejoin="round"/>
<path d="M13.304 20.6957V18.6087" stroke="#51247A" stroke-width="1.33" stroke-linecap="round" stroke-linejoin="round"/>
<path d="M15.9127 18.6087H10.6953" stroke="#51247A" stroke-width="1.33" stroke-linecap="round" stroke-linejoin="round"/>
</svg>
