<svg width="32" height="32" viewBox="0 0 32 32" fill="none" xmlns="http://www.w3.org/2000/svg">
<path d="M11.2944 13.9278C11.4883 13.7339 11.6421 13.5038 11.7471 13.2505C11.852 12.9972 11.906 12.7258 11.906 12.4516C11.906 12.1774 11.852 11.9059 11.7471 11.6526C11.6421 11.3994 11.4883 11.1692 11.2944 10.9754L9.07988 8.76192C8.68847 8.37063 8.15768 8.15082 7.60423 8.15082C7.05077 8.15082 6.51998 8.37063 6.12857 8.76192L4.91382 9.97668C4.40474 10.4872 4.08747 11.1578 4.0156 11.8752C3.94373 12.5926 4.12166 13.3128 4.51933 13.9142C8.09365 19.2943 12.7061 23.9067 18.0862 27.481C18.6877 27.8786 19.408 28.0563 20.1254 27.9843C20.8427 27.9122 21.5133 27.5948 22.0237 27.0855L23.2395 25.8708C23.6308 25.4794 23.8506 24.9486 23.8506 24.3951C23.8506 23.8417 23.6308 23.3109 23.2395 22.9195L21.025 20.706C20.6336 20.3147 20.1028 20.0949 19.5493 20.0949C18.9959 20.0949 18.4651 20.3147 18.0737 20.706L17.3358 21.4438C14.8603 19.4077 12.5885 17.1359 10.5524 14.6604L11.2944 13.9278Z" stroke="#51247A" stroke-width="1.33" stroke-linecap="round" stroke-linejoin="round"/>
<path d="M15.999 4C19.182 4 22.2346 5.26443 24.4853 7.51514C26.736 9.76585 28.0005 12.8185 28.0005 16.0014" stroke="#51247A" stroke-width="1.33" stroke-linecap="round" stroke-linejoin="round"/>
<path d="M15.999 8.17444C18.0749 8.17444 20.0657 8.99907 21.5336 10.4669C23.0014 11.9348 23.826 13.9256 23.826 16.0015" stroke="#51247A" stroke-width="1.33" stroke-linecap="round" stroke-linejoin="round"/>
<path d="M15.999 12.3488C16.9678 12.3488 17.8968 12.7336 18.5818 13.4186C19.2668 14.1036 19.6516 15.0327 19.6516 16.0014" stroke="#51247A" stroke-width="1.33" stroke-linecap="round" stroke-linejoin="round"/>
</svg>
