<svg width="32" height="32" viewBox="0 0 32 32" fill="none" xmlns="http://www.w3.org/2000/svg">
<path d="M16.4685 28C16.4685 28 26.9369 25.3829 26.9369 18.5784C26.9369 14.9144 23.7964 13.8676 23.7964 11.2504C23.7964 9.6739 25.576 8.09839 26.4564 7.4148C26.515 7.36927 26.5632 7.3118 26.5979 7.24622C26.6326 7.18063 26.6529 7.10842 26.6576 7.03437C26.6622 6.96033 26.6511 6.88614 26.6249 6.81673C26.5987 6.74732 26.5581 6.68427 26.5056 6.63176L24.079 4.20517C23.998 4.12429 23.8927 4.07221 23.7793 4.0569C23.6658 4.04158 23.5505 4.06388 23.4509 4.12037L20.1324 6.01621L16.7281 4.07013C16.6485 4.02419 16.5583 4 16.4664 4C16.3745 4 16.2842 4.02419 16.2047 4.07013L12.8045 6.01621L9.48705 4.12037C9.38737 4.06362 9.27182 4.04118 9.15815 4.0565C9.04448 4.07182 8.93899 4.12405 8.85789 4.20517L6.4313 6.63176C6.37889 6.68427 6.33823 6.74732 6.31204 6.81673C6.28584 6.88614 6.2747 6.96033 6.27935 7.03437C6.284 7.10842 6.30434 7.18063 6.33902 7.24622C6.3737 7.3118 6.42193 7.36927 6.4805 7.4148C7.3609 8.09839 9.14054 9.6739 9.14054 11.2504C9.14054 13.8676 6 14.9144 6 18.5784C6 25.3829 16.4685 28 16.4685 28Z" stroke="#51247A" stroke-width="1.33" stroke-linecap="round" stroke-linejoin="round"/>
</svg>
