<svg width="32" height="32" viewBox="0 0 32 32" fill="none" xmlns="http://www.w3.org/2000/svg">
<path d="M5.08851 15.3924H12.0682C12.154 15.3925 12.2385 15.3714 12.3142 15.3309C12.39 15.2905 12.4546 15.2321 12.5023 15.1607L13.9206 13.0338C13.9719 12.9568 14.0429 12.8949 14.1261 12.8543C14.2093 12.8138 14.3018 12.7961 14.3941 12.8031C14.4864 12.8101 14.5752 12.8416 14.6514 12.8942C14.7275 12.9469 14.7883 13.0188 14.8275 13.1027L17.6034 19.0513C17.6457 19.142 17.7133 19.2187 17.7979 19.2721C17.8826 19.3255 17.9809 19.3535 18.081 19.3526C18.1811 19.3517 18.2788 19.3221 18.3626 19.2671C18.4463 19.2122 18.5124 19.1344 18.5531 19.0429L20.0371 15.7034C20.0777 15.6105 20.1443 15.5315 20.229 15.4759C20.3137 15.4203 20.4128 15.3906 20.5141 15.3903H26.9124" stroke="#51247A" stroke-width="1.33" stroke-linecap="round" stroke-linejoin="round"/>
<path d="M16.0005 26.7302L5.77312 16.1981C4.87626 15.3182 4.28277 14.1757 4.07863 12.9361C3.87449 11.6964 4.07029 10.4239 4.63768 9.30297V9.30297C5.07529 8.45372 5.70643 7.71924 6.48015 7.15881C7.25388 6.59837 8.14852 6.22768 9.09188 6.07665C10.0352 5.92562 11.0009 5.99848 11.9109 6.28935C12.8209 6.58021 13.6498 7.08094 14.3307 7.75113L16.0005 9.27375L17.6702 7.75113C18.351 7.08094 19.1798 6.58021 20.0898 6.28934C20.9997 5.99846 21.9653 5.92561 22.9086 6.07664C23.8519 6.22768 24.7464 6.59838 25.5201 7.15882C26.2937 7.71925 26.9247 8.45373 27.3622 9.30297V9.30297C27.9296 10.4239 28.1254 11.6962 27.9215 12.9359C27.7176 14.1755 27.1244 15.318 26.2278 16.1981L16.0005 26.7302Z" stroke="#51247A" stroke-width="1.33" stroke-linecap="round" stroke-linejoin="round"/>
</svg>
