<svg width="32" height="32" viewBox="0 0 32 32" fill="none" xmlns="http://www.w3.org/2000/svg">
<path d="M4 22.7899C4 22.5135 4.10978 22.2485 4.3052 22.0531C4.50062 21.8576 4.76566 21.7479 5.04203 21.7479H21.7144C21.9908 21.7479 22.2558 21.8576 22.4513 22.0531C22.6467 22.2485 22.7565 22.5135 22.7565 22.7899V26.958C22.7587 27.0935 22.734 27.2281 22.6838 27.3541C22.6337 27.48 22.5591 27.5947 22.4643 27.6916C22.3695 27.7885 22.2565 27.8657 22.1317 27.9186C22.0069 27.9715 21.8729 27.9992 21.7374 28H5.06495C4.78859 28 4.52354 27.8902 4.32813 27.6948C4.13271 27.4994 4.02292 27.2344 4.02292 26.958L4 22.7899Z" stroke="#51247A" stroke-width="1.33" stroke-linecap="round" stroke-linejoin="round"/>
<path d="M22.7565 26.9528L25.9013 26.9392C26.175 26.938 26.4457 26.8829 26.6981 26.777C26.9505 26.6711 27.1796 26.5166 27.3722 26.3222C27.5649 26.1278 27.7173 25.8973 27.8209 25.644C27.9245 25.3907 27.9772 25.1195 27.976 24.8458C27.9747 24.5721 27.9196 24.3013 27.8137 24.049C27.7079 23.7966 27.5533 23.5675 27.3589 23.3749C27.1645 23.1822 26.9341 23.0298 26.6808 22.9262C26.4275 22.8226 26.1562 22.7699 25.8825 22.7711L22.7565 22.7847" stroke="#51247A" stroke-width="1.33" stroke-linecap="round" stroke-linejoin="round"/>
<path d="M7.12607 21.7426V27.9948" stroke="#51247A" stroke-width="1.33" stroke-linecap="round" stroke-linejoin="round"/>
<path d="M8.16809 21.7426V10.2804C8.16063 8.62218 8.81218 7.02895 9.97941 5.85117C11.1466 4.67339 12.7339 4.00753 14.3921 4.00006C16.0503 3.9926 17.6435 4.64415 18.8213 5.81138C19.9991 6.97861 20.6649 8.56591 20.6724 10.2241V21.7426" stroke="#51247A" stroke-width="1.33" stroke-linecap="round" stroke-linejoin="round"/>
<path d="M11.2942 21.7426V10.7868C11.2923 10.3763 11.3714 9.96939 11.5268 9.58941C11.6822 9.20943 11.9109 8.86378 12.1999 8.57219C12.4888 8.2806 12.8324 8.04879 13.211 7.88998C13.5895 7.73117 13.9957 7.64849 14.4062 7.64664C14.8167 7.64479 15.2236 7.72382 15.6036 7.87921C15.9836 8.03461 16.3292 8.26332 16.6208 8.5523C16.9124 8.84127 17.1442 9.18485 17.303 9.56342C17.4618 9.94199 17.5445 10.3481 17.5463 10.7586V21.7426" stroke="#51247A" stroke-width="1.33" stroke-linecap="round" stroke-linejoin="round"/>
<path d="M17.5463 18.6166H20.6724" stroke="#51247A" stroke-width="1.33" stroke-linecap="round" stroke-linejoin="round"/>
</svg>
