<svg width="32" height="32" viewBox="0 0 32 32" fill="none" xmlns="http://www.w3.org/2000/svg">
<path d="M22.4362 14.2609H26.9565C27.2333 14.2609 27.4987 14.1509 27.6944 13.9552C27.8901 13.7596 28 13.4941 28 13.2174V9.04348C28 8.76673 27.8901 8.50132 27.6944 8.30563C27.4987 8.10994 27.2333 8 26.9565 8H5.04348C4.76673 8 4.50132 8.10994 4.30563 8.30563C4.10994 8.50132 4 8.76673 4 9.04348V13.2174C4 13.4941 4.10994 13.7596 4.30563 13.9552C4.50132 14.1509 4.76673 14.2609 5.04348 14.2609H9.57217" stroke="#51247A" stroke-width="1.33" stroke-linecap="round" stroke-linejoin="round"/>
<path d="M23.8261 22.0807C23.8269 22.1497 23.814 22.2183 23.7882 22.2823C23.7623 22.3463 23.724 22.4046 23.6755 22.4537C23.627 22.5028 23.5692 22.5418 23.5055 22.5684C23.4418 22.595 23.3734 22.6087 23.3044 22.6087H8.70296C8.63391 22.6087 8.56555 22.595 8.50184 22.5684C8.43813 22.5418 8.38033 22.5028 8.3318 22.4537C8.28327 22.4046 8.24497 22.3463 8.21912 22.2823C8.19328 22.2183 8.18039 22.1497 8.18122 22.0807C8.23757 17.5374 9.03583 15.513 10.7826 11.1304H21.2174C22.9736 15.513 23.7708 17.5384 23.8261 22.0807Z" stroke="#51247A" stroke-width="1.33" stroke-linecap="round" stroke-linejoin="round"/>
<path d="M9.22159 24.6957H22.7868" stroke="#51247A" stroke-width="1.33" stroke-linecap="round" stroke-linejoin="round"/>
<path d="M7.65637 11.1304H25.3955" stroke="#51247A" stroke-width="1.33" stroke-linecap="round" stroke-linejoin="round"/>
<path d="M16.0042 13.7392V12.6957" stroke="#51247A" stroke-width="1.33" stroke-linecap="round" stroke-linejoin="round"/>
<path d="M17.5652 13.7391H15.448C15.1229 13.7394 14.808 13.8527 14.5573 14.0597C14.3066 14.2667 14.1358 14.5545 14.0741 14.8737C14.0124 15.193 14.0637 15.5237 14.2192 15.8092C14.3747 16.0947 14.6247 16.3173 14.9263 16.4386L17.08 17.3005C17.3816 17.4219 17.6316 17.6444 17.7871 17.9299C17.9426 18.2155 17.9939 18.5462 17.9322 18.8654C17.8705 19.1846 17.6997 19.4724 17.449 19.6794C17.1983 19.8864 16.8834 19.9998 16.5583 20H14.4348" stroke="#51247A" stroke-width="1.33" stroke-linecap="round" stroke-linejoin="round"/>
<path d="M16.0042 21.0435V20" stroke="#51247A" stroke-width="1.33" stroke-linecap="round" stroke-linejoin="round"/>
</svg>
