<svg width="32" height="32" viewBox="0 0 32 32" fill="none" xmlns="http://www.w3.org/2000/svg">
<path d="M13.5217 10.2609V9.73913C13.5217 8.21702 14.1264 6.75725 15.2027 5.68095C16.279 4.60466 17.7387 4 19.2609 4C20.783 4 22.2427 4.60466 23.319 5.68095C24.3953 6.75725 25 8.21702 25 9.73913V28" stroke="#51247A" stroke-width="1.33" stroke-linecap="round" stroke-linejoin="round"/>
<path d="M17.6957 14.4348C17.6957 13.3278 17.2559 12.2661 16.4732 11.4834C15.6904 10.7006 14.6287 10.2609 13.5218 10.2609C12.4148 10.2609 11.3531 10.7006 10.5703 11.4834C9.78759 12.2661 9.34784 13.3278 9.34784 14.4348V14.9565C9.34784 15.0949 9.40281 15.2276 9.50065 15.3254C9.5985 15.4233 9.7312 15.4783 9.86958 15.4783H17.1739C17.3123 15.4783 17.445 15.4233 17.5429 15.3254C17.6407 15.2276 17.6957 15.0949 17.6957 14.9565V14.4348Z" stroke="#51247A" stroke-width="1.33" stroke-linecap="round" stroke-linejoin="round"/>
<path d="M13.5217 19.3913C13.5733 19.3913 13.6238 19.4066 13.6667 19.4353C13.7096 19.4639 13.743 19.5047 13.7627 19.5523C13.7825 19.6 13.7877 19.6525 13.7776 19.7031C13.7675 19.7537 13.7427 19.8001 13.7062 19.8366C13.6697 19.8731 13.6232 19.898 13.5726 19.908C13.522 19.9181 13.4696 19.9129 13.4219 19.8932C13.3742 19.8734 13.3335 19.84 13.3048 19.7971C13.2762 19.7542 13.2609 19.7038 13.2609 19.6522C13.2609 19.583 13.2883 19.5166 13.3373 19.4677C13.3862 19.4188 13.4525 19.3913 13.5217 19.3913Z" stroke="#51247A" stroke-width="1.33" stroke-linecap="round" stroke-linejoin="round"/>
<path d="M13.5217 22.5217C13.5733 22.5217 13.6238 22.537 13.6667 22.5657C13.7096 22.5944 13.743 22.6351 13.7627 22.6828C13.7825 22.7304 13.7877 22.7829 13.7776 22.8335C13.7675 22.8841 13.7427 22.9306 13.7062 22.9671C13.6697 23.0035 13.6232 23.0284 13.5726 23.0385C13.522 23.0485 13.4696 23.0434 13.4219 23.0236C13.3742 23.0039 13.3335 22.9704 13.3048 22.9275C13.2762 22.8846 13.2609 22.8342 13.2609 22.7826C13.2609 22.7134 13.2883 22.6471 13.3373 22.5981C13.3862 22.5492 13.4525 22.5217 13.5217 22.5217Z" stroke="#51247A" stroke-width="1.33" stroke-linecap="round" stroke-linejoin="round"/>
<path d="M8.30436 22.5217C8.35595 22.5217 8.40639 22.537 8.44929 22.5657C8.49219 22.5944 8.52562 22.6351 8.54537 22.6828C8.56511 22.7304 8.57028 22.7829 8.56021 22.8335C8.55015 22.8841 8.5253 22.9306 8.48882 22.9671C8.45234 23.0035 8.40585 23.0284 8.35525 23.0385C8.30465 23.0485 8.25219 23.0434 8.20453 23.0236C8.15686 23.0039 8.11612 22.9704 8.08745 22.9275C8.05879 22.8846 8.04349 22.8342 8.04349 22.7826C8.04349 22.7134 8.07097 22.6471 8.11989 22.5981C8.16882 22.5492 8.23517 22.5217 8.30436 22.5217Z" stroke="#51247A" stroke-width="1.33" stroke-linecap="round" stroke-linejoin="round"/>
<path d="M18.7391 22.5217C18.7907 22.5217 18.8412 22.537 18.8841 22.5657C18.927 22.5944 18.9604 22.6351 18.9802 22.6828C18.9999 22.7304 19.0051 22.7829 18.995 22.8335C18.9849 22.8841 18.9601 22.9306 18.9236 22.9671C18.8871 23.0035 18.8406 23.0284 18.79 23.0385C18.7394 23.0485 18.687 23.0434 18.6393 23.0236C18.5916 23.0039 18.5509 22.9704 18.5222 22.9275C18.4936 22.8846 18.4783 22.8342 18.4783 22.7826C18.4783 22.7134 18.5058 22.6471 18.5547 22.5981C18.6036 22.5492 18.67 22.5217 18.7391 22.5217Z" stroke="#51247A" stroke-width="1.33" stroke-linecap="round" stroke-linejoin="round"/>
<path d="M13.5217 25.6522C13.5733 25.6522 13.6238 25.6675 13.6667 25.6961C13.7096 25.7248 13.743 25.7655 13.7627 25.8132C13.7825 25.8609 13.7877 25.9133 13.7776 25.9639C13.7675 26.0145 13.7427 26.061 13.7062 26.0975C13.6697 26.134 13.6232 26.1588 13.5726 26.1689C13.522 26.179 13.4696 26.1738 13.4219 26.154C13.3742 26.1343 13.3335 26.1009 13.3048 26.058C13.2762 26.0151 13.2609 25.9646 13.2609 25.913C13.2609 25.8438 13.2883 25.7775 13.3373 25.7286C13.3862 25.6796 13.4525 25.6522 13.5217 25.6522Z" stroke="#51247A" stroke-width="1.33" stroke-linecap="round" stroke-linejoin="round"/>
<path d="M7.26087 25.6522C7.31246 25.6522 7.3629 25.6675 7.4058 25.6961C7.4487 25.7248 7.48214 25.7655 7.50188 25.8132C7.52163 25.8609 7.52679 25.9133 7.51673 25.9639C7.50666 26.0145 7.48182 26.061 7.44533 26.0975C7.40885 26.134 7.36237 26.1588 7.31176 26.1689C7.26116 26.179 7.20871 26.1738 7.16104 26.154C7.11337 26.1343 7.07263 26.1009 7.04396 26.058C7.0153 26.0151 7 25.9646 7 25.913C7 25.8438 7.02748 25.7775 7.07641 25.7286C7.12533 25.6796 7.19168 25.6522 7.26087 25.6522" stroke="#51247A" stroke-width="1.33" stroke-linecap="round" stroke-linejoin="round"/>
<path d="M19.7826 25.6522C19.8342 25.6522 19.8846 25.6675 19.9275 25.6961C19.9704 25.7248 20.0039 25.7655 20.0236 25.8132C20.0434 25.8609 20.0485 25.9133 20.0385 25.9639C20.0284 26.0145 20.0035 26.061 19.9671 26.0975C19.9306 26.134 19.8841 26.1588 19.8335 26.1689C19.7829 26.179 19.7304 26.1738 19.6828 26.154C19.6351 26.1343 19.5944 26.1009 19.5657 26.058C19.537 26.0151 19.5217 25.9646 19.5217 25.913C19.5217 25.8438 19.5492 25.7775 19.5981 25.7286C19.6471 25.6796 19.7134 25.6522 19.7826 25.6522Z" stroke="#51247A" stroke-width="1.33" stroke-linecap="round" stroke-linejoin="round"/>
<path d="M9.34781 19.3913C9.39941 19.3913 9.44985 19.4066 9.49275 19.4353C9.53565 19.4639 9.56908 19.5047 9.58883 19.5523C9.60857 19.6 9.61374 19.6525 9.60367 19.7031C9.59361 19.7537 9.56876 19.8001 9.53228 19.8366C9.49579 19.8731 9.44931 19.898 9.39871 19.908C9.3481 19.9181 9.29565 19.9129 9.24798 19.8932C9.20032 19.8734 9.15957 19.84 9.13091 19.7971C9.10224 19.7542 9.08694 19.7038 9.08694 19.6522C9.08694 19.583 9.11443 19.5166 9.16335 19.4677C9.21227 19.4188 9.27863 19.3913 9.34781 19.3913Z" stroke="#51247A" stroke-width="1.33" stroke-linecap="round" stroke-linejoin="round"/>
<path d="M17.6957 19.3913C17.7472 19.3913 17.7977 19.4066 17.8406 19.4353C17.8835 19.4639 17.9169 19.5047 17.9367 19.5523C17.9564 19.6 17.9616 19.6525 17.9515 19.7031C17.9414 19.7537 17.9166 19.8001 17.8801 19.8366C17.8436 19.8731 17.7972 19.898 17.7465 19.908C17.6959 19.9181 17.6435 19.9129 17.5958 19.8932C17.5482 19.8734 17.5074 19.84 17.4787 19.7971C17.4501 19.7542 17.4348 19.7038 17.4348 19.6522C17.4348 19.583 17.4623 19.5166 17.5112 19.4677C17.5601 19.4188 17.6265 19.3913 17.6957 19.3913Z" stroke="#51247A" stroke-width="1.33" stroke-linecap="round" stroke-linejoin="round"/>
</svg>
