<svg width="32" height="32" viewBox="0 0 32 32" fill="none" xmlns="http://www.w3.org/2000/svg">
<path d="M21.8918 22.9839L25.7251 15.3174" stroke="#51247A" stroke-width="1.33" stroke-linecap="round" stroke-linejoin="round"/>
<path d="M25.0324 13.2042L15.1317 8.1339" stroke="#51247A" stroke-width="1.33" stroke-linecap="round" stroke-linejoin="round"/>
<path d="M24.8604 13.9177C24.8604 14.3326 25.0252 14.7306 25.3186 15.024C25.612 15.3174 26.01 15.4822 26.4249 15.4822C26.8399 15.4822 27.2379 15.3174 27.5313 15.024C27.8247 14.7306 27.9895 14.3326 27.9895 13.9177C27.9895 13.5027 27.8247 13.1047 27.5313 12.8113C27.2379 12.5179 26.8399 12.3531 26.4249 12.3531C26.01 12.3531 25.612 12.5179 25.3186 12.8113C25.0252 13.1047 24.8604 13.5027 24.8604 13.9177V13.9177Z" stroke="#51247A" stroke-width="1.33" stroke-linecap="round" stroke-linejoin="round"/>
<path d="M13.9948 15.2204C14.1476 15.0679 14.2626 14.8819 14.3309 14.6771C14.3992 14.4723 14.4187 14.2544 14.388 14.0407L13.7486 9.56601L14.8553 8.45933C15.0992 8.21754 15.2929 7.92996 15.4253 7.61312C15.5577 7.29627 15.6262 6.95639 15.6269 6.61299C15.6276 6.26959 15.5605 5.92943 15.4294 5.61204C15.2983 5.29465 15.1058 5.00629 14.8629 4.7635C14.62 4.52071 14.3316 4.32829 14.0142 4.19726C13.6968 4.06624 13.3566 3.99921 13.0132 4.00001C12.6698 4.00081 12.3299 4.06943 12.0131 4.20193C11.6963 4.33443 11.4088 4.5282 11.1671 4.77211L10.0614 5.87776L5.58671 5.2394C5.29787 5.19821 5.00339 5.24892 4.74496 5.38436C4.48654 5.5198 4.27727 5.73311 4.14679 5.99407C4.01631 6.25503 3.97123 6.55043 4.01793 6.83843C4.06463 7.12643 4.20075 7.39245 4.40701 7.5988L12.0307 15.2204C12.2914 15.4805 12.6446 15.6266 13.0128 15.6266C13.381 15.6266 13.7342 15.4805 13.9948 15.2204V15.2204Z" stroke="#51247A" stroke-width="1.33" stroke-linecap="round" stroke-linejoin="round"/>
<path d="M25.216 28C25.3806 28 25.5429 27.961 25.6895 27.8863C25.8362 27.8116 25.9631 27.7032 26.0598 27.57C26.1566 27.4369 26.2204 27.2827 26.2462 27.1201C26.2719 26.9575 26.2588 26.7912 26.208 26.6346C25.7253 25.4451 24.8843 24.4353 23.8017 23.7454C22.7192 23.0555 21.4487 22.7198 20.1666 22.7847C18.8845 22.7198 17.614 23.0555 16.5314 23.7454C15.4488 24.4353 14.6078 25.4451 14.1252 26.6346C14.0743 26.7912 14.0612 26.9575 14.087 27.1201C14.1127 27.2827 14.1766 27.4369 14.2733 27.57C14.3701 27.7032 14.497 27.8116 14.6436 27.8863C14.7903 27.961 14.9525 28 15.1171 28H25.216Z" stroke="#51247A" stroke-width="1.33" stroke-linecap="round" stroke-linejoin="round"/>
</svg>
