<svg width="32" height="32" viewBox="0 0 32 32" fill="none" xmlns="http://www.w3.org/2000/svg">
<path d="M4.28487 18.5992C3.89573 16.8452 3.90539 15.0262 4.31314 13.2765C4.7209 11.5268 5.51634 9.89092 6.64078 8.48968C7.76521 7.08843 9.18993 5.95755 10.8098 5.18048C12.4297 4.40342 14.2034 4 16 4C17.7966 4 19.5703 4.40342 21.1902 5.18048C22.8101 5.95755 24.2348 7.08843 25.3592 8.48968C26.4837 9.89092 27.2791 11.5268 27.6869 13.2765C28.0946 15.0262 28.1043 16.8452 27.7151 18.5992" stroke="#51247A" stroke-width="1.33" stroke-linecap="round" stroke-linejoin="round"/>
<path d="M27.0463 20.6861C26.1259 22.8545 24.5878 24.7041 22.6235 26.0043C20.6592 27.3045 18.3556 27.9978 16 27.9978C13.6444 27.9978 11.3408 27.3045 9.37654 26.0043C7.41224 24.7041 5.87406 22.8545 4.95374 20.6861" stroke="#51247A" stroke-width="1.33" stroke-linecap="round" stroke-linejoin="round"/>
<path d="M21.2174 18.5992C21.2174 19.9829 20.6677 21.31 19.6893 22.2884C18.7108 23.2669 17.3837 23.8166 16 23.8166C14.6163 23.8166 13.2892 23.2669 12.3107 22.2884C11.3323 21.31 10.7826 19.9829 10.7826 18.5992C10.7826 16.2347 14.297 10.3714 15.5565 8.34492C15.6034 8.26965 15.6686 8.20756 15.7461 8.16451C15.8236 8.12145 15.9108 8.09886 15.9995 8.09886C16.0881 8.09886 16.1753 8.12145 16.2528 8.16451C16.3303 8.20756 16.3956 8.26965 16.4424 8.34492C17.703 10.3714 21.2174 16.2347 21.2174 18.5992Z" stroke="#51247A" stroke-width="1.33" stroke-linecap="round" stroke-linejoin="round"/>
</svg>
