<svg width="32" height="32" viewBox="0 0 32 32" fill="none" xmlns="http://www.w3.org/2000/svg">
<path d="M12.3821 24.9534L12.381 27.5729" stroke="#51247A" stroke-width="1.33" stroke-linecap="round" stroke-linejoin="round"/>
<path d="M19.7164 24.9534L19.7154 27.5729" stroke="#51247A" stroke-width="1.33" stroke-linecap="round" stroke-linejoin="round"/>
<path d="M9.76263 16.0474V11.5871C9.76258 11.1741 9.8439 10.7652 10.0019 10.3837C10.1599 10.0023 10.3916 9.65564 10.6836 9.3637L11.7199 8.3285" stroke="#51247A" stroke-width="1.33" stroke-linecap="round" stroke-linejoin="round"/>
<path d="M13.7326 8.44061C13.4411 8.6834 13.0659 8.80217 12.6878 8.7714C12.3096 8.74063 11.9586 8.56278 11.7102 8.27605C11.4617 7.98931 11.3356 7.61658 11.359 7.2379C11.3824 6.85922 11.5533 6.5048 11.8351 6.25078L14.027 4.35327C14.171 4.22875 14.338 4.13379 14.5186 4.07382C14.6993 4.01386 14.8899 3.99005 15.0797 4.00377C15.2696 4.01749 15.4548 4.06846 15.6249 4.15378C15.7951 4.23909 15.9467 4.35708 16.0712 4.501C16.1958 4.64493 16.2907 4.81197 16.3507 4.99259C16.4107 5.17321 16.4345 5.36388 16.4207 5.5537C16.407 5.74352 16.3561 5.92878 16.2707 6.0989C16.1854 6.26902 16.0674 6.42068 15.9235 6.5452L13.7326 8.44061Z" stroke="#51247A" stroke-width="1.33" stroke-linecap="round" stroke-linejoin="round"/>
<path d="M8.71487 16.0474H10.8104" stroke="#51247A" stroke-width="1.33" stroke-linecap="round" stroke-linejoin="round"/>
<path d="M27.9288 21.9002C28.0074 22.1023 28.0213 22.3238 27.9687 22.5341L27.7235 24.1603C27.6667 24.3869 27.5359 24.588 27.3517 24.7317C27.1676 24.8754 26.9407 24.9534 26.7071 24.9534H5.29286C5.05928 24.9534 4.8324 24.8754 4.64826 24.7317C4.46412 24.588 4.33328 24.3869 4.27652 24.1603L4.03134 22.5341C3.97871 22.3238 3.99262 22.1023 4.07116 21.9002L7.40411 13.5726C7.48056 13.3757 7.6147 13.2066 7.78896 13.0873C7.96322 12.968 8.16945 12.9041 8.38063 12.9041H23.7147C23.9259 12.9041 24.1321 12.968 24.3064 13.0873C24.4806 13.2066 24.6148 13.3757 24.6912 13.5726L27.9288 21.9002Z" stroke="#51247A" stroke-width="1.33" stroke-linecap="round" stroke-linejoin="round"/>
<path d="M4.00201 22.334H27.998" stroke="#51247A" stroke-width="1.33" stroke-linecap="round" stroke-linejoin="round"/>
<path d="M22.735 19.6119C22.7506 19.6881 22.749 19.7668 22.7303 19.8424C22.7117 19.9179 22.6764 19.9883 22.6272 20.0485C22.5779 20.1087 22.5159 20.1571 22.4455 20.1904C22.3752 20.2236 22.2984 20.2407 22.2206 20.2406H16.1645C16.0868 20.2406 16.0101 20.2233 15.9399 20.19C15.8697 20.1567 15.8078 20.1082 15.7586 20.0481C15.7095 19.9879 15.6743 19.9175 15.6557 19.8421C15.6371 19.7667 15.6355 19.688 15.6511 19.6119L16.4893 15.4208C16.5135 15.3025 16.5778 15.1962 16.6713 15.1198C16.7649 15.0434 16.8819 15.0017 17.0027 15.0017H21.3824C21.5033 15.0015 21.6206 15.0431 21.7144 15.1195C21.8082 15.1958 21.8726 15.3023 21.8968 15.4208L22.735 19.6119Z" stroke="#51247A" stroke-width="1.33" stroke-linecap="round" stroke-linejoin="round"/>
</svg>
