<svg width="32" height="32" viewBox="0 0 32 32" fill="none" xmlns="http://www.w3.org/2000/svg">
<path d="M16.2647 9.98613C16.566 9.68465 16.7352 9.27582 16.7351 8.84957C16.735 8.42331 16.5656 8.01456 16.2641 7.71322C15.9627 7.41189 15.5538 7.24265 15.1276 7.24275C14.7013 7.24285 14.2926 7.41228 13.9912 7.71376L11.947 9.76018V5.6063C11.947 5.18028 11.7777 4.77171 11.4765 4.47047C11.1752 4.16923 10.7667 4 10.3407 4C9.91464 4 9.50607 4.16923 9.20484 4.47047C8.9036 4.77171 8.73436 5.18028 8.73436 5.6063V9.76018L6.72221 7.74802C6.41926 7.45542 6.0135 7.29352 5.59234 7.29718C5.17117 7.30084 4.76829 7.46977 4.47047 7.76759C4.17265 8.06541 4.00372 8.46829 4.00006 8.88946C3.9964 9.31062 4.15831 9.71638 4.45091 10.0193L8.73436 14.3028V18.4567C8.73436 18.8827 8.9036 19.2912 9.20484 19.5925C9.50607 19.8937 9.91464 20.063 10.3407 20.063C10.7667 20.063 11.1752 19.8937 11.4765 19.5925C11.7777 19.2912 11.947 18.8827 11.947 18.4567V14.3028L16.2647 9.98613Z" stroke="#51247A" stroke-width="1.33" stroke-linecap="round" stroke-linejoin="round"/>
<path d="M27.0397 20.1765C27.4298 20.0051 27.7358 19.6857 27.8905 19.2887C28.0451 18.8917 28.0357 18.4495 27.8643 18.0594C27.6929 17.6693 27.3735 17.3633 26.9765 17.2086C26.5795 17.054 26.1373 17.0634 25.7472 17.2348L23.0989 18.3999L24.6067 14.5287C24.7612 14.1311 24.7514 13.6884 24.5795 13.298C24.4076 12.9076 24.0877 12.6015 23.6901 12.447C23.2924 12.2925 22.8497 12.3022 22.4593 12.4742C22.0689 12.6461 21.7628 12.966 21.6083 13.3636L20.1016 17.2327L18.9568 14.6294C18.7854 14.2393 18.4661 13.9333 18.0691 13.7786C17.672 13.624 17.2298 13.6334 16.8397 13.8048C16.4497 13.9762 16.1436 14.2956 15.989 14.6926C15.8344 15.0896 15.8438 15.5318 16.0152 15.9219L18.4535 21.4669L16.9543 25.338C16.7998 25.7357 16.8096 26.1784 16.9815 26.5688C17.1534 26.9592 17.4734 27.2653 17.871 27.4198C18.2686 27.5743 18.7113 27.5645 19.1017 27.3926C19.4921 27.2207 19.7982 26.9008 19.9527 26.5031L21.452 22.633L27.0397 20.1765Z" stroke="#51247A" stroke-width="1.33" stroke-linecap="round" stroke-linejoin="round"/>
</svg>
