<svg width="32" height="32" viewBox="0 0 32 32" fill="none" xmlns="http://www.w3.org/2000/svg">
<path d="M11.2609 26.9565C11.2609 27.2333 11.1509 27.4987 10.9552 27.6944C10.7596 27.8901 10.4941 28 10.2174 28H6.04348C5.76673 28 5.50132 27.8901 5.30563 27.6944C5.10994 27.4987 5 27.2333 5 26.9565V5.04348C5 4.76673 5.10994 4.50132 5.30563 4.30563C5.50132 4.10994 5.76673 4 6.04348 4H10.2174C10.4941 4 10.7596 4.10994 10.9552 4.30563C11.1509 4.50132 11.2609 4.76673 11.2609 5.04348V26.9565Z" stroke="#51247A" stroke-width="1.33" stroke-linecap="round" stroke-linejoin="round"/>
<path d="M17.5217 26.9565C17.5217 27.2333 17.4118 27.4987 17.2161 27.6944C17.0204 27.8901 16.755 28 16.4783 28H12.3043C12.0276 28 11.7622 27.8901 11.5665 27.6944C11.3708 27.4987 11.2609 27.2333 11.2609 26.9565V13.3913C11.2609 13.1146 11.3708 12.8492 11.5665 12.6535C11.7622 12.4578 12.0276 12.3478 12.3043 12.3478H16.4783C16.755 12.3478 17.0204 12.4578 17.2161 12.6535C17.4118 12.8492 17.5217 13.1146 17.5217 13.3913V26.9565Z" stroke="#51247A" stroke-width="1.33" stroke-linecap="round" stroke-linejoin="round"/>
<path d="M14.3913 24.3478V25.9131" stroke="#51247A" stroke-width="1.33" stroke-linecap="round" stroke-linejoin="round"/>
<path d="M8.13043 6.08698V19.6522" stroke="#51247A" stroke-width="1.33" stroke-linecap="round" stroke-linejoin="round"/>
<path d="M14.3913 14.4348V22.2608" stroke="#51247A" stroke-width="1.33" stroke-linecap="round" stroke-linejoin="round"/>
<path d="M8.12625 22.2609V25.3913" stroke="#51247A" stroke-width="1.33" stroke-linecap="round" stroke-linejoin="round"/>
<path d="M28.3677 25.0657C28.4536 25.3288 28.4315 25.6152 28.3062 25.8619C28.181 26.1087 27.9629 26.2956 27.6998 26.3815L23.7346 27.6765C23.6043 27.719 23.4669 27.7354 23.3302 27.7248C23.1936 27.7142 23.0603 27.6768 22.9381 27.6147C22.8159 27.5526 22.7072 27.467 22.6181 27.3628C22.529 27.2587 22.4612 27.138 22.4188 27.0076L16.5889 9.15162C16.503 8.88857 16.5251 8.60217 16.6503 8.35541C16.7755 8.10865 16.9937 7.92174 17.2567 7.8358L21.2219 6.54084C21.3522 6.49832 21.4897 6.4819 21.6263 6.49251C21.763 6.50312 21.8962 6.54055 22.0184 6.60266C22.1406 6.66478 22.2494 6.75036 22.3385 6.85452C22.4276 6.95868 22.4953 7.07937 22.5378 7.20971L28.3677 25.0657Z" stroke="#51247A" stroke-width="1.33" stroke-linecap="round" stroke-linejoin="round"/>
<path d="M19.8883 9.17249L23.1252 19.0928" stroke="#51247A" stroke-width="1.33" stroke-linecap="round" stroke-linejoin="round"/>
<path d="M23.9308 21.5742L24.9012 24.5502" stroke="#51247A" stroke-width="1.33" stroke-linecap="round" stroke-linejoin="round"/>
</svg>
