<svg width="32" height="32" viewBox="0 0 32 32" fill="none" xmlns="http://www.w3.org/2000/svg">
<path d="M4 6H28V22.6957H4V6Z" stroke="#51247A" stroke-width="1.33" stroke-linecap="round" stroke-linejoin="round"/>
<path d="M6.08696 25.8261V22.6956" stroke="#51247A" stroke-width="1.33" stroke-linecap="round" stroke-linejoin="round"/>
<path d="M25.913 25.8261V22.6956" stroke="#51247A" stroke-width="1.33" stroke-linecap="round" stroke-linejoin="round"/>
<path d="M6.08696 8.08696H18.6087V20.6087H6.08696V8.08696Z" stroke="#51247A" stroke-width="1.33" stroke-linecap="round" stroke-linejoin="round"/>
<path d="M20.6956 6V22.6957" stroke="#51247A" stroke-width="1.33" stroke-linecap="round" stroke-linejoin="round"/>
<path d="M22.7826 18.5217H25.913V20.6087H22.7826V18.5217Z" stroke="#51247A" stroke-width="1.33" stroke-linecap="round" stroke-linejoin="round"/>
<path d="M8.69565 17.4783H16" stroke="#51247A" stroke-width="1.33" stroke-linecap="round" stroke-linejoin="round"/>
<path d="M12.3478 17.4783C13.0941 17.3977 13.7922 17.0704 14.3316 16.5484C14.871 16.0264 15.2209 15.3394 15.3259 14.5962C15.3636 14.4425 15.3658 14.2823 15.3324 14.1276C15.299 13.9729 15.2309 13.8279 15.1332 13.7034C15.0354 13.579 14.9107 13.4784 14.7684 13.4092C14.6261 13.3401 14.4699 13.3042 14.3116 13.3044H10.384C10.2258 13.3042 10.0696 13.3401 9.92726 13.4092C9.78494 13.4784 9.66021 13.579 9.56249 13.7034C9.46478 13.8279 9.39665 13.9729 9.36326 14.1276C9.32986 14.2823 9.33208 14.4425 9.36974 14.5962C9.47475 15.3394 9.82465 16.0264 10.364 16.5484C10.9034 17.0704 11.6015 17.3977 12.3478 17.4783V17.4783Z" stroke="#51247A" stroke-width="1.33" stroke-linecap="round" stroke-linejoin="round"/>
<path d="M22.7826 8.08696H25.913V16.4348H22.7826V8.08696Z" stroke="#51247A" stroke-width="1.33" stroke-linecap="round" stroke-linejoin="round"/>
</svg>
