<svg width="32" height="32" viewBox="0 0 32 32" fill="none" xmlns="http://www.w3.org/2000/svg">
<path d="M4 8H28V24.3636H4V8Z" stroke="#51247A" stroke-width="1.33" stroke-linecap="round" stroke-linejoin="round"/>
<path d="M4 11.2727H7.27273C7.56205 11.2727 7.83953 11.3876 8.04412 11.5922C8.2487 11.7968 8.36364 12.0743 8.36364 12.3636V20C8.36364 20.2893 8.2487 20.5668 8.04412 20.7714C7.83953 20.976 7.56205 21.0909 7.27273 21.0909H4" stroke="#51247A" stroke-width="1.33" stroke-linecap="round" stroke-linejoin="round"/>
<path d="M28 21.0909H24.7273C24.4379 21.0909 24.1605 20.976 23.9559 20.7714C23.7513 20.5668 23.6364 20.2893 23.6364 20V12.3636C23.6364 12.0743 23.7513 11.7968 23.9559 11.5922C24.1605 11.3876 24.4379 11.2727 24.7273 11.2727H28" stroke="#51247A" stroke-width="1.33" stroke-linecap="round" stroke-linejoin="round"/>
<path d="M16 8V24.3636" stroke="#51247A" stroke-width="1.33" stroke-linecap="round" stroke-linejoin="round"/>
<path d="M12.7273 16.1818C12.7273 17.0498 13.0721 17.8823 13.6858 18.496C14.2996 19.1098 15.132 19.4546 16 19.4546C16.868 19.4546 17.7004 19.1098 18.3142 18.496C18.9279 17.8823 19.2727 17.0498 19.2727 16.1818C19.2727 15.3139 18.9279 14.4814 18.3142 13.8677C17.7004 13.2539 16.868 12.9091 16 12.9091C15.132 12.9091 14.2996 13.2539 13.6858 13.8677C13.0721 14.4814 12.7273 15.3139 12.7273 16.1818Z" stroke="#51247A" stroke-width="1.33" stroke-linecap="round" stroke-linejoin="round"/>
</svg>
