<svg width="32" height="32" viewBox="0 0 32 32" fill="none" xmlns="http://www.w3.org/2000/svg">
<path d="M12.9989 8.8H21.5333" stroke="#51247A" stroke-width="1.33" stroke-linecap="round" stroke-linejoin="round"/>
<path d="M7.83839 17.4539L10.1616 10.8128" stroke="#51247A" stroke-width="1.33" stroke-linecap="round" stroke-linejoin="round"/>
<path d="M12.5008 24.4213L8.70346 20.9141" stroke="#51247A" stroke-width="1.33" stroke-linecap="round" stroke-linejoin="round"/>
<path d="M15.3659 16.7776L14.3685 23.7557" stroke="#51247A" stroke-width="1.33" stroke-linecap="round" stroke-linejoin="round"/>
<path d="M23.9131 19.0059L17.5547 15.6608" stroke="#51247A" stroke-width="1.33" stroke-linecap="round" stroke-linejoin="round"/>
<path d="M27 4L21.5333 8.8L25.0427 18.0107" stroke="#51247A" stroke-width="1.33" stroke-linecap="round" stroke-linejoin="round"/>
<path d="M13.5333 14.6667C13.5333 15.2325 13.7581 15.7751 14.1582 16.1752C14.5583 16.5752 15.1009 16.8 15.6667 16.8C16.2325 16.8 16.7751 16.5752 17.1752 16.1752C17.5752 15.7751 17.8 15.2325 17.8 14.6667C17.8 14.1009 17.5752 13.5582 17.1752 13.1582C16.7751 12.7581 16.2325 12.5333 15.6667 12.5333C15.1009 12.5333 14.5583 12.7581 14.1582 13.1582C13.7581 13.5582 13.5333 14.1009 13.5333 14.6667Z" stroke="#51247A" stroke-width="1.33" stroke-linecap="round" stroke-linejoin="round"/>
<path d="M8.73334 8.8C8.73334 9.3658 8.9581 9.90842 9.35818 10.3085C9.75825 10.7086 10.3009 10.9333 10.8667 10.9333C11.4325 10.9333 11.9751 10.7086 12.3752 10.3085C12.7752 9.90842 13 9.3658 13 8.8C13 8.23421 12.7752 7.69158 12.3752 7.29151C11.9751 6.89143 11.4325 6.66667 10.8667 6.66667C10.3009 6.66667 9.75825 6.89143 9.35818 7.29151C8.9581 7.69158 8.73334 8.23421 8.73334 8.8V8.8Z" stroke="#51247A" stroke-width="1.33" stroke-linecap="round" stroke-linejoin="round"/>
<path d="M5 19.4667C5 20.0325 5.22476 20.5751 5.62484 20.9752C6.02492 21.3752 6.56754 21.6 7.13333 21.6C7.69913 21.6 8.24175 21.3752 8.64183 20.9752C9.04191 20.5751 9.26667 20.0325 9.26667 19.4667C9.26667 18.9009 9.04191 18.3583 8.64183 17.9582C8.24175 17.5581 7.69913 17.3333 7.13333 17.3333C6.56754 17.3333 6.02492 17.5581 5.62484 17.9582C5.22476 18.3583 5 18.9009 5 19.4667V19.4667Z" stroke="#51247A" stroke-width="1.33" stroke-linecap="round" stroke-linejoin="round"/>
<path d="M11.9333 25.8667C11.9333 26.4325 12.1581 26.9751 12.5582 27.3752C12.9583 27.7752 13.5009 28 14.0667 28C14.6325 28 15.1751 27.7752 15.5752 27.3752C15.9752 26.9751 16.2 26.4325 16.2 25.8667C16.2 25.3009 15.9752 24.7583 15.5752 24.3582C15.1751 23.9581 14.6325 23.7333 14.0667 23.7333C13.5009 23.7333 12.9583 23.9581 12.5582 24.3582C12.1581 24.7583 11.9333 25.3009 11.9333 25.8667V25.8667Z" stroke="#51247A" stroke-width="1.33" stroke-linecap="round" stroke-linejoin="round"/>
<path d="M23.6667 20C23.6667 20.5658 23.8914 21.1084 24.2915 21.5085C24.6916 21.9086 25.2342 22.1333 25.8 22.1333C26.3658 22.1333 26.9084 21.9086 27.3085 21.5085C27.7086 21.1084 27.9333 20.5658 27.9333 20C27.9333 19.4342 27.7086 18.8916 27.3085 18.4915C26.9084 18.0914 26.3658 17.8667 25.8 17.8667C25.2342 17.8667 24.6916 18.0914 24.2915 18.4915C23.8914 18.8916 23.6667 19.4342 23.6667 20Z" stroke="#51247A" stroke-width="1.33" stroke-linecap="round" stroke-linejoin="round"/>
</svg>
