<svg width="32" height="32" viewBox="0 0 32 32" fill="none" xmlns="http://www.w3.org/2000/svg">
<path d="M10.2174 11.3043H21.6957" stroke="#51247A" stroke-width="1.33" stroke-linecap="round" stroke-linejoin="round"/>
<path d="M20.6522 11.3043H11.2609V4H18.5652L20.6522 6.08696V11.3043Z" stroke="#51247A" stroke-width="1.33" stroke-linecap="round" stroke-linejoin="round"/>
<path d="M9.95652 22.7826H6.96487C6.71058 22.7825 6.46507 22.6896 6.27446 22.5213C6.08386 22.3529 5.96127 22.1208 5.92974 21.8685L5 14.4348H26.913L25.9833 21.8685C25.9518 22.1208 25.8292 22.3529 25.6386 22.5213C25.448 22.6896 25.2025 22.7825 24.9482 22.7826H21.4348" stroke="#51247A" stroke-width="1.33" stroke-linecap="round" stroke-linejoin="round"/>
<path d="M20.6522 9.21741H24.1197C24.3282 9.21754 24.5319 9.28014 24.7045 9.39712C24.8771 9.51411 25.0106 9.68013 25.088 9.87376L26.913 14.4348H5L6.82504 9.87376C6.9024 9.68013 7.03599 9.51411 7.20859 9.39712C7.38119 9.28014 7.58488 9.21754 7.79339 9.21741H11.2609" stroke="#51247A" stroke-width="1.33" stroke-linecap="round" stroke-linejoin="round"/>
<path d="M10.7391 19.6522H20.6522L22.7391 28H8.65218L10.7391 19.6522Z" stroke="#51247A" stroke-width="1.33" stroke-linecap="round" stroke-linejoin="round"/>
<path d="M23.7826 16.7826C23.8342 16.7826 23.8846 16.7979 23.9275 16.8266C23.9704 16.8552 24.0039 16.896 24.0236 16.9436C24.0434 16.9913 24.0485 17.0438 24.0385 17.0944C24.0284 17.145 24.0036 17.1914 23.9671 17.2279C23.9306 17.2644 23.8841 17.2893 23.8335 17.2993C23.7829 17.3094 23.7305 17.3042 23.6828 17.2845C23.6351 17.2647 23.5944 17.2313 23.5657 17.1884C23.537 17.1455 23.5217 17.0951 23.5217 17.0435C23.5217 16.9743 23.5492 16.9079 23.5982 16.859C23.6471 16.8101 23.7134 16.7826 23.7826 16.7826Z" stroke="#51247A" stroke-width="1.33" stroke-linecap="round" stroke-linejoin="round"/>
<path d="M23.7826 19.3913C23.8342 19.3913 23.8846 19.4066 23.9275 19.4353C23.9704 19.4639 24.0039 19.5047 24.0236 19.5523C24.0434 19.6 24.0485 19.6525 24.0385 19.7031C24.0284 19.7537 24.0036 19.8001 23.9671 19.8366C23.9306 19.8731 23.8841 19.898 23.8335 19.908C23.7829 19.9181 23.7305 19.9129 23.6828 19.8932C23.6351 19.8734 23.5944 19.84 23.5657 19.7971C23.537 19.7542 23.5217 19.7038 23.5217 19.6522C23.5217 19.583 23.5492 19.5166 23.5982 19.4677C23.6471 19.4188 23.7134 19.3913 23.7826 19.3913Z" stroke="#51247A" stroke-width="1.33" stroke-linecap="round" stroke-linejoin="round"/>
<path d="M15.4348 21.7391H18.0435" stroke="#51247A" stroke-width="1.33" stroke-linecap="round" stroke-linejoin="round"/>
<path d="M12.3044 23.8261H18.5652" stroke="#51247A" stroke-width="1.33" stroke-linecap="round" stroke-linejoin="round"/>
<path d="M11.2609 25.913H19.087" stroke="#51247A" stroke-width="1.33" stroke-linecap="round" stroke-linejoin="round"/>
</svg>
