<svg width="32" height="32" viewBox="0 0 32 32" fill="none" xmlns="http://www.w3.org/2000/svg">
<path d="M11.3044 8.17389H26.9565C27.2333 8.17389 27.4987 8.28383 27.6944 8.47952C27.8901 8.67521 28 8.94062 28 9.21737V26.9565C28 27.2332 27.8901 27.4987 27.6944 27.6943C27.4987 27.89 27.2333 28 26.9565 28H11.3044" stroke="#51247A" stroke-width="1.33" stroke-linecap="round" stroke-linejoin="round"/>
<path d="M11.3043 28V8.17389H5.04348C4.76673 8.17389 4.50132 8.28383 4.30563 8.47952C4.10994 8.67521 4 8.94062 4 9.21737V26.9565C4 27.2332 4.10994 27.4987 4.30563 27.6943C4.50132 27.89 4.76673 28 5.04348 28H11.3043Z" stroke="#51247A" stroke-width="1.33" stroke-linecap="round" stroke-linejoin="round"/>
<path d="M5.60904 25.9131L7.17426 24.3478L8.73947 25.9131" stroke="#51247A" stroke-width="1.33" stroke-linecap="round" stroke-linejoin="round"/>
<path d="M7.13043 24.3478V8.17389" stroke="#51247A" stroke-width="1.33" stroke-linecap="round" stroke-linejoin="round"/>
<path d="M15.4783 8.17391V6.08696C15.4783 5.53346 15.6981 5.00264 16.0895 4.61126C16.4809 4.21988 17.0117 4 17.5652 4H20.6956C21.2491 4 21.78 4.21988 22.1713 4.61126C22.5627 5.00264 22.7826 5.53346 22.7826 6.08696V8.17391" stroke="#51247A" stroke-width="1.33" stroke-linecap="round" stroke-linejoin="round"/>
<path d="M11.3044 8.17391V6.08696C11.3044 5.53346 11.5242 5.00264 11.9156 4.61126C12.307 4.21988 12.8378 4 13.3913 4H14.4348" stroke="#51247A" stroke-width="1.33" stroke-linecap="round" stroke-linejoin="round"/>
</svg>
