<svg width="32" height="32" viewBox="0 0 32 32" fill="none" xmlns="http://www.w3.org/2000/svg">
<path d="M12.3478 17.5652H11.3043L7.13043 21.7391V17.5652H5.04348C4.76673 17.5652 4.50132 17.4553 4.30563 17.2596C4.10994 17.0639 4 16.7985 4 16.5217V5.04348C4 4.76673 4.10994 4.50132 4.30563 4.30563C4.50132 4.10994 4.76673 4 5.04348 4H22.7826C23.0594 4 23.3248 4.10994 23.5205 4.30563C23.7161 4.50132 23.8261 4.76673 23.8261 5.04348V11.3043" stroke="#51247A" stroke-width="1.33" stroke-linecap="round" stroke-linejoin="round"/>
<path d="M14.4348 22.7826C14.4348 23.0593 14.5447 23.3248 14.7404 23.5205C14.9361 23.7161 15.2015 23.8261 15.4782 23.8261H21.2174L25.913 28V23.8261H26.9565C27.2332 23.8261 27.4987 23.7161 27.6943 23.5205C27.89 23.3248 28 23.0593 28 22.7826V14.4348C28 14.158 27.89 13.8926 27.6943 13.6969C27.4987 13.5012 27.2332 13.3913 26.9565 13.3913H15.4782C15.2015 13.3913 14.9361 13.5012 14.7404 13.6969C14.5447 13.8926 14.4348 14.158 14.4348 14.4348V22.7826Z" stroke="#51247A" stroke-width="1.33" stroke-linecap="round" stroke-linejoin="round"/>
</svg>
