<svg width="32" height="32" viewBox="0 0 32 32" fill="none" xmlns="http://www.w3.org/2000/svg">
<path d="M17.0435 7.6087C17.0435 8.30056 17.3183 8.9641 17.8075 9.45332C18.2968 9.94255 18.9603 10.2174 19.6522 10.2174C20.344 10.2174 21.0076 9.94255 21.4968 9.45332C21.986 8.9641 22.2608 8.30056 22.2608 7.6087C22.2608 6.91683 21.986 6.25329 21.4968 5.76407C21.0076 5.27484 20.344 5 19.6522 5C18.9603 5 18.2968 5.27484 17.8075 5.76407C17.3183 6.25329 17.0435 6.91683 17.0435 7.6087V7.6087Z" stroke="#51247A" stroke-width="1.33" stroke-linecap="round" stroke-linejoin="round"/>
<path d="M16 25.6087C15.8855 25.609 15.7714 25.5964 15.6598 25.5711C15.2547 25.4811 14.9019 25.2339 14.679 24.8838C14.4562 24.5338 14.3814 24.1095 14.4713 23.7044C14.7054 22.6303 14.6118 21.5107 14.2025 20.4905C13.7932 19.4703 13.0871 18.5964 12.1756 17.9819L11.4828 17.5197C11.2971 17.3964 11.1399 17.2348 11.0218 17.0459C10.9036 16.8569 10.8271 16.6449 10.7975 16.424C10.7678 16.2031 10.7857 15.9784 10.8499 15.765C10.9141 15.5516 11.0231 15.3543 11.1697 15.1865L14.8219 11.0125C14.9727 10.8403 15.1594 10.7032 15.3688 10.611C15.5783 10.5188 15.8055 10.4736 16.0343 10.4787C16.2632 10.4837 16.4881 10.5389 16.6933 10.6404C16.8985 10.7418 17.0789 10.887 17.2219 11.0658C17.7249 11.6978 18.3644 12.208 19.0924 12.558C19.8205 12.908 20.6183 13.0888 21.4261 13.087H21.7391C22.1542 13.087 22.5523 13.2519 22.8459 13.5454C23.1394 13.839 23.3043 14.2371 23.3043 14.6522C23.3043 15.0673 23.1394 15.4654 22.8459 15.759C22.5523 16.0525 22.1542 16.2174 21.7391 16.2174H21.4261C19.4793 16.2217 17.5905 15.5555 16.0772 14.3308L14.6654 15.9451C15.863 16.9595 16.7621 18.2807 17.2661 19.767C17.7701 21.2534 17.8602 22.849 17.5266 24.3826C17.4495 24.7301 17.2562 25.041 16.9787 25.2639C16.7011 25.4867 16.3559 25.6084 16 25.6087Z" stroke="#51247A" stroke-width="1.33" stroke-linecap="round" stroke-linejoin="round"/>
<path d="M4 23.2609C4 24.3678 4.43975 25.4295 5.22251 26.2123C6.00527 26.995 7.06692 27.4348 8.17391 27.4348C9.2809 27.4348 10.3426 26.995 11.1253 26.2123C11.9081 25.4295 12.3478 24.3678 12.3478 23.2609C12.3478 22.1539 11.9081 21.0922 11.1253 20.3095C10.3426 19.5267 9.2809 19.0869 8.17391 19.0869C7.06692 19.0869 6.00527 19.5267 5.22251 20.3095C4.43975 21.0922 4 22.1539 4 23.2609V23.2609Z" stroke="#51247A" stroke-width="1.33" stroke-linecap="round" stroke-linejoin="round"/>
<path d="M19.6522 23.2609C19.6522 24.3678 20.0919 25.4295 20.8747 26.2123C21.6574 26.995 22.7191 27.4348 23.8261 27.4348C24.9331 27.4348 25.9947 26.995 26.7775 26.2123C27.5602 25.4295 28 24.3678 28 23.2609C28 22.1539 27.5602 21.0922 26.7775 20.3095C25.9947 19.5267 24.9331 19.0869 23.8261 19.0869C22.7191 19.0869 21.6574 19.5267 20.8747 20.3095C20.0919 21.0922 19.6522 22.1539 19.6522 23.2609V23.2609Z" stroke="#51247A" stroke-width="1.33" stroke-linecap="round" stroke-linejoin="round"/>
</svg>
