<svg width="32" height="32" viewBox="0 0 32 32" fill="none" xmlns="http://www.w3.org/2000/svg">
<path d="M8.57439 10.5345L10.2306 8.45881C10.3979 8.23076 10.649 8.07852 10.9285 8.03558C11.067 8.01432 11.2082 8.02052 11.3442 8.05385C11.4803 8.08718 11.6084 8.14697 11.7213 8.22982C11.8342 8.31266 11.9297 8.41694 12.0023 8.53669C12.0749 8.65644 12.1233 8.78932 12.1445 8.92774C12.1658 9.06617 12.1596 9.20743 12.1263 9.34345C12.0929 9.47947 12.0331 9.6076 11.9503 9.72052L10.2748 12.2349L9.70801 17.6195C11.4322 15.6584 16.2501 15.6584 17.3599 17.9732C17.3805 17.2659 17.542 16.5698 17.8349 15.9257C18.1277 15.2815 18.5462 14.7023 19.0656 14.2218C19.5851 13.7413 20.1952 13.3693 20.8602 13.1274C21.5252 12.8856 22.2317 12.7788 22.9385 12.8134C23.6452 12.8479 24.338 13.023 24.9763 13.3285C25.6145 13.634 26.1854 14.0638 26.6556 14.5926C27.1257 15.1214 27.4857 15.7387 27.7144 16.4083C27.9431 17.078 28.036 17.7865 27.9875 18.4924C27.9875 29.6472 4.03994 26.4458 4.03994 20.1838C3.70779 18.489 5.53518 11.8075 6.26749 9.13898C6.48713 8.44028 6.84832 7.7943 7.32855 7.24131C7.64764 6.85312 8.04879 6.54047 8.50314 6.32584C8.9575 6.1112 9.45377 5.99992 9.95627 6H12.0716C12.4939 5.99966 12.9101 6.10037 13.2856 6.2937C13.661 6.48704 13.9847 6.76739 14.2297 7.11135C14.4747 7.45532 14.6339 7.8529 14.6938 8.27091C14.7538 8.68892 14.713 9.11522 14.5746 9.5142L14.4896 9.75793C14.2865 10.3439 13.927 10.8632 13.4501 11.2596C12.9732 11.656 12.3969 11.9145 11.7837 12.007L10.2748 12.2337" stroke="#51247A" stroke-width="1.33" stroke-linecap="round" stroke-linejoin="round"/>
</svg>
