<svg width="32" height="32" viewBox="0 0 32 32" fill="none" xmlns="http://www.w3.org/2000/svg">
<path d="M4 9.21741H28V16.5218H4V9.21741Z" stroke="#51247A" stroke-width="1.33" stroke-linecap="round" stroke-linejoin="round"/>
<path d="M6.08698 16.5217V28" stroke="#51247A" stroke-width="1.33" stroke-linecap="round" stroke-linejoin="round"/>
<path d="M25.913 16.5217V28" stroke="#51247A" stroke-width="1.33" stroke-linecap="round" stroke-linejoin="round"/>
<path d="M7.65216 5.56522C7.65216 5.77076 7.69265 5.9743 7.77131 6.1642C7.84997 6.3541 7.96526 6.52665 8.1106 6.67199C8.25595 6.81734 8.42849 6.93263 8.6184 7.01129C8.8083 7.08995 9.01183 7.13043 9.21738 7.13043C9.42293 7.13043 9.62646 7.08995 9.81636 7.01129C10.0063 6.93263 10.1788 6.81734 10.3242 6.67199C10.4695 6.52665 10.5848 6.3541 10.6635 6.1642C10.7421 5.9743 10.7826 5.77076 10.7826 5.56522C10.7826 5.35967 10.7421 5.15614 10.6635 4.96623C10.5848 4.77633 10.4695 4.60379 10.3242 4.45844C10.1788 4.3131 10.0063 4.1978 9.81636 4.11915C9.62646 4.04049 9.42293 4 9.21738 4C9.01183 4 8.8083 4.04049 8.6184 4.11915C8.42849 4.1978 8.25595 4.3131 8.1106 4.45844C7.96526 4.60379 7.84997 4.77633 7.77131 4.96623C7.69265 5.15614 7.65216 5.35967 7.65216 5.56522Z" stroke="#51247A" stroke-width="1.33" stroke-linecap="round" stroke-linejoin="round"/>
<path d="M21.2174 5.56522C21.2174 5.98034 21.3823 6.37846 21.6758 6.67199C21.9694 6.96553 22.3675 7.13043 22.7826 7.13043C23.1977 7.13043 23.5959 6.96553 23.8894 6.67199C24.1829 6.37846 24.3478 5.98034 24.3478 5.56522C24.3478 5.1501 24.1829 4.75198 23.8894 4.45844C23.5959 4.16491 23.1977 4 22.7826 4C22.3675 4 21.9694 4.16491 21.6758 4.45844C21.3823 4.75198 21.2174 5.1501 21.2174 5.56522V5.56522Z" stroke="#51247A" stroke-width="1.33" stroke-linecap="round" stroke-linejoin="round"/>
<path d="M9.21741 7.13043V9.21739" stroke="#51247A" stroke-width="1.33" stroke-linecap="round" stroke-linejoin="round"/>
<path d="M22.7826 7.13043V9.21739" stroke="#51247A" stroke-width="1.33" stroke-linecap="round" stroke-linejoin="round"/>
<path d="M4.30579 16.216L11.3044 9.21741" stroke="#51247A" stroke-width="1.33" stroke-linecap="round" stroke-linejoin="round"/>
<path d="M16.5218 9.21741L9.21741 16.5218" stroke="#51247A" stroke-width="1.33" stroke-linecap="round" stroke-linejoin="round"/>
<path d="M22.7826 9.21741L15.4783 16.5218" stroke="#51247A" stroke-width="1.33" stroke-linecap="round" stroke-linejoin="round"/>
<path d="M27.6943 9.52313L20.6957 16.5217" stroke="#51247A" stroke-width="1.33" stroke-linecap="round" stroke-linejoin="round"/>
</svg>
