<svg width="32" height="32" viewBox="0 0 32 32" fill="none" xmlns="http://www.w3.org/2000/svg">
<path d="M15.3913 6.6087C15.3913 7.30056 15.6661 7.9641 16.1554 8.45332C16.6446 8.94255 17.3081 9.21739 18 9.21739C18.6919 9.21739 19.3554 8.94255 19.8446 8.45332C20.3338 7.9641 20.6087 7.30056 20.6087 6.6087C20.6087 5.91683 20.3338 5.25329 19.8446 4.76407C19.3554 4.27484 18.6919 4 18 4C17.3081 4 16.6446 4.27484 16.1554 4.76407C15.6661 5.25329 15.3913 5.91683 15.3913 6.6087V6.6087Z" stroke="#51247A" stroke-width="1.33" stroke-linecap="round" stroke-linejoin="round"/>
<path d="M25.2397 10.5635C24.9157 10.3041 24.502 10.184 24.0895 10.2296C23.677 10.2752 23.2995 10.4828 23.04 10.8066L22.3555 11.6612C22.1516 11.9177 21.872 12.1033 21.5565 12.1917C21.2411 12.2801 20.9057 12.2669 20.5983 12.1538L13.2939 9.49914C12.3861 9.17208 11.3997 9.1318 10.4682 9.38376C9.5367 9.63571 8.7051 10.1677 8.08591 10.9078L6.88696 12.3478C6.74274 12.5036 6.63173 12.6871 6.56066 12.8872C6.4896 13.0872 6.45998 13.2997 6.4736 13.5115C6.48722 13.7234 6.54379 13.9302 6.63988 14.1195C6.73597 14.3089 6.86956 14.4766 7.03254 14.6127C7.19551 14.7487 7.38446 14.8502 7.58789 14.9109C7.79131 14.9717 8.00497 14.9904 8.21585 14.9659C8.42673 14.9415 8.63044 14.8744 8.81458 14.7687C8.99871 14.6631 9.15943 14.521 9.28696 14.3513L10.4901 12.9113C10.6969 12.6647 10.9744 12.4876 11.2851 12.4038C11.5958 12.32 11.9248 12.3336 12.2275 12.4428L13.9753 13.0783L12.0125 18.5816C11.9087 18.8933 11.7094 19.1644 11.4429 19.3566C11.1764 19.5487 10.8562 19.6522 10.5277 19.6522H7.56522C7.1501 19.6522 6.75198 19.8171 6.45844 20.1106C6.16491 20.4042 6 20.8023 6 21.2174C6 21.6325 6.16491 22.0306 6.45844 22.3242C6.75198 22.6177 7.1501 22.7826 7.56522 22.7826H10.5277C11.4086 22.7839 12.2722 22.5369 13.0193 22.07C13.7663 21.6031 14.3667 20.9351 14.7517 20.1426L15.9245 20.6122C16.2754 20.7535 16.5635 21.0165 16.736 21.3531C16.9085 21.6897 16.9538 22.0772 16.8637 22.4445L15.961 26.055C15.8604 26.4576 15.9237 26.8838 16.1372 27.2398C16.3507 27.5957 16.6968 27.8523 17.0995 27.9531C17.2241 27.9839 17.352 27.9997 17.4803 28C17.8292 27.9997 18.1679 27.883 18.4428 27.6682C18.7177 27.4534 18.9129 27.153 18.9976 26.8146L19.8991 23.2C20.1705 22.0986 20.0355 20.9362 19.5189 19.9263C19.0023 18.9163 18.1389 18.1266 17.087 17.7019L15.8275 17.199L16.9169 14.1437L19.5256 15.0922C20.4485 15.428 21.4535 15.466 22.3992 15.2007C23.3448 14.9355 24.1835 14.3804 24.7972 13.6136L25.4817 12.7652C25.6105 12.6048 25.7065 12.4206 25.764 12.2231C25.8216 12.0256 25.8396 11.8187 25.8171 11.6142C25.7946 11.4097 25.7321 11.2116 25.633 11.0314C25.5339 10.8511 25.4002 10.6921 25.2397 10.5635V10.5635Z" stroke="#51247A" stroke-width="1.33" stroke-linecap="round" stroke-linejoin="round"/>
</svg>
