<svg width="32" height="32" viewBox="0 0 32 32" fill="none" xmlns="http://www.w3.org/2000/svg">
<path d="M15.4783 21.7391C15.4783 23.3996 16.1379 24.9921 17.312 26.1662C18.4862 27.3404 20.0787 28 21.7391 28C23.3996 28 24.9921 27.3404 26.1662 26.1662C27.3404 24.9921 28 23.3996 28 21.7391C28 20.0787 27.3404 18.4862 26.1662 17.312C24.9921 16.1379 23.3996 15.4783 21.7391 15.4783C20.0787 15.4783 18.4862 16.1379 17.312 17.312C16.1379 18.4862 15.4783 20.0787 15.4783 21.7391Z" stroke="#51247A" stroke-width="1.33" stroke-linecap="round" stroke-linejoin="round"/>
<path d="M21.7391 24.8696V21.2174C21.7391 21.079 21.6842 20.9463 21.5863 20.8485C21.4885 20.7506 21.3558 20.6956 21.2174 20.6956H20.1739" stroke="#51247A" stroke-width="1.33" stroke-linecap="round" stroke-linejoin="round"/>
<path d="M20.9565 18.0869C21.0081 18.0869 21.0585 18.1022 21.1014 18.1309C21.1443 18.1596 21.1778 18.2003 21.1975 18.248C21.2173 18.2957 21.2224 18.3481 21.2124 18.3987C21.2023 18.4493 21.1775 18.4958 21.141 18.5323C21.1045 18.5688 21.058 18.5936 21.0074 18.6037C20.9568 18.6137 20.9044 18.6086 20.8567 18.5888C20.809 18.5691 20.7683 18.5356 20.7396 18.4927C20.7109 18.4498 20.6956 18.3994 20.6956 18.3478C20.6956 18.2786 20.7231 18.2123 20.7721 18.1634C20.821 18.1144 20.8873 18.0869 20.9565 18.0869Z" stroke="#51247A" stroke-width="1.33" stroke-linecap="round" stroke-linejoin="round"/>
<path d="M20.1739 24.8696H23.3044" stroke="#51247A" stroke-width="1.33" stroke-linecap="round" stroke-linejoin="round"/>
<path d="M16.6261 12.9739C16.0432 12.0157 15.7531 10.908 15.7913 9.78713V8.48696C15.7913 7.89772 15.6752 7.31426 15.4498 6.76987C15.2243 6.22549 14.8938 5.73085 14.4771 5.3142C14.0604 4.89755 13.5658 4.56704 13.0214 4.34155C12.477 4.11606 11.8936 4 11.3043 4C10.7151 4 10.1316 4.11606 9.58726 4.34155C9.04288 4.56704 8.54824 4.89755 8.13159 5.3142C7.71493 5.73085 7.38443 6.22549 7.15894 6.76987C6.93345 7.31426 6.81739 7.89772 6.81739 8.48696V9.78609C6.85582 10.9074 6.56566 12.0154 5.9826 12.9739" stroke="#51247A" stroke-width="1.33" stroke-linecap="round" stroke-linejoin="round"/>
<path d="M6.81738 9.22261C7.6689 9.22204 8.51032 9.03827 9.28453 8.68375C10.0587 8.32924 10.7476 7.81229 11.3043 7.168C11.8609 7.8125 12.5497 8.3296 13.324 8.68413C14.0982 9.03866 14.9397 9.22232 15.7913 9.22261" stroke="#51247A" stroke-width="1.33" stroke-linecap="round" stroke-linejoin="round"/>
<path d="M15.256 9.19965C15.2065 10.2142 14.7686 11.1709 14.0331 11.8715C13.2975 12.572 12.3207 12.9628 11.3049 12.9628C10.2891 12.9628 9.3122 12.572 8.57664 11.8715C7.84108 11.1709 7.40321 10.2142 7.35373 9.19965" stroke="#51247A" stroke-width="1.33" stroke-linecap="round" stroke-linejoin="round"/>
<path d="M12.3478 21.7391H4C3.99976 20.4275 4.3527 19.14 5.02176 18.0119C5.69082 16.8837 6.65131 15.9565 7.80236 15.3277C8.95341 14.6988 10.2525 14.3915 11.5633 14.438C12.8741 14.4845 14.1482 14.8831 15.2518 15.592" stroke="#51247A" stroke-width="1.33" stroke-linecap="round" stroke-linejoin="round"/>
</svg>
