<svg width="32" height="32" viewBox="0 0 32 32" fill="none" xmlns="http://www.w3.org/2000/svg">
<path d="M15.8597 13.1334L4.68015 24.2949C4.30653 24.6522 4.07052 25.1295 4.01346 25.6432C3.9564 26.157 4.08192 26.6744 4.36804 27.105C4.54678 27.357 4.7784 27.567 5.0467 27.7203C5.31501 27.8736 5.61355 27.9665 5.92147 27.9925C6.22938 28.0185 6.53926 27.9769 6.82946 27.8707C7.11966 27.7646 7.38319 27.5963 7.60164 27.3778C7.60164 27.3778 18.8545 16.1249 18.8449 16.1175C19.9682 16.6583 21.2255 16.8575 22.4609 16.6906C23.6964 16.5236 24.8556 15.9978 25.7951 15.1783C26.7345 14.3587 27.4128 13.2816 27.7459 12.0802C28.079 10.8789 28.0522 9.60618 27.6689 8.4199C27.641 8.33233 27.591 8.25337 27.5239 8.19061C27.4567 8.12784 27.3746 8.08336 27.2853 8.06142C27.1961 8.03947 27.1026 8.0408 27.014 8.06528C26.9254 8.08976 26.8446 8.13656 26.7793 8.20122L22.5467 12.4327C22.4885 12.4911 22.4176 12.535 22.3394 12.5612C22.2613 12.5874 22.1782 12.595 22.0966 12.5835L20.1263 12.3021C20.0125 12.2858 19.9071 12.233 19.826 12.1516C19.7448 12.0703 19.6922 11.9648 19.6762 11.851L19.3938 9.88065C19.3821 9.79916 19.3896 9.71606 19.4155 9.63794C19.4415 9.55982 19.4853 9.48882 19.5435 9.43054L23.776 5.19798C23.8407 5.13257 23.8874 5.05165 23.9118 4.96299C23.9362 4.87432 23.9375 4.78088 23.9154 4.6916C23.8934 4.60232 23.8488 4.52019 23.7859 4.45309C23.723 4.38599 23.6439 4.33616 23.5563 4.30837C22.3699 3.92516 21.0972 3.89852 19.8959 4.23175C18.6946 4.56498 17.6174 5.24342 16.798 6.18298C15.9786 7.12255 15.4529 8.28192 15.2861 9.51741C15.1194 10.7529 15.3188 12.0102 15.8597 13.1334V13.1334Z" stroke="#51247A" stroke-width="1.33" stroke-linecap="round" stroke-linejoin="round"/>
<path d="M6.66319 25.313C6.70039 25.3501 6.72575 25.3974 6.73605 25.4489C6.74636 25.5004 6.74115 25.5538 6.72109 25.6023C6.70103 25.6509 6.66701 25.6924 6.62335 25.7216C6.57969 25.7508 6.52834 25.7664 6.47582 25.7664C6.42329 25.7664 6.37195 25.7508 6.32828 25.7216C6.28462 25.6924 6.2506 25.6509 6.23054 25.6023C6.21048 25.5538 6.20527 25.5004 6.21558 25.4489C6.22589 25.3974 6.25125 25.3501 6.28845 25.313C6.33819 25.2634 6.40557 25.2356 6.47582 25.2356C6.54606 25.2356 6.61344 25.2634 6.66319 25.313" stroke="#51247A" stroke-width="1.33" stroke-linecap="round" stroke-linejoin="round"/>
</svg>
