<svg width="32" height="32" viewBox="0 0 32 32" fill="none" xmlns="http://www.w3.org/2000/svg">
<path d="M11.7207 23.4202L15.9604 27.9843L20.2188 23.4003" stroke="#51247A" stroke-width="1.33" stroke-linecap="round" stroke-linejoin="round"/>
<path d="M15.8216 8.12696C15.9396 8.14783 16.0604 8.14783 16.1784 8.12696L26.5224 6.328C26.5826 6.31711 26.637 6.28545 26.6762 6.23853C26.7154 6.19162 26.7368 6.13243 26.7368 6.07131C26.7368 6.01018 26.7154 5.951 26.6762 5.90408C26.637 5.85717 26.5826 5.8255 26.5224 5.81461L16.1784 4.01566C16.0604 3.99478 15.9396 3.99478 15.8216 4.01566L5.47756 5.81461C5.41741 5.8255 5.363 5.85717 5.32382 5.90408C5.28463 5.951 5.26317 6.01018 5.26317 6.07131C5.26317 6.13243 5.28463 6.19162 5.32382 6.23853C5.363 6.28545 5.41741 6.31711 5.47756 6.328L15.8216 8.12696Z" stroke="#51247A" stroke-width="1.33" stroke-linecap="round" stroke-linejoin="round"/>
<path d="M5.56521 12.3322C4.71258 13.7655 4.1847 15.3684 4.01877 17.0279C4.01434 17.0947 4.02369 17.1618 4.04622 17.2249C4.06876 17.2879 4.10401 17.3457 4.1498 17.3946C4.19558 17.4436 4.25091 17.4825 4.31238 17.5092C4.37384 17.5359 4.44012 17.5496 4.50712 17.5496H6.59407C6.66606 17.5498 6.73731 17.5351 6.80334 17.5065C6.86937 17.4778 6.92875 17.4358 6.97776 17.3831C7.02676 17.3303 7.06433 17.268 7.08809 17.2001C7.11184 17.1321 7.12129 17.06 7.11581 16.9882C6.94226 15.3422 6.41319 13.7536 5.56521 12.3322V12.3322Z" stroke="#51247A" stroke-width="1.33" stroke-linecap="round" stroke-linejoin="round"/>
<path d="M5.56522 6.34363V12.3321" stroke="#51247A" stroke-width="1.33" stroke-linecap="round" stroke-linejoin="round"/>
<path d="M9.73914 14.4192V7.06995" stroke="#51247A" stroke-width="1.33" stroke-linecap="round" stroke-linejoin="round"/>
<path d="M22.2609 7.06995V14.4192" stroke="#51247A" stroke-width="1.33" stroke-linecap="round" stroke-linejoin="round"/>
<path d="M9.73914 11.2887C13.8032 12.6431 18.1968 12.6431 22.2609 11.2887" stroke="#51247A" stroke-width="1.33" stroke-linecap="round" stroke-linejoin="round"/>
<path d="M14.4139 19.0104C14.8359 19.4123 15.3964 19.6365 15.9791 19.6365C16.5619 19.6365 17.1223 19.4123 17.5443 19.0104" stroke="#51247A" stroke-width="1.33" stroke-linecap="round" stroke-linejoin="round"/>
<path d="M14.9565 14.9409C14.846 14.7677 14.6906 14.6277 14.5069 14.5359C14.3231 14.444 14.1179 14.4036 13.913 14.4191C13.7082 14.4036 13.503 14.444 13.3192 14.5359C13.1355 14.6277 12.9801 14.7677 12.8696 14.9409" stroke="#51247A" stroke-width="1.33" stroke-linecap="round" stroke-linejoin="round"/>
<path d="M19.1304 14.9409C19.0199 14.7677 18.8645 14.6277 18.6808 14.5359C18.497 14.444 18.2918 14.4036 18.087 14.4191C17.8821 14.4036 17.6769 14.444 17.4931 14.5359C17.3094 14.6277 17.154 14.7677 17.0435 14.9409" stroke="#51247A" stroke-width="1.33" stroke-linecap="round" stroke-linejoin="round"/>
<path d="M9.71827 14.4191C8.80627 14.8751 9.09218 16.9235 10.2181 17.4337C10.3742 17.5044 10.5104 17.6123 10.6149 17.7481C10.7193 17.8838 10.7888 18.0432 10.817 18.2122C11.2793 20.9711 14.5266 22.767 15.9791 22.767C17.4317 22.767 20.6748 20.9711 21.1412 18.2122C21.1695 18.0432 21.2389 17.8838 21.3434 17.7481C21.4478 17.6123 21.5841 17.5044 21.7402 17.4337C22.8682 16.9224 23.151 14.8751 22.24 14.4191" stroke="#51247A" stroke-width="1.33" stroke-linecap="round" stroke-linejoin="round"/>
<path d="M20.2188 23.4003L25.3913 25.1169L25.4101 25.1231C26.0399 25.3569 26.6041 25.739 27.0549 26.237C27.5057 26.7351 27.8299 27.3344 28 27.9843" stroke="#51247A" stroke-width="1.33" stroke-linecap="round" stroke-linejoin="round"/>
<path d="M11.7217 23.4202L6.6087 25.1169L6.58991 25.1231C5.96012 25.3569 5.39592 25.739 4.9451 26.237C4.49427 26.7351 4.17009 27.3344 4 27.9843" stroke="#51247A" stroke-width="1.33" stroke-linecap="round" stroke-linejoin="round"/>
</svg>
