<svg width="32" height="32" viewBox="0 0 32 32" fill="none" xmlns="http://www.w3.org/2000/svg">
<path d="M12.2174 9.90296C12.0235 9.70915 11.8697 9.47905 11.7648 9.2258C11.6599 8.97254 11.6059 8.70109 11.6059 8.42696C11.6059 8.15282 11.6599 7.88137 11.7648 7.62812C11.8697 7.37486 12.0235 7.14476 12.2174 6.95096C12.6087 6.55959 12.8285 6.02886 12.8285 5.47548C12.8285 4.92209 12.6087 4.39136 12.2174 4" stroke="#51247A" stroke-width="1.33" stroke-linecap="round" stroke-linejoin="round"/>
<path d="M16.3913 9.90296C16.1974 9.70915 16.0436 9.47905 15.9387 9.2258C15.8338 8.97254 15.7798 8.70109 15.7798 8.42696C15.7798 8.15282 15.8338 7.88137 15.9387 7.62812C16.0436 7.37486 16.1974 7.14476 16.3913 6.95096C16.7826 6.55959 17.0023 6.02886 17.0023 5.47548C17.0023 4.92209 16.7826 4.39136 16.3913 4" stroke="#51247A" stroke-width="1.33" stroke-linecap="round" stroke-linejoin="round"/>
<path d="M20.5652 9.90296C20.3713 9.70915 20.2175 9.47905 20.1126 9.2258C20.0077 8.97254 19.9537 8.70109 19.9537 8.42696C19.9537 8.15282 20.0077 7.88137 20.1126 7.62812C20.2175 7.37486 20.3713 7.14476 20.5652 6.95096C20.9565 6.55959 21.1763 6.02886 21.1763 5.47548C21.1763 4.92209 20.9565 4.39136 20.5652 4" stroke="#51247A" stroke-width="1.33" stroke-linecap="round" stroke-linejoin="round"/>
<path d="M9.6087 15.5221C9.6087 16.3523 10.3233 17.1486 11.5953 17.7356C12.8673 18.3227 14.5925 18.6525 16.3913 18.6525C18.1902 18.6525 19.9154 18.3227 21.1873 17.7356C22.4593 17.1486 23.1739 16.3523 23.1739 15.5221C23.1739 14.6918 22.4593 13.8956 21.1873 13.3085C19.9154 12.7215 18.1902 12.3916 16.3913 12.3916C14.5925 12.3916 12.8673 12.7215 11.5953 13.3085C10.3233 13.8956 9.6087 14.6918 9.6087 15.5221V15.5221Z" stroke="#51247A" stroke-width="1.33" stroke-linecap="round" stroke-linejoin="round"/>
<path d="M23.1739 15.5221C23.2 17.8591 22.7877 20.1802 21.9583 22.3652C21.8392 22.6705 21.6497 22.9433 21.4052 23.1614C20.0068 24.3431 18.2214 24.967 16.3913 24.9134C14.563 24.9657 12.7796 24.3419 11.3826 23.1614C11.1378 22.9436 10.9482 22.6707 10.8296 22.3652C9.998 20.1807 9.58387 17.8594 9.60869 15.5221" stroke="#51247A" stroke-width="1.33" stroke-linecap="round" stroke-linejoin="round"/>
<path d="M22.8807 19.0115C24.6692 19.9652 25.7826 21.2998 25.7826 22.7826C25.7826 25.6636 21.5784 28 16.3913 28C11.2042 28 7 25.6636 7 22.7826C7 21.2998 8.11339 19.9652 9.90087 19.0115" stroke="#51247A" stroke-width="1.33" stroke-linecap="round" stroke-linejoin="round"/>
<path d="M11.7228 17.7927C11.4244 16.5384 13.6292 15.4783 16.3913 15.4783C19.1534 15.4783 21.3583 16.5384 21.0598 17.7927" stroke="#51247A" stroke-width="1.33" stroke-linecap="round" stroke-linejoin="round"/>
</svg>
