<svg width="32" height="32" viewBox="0 0 32 32" fill="none" xmlns="http://www.w3.org/2000/svg">
<path d="M18.3039 28L18.8256 21.7395H21.4341V18.0876C21.4341 16.7039 20.8845 15.3769 19.9061 14.3986C18.9277 13.4202 17.6007 12.8705 16.2171 12.8705C14.8334 12.8705 13.5064 13.4202 12.528 14.3986C11.5497 15.3769 11 16.7039 11 18.0876V21.7395H13.6085L14.1302 28H18.3039Z" stroke="#51247A" stroke-width="1.33" stroke-linecap="round" stroke-linejoin="round"/>
<path d="M17.4347 7.65345C18.2546 7.65413 19.0661 7.48836 19.82 7.16618C19.7232 6.41365 19.393 5.71038 18.8758 5.15525C18.3586 4.60012 17.6805 4.22105 16.9367 4.07135C16.1929 3.92164 15.4208 4.00883 14.7292 4.32065C14.0375 4.63247 13.4609 5.15325 13.0806 5.80974C13.6458 6.39314 14.3225 6.85697 15.0704 7.1737C15.8184 7.49042 16.6224 7.65357 17.4347 7.65345V7.65345Z" stroke="#51247A" stroke-width="1.33" stroke-linecap="round" stroke-linejoin="round"/>
<path d="M12.5651 7.65344C12.5651 8.13302 12.6596 8.6079 12.8431 9.05098C13.0266 9.49405 13.2956 9.89664 13.6348 10.2358C13.9739 10.5749 14.3765 10.8439 14.8195 11.0274C15.2626 11.2109 15.7375 11.3054 16.2171 11.3054C16.6966 11.3054 17.1715 11.2109 17.6146 11.0274C18.0577 10.8439 18.4603 10.5749 18.7994 10.2358C19.1385 9.89664 19.4075 9.49405 19.591 9.05098C19.7746 8.6079 19.869 8.13302 19.869 7.65344C19.869 7.17386 19.7746 6.69898 19.591 6.2559C19.4075 5.81283 19.1385 5.41024 18.7994 5.07113C18.4603 4.73201 18.0577 4.46301 17.6146 4.27948C17.1715 4.09596 16.6966 4.0015 16.2171 4.0015C15.7375 4.0015 15.2626 4.09596 14.8195 4.27948C14.3765 4.46301 13.9739 4.73201 13.6348 5.07113C13.2956 5.41024 13.0266 5.81283 12.8431 6.2559C12.6596 6.69898 12.5651 7.17386 12.5651 7.65344V7.65344Z" stroke="#51247A" stroke-width="1.33" stroke-linecap="round" stroke-linejoin="round"/>
</svg>
