<svg width="32" height="32" viewBox="0 0 32 32" fill="none" xmlns="http://www.w3.org/2000/svg">
<path d="M26.9565 5.04346V7.13041" stroke="#51247A" stroke-width="1.33" stroke-linecap="round" stroke-linejoin="round"/>
<path d="M28 6.08698H25.913" stroke="#51247A" stroke-width="1.33" stroke-linecap="round" stroke-linejoin="round"/>
<path d="M8.17389 15.4783V17.5652" stroke="#51247A" stroke-width="1.33" stroke-linecap="round" stroke-linejoin="round"/>
<path d="M9.21739 16.5217H7.13043" stroke="#51247A" stroke-width="1.33" stroke-linecap="round" stroke-linejoin="round"/>
<path d="M24.8696 23.8261V25.9131" stroke="#51247A" stroke-width="1.33" stroke-linecap="round" stroke-linejoin="round"/>
<path d="M25.9131 24.8696H23.8261" stroke="#51247A" stroke-width="1.33" stroke-linecap="round" stroke-linejoin="round"/>
<path d="M17.5652 7.13043V9.21739" stroke="#51247A" stroke-width="1.33" stroke-linecap="round" stroke-linejoin="round"/>
<path d="M18.6087 8.17389H16.5217" stroke="#51247A" stroke-width="1.33" stroke-linecap="round" stroke-linejoin="round"/>
<path d="M4 4C4 4 14.4348 12.8696 28 14.4348" stroke="#51247A" stroke-width="1.33" stroke-linecap="round" stroke-linejoin="round"/>
<path d="M6.6087 5.95026V12.4198C6.60875 12.5142 6.6344 12.6068 6.68291 12.6877C6.73142 12.7687 6.80098 12.835 6.88418 12.8795C6.96738 12.9241 7.06111 12.9452 7.15537 12.9407C7.24964 12.9362 7.34092 12.9062 7.41949 12.8539L12.4804 9.48034" stroke="#51247A" stroke-width="1.33" stroke-linecap="round" stroke-linejoin="round"/>
<path d="M12.855 9.66925L14.2543 16.6606C14.2724 16.751 14.3143 16.835 14.3754 16.904C14.4366 16.973 14.515 17.0245 14.6026 17.0534C14.6902 17.0822 14.7839 17.0873 14.8741 17.0682C14.9643 17.049 15.0479 17.0063 15.1162 16.9444L19.8807 12.6139" stroke="#51247A" stroke-width="1.33" stroke-linecap="round" stroke-linejoin="round"/>
<path d="M20.3628 12.7704L21.5482 18.6974C21.5667 18.7899 21.61 18.8756 21.6734 18.9454C21.7368 19.0153 21.8179 19.0666 21.9081 19.094C21.9984 19.1214 22.0944 19.1239 22.1859 19.1011C22.2774 19.0783 22.361 19.0311 22.4278 18.9645L27.0744 14.3148" stroke="#51247A" stroke-width="1.33" stroke-linecap="round" stroke-linejoin="round"/>
<path d="M12.2967 21.6368L16.383 26.6132C16.4415 26.6845 16.518 26.7389 16.6045 26.771C16.691 26.8031 16.7845 26.8117 16.8754 26.7959C16.9663 26.7801 17.0514 26.7405 17.122 26.6811C17.1925 26.6216 17.2461 26.5446 17.2772 26.4577L19.6772 19.7419C14.6406 21.4981 9.33329 22.3508 4 22.2608" stroke="#51247A" stroke-width="1.33" stroke-linecap="round" stroke-linejoin="round"/>
<path d="M11.7979 21.7234L9.76625 27.4135C9.73445 27.5024 9.67912 27.5811 9.60615 27.641C9.53318 27.7009 9.44532 27.7399 9.35192 27.7539C9.25853 27.7678 9.1631 27.7561 9.07583 27.7201C8.98855 27.684 8.91269 27.625 8.85634 27.5492L4.93286 22.2786" stroke="#51247A" stroke-width="1.33" stroke-linecap="round" stroke-linejoin="round"/>
<path d="M23.8261 8.95654C23.8953 8.95654 23.9617 8.98403 24.0106 9.03295C24.0595 9.08187 24.087 9.14823 24.087 9.21741" stroke="#51247A" stroke-width="1.33" stroke-linecap="round" stroke-linejoin="round"/>
<path d="M23.5652 9.21741C23.5652 9.14823 23.5927 9.08187 23.6417 9.03295C23.6906 8.98403 23.7569 8.95654 23.8261 8.95654" stroke="#51247A" stroke-width="1.33" stroke-linecap="round" stroke-linejoin="round"/>
<path d="M23.8261 9.47828C23.7569 9.47828 23.6906 9.45079 23.6417 9.40187C23.5927 9.35295 23.5652 9.28659 23.5652 9.21741" stroke="#51247A" stroke-width="1.33" stroke-linecap="round" stroke-linejoin="round"/>
<path d="M24.087 9.21741C24.087 9.28659 24.0595 9.35295 24.0106 9.40187C23.9617 9.45079 23.8953 9.47828 23.8261 9.47828" stroke="#51247A" stroke-width="1.33" stroke-linecap="round" stroke-linejoin="round"/>
<path d="M27.7391 22C27.8083 22 27.8747 22.0275 27.9236 22.0764C27.9725 22.1253 28 22.1917 28 22.2609" stroke="#51247A" stroke-width="1.33" stroke-linecap="round" stroke-linejoin="round"/>
<path d="M27.4783 22.2609C27.4783 22.1917 27.5058 22.1253 27.5547 22.0764C27.6036 22.0275 27.67 22 27.7391 22" stroke="#51247A" stroke-width="1.33" stroke-linecap="round" stroke-linejoin="round"/>
<path d="M27.7391 22.5217C27.67 22.5217 27.6036 22.4942 27.5547 22.4453C27.5058 22.3964 27.4783 22.3301 27.4783 22.2609" stroke="#51247A" stroke-width="1.33" stroke-linecap="round" stroke-linejoin="round"/>
<path d="M28 22.2609C28 22.3301 27.9725 22.3964 27.9236 22.4453C27.8747 22.4942 27.8083 22.5217 27.7391 22.5217" stroke="#51247A" stroke-width="1.33" stroke-linecap="round" stroke-linejoin="round"/>
<path d="M5.04346 18.3478C5.11264 18.3478 5.179 18.3753 5.22792 18.4242C5.27684 18.4732 5.30433 18.5395 5.30433 18.6087" stroke="#51247A" stroke-width="1.33" stroke-linecap="round" stroke-linejoin="round"/>
<path d="M4.78259 18.6087C4.78259 18.5395 4.81008 18.4732 4.859 18.4242C4.90792 18.3753 4.97428 18.3478 5.04346 18.3478" stroke="#51247A" stroke-width="1.33" stroke-linecap="round" stroke-linejoin="round"/>
<path d="M5.04346 18.8696C4.97428 18.8696 4.90792 18.8421 4.859 18.7932C4.81008 18.7442 4.78259 18.6779 4.78259 18.6087" stroke="#51247A" stroke-width="1.33" stroke-linecap="round" stroke-linejoin="round"/>
<path d="M5.30433 18.6087C5.30433 18.6779 5.27684 18.7442 5.22792 18.7932C5.179 18.8421 5.11264 18.8696 5.04346 18.8696" stroke="#51247A" stroke-width="1.33" stroke-linecap="round" stroke-linejoin="round"/>
</svg>
