<svg width="32" height="32" viewBox="0 0 32 32" fill="none" xmlns="http://www.w3.org/2000/svg">
<path d="M24.7271 15.6034C24.7334 17.9341 23.8206 20.1733 22.1868 21.8355C20.553 23.4977 18.3298 24.4489 15.9993 24.4828C14.8613 24.5 13.7311 24.291 12.6745 23.8681C11.6178 23.4451 10.6556 22.8166 9.84373 22.0189C9.03184 21.2212 8.38641 20.2703 7.94487 19.2213C7.50334 18.1722 7.27448 17.0459 7.27158 15.9078C7.2653 13.5769 8.17799 11.3376 9.81178 9.67521C11.4456 8.01283 13.6688 7.06142 15.9993 7.02727C17.1374 7.01023 18.2676 7.2193 19.3243 7.64237C20.381 8.06544 21.3431 8.69408 22.155 9.49185C22.9669 10.2896 23.6123 11.2406 24.0538 12.2897C24.4953 13.3388 24.7242 14.4652 24.7271 15.6034V15.6034Z" stroke="#51247A" stroke-width="1.33" stroke-linecap="round" stroke-linejoin="round"/>
<path d="M15.9993 16.846V11.3901" stroke="#51247A" stroke-width="1.33" stroke-linecap="round" stroke-linejoin="round"/>
<path d="M16.2721 19.8669C16.2712 19.7952 16.2421 19.7268 16.191 19.6765C16.1399 19.6263 16.071 19.5982 15.9993 19.5985" stroke="#51247A" stroke-width="1.33" stroke-linecap="round" stroke-linejoin="round"/>
<path d="M16.0048 20.144C16.0406 20.1434 16.0759 20.1358 16.1087 20.1215C16.1415 20.1073 16.1712 20.0867 16.196 20.061C16.2208 20.0352 16.2403 20.0048 16.2534 19.9715C16.2665 19.9382 16.2728 19.9026 16.2721 19.8669" stroke="#51247A" stroke-width="1.33" stroke-linecap="round" stroke-linejoin="round"/>
<path d="M15.9993 20.144H16.0043" stroke="#51247A" stroke-width="1.33" stroke-linecap="round" stroke-linejoin="round"/>
<path d="M15.7277 19.8756C15.7286 19.9471 15.7576 20.0153 15.8084 20.0656C15.8593 20.1158 15.9279 20.144 15.9993 20.144" stroke="#51247A" stroke-width="1.33" stroke-linecap="round" stroke-linejoin="round"/>
<path d="M15.9993 19.5985C15.9636 19.5991 15.9283 19.6067 15.8955 19.621C15.8626 19.6352 15.833 19.6558 15.8081 19.6815C15.7833 19.7073 15.7638 19.7377 15.7507 19.771C15.7377 19.8043 15.7313 19.8399 15.7321 19.8756" stroke="#51247A" stroke-width="1.33" stroke-linecap="round" stroke-linejoin="round"/>
<path d="M15.999 19.5985H15.995" stroke="#51247A" stroke-width="1.33" stroke-linecap="round" stroke-linejoin="round"/>
<path d="M16.0003 19.5985H15.9993" stroke="#51247A" stroke-width="1.33" stroke-linecap="round" stroke-linejoin="round"/>
<path d="M7.81706 24.5319C6.6168 23.4128 5.65881 22.0595 5.00228 20.5556C4.34575 19.0516 4.00465 17.429 4.00005 15.788C3.99545 14.147 4.32745 12.5225 4.97553 11.0149C5.62361 9.50731 6.574 8.14865 7.76796 7.02289" stroke="#51247A" stroke-width="1.33" stroke-linecap="round" stroke-linejoin="round"/>
<path d="M24.2067 7C25.4062 8.1244 26.3618 9.48327 27.0143 10.9923C27.6669 12.5014 28.0024 14.1284 28 15.7725C27.9976 17.4166 27.6575 19.0426 27.0007 20.5498C26.3438 22.057 25.3843 23.4131 24.1816 24.5341" stroke="#51247A" stroke-width="1.33" stroke-linecap="round" stroke-linejoin="round"/>
</svg>
