<svg width="32" height="32" viewBox="0 0 32 32" fill="none" xmlns="http://www.w3.org/2000/svg">
<path d="M16.5217 28V4" stroke="#51247A" stroke-width="1.33" stroke-linecap="round" stroke-linejoin="round"/>
<path d="M11.2897 13.8661L9.21739 17.5652L7.07617 13.8525" stroke="#51247A" stroke-width="1.33" stroke-linecap="round" stroke-linejoin="round"/>
<path d="M12.4887 8.99408C12.5228 8.80951 12.5416 8.62244 12.545 8.43478C12.545 7.53535 12.1877 6.67276 11.5518 6.03676C10.9158 5.40077 10.0532 5.04347 9.15374 5.04347C8.25431 5.04347 7.39172 5.40077 6.75573 6.03676C6.11973 6.67276 5.76244 7.53535 5.76244 8.43478C5.76532 8.62247 5.78418 8.80958 5.81878 8.99408C6.45258 8.98541 7.07737 8.84277 7.65214 8.57553C8.2269 8.30829 8.73864 7.92249 9.15374 7.44347C9.56854 7.92285 10.0802 8.3089 10.655 8.57617C11.2299 8.84344 11.8548 8.98587 12.4887 8.99408V8.99408Z" stroke="#51247A" stroke-width="1.33" stroke-linecap="round" stroke-linejoin="round"/>
<path d="M5.76244 8.43478C5.76244 9.33421 6.11973 10.1968 6.75573 10.8328C7.39172 11.4688 8.25431 11.8261 9.15374 11.8261C10.0532 11.8261 10.9158 11.4688 11.5518 10.8328C12.1877 10.1968 12.545 9.33421 12.545 8.43478C12.545 7.53535 12.1877 6.67276 11.5518 6.03676C10.9158 5.40077 10.0532 5.04347 9.15374 5.04347C8.25431 5.04347 7.39172 5.40077 6.75573 6.03676C6.11973 6.67276 5.76244 7.53535 5.76244 8.43478V8.43478Z" stroke="#51247A" stroke-width="1.33" stroke-linecap="round" stroke-linejoin="round"/>
<path d="M9.17357 13.1743C9.98683 13.1766 10.7755 13.4535 11.4117 13.9602C12.0478 14.4668 12.4943 15.1735 12.6786 15.9656L14.4348 21.7391H11.8261L10.7826 26.9565H7.65217L6.6087 21.7391H4L5.66957 15.9656C5.85385 15.1736 6.30014 14.4671 6.93611 13.9605C7.57208 13.4539 8.36048 13.1768 9.17357 13.1743Z" stroke="#51247A" stroke-width="1.33" stroke-linecap="round" stroke-linejoin="round"/>
<path d="M24.4344 8.43478C25.1959 8.43557 25.9496 8.2815 26.6497 7.98191C26.5607 7.28223 26.2543 6.62813 25.7737 6.11183C25.2932 5.59552 24.6628 5.24303 23.9713 5.10403C23.2798 4.96504 22.5621 5.04656 21.9194 5.3371C21.2767 5.62764 20.7413 6.11254 20.3889 6.72347C20.9143 7.26506 21.5431 7.69561 22.238 7.98957C22.933 8.28354 23.6799 8.43493 24.4344 8.43478V8.43478Z" stroke="#51247A" stroke-width="1.33" stroke-linecap="round" stroke-linejoin="round"/>
<path d="M19.913 8.43478C19.913 9.33421 20.2703 10.1968 20.9063 10.8328C21.5423 11.4688 22.4049 11.8261 23.3043 11.8261C24.2038 11.8261 25.0664 11.4688 25.7024 10.8328C26.3384 10.1968 26.6956 9.33421 26.6956 8.43478C26.6956 7.53535 26.3384 6.67276 25.7024 6.03676C25.0664 5.40077 24.2038 5.04347 23.3043 5.04347C22.4049 5.04347 21.5423 5.40077 20.9063 6.03676C20.2703 6.67276 19.913 7.53535 19.913 8.43478V8.43478Z" stroke="#51247A" stroke-width="1.33" stroke-linecap="round" stroke-linejoin="round"/>
<path d="M24.8696 26.9565L25.9131 21.2174H28V18.0869C28 16.8416 27.5053 15.6472 26.6247 14.7666C25.7441 13.886 24.5497 13.3913 23.3044 13.3913C22.059 13.3913 20.8646 13.886 19.984 14.7666C19.1034 15.6472 18.6087 16.8416 18.6087 18.0869V21.2174H20.6957L21.7391 26.9565H24.8696Z" stroke="#51247A" stroke-width="1.33" stroke-linecap="round" stroke-linejoin="round"/>
</svg>
