<svg width="32" height="32" viewBox="0 0 32 32" fill="none" xmlns="http://www.w3.org/2000/svg">
<path d="M10.8194 10.8194L17.4752 4.16367C17.5259 4.11186 17.5865 4.0707 17.6534 4.04259C17.7203 4.01449 17.7921 4.00001 17.8647 4H26.6874C26.7953 4.00002 26.9008 4.03207 26.9906 4.09209C27.0803 4.1521 27.1502 4.23739 27.1914 4.33715C27.2327 4.43691 27.2434 4.54667 27.2222 4.65252C27.2011 4.75838 27.149 4.85557 27.0725 4.93181L16.0022 16.0022" stroke="#51247A" stroke-width="1.33" stroke-linecap="round" stroke-linejoin="round"/>
<path d="M21.185 10.8194L27.8407 17.4752C27.9427 17.5774 28 17.7159 28 17.8603V26.683C28 26.791 27.9679 26.8965 27.9079 26.9862C27.8479 27.0759 27.7626 27.1458 27.6629 27.1871C27.5631 27.2283 27.4533 27.239 27.3475 27.2179C27.2416 27.1967 27.1444 27.1446 27.0682 27.0682L16.0022 16.0022" stroke="#51247A" stroke-width="1.33" stroke-linecap="round" stroke-linejoin="round"/>
<path d="M21.1849 21.185L14.5291 27.8407C14.4269 27.9427 14.2884 28 14.144 28H5.31692C5.20897 28 5.10346 27.9679 5.01373 27.9079C4.924 27.8479 4.8541 27.7626 4.81286 27.6629C4.77162 27.5631 4.76091 27.4533 4.78207 27.3475C4.80324 27.2416 4.85533 27.1444 4.93176 27.0682L16.0021 16.0022" stroke="#51247A" stroke-width="1.33" stroke-linecap="round" stroke-linejoin="round"/>
<path d="M10.8194 21.1849L4.16367 14.5291C4.11186 14.4784 4.0707 14.4178 4.04259 14.3509C4.01449 14.284 4.00001 14.2122 4 14.1396V5.31692C4.00002 5.20897 4.03207 5.10346 4.09209 5.01373C4.1521 4.924 4.23739 4.8541 4.33715 4.81286C4.43691 4.77162 4.54667 4.76091 4.65252 4.78207C4.75838 4.80324 4.85557 4.85533 4.93181 4.93176L16.0022 16.0021" stroke="#51247A" stroke-width="1.33" stroke-linecap="round" stroke-linejoin="round"/>
<path d="M16.0022 26.3677V5.63666" stroke="#51247A" stroke-width="1.33" stroke-linecap="round" stroke-linejoin="round"/>
<path d="M5.63666 16.0022H26.3677" stroke="#51247A" stroke-width="1.33" stroke-linecap="round" stroke-linejoin="round"/>
</svg>
