<svg width="32" height="32" viewBox="0 0 32 32" fill="none" xmlns="http://www.w3.org/2000/svg">
<path d="M14.7826 6.6087C14.7826 7.30056 15.0575 7.9641 15.5467 8.45332C16.0359 8.94255 16.6994 9.21739 17.3913 9.21739C18.0832 9.21739 18.7467 8.94255 19.2359 8.45332C19.7252 7.9641 20 7.30056 20 6.6087C20 5.91683 19.7252 5.25329 19.2359 4.76407C18.7467 4.27484 18.0832 4 17.3913 4C16.6994 4 16.0359 4.27484 15.5467 4.76407C15.0575 5.25329 14.7826 5.91683 14.7826 6.6087V6.6087Z" stroke="#51247A" stroke-width="1.33" stroke-linecap="round" stroke-linejoin="round"/>
<path d="M17.3913 26.4348V21.2174" stroke="#51247A" stroke-width="1.33" stroke-linecap="round" stroke-linejoin="round"/>
<path d="M14.2609 21.7391V26.4348C14.2609 26.8499 14.4258 27.248 14.7193 27.5416C15.0128 27.8351 15.411 28 15.8261 28C16.2412 28 16.6393 27.8351 16.9329 27.5416C17.2264 27.248 17.3913 26.8499 17.3913 26.4348C17.3913 26.8499 17.5562 27.248 17.8497 27.5416C18.1433 27.8351 18.5414 28 18.9565 28C19.3716 28 19.7698 27.8351 20.0633 27.5416C20.3568 27.248 20.5217 26.8499 20.5217 26.4348V20.1739" stroke="#51247A" stroke-width="1.33" stroke-linecap="round" stroke-linejoin="round"/>
<path d="M20.5217 14.9565V20.1739C20.5217 20.589 20.6866 20.9872 20.9802 21.2807C21.2737 21.5742 21.6718 21.7391 22.0869 21.7391C22.5021 21.7391 22.9002 21.5742 23.1937 21.2807C23.4873 20.9872 23.6522 20.589 23.6522 20.1739V14.4348C23.6522 13.6045 23.3223 12.8083 22.7353 12.2212C22.1482 11.6342 21.352 11.3044 20.5217 11.3044H14.2609C13.6145 11.3042 12.984 11.5041 12.4558 11.8767C11.9276 12.2492 11.5277 12.7761 11.3109 13.385" stroke="#51247A" stroke-width="1.33" stroke-linecap="round" stroke-linejoin="round"/>
<path d="M14.2609 15.4783H8" stroke="#51247A" stroke-width="1.33" stroke-linecap="round" stroke-linejoin="round"/>
<path d="M9.04349 15.4783V18.3551C9.04366 19.1853 9.37359 19.9814 9.96071 20.5684L11.1304 21.7391L12.3002 20.5694C12.591 20.2787 12.8217 19.9335 12.9791 19.5535C13.1365 19.1736 13.2174 18.7664 13.2174 18.3551V15.4783" stroke="#51247A" stroke-width="1.33" stroke-linecap="round" stroke-linejoin="round"/>
<path d="M11.1304 21.7391V28" stroke="#51247A" stroke-width="1.33" stroke-linecap="round" stroke-linejoin="round"/>
<path d="M10.0869 28H12.1739" stroke="#51247A" stroke-width="1.33" stroke-linecap="round" stroke-linejoin="round"/>
</svg>
