<svg width="32" height="32" viewBox="0 0 32 32" fill="none" xmlns="http://www.w3.org/2000/svg">
<path d="M4 28H28" stroke="#51247A" stroke-width="1.33" stroke-linecap="round" stroke-linejoin="round"/>
<path d="M11.3044 28V9.21737C11.3044 8.94062 11.4143 8.67521 11.61 8.47952C11.8057 8.28383 12.0711 8.17389 12.3478 8.17389H19.6522C19.9289 8.17389 20.1943 8.28383 20.39 8.47952C20.5857 8.67521 20.6957 8.94062 20.6957 9.21737V28" stroke="#51247A" stroke-width="1.33" stroke-linecap="round" stroke-linejoin="round"/>
<path d="M26.9565 28V18.087C26.9565 17.9486 26.9015 17.8159 26.8037 17.7181C26.7058 17.6202 26.5731 17.5652 26.4348 17.5652H23.3043C23.166 17.5652 23.0333 17.6202 22.9354 17.7181C22.8376 17.8159 22.7826 17.9486 22.7826 18.087V28" stroke="#51247A" stroke-width="1.33" stroke-linecap="round" stroke-linejoin="round"/>
<path d="M9.2174 28V18.087C9.2174 17.9486 9.16243 17.8159 9.06459 17.7181C8.96674 17.6202 8.83404 17.5652 8.69566 17.5652H5.56523C5.42685 17.5652 5.29415 17.6202 5.1963 17.7181C5.09846 17.8159 5.04349 17.9486 5.04349 18.087V28" stroke="#51247A" stroke-width="1.33" stroke-linecap="round" stroke-linejoin="round"/>
<path d="M8.17392 17.5652V16.5217" stroke="#51247A" stroke-width="1.33" stroke-linecap="round" stroke-linejoin="round"/>
<path d="M23.8261 17.5652V16.5217" stroke="#51247A" stroke-width="1.33" stroke-linecap="round" stroke-linejoin="round"/>
<path d="M17.5652 8.17393V6.60871C17.5652 6.47034 17.5103 6.33763 17.4124 6.23979C17.3146 6.14194 17.1819 6.08698 17.0435 6.08698H14.9565C14.8181 6.08698 14.6854 6.14194 14.5876 6.23979C14.4898 6.33763 14.4348 6.47034 14.4348 6.60871V8.17393" stroke="#51247A" stroke-width="1.33" stroke-linecap="round" stroke-linejoin="round"/>
<path d="M16.5217 6.08696V4" stroke="#51247A" stroke-width="1.33" stroke-linecap="round" stroke-linejoin="round"/>
<path d="M13.3913 11.3043H18.6087" stroke="#51247A" stroke-width="1.33" stroke-linecap="round" stroke-linejoin="round"/>
<path d="M13.3913 14.4348H18.6087" stroke="#51247A" stroke-width="1.33" stroke-linecap="round" stroke-linejoin="round"/>
<path d="M13.3913 17.5652H18.6087" stroke="#51247A" stroke-width="1.33" stroke-linecap="round" stroke-linejoin="round"/>
<path d="M13.3913 20.6957H18.6087" stroke="#51247A" stroke-width="1.33" stroke-linecap="round" stroke-linejoin="round"/>
<path d="M13.3913 23.8261H18.6087" stroke="#51247A" stroke-width="1.33" stroke-linecap="round" stroke-linejoin="round"/>
</svg>
