<svg width="32" height="32" viewBox="0 0 32 32" fill="none" xmlns="http://www.w3.org/2000/svg">
<path d="M7.13043 5H24.8696V24.8261H7.13043V5Z" stroke="#51247A" stroke-width="1.33" stroke-linecap="round" stroke-linejoin="round"/>
<path d="M9.21738 24.8261V26.913C9.21738 27.1898 9.32731 27.4552 9.523 27.6509C9.71869 27.8466 9.98411 27.9565 10.2609 27.9565C10.5376 27.9565 10.803 27.8466 10.9987 27.6509C11.1944 27.4552 11.3043 27.1898 11.3043 26.913V24.8261" stroke="#51247A" stroke-width="1.33" stroke-linecap="round" stroke-linejoin="round"/>
<path d="M20.6956 24.8261V26.913C20.6956 27.1898 20.8056 27.4552 21.0013 27.6509C21.197 27.8466 21.4624 27.9565 21.7391 27.9565C22.0159 27.9565 22.2813 27.8466 22.477 27.6509C22.6727 27.4552 22.7826 27.1898 22.7826 26.913V24.8261" stroke="#51247A" stroke-width="1.33" stroke-linecap="round" stroke-linejoin="round"/>
<path d="M7.13043 14.3913H5.04348C4.76673 14.3913 4.50132 14.2814 4.30563 14.0857C4.10994 13.89 4 13.6246 4 13.3478V10.2174C4 9.94065 4.10994 9.67524 4.30563 9.47955C4.50132 9.28386 4.76673 9.17392 5.04348 9.17392H7.13043" stroke="#51247A" stroke-width="1.33" stroke-linecap="round" stroke-linejoin="round"/>
<path d="M24.8696 14.3913H26.9565C27.2333 14.3913 27.4987 14.2814 27.6944 14.0857C27.8901 13.89 28 13.6246 28 13.3478V10.2174C28 9.94065 27.8901 9.67524 27.6944 9.47955C27.4987 9.28386 27.2333 9.17392 26.9565 9.17392H24.8696" stroke="#51247A" stroke-width="1.33" stroke-linecap="round" stroke-linejoin="round"/>
<path d="M7.13043 18.5652H24.8696" stroke="#51247A" stroke-width="1.33" stroke-linecap="round" stroke-linejoin="round"/>
<path d="M9.21738 20.6522H11.3043" stroke="#51247A" stroke-width="1.33" stroke-linecap="round" stroke-linejoin="round"/>
<path d="M20.6956 20.6522H22.7826" stroke="#51247A" stroke-width="1.33" stroke-linecap="round" stroke-linejoin="round"/>
<path d="M10.2609 7.34784C10.3301 7.34784 10.3964 7.37532 10.4453 7.42425C10.4942 7.47317 10.5217 7.53952 10.5217 7.60871" stroke="#51247A" stroke-width="1.33" stroke-linecap="round" stroke-linejoin="round"/>
<path d="M10 7.60871C10 7.53952 10.0275 7.47317 10.0764 7.42425C10.1253 7.37532 10.1917 7.34784 10.2609 7.34784" stroke="#51247A" stroke-width="1.33" stroke-linecap="round" stroke-linejoin="round"/>
<path d="M10.2609 7.86957C10.1917 7.86957 10.1253 7.84209 10.0764 7.79317C10.0275 7.74424 10 7.67789 10 7.6087" stroke="#51247A" stroke-width="1.33" stroke-linecap="round" stroke-linejoin="round"/>
<path d="M10.5217 7.6087C10.5217 7.67789 10.4942 7.74424 10.4453 7.79317C10.3964 7.84209 10.3301 7.86957 10.2609 7.86957" stroke="#51247A" stroke-width="1.33" stroke-linecap="round" stroke-linejoin="round"/>
<path d="M12.8696 7.6087H18.087" stroke="#51247A" stroke-width="1.33" stroke-linecap="round" stroke-linejoin="round"/>
</svg>
