<svg width="32" height="32" viewBox="0 0 32 32" fill="none" xmlns="http://www.w3.org/2000/svg">
<path d="M28 17.5652C28 16.4582 27.5602 15.3966 26.7775 14.6138C25.9947 13.831 24.9331 13.3913 23.8261 13.3913H8.17391C7.06692 13.3913 6.00527 13.831 5.22251 14.6138C4.43975 15.3966 4 16.4582 4 17.5652V25.913C4 26.4665 4.21988 26.9974 4.61126 27.3887C5.00264 27.7801 5.53346 28 6.08696 28C7.61461 28 9.06504 26.1217 10.9913 23.2449C11.0867 23.1027 11.2156 22.9861 11.3666 22.9055C11.5176 22.8249 11.6862 22.7827 11.8574 22.7826H20.1343C20.3055 22.7827 20.474 22.8249 20.6251 22.9055C20.7761 22.9861 20.905 23.1027 21.0003 23.2449C22.9308 26.1165 24.3812 28 25.9047 28C26.4582 28 26.989 27.7801 27.3804 27.3887C27.7718 26.9974 27.9917 26.4665 27.9917 25.913L28 17.5652Z" stroke="#51247A" stroke-width="1.33" stroke-linecap="round" stroke-linejoin="round"/>
<path d="M9.21738 16.5217V20.6956" stroke="#51247A" stroke-width="1.33" stroke-linecap="round" stroke-linejoin="round"/>
<path d="M11.3043 18.6087H7.13043" stroke="#51247A" stroke-width="1.33" stroke-linecap="round" stroke-linejoin="round"/>
<path d="M22.7826 16.2609C22.8518 16.2609 22.9181 16.2883 22.9671 16.3373C23.016 16.3862 23.0435 16.4525 23.0435 16.5217" stroke="#51247A" stroke-width="1.33" stroke-linecap="round" stroke-linejoin="round"/>
<path d="M22.5217 16.5217C22.5217 16.4525 22.5492 16.3862 22.5981 16.3373C22.6471 16.2883 22.7134 16.2609 22.7826 16.2609" stroke="#51247A" stroke-width="1.33" stroke-linecap="round" stroke-linejoin="round"/>
<path d="M22.7826 16.7826C22.7134 16.7826 22.6471 16.7551 22.5981 16.7062C22.5492 16.6573 22.5217 16.5909 22.5217 16.5217" stroke="#51247A" stroke-width="1.33" stroke-linecap="round" stroke-linejoin="round"/>
<path d="M23.0435 16.5217C23.0435 16.5909 23.016 16.6573 22.9671 16.7062C22.9181 16.7551 22.8518 16.7826 22.7826 16.7826" stroke="#51247A" stroke-width="1.33" stroke-linecap="round" stroke-linejoin="round"/>
<path d="M20.6956 18.3478C20.7648 18.3478 20.8312 18.3753 20.8801 18.4242C20.929 18.4732 20.9565 18.5395 20.9565 18.6087" stroke="#51247A" stroke-width="1.33" stroke-linecap="round" stroke-linejoin="round"/>
<path d="M20.4348 18.6087C20.4348 18.5395 20.4623 18.4732 20.5112 18.4242C20.5601 18.3753 20.6265 18.3478 20.6957 18.3478" stroke="#51247A" stroke-width="1.33" stroke-linecap="round" stroke-linejoin="round"/>
<path d="M20.6957 18.8696C20.6265 18.8696 20.5601 18.8421 20.5112 18.7932C20.4623 18.7442 20.4348 18.6779 20.4348 18.6087" stroke="#51247A" stroke-width="1.33" stroke-linecap="round" stroke-linejoin="round"/>
<path d="M20.9565 18.6087C20.9565 18.6779 20.929 18.7442 20.8801 18.7932C20.8312 18.8421 20.7648 18.8696 20.6956 18.8696" stroke="#51247A" stroke-width="1.33" stroke-linecap="round" stroke-linejoin="round"/>
<path d="M22.7826 20.4348C22.8518 20.4348 22.9181 20.4623 22.9671 20.5112C23.016 20.5601 23.0435 20.6265 23.0435 20.6957" stroke="#51247A" stroke-width="1.33" stroke-linecap="round" stroke-linejoin="round"/>
<path d="M22.5217 20.6957C22.5217 20.6265 22.5492 20.5601 22.5981 20.5112C22.6471 20.4623 22.7134 20.4348 22.7826 20.4348" stroke="#51247A" stroke-width="1.33" stroke-linecap="round" stroke-linejoin="round"/>
<path d="M22.7826 20.9565C22.7134 20.9565 22.6471 20.929 22.5981 20.8801C22.5492 20.8312 22.5217 20.7648 22.5217 20.6956" stroke="#51247A" stroke-width="1.33" stroke-linecap="round" stroke-linejoin="round"/>
<path d="M23.0435 20.6956C23.0435 20.7648 23.016 20.8312 22.9671 20.8801C22.9181 20.929 22.8518 20.9565 22.7826 20.9565" stroke="#51247A" stroke-width="1.33" stroke-linecap="round" stroke-linejoin="round"/>
<path d="M24.8696 18.3478C24.9388 18.3478 25.0051 18.3753 25.054 18.4242C25.103 18.4732 25.1304 18.5395 25.1304 18.6087" stroke="#51247A" stroke-width="1.33" stroke-linecap="round" stroke-linejoin="round"/>
<path d="M24.6087 18.6087C24.6087 18.5395 24.6362 18.4732 24.6851 18.4242C24.734 18.3753 24.8004 18.3478 24.8696 18.3478" stroke="#51247A" stroke-width="1.33" stroke-linecap="round" stroke-linejoin="round"/>
<path d="M24.8696 18.8696C24.8004 18.8696 24.734 18.8421 24.6851 18.7932C24.6362 18.7442 24.6087 18.6779 24.6087 18.6087" stroke="#51247A" stroke-width="1.33" stroke-linecap="round" stroke-linejoin="round"/>
<path d="M25.1304 18.6087C25.1304 18.6779 25.103 18.7442 25.054 18.7932C25.0051 18.8421 24.9388 18.8696 24.8696 18.8696" stroke="#51247A" stroke-width="1.33" stroke-linecap="round" stroke-linejoin="round"/>
<path d="M13.9131 6.08696C13.9131 6.64045 14.1329 7.17128 14.5243 7.56266C14.9157 7.95404 15.4465 8.17391 16 8.17391C16.5535 8.17391 17.0843 7.95404 17.4757 7.56266C17.8671 7.17128 18.087 6.64045 18.087 6.08696C18.087 5.53346 17.8671 5.00264 17.4757 4.61126C17.0843 4.21988 16.5535 4 16 4C15.4465 4 14.9157 4.21988 14.5243 4.61126C14.1329 5.00264 13.9131 5.53346 13.9131 6.08696V6.08696Z" stroke="#51247A" stroke-width="1.33" stroke-linecap="round" stroke-linejoin="round"/>
<path d="M21.2174 6.08696C21.2174 6.64045 21.4373 7.17128 21.8287 7.56266C22.22 7.95404 22.7509 8.17391 23.3044 8.17391C23.8579 8.17391 24.3887 7.95404 24.7801 7.56266C25.1714 7.17128 25.3913 6.64045 25.3913 6.08696C25.3913 5.53346 25.1714 5.00264 24.7801 4.61126C24.3887 4.21988 23.8579 4 23.3044 4C22.7509 4 22.22 4.21988 21.8287 4.61126C21.4373 5.00264 21.2174 5.53346 21.2174 6.08696V6.08696Z" stroke="#51247A" stroke-width="1.33" stroke-linecap="round" stroke-linejoin="round"/>
<path d="M6.6087 6.08696C6.6087 6.64045 6.82858 7.17128 7.21996 7.56266C7.61134 7.95404 8.14216 8.17391 8.69566 8.17391C9.24916 8.17391 9.77998 7.95404 10.1714 7.56266C10.5627 7.17128 10.7826 6.64045 10.7826 6.08696C10.7826 5.53346 10.5627 5.00264 10.1714 4.61126C9.77998 4.21988 9.24916 4 8.69566 4C8.14216 4 7.61134 4.21988 7.21996 4.61126C6.82858 5.00264 6.6087 5.53346 6.6087 6.08696V6.08696Z" stroke="#51247A" stroke-width="1.33" stroke-linecap="round" stroke-linejoin="round"/>
<path d="M26.9565 11.3043C26.5819 10.6689 26.0479 10.1422 25.4074 9.77628C24.7669 9.41036 24.042 9.2179 23.3044 9.2179C22.5667 9.2179 21.8418 9.41036 21.2013 9.77628C20.5608 10.1422 20.0268 10.6689 19.6522 11.3043C19.2775 10.6689 18.7436 10.1422 18.1031 9.77628C17.4626 9.41036 16.7377 9.2179 16 9.2179C15.2623 9.2179 14.5374 9.41036 13.8969 9.77628C13.2564 10.1422 12.7225 10.6689 12.3478 11.3043C11.9732 10.6689 11.4392 10.1422 10.7987 9.77628C10.1582 9.41036 9.43333 9.2179 8.69566 9.2179C7.958 9.2179 7.2331 9.41036 6.59259 9.77628C5.95208 10.1422 5.41813 10.6689 5.04349 11.3043" stroke="#51247A" stroke-width="1.33" stroke-linecap="round" stroke-linejoin="round"/>
</svg>
