<svg width="32" height="32" viewBox="0 0 32 32" fill="none" xmlns="http://www.w3.org/2000/svg">
<path d="M14.5347 10.9306V8.26349C14.5347 8.12202 14.4785 7.98634 14.3785 7.88631C14.2785 7.78627 14.1428 7.73007 14.0013 7.73007H10.8008C10.6593 7.73007 10.5236 7.78627 10.4236 7.88631C10.3236 7.98634 10.2674 8.12202 10.2674 8.26349V10.9306" stroke="#51247A" stroke-width="1.33" stroke-linecap="round" stroke-linejoin="round"/>
<path d="M12.4021 4.52954V7.73006" stroke="#51247A" stroke-width="1.33" stroke-linecap="round" stroke-linejoin="round"/>
<path d="M14.5347 4.52954H9.7734C9.59781 4.52951 9.42492 4.57283 9.27008 4.65565C9.11525 4.73846 8.98324 4.85822 8.88579 5.00428L8.13367 6.1298" stroke="#51247A" stroke-width="1.33" stroke-linecap="round" stroke-linejoin="round"/>
<path d="M18.8021 18.9319V25.8663C18.8021 26.4322 18.5773 26.9749 18.1771 27.3751C17.777 27.7752 17.2343 28 16.6684 28H8.13368C7.56779 28 7.02508 27.7752 6.62494 27.3751C6.2248 26.9749 6 26.4322 6 25.8663V13.0643C6 12.4984 6.2248 11.9557 6.62494 11.5555C7.02508 11.1554 7.56779 10.9306 8.13368 10.9306H15.6016" stroke="#51247A" stroke-width="1.33" stroke-linecap="round" stroke-linejoin="round"/>
<path d="M26.2699 13.0642C26.2699 14.196 25.8203 15.2814 25.0201 16.0817C24.2198 16.882 23.1344 17.3316 22.0026 17.3316C20.8708 17.3316 19.7854 16.882 18.9851 16.0817C18.1848 15.2814 17.7352 14.196 17.7352 13.0642C17.7352 11.1909 20.4333 6.22688 21.5385 4.27136C21.585 4.18901 21.6525 4.12049 21.7341 4.07281C21.8157 4.02513 21.9086 4 22.0031 4C22.0977 4 22.1905 4.02513 22.2721 4.07281C22.3538 4.12049 22.4213 4.18901 22.4677 4.27136C23.574 6.22794 26.2699 11.1909 26.2699 13.0642Z" stroke="#51247A" stroke-width="1.33" stroke-linecap="round" stroke-linejoin="round"/>
</svg>
