<svg width="32" height="32" viewBox="0 0 32 32" fill="none" xmlns="http://www.w3.org/2000/svg">
<path d="M10.2844 10.4292C10.2844 10.9976 10.5102 11.5427 10.9121 11.9446C11.314 12.3465 11.8591 12.5723 12.4275 12.5723C12.9959 12.5723 13.541 12.3465 13.9429 11.9446C14.3448 11.5427 14.5705 10.9976 14.5705 10.4292C14.5705 9.86083 14.3448 9.31573 13.9429 8.91382C13.541 8.51192 12.9959 8.28613 12.4275 8.28613C11.8591 8.28613 11.314 8.51192 10.9121 8.91382C10.5102 9.31573 10.2844 9.86083 10.2844 10.4292V10.4292Z" stroke="#51247A" stroke-width="1.33" stroke-linecap="round" stroke-linejoin="round"/>
<path d="M13.7133 15.5726C13.7133 15.2316 13.5779 14.9045 13.3367 14.6634C13.0956 14.4222 12.7685 14.2867 12.4275 14.2867C12.0865 14.2867 11.7594 14.4222 11.5183 14.6634C11.2771 14.9045 11.1416 15.2316 11.1416 15.5726V22.4304C11.1416 22.7714 11.2771 23.0985 11.5183 23.3396C11.7594 23.5808 12.0865 23.7163 12.4275 23.7163H16.285C16.3577 23.7163 16.4292 23.7347 16.4928 23.77C16.5564 23.8052 16.61 23.8561 16.6485 23.9177L18.2875 26.5408C18.4682 26.83 18.7565 27.0356 19.0888 27.1122C19.4211 27.1889 19.7702 27.1305 20.0594 26.9497C20.3486 26.769 20.5541 26.4808 20.6308 26.1485C20.7075 25.8162 20.649 25.467 20.4683 25.1778L18.8293 22.5547C18.5608 22.1221 18.186 21.7653 17.7407 21.5185C17.2953 21.2717 16.7942 21.1429 16.285 21.1446H14.1419C14.0283 21.1446 13.9193 21.0994 13.8389 21.019C13.7585 20.9387 13.7133 20.8296 13.7133 20.716V15.5726Z" stroke="#51247A" stroke-width="1.33" stroke-linecap="round" stroke-linejoin="round"/>
<path d="M15.5409 25.5242C15.1098 26.2349 14.5129 26.8305 13.8012 27.2601C13.0895 27.6896 12.2843 27.9403 11.4546 27.9906C10.6249 28.0409 9.79529 27.8893 9.03694 27.5489C8.27859 27.2085 7.61405 26.6893 7.10024 26.0358C6.58642 25.3824 6.23864 24.6142 6.08668 23.7969C5.93471 22.9797 5.9831 22.1378 6.22768 21.3433C6.47227 20.5488 6.90577 19.8255 7.49106 19.2352C8.07635 18.6449 8.79599 18.2053 9.58835 17.954" stroke="#51247A" stroke-width="1.33" stroke-linecap="round" stroke-linejoin="round"/>
<path d="M25.7162 4H23.3266C23.1782 4 23.0318 4.03455 22.8991 4.10091C22.7664 4.16728 22.6509 4.26363 22.5619 4.38235L21.8287 5.53418" stroke="#51247A" stroke-width="1.33" stroke-linecap="round" stroke-linejoin="round"/>
<path d="M21.4148 7.82351C21.4664 7.8767 21.5296 7.91716 21.5996 7.94171C21.6695 7.96625 21.7441 7.9742 21.8177 7.96493C21.8912 7.95566 21.9615 7.92942 22.0232 7.88829C22.0848 7.84715 22.136 7.79225 22.1728 7.72792C22.3546 7.36871 22.4184 6.96126 22.355 6.56367C22.2917 6.16607 22.1044 5.79864 21.8199 5.51374C21.5355 5.22884 21.1683 5.04102 20.7708 4.97707C20.3733 4.91311 19.9658 4.97628 19.6063 5.15757C19.5421 5.19378 19.4871 5.24435 19.4457 5.30532C19.4043 5.3663 19.3775 5.43602 19.3675 5.50905C19.3575 5.58208 19.3646 5.65643 19.3881 5.72629C19.4116 5.79615 19.4509 5.85963 19.5031 5.91176L21.4148 7.82351Z" stroke="#51247A" stroke-width="1.33" stroke-linecap="round" stroke-linejoin="round"/>
<path d="M19.655 9.02313L18.7967 10.1721" stroke="#51247A" stroke-width="1.33" stroke-linecap="round" stroke-linejoin="round"/>
<path d="M17.6515 11.7025L16.7932 12.8514" stroke="#51247A" stroke-width="1.33" stroke-linecap="round" stroke-linejoin="round"/>
<path d="M21.4148 9.96753L20.933 11.3182" stroke="#51247A" stroke-width="1.33" stroke-linecap="round" stroke-linejoin="round"/>
<path d="M20.2917 13.1181L19.8099 14.4688" stroke="#51247A" stroke-width="1.33" stroke-linecap="round" stroke-linejoin="round"/>
<path d="M18.3034 7.67154L17.1545 8.52991" stroke="#51247A" stroke-width="1.33" stroke-linecap="round" stroke-linejoin="round"/>
<path d="M17.359 5.91176L16.0084 6.39352" stroke="#51247A" stroke-width="1.33" stroke-linecap="round" stroke-linejoin="round"/>
</svg>
