<svg width="32" height="32" viewBox="0 0 32 32" fill="none" xmlns="http://www.w3.org/2000/svg">
<path d="M6.08696 10.1304L6.11617 9.08694C6.12018 8.81643 6.22745 8.5577 6.41601 8.3637C6.60457 8.16971 6.86015 8.05514 7.13043 8.04346H8.11548C8.39698 8.04605 8.66708 8.15509 8.87149 8.34866C9.0759 8.54223 9.19948 8.80599 9.21739 9.08694V10.1304" stroke="#51247A" stroke-width="1.33" stroke-linecap="round" stroke-linejoin="round"/>
<path d="M24.4835 10.1304C24.2849 10.1304 24.0905 10.0737 23.9231 9.9671C23.7556 9.86045 23.6221 9.70824 23.5381 9.52835C22.9725 8.31687 22.3652 7 21.2174 7H16C15.0285 7 14.5391 7.87026 13.1826 9.7047C13.0863 9.83583 12.9606 9.94262 12.8157 10.0165C12.6708 10.0905 12.5105 10.1295 12.3478 10.1304H6.08696C4.52174 10.1304 4 10.839 4 11.9283V22.768C4 23.8563 4.52174 24.7391 6.14539 24.7391H25.8546C27.4783 24.7391 28 23.8563 28 22.768V11.9283C28 10.839 27.4783 10.1304 25.8546 10.1304H24.4835Z" stroke="#51247A" stroke-width="1.33" stroke-linecap="round" stroke-linejoin="round"/>
<path d="M12.8696 16.913C12.8696 18.4351 13.4742 19.8949 14.5505 20.9712C15.6268 22.0475 17.0866 22.6521 18.6087 22.6521C20.1308 22.6521 21.5906 22.0475 22.6669 20.9712C23.7432 19.8949 24.3478 18.4351 24.3478 16.913C24.3478 15.3909 23.7432 13.9311 22.6669 12.8548C21.5906 11.7785 20.1308 11.1739 18.6087 11.1739C17.0866 11.1739 15.6268 11.7785 14.5505 12.8548C13.4742 13.9311 12.8696 15.3909 12.8696 16.913Z" stroke="#51247A" stroke-width="1.33" stroke-linecap="round" stroke-linejoin="round"/>
<path d="M15.4783 16.913C15.4783 17.7433 15.8081 18.5395 16.3951 19.1266C16.9822 19.7136 17.7785 20.0435 18.6087 20.0435C19.4389 20.0435 20.2352 19.7136 20.8222 19.1266C21.4093 18.5395 21.7391 17.7433 21.7391 16.913C21.7391 16.0828 21.4093 15.2865 20.8222 14.6995C20.2352 14.1124 19.4389 13.7826 18.6087 13.7826C17.7785 13.7826 16.9822 14.1124 16.3951 14.6995C15.8081 15.2865 15.4783 16.0828 15.4783 16.913Z" stroke="#51247A" stroke-width="1.33" stroke-linecap="round" stroke-linejoin="round"/>
<path d="M6.08696 13.7826C6.08696 14.1977 6.25186 14.5959 6.5454 14.8894C6.83893 15.1829 7.23705 15.3478 7.65217 15.3478C8.06729 15.3478 8.46541 15.1829 8.75895 14.8894C9.05248 14.5959 9.21739 14.1977 9.21739 13.7826C9.21739 13.3675 9.05248 12.9694 8.75895 12.6758C8.46541 12.3823 8.06729 12.2174 7.65217 12.2174C7.23705 12.2174 6.83893 12.3823 6.5454 12.6758C6.25186 12.9694 6.08696 13.3675 6.08696 13.7826Z" stroke="#51247A" stroke-width="1.33" stroke-linecap="round" stroke-linejoin="round"/>
</svg>
