<svg width="32" height="32" viewBox="0 0 32 32" fill="none" xmlns="http://www.w3.org/2000/svg">
<path d="M13.1135 13.1703C13.1135 13.981 13.4356 14.7585 14.0088 15.3317C14.5821 15.905 15.3596 16.227 16.1703 16.227C16.981 16.227 17.7584 15.905 18.3317 15.3317C18.905 14.7585 19.227 13.981 19.227 13.1703C19.227 12.3596 18.905 11.5821 18.3317 11.0088C17.7584 10.4356 16.981 10.1135 16.1703 10.1135C15.3596 10.1135 14.5821 10.4356 14.0088 11.0088C13.4356 11.5821 13.1135 12.3596 13.1135 13.1703Z" stroke="#51247A" stroke-width="1.33" stroke-linecap="round" stroke-linejoin="round"/>
<path d="M25.3405 13.1703C25.3405 18.2159 19.0945 25.3422 16.912 27.6796C16.8168 27.7808 16.7018 27.8614 16.5743 27.9165C16.4467 27.9716 16.3092 28 16.1703 28C16.0313 28 15.8938 27.9716 15.7663 27.9165C15.6387 27.8614 15.5237 27.7808 15.4285 27.6796C13.246 25.3422 7 18.222 7 13.1703C7 10.7382 7.96615 8.40566 9.68591 6.68591C11.4057 4.96615 13.7381 4 16.1703 4C18.6024 4 20.9348 4.96615 22.6546 6.68591C24.3744 8.40566 25.3405 10.7382 25.3405 13.1703V13.1703Z" stroke="#51247A" stroke-width="1.33" stroke-linecap="round" stroke-linejoin="round"/>
</svg>
