<svg width="32" height="32" viewBox="0 0 32 32" fill="none" xmlns="http://www.w3.org/2000/svg">
<path d="M12.2159 6.60901C12.2159 7.30096 12.4908 7.96458 12.9801 8.45386C13.4694 8.94315 14.133 9.21802 14.825 9.21802C15.5169 9.21802 16.1805 8.94315 16.6698 8.45386C17.1591 7.96458 17.434 7.30096 17.434 6.60901C17.434 5.91706 17.1591 5.25345 16.6698 4.76416C16.1805 4.27488 15.5169 4 14.825 4C14.133 4 13.4694 4.27488 12.9801 4.76416C12.4908 5.25345 12.2159 5.91706 12.2159 6.60901V6.60901Z" stroke="#51247A" stroke-width="1.33" stroke-linecap="round" stroke-linejoin="round"/>
<path d="M16.3903 12.8706C16.3903 12.4555 16.2254 12.0573 15.9318 11.7637C15.6383 11.4702 15.2401 11.3052 14.8249 11.3052C14.4098 11.3052 14.0116 11.4702 13.718 11.7637C13.4244 12.0573 13.2595 12.4555 13.2595 12.8706V21.2195C13.2595 21.6347 13.4244 22.0328 13.718 22.3264C14.0116 22.62 14.4098 22.7849 14.8249 22.7849H19.5212C19.6097 22.7849 19.6967 22.8074 19.7741 22.8503C19.8515 22.8932 19.9167 22.9551 19.9636 23.0301L21.959 26.2236C22.1791 26.5756 22.5299 26.8259 22.9345 26.9192C23.339 27.0126 23.7641 26.9414 24.1161 26.7214C24.4682 26.5013 24.7184 26.1504 24.8118 25.7459C24.9052 25.3414 24.834 24.9163 24.6139 24.5642L22.6186 21.3708C22.2917 20.8441 21.8355 20.4098 21.2933 20.1093C20.7511 19.8088 20.141 19.6521 19.5212 19.6541H16.9121C16.7737 19.6541 16.641 19.5991 16.5432 19.5012C16.4453 19.4034 16.3903 19.2707 16.3903 19.1323V12.8706Z" stroke="#51247A" stroke-width="1.33" stroke-linecap="round" stroke-linejoin="round"/>
<path d="M18.6153 24.9858C18.0905 25.8511 17.3637 26.5762 16.4973 27.0992C15.6309 27.6221 14.6507 27.9273 13.6405 27.9885C12.6304 28.0498 11.6205 27.8653 10.6972 27.4508C9.774 27.0363 8.96497 26.4043 8.33945 25.6088C7.71392 24.8133 7.29052 23.878 7.10552 22.8831C6.92052 21.8881 6.97942 20.8632 7.27718 19.896C7.57495 18.9288 8.1027 18.0482 8.81524 17.3296C9.52778 16.6109 10.4039 16.0757 11.3685 15.7698" stroke="#51247A" stroke-width="1.33" stroke-linecap="round" stroke-linejoin="round"/>
</svg>
