<svg width="32" height="32" viewBox="0 0 32 32" fill="none" xmlns="http://www.w3.org/2000/svg">
<path d="M19.6522 6.6087C19.6522 7.30056 19.927 7.9641 20.4162 8.45332C20.9055 8.94255 21.569 9.21739 22.2609 9.21739C22.9527 9.21739 23.6163 8.94255 24.1055 8.45332C24.5947 7.9641 24.8696 7.30056 24.8696 6.6087C24.8696 5.91683 24.5947 5.25329 24.1055 4.76407C23.6163 4.27484 22.9527 4 22.2609 4C21.569 4 20.9055 4.27484 20.4162 4.76407C19.927 5.25329 19.6522 5.91683 19.6522 6.6087V6.6087Z" stroke="#51247A" stroke-width="1.33" stroke-linecap="round" stroke-linejoin="round"/>
<path d="M6.08694 6.6087C6.08694 7.30056 6.36179 7.9641 6.85101 8.45332C7.34024 8.94255 8.00377 9.21739 8.69564 9.21739C9.38751 9.21739 10.051 8.94255 10.5403 8.45332C11.0295 7.9641 11.3043 7.30056 11.3043 6.6087C11.3043 5.91683 11.0295 5.25329 10.5403 4.76407C10.051 4.27484 9.38751 4 8.69564 4C8.00377 4 7.34024 4.27484 6.85101 4.76407C6.36179 5.25329 6.08694 5.91683 6.08694 6.6087V6.6087Z" stroke="#51247A" stroke-width="1.33" stroke-linecap="round" stroke-linejoin="round"/>
<path d="M22.7826 26.4348V21.2174" stroke="#51247A" stroke-width="1.33" stroke-linecap="round" stroke-linejoin="round"/>
<path d="M12.8696 18.0869C12.8696 18.5021 13.0345 18.9002 13.328 19.1937C13.6215 19.4872 14.0197 19.6521 14.4348 19.6521C18.5607 19.6521 18.881 15.9541 19.6522 14.8407V26.4348C19.6522 26.8499 19.8171 27.248 20.1106 27.5415C20.4042 27.8351 20.8023 28 21.2174 28C21.6325 28 22.0306 27.8351 22.3242 27.5415C22.6177 27.248 22.7826 26.8499 22.7826 26.4348C22.7826 26.8499 22.9475 27.248 23.2411 27.5415C23.5346 27.8351 23.9327 28 24.3478 28C24.763 28 25.1611 27.8351 25.4546 27.5415C25.7481 27.248 25.913 26.8499 25.913 26.4348V20.6956H26.9565C27.2333 20.6956 27.4987 20.5857 27.6944 20.39C27.8901 20.1943 28 19.9289 28 19.6521V14.4348C28 13.6045 27.6702 12.8083 27.0831 12.2212C26.496 11.6341 25.6998 11.3043 24.8696 11.3043H20.704C19.6019 11.304 18.5348 11.6913 17.6895 12.3985C16.8442 13.1057 16.2746 14.0876 16.0804 15.1725L16.0605 15.2946C15.976 15.657 15.767 15.9784 15.4699 16.2026C15.1728 16.4268 14.8065 16.5397 14.4348 16.5217C14.0197 16.5217 13.6215 16.6866 13.328 16.9802C13.0345 17.2737 12.8696 17.6718 12.8696 18.0869V18.0869Z" stroke="#51247A" stroke-width="1.33" stroke-linecap="round" stroke-linejoin="round"/>
<path d="M25.9131 20.6957V14.9565" stroke="#51247A" stroke-width="1.33" stroke-linecap="round" stroke-linejoin="round"/>
<path d="M4 17.5652H12.9583" stroke="#51247A" stroke-width="1.33" stroke-linecap="round" stroke-linejoin="round"/>
<path d="M4 17.5652V19.1305C4 19.2688 4.05497 19.4015 4.15281 19.4994C4.25066 19.5972 4.38337 19.6522 4.52174 19.6522H14.4348" stroke="#51247A" stroke-width="1.33" stroke-linecap="round" stroke-linejoin="round"/>
<path d="M13.3913 14.4348C13.3913 13.6045 13.0615 12.8083 12.4744 12.2212C11.8874 11.6341 11.0911 11.3043 10.2609 11.3043H7.13043C6.30019 11.3043 5.50395 11.6341 4.91688 12.2212C4.32981 12.8083 4 13.6045 4 14.4348V15.5095" stroke="#51247A" stroke-width="1.33" stroke-linecap="round" stroke-linejoin="round"/>
<path d="M6.08694 19.6522V28" stroke="#51247A" stroke-width="1.33" stroke-linecap="round" stroke-linejoin="round"/>
</svg>
