<svg width="32" height="32" viewBox="0 0 32 32" fill="none" xmlns="http://www.w3.org/2000/svg">
<path d="M12.1743 17.5297H19.4595" stroke="#51247A" stroke-width="1.33" stroke-linecap="round" stroke-linejoin="round"/>
<path d="M12.1743 18.5704L14.2381 21.6926" stroke="#51247A" stroke-width="1.33" stroke-linecap="round" stroke-linejoin="round"/>
<path d="M17.3218 21.6926L19.4595 18.5704" stroke="#51247A" stroke-width="1.33" stroke-linecap="round" stroke-linejoin="round"/>
<path d="M13.215 6.60186C13.215 7.29191 13.4892 7.95371 13.9771 8.44165C14.465 8.92959 15.1268 9.20372 15.8169 9.20372C16.5069 9.20372 17.1687 8.92959 17.6567 8.44165C18.1446 7.95371 18.4187 7.29191 18.4187 6.60186C18.4187 5.9118 18.1446 5.25001 17.6567 4.76207C17.1687 4.27412 16.5069 4 15.8169 4C15.1268 4 14.465 4.27412 13.9771 4.76207C13.4892 5.25001 13.215 5.9118 13.215 6.60186V6.60186Z" stroke="#51247A" stroke-width="1.33" stroke-linecap="round" stroke-linejoin="round"/>
<path d="M24.1335 16.0175L21.4275 12.9202C20.9878 12.418 20.4459 12.0155 19.8379 11.7398C19.23 11.4641 18.5701 11.3215 17.9025 11.3217H13.5918C12.9242 11.3215 12.2644 11.4641 11.6564 11.7398C11.0485 12.0155 10.5065 12.418 10.0668 12.9202L7.36085 16.0175C7.10053 16.3305 6.97278 16.7328 7.00485 17.1387C7.03693 17.5445 7.22627 17.9218 7.53253 18.19C7.83878 18.4583 8.23771 18.5963 8.64425 18.5746C9.05079 18.5529 9.43278 18.3733 9.70877 18.074L12.1764 15.2536V19.3406L10.71 20.806C10.0632 21.4464 9.68122 22.3068 9.63995 23.216C9.59868 24.1252 9.90117 25.0167 10.4872 25.7131L11.8714 27.3782C12.1429 27.6739 12.5178 27.8537 12.9183 27.8802C13.3188 27.9067 13.7141 27.7779 14.0221 27.5206C14.3302 27.2633 14.5273 26.8973 14.5726 26.4985C14.6178 26.0997 14.5077 25.6987 14.2651 25.379L12.8799 23.7138C12.7967 23.6139 12.7539 23.4866 12.7599 23.3568C12.7659 23.227 12.8202 23.1041 12.9122 23.0123L14.2381 21.6958H17.3218L18.6425 23.0165C18.7345 23.1083 18.7888 23.2311 18.7948 23.361C18.8008 23.4908 18.7579 23.6181 18.6748 23.718L17.2895 25.3831C17.1467 25.5387 17.037 25.7216 16.9669 25.9208C16.8968 26.12 16.8679 26.3313 16.8818 26.542C16.8958 26.7528 16.9523 26.9584 17.048 27.1467C17.1438 27.3349 17.2767 27.5017 17.4388 27.6371C17.6008 27.7725 17.7887 27.8735 17.991 27.9342C18.1932 27.9949 18.4057 28.0139 18.6155 27.9901C18.8253 27.9663 19.0281 27.9001 19.2117 27.7957C19.3952 27.6912 19.5556 27.5506 19.6833 27.3824L21.0685 25.7172C21.6542 25.0206 21.9564 24.1291 21.9149 23.22C21.8734 22.3108 21.4914 21.4505 20.8447 20.8101L19.4543 19.4197V15.418L21.7814 18.074C21.9164 18.2283 22.0805 18.3545 22.2643 18.4454C22.4481 18.5363 22.648 18.5901 22.8526 18.6037C23.0572 18.6173 23.2625 18.5905 23.4567 18.5248C23.651 18.4591 23.8303 18.3558 23.9846 18.2207C24.1389 18.0857 24.2651 17.9216 24.356 17.7378C24.4469 17.554 24.5007 17.3541 24.5143 17.1495C24.528 16.9449 24.5011 16.7396 24.4354 16.5454C24.3697 16.3512 24.2664 16.1718 24.1314 16.0175H24.1335Z" stroke="#51247A" stroke-width="1.33" stroke-linecap="round" stroke-linejoin="round"/>
</svg>
