<svg width="32" height="32" viewBox="0 0 32 32" fill="none" xmlns="http://www.w3.org/2000/svg">
<path d="M12.7946 6.6087C12.7946 7.30056 13.0694 7.9641 13.5587 8.45332C14.0479 8.94255 14.7114 9.21739 15.4033 9.21739C16.0952 9.21739 16.7587 8.94255 17.2479 8.45332C17.7371 7.9641 18.012 7.30056 18.012 6.6087C18.012 5.91683 17.7371 5.25329 17.2479 4.76407C16.7587 4.27484 16.0952 4 15.4033 4C14.7114 4 14.0479 4.27484 13.5587 4.76407C13.0694 5.25329 12.7946 5.91683 12.7946 6.6087V6.6087Z" stroke="#51247A" stroke-width="1.33" stroke-linecap="round" stroke-linejoin="round"/>
<path d="M25.3163 26.9565C25.3163 27.2333 25.2064 27.4987 25.0107 27.6944C24.815 27.8901 24.5496 28 24.2728 28H16.9685C16.6917 28 16.4263 27.8901 16.2306 27.6944C16.035 27.4987 15.925 27.2333 15.925 26.9565V22.7826C15.925 22.5059 16.035 22.2405 16.2306 22.0448C16.4263 21.8491 16.6917 21.7391 16.9685 21.7391H24.2728C24.5496 21.7391 24.815 21.8491 25.0107 22.0448C25.2064 22.2405 25.3163 22.5059 25.3163 22.7826V26.9565Z" stroke="#51247A" stroke-width="1.33" stroke-linecap="round" stroke-linejoin="round"/>
<path d="M19.0555 21.7391V21.2174C19.0555 20.8023 19.2204 20.4041 19.5139 20.1106C19.8074 19.8171 20.2055 19.6522 20.6207 19.6522C21.0358 19.6522 21.4339 19.8171 21.7274 20.1106C22.021 20.4041 22.1859 20.8023 22.1859 21.2174V21.7391" stroke="#51247A" stroke-width="1.33" stroke-linecap="round" stroke-linejoin="round"/>
<path d="M19.0565 14.9565V18.087C19.0565 18.5021 19.2214 18.9002 19.515 19.1937C19.8085 19.4873 20.2066 19.6522 20.6217 19.6522C21.0369 19.6522 21.435 19.4873 21.7285 19.1937C22.0221 18.9002 22.187 18.5021 22.187 18.087V14.4348C22.187 13.6045 21.8571 12.8083 21.2701 12.2212C20.683 11.6342 19.8868 11.3043 19.0565 11.3043H13.7619C13.604 11.3043 13.4481 11.2684 13.306 11.1994C13.1639 11.1303 13.0394 11.0299 12.9417 10.9057L8.80852 5.64139C8.68262 5.47676 8.52528 5.33877 8.34562 5.23544C8.16597 5.1321 7.96758 5.06548 7.76197 5.03942C7.55636 5.01337 7.34762 5.02841 7.14787 5.08367C6.94812 5.13893 6.76134 5.23332 6.59835 5.36134C6.43537 5.48936 6.29943 5.64848 6.19843 5.82946C6.09744 6.01044 6.03338 6.20967 6.01 6.4156C5.98661 6.62153 6.00435 6.83006 6.0622 7.02907C6.12004 7.22809 6.21683 7.41364 6.34696 7.57495L12.7957 15.9343V26.4348C12.7957 26.8499 12.9606 27.248 13.2541 27.5416C13.5476 27.8351 13.9458 28 14.3609 28" stroke="#51247A" stroke-width="1.33" stroke-linecap="round" stroke-linejoin="round"/>
</svg>
