<svg width="32" height="32" viewBox="0 0 32 32" fill="none" xmlns="http://www.w3.org/2000/svg">
<path d="M11.0362 12.9155C10.8675 12.3951 10.7819 11.8514 10.7826 11.3043V9.21739C10.7826 7.83365 11.3323 6.50659 12.3107 5.52814C13.2892 4.54969 14.6163 4 16 4C17.3837 4 18.7108 4.54969 19.6893 5.52814C20.6677 6.50659 21.2174 7.83365 21.2174 9.21739V11.3043C21.2182 11.8879 21.1208 12.4675 20.9294 13.0188" stroke="#51247A" stroke-width="1.33" stroke-linecap="round" stroke-linejoin="round"/>
<path d="M10.7826 9.73913C10.7826 9.73913 12.8696 10.2609 14.9565 7.65218C14.9565 7.65218 16.5217 9.73913 21.2174 9.73913" stroke="#51247A" stroke-width="1.33" stroke-linecap="round" stroke-linejoin="round"/>
<path d="M13.3913 11.0435C13.4429 11.0435 13.4933 11.0588 13.5362 11.0874C13.5791 11.1161 13.6126 11.1569 13.6323 11.2045C13.6521 11.2522 13.6572 11.3046 13.6472 11.3552C13.6371 11.4058 13.6123 11.4523 13.5758 11.4888C13.5393 11.5253 13.4928 11.5501 13.4422 11.5602C13.3916 11.5703 13.3391 11.5651 13.2915 11.5454C13.2438 11.5256 13.2031 11.4922 13.1744 11.4493C13.1457 11.4064 13.1304 11.3559 13.1304 11.3043C13.1304 11.2352 13.1579 11.1688 13.2068 11.1199C13.2558 11.071 13.3221 11.0435 13.3913 11.0435Z" stroke="#51247A" stroke-width="1.33" stroke-linecap="round" stroke-linejoin="round"/>
<path d="M18.6087 11.0435C18.6603 11.0435 18.7107 11.0588 18.7536 11.0874C18.7965 11.1161 18.83 11.1569 18.8497 11.2045C18.8694 11.2522 18.8746 11.3046 18.8646 11.3552C18.8545 11.4058 18.8296 11.4523 18.7932 11.4888C18.7567 11.5253 18.7102 11.5501 18.6596 11.5602C18.609 11.5703 18.5565 11.5651 18.5089 11.5454C18.4612 11.5256 18.4205 11.4922 18.3918 11.4493C18.3631 11.4064 18.3478 11.3559 18.3478 11.3043C18.3478 11.2352 18.3753 11.1688 18.4242 11.1199C18.4732 11.071 18.5395 11.0435 18.6087 11.0435Z" stroke="#51247A" stroke-width="1.33" stroke-linecap="round" stroke-linejoin="round"/>
<path d="M6.08696 20.6957V24.5868C6.087 24.8173 6.16341 25.0414 6.30424 25.2239C6.44507 25.4065 6.64239 25.5373 6.86539 25.5958L16 28V16.5217L7.44348 13.8202C7.28727 13.771 7.12169 13.7594 6.96013 13.7861C6.79857 13.8128 6.64557 13.8772 6.5135 13.974C6.38143 14.0708 6.274 14.1974 6.1999 14.3434C6.1258 14.4894 6.08711 14.6509 6.08696 14.8146V16.5217" stroke="#51247A" stroke-width="1.33" stroke-linecap="round" stroke-linejoin="round"/>
<path d="M16 16.5217L24.5565 13.8202C24.7127 13.771 24.8783 13.7594 25.0399 13.7861C25.2014 13.8128 25.3544 13.8772 25.4865 13.974C25.6186 14.0708 25.726 14.1974 25.8001 14.3434C25.8742 14.4894 25.9129 14.6509 25.913 14.8146V16.5217" stroke="#51247A" stroke-width="1.33" stroke-linecap="round" stroke-linejoin="round"/>
<path d="M25.913 20.6956V24.5868C25.913 24.8173 25.8366 25.0414 25.6958 25.2239C25.5549 25.4065 25.3576 25.5373 25.1346 25.5958L16 28" stroke="#51247A" stroke-width="1.33" stroke-linecap="round" stroke-linejoin="round"/>
<path d="M4 18.6087C4 20.1739 5.46087 20.6956 6.6087 20.6956C6.74707 20.6956 6.87978 20.6407 6.97762 20.5428C7.07547 20.445 7.13043 20.3123 7.13043 20.1739V17.0435C7.13043 16.9051 7.07547 16.7724 6.97762 16.6745C6.87978 16.5767 6.74707 16.5217 6.6087 16.5217C5.46087 16.5217 4 17.0435 4 18.6087Z" stroke="#51247A" stroke-width="1.33" stroke-linecap="round" stroke-linejoin="round"/>
<path d="M28 18.6087C28 20.1739 26.5444 20.6956 25.3913 20.6956C25.2529 20.6956 25.1202 20.6407 25.0224 20.5428C24.9245 20.445 24.8696 20.3123 24.8696 20.1739V17.0435C24.8696 16.9051 24.9245 16.7724 25.0224 16.6745C25.1202 16.5767 25.2529 16.5217 25.3913 16.5217C26.5444 16.5217 28 17.0435 28 18.6087Z" stroke="#51247A" stroke-width="1.33" stroke-linecap="round" stroke-linejoin="round"/>
</svg>
