<svg width="32" height="32" viewBox="0 0 32 32" fill="none" xmlns="http://www.w3.org/2000/svg">
<path d="M6.08696 24.8696H22.7826V26.9565C22.7826 27.2333 22.6727 27.4987 22.477 27.6944C22.2813 27.8901 22.0159 28 21.7391 28H7.13044C6.85369 28 6.58828 27.8901 6.39259 27.6944C6.1969 27.4987 6.08696 27.2333 6.08696 26.9565V24.8696Z" stroke="#51247A" stroke-width="1.33" stroke-linecap="round" stroke-linejoin="round"/>
<path d="M20.8981 11.4452C21.5441 11.0604 22.2731 10.8363 23.0237 10.7918C23.7743 10.7474 24.5247 10.8838 25.2116 11.1897C25.8985 11.4956 26.5019 11.962 26.9711 12.5497C27.4402 13.1373 27.7613 13.8291 27.9075 14.5667C28.0536 15.3043 28.0205 16.0662 27.8108 16.7883C27.6012 17.5105 27.2212 18.1717 26.7028 18.7164C26.1844 19.2611 25.5428 19.6734 24.8319 19.9185C24.121 20.1636 23.3617 20.2343 22.6177 20.1249" stroke="#51247A" stroke-width="1.33" stroke-linecap="round" stroke-linejoin="round"/>
<path d="M6.08696 24.8696C6.0586 21.8131 6.33016 18.7613 6.89774 15.7579C6.97655 15.3711 6.9443 14.9698 6.8047 14.6005C6.66511 14.2312 6.42387 13.909 6.10887 13.671L4.2087 12.2435C4.12109 12.1778 4.05638 12.0862 4.02373 11.9817C3.99108 11.8771 3.99215 11.765 4.02677 11.6611C4.0614 11.5572 4.12784 11.4669 4.21667 11.4028C4.30551 11.3388 4.41224 11.3044 4.52174 11.3044H20.8417C22.2296 14.727 22.7826 19.5374 22.7826 24.8696H6.08696Z" stroke="#51247A" stroke-width="1.33" stroke-linecap="round" stroke-linejoin="round"/>
<path d="M15.4783 6.17461V5.04348C15.4783 4.76673 15.3683 4.50132 15.1726 4.30563C14.9769 4.10994 14.7115 4 14.4348 4C14.158 4 13.8926 4.10994 13.6969 4.30563C13.5012 4.50132 13.3913 4.76673 13.3913 5.04348V6.1913C11.1301 6.62957 9.4167 8.50052 8.22609 11.3043H20.8417C19.6929 8.46296 17.9576 6.58261 15.4783 6.17461Z" stroke="#51247A" stroke-width="1.33" stroke-linecap="round" stroke-linejoin="round"/>
<path d="M12.3478 18.0869C12.3478 19.3323 12.5677 20.5267 12.9591 21.4073C13.3505 22.2879 13.8813 22.7826 14.4348 22.7826C14.9883 22.7826 15.5191 22.2879 15.9105 21.4073C16.3019 20.5267 16.5217 19.3323 16.5217 18.0869C16.5217 16.8416 16.3019 15.6472 15.9105 14.7666C15.5191 13.886 14.9883 13.3913 14.4348 13.3913C13.8813 13.3913 13.3505 13.886 12.9591 14.7666C12.5677 15.6472 12.3478 16.8416 12.3478 18.0869V18.0869Z" stroke="#51247A" stroke-width="1.33" stroke-linecap="round" stroke-linejoin="round"/>
</svg>
