<svg width="32" height="32" viewBox="0 0 32 32" fill="none" xmlns="http://www.w3.org/2000/svg">
<path d="M13.2738 7.72727C13.2738 8.45059 13.5612 9.14428 14.0726 9.65575C14.5841 10.1672 15.2778 10.4545 16.0011 10.4545C16.7244 10.4545 17.4181 10.1672 17.9296 9.65575C18.441 9.14428 18.7284 8.45059 18.7284 7.72727C18.7284 7.00396 18.441 6.31026 17.9296 5.7988C17.4181 5.28734 16.7244 5 16.0011 5C15.2778 5 14.5841 5.28734 14.0726 5.7988C13.5612 6.31026 13.2738 7.00396 13.2738 7.72727Z" stroke="#51247A" stroke-width="1.33" stroke-linecap="round" stroke-linejoin="round"/>
<path d="M25.2727 23.5454H20.6189L17.8665 20.0076C17.7175 19.8162 17.6365 19.5805 17.6364 19.3378V15.9091H26.3636C26.7976 15.9091 27.2138 15.7367 27.5207 15.4298C27.8276 15.1229 28 14.7067 28 14.2727C28 13.8387 27.8276 13.4225 27.5207 13.1156C27.2138 12.8088 26.7976 12.6364 26.3636 12.6364H5.63636C5.20237 12.6364 4.78616 12.8088 4.47928 13.1156C4.1724 13.4225 4 13.8387 4 14.2727C4 14.7067 4.1724 15.1229 4.47928 15.4298C4.78616 15.7367 5.20237 15.9091 5.63636 15.9091H14.3636V18.6364H12.1818C11.1692 18.6364 10.198 19.0386 9.48196 19.7547C8.76591 20.4707 8.36364 21.4419 8.36364 22.4545V25.1818C8.36364 25.6158 8.53604 26.032 8.84292 26.3389C9.14979 26.6458 9.56601 26.8182 10 26.8182C10.434 26.8182 10.8502 26.6458 11.1571 26.3389C11.464 26.032 11.6364 25.6158 11.6364 25.1818V22.4545C11.6364 22.3099 11.6938 22.1711 11.7961 22.0688C11.8984 21.9665 12.0372 21.9091 12.1818 21.9091H15.2004L18.5276 26.1865C18.6805 26.3831 18.8762 26.5421 19.0999 26.6516C19.3235 26.761 19.5692 26.818 19.8182 26.8182H25.2727C25.7067 26.8182 26.1229 26.6458 26.4298 26.3389C26.7367 26.032 26.9091 25.6158 26.9091 25.1818C26.9091 24.7478 26.7367 24.3316 26.4298 24.0247C26.1229 23.7178 25.7067 23.5454 25.2727 23.5454Z" stroke="#51247A" stroke-width="1.33" stroke-linecap="round" stroke-linejoin="round"/>
<path d="M14.3647 18.6364H17.6375" stroke="#51247A" stroke-width="1.33" stroke-linecap="round" stroke-linejoin="round"/>
</svg>
