<svg width="32" height="32" viewBox="0 0 32 32" fill="none" xmlns="http://www.w3.org/2000/svg">
<path d="M10.2667 25.8667V27.4667C10.2667 27.6081 10.2105 27.7438 10.1105 27.8438C10.0104 27.9438 9.87478 28 9.73333 28H7.6C7.45855 28 7.32289 27.9438 7.22288 27.8438C7.12286 27.7438 7.06667 27.6081 7.06667 27.4667V25.8667" stroke="#51247A" stroke-width="1.33" stroke-linecap="round" stroke-linejoin="round"/>
<path d="M25.2 25.8667V27.4667C25.2 27.6081 25.1438 27.7438 25.0438 27.8438C24.9438 27.9438 24.8081 28 24.6667 28H22.5333C22.3919 28 22.2562 27.9438 22.1562 27.8438C22.0562 27.7438 22 27.6081 22 27.4667V25.8667" stroke="#51247A" stroke-width="1.33" stroke-linecap="round" stroke-linejoin="round"/>
<path d="M25.7333 25.8667C25.8748 25.8667 26.0104 25.8105 26.1105 25.7105C26.2105 25.6104 26.2667 25.4748 26.2667 25.3333V21.8208C26.2666 21.6796 26.2106 21.5442 26.1109 21.4443L24.1333 19.4667H8.13333L6.15573 21.44C6.05603 21.54 6.00003 21.6754 6 21.8165V25.3333C6 25.4748 6.05619 25.6104 6.15621 25.7105C6.25623 25.8105 6.39188 25.8667 6.53333 25.8667H25.7333Z" stroke="#51247A" stroke-width="1.33" stroke-linecap="round" stroke-linejoin="round"/>
<path d="M24.1333 19.4667L22.1344 14.4683C22.0947 14.3692 22.0262 14.2844 21.9378 14.2247C21.8494 14.165 21.7451 14.1331 21.6384 14.1333H18.2667" stroke="#51247A" stroke-width="1.33" stroke-linecap="round" stroke-linejoin="round"/>
<path d="M13.4667 14.1333H10.6283C10.5216 14.1331 10.4173 14.165 10.3289 14.2247C10.2404 14.2844 10.172 14.3692 10.1323 14.4683L8.13333 19.4667" stroke="#51247A" stroke-width="1.33" stroke-linecap="round" stroke-linejoin="round"/>
<path d="M6 23.7333H10.8" stroke="#51247A" stroke-width="1.33" stroke-linecap="round" stroke-linejoin="round"/>
<path d="M21.4667 23.7333H26.2667" stroke="#51247A" stroke-width="1.33" stroke-linecap="round" stroke-linejoin="round"/>
<path d="M19.3333 7.19999C19.3333 8.19013 18.94 9.13972 18.2399 9.83986C17.5397 10.54 16.5901 10.9333 15.6 10.9333C14.6099 10.9333 13.6603 10.54 12.9601 9.83986C12.26 9.13972 11.8667 8.19013 11.8667 7.19999C11.8667 7.05854 11.9229 6.92289 12.0229 6.82287C12.1229 6.72285 12.2586 6.66666 12.4 6.66666H18.8C18.9415 6.66666 19.0771 6.72285 19.1771 6.82287C19.2771 6.92289 19.3333 7.05854 19.3333 7.19999Z" stroke="#51247A" stroke-width="1.33" stroke-linecap="round" stroke-linejoin="round"/>
<path d="M15.6 10.9333V15.2C15.6 15.6243 15.7686 16.0313 16.0686 16.3314C16.3687 16.6314 16.7757 16.8 17.2 16.8" stroke="#51247A" stroke-width="1.33" stroke-linecap="round" stroke-linejoin="round"/>
<path d="M17.7333 6.66667V4" stroke="#51247A" stroke-width="1.33" stroke-linecap="round" stroke-linejoin="round"/>
<path d="M13.4667 6.66667V4" stroke="#51247A" stroke-width="1.33" stroke-linecap="round" stroke-linejoin="round"/>
</svg>
