<svg width="32" height="32" viewBox="0 0 32 32" fill="none" xmlns="http://www.w3.org/2000/svg">
<path d="M13.9565 21.7391C13.9565 21.1856 13.7366 20.6548 13.3452 20.2634C12.9539 19.872 12.423 19.6522 11.8695 19.6522C11.3161 19.6522 10.7852 19.872 10.3938 20.2634C10.0025 20.6548 9.78259 21.1856 9.78259 21.7391V25.913C9.78259 26.4665 10.0025 26.9974 10.3938 27.3887C10.7852 27.7801 11.3161 28 11.8695 28C12.423 28 12.9539 27.7801 13.3452 27.3887C13.7366 26.9974 13.9565 26.4665 13.9565 25.913V21.7391Z" stroke="#51247A" stroke-width="1.33" stroke-linecap="round" stroke-linejoin="round"/>
<path d="M4 6H7.5" stroke="#51247A" stroke-width="1.33" stroke-linecap="round" stroke-linejoin="round"/>
<path d="M16.5 6H20" stroke="#51247A" stroke-width="1.33" stroke-linecap="round" stroke-linejoin="round"/>
<path d="M10.8261 11.3826V16C10.8261 16.1384 10.8811 16.2711 10.9789 16.3689C11.0768 16.4668 11.2095 16.5218 11.3478 16.5218H12.3913C12.5297 16.5218 12.6624 16.4668 12.7603 16.3689C12.8581 16.2711 12.9131 16.1384 12.9131 16V11.3826" stroke="#51247A" stroke-width="1.33" stroke-linecap="round" stroke-linejoin="round"/>
<path d="M10.3044 7.65216C10.3044 8.06728 10.4693 8.4654 10.7628 8.75894C11.0564 9.05247 11.4545 9.21738 11.8696 9.21738C12.2847 9.21738 12.6828 9.05247 12.9764 8.75894C13.2699 8.4654 13.4348 8.06728 13.4348 7.65216C13.4348 7.23704 13.2699 6.83892 12.9764 6.54539C12.6828 6.25185 12.2847 6.08694 11.8696 6.08694C11.4545 6.08694 11.0564 6.25185 10.7628 6.54539C10.4693 6.83892 10.3044 7.23704 10.3044 7.65216V7.65216Z" stroke="#51247A" stroke-width="1.33" stroke-linecap="round" stroke-linejoin="round"/>
<path d="M7.17395 7.65217C7.17395 8.62079 7.66867 9.54974 8.54928 10.2347C9.42988 10.9196 10.6242 11.3043 11.8696 11.3043C13.115 11.3043 14.3093 10.9196 15.1899 10.2347C16.0705 9.54974 16.5653 8.62079 16.5653 7.65217C16.5653 6.68356 16.0705 5.75461 15.1899 5.0697C14.3093 4.38478 13.115 4 11.8696 4C10.6242 4 9.42988 4.38478 8.54928 5.0697C7.66867 5.75461 7.17395 6.68356 7.17395 7.65217V7.65217Z" stroke="#51247A" stroke-width="1.33" stroke-linecap="round" stroke-linejoin="round"/>
<path d="M9.78262 25.913C8.67563 25.913 7.61397 25.4733 6.83121 24.6905C6.04845 23.9078 5.6087 22.8461 5.6087 21.7391V17.5652C5.6087 15.9047 6.26833 14.3123 7.44247 13.1381C8.61661 11.964 10.2091 11.3044 11.8696 11.3044C13.0149 11.3044 14.1279 11.6182 15.0936 12.1982M13.9565 25.913C14.4903 25.913 15.0135 25.8108 15.5 25.6172" stroke="#51247A" stroke-width="1.33" stroke-linecap="round" stroke-linejoin="round"/>
<path d="M16 18.5C16 19.2879 16.1552 20.0681 16.4567 20.7961C16.7583 21.5241 17.2002 22.1855 17.7574 22.7426C18.3145 23.2998 18.9759 23.7417 19.7039 24.0433C20.4319 24.3448 21.2121 24.5 22 24.5C22.7879 24.5 23.5681 24.3448 24.2961 24.0433C25.0241 23.7417 25.6855 23.2998 26.2426 22.7426C26.7998 22.1855 27.2417 21.5241 27.5433 20.7961C27.8448 20.0681 28 19.2879 28 18.5C28 17.7121 27.8448 16.9319 27.5433 16.2039C27.2417 15.4759 26.7998 14.8145 26.2426 14.2574C25.6855 13.7002 25.0241 13.2583 24.2961 12.9567C23.5681 12.6552 22.7879 12.5 22 12.5C21.2121 12.5 20.4319 12.6552 19.7039 12.9567C18.9759 13.2583 18.3145 13.7002 17.7574 14.2574C17.2002 14.8145 16.7583 15.4759 16.4567 16.2039C16.1552 16.9319 16 17.7121 16 18.5V18.5Z" stroke="#51247A" stroke-width="1.33" stroke-linecap="round" stroke-linejoin="round"/>
<path d="M24.0869 17.1956C24.0869 17.6108 23.922 18.0089 23.6285 18.3024C23.3349 18.596 22.9368 18.7609 22.5217 18.7609H20.9565V15.6304H22.5217C22.9368 15.6304 23.3349 15.7953 23.6285 16.0889C23.922 16.3824 24.0869 16.7805 24.0869 17.1956Z" stroke="#51247A" stroke-width="1.33" stroke-linecap="round" stroke-linejoin="round"/>
<path d="M20.9565 21.8913V18.7609" stroke="#51247A" stroke-width="1.33" stroke-linecap="round" stroke-linejoin="round"/>
</svg>
