<svg width="32" height="32" viewBox="0 0 32 32" fill="none" xmlns="http://www.w3.org/2000/svg">
<path d="M22.2649 18.3478C22.3165 18.3478 22.3669 18.3631 22.4098 18.3918C22.4527 18.4204 22.4862 18.4612 22.5059 18.5088C22.5257 18.5565 22.5308 18.609 22.5208 18.6596C22.5107 18.7102 22.4858 18.7567 22.4494 18.7931C22.4129 18.8296 22.3664 18.8545 22.3158 18.8645C22.2652 18.8746 22.2127 18.8694 22.1651 18.8497C22.1174 18.8299 22.0767 18.7965 22.048 18.7536C22.0193 18.7107 22.004 18.6603 22.004 18.6087C22.004 18.5395 22.0315 18.4731 22.0804 18.4242C22.1294 18.3753 22.1957 18.3478 22.2649 18.3478Z" stroke="#51247A" stroke-width="1.33" stroke-linecap="round" stroke-linejoin="round"/>
<path d="M17.0475 18.3478C17.0991 18.3478 17.1495 18.3631 17.1924 18.3918C17.2353 18.4204 17.2688 18.4612 17.2885 18.5088C17.3082 18.5565 17.3134 18.609 17.3033 18.6596C17.2933 18.7102 17.2684 18.7567 17.232 18.7931C17.1955 18.8296 17.149 18.8545 17.0984 18.8645C17.0478 18.8746 16.9953 18.8694 16.9477 18.8497C16.9 18.8299 16.8593 18.7965 16.8306 18.7536C16.8019 18.7107 16.7866 18.6603 16.7866 18.6087C16.7866 18.5395 16.8141 18.4731 16.863 18.4242C16.912 18.3753 16.9783 18.3478 17.0475 18.3478Z" stroke="#51247A" stroke-width="1.33" stroke-linecap="round" stroke-linejoin="round"/>
<path d="M19.6562 19.3913C19.7078 19.3913 19.7582 19.4066 19.8011 19.4352C19.844 19.4639 19.8775 19.5047 19.8972 19.5523C19.917 19.6 19.9221 19.6524 19.9121 19.703C19.902 19.7536 19.8771 19.8001 19.8407 19.8366C19.8042 19.8731 19.7577 19.8979 19.7071 19.908C19.6565 19.9181 19.604 19.9129 19.5564 19.8932C19.5087 19.8734 19.468 19.84 19.4393 19.7971C19.4106 19.7542 19.3953 19.7037 19.3953 19.6522C19.3953 19.583 19.4228 19.5166 19.4717 19.4677C19.5207 19.4188 19.587 19.3913 19.6562 19.3913Z" stroke="#51247A" stroke-width="1.33" stroke-linecap="round" stroke-linejoin="round"/>
<path d="M16.2033 14.4348L16.5164 11.8908C16.5255 11.8178 16.5191 11.7437 16.4976 11.6734C16.4761 11.6031 16.44 11.5381 16.3916 11.4828C16.3432 11.4274 16.2837 11.3829 16.2169 11.3521C16.1501 11.3214 16.0776 11.3051 16.004 11.3043H4.52577C4.45145 11.3037 4.37787 11.3191 4.30995 11.3492C4.24203 11.3794 4.18134 11.4237 4.13194 11.4792C4.08254 11.5348 4.04557 11.6002 4.02351 11.6712C4.00145 11.7421 3.99481 11.817 4.00403 11.8908L5.96055 27.5429C5.9764 27.6698 6.03829 27.7865 6.13448 27.8707C6.23066 27.955 6.35443 28.001 6.48229 28H10.7866" stroke="#51247A" stroke-width="1.33" stroke-linecap="round" stroke-linejoin="round"/>
<path d="M26.9606 21.7391H12.3519V20.6956C12.3519 19.5886 12.7916 18.527 13.5744 17.7442C14.3571 16.9615 15.4188 16.5217 16.5258 16.5217H22.7867C23.8936 16.5217 24.9553 16.9615 25.7381 17.7442C26.5208 18.527 26.9606 19.5886 26.9606 20.6956V21.7391Z" stroke="#51247A" stroke-width="1.33" stroke-linecap="round" stroke-linejoin="round"/>
<path d="M28.004 23.3043C28.004 23.7194 27.8391 24.1176 27.5456 24.4111C27.252 24.7046 26.8539 24.8695 26.4388 24.8695H12.8736C12.4584 24.8695 12.0603 24.7046 11.7668 24.4111C11.4733 24.1176 11.3083 23.7194 11.3083 23.3043C11.3083 22.8892 11.4733 22.4911 11.7668 22.1975C12.0603 21.904 12.4584 21.7391 12.8736 21.7391H26.4388C26.8539 21.7391 27.252 21.904 27.5456 22.1975C27.8391 22.4911 28.004 22.8892 28.004 23.3043Z" stroke="#51247A" stroke-width="1.33" stroke-linecap="round" stroke-linejoin="round"/>
<path d="M26.9606 25.913C26.9606 26.4665 26.7407 26.9973 26.3493 27.3887C25.9579 27.7801 25.4271 28 24.8736 28H14.4388C13.8853 28 13.3545 27.7801 12.9631 27.3887C12.5717 26.9973 12.3519 26.4665 12.3519 25.913V24.8695H26.9606V25.913Z" stroke="#51247A" stroke-width="1.33" stroke-linecap="round" stroke-linejoin="round"/>
<path d="M8.69965 23.3043L10.6645 4.9318C10.68 4.78834 10.725 4.64963 10.7968 4.52446C10.8685 4.39928 10.9655 4.29035 11.0815 4.20454C11.1975 4.11874 11.33 4.05793 11.4707 4.02595C11.6114 3.99397 11.7573 3.99152 11.899 4.01876L16.5257 4.90467" stroke="#51247A" stroke-width="1.33" stroke-linecap="round" stroke-linejoin="round"/>
</svg>
