<svg width="32" height="32" viewBox="0 0 32 32" fill="none" xmlns="http://www.w3.org/2000/svg">
<path d="M12.0242 6.79057C12.0242 7.53067 12.3182 8.24046 12.8415 8.7638C13.3648 9.28713 14.0746 9.58114 14.8147 9.58114C15.5548 9.58114 16.2646 9.28713 16.788 8.7638C17.3113 8.24046 17.6053 7.53067 17.6053 6.79057C17.6053 6.05046 17.3113 5.34067 16.788 4.81734C16.2646 4.29401 15.5548 4 14.8147 4C14.0746 4 13.3648 4.29401 12.8415 4.81734C12.3182 5.34067 12.0242 6.05046 12.0242 6.79057V6.79057Z" stroke="#51247A" stroke-width="1.33" stroke-linecap="round" stroke-linejoin="round"/>
<path d="M22.6284 27.9989H14.8148C14.4692 27.999 14.132 27.8922 13.8496 27.693C13.5671 27.4939 13.3532 27.2123 13.2371 26.8868C13.1211 26.5613 13.1086 26.2078 13.2014 25.8749C13.2942 25.542 13.4878 25.246 13.7555 25.0275L19.0308 20.72L17.2448 15.0428L12.9719 18.0087C12.6446 18.2353 12.2727 18.3894 11.881 18.4604C11.4893 18.5315 11.087 18.5179 10.701 18.4207C10.315 18.3234 9.95426 18.1447 9.64303 17.8965C9.3318 17.6483 9.07727 17.3364 8.89652 16.9817L7.2579 14.382C7.02107 14.0062 6.94323 13.5517 7.04151 13.1185C7.1398 12.6853 7.40615 12.3088 7.78197 12.072C8.1578 11.8352 8.61231 11.7573 9.04553 11.8556C9.47874 11.9539 9.85517 12.2202 10.092 12.5961L11.5509 14.9122L17.2135 10.9965C17.4293 10.8474 17.677 10.751 17.9368 10.7151C18.1966 10.6793 18.4612 10.705 18.7093 10.7901C18.9574 10.8753 19.182 11.0175 19.365 11.2053C19.548 11.3932 19.6843 11.6214 19.763 11.8716L22.3482 20.0982C22.5088 20.6238 22.5108 21.185 22.3537 21.7117C22.1966 22.2383 21.8875 22.7068 21.4652 23.0585L19.5152 24.6513H22.6272C23.0713 24.6513 23.4972 24.8277 23.8112 25.1417C24.1252 25.4557 24.3016 25.8816 24.3016 26.3257C24.3016 26.7697 24.1252 27.1956 23.8112 27.5096C23.4972 27.8236 23.0713 28 22.6272 28L22.6284 27.9989Z" stroke="#51247A" stroke-width="1.33" stroke-linecap="round" stroke-linejoin="round"/>
<path d="M19.8378 24.6502H18.1635" stroke="#51247A" stroke-width="1.33" stroke-linecap="round" stroke-linejoin="round"/>
</svg>
