<svg width="32" height="32" viewBox="0 0 32 32" fill="none" xmlns="http://www.w3.org/2000/svg">
<path d="M17.7172 21.8C17.798 23.3473 18.2915 24.8447 19.1464 26.1368L19.4344 26.6" stroke="#51247A" stroke-width="1.33" stroke-linecap="round" stroke-linejoin="round"/>
<path d="M12.5656 26.6L12.8536 26.1368C13.7085 24.8447 14.202 23.3473 14.2828 21.8" stroke="#51247A" stroke-width="1.33" stroke-linecap="round" stroke-linejoin="round"/>
<path d="M10.6 26.6H21.4" stroke="#51247A" stroke-width="1.33" stroke-linecap="round" stroke-linejoin="round"/>
<path d="M4 18.2H28" stroke="#51247A" stroke-width="1.33" stroke-linecap="round" stroke-linejoin="round"/>
<path d="M26.8 5C27.1183 5 27.4235 5.12643 27.6485 5.35147C27.8736 5.57652 28 5.88174 28 6.2V20.6C28 20.9183 27.8736 21.2235 27.6485 21.4485C27.4235 21.6736 27.1183 21.8 26.8 21.8H5.2C4.88174 21.8 4.57652 21.6736 4.35147 21.4485C4.12643 21.2235 4 20.9183 4 20.6V6.2C4 5.88174 4.12643 5.57652 4.35147 5.35147C4.57652 5.12643 4.88174 5 5.2 5H26.8Z" stroke="#51247A" stroke-width="1.33" stroke-linecap="round" stroke-linejoin="round"/>
</svg>
