<svg width="32" height="32" viewBox="0 0 32 32" fill="none" xmlns="http://www.w3.org/2000/svg">
<path d="M20.6952 25.9073C20.6952 26.1848 20.5849 26.451 20.3887 26.6472C20.1925 26.8434 19.9263 26.9537 19.6488 26.9537H6.04634C5.76884 26.9537 5.50269 26.8434 5.30647 26.6472C5.11024 26.451 5 26.1848 5 25.9073V9.16583H19.6488C19.9263 9.16583 20.1925 9.27607 20.3887 9.4723C20.5849 9.66853 20.6952 9.93467 20.6952 10.2122V25.9073Z" stroke="#51247A" stroke-width="1.33" stroke-linecap="round" stroke-linejoin="round"/>
<path d="M20.6952 17.5366L27.6931 12.3049" stroke="#51247A" stroke-width="1.33" stroke-linecap="round" stroke-linejoin="round"/>
<path d="M20.6952 24.9269L27.6931 19.6952" stroke="#51247A" stroke-width="1.33" stroke-linecap="round" stroke-linejoin="round"/>
<path d="M5 9.1658L14.4171 4" stroke="#51247A" stroke-width="1.33" stroke-linecap="round" stroke-linejoin="round"/>
<path d="M7.09269 15.4439H18.6025V18.5829H7.09269V15.4439Z" stroke="#51247A" stroke-width="1.33" stroke-linecap="round" stroke-linejoin="round"/>
<path d="M7.09269 21.7219H18.6025V24.861H7.09269V21.7219Z" stroke="#51247A" stroke-width="1.33" stroke-linecap="round" stroke-linejoin="round"/>
<path d="M5 13.3512H20.6952" stroke="#51247A" stroke-width="1.33" stroke-linecap="round" stroke-linejoin="round"/>
<path d="M7.09269 10.9969C7.14443 10.9969 7.195 11.0122 7.23802 11.041C7.28104 11.0697 7.31457 11.1106 7.33436 11.1584C7.35416 11.2062 7.35934 11.2588 7.34925 11.3095C7.33916 11.3602 7.31424 11.4069 7.27766 11.4434C7.24108 11.48 7.19447 11.5049 7.14372 11.515C7.09298 11.5251 7.04038 11.5199 6.99259 11.5001C6.94479 11.4803 6.90393 11.4468 6.87519 11.4038C6.84645 11.3608 6.8311 11.3102 6.8311 11.2585C6.8311 11.1891 6.85866 11.1226 6.90772 11.0735C6.95678 11.0244 7.02331 10.9969 7.09269 10.9969" stroke="#51247A" stroke-width="1.33" stroke-linecap="round" stroke-linejoin="round"/>
<path d="M6.04634 28V26.9537" stroke="#51247A" stroke-width="1.33" stroke-linecap="round" stroke-linejoin="round"/>
<path d="M19.6488 28V26.9537" stroke="#51247A" stroke-width="1.33" stroke-linecap="round" stroke-linejoin="round"/>
</svg>
