<svg width="32" height="32" viewBox="0 0 32 32" fill="none" xmlns="http://www.w3.org/2000/svg">
<path d="M16.4783 25.913V21.7391" stroke="#51247A" stroke-width="1.33" stroke-linecap="round" stroke-linejoin="round"/>
<path d="M22.7391 19.6521C23.322 19.632 23.8821 19.4208 24.3332 19.0511C24.7842 18.6813 25.1011 18.1735 25.2351 17.6059L25.8696 14.4348" stroke="#51247A" stroke-width="1.33" stroke-linecap="round" stroke-linejoin="round"/>
<path d="M10.2174 19.6521C9.6345 19.632 9.0744 19.4208 8.62336 19.0511C8.17233 18.6813 7.8554 18.1735 7.72138 17.6059L7.08694 14.4348" stroke="#51247A" stroke-width="1.33" stroke-linecap="round" stroke-linejoin="round"/>
<path d="M20.1304 17.8678C20.1304 17.8678 22.7391 10.7826 22.7391 9.21739C22.7391 6.6087 20.3162 4.29843 17.5708 4.04904C17.2233 4.01774 16.8591 4 16.4782 4C16.0974 4 15.7332 4.01774 15.3857 4.04904C12.6403 4.29843 10.2174 6.6087 10.2174 9.21739C10.2174 10.7826 12.8261 17.8678 12.8261 17.8678" stroke="#51247A" stroke-width="1.33" stroke-linecap="round" stroke-linejoin="round"/>
<path d="M15.4348 26.9565C15.4348 27.2333 15.5447 27.4987 15.7404 27.6944C15.9361 27.89 16.2015 28 16.4783 28C16.755 28 17.0204 27.89 17.2161 27.6944C17.4118 27.4987 17.5217 27.2333 17.5217 26.9565C17.5217 26.6798 17.4118 26.4143 17.2161 26.2187C17.0204 26.023 16.755 25.913 16.4783 25.913C16.2015 25.913 15.9361 26.023 15.7404 26.2187C15.5447 26.4143 15.4348 26.6798 15.4348 26.9565Z" stroke="#51247A" stroke-width="1.33" stroke-linecap="round" stroke-linejoin="round"/>
<path d="M20.6522 26.9565C20.6522 27.2333 20.7621 27.4987 20.9578 27.6944C21.1535 27.89 21.4189 28 21.6956 28C21.9724 28 22.2378 27.89 22.4335 27.6944C22.6292 27.4987 22.7391 27.2333 22.7391 26.9565C22.7391 26.6798 22.6292 26.4143 22.4335 26.2187C22.2378 26.023 21.9724 25.913 21.6956 25.913C21.4189 25.913 21.1535 26.023 20.9578 26.2187C20.7621 26.4143 20.6522 26.6798 20.6522 26.9565Z" stroke="#51247A" stroke-width="1.33" stroke-linecap="round" stroke-linejoin="round"/>
<path d="M10.2174 26.9565C10.2174 27.2333 10.3273 27.4987 10.523 27.6944C10.7187 27.89 10.9841 28 11.2609 28C11.5376 28 11.803 27.89 11.9987 27.6944C12.1944 27.4987 12.3043 27.2333 12.3043 26.9565C12.3043 26.6798 12.1944 26.4143 11.9987 26.2187C11.803 26.023 11.5376 25.913 11.2609 25.913C10.9841 25.913 10.7187 26.023 10.523 26.2187C10.3273 26.4143 10.2174 26.6798 10.2174 26.9565Z" stroke="#51247A" stroke-width="1.33" stroke-linecap="round" stroke-linejoin="round"/>
<path d="M11.2609 25.9131C11.9212 25.1999 12.732 24.6426 13.6344 24.2816C14.5368 23.9207 15.5082 23.7651 16.4783 23.8261C17.4483 23.7651 18.4197 23.9207 19.3221 24.2816C20.2245 24.6426 21.0353 25.1999 21.6956 25.9131" stroke="#51247A" stroke-width="1.33" stroke-linecap="round" stroke-linejoin="round"/>
<path d="M9.17391 13.9131C9.17391 14.0514 9.11894 14.1841 9.0211 14.282C8.92325 14.3798 8.79055 14.4348 8.65217 14.4348H5.52174C5.38337 14.4348 5.25066 14.3798 5.15281 14.282C5.05497 14.1841 5 14.0514 5 13.9131C5 13.3596 5.21988 12.8287 5.61126 12.4374C6.00264 12.046 6.53346 11.8261 7.08696 11.8261C7.64045 11.8261 8.17128 12.046 8.56266 12.4374C8.95404 12.8287 9.17391 13.3596 9.17391 13.9131Z" stroke="#51247A" stroke-width="1.33" stroke-linecap="round" stroke-linejoin="round"/>
<path d="M27.9565 13.9131C27.9565 14.0514 27.9015 14.1841 27.8037 14.282C27.7058 14.3798 27.5731 14.4348 27.4348 14.4348H24.3043C24.166 14.4348 24.0333 14.3798 23.9354 14.282C23.8376 14.1841 23.7826 14.0514 23.7826 13.9131C23.7826 13.3596 24.0025 12.8287 24.3938 12.4374C24.7852 12.046 25.3161 11.8261 25.8695 11.8261C26.423 11.8261 26.9539 12.046 27.3452 12.4374C27.7366 12.8287 27.9565 13.3596 27.9565 13.9131Z" stroke="#51247A" stroke-width="1.33" stroke-linecap="round" stroke-linejoin="round"/>
<path d="M22.7391 20.6957C22.7391 20.9724 22.6292 21.2378 22.4335 21.4335C22.2378 21.6292 21.9724 21.7392 21.6956 21.7392H11.2609C10.9841 21.7392 10.7187 21.6292 10.523 21.4335C10.3273 21.2378 10.2174 20.9724 10.2174 20.6957V19.3225C10.2173 19.1029 10.2864 18.889 10.4149 18.711C10.5434 18.533 10.7248 18.4001 10.9332 18.3312C12.7297 17.7857 14.6011 17.5272 16.4782 17.5652C18.3554 17.5272 20.2267 17.7857 22.0233 18.3312C22.2317 18.4001 22.4131 18.533 22.5416 18.711C22.6701 18.889 22.7392 19.1029 22.7391 19.3225V20.6957Z" stroke="#51247A" stroke-width="1.33" stroke-linecap="round" stroke-linejoin="round"/>
</svg>
