<svg width="32" height="32" viewBox="0 0 32 32" fill="none" xmlns="http://www.w3.org/2000/svg">
<path d="M9.34108 22.0245C9.8685 20.6634 10.7772 19.4833 11.9583 18.6256C13.1394 17.7679 14.5427 17.2689 16.0002 17.1885C17.4547 17.2545 18.8565 17.7531 20.026 18.6203C21.1956 19.4876 22.0797 20.6842 22.5653 22.0568" stroke="#51247A" stroke-width="1.33" stroke-linecap="round" stroke-linejoin="round"/>
<path d="M6.4671 21.0947C7.25621 19.0798 8.52928 17.2903 10.1739 15.8841L8.69514 10.4053L6.8167 11.0314C6.23659 11.1407 5.6366 11.0285 5.13523 10.7169C4.63386 10.4053 4.26756 9.91701 4.10868 9.34848C3.94981 8.77996 4.0099 8.17253 4.2771 7.64615C4.5443 7.11978 4.99917 6.71275 5.55188 6.50544L8.88507 5.0006C9.38928 4.77375 9.9629 4.75623 10.48 4.95189C10.9971 5.14754 11.4155 5.54038 11.6433 6.04418L13.3912 9.88351H18.6091C19.7162 9.88351 20.778 10.3233 21.5608 11.1061C22.3437 11.889 22.7835 12.9507 22.7835 14.0578V16.7972C23.4576 17.0769 24.8372 19.1672 25.5343 21.0988" stroke="#51247A" stroke-width="1.33" stroke-linecap="round" stroke-linejoin="round"/>
<path d="M21.7211 11.2767L27.3929 14.493" stroke="#51247A" stroke-width="1.33" stroke-linecap="round" stroke-linejoin="round"/>
<path d="M13.3912 9.88348L14.3304 13.6623C14.3586 13.7752 14.4237 13.8755 14.5154 13.9472C14.6071 14.0188 14.7202 14.0578 14.8365 14.0578H17.6751C17.7915 14.0578 17.9045 14.0188 17.9962 13.9472C18.0879 13.8755 18.153 13.7752 18.1812 13.6623L19.1204 9.91479" stroke="#51247A" stroke-width="1.33" stroke-linecap="round" stroke-linejoin="round"/>
<path d="M16.0075 27.1088C12.3534 27.1145 8.73082 26.433 5.32855 25.0999C4.81209 24.8976 4.39716 24.4984 4.17503 23.9902C3.9529 23.4819 3.94177 22.9062 4.14409 22.3898C4.34641 21.8733 4.74561 21.4584 5.25387 21.2362C5.76213 21.0141 6.33781 21.003 6.85427 21.2053C12.7381 23.4872 19.262 23.4891 25.1472 21.2105C25.6636 21.0085 26.2392 21.0199 26.7472 21.2422C27.2553 21.4645 27.6542 21.8796 27.8563 22.396C28.0583 22.9125 28.0469 23.4881 27.8246 23.9961C27.6023 24.5042 27.1872 24.9031 26.6708 25.1052C23.2732 26.4349 19.656 27.1146 16.0075 27.1088V27.1088Z" stroke="#51247A" stroke-width="1.33" stroke-linecap="round" stroke-linejoin="round"/>
<path d="M9.14185 4.90981L10.9389 4.18661C11.5761 3.9317 12.2882 3.93817 12.9207 4.20462C13.5532 4.47106 14.0552 4.97601 14.318 5.61005L16.0921 9.88872" stroke="#51247A" stroke-width="1.33" stroke-linecap="round" stroke-linejoin="round"/>
<path d="M8.17329 7.53546C8.24249 7.53546 8.30885 7.56295 8.35777 7.61188C8.4067 7.6608 8.43419 7.72716 8.43419 7.79636" stroke="#51247A" stroke-width="1.33" stroke-linecap="round" stroke-linejoin="round"/>
<path d="M7.91354 7.79636C7.91354 7.72716 7.94103 7.6608 7.98996 7.61188C8.03889 7.56295 8.10524 7.53546 8.17444 7.53546" stroke="#51247A" stroke-width="1.33" stroke-linecap="round" stroke-linejoin="round"/>
<path d="M8.17329 8.05722C8.1041 8.05722 8.03774 8.02973 7.98881 7.98081C7.93989 7.93188 7.9124 7.86552 7.9124 7.79633" stroke="#51247A" stroke-width="1.33" stroke-linecap="round" stroke-linejoin="round"/>
<path d="M8.43533 7.79633C8.43533 7.86552 8.40785 7.93188 8.35892 7.98081C8.30999 8.02973 8.24363 8.05722 8.17444 8.05722" stroke="#51247A" stroke-width="1.33" stroke-linecap="round" stroke-linejoin="round"/>
</svg>
