<svg width="32" height="32" viewBox="0 0 32 32" fill="none" xmlns="http://www.w3.org/2000/svg">
<path d="M5 24.1472C5 25.169 5.40592 26.149 6.12847 26.8715C6.85102 27.5941 7.83101 28 8.85284 28C9.87468 28 10.8547 27.5941 11.5772 26.8715C12.2998 26.149 12.7057 25.169 12.7057 24.1472C12.7057 23.1253 12.2998 22.1453 11.5772 21.4228C10.8547 20.7002 9.87468 20.2943 8.85284 20.2943C7.83101 20.2943 6.85102 20.7002 6.12847 21.4228C5.40592 22.1453 5 23.1253 5 24.1472V24.1472Z" stroke="#51247A" stroke-width="1.33" stroke-linecap="round" stroke-linejoin="round"/>
<path d="M19.4482 24.1472C19.4482 25.169 19.8541 26.149 20.5766 26.8715C21.2992 27.5941 22.2792 28 23.301 28C24.3228 28 25.3028 27.5941 26.0254 26.8715C26.7479 26.149 27.1538 25.169 27.1538 24.1472C27.1538 23.1253 26.7479 22.1453 26.0254 21.4228C25.3028 20.7002 24.3228 20.2943 23.301 20.2943C22.2792 20.2943 21.2992 20.7002 20.5766 21.4228C19.8541 22.1453 19.4482 23.1253 19.4482 24.1472V24.1472Z" stroke="#51247A" stroke-width="1.33" stroke-linecap="round" stroke-linejoin="round"/>
<path d="M15.1137 24.1472L20.5886 16.7825L13.1873 19.3311L9.57621 23.3439C9.51376 23.4131 9.47272 23.4989 9.4581 23.591C9.44347 23.683 9.45588 23.7774 9.49382 23.8625C9.53175 23.9477 9.59359 24.02 9.67182 24.0707C9.75005 24.1214 9.84131 24.1483 9.93453 24.1481H15.1137L11.9833 16.4424" stroke="#51247A" stroke-width="1.33" stroke-linecap="round" stroke-linejoin="round"/>
<path d="M23.301 24.1472L20.1156 15.5004C20.0924 15.437 20.0828 15.3694 20.0874 15.302C20.092 15.2347 20.1107 15.169 20.1423 15.1093C20.1739 15.0496 20.2177 14.9973 20.2709 14.9556C20.324 14.914 20.3853 14.884 20.4508 14.8676L21.8562 14.515" stroke="#51247A" stroke-width="1.33" stroke-linecap="round" stroke-linejoin="round"/>
<path d="M10.7793 16.4415H13.6689" stroke="#51247A" stroke-width="1.33" stroke-linecap="round" stroke-linejoin="round"/>
<path d="M5 13.772L15.4277 4.25166C15.6052 4.08975 15.8367 4 16.0769 4C16.3171 4 16.5487 4.08975 16.7261 4.25166L27.1539 13.772" stroke="#51247A" stroke-width="1.33" stroke-linecap="round" stroke-linejoin="round"/>
</svg>
