<svg width="32" height="32" viewBox="0 0 32 32" fill="none" xmlns="http://www.w3.org/2000/svg">
<path d="M6.08696 21.7391V18.6087" stroke="#51247A" stroke-width="1.33" stroke-linecap="round" stroke-linejoin="round"/>
<path d="M12.3478 21.7391V18.6087" stroke="#51247A" stroke-width="1.33" stroke-linecap="round" stroke-linejoin="round"/>
<path d="M6.08696 21.7391H12.3478" stroke="#51247A" stroke-width="1.33" stroke-linecap="round" stroke-linejoin="round"/>
<path d="M9.21739 28V23.8261" stroke="#51247A" stroke-width="1.33" stroke-linecap="round" stroke-linejoin="round"/>
<path d="M9.21739 12.8696V18.087" stroke="#51247A" stroke-width="1.33" stroke-linecap="round" stroke-linejoin="round"/>
<path d="M11.8261 28L12.3478 21.7391H14.4348V18.087C14.4348 16.7032 13.8851 15.3762 12.9066 14.3977C11.9282 13.4193 10.6011 12.8696 9.21739 12.8696C7.83365 12.8696 6.50659 13.4193 5.52814 14.3977C4.54969 15.3762 4 16.7032 4 18.087V21.7391H6.08696L6.6087 28H11.8261Z" stroke="#51247A" stroke-width="1.33" stroke-linecap="round" stroke-linejoin="round"/>
<path d="M5.56522 7.65217C5.56522 8.13178 5.65968 8.6067 5.84322 9.0498C6.02676 9.4929 6.29578 9.89551 6.63491 10.2347C6.97405 10.5738 7.37666 10.8428 7.81976 11.0263C8.26287 11.2099 8.73778 11.3043 9.21739 11.3043C9.697 11.3043 10.1719 11.2099 10.615 11.0263C11.0581 10.8428 11.4607 10.5738 11.7999 10.2347C12.139 9.89551 12.408 9.4929 12.5916 9.0498C12.7751 8.6067 12.8696 8.13178 12.8696 7.65217C12.8696 7.17256 12.7751 6.69765 12.5916 6.25455C12.408 5.81145 12.139 5.40883 11.7999 5.0697C11.4607 4.73056 11.0581 4.46154 10.615 4.27801C10.1719 4.09447 9.697 4 9.21739 4C8.73778 4 8.26287 4.09447 7.81976 4.27801C7.37666 4.46154 6.97405 4.73056 6.63491 5.0697C6.29578 5.40883 6.02676 5.81145 5.84322 6.25455C5.65968 6.69765 5.56522 7.17256 5.56522 7.65217V7.65217Z" stroke="#51247A" stroke-width="1.33" stroke-linecap="round" stroke-linejoin="round"/>
<path d="M5.9826 5.95965C7.14088 7.04844 8.67119 7.65384 10.2609 7.65217C11.1461 7.65341 12.0215 7.46631 12.8289 7.1033" stroke="#51247A" stroke-width="1.33" stroke-linecap="round" stroke-linejoin="round"/>
<path d="M17.5652 21.7391H25.913C26.4665 21.7391 26.9974 21.5193 27.3887 21.1279C27.7801 20.7365 28 20.2057 28 19.6522V6.08696C28 5.53346 27.7801 5.00264 27.3887 4.61126C26.9974 4.21988 26.4665 4 25.913 4H13.913" stroke="#51247A" stroke-width="1.33" stroke-linecap="round" stroke-linejoin="round"/>
</svg>
