<svg width="32" height="32" viewBox="0 0 32 32" fill="none" xmlns="http://www.w3.org/2000/svg">
<path d="M5.82611 16.7391C5.82611 17.2234 6.0185 17.6879 6.36096 18.0304C6.70342 18.3728 7.16789 18.5652 7.6522 18.5652C8.13651 18.5652 8.60098 18.3728 8.94344 18.0304C9.28589 17.6879 9.47828 17.2234 9.47828 16.7391C9.47828 16.2548 9.28589 15.7903 8.94344 15.4479C8.60098 15.1054 8.13651 14.913 7.6522 14.913C7.16789 14.913 6.70342 15.1054 6.36096 15.4479C6.0185 15.7903 5.82611 16.2548 5.82611 16.7391V16.7391Z" stroke="#51247A" stroke-width="1.33" stroke-linecap="round" stroke-linejoin="round"/>
<path d="M10.911 21.2908C10.5416 20.6379 9.98527 20.1105 9.31358 19.7766C8.64189 19.4427 7.88561 19.3175 7.14215 19.4172C6.3987 19.5169 5.7021 19.8369 5.1421 20.3359C4.58209 20.835 4.18431 21.4903 4 22.2174" stroke="#51247A" stroke-width="1.33" stroke-linecap="round" stroke-linejoin="round"/>
<path d="M22.5217 16.7391C22.5217 16.9789 22.569 17.2164 22.6607 17.4379C22.7525 17.6595 22.887 17.8608 23.0566 18.0304C23.2261 18.1999 23.4275 18.3344 23.649 18.4262C23.8706 18.518 24.108 18.5652 24.3478 18.5652C24.5876 18.5652 24.8251 18.518 25.0466 18.4262C25.2682 18.3344 25.4695 18.1999 25.6391 18.0304C25.8086 17.8608 25.9431 17.6595 26.0349 17.4379C26.1267 17.2164 26.1739 16.9789 26.1739 16.7391C26.1739 16.4993 26.1267 16.2619 26.0349 16.0403C25.9431 15.8188 25.8086 15.6175 25.6391 15.4479C25.4695 15.2783 25.2682 15.1438 25.0466 15.052C24.8251 14.9603 24.5876 14.913 24.3478 14.913C24.108 14.913 23.8706 14.9603 23.649 15.052C23.4275 15.1438 23.2261 15.2783 23.0566 15.4479C22.887 15.6175 22.7525 15.8188 22.6607 16.0403C22.569 16.2619 22.5217 16.4993 22.5217 16.7391Z" stroke="#51247A" stroke-width="1.33" stroke-linecap="round" stroke-linejoin="round"/>
<path d="M21.0891 21.2908C21.4584 20.6379 22.0147 20.1105 22.6864 19.7766C23.3581 19.4427 24.1144 19.3175 24.8579 19.4172C25.6013 19.5169 26.2979 19.8369 26.8579 20.3359C27.4179 20.835 27.8157 21.4903 28 22.2174" stroke="#51247A" stroke-width="1.33" stroke-linecap="round" stroke-linejoin="round"/>
<path d="M14.1739 6.82609C14.1739 7.3104 14.3663 7.77487 14.7087 8.11733C15.0512 8.45978 15.5157 8.65217 16 8.65217C16.4843 8.65217 16.9488 8.45978 17.2912 8.11733C17.6337 7.77487 17.8261 7.3104 17.8261 6.82609C17.8261 6.34178 17.6337 5.87731 17.2912 5.53485C16.9488 5.19239 16.4843 5 16 5C15.5157 5 15.0512 5.19239 14.7087 5.53485C14.3663 5.87731 14.1739 6.34178 14.1739 6.82609Z" stroke="#51247A" stroke-width="1.33" stroke-linecap="round" stroke-linejoin="round"/>
<path d="M19.6522 12.3043C19.4452 11.4928 18.9739 10.7733 18.3125 10.2594C17.6512 9.74556 16.8375 9.4666 16 9.4666C15.1625 9.4666 14.3488 9.74556 13.6875 10.2594C13.0261 10.7733 12.5548 11.4928 12.3478 12.3043" stroke="#51247A" stroke-width="1.33" stroke-linecap="round" stroke-linejoin="round"/>
<path d="M21.9989 25.6609C22.0298 25.8124 22.0267 25.9689 21.9897 26.1191C21.9527 26.2693 21.8828 26.4094 21.7851 26.5292C21.6873 26.649 21.5641 26.7456 21.4244 26.812C21.2847 26.8784 21.132 26.9129 20.9774 26.913H11.0226C10.8679 26.9129 10.7152 26.8784 10.5755 26.812C10.4358 26.7456 10.3126 26.649 10.2149 26.5292C10.1171 26.4094 10.0472 26.2693 10.0102 26.1191C9.97321 25.9689 9.97007 25.8124 10.001 25.6609L12.1746 15.2261C12.2226 14.9906 12.3506 14.7789 12.5367 14.6268C12.7228 14.4747 12.9558 14.3915 13.1961 14.3913H18.8038C19.0442 14.3915 19.2771 14.4747 19.4632 14.6268C19.6494 14.7789 19.7773 14.9906 19.8254 15.2261L21.9989 25.6609Z" stroke="#51247A" stroke-width="1.33" stroke-linecap="round" stroke-linejoin="round"/>
<path d="M18.5231 24.2303C18.5337 24.3043 18.5283 24.3797 18.5072 24.4515C18.4861 24.5232 18.4499 24.5896 18.4009 24.6461C18.3519 24.7026 18.2913 24.7479 18.2233 24.779C18.1553 24.81 18.0814 24.8261 18.0066 24.8261H13.9934C13.9186 24.8261 13.8447 24.81 13.7766 24.779C13.7086 24.7479 13.6481 24.7026 13.5991 24.6461C13.5501 24.5896 13.5138 24.5232 13.4927 24.4515C13.4716 24.3797 13.4662 24.3043 13.4768 24.2303L13.8494 21.6216C13.8672 21.4973 13.9292 21.3836 14.0241 21.3014C14.119 21.2192 14.2403 21.1739 14.3659 21.1739H17.6341C17.7596 21.1739 17.881 21.2192 17.9758 21.3014C18.0707 21.3836 18.1328 21.4973 18.1506 21.6216L18.5231 24.2303Z" stroke="#51247A" stroke-width="1.33" stroke-linecap="round" stroke-linejoin="round"/>
</svg>
