<svg width="36" height="24" fill="none" xmlns="http://www.w3.org/2000/svg"><path d="M36 19.803H0v4.201h36v-4.2ZM36 0H0v4.2h36V0Z" fill="#096"/><path d="M36 4.2H0v1.2h36V4.2ZM36 18.603H0v1.2h36v-1.2Z" fill="#000"/><path d="M36 5.4H0v13.203h36V5.401Z" fill="#009"/><path d="M17.4 5.7c-6 1.801-5.7 6.302-3.78 10.443l-2.28 2.16 4.14-1.5v-5.521c1.32-1.98 3.72-1.98 5.04 0v5.521l4.14 1.5-2.28-2.16C24.3 12.003 24.6 7.5 18.6 5.7L18 8.28l-.6-2.58Z" fill="#fff"/><path d="m20.28 11.825-1.4 1.078.532 1.74-1.41-1.069-1.41 1.067.53-1.739-1.402-1.08 1.737-.006.542-1.734.545 1.735 1.737.008Z" fill="#fff"/></svg>