<svg xmlns="http://www.w3.org/2000/svg" viewBox="0 0 16 16">
  <g fill="none" stroke="#000" stroke-linecap="round" stroke-linejoin="round" stroke-width=".75">
    <path d="M5.91 11.77V6.74c0-.45.38-.83.83-.83h6.72c.45 0 .83.38.83.83v5.86c0 .46-.38.83-.83.83h-.49m-7.06-1.57V6.74H4.06a.83.83 0 00-.8.63L3 8.83l-.91.6a.83.83 0 00-.38.68v2.5c0 .45.38.82.83.82H4.3"/>
    <path d="M5.48 11.77c.7 0 1.26.57 1.26 1.26 0 .68-.57 1.26-1.26 1.26-.68 0-1.25-.58-1.25-1.26 0-.69.57-1.26 1.25-1.26zm6.29 0c.69 0 1.26.57 1.26 1.26 0 .68-.57 1.26-1.26 1.26-.68 0-1.25-.58-1.25-1.26 0-.69.57-1.26 1.25-1.26zm-5.11 1.69h3.91m-.05-7.98c0-.68-.58-1.25-1.26-1.25C8.57 4.23 8 4.8 8 5.48v.43h2.52zM10.09 8v2.52M8.83 9.26h2.51M9.26 2.54v-.83m2.08 1.69l.43-.83m-4.6.83l-.43-.83"/>
  </g>
</svg>