<svg xmlns="http://www.w3.org/2000/svg" viewBox="0 0 16 16">
  <g fill="none" stroke="#000" stroke-linecap="round" stroke-linejoin="round" stroke-width=".75">
    <path d="M12.14 14.29v-3.52a5.24 5.24 0 00.29-7.4 5.26 5.26 0 00-3.86-1.66c-4 0-4.86 3.29-6.28 6.98-.1.22.02.45.23.54.05.03.08.03.14.03H3.7v1.68c0 .92.75 1.69 1.69 1.69h.89v1.66"/>
    <path d="M6.6 5.6c-.2-.12-.29-.37-.17-.57 0-.03.03-.03.03-.06a2.95 2.95 0 014.11-.57c1 .74 1.4 2.06 1.03 3.26-.08.23-.31.34-.51.25l-.06-.02zm0 0"/>
  </g>
</svg>