<svg xmlns="http://www.w3.org/2000/svg" viewBox="0 0 16 16">
  <g fill="none" stroke="#000" stroke-linecap="round" stroke-linejoin="round" stroke-width=".75">
    <path d="M12.37 8.66a6.56 6.56 0 001.37-3.57A3.39 3.39 0 007.86 2.8 3.38 3.38 0 002 5.06a6.48 6.48 0 001.37 3.57c.17.23.23.54.11.83-.25.6-1.17 4.8.58 4.8 1.65 0 .14-3.35 3.6-3.35h.45c3.46.03 1.92 3.38 3.6 3.38 1.72 0 .83-4.2.58-4.8a.74.74 0 01.08-.83zm0 0"/>
    <path d="M10.37 6.31c0-.22-.2-.42-.43-.42H8.7V4.63c0-.23-.2-.43-.43-.43h-.83c-.23 0-.43.2-.43.43v1.26H5.74c-.22 0-.43.2-.43.42v.83c0 .23.2.43.43.43H7v1.26c0 .23.2.43.43.43h.86c.23 0 .42-.2.42-.43V7.57h1.26c.23 0 .43-.2.43-.43v-.83zm0 0"/>
  </g>
</svg>