<svg xmlns="http://www.w3.org/2000/svg" viewBox="0 0 16 16">
  <path fill="none" stroke="#000" stroke-linecap="round" stroke-linejoin="round" stroke-miterlimit="8" stroke-width=".75" d="M8.74 1.71c.78 0 1.46.67 1.46 1.46 0 .78-.68 1.45-1.46 1.45-.78 0-1.45-.67-1.45-1.45 0-.79.67-1.46 1.45-1.46zm0 8.77v2.91m1.68-3.74V7.97M5.4 10.48c0-.44-.4-.83-.85-.83a.86.86 0 00-.84.83v3.8m3.36-4.63v3.8c0 .44.39.84.84.84.44 0 .83-.4.83-.84 0 .44.4.84.84.84.45 0 .84-.4.84-.84v-3.8c0 .44.39.84.84.84.44 0 .83-.4.83-.84V7.97a2.5 2.5 0 00-2.5-2.51H7.9a2.5 2.5 0 00-2.52 2.51"/>
</svg>