<svg xmlns="http://www.w3.org/2000/svg" viewBox="0 0 16 16">
  <g fill="none" stroke="#000" stroke-linecap="round" stroke-linejoin="round" stroke-miterlimit="8" stroke-width=".75">
    <path d="M10.1 7.52c0-.45-.4-.84-.84-.84-1.9 0-2.57-1.17-2.62-1.22a.97.97 0 00-.78-.4.8.8 0 00-.73.5l-3.35 7.55c-.17.44 0 .89.45 1.11.44.23.89 0 1.11-.45l1.4-3.12c.5.28.78.83.78 1.4v1.4c0 .44.39.83.84.83.44 0 .84-.4.84-.84v-1.4c0-1.22-.68-2.34-1.8-2.95l.8-1.69c.9.67 2 1 3.13 1 .39 0 .78-.39.78-.89zM7.14 1.71c.78 0 1.45.67 1.45 1.46 0 .78-.67 1.45-1.45 1.45-.78 0-1.45-.67-1.45-1.45 0-.79.67-1.46 1.45-1.46zm6.31 10.84c.44 0 .84.39.84.83 0 .45-.4.84-.84.84a.86.86 0 01-.84-.84c0-.44.34-.83.84-.83zm-4.25 0c.45 0 .84.39.84.83 0 .45-.39.84-.84.84a.86.86 0 01-.83-.84c0-.44.39-.83.83-.83zm0 0"/>
    <path d="M10.1 7.52h.78c.78 0 1.45.5 1.62 1.28l.95 3.75"/>
    <path d="M9.2 12.55l.45-1.07c.28-.6.9-1.05 1.56-1.05h1.68"/>
  </g>
</svg>