<svg xmlns="http://www.w3.org/2000/svg" viewBox="0 0 16 16">
  <path fill="none" stroke="#000" stroke-linecap="round" stroke-linejoin="round" stroke-miterlimit="8" stroke-width=".75" d="M6.3 1.71c.78 0 1.45.67 1.45 1.46 0 .78-.67 1.45-1.45 1.45-.79 0-1.46-.67-1.46-1.45 0-.79.67-1.46 1.46-1.46zm0 0M11.32 8.36c-.1-.11-2.18-2.51-5.02-2.51-.95 0-1.9.11-2.8.39a2.52 2.52 0 00-1.79 2.4v1c0 .45.4.85.84.85.45 0 .84-.4.84-.84v-1c0-.4.22-.73.61-.8l.68-.16v2.8L3.05 13c-.22.34-.1.9.23 1.12a.9.9 0 001.17-.23v-.05l1.85-2.85 1.78 2.9c.23.4.73.56 1.18.29.44-.29.56-.73.28-1.18v-.05l-1.57-2.46V8.03c.78.33 1.51.84 2.12 1.45.34.34.84.4 1.18.06.34-.28.34-.79.05-1.18zm0 0M11.27 9.6l3.02 4.69"/>
</svg>