<svg xmlns="http://www.w3.org/2000/svg" viewBox="0 0 16 16">
  <path fill="none" stroke="#000" stroke-linecap="round" stroke-linejoin="round" stroke-width=".75" d="M10.52 1.71c.68 0 1.25.58 1.25 1.26 0 .69-.57 1.26-1.25 1.26-.7 0-1.26-.57-1.26-1.26 0-.68.57-1.26 1.26-1.26zM5.91 9.26c.7 0 1.26.57 1.26 1.26 0 .68-.57 1.25-1.26 1.25-.68 0-1.25-.57-1.25-1.25 0-.7.54-1.26 1.25-1.26zm2.52 0h4.74c.63 0 1.12.51 1.12 1.11v1.4H8.43zm-5.89 2.51H14.3v1.69H2.54zm0 2.52V9.26m11.75 5.03v-.83M8.43 7.57c0-.91.74-1.68 1.68-1.68h.83c.92 0 1.69.74 1.69 1.68M6.31 3.4H5.06V2.14c0-.23-.2-.43-.43-.43H3.8c-.23 0-.43.2-.43.43V3.4H2.14c-.23 0-.43.2-.43.43v.83c0 .23.2.43.43.43H3.4v1.25c0 .23.2.43.43.43h.83c.23 0 .43-.2.43-.43V5.1h1.25c.23 0 .43-.2.43-.43v-.83a.46.46 0 00-.46-.43zm0 0"/>
</svg>