<svg xmlns="http://www.w3.org/2000/svg" viewBox="0 0 16 16">
  <g fill="none" stroke="#000" stroke-linecap="round" stroke-linejoin="round" stroke-width=".75">
    <path d="M3.8 10.09h8.37M10.09 14.29H5.9l-.43-4.2h5.04zm0 0M8 4.23c.8 0 1.46.66 1.46 1.46 0 .8-.66 1.45-1.46 1.45-.8 0-1.46-.66-1.46-1.45 0-.8.66-1.46 1.46-1.46zm0 0M9.83 8.43a2.4 2.4 0 00-3.37-.26c-.09.09-.2.17-.26.26"/>
    <path d="M3.8 8.43H2.54a.83.83 0 01-.83-.83V2.54c0-.45.38-.83.83-.83h10.89c.48 0 .86.38.86.83v5.03c0 .46-.38.83-.83.83H12.2"/>
  </g>
</svg>