<svg xmlns="http://www.w3.org/2000/svg" viewBox="0 0 16 16">
  <g stroke="#000" stroke-linecap="round" stroke-linejoin="round" stroke-miterlimit="8" stroke-width=".75">
    <path fill="none" d="M4.27 1.71h7.54c.45 0 .84.4.84.84v10.9c0 .44-.4.84-.84.84H4.27a.86.86 0 01-.84-.84V2.5c.05-.45.39-.79.84-.79zm0 0"/>
    <path fill="none" d="M5.55 3.4h5.03c.22 0 .45.16.45.44V5.5c0 .23-.17.45-.45.45H5.55a.44.44 0 01-.44-.45V3.84c.05-.28.22-.45.44-.45zm0 0"/>
    <path d="M5.77 7.97c.12 0 .23.11.23.23 0 .1-.11.22-.23.22-.1 0-.22-.11-.22-.22 0-.12.11-.23.22-.23zm2.41 0c.1 0 .22.11.22.23 0 .1-.11.22-.22.22s-.23-.11-.23-.22c0-.12.06-.23.23-.23zm2.18 0c.1 0 .22.11.22.23 0 .1-.11.22-.22.22s-.23-.11-.23-.22c0-.12.12-.23.23-.23zM5.77 10.1c.12 0 .23.1.23.22 0 .11-.11.22-.23.22-.1 0-.22-.11-.22-.22 0-.17.11-.23.22-.23zm2.41 0c.1 0 .22.1.22.22 0 .11-.11.22-.22.22s-.23-.11-.23-.22c0-.17.06-.23.23-.23zm2.18 0c.1 0 .22.1.22.22 0 .11-.11.22-.22.22s-.23-.11-.23-.22c.06-.17.12-.23.23-.23zm-4.59 2.06c.12 0 .23.11.23.23 0 .1-.11.22-.23.22-.1 0-.22-.11-.22-.22 0-.12.11-.23.22-.23zm2.41 0c.1 0 .22.11.22.23 0 .1-.11.22-.22.22s-.23-.11-.23-.22c0-.12.06-.23.23-.23zm2.18 0c.1 0 .22.11.22.23 0 .1-.11.22-.22.22s-.23-.11-.23-.22c0-.12.12-.23.23-.23zm0 0"/>
  </g>
</svg>