<svg xmlns="http://www.w3.org/2000/svg" viewBox="0 0 16 16">
  <path fill="none" stroke="#000" stroke-linecap="round" stroke-linejoin="round" stroke-width=".75" d="M13.46 5.09H11.8a2.3 2.3 0 01-1.86-.8 2.53 2.53 0 00-3.83 0c-.48.51-1.17.8-1.85.8H2.54a.83.83 0 000 1.65H4.2a2.3 2.3 0 011.86.8 2.52 2.52 0 003.83 0c.48-.51 1.17-.8 1.85-.8h1.66c.46 0 .83-.37.83-.83.06-.45-.32-.82-.77-.82zM1.71 2.57h.83m1.69 0h.83M3.4 3.4v1.66m7.54-2.49h.83m1.69 0h.83m-1.69.83v1.66M5.06 8.43a4.86 4.86 0 00-2.4 3.14c-.09.43.17.89.63 1 .05 0 .1.03.2.03h1.57m0-.83v1.66m5.88-5c1.2.66 2.09 1.8 2.4 3.14a.81.81 0 01-.63 1c-.05 0-.1.03-.2.03h-1.57m0-.83v1.66"/>
</svg>