<svg xmlns="http://www.w3.org/2000/svg" viewBox="0 0 16 16">
  <g fill="none" stroke="#000" stroke-linecap="round" stroke-linejoin="round" stroke-width=".75">
    <path d="M7.57 2.54a4.19 4.19 0 110 6.69M9.26 3.37l.88.6c.23.14.38.43.38.69v.97c0 .4-.29.74-.7.83l-1.42.28.31 1.23"/>
    <path d="M14.26 6.34l-1.8.6a.89.89 0 00-.57.97l.34 1.6M5.89 9.91V3.4c0-.94-.75-1.69-1.66-1.69-.92 0-1.69.75-1.69 1.69V9.9a2.5 2.5 0 00-.17 3.55 2.5 2.5 0 003.54.17c.55-.49.83-1.15.83-1.86 0-.71-.31-1.4-.85-1.86zm0 0M4.23 4.23v6.71"/>
    <path d="M4.23 10.94a.83.83 0 11-.83.83c-.03-.46.37-.83.83-.83zm0 0"/>
  </g>
</svg>