<svg xmlns="http://www.w3.org/2000/svg" viewBox="0 0 16 16">
  <g fill="none" stroke="#000" stroke-linecap="round" stroke-linejoin="round" stroke-width=".75">
    <path d="M9.71 12.2c0 1.14-.97 2.09-2.14 2.09a2.13 2.13 0 01-2.14-2.1V1.72h4.28zm0 0M11 1.71H4.14M8.23 5.91c.11 0 .23.09.23.2M8 6.11c0-.11.09-.2.23-.2M8.23 6.31c-.12 0-.23-.08-.23-.2M8.43 6.11c0 .12-.09.2-.23.2M6.91 8.43c.12 0 .23.09.23.2M6.71 8.63c0-.11.1-.2.23-.2M6.91 8.83c-.1 0-.22-.09-.22-.2M7.14 8.63c0 .11-.08.2-.23.2M7.77 10.94c.12 0 .23.09.23.2M7.57 11.14c0-.11.09-.2.23-.2M7.77 11.34c-.11 0-.23-.08-.23-.2M8 11.14c0 .12-.09.2-.23.2M9.71 4.23H5.43M2 8.43h1.71M2.86 7.57v1.69M13.14 3.4c.49 0 .86.37.86.83 0 .46-.37.83-.86.83a.84.84 0 01-.85-.83c0-.46.37-.83.85-.83zm0 0"/>
  </g>
</svg>