<svg xmlns="http://www.w3.org/2000/svg" viewBox="0 0 16 16">
  <g fill="none" stroke="#000" stroke-linecap="round" stroke-linejoin="round" stroke-width=".75">
    <path d="M10.26 6.74c.11 0 .2.09.2.2M10.03 6.94c0-.11.08-.2.2-.2M10.26 7.17a.2.2 0 01-.2-.2M10.46 6.94a.2.2 0 01-.2.2M5.34 8.83c.12 0 .2.08.2.2M5.14 9.06c0-.12.09-.2.2-.2M5.34 9.26a.2.2 0 01-.2-.2M5.54 9.06a.2.2 0 01-.2.2M5.74 6.74c.12 0 .2.09.2.2M5.54 6.94c0-.11.09-.2.2-.2M5.74 7.17a.2.2 0 01-.2-.2M5.97 6.94a.2.2 0 01-.2.2M10.66 8.83c.11 0 .2.08.2.2M10.46 9.06c0-.12.08-.2.2-.2M10.66 9.26a.2.2 0 01-.2-.2M10.86 9.06a.2.2 0 01-.2.2"/>
    <path d="M7.17 10.09c0 .91-.74 1.68-1.63 1.68-.91 0-1.63-.74-1.63-1.68V1.7h3.26zm0 0M12.09 10.09c0 .91-.75 1.68-1.63 1.68-.92 0-1.63-.74-1.63-1.68V1.7h3.26zm0 0"/>
    <path d="M13.71 7.17v5.46c0 .91-.74 1.68-1.62 1.68H3.9a1.7 1.7 0 01-1.62-1.7V7.16M2.29 9.26H3.9M7.17 9.26H8.8M12.09 9.26h1.62M3.91 5.06h3.26M8.83 5.06h3.26"/>
  </g>
</svg>