<svg xmlns="http://www.w3.org/2000/svg" viewBox="0 0 16 16">
  <g fill="none" stroke="#000" stroke-linecap="round" stroke-linejoin="round" stroke-width=".75">
    <path d="M9.43 12.89s.68 1.4 1.83 1.28c2.34-.2 2.17-3.28 3.03-4.37a5.18 5.18 0 00-4.63.03c-1.2.69-1.29 1.83-.23 3.06zm0 0M11.09 11.48s-1.52.2-2.57 2.8M10.77 7.57A4.54 4.54 0 007.6 4.4V1.7H5.1V4.4a4.62 4.62 0 00-3.2 5.69 4.62 4.62 0 004.42 3.34M3.8 1.71h5.46M7.8 8c.11 0 .2.09.2.2M7.57 8.2c0-.11.09-.2.2-.2M7.8 8.43a.2.2 0 01-.2-.2M8 8.2a.2.2 0 01-.2.2M4.86 9.69c.11 0 .2.08.2.2M4.66 9.89c0-.12.08-.2.2-.2M4.86 10.09a.2.2 0 01-.2-.2M5.06 9.89a.2.2 0 01-.2.2M5.29 6.74c.1 0 .2.09.2.2M5.06 6.94c0-.11.08-.2.2-.2M5.29 7.17a.2.2 0 01-.2-.2M5.48 6.94a.2.2 0 01-.2.2"/>
  </g>
</svg>