<svg xmlns="http://www.w3.org/2000/svg" viewBox="0 0 16 16">
  <path fill="none" stroke="#000" stroke-linecap="round" stroke-linejoin="round" stroke-width=".75" d="M5.06 7.57a3.35 3.35 0 013.34 3.34 3.37 3.37 0 01-3.34 3.38 3.35 3.35 0 01-3.35-3.35 3.4 3.4 0 013.35-3.37zM3.4 10.94c0-.91.74-1.68 1.69-1.68m6.68-5.86a2.5 2.5 0 012.52 2.51 2.5 2.5 0 01-2.52 2.52 2.5 2.5 0 01-2.51-2.52 2.5 2.5 0 012.51-2.51zm-.83 2.51c0-.45.37-.82.83-.82M4.66 1.71c.68 0 1.25.58 1.25 1.26 0 .69-.57 1.26-1.25 1.26-.69 0-1.26-.57-1.26-1.26 0-.68.54-1.26 1.26-1.26zm3.31 7.55L9.9 7.57m-.42-2.68L5.86 3.34"/>
</svg>