<svg xmlns="http://www.w3.org/2000/svg" viewBox="0 0 16 16">
  <g fill="none" stroke="#000" stroke-linecap="round" stroke-linejoin="round" stroke-width=".75">
    <path d="M8 6.74c.69 0 1.26.57 1.26 1.26 0 .69-.57 1.26-1.26 1.26-.69 0-1.26-.57-1.26-1.26 0-.69.57-1.26 1.26-1.26zm0 0"/>
    <path d="M5.91 5.91c3.29-3.28 6.86-5 8-3.85 1.15 1.14-.57 4.74-3.85 8-3.29 3.28-6.86 5-8 3.85-1.15-1.14.6-4.71 3.85-8zm0 0"/>
    <path d="M2.06 2.06c1.14-1.15 4.74.57 8 3.85 3.28 3.29 5 6.86 3.85 8-1.14 1.15-4.74-.57-8-3.85-3.25-3.29-5-6.83-3.85-8zm0 0"/>
  </g>
</svg>