<svg xmlns="http://www.w3.org/2000/svg" viewBox="0 0 16 16">
  <g fill="none" stroke="#000" stroke-linecap="round" stroke-linejoin="round" stroke-width=".75">
    <path d="M3.97 3.37c.32-1 .8-1.66 1.37-1.66.57 0 1.06.66 1.37 1.66M6.69 8c-.32 1-.8 1.66-1.38 1.66-.57 0-1.02-.63-1.34-1.66"/>
    <path d="M4.52 4.29c1.94-1.1 3.88-1.35 4.34-.58.45.8-.75 2.32-2.69 3.4C4.23 8.2 2.3 8.46 1.83 7.7c-.46-.78.74-2.32 2.69-3.4zm0 0"/>
    <path d="M1.8 3.71c.46-.8 2.4-.54 4.34.58C8.1 5.37 9.3 6.9 8.83 7.69c-.46.8-2.4.54-4.35-.58-1.91-1.08-3.14-2.63-2.68-3.4zm0 0M5.34 5.48c.12 0 .2.09.2.2M5.11 5.69c0-.12.09-.2.2-.2M5.34 5.91a.2.2 0 01-.2-.2M5.54 5.69a.2.2 0 01-.2.2M4.26 14.29v-2.1"/>
    <path d="M7.89 1.71c4.05 0 4.91 3.29 6.37 6.98.08.22-.03.45-.26.54-.06.03-.09.03-.14.03h-1.09v1.68c0 .92-.77 1.69-1.71 1.69h-.86v1.66"/>
  </g>
</svg>