<svg xmlns="http://www.w3.org/2000/svg" viewBox="0 0 16 16">
  <path fill="none" stroke="#000" stroke-linecap="round" stroke-linejoin="round" stroke-width=".75" d="M8 3c.69 0 1.26.57 1.26 1.26 0 .68-.57 1.26-1.26 1.26-.69 0-1.26-.58-1.26-1.26C6.74 3.54 7.31 3 8 3zm3.34 1.66c.69 0 1.26.57 1.26 1.25 0 .7-.57 1.26-1.26 1.26-.68 0-1.25-.57-1.25-1.26 0-.68.57-1.25 1.25-1.25zm0 4.17c.69 0 1.26.57 1.26 1.26 0 .68-.57 1.25-1.26 1.25-.68 0-1.25-.57-1.25-1.25 0-.7.57-1.26 1.25-1.26zM4.66 4.66c.68 0 1.25.57 1.25 1.25 0 .7-.57 1.26-1.25 1.26-.69 0-1.26-.57-1.26-1.26 0-.68.54-1.25 1.26-1.25zm0 4.17c.68 0 1.25.57 1.25 1.26 0 .68-.57 1.25-1.25 1.25-.69 0-1.26-.57-1.26-1.25 0-.7.54-1.26 1.26-1.26zM8 10.52c.69 0 1.26.57 1.26 1.25 0 .69-.57 1.26-1.26 1.26-.69 0-1.26-.57-1.26-1.26 0-.68.57-1.25 1.26-1.25zM1.71 3.4a.83.83 0 010 1.66m4.06.28l1.09-.54m2.28 0l1.09.54m-4.46 5.32l1.12.54m2.22 0l1.12-.54M4.66 7.17v1.69M8 13.03v1.26M8 1.71V3m3.34 4.17v1.69m-7.8-3.55l-1.08-.7m-.75 7.99a.83.83 0 000-1.66m1.83-.25l-1.08.7M14.29 3.4a.83.83 0 000 1.66m-1.83.25l1.08-.7m.75 7.99a.83.83 0 010-1.66m-1.83-.25l1.08.7"/>
</svg>