<svg width="28" height="28" viewBox="0 0 28 28" fill="none" xmlns="http://www.w3.org/2000/svg">
<path d="M9.30435 7.09845V23.6741" stroke="#51247A" stroke-linecap="round" stroke-linejoin="round"/>
<path d="M16.6087 12.3158V2" stroke="#51247A" stroke-linecap="round" stroke-linejoin="round"/>
<path d="M15.5652 19.3222L9.608 23.5775C9.51944 23.6409 9.41326 23.675 9.30435 23.675C9.19544 23.675 9.08926 23.6409 9.0007 23.5775L2.21809 18.7326C2.15056 18.6843 2.09555 18.6206 2.05762 18.5467C2.01969 18.4728 1.99993 18.391 2 18.308V2.89473C2.00011 2.79888 2.02663 2.70491 2.07664 2.62314C2.12665 2.54137 2.19822 2.47496 2.28349 2.43119C2.36877 2.38742 2.46445 2.36798 2.56005 2.37502C2.65564 2.38206 2.74745 2.4153 2.82539 2.47108L9.30435 7.09891L16.305 2.0996C16.3936 2.03622 16.4998 2.00214 16.6087 2.00214C16.7176 2.00214 16.8238 2.03622 16.9123 2.0996L23.695 6.94447C23.7625 6.9928 23.8175 7.05655 23.8554 7.13041C23.8934 7.20428 23.9131 7.28613 23.913 7.36917V12.3184" stroke="#51247A" stroke-linecap="round" stroke-linejoin="round"/>
<path d="M21.8261 14.4028C22.9331 14.4028 23.9947 14.8425 24.7775 15.6253C25.5602 16.408 26 17.4697 26 18.5767C26 20.4351 23.2869 24.0445 22.2351 25.3739C22.1863 25.4356 22.1241 25.4854 22.0533 25.5197C21.9824 25.554 21.9048 25.5718 21.8261 25.5718C21.7474 25.5718 21.6697 25.554 21.5989 25.5197C21.528 25.4854 21.4659 25.4356 21.417 25.3739C20.3652 24.0445 17.6522 20.4351 17.6522 18.5767C17.6522 17.4697 18.0919 16.408 18.8747 15.6253C19.6574 14.8425 20.7191 14.4028 21.8261 14.4028V14.4028Z" stroke="#51247A" stroke-linecap="round" stroke-linejoin="round"/>
<path d="M20.2609 18.5767C20.2609 18.9918 20.4258 19.3899 20.7193 19.6835C21.0128 19.977 21.411 20.1419 21.8261 20.1419C22.2412 20.1419 22.6393 19.977 22.9329 19.6835C23.2264 19.3899 23.3913 18.9918 23.3913 18.5767C23.3913 18.1616 23.2264 17.7635 22.9329 17.4699C22.6393 17.1764 22.2412 17.0115 21.8261 17.0115C21.411 17.0115 21.0128 17.1764 20.7193 17.4699C20.4258 17.7635 20.2609 18.1616 20.2609 18.5767Z" stroke="#51247A" stroke-linecap="round" stroke-linejoin="round"/>
</svg>
