<svg width="10" height="10" viewBox="0 0 10 10" fill="none" xmlns="http://www.w3.org/2000/svg">
<path d="M1 5C1 5.79112 1.2346 6.56448 1.67412 7.22228C2.11365 7.88008 2.73836 8.39277 3.46927 8.69552C4.20017 8.99827 5.00444 9.07748 5.78036 8.92314C6.55628 8.7688 7.26902 8.38784 7.82843 7.82843C8.38784 7.26902 8.7688 6.55628 8.92314 5.78036C9.07748 5.00444 8.99827 4.20017 8.69552 3.46927C8.39277 2.73836 7.88008 2.11365 7.22228 1.67412C6.56448 1.2346 5.79112 1 5 1C3.93951 1.00124 2.92281 1.42306 2.17294 2.17294C1.42306 2.92281 1.00124 3.93951 1 5H1ZM5.569 3.26367L7.069 4.76367C7.13149 4.82618 7.16659 4.91094 7.16659 4.99933C7.16659 5.08772 7.13149 5.17249 7.069 5.235L5.569 6.735C5.50613 6.79572 5.42193 6.82932 5.33453 6.82856C5.24713 6.8278 5.16353 6.79274 5.10173 6.73094C5.03992 6.66914 5.00487 6.58553 5.00411 6.49813C5.00335 6.41073 5.03695 6.32653 5.09767 6.26367L5.88633 5.47467C5.89768 5.46296 5.90534 5.44819 5.90838 5.43217C5.91141 5.41616 5.90968 5.3996 5.9034 5.38456C5.89712 5.36952 5.88657 5.35665 5.87305 5.34754C5.85953 5.33844 5.84363 5.3335 5.82733 5.33333H3C2.91159 5.33333 2.82681 5.29821 2.7643 5.2357C2.70179 5.17319 2.66667 5.0884 2.66667 5C2.66667 4.91159 2.70179 4.82681 2.7643 4.7643C2.82681 4.70179 2.91159 4.66667 3 4.66667H5.82733C5.84384 4.6667 5.85998 4.66182 5.87371 4.65267C5.88744 4.64351 5.89814 4.63049 5.90446 4.61524C5.91078 4.6 5.91243 4.58322 5.90921 4.56703C5.90598 4.55085 5.89802 4.53599 5.88633 4.52433L5.09767 3.735C5.03695 3.67213 5.00335 3.58793 5.00411 3.50053C5.00487 3.41313 5.03992 3.32953 5.10173 3.26773C5.16353 3.20592 5.24713 3.17087 5.33453 3.17011C5.42193 3.16935 5.50613 3.20295 5.569 3.26367V3.26367Z" fill="#51247A"/>
</svg>
