<svg version="1.2"
    xmlns="http://www.w3.org/2000/svg"
    xmlns:xlink="http://www.w3.org/1999/xlink" overflow="visible" preserveAspectRatio="none" viewBox="0 0 28 28" width="28" height="28">
    <g transform="translate(0, 1)">
        <defs>
            <path id="path-15953996134372545" d="M13.200000256299973 18.000000327825546 C13.200000256299973 18.000000327825546 10.000000208616257 21.200000375509262 10.000000208616257 21.200000375509262 C10.000000208616257 21.200000375509262 6.800000160932541 18.000000327825546 6.800000160932541 18.000000327825546"/>
            <path id="path-159547377377162395" d="M13.200000256299973 18.000000327825546 C13.200000256299973 18.000000327825546 10.000000208616257 21.200000375509262 10.000000208616257 21.200000375509262 C10.000000208616257 21.200000375509262 6.800000160932541 18.000000327825546 6.800000160932541 18.000000327825546" vector-effect="non-scaling-stroke"/>
            <path id="path-15953996134372543" d="M17.200000315904617 6.000000149011612 C17.200000315904617 6.000000149011612 14.000000268220901 2.800000101327896 14.000000268220901 2.800000101327896 C14.000000268220901 2.800000101327896 10.800000220537186 6.000000149011612 10.800000220537186 6.000000149011612"/>
            <path id="path-15953996134392549" d="M10.000000208616257 21.200000375509262 C10.000000208616257 21.200000375509262 10.000000208616257 10.000000208616257 10.000000208616257 10.000000208616257"/>
            <path id="path-15953996134382547" d="M14.000000268220901 14.000000268220901 C14.000000268220901 14.000000268220901 14.000000268220901 2.800000101327896 14.000000268220901 2.800000101327896"/>
        </defs>
        <g transform="translate(0,0)">
            <path d="M13.200000256299973 18.000000327825546 C13.200000256299973 18.000000327825546 10.000000208616257 21.200000375509262 10.000000208616257 21.200000375509262 C10.000000208616257 21.200000375509262 6.800000160932541 18.000000327825546 6.800000160932541 18.000000327825546" style="stroke: rgb(81, 36, 122); stroke-width: 1; stroke-linecap: butt; stroke-linejoin: miter; fill: none;"/>
            <path d="M13.200000256299973 18.000000327825546 C13.200000256299973 18.000000327825546 10.000000208616257 21.200000375509262 10.000000208616257 21.200000375509262 C10.000000208616257 21.200000375509262 6.800000160932541 18.000000327825546 6.800000160932541 18.000000327825546" style="stroke: rgb(81, 36, 122); stroke-width: 1; stroke-linecap: butt; stroke-linejoin: miter; fill: none;" vector-effect="non-scaling-stroke"/>
            <path d="M17.200000315904617 6.000000149011612 C17.200000315904617 6.000000149011612 14.000000268220901 2.800000101327896 14.000000268220901 2.800000101327896 C14.000000268220901 2.800000101327896 10.800000220537186 6.000000149011612 10.800000220537186 6.000000149011612" style="stroke: rgb(81, 36, 122); stroke-width: 1; stroke-linecap: butt; stroke-linejoin: miter; fill: none;"/>
            <path d="M10.000000208616257 21.200000375509262 C10.000000208616257 21.200000375509262 10.000000208616257 10.000000208616257 10.000000208616257 10.000000208616257" style="stroke: rgb(81, 36, 122); stroke-width: 1; stroke-linecap: butt; stroke-linejoin: miter; fill: none;"/>
            <path d="M14.000000268220901 14.000000268220901 C14.000000268220901 14.000000268220901 14.000000268220901 2.800000101327896 14.000000268220901 2.800000101327896" style="stroke: rgb(81, 36, 122); stroke-width: 1; stroke-linecap: butt; stroke-linejoin: miter; fill: none;"/>
        </g>
    </g>
</svg>