<svg width="28" height="28" viewBox="0 0 28 28" fill="none" xmlns="http://www.w3.org/2000/svg">
<path d="M22.1818 18.4145C22.6158 18.4145 23.032 18.5869 23.3389 18.8938C23.6458 19.2006 23.8182 19.6169 23.8182 20.0509C23.8182 20.4848 23.6458 20.9011 23.3389 21.2079C23.032 21.5148 22.6158 21.6872 22.1818 21.6872H21.0909C21.5249 21.6872 21.9411 21.8596 22.248 22.1665C22.5549 22.4734 22.7273 22.8896 22.7273 23.3236C22.7273 23.7576 22.5549 24.1738 22.248 24.4807C21.9411 24.7875 21.5249 24.9599 21.0909 24.9599H14C9.63636 24.9599 10.7273 22.7781 2 22.7781V12.9599H5.27273C7.4963 12.8342 9.58625 11.8578 11.1095 10.233C12.6327 8.60826 13.4724 6.45972 13.4545 4.23267C13.4545 2.50794 16.7273 2.28976 16.7273 5.56249C16.56 7.69396 16.1948 9.80524 15.6364 11.869H24.3636C24.7976 11.869 25.2138 12.0414 25.5207 12.3483C25.8276 12.6552 26 13.0714 26 13.5054C26 13.9394 25.8276 14.3556 25.5207 14.6625C25.2138 14.9694 24.7976 15.1418 24.3636 15.1418H23.2727C23.7067 15.1418 24.1229 15.3142 24.4298 15.621C24.7367 15.9279 24.9091 16.3441 24.9091 16.7781C24.9091 17.2121 24.7367 17.6283 24.4298 17.9352C24.1229 18.2421 23.7067 18.4145 23.2727 18.4145H22.1818Z" stroke="#51247A" stroke-linecap="round" stroke-linejoin="round"/>
</svg>
