<svg version="1.2" xmlns="http://www.w3.org/2000/svg" xmlns:xlink="http://www.w3.org/1999/xlink" overflow="visible" preserveAspectRatio="none" viewBox="0 0 17 19.99999" width="17" height="19.99999"><g transform="translate(0, 0)"><g transform="translate(0, 0) rotate(0)"><path style="stroke-width: 0; stroke-linecap: butt; stroke-linejoin: miter; fill: rgb(81, 36, 122);" d="M4.06515,9.21204h0.39581c-0.03187,-0.11924 -0.10949,-0.20748 -0.1979,-0.20748c-0.08841,0 -0.16604,0.088 -0.1979,0.20748zM4.46096,9.4231h-0.39581c0.02827,0.11924 0.10949,0.21106 0.1979,0.21106c0.08841,0 0.16963,-0.09539 0.1979,-0.21106zM4.06515,7.43149h0.39581c-0.03187,-0.11924 -0.10949,-0.20748 -0.1979,-0.20748c-0.08841,0 -0.16604,0.088 -0.1979,0.20748zM4.46096,7.63898h-0.39581c0.02827,0.11924 0.10949,0.20748 0.1979,0.20748c0.08841,0 0.16963,-0.088 0.1979,-0.20748zM9.67879,10.44335c-0.21984,-0.02859 -0.44329,0.00686 -0.6433,0.10207c-0.16666,0.08153 -0.34833,0.1282 -0.53381,0.13713c-0.18656,-0.00941 -0.36931,-0.05605 -0.5374,-0.13713c-0.1989,-0.09495 -0.4212,-0.13041 -0.63995,-0.10207h-1.94069v-0.81276h-0.78107c-0.06709,0.12333 -0.19463,0.20222 -0.33543,0.20748c-0.22199,-0.01997 -0.39702,-0.19661 -0.41401,-0.41783h-0.11668c-0.02831,0.00052 -0.05561,-0.01044 -0.07563,-0.03037c-0.02002,-0.01993 -0.03103,-0.04711 -0.03051,-0.07528c0.00013,-0.05829 0.04757,-0.10552 0.10614,-0.10565h0.11309c0.01652,-0.22143 0.1914,-0.39853 0.41354,-0.41878c0.14107,0.00439 0.26901,0.08353 0.33543,0.20748h0.78131v-1.15452h-0.78083c-0.06709,0.12333 -0.19463,0.20222 -0.33543,0.20748c-0.2224,-0.02005 -0.39758,-0.19734 -0.41401,-0.41902h-0.11309c-0.03908,0.00185 -0.07601,-0.01785 -0.09611,-0.05126c-0.0201,-0.03341 -0.0201,-0.07512 0,-0.10853c0.0201,-0.03341 0.05703,-0.05311 0.09611,-0.05126h0.11309c0.01652,-0.22143 0.1914,-0.39853 0.41354,-0.41878c0.14107,0.00439 0.26901,0.08353 0.33543,0.20748h0.78131v-0.59049l0.42072,-0.23586v3.6312h1.51662c0.27628,-0.03076 0.55566,0.01677 0.80599,0.13713c0.11511,0.06022 0.24144,0.09618 0.37113,0.10565c0.12998,-0.00779 0.25667,-0.04385 0.37113,-0.10565c0.25021,-0.12071 0.5297,-0.16826 0.80599,-0.13713h1.52356v-3.57134l0.42072,0.1865v0.59121h1.01803c0.17374,0 0.31458,0.14019 0.31458,0.31313c0,0.17294 -0.14084,0.31313 -0.31458,0.31313h-1.01779v1.15404h1.01803c0.17374,0 0.31458,0.14019 0.31458,0.31313c0,0.17294 -0.14084,0.31313 -0.31458,0.31313h-1.01803v0.81276h-1.9371zM10.77469,9.65634h-1.09589c-0.33225,-0.03109 -0.6668,0.02723 -0.96867,0.16885v-3.14755c0,-0.31003 0.32177,-0.49605 0.74944,-0.49605c0.62917,0 0.96867,0.20414 1.31512,0.13713zM8.28964,9.81112c-0.30069,-0.1413 -0.634,-0.19962 -0.96508,-0.16885h-1.09589v-3.33667c0.35004,0.06678 0.68571,-0.13713 1.31512,-0.13713c0.42432,0 0.74944,0.1865 0.74944,0.49605v3.14564zM11.19541,11.09895c2.09978,0.33078 3.01526,1.12256 3.60226,2.34695v0v-10.03983v0c-0.58676,1.22439 -1.50248,2.01975 -3.60226,2.34695c0.33231,-2.08295 1.13471,-2.99087 2.36837,-3.57158h-10.12419v0.00358c1.23366,0.58048 2.03653,1.4884 2.36837,3.57158c-2.09978,-0.33078 -3.01526,-1.12256 -3.60226,-2.34695h-0.00335v10.03887h0.00359c0.58676,-1.22439 1.50248,-2.01975 3.60226,-2.34695c-0.33231,2.08295 -1.13471,2.99087 -2.36837,3.57158h10.12395c-1.23725,-0.58405 -2.03653,-1.49197 -2.36837,-3.57492zM16.57928,10.35892c0,3.83535 -3.37585,7.75083 -8.07041,9.20131c-4.7087,-1.44976 -8.08455,-5.36596 -8.08455,-9.20131v-9.94014h16.15496zM17,10.35892v-10.35892h-17v10.35892c0,4.06763 3.5244,8.10713 8.3814,9.60244l0.12363,0.03863l0.12363,-0.03863c4.85006,-1.49889 8.37086,-5.53481 8.37086,-9.60244z" vector-effect="non-scaling-stroke"/></g><defs><path id="path-15959986124582844" d="M4.06515,9.21204h0.39581c-0.03187,-0.11924 -0.10949,-0.20748 -0.1979,-0.20748c-0.08841,0 -0.16604,0.088 -0.1979,0.20748zM4.46096,9.4231h-0.39581c0.02827,0.11924 0.10949,0.21106 0.1979,0.21106c0.08841,0 0.16963,-0.09539 0.1979,-0.21106zM4.06515,7.43149h0.39581c-0.03187,-0.11924 -0.10949,-0.20748 -0.1979,-0.20748c-0.08841,0 -0.16604,0.088 -0.1979,0.20748zM4.46096,7.63898h-0.39581c0.02827,0.11924 0.10949,0.20748 0.1979,0.20748c0.08841,0 0.16963,-0.088 0.1979,-0.20748zM9.67879,10.44335c-0.21984,-0.02859 -0.44329,0.00686 -0.6433,0.10207c-0.16666,0.08153 -0.34833,0.1282 -0.53381,0.13713c-0.18656,-0.00941 -0.36931,-0.05605 -0.5374,-0.13713c-0.1989,-0.09495 -0.4212,-0.13041 -0.63995,-0.10207h-1.94069v-0.81276h-0.78107c-0.06709,0.12333 -0.19463,0.20222 -0.33543,0.20748c-0.22199,-0.01997 -0.39702,-0.19661 -0.41401,-0.41783h-0.11668c-0.02831,0.00052 -0.05561,-0.01044 -0.07563,-0.03037c-0.02002,-0.01993 -0.03103,-0.04711 -0.03051,-0.07528c0.00013,-0.05829 0.04757,-0.10552 0.10614,-0.10565h0.11309c0.01652,-0.22143 0.1914,-0.39853 0.41354,-0.41878c0.14107,0.00439 0.26901,0.08353 0.33543,0.20748h0.78131v-1.15452h-0.78083c-0.06709,0.12333 -0.19463,0.20222 -0.33543,0.20748c-0.2224,-0.02005 -0.39758,-0.19734 -0.41401,-0.41902h-0.11309c-0.03908,0.00185 -0.07601,-0.01785 -0.09611,-0.05126c-0.0201,-0.03341 -0.0201,-0.07512 0,-0.10853c0.0201,-0.03341 0.05703,-0.05311 0.09611,-0.05126h0.11309c0.01652,-0.22143 0.1914,-0.39853 0.41354,-0.41878c0.14107,0.00439 0.26901,0.08353 0.33543,0.20748h0.78131v-0.59049l0.42072,-0.23586v3.6312h1.51662c0.27628,-0.03076 0.55566,0.01677 0.80599,0.13713c0.11511,0.06022 0.24144,0.09618 0.37113,0.10565c0.12998,-0.00779 0.25667,-0.04385 0.37113,-0.10565c0.25021,-0.12071 0.5297,-0.16826 0.80599,-0.13713h1.52356v-3.57134l0.42072,0.1865v0.59121h1.01803c0.17374,0 0.31458,0.14019 0.31458,0.31313c0,0.17294 -0.14084,0.31313 -0.31458,0.31313h-1.01779v1.15404h1.01803c0.17374,0 0.31458,0.14019 0.31458,0.31313c0,0.17294 -0.14084,0.31313 -0.31458,0.31313h-1.01803v0.81276h-1.9371zM10.77469,9.65634h-1.09589c-0.33225,-0.03109 -0.6668,0.02723 -0.96867,0.16885v-3.14755c0,-0.31003 0.32177,-0.49605 0.74944,-0.49605c0.62917,0 0.96867,0.20414 1.31512,0.13713zM8.28964,9.81112c-0.30069,-0.1413 -0.634,-0.19962 -0.96508,-0.16885h-1.09589v-3.33667c0.35004,0.06678 0.68571,-0.13713 1.31512,-0.13713c0.42432,0 0.74944,0.1865 0.74944,0.49605v3.14564zM11.19541,11.09895c2.09978,0.33078 3.01526,1.12256 3.60226,2.34695v0v-10.03983v0c-0.58676,1.22439 -1.50248,2.01975 -3.60226,2.34695c0.33231,-2.08295 1.13471,-2.99087 2.36837,-3.57158h-10.12419v0.00358c1.23366,0.58048 2.03653,1.4884 2.36837,3.57158c-2.09978,-0.33078 -3.01526,-1.12256 -3.60226,-2.34695h-0.00335v10.03887h0.00359c0.58676,-1.22439 1.50248,-2.01975 3.60226,-2.34695c-0.33231,2.08295 -1.13471,2.99087 -2.36837,3.57158h10.12395c-1.23725,-0.58405 -2.03653,-1.49197 -2.36837,-3.57492zM16.57928,10.35892c0,3.83535 -3.37585,7.75083 -8.07041,9.20131c-4.7087,-1.44976 -8.08455,-5.36596 -8.08455,-9.20131v-9.94014h16.15496zM17,10.35892v-10.35892h-17v10.35892c0,4.06763 3.5244,8.10713 8.3814,9.60244l0.12363,0.03863l0.12363,-0.03863c4.85006,-1.49889 8.37086,-5.53481 8.37086,-9.60244z" vector-effect="non-scaling-stroke"/></defs></g></svg>