<svg width="10" height="47" viewBox="0 0 10 47" fill="none" xmlns="http://www.w3.org/2000/svg">
<path d="M5 1C7.20766 1 9 2.79234 9 5C9 7.20766 7.20766 9 5 9C2.79234 9 1 7.20766 1 5C1 2.79234 2.79234 1 5 1Z" stroke="#2EA836"/>
<path fill-rule="evenodd" clip-rule="evenodd" d="M5 15C5.55228 15 6 15.4477 6 16L6 16.005C6 16.5573 5.55228 17.005 5 17.005C4.44772 17.005 4 16.5573 4 16.005L4 16C4 15.4477 4.44772 15 5 15ZM5 18.995C5.55228 18.995 6 19.4427 6 19.995L6 20.005C6 20.5573 5.55229 21.005 5 21.005C4.44772 21.005 4 20.5573 4 20.005L4 19.995C4 19.4427 4.44772 18.995 5 18.995ZM5 22.995C5.55229 22.995 6 23.4427 6 23.995L6 24.005C6 24.5573 5.55229 25.005 5 25.005C4.44772 25.005 4 24.5573 4 24.005L4 23.995C4 23.4427 4.44772 22.995 5 22.995ZM5 26.995C5.55229 26.995 6 27.4427 6 27.995L6 28.005C6 28.5573 5.55229 29.005 5 29.005C4.44772 29.005 4 28.5573 4 28.005L4 27.995C4 27.4427 4.44772 26.995 5 26.995Z" fill="#2EA836"/>
<path d="M5 35C7.20766 35 9 36.7923 9 39C9 41.2077 7 44 5 46C3 44 1 41.2077 1 39C1 36.7923 2.79234 35 5 35Z" stroke="#2EA836"/>
</svg>
