<?xml version="1.0" encoding="utf-8"?>
<!-- Generator: Adobe Illustrator 25.2.0, SVG Export Plug-In . SVG Version: 6.00 Build 0)  -->
<svg version="1.1" id="social-linkedin" xmlns="http://www.w3.org/2000/svg" xmlns:xlink="http://www.w3.org/1999/xlink"
	 x="0px" y="0px" viewBox="0 0 16 16" style="enable-background:new 0 0 16 16;" xml:space="preserve">
<path d="M8,0C3.6,0,0,3.6,0,8s3.6,8,8,8s8-3.6,8-8S12.4,0,8,0z M4.9,3.4c0.5,0,0.9,0.4,0.9,0.9v0c0,0.5-0.4,0.9-0.9,0.9
	C4.4,5.2,4,4.8,4,4.3S4.4,3.4,4.9,3.4z M4,11.5V5.9h1.8l0,5.6H4z M12.6,11.5h-1.8v-3c0-1.8-2.1-1.6-2.1,0v3H6.9V5.9h1.8v0.8
	c0.4-0.6,1.1-1,1.9-1c1.2,0.1,2.1,1.1,2,2.3V11.5z"/>
</svg>
