<?xml version="1.0" encoding="utf-8"?>
<!-- Generator: Adobe Illustrator 25.2.0, SVG Export Plug-In . SVG Version: 6.00 Build 0)  -->
<svg version="1.1" id="social-twitter-circle" xmlns="http://www.w3.org/2000/svg" xmlns:xlink="http://www.w3.org/1999/xlink"
	 x="0px" y="0px" viewBox="0 0 16 16" style="enable-background:new 0 0 16 16;" xml:space="preserve">
<path d="M8,0C3.6,0,0,3.6,0,8s3.6,8,8,8s8-3.6,8-8S12.4,0,8,0z M11.6,6.4v0.2c0,0,0,0.1,0,0.1c-0.1,2.9-2.5,5.2-5.3,5.1
	c-1,0-2-0.3-2.9-0.8c1,0.1,2-0.2,2.8-0.8c-0.8,0-1.5-0.5-1.8-1.3c0.3,0,0.6,0,0.8,0C4.4,8.8,3.8,8,3.8,7.1v0
	c0.3,0.1,0.6,0.2,0.9,0.2C3.8,6.8,3.6,5.7,4.1,4.9c1,1.1,2.4,1.8,3.9,1.9c0-0.2-0.1-0.3,0-0.5c0-1,0.9-1.8,1.9-1.8
	c0.5,0,1,0.2,1.4,0.6c0.4-0.1,0.8-0.2,1.2-0.4c-0.1,0.4-0.4,0.8-0.8,1c0.4,0,0.7-0.1,1.1-0.3C12.3,5.8,12,6.1,11.6,6.4z"/>
</svg>
