<svg xmlns="http://www.w3.org/2000/svg" viewBox="0 0 16 16">
  <path fill-rule="evenodd" clip-rule="evenodd" d="M16 8C16 12.4183 12.4183 16 8 16C3.58172 16 0 12.4183 0 8C0 3.58172 3.58172 0 8 0C12.4183 0 16 3.58172 16 8ZM10.261 6.18935C9.18567 6.24429 8.25167 6.57394 7.49033 7.31173C6.72115 8.05736 6.36796 8.96782 6.46999 10.098C6.38717 10.0873 6.30616 10.0766 6.22647 10.066L6.22594 10.0659C5.898 10.0225 5.59256 9.98202 5.27697 9.95677C5.14354 9.94892 4.98657 9.96462 4.87669 10.0274C4.62099 10.1712 4.37614 10.3259 4.11024 10.4939L4.11021 10.4939L4.11 10.494C3.9842 10.5735 3.85368 10.656 3.71506 10.7417C3.73936 10.6323 3.76065 10.5275 3.78126 10.426L3.78126 10.426C3.82722 10.1997 3.8698 9.99002 3.93483 9.7841C3.99762 9.56433 3.96622 9.4466 3.77 9.30532C2.4671 8.38701 1.92554 7.02132 2.33367 5.61639C2.71042 4.31349 3.63658 3.52861 4.89238 3.11262C6.61127 2.55536 8.54207 3.12047 9.58596 4.48616C9.9627 4.98064 10.1982 5.5379 10.261 6.18935ZM5.30052 5.74982C5.30837 5.49081 5.0886 5.26319 4.82174 5.25534C4.54704 5.24749 4.32727 5.45156 4.31942 5.71842C4.31157 5.98528 4.51564 6.20505 4.79035 6.2129C5.06506 6.22074 5.29267 6.01668 5.30052 5.74982ZM7.89062 5.25534C7.62376 5.26319 7.404 5.48296 7.404 5.74197C7.41185 6.00883 7.63161 6.22074 7.89847 6.2129C8.17318 6.2129 8.37725 6.00098 8.37725 5.72627C8.37725 5.45941 8.15748 5.24749 7.89062 5.25534ZM12.3686 12.7457C12.4706 12.7993 12.5735 12.8534 12.6786 12.8999C12.6697 12.8671 12.663 12.8332 12.6565 12.7999C12.6457 12.7455 12.6353 12.6926 12.6158 12.6487C12.3961 12.2563 12.5216 12.0208 12.8513 11.7226C13.9972 10.7022 14.1071 9.09324 13.1652 7.88452C12.09 6.49529 9.85306 6.16564 8.32254 7.16243C6.60366 8.29266 6.39174 10.3961 7.87516 11.7618C8.66004 12.4839 9.6019 12.7822 10.6615 12.6723C10.8068 12.6591 10.9534 12.6181 11.0991 12.5774C11.2998 12.5213 11.4987 12.4657 11.6897 12.4839C11.922 12.5109 12.1432 12.6272 12.3686 12.7457ZM9.19376 8.75574C9.18591 8.96766 9.01324 9.14033 8.79347 9.14033C8.58155 9.14033 8.40103 8.96766 8.38533 8.75574C8.37748 8.52812 8.56585 8.33975 8.79347 8.33975C9.02108 8.33975 9.20161 8.52812 9.19376 8.75574ZM10.8969 8.72434C10.9048 8.51243 11.0853 8.33975 11.2972 8.33975C11.5249 8.33975 11.6975 8.52812 11.6897 8.75574C11.6818 8.9755 11.5092 9.14033 11.2894 9.14033C11.0618 9.14033 10.8891 8.95196 10.8969 8.72434Z" fill="#000"/>
</svg>
