<?xml version="1.0" encoding="utf-8"?>
<!-- Generator: Adobe Illustrator 25.2.0, SVG Export Plug-In . SVG Version: 6.00 Build 0)  -->
<svg version="1.1" id="social-email" xmlns="http://www.w3.org/2000/svg" xmlns:xlink="http://www.w3.org/1999/xlink"
	 x="0px" y="0px" viewBox="0 0 16 16" style="enable-background:new 0 0 16 16;" xml:space="preserve">
<path d="M8,0C3.6,0,0,3.6,0,8s3.6,8,8,8s8-3.6,8-8S12.4,0,8,0z M3.9,5c0-0.1,0.2-0.1,0.3-0.1h7.6c0.1,0,0.2,0,0.3,0.1
	c0,0.1,0,0.1,0,0.2L8.3,9c0,0,0,0,0,0C8.1,9.2,7.8,9.2,7.7,9L4,5.2C3.9,5.1,3.9,5.1,3.9,5z M12.6,10.3c0,0.4-0.3,0.8-0.8,0.8H4.2
	c-0.4,0-0.8-0.4-0.8-0.8V5.6c0,0,0-0.1,0-0.1c0,0,0.1,0,0.1,0l3.7,3.8c0,0,0,0,0,0c0.4,0.4,1.1,0.4,1.5,0l3.7-3.8c0,0,0.1,0,0.1,0
	c0,0,0,0,0,0.1V10.3z"/>
</svg>
