<svg xmlns="http://www.w3.org/2000/svg" viewBox="0 0 16 16">
  <path fill-rule="evenodd" clip-rule="evenodd" d="M16 8C16 12.4183 12.4183 16 8 16C3.58172 16 0 12.4183 0 8C0 3.58172 3.58172 0 8 0C12.4183 0 16 3.58172 16 8ZM13.9874 5.67943C14.0416 6.34507 13.9255 7.15003 13.4843 7.18873C12.939 7.23563 13.02 6.79391 13.0981 6.36833C13.123 6.23215 13.1477 6.09762 13.1515 5.98129C13.1747 4.59583 11.9982 3.63608 10.8372 3.63608C10.7793 3.63608 10.7074 3.6432 10.6289 3.65098C10.2671 3.68683 9.76656 3.73641 9.86197 3.16394C9.91154 2.88779 10.1295 2.86427 10.3678 2.83856C10.39 2.83617 10.4123 2.83376 10.4347 2.83112C12.3775 2.5757 13.8481 3.91472 13.9874 5.67943ZM11.1917 7.48883C11.06 7.42434 10.9274 7.35944 10.7989 7.28924C10.9847 6.8171 11.1008 6.1979 10.8067 5.83412C10.3246 5.27444 9.40604 5.52807 8.65897 5.73435C8.36257 5.8162 8.09316 5.89059 7.88869 5.90378C8.22151 4.8821 7.84999 3.85269 6.6116 4.16229C5.46608 4.44867 4.62243 5.0756 3.82521 5.87282C2.98929 6.70874 2.13789 7.69171 2.01405 8.96107C1.87473 10.4317 2.79579 11.1747 3.69363 11.6778C6.35618 13.1871 10.6286 12.3512 12.0451 10.3697C12.2386 10.0911 12.4398 9.65767 12.4785 9.33259C12.616 8.18632 11.9166 7.84381 11.1917 7.48883ZM10.4274 9.20101C10.4351 9.74281 10.1642 10.2072 9.89334 10.5091C9.16579 11.345 7.61779 11.8945 6.0698 11.7784C4.73078 11.6933 2.91189 10.9038 3.25245 9.23197C3.40725 8.48893 4.01097 7.99357 4.52954 7.69172C5.16422 7.3202 5.76794 7.13444 6.67352 7.05704C8.32213 6.91772 10.4274 7.53691 10.4274 9.20101ZM12.3472 5.67953C12.4169 6.19037 12.2698 6.63155 11.9757 6.65477C11.6066 6.6782 11.6189 6.47542 11.6366 6.1841C11.6423 6.09059 11.6485 5.98796 11.6429 5.88077C11.6274 5.60987 11.4029 5.30027 11.2094 5.20739C11.0705 5.14217 10.9025 5.1424 10.7453 5.14261C10.4735 5.14298 10.2342 5.14331 10.2342 4.80491C10.2342 4.45712 10.4986 4.4458 10.6938 4.43744C10.7202 4.43631 10.7452 4.43523 10.7683 4.43339C11.6197 4.37921 12.2466 4.95971 12.3472 5.67953ZM4.73108 10.3464C5.4122 12.204 9.13513 11.1978 8.42305 9.03835C8.20633 8.38819 7.47878 7.89283 6.51128 8.00119C5.36576 8.11729 4.27443 9.10801 4.73108 10.3464ZM6.71252 9.40213C6.86732 9.66529 7.21562 9.47953 7.18466 9.27055C7.14596 9.03061 6.70478 9.06931 6.71252 9.40213ZM6.1088 10.5476C6.73574 10.4006 6.82088 9.21637 5.8766 9.44083C5.07939 9.62659 5.23419 10.7566 6.1088 10.5476Z" fill="#000"/>
</svg>
