<svg xmlns="http://www.w3.org/2000/svg" viewBox="0 0 56 56" style="enable-background:new 0 0 56 56" xml:space="preserve"><path d="M28 56c15.5 0 28-12.5 28-28S43.5 0 28 0 0 12.5 0 28s12.5 28 28 28zM10 20.4C10 14.7 14.7 10 20.4 10h15.2C41.3 10 46 14.7 46 20.4v15.2C46 41.3 41.3 46 35.6 46H20.4C14.7 46 10 41.3 10 35.6V20.4zm24.6 8.1c0 3.4-2.9 6.2-6.6 6.2s-6.6-2.8-6.6-6.2c0-3.4 2.9-6.2 6.6-6.2s6.6 2.8 6.6 6.2zm2.7 0c0 4.8-4.2 8.7-9.3 8.7s-9.3-3.9-9.3-8.7c0-4.8 4.2-8.7 9.3-8.7s9.3 3.9 9.3 8.7zm3.2-9.8c0 1.2-1 2.2-2.2 2.2-1.2 0-2.2-1-2.2-2.2s1-2.2 2.2-2.2c1.3 0 2.2 1 2.2 2.2z" style="fill-rule:evenodd;clip-rule:evenodd"/></svg>