<svg xmlns="http://www.w3.org/2000/svg" viewBox="0 0 16 16">
  <path fill="#000" d="M16 8A8 8 0 110 8a8 8 0 0116 0zm0 0"/>
  <path fill="#fff" d="M6.3 11.79a5.22 5.22 0 005.34-5.18v-.24c.36-.26.68-.58.93-.94-.33.14-.7.24-1.08.28.4-.23.69-.58.83-1-.36.2-.77.35-1.2.43a1.9 1.9 0 00-1.36-.57c-1.04 0-1.88.82-1.88 1.82 0 .15.02.29.05.42a5.37 5.37 0 01-3.87-1.9 1.79 1.79 0 00.59 2.42c-.31 0-.6-.09-.85-.22v.02c0 .89.65 1.62 1.5 1.79a2.05 2.05 0 01-.84.03c.24.72.93 1.25 1.75 1.26a3.86 3.86 0 01-2.78.75c.82.53 1.8.83 2.87.83zm0 0"/>
</svg>