<svg xmlns="http://www.w3.org/2000/svg" viewBox="0 0 16 16">
  <path fill-rule="evenodd" clip-rule="evenodd" d="M16 8C16 12.4183 12.4183 16 8 16C3.58172 16 0 12.4183 0 8C0 3.58172 3.58172 0 8 0C12.4183 0 16 3.58172 16 8ZM7.157 7C6.86612 7 6.86612 7.26892 6.86612 7.26892L6.87161 8.49829V8.49845C6.87159 8.51709 6.87015 9.65632 8.0461 9.65632C9.22059 9.65083 9.22608 8.50927 9.22608 8.50927L9.23156 7.26892C9.23156 7.26892 9.23156 7 8.9352 7C8.64432 7 8.64432 7.26344 8.64432 7.26344L8.63883 8.50378C8.64432 8.50927 8.64981 9.08005 8.04061 9.07456C7.4369 9.08005 7.4369 8.48732 7.4369 8.48732L7.45337 7.26892C7.45337 7.26892 7.44788 7.00549 7.157 7ZM5.52699 7.00549H5.5215C5.41722 7.00549 5.31295 7.02195 5.20867 7.04939C5.01109 7.10977 4.819 7.20855 4.6818 7.35674C4.42934 7.58724 4.32506 7.93849 4.33055 8.27328C4.31957 8.54769 4.3525 8.84406 4.50617 9.08005C4.69826 9.40935 5.07146 9.6179 5.45015 9.65632H5.51601H5.53248H5.60382C5.988 9.62339 6.35572 9.41483 6.5478 9.08005C6.70148 8.83857 6.73441 8.54769 6.72343 8.27328C6.72892 7.93849 6.62464 7.58724 6.37218 7.35674C6.23497 7.20307 6.04288 7.10428 5.84531 7.04939C5.74103 7.02195 5.63675 7.00549 5.53248 7.00549H5.52699ZM2.1078 7.00549C1.98706 7.00549 1.86083 7.08232 1.81693 7.20307C1.77302 7.31832 1.81693 7.45553 1.91023 7.54334C2.03011 7.66557 2.15201 7.7868 2.2742 7.90832L2.27422 7.90834L2.27424 7.90836C2.43731 8.07054 2.6009 8.23323 2.76091 8.39951L2.76639 9.35995C2.76639 9.35995 2.76091 9.66181 3.06825 9.66729C3.3701 9.66181 3.37559 9.35995 3.37559 9.35995L3.38108 8.37206L4.24274 7.5159C4.33604 7.43906 4.34152 7.29637 4.3086 7.19209C4.24274 7.01098 3.9793 6.94512 3.84209 7.08232C3.83112 7.08781 3.07374 7.8397 3.07374 7.8397L2.26147 7.06037C2.21757 7.02744 2.16269 7.00549 2.1078 7.00549ZM5.52699 7.59822C5.58187 7.59822 5.63675 7.60371 5.68615 7.62566C5.84531 7.67506 5.98251 7.79031 6.05935 7.93849C6.12986 8.07951 6.11898 8.355 6.1148 8.46093V8.46093C6.11377 8.48692 6.11315 8.5027 6.11423 8.50378C6.11972 8.73429 5.96056 8.93736 5.75201 9.03066C5.68066 9.0581 5.60382 9.07456 5.53248 9.07456C5.45564 9.07456 5.37881 9.0581 5.30746 9.03066C5.0989 8.93736 4.93974 8.73429 4.94523 8.50378C4.94631 8.5027 4.94569 8.48692 4.94467 8.46094V8.46093C4.94048 8.355 4.92961 8.07951 5.00012 7.93849C5.07146 7.79031 5.20867 7.67506 5.36783 7.62566C5.41722 7.60371 5.47211 7.59822 5.52699 7.59822ZM11.1418 7.08251C11.1857 7.03311 11.2516 7.00567 11.312 7.00567C11.4711 7.00018 11.6413 7.1319 11.6193 7.32399C11.6248 7.42278 11.5699 7.49961 11.4986 7.55998C11.3696 7.68622 11.242 7.81246 11.1144 7.93869C10.9868 8.06492 10.8592 8.19114 10.7302 8.31736V8.37225C10.8427 8.48477 10.9566 8.59729 11.0705 8.7098C11.1844 8.8223 11.2983 8.9348 11.4108 9.0473C11.4209 9.05684 11.4315 9.06646 11.4422 9.07621C11.5237 9.15057 11.6138 9.23271 11.6138 9.34916C11.6522 9.55771 11.3833 9.7498 11.1967 9.64004C11.1325 9.60228 11.0813 9.54893 11.0306 9.49609C11.0076 9.47212 10.9847 9.44825 10.9607 9.42599C10.8263 9.29428 10.6945 9.16256 10.5635 9.03152C10.4325 8.90049 10.3021 8.77015 10.1704 8.64117C10.1046 8.5808 10.0387 8.51494 9.99479 8.43811C10.0003 8.43811 9.9893 9.40953 9.9893 9.40953C9.9893 9.40953 9.97832 9.66199 9.68196 9.66199C9.3801 9.66199 9.37461 9.40404 9.37461 9.40404V7.29655C9.37461 7.29655 9.37461 7.01116 9.68744 7.01116C10.0058 7.01116 10.0003 7.29655 10.0003 7.29655V8.25699C10.0051 8.24733 10.0098 8.2375 10.0144 8.22764C10.0363 8.18153 10.0584 8.13497 10.0991 8.10332C10.2341 7.97246 10.3668 7.83997 10.4992 7.70773C10.7111 7.49613 10.9223 7.28516 11.1418 7.08251ZM11.7346 7.28008C11.7346 7.28008 11.7346 7.01116 12.0254 7.01116C12.2834 7.01116 12.3126 7.22269 12.3197 7.27437C12.3206 7.28096 12.3212 7.28495 12.3218 7.28557L12.3163 8.50945C12.3163 8.50945 12.3108 9.0967 12.9145 9.09121C13.5183 9.0967 13.5183 8.52592 13.5128 8.52043V7.28557C13.5128 7.28557 13.5128 7.02214 13.8036 7.02214C14.1 7.02214 14.1 7.28557 14.1 7.28557L14.0945 8.52043C14.0945 8.52043 14.089 9.66199 12.9145 9.66748C11.7386 9.66748 11.74 8.52825 11.7401 8.50961V8.50945L11.7346 7.28008Z" fill="#000"/>
</svg>
