<?xml version="1.0" encoding="UTF-8"?><svg id="Layer_1" xmlns="http://www.w3.org/2000/svg" viewBox="0 0 24 24"><path d="M20.49,3.51C18.23,1.26,15.18,0,12,0c-2.37,0-4.69.7-6.67,2.02C3.36,3.34,1.82,5.22.91,7.41,0,9.6-.23,12.01.23,14.34c.46,2.33,1.61,4.47,3.28,6.14,1.68,1.68,3.82,2.82,6.14,3.28,2.33.46,4.74.23,6.93-.68,2.19-.91,4.07-2.45,5.39-4.42,1.32-1.97,2.02-4.29,2.02-6.67,0-3.18-1.26-6.23-3.51-8.49ZM19.06,10.35c-.89,0-1.77-.2-2.58-.56s-1.54-.89-2.13-1.55v7c0,.93-.27,1.84-.79,2.62-.52.78-1.25,1.38-2.11,1.74-.86.36-1.81.45-2.72.27-.91-.18-1.75-.63-2.41-1.29s-1.11-1.5-1.29-2.41c-.18-.91-.09-1.86.27-2.72.36-.86.96-1.6,1.74-2.11.78-.52,1.69-.79,2.62-.79.16,0,.31.02.47.05v2.41c-.15-.03-.31-.05-.47-.05-.47,0-.93.14-1.32.39s-.69.63-.87,1.06-.23.91-.14,1.37c.09.46.32.88.65,1.21.33.33.75.55,1.21.64.46.09.93.04,1.37-.14.43-.18.8-.49,1.06-.88.26-.39.39-.85.39-1.32V4h2.82l.15.57c.23.91.75,1.72,1.5,2.3s1.65.89,2.59.89v2.59Z"/></svg>