<svg xmlns="http://www.w3.org/2000/svg" viewBox="0 0 16 16">
  <g fill="none" stroke="#000" stroke-linecap="round" stroke-linejoin="round" stroke-width=".75">
    <path d="M2.83 4.23h5.31c.15 0 .29.11.29.29v9.77H2.54V4.52c0-.18.15-.29.29-.29zm0 0"/>
    <path d="M4.52 2.54h1.94c.14 0 .28.12.28.29v1.4H4.23v-1.4c0-.14.11-.29.29-.29zm-.29 3.37h2.51M4.23 7.57h2.51M4.23 9.26h2.51m-2.51 1.68h2.51M4.23 12.6h2.51M5.91 1.71v.83m4.18 11.75h3.34V7.17c0-.23-.2-.43-.43-.43h-2.52c-.22 0-.42.2-.42.43v7.12zm2.51-8.38v.83M1.71 14.29H14.3"/>
  </g>
</svg>