<svg xmlns="http://www.w3.org/2000/svg" viewBox="0 0 16 16">
  <g fill="none" stroke="#000" stroke-linecap="round" stroke-linejoin="round" stroke-width=".75">
    <path d="M3.14 6.57H8c.31 0 .57.26.57.57v7.15h-6V7.14c0-.31.26-.57.57-.57zm0 0"/>
    <path d="M10.29 14.29h3.42v-12a.84.84 0 00-.85-.86H7.7a.84.84 0 00-.85.86v2.57h.85m-5.13 9.43h-.86m12 0h.86M6.86 3.14h2.57M2.57 8.29h1.29m2.14 6H4.29v-1.72c0-.48.37-.86.85-.86.49 0 .86.38.86.86zm0 0"/>
    <path d="M12 14.29h-1.71V11.7c0-.48.37-.85.85-.85.49 0 .86.37.86.85zm0 0"/>
  </g>
</svg>