<svg xmlns="http://www.w3.org/2000/svg" viewBox="0 0 16 16">
  <path fill="none" stroke="#000" stroke-linecap="round" stroke-linejoin="round" stroke-width=".75" d="M2.97 9.26h2.51m-2.51 1.68h2.51M2.97 12.6h2.51M2.97 5.91h2.51M2.97 7.57h2.51m6.29 1.69h.83m-.83 1.68h.83m-.83 1.66h.83m-.83-5.03h.83M2 3.4h4.46c.14 0 .28.12.28.29v10.6H2a.28.28 0 01-.29-.29V3.66c0-.14.12-.26.29-.26zm4.74 5.03h3.35v5.86H6.74zm3.63-3.37H14c.14 0 .29.11.29.28V14a.3.3 0 01-.29.29h-3.91V5.34a.3.3 0 01.28-.28zM3.4 1.71V3.4"/>
</svg>