<svg xmlns="http://www.w3.org/2000/svg" viewBox="0 0 16 16">
  <g fill="none" stroke="#000" stroke-linecap="round" stroke-linejoin="round" stroke-width=".75">
    <path d="M12.6 14.29H7.57a1.69 1.69 0 010-3.38h5.03a1.69 1.69 0 010 3.38zM8 12.4c.11 0 .2.08.2.2m-.4 0c0-.12.09-.2.2-.2m0 .43a.2.2 0 01-.2-.2m.4-.03a.2.2 0 01-.2.2m2.09-.4c.1 0 .2.08.2.2m-.4 0c0-.12.08-.2.2-.2m0 .43a.2.2 0 01-.2-.2m.42-.03a.2.2 0 01-.2.2m2.09-.4c.11 0 .2.08.2.2m-.43 0c0-.12.09-.2.2-.2m.03.43a.2.2 0 01-.2-.2m.4-.03a.2.2 0 01-.2.2"/>
    <path d="M13.46 11.17V8.43a.83.83 0 00-.83-.83h-.83a.83.83 0 01-.83-.83v-.83a.83.83 0 00-.83-.83H7.63a.83.83 0 00-.83.83v5.26m1.63-4.46h.83M3.4 4.63V8"/>
    <path d="M6.74 7.74L2 3.34a.96.96 0 01-.11-1.25.98.98 0 011.25-.23l5.55 3.2M2.29 8h2.23c.3 0 .57.26.57.57v2.23c0 .31-.26.57-.57.57H2.29a.57.57 0 01-.58-.57V8.57c0-.31.26-.57.58-.57zm0 0"/>
  </g>
</svg>