<svg xmlns="http://www.w3.org/2000/svg" viewBox="0 0 16 16">
  <g fill="none" stroke="#000" stroke-linecap="round" stroke-linejoin="round" stroke-width=".75">
    <path d="M1.74 12.71H14.3m-7.56 0H2.57V7.3l4.17-.83zm6.72 0H6.74v-9.2l6.69 2.92v6.28zM8.43 6.23c.11 0 .2.08.2.2m-.4.03c0-.12.08-.2.2-.2m0 .4a.2.2 0 01-.2-.2m.4 0a.2.2 0 01-.2.2"/>
    <path d="M11.77 12.71H8.43V10.2c0-.46.37-.83.83-.83h1.68c.46 0 .83.37.83.83zM1.71 7.46l5.03-1m-.85-3.32l8.4 3.66m-2.52-1.09v-2.2h1.69v2.92"/>
  </g>
</svg>