<svg xmlns="http://www.w3.org/2000/svg" viewBox="0 0 16 16">
  <g fill="none" stroke="#000" stroke-linecap="round" stroke-linejoin="round" stroke-width=".75">
    <path d="M3.43 12.6l-.29 1.69M8 12.6l.29 1.69m-4.26-9.6l-1.46 7.77 1.69.28 1.26-6.6m.37 0l1.25 6.6 1.69-.28L7.4 4.7"/>
    <path d="M7.43 4.43c0 .94-.77 1.71-1.72 1.71-.08 0-.2 0-.28-.03A1.75 1.75 0 014 4.34v-.77c0-.23.2-.43.43-.43H7c.23 0 .43.2.43.43zM5.71 3.14V1.43M10 14.29h2.57c.49 0 .86-.38.86-.86V2.29a.84.84 0 00-.86-.86H10a.84.84 0 00-.86.86v3M11.71 4h1.72m-1.72 2.57h1.72m-1.72 2.57h1.72m-1.72 2.57h1.72"/>
  </g>
</svg>