<svg xmlns="http://www.w3.org/2000/svg" viewBox="0 0 16 16">
  <g fill="none" stroke="#000" stroke-linecap="round" stroke-linejoin="round" stroke-width=".75">
    <path d="M10.4 11.97h-.83m-3.37 0h3.34V6.54c0-.23-.2-.43-.43-.43h-2.5c-.24 0-.44.2-.44.43v5.43zM7.89 8.2h1.68M7.89 9.89h1.68M6.2 11.97h-.83"/>
    <path d="M9.97 3.8h2.09c.46 0 .83.37.83.83v8.8c0 .46-.37.83-.83.83H3.69a.83.83 0 01-.83-.83V4.66c0-.46.37-.83.83-.83h2.08a2.1 2.1 0 014.2-.03zm-2.08-.4c.11 0 .2.08.2.2m-.4 0c0-.12.08-.2.2-.2m0 .4a.2.2 0 01-.2-.2m.4 0a.2.2 0 01-.2.2"/>
  </g>
</svg>