<svg xmlns="http://www.w3.org/2000/svg" viewBox="0 0 16 16">
  <g fill="none" stroke="#000" stroke-linecap="round" stroke-linejoin="round" stroke-width=".75">
    <path d="M3.4 10.94a1.69 1.69 0 110 3.37 1.71 1.71 0 01-1.69-1.7c0-.92.75-1.67 1.69-1.67zm0 0"/>
    <path d="M1.71 12.6V3.4a1.69 1.69 0 013.37 0v9.23"/>
    <path d="M3.4 14.29h10.06c.45 0 .83-.38.83-.83v-8.8a.83.83 0 00-.83-.83h-8.4"/>
    <path d="M8 11.77h3.34V6.31c0-.22-.2-.42-.43-.42H8.4c-.23 0-.43.2-.43.42v5.46zM9.69 8h1.68M9.69 9.69h1.68m.83 2.08h-.83m-3.37 0h-.83"/>
  </g>
</svg>