<svg xmlns="http://www.w3.org/2000/svg" viewBox="0 0 16 16">
  <g fill="none" stroke="#000" stroke-linecap="round" stroke-linejoin="round" stroke-width=".75">
    <path d="M2.83 1.77a.81.81 0 00-1.06.52.87.87 0 00-.06.25v9.63c0 .35.2.63.49.77l2.97 1.26c.2.09.43.09.63.03l4-1.6c.2-.06.4-.06.6 0l2.74 1.08a.83.83 0 001.09-.45c.03-.09.06-.2.06-.32V3.6a.82.82 0 00-.6-.8L10.3 1.77a.66.66 0 00-.45 0L5.7 2.94c-.17.06-.31.03-.48 0zm0 0"/>
    <path d="M3.4 3.8v7.97l2.08.83 4.6-1.69 2.52.83V4.23l-2.5-.83-4.6 1.26zm0 0"/>
    <path d="M3.4 6.83l2.08.83 2.09-.83m1.69-3.2V5.8M3.4 9.34l2.08.77 1.26-.34v2.4m2.52-.94V9.26l.83-.43 2.51.83"/>
  </g>
</svg>