<svg xmlns="http://www.w3.org/2000/svg" viewBox="0 0 16 16">
  <g fill="none" stroke="#000" stroke-linecap="round" stroke-linejoin="round" stroke-width=".75">
    <path d="M5.48 14.29H1.71v-4.6c0-.46.38-.83.83-.83h2.94m5.04-.03h2.94c.45 0 .83.37.83.83v4.63h-3.77m-1.69-2.2a.79.79 0 00-.83-.75.79.79 0 00-.83.75v2.2h1.69v-2.2zM8 5.06V1.7m0 .01h2.23a.3.3 0 01.29.29v1.11c0 .15-.12.29-.29.29H8zm0 5.06a.83.83 0 010 1.66.83.83 0 010-1.66zm0 0"/>
    <path d="M10.52 7.52A2.47 2.47 0 008 5.09a2.49 2.49 0 00-2.52 2.43v6.77h5.04zm-7.12 3h.43M3.4 12.6h.43m8.37-2.08h.43m-.43 2.08h.43"/>
  </g>
</svg>