<svg id="icon_open_doublequote_dark" data-name="icon open doublequote dark" xmlns="http://www.w3.org/2000/svg" viewBox="0 0 32.52 26.37"><defs><style>.cls-1{fill:#643b85;}</style></defs><title>icon-open-doublequote-dark</title><path class="cls-1" d="M14.45,2.92c-1.53.88-2.76,1.63-3.71,2.26A17.67,17.67,0,0,0,7.86,7.69a11.5,11.5,0,0,0-2.1,3.07,13.76,13.76,0,0,0-1,4.13H7.08a7.07,7.07,0,0,1,4.76,1.49,5.44,5.44,0,0,1,1.73,4.37A5.76,5.76,0,0,1,12,24.58a5.31,5.31,0,0,1-4.23,1.79q-4.2,0-6-2.76A12.93,12.93,0,0,1,0,16.38,12.26,12.26,0,0,1,1.37,10.6,20.32,20.32,0,0,1,4.69,6,23.42,23.42,0,0,1,8.94,2.39C10.43,1.41,11.69.62,12.7,0Zm18.07,0C31,3.8,29.75,4.55,28.81,5.18a16.87,16.87,0,0,0-2.88,2.51,11.51,11.51,0,0,0-2.13,3.09,14.44,14.44,0,0,0-1,4.11h2.35a7.1,7.1,0,0,1,4.76,1.49,5.47,5.47,0,0,1,1.73,4.37,5.72,5.72,0,0,1-1.54,3.83,5.27,5.27,0,0,1-4.22,1.79q-4.2,0-6-2.76a13,13,0,0,1-1.8-7.23,12.26,12.26,0,0,1,1.36-5.78A20.32,20.32,0,0,1,22.75,6,23.77,23.77,0,0,1,27,2.39c1.5-1,2.75-1.77,3.76-2.39Z"/></svg>