<svg xmlns="http://www.w3.org/2000/svg" viewBox="0 0 16 16">
  <g fill="none" stroke="#000" stroke-linecap="round" stroke-linejoin="round" stroke-width=".75">
    <path d="M10.09 14.29l-1.63-1.32a.92.92 0 01-.32-.94.9.9 0 011.12-.66c.05.03.11.03.2.06l.65.31V8.83a.83.83 0 011.66 0v1.69l1.12.17c.8.14 1.4.83 1.4 1.65v1.95M7.57 14.29h-4.6c-.68 0-1.26-.58-1.26-1.26V2.97c0-.68.58-1.26 1.26-1.26H8c.69 0 1.26.58 1.26 1.26v3.77M1.71 11.77h5.03"/>
    <path d="M7.57 6.31c0-.22-.2-.42-.43-.42h-.83v-.83c0-.23-.2-.43-.42-.43h-.83c-.23 0-.43.2-.43.43v.83H3.8c-.23 0-.43.2-.43.42v.83c0 .23.2.43.43.43h.83v.83c0 .23.2.43.43.43h.83c.22 0 .42-.2.42-.43v-.83h.83c.23 0 .43-.2.43-.43zm0 0"/>
  </g>
</svg>