<svg xmlns="http://www.w3.org/2000/svg" viewBox="0 0 16 16">
  <g fill="none" stroke="#000" stroke-linecap="round" stroke-linejoin="round" stroke-width=".75">
    <path d="M8.14 9.26h5.57c.32 0 .58.26.58.57v3.88c0 .32-.26.58-.58.58H8.14a.57.57 0 01-.57-.58V9.83c0-.31.26-.57.57-.57zm0 0"/>
    <path d="M10.23 7.57h1.4c.31 0 .57.26.57.57v1.12H9.69V8.14c0-.31.22-.57.54-.57zm0 0M10.94 10.94v1.69M10.09 11.77h1.68M1.71 10.94a3.76 3.76 0 015.26-3.46M3.48 2.86a3.82 3.82 0 004.26.85"/>
    <path d="M5.48 1.71a2.3 2.3 0 11-2.31 2.31 2.3 2.3 0 012.31-2.3zm0 0M5.48 7.17v3.77"/>
  </g>
</svg>