<svg xmlns="http://www.w3.org/2000/svg" viewBox="0 0 16 16">
  <g fill="none" stroke="#000" stroke-linecap="round" stroke-linejoin="round" stroke-width=".75">
    <path d="M10.94 5.34a1.69 1.69 0 010 3.37 1.69 1.69 0 010-3.37zm0 0M14.29 12.03a2.5 2.5 0 00-2.52-2.51h-1.68a2.5 2.5 0 00-2.52 2.5M1.71 13.71H14.3"/>
    <path d="M9.57 6.06L8.4 4.54a4.24 4.24 0 015.12 0l-1.18 1.52M6.31 3.69H5.06V2.43c0-.23-.2-.43-.43-.43H3.8c-.23 0-.43.2-.43.43v1.26H2.14c-.23 0-.43.2-.43.42v.83c0 .23.2.43.43.43H3.4v1.26c0 .23.2.43.43.43h.83c.23 0 .43-.2.43-.43V5.37h1.25c.23 0 .43-.2.43-.43v-.83a.46.46 0 00-.46-.42zm0 0"/>
  </g>
</svg>