<svg xmlns="http://www.w3.org/2000/svg" viewBox="0 0 16 16">
  <g fill="none" stroke="#000" stroke-linecap="round" stroke-linejoin="round" stroke-width=".75">
    <path d="M2.54 10.34V3.7c0-.46.37-.83.83-.83h9.23c.46 0 .83.37.83.83v6.65"/>
    <path d="M9.66 10.34a.4.4 0 00-.35.18c-.54.74-1.57.88-2.31.34a.99.99 0 01-.34-.34.4.4 0 00-.35-.18h-4.6v.83c0 .92.75 1.66 1.69 1.66h9.23c.91 0 1.68-.74 1.68-1.66v-.83zm0 0M10.09 6.2c0-.23-.2-.43-.43-.43h-.83v-.83c0-.23-.2-.42-.43-.42h-.83c-.23 0-.43.2-.43.42v.83h-.83c-.22 0-.42.2-.42.43v.83c0 .23.2.43.42.43h.83v.83c0 .23.2.42.43.42h.83c.23 0 .43-.2.43-.42v-.86h.83c.23 0 .43-.2.43-.43zm0 0"/>
  </g>
</svg>