<svg xmlns="http://www.w3.org/2000/svg" viewBox="0 0 16 16">
  <g fill="none" stroke="#000" stroke-linecap="round" stroke-linejoin="round" stroke-width=".75">
    <path d="M8 1.71c.83 0 1.52.69 1.52 1.49A1.5 1.5 0 018 4.69c-.83 0-1.52-.69-1.52-1.5 0-.8.7-1.48 1.52-1.48zm0 0M9.8 8.34c.57 0 1.06.46 1.09 1.03 0 .11-.03.26-.06.37M8 4.71v9.58"/>
    <path d="M9.37 3.8h4.43c1.51 0-.69 3.6-3.8 2.4M6.63 3.8H2.2C.7 3.8 2.89 7.4 6 6.2M6.2 8.34c-.6 0-1.06.46-1.09 1.06 0 .6.5 1.08 1.09 1.08h2.86c.6 0 1.08.5 1.08 1.09 0 .6-.48 1.06-1.08 1.09H7.09a.89.89 0 00-.9.94 1 1 0 00.3.69"/>
  </g>
</svg>