<svg xmlns="http://www.w3.org/2000/svg" viewBox="0 0 16 16">
  <g fill="none" stroke="#000" stroke-linecap="round" stroke-linejoin="round" stroke-width=".75">
    <path d="M12.6 8.43v-4.2a.83.83 0 00-.83-.83h-1.68M3.4 11.77v1.69c0 .45.37.83.83.83h7.54c.46 0 .83-.38.83-.83v-1.69M5.91 3.4H4.23a.83.83 0 00-.83.83v4.2"/>
    <path d="M1.71 10.09h3.23c.09 0 .15-.06.2-.12L6.11 8c.06-.11.18-.14.29-.09.06.03.08.06.12.12l1.3 3.68c.04.12.15.18.27.15.05-.03.1-.06.1-.12l1.3-2.88c.05-.12.17-.15.28-.12.06.03.09.06.12.09l.57 1.17c.02.06.11.11.2.11h3.63M9.23 2.54A1.24 1.24 0 008 1.71a1.24 1.24 0 00-1.23.83h-.46c-.22 0-.42.2-.42.43v1.69c0 .23.2.43.42.43h3.35c.23 0 .43-.2.43-.43V2.97c0-.23-.2-.43-.43-.43zm0 0"/>
  </g>
</svg>