<svg xmlns="http://www.w3.org/2000/svg" width="16" height="16"><g fill="none" stroke="#000" stroke-width=".75" stroke-linecap="round" stroke-linejoin="round"><path d="M14.285 2.543V13.43a.829.829 0 01-.828.828H2.543a.79.79 0 01-.828-.801V2.543c0-.457.37-.828.828-.828H13.43c.484 0 .855.37.855.828zM5.914 8.43v3.34m0-7.54v1.684"/><path d="M5.914 8.43a1.272 1.272 0 01-1.258-1.258 1.27 1.27 0 011.258-1.258c.688 0 1.258.57 1.258 1.258A1.27 1.27 0 015.914 8.43zm4.172.828V4.23m0 7.54c.684 0 1.258-.57 1.258-1.254a1.27 1.27 0 00-1.258-1.258c-.688 0-1.258.57-1.258 1.258 0 .683.57 1.254 1.258 1.254zm0 0"/></g></svg>