<svg xmlns="http://www.w3.org/2000/svg" width="16" height="16"><g stroke="#000" stroke-width=".75" stroke-linecap="round" stroke-linejoin="round"><path d="M13.457 11.77H7.57l-3.34 2.515V11.77H2.543a.829.829 0 01-.828-.829V2.543c0-.457.37-.828.828-.828H13.43c.484 0 .855.37.855.828v8.371a.835.835 0 01-.828.856zm0 0" fill="none"/><path d="M6.742 5.059A1.69 1.69 0 018.43 3.37c.914 0 1.683.742 1.683 1.688 0 .71-.457 1.34-1.113 1.57a.83.83 0 00-.57.8v.141" fill="none"/><path d="M8.43 9.258c-.118 0-.2.086-.2.199 0 .113.082.2.2.2a.196.196 0 00.199-.2c0-.113-.086-.2-.2-.2zm0 0"/></g></svg>