<svg xmlns="http://www.w3.org/2000/svg" width="16" height="16"><g stroke="#000" stroke-width=".75" stroke-linecap="round" stroke-linejoin="round"><path d="M2.543 3.398H13.43a.83.83 0 01.828.832v9.227a.829.829 0 01-.828.828H2.543a.829.829 0 01-.828-.828V4.23a.83.83 0 01.828-.832zm-.828 3.344h12.57M5.059 4.656V1.715m5.882 2.941V1.715" fill="none"/><path d="M4.43 8.828c-.118 0-.2.086-.2.2 0 .117.082.202.2.202a.196.196 0 00.199-.203c.027-.086-.086-.199-.2-.199zm0 2.942c-.118 0-.2.085-.2.203 0 .113.082.199.2.199a.195.195 0 00.199-.2.196.196 0 00-.2-.202zM8 8.828c-.113 0-.2.086-.2.2 0 .117.087.202.2.202.113 0 .2-.085.2-.203 0-.086-.087-.199-.2-.199zm0 2.942c-.113 0-.2.085-.2.203 0 .113.087.199.2.199.113 0 .2-.086.2-.2a.196.196 0 00-.2-.202zm3.57-2.942a.195.195 0 00-.199.2c0 .117.086.202.2.202a.194.194 0 00.199-.203c0-.086-.083-.199-.2-.199zm0 2.942a.196.196 0 00-.199.203c0 .113.086.199.2.199a.194.194 0 00.199-.2.194.194 0 00-.2-.202zm0 0"/></g></svg>