<svg xmlns="http://www.w3.org/2000/svg" width="16" height="16"><g fill="none" stroke="#000" stroke-width=".75" stroke-linecap="round" stroke-linejoin="round"><path d="M10.164 11.273l-.398 3.118c-.032.214.093.43.336.457a.413.413 0 00.367-.121l1.101-1.102 1.102 1.102a.423.423 0 00.578 0c.094-.09.125-.215.125-.368l-.398-3.148"/><path d="M11.57 7.27c1.254 0 2.293 1.007 2.293 2.23s-1.039 2.23-2.293 2.23c-1.254 0-2.293-.976-2.293-2.23s1.04-2.23 2.293-2.23zm0 0"/><path d="M7.441 13.074H3.773c-.52 0-.918-.394-.918-.883V2.316c0-.492.399-.886.918-.886h6.512c.246 0 .488.09.645.273l1.742 1.711a.839.839 0 01.273.645v1.863"/></g></svg>