<svg width="56" height="56" viewBox="0 0 56 56" fill="none" xmlns="http://www.w3.org/2000/svg">
<path d="M5 27.5C5 33.4674 7.37053 39.1903 11.5901 43.4099C15.8097 47.6295 21.5326 50 27.5 50C33.4674 50 39.1903 47.6295 43.4099 43.4099C47.6295 39.1903 50 33.4674 50 27.5C50 21.5326 47.6295 15.8097 43.4099 11.5901C39.1903 7.37053 33.4674 5 27.5 5C21.5326 5 15.8097 7.37053 11.5901 11.5901C7.37053 15.8097 5 21.5326 5 27.5V27.5Z" stroke="#181818" stroke-width="2" stroke-linecap="round" stroke-linejoin="round"/>
<path d="M18.5 36.5L36.498 18.5" stroke="#181818" stroke-width="2" stroke-linecap="round" stroke-linejoin="round"/>
<path d="M36.5 36.5L18.498 18.5" stroke="#181818" stroke-width="2" stroke-linecap="round" stroke-linejoin="round"/>
</svg>
