<svg width="24" height="24" viewBox="0 0 24 24" fill="none" xmlns="http://www.w3.org/2000/svg">
<path d="M20.1266 18.5453L20.1267 18.5454C20.2165 18.7251 20.259 18.9248 20.25 19.1255C20.2409 19.3263 20.1807 19.5214 20.0751 19.6923C19.9694 19.8632 19.8218 20.0043 19.6463 20.1021C19.4708 20.1999 19.2732 20.2512 19.0722 20.2512H19.072H4.92915H4.92892C4.72799 20.2512 4.53037 20.1999 4.35485 20.1021C4.17932 20.0043 4.03172 19.8632 3.92607 19.6923C3.82042 19.5214 3.76022 19.3263 3.75119 19.1255C3.74216 18.9248 3.78461 18.7251 3.8745 18.5454L3.87454 18.5453L10.946 4.40242L10.9462 4.40206C11.044 4.20615 11.1945 4.04136 11.3807 3.92618C11.5669 3.81101 11.7816 3.75 12.0006 3.75C12.2196 3.75 12.4342 3.81101 12.6205 3.92618C12.8067 4.04136 12.9572 4.20615 13.055 4.40206L13.0552 4.40242L20.1266 18.5453Z" stroke="#181818" stroke-width="1.5"/>
<path d="M12.0005 9L12.0005 13" stroke="#181818" stroke-width="1.5" stroke-linecap="round"/>
<circle cx="11.8998" cy="16.6009" r="1.1" fill="#181818"/>
</svg>
