<svg xmlns="http://www.w3.org/2000/svg" width="16" height="16"><g stroke="#000" stroke-width=".75" stroke-linecap="round" stroke-linejoin="round"><path d="M9.258 10.516h-.43A.829.829 0 018 9.687V7.602c0-.23-.2-.43-.43-.43h-.425" fill="none"/><path d="M7.8 5.059a.194.194 0 00-.198.199c0 .113.085.199.199.199a.195.195 0 00.199-.2.195.195 0 00-.2-.198zm0 0"/><path d="M8 1.715c3.457 0 6.285 2.828 6.285 6.285 0 3.457-2.828 6.285-6.285 6.285-3.457 0-6.285-2.828-6.285-6.285 0-3.457 2.828-6.285 6.285-6.285zm0 0" fill="none"/></g></svg>