<svg width="24px" height="24px" viewBox="0 0 24 24" xmlns="http://www.w3.org/2000/svg">
  <path fill="#51247A" d="M22.3239859,1.67075972 L22.3285869,1.67534804 C23.3990683,2.7521959 24,4.20894082 24,5.72739153 C24,7.24588058 23.3990683,8.70251047 22.3285869,9.77942224 L22.3264142,9.78159498 L17.7050425,14.403139 L17.7028698,14.4051839 C16.9131725,15.190693 15.9123439,15.7297879 14.8219251,15.9570309 C13.7317619,16.1842738 12.5989124,16.0900792 11.5612764,15.6856941 C10.8239785,15.3994038 10.154672,14.962172 9.59604321,14.4022443 C9.18055428,13.9858452 9.1813211,13.3115293 9.59770465,12.8960248 C10.0140882,12.4806482 10.688379,12.4814151 11.103868,12.8978142 C11.4532825,13.2480086 11.8719665,13.5212625 12.3330813,13.7003218 C12.9862846,13.9549157 13.7008335,14.0148577 14.3872657,13.8717125 C15.0731866,13.7286952 15.7028741,13.3897479 16.1999016,12.8957692 L20.8191006,8.27652579 C21.4921135,7.59888679 21.8699004,6.6825021 21.8699004,5.72739153 C21.8699004,4.77279219 21.4926247,3.85699542 20.8202509,3.17949701 C20.1426371,2.50734098 19.2267978,2.13014068 18.2723619,2.13014068 C17.3172869,2.13014068 16.4009364,2.50777553 15.7231948,3.18067285 L11.5516912,7.3523448 C11.1358188,7.76823264 10.4614002,7.76823264 10.0455278,7.3523448 C9.6295277,6.93632916 9.6295277,6.26201317 10.0455278,5.84599753 L14.22061,1.67075972 C15.2976094,0.600621787 16.7540572,0 18.2723619,0 C19.7905387,0 21.2469865,0.600621787 22.3239859,1.67075972 Z" id="Subtract-path"></path>
  <path fill="#51247A" d="M12.2391458,11.7646668 C12.6564239,12.1792765 13.3307148,12.1772316 13.7453091,11.7599379 C14.1599034,11.3426442 14.1577307,10.6683282 13.7405804,10.2537184 C12.6635809,9.18358048 11.2070053,8.58288201 9.68882849,8.58288201 C8.17065165,8.58288201 6.71407606,9.18358048 5.63720443,10.2537184 L1.67359858,14.2174337 L1.67141314,14.2196064 C0.600880566,15.2965182 0,16.7531481 0,18.2716371 C0,19.7901262 0.600880566,21.2468839 1.67141314,22.3236678 L1.6756051,22.3278855 C2.75225946,23.3989181 4.20909066,24 5.72768925,24 C7.2462495,24 8.7030807,23.3989181 9.77969672,22.3278855 L9.78174158,22.3258406 L13.4191548,18.6884196 C13.8350271,18.272404 13.8350271,17.598088 13.4191548,17.1820723 C13.0031546,16.7661845 12.3288638,16.7661845 11.9129914,17.1820723 L8.27660068,20.8185986 C7.59911475,21.49202 6.68276422,21.8699488 5.72768925,21.8699488 C4.77299769,21.8699488 3.85712004,21.4924034 3.17980024,20.8196211 C2.50741366,20.1421099 2.1300485,19.2262365 2.1300485,18.2716371 C2.1300485,17.3165266 2.5078482,16.4001419 3.18095047,15.7225029 L7.13966145,11.7636443 C7.81740299,11.0907342 8.73375352,10.713061 9.68882849,10.713061 C10.6444147,10.713061 11.5612764,11.0911177 12.2391458,11.7646668 Z" id="Subtract-path"></path>
</svg>