<svg viewBox="0 0 16 16" fill="none" xmlns="http://www.w3.org/2000/svg">
<path d="M14.2857 6.78094H7.99944C7.44375 6.78094 6.91082 7.00169 6.51789 7.39463C6.12495 7.78756 5.90421 8.32049 5.90421 8.87618" stroke="black" stroke-width="0.75" stroke-linecap="round" stroke-linejoin="round"/>
<path d="M12.6095 5.1048L14.2857 6.78099L12.6095 8.45718" stroke="black" stroke-width="0.75" stroke-linecap="round" stroke-linejoin="round"/>
<path d="M10.9333 4.26668C10.9333 4.04441 10.845 3.83123 10.6879 3.67406C10.5307 3.51689 10.3175 3.42859 10.0952 3.42859H2.55239C2.33011 3.42859 2.11694 3.51689 1.95977 3.67406C1.80259 3.83123 1.71429 4.04441 1.71429 4.26668V11.8095C1.71429 12.0318 1.80259 12.245 1.95977 12.4022C2.11694 12.5593 2.33011 12.6476 2.55239 12.6476H10.0952C10.3175 12.6476 10.5307 12.5593 10.6879 12.4022C10.845 12.245 10.9333 12.0318 10.9333 11.8095V9.29526" stroke="black" stroke-width="0.75" stroke-linecap="round" stroke-linejoin="round"/>
</svg>
