<svg xmlns="http://www.w3.org/2000/svg" width="16" height="16"><g fill="none" stroke="#000" stroke-width=".75" stroke-linecap="round" stroke-linejoin="round"><path d="M6.742 14.172c-3.398-.715-5.597-4.027-4.887-7.43a6.25 6.25 0 017.403-4.887c2.629.543 4.597 2.688 4.972 5.317"/><path d="M6.484 14.113C5.63 12.855 5.06 10.602 5.06 8c0-2.602.57-4.855 1.425-6.113M1.742 7.57H8.43M2.973 4.23h10.054M2.43 10.941h4.715m2.371-9.054a8.823 8.823 0 011.226 3.597m.602 1.688c.8 0 1.457.656 1.457 1.457 0 .8-.656 1.457-1.457 1.457S9.887 9.43 9.887 8.629c0-.8.656-1.457 1.457-1.457zm0 3.344a2.94 2.94 0 00-2.946 2.941v.828h5.887v-.828a2.936 2.936 0 00-2.941-2.941zm0 0"/></g></svg>