<svg xmlns="http://www.w3.org/2000/svg" width="16" height="16"><g stroke="#000" stroke-width=".75" stroke-linecap="round" stroke-linejoin="round" stroke="#181818"><path d="M10.941 7.57a3.348 3.348 0 013.344 3.344c0 1.856-1.515 3.371-3.344 3.371a3.347 3.347 0 01-3.34-3.344c-.03-1.855 1.485-3.37 3.34-3.37zm0 5.032v-1.688" fill="none"/><path d="M10.941 9.285a.195.195 0 00-.199.2c0 .117.086.202.2.202a.197.197 0 00.203-.203.196.196 0 00-.204-.199zm0 0"/><path d="M7.172 14.23A6.282 6.282 0 011.77 7.172 6.282 6.282 0 018.828 1.77c2.8.375 5 2.574 5.402 5.402" fill="none"/><path d="M6.484 14.113C5.63 12.855 5.06 10.602 5.06 8c0-2.602.57-4.855 1.425-6.113M1.742 7.57h5.43M2.973 4.23h10.054M2.43 10.941h2.882m4.204-9.054c.714 1.226 1.171 2.597 1.285 4" fill="none"/></g></svg>