<svg xmlns="http://www.w3.org/2000/svg" width="16" height="16"><g fill="none" stroke="#000" stroke-width=".75" stroke-linecap="round" stroke-linejoin="round"><path d="M7.914 3.8C9.06 3.8 10 4.743 10 5.888c0 1.14-.941 2.086-2.086 2.086a2.098 2.098 0 01-2.086-2.086C5.801 4.742 6.742 3.8 7.914 3.8zm0 0"/><path d="M7.914 1.715c2.316 0 4.2 1.887 4.2 4.2 0 1.913-2.829 6.687-3.829 8.198-.113.2-.398.258-.57.117a.221.221 0 01-.113-.117C6.543 12.57 3.715 7.801 3.715 5.914a4.21 4.21 0 014.2-4.2zm0 0"/></g></svg>