<svg width="24" height="24" viewBox="0 0 24 24" fill="none" xmlns="http://www.w3.org/2000/svg">
<path d="M22.1554 7.96102L19.8786 12.4701L16.1845 9.15392" stroke="#19151C" stroke-width="1.5" stroke-linecap="round" stroke-linejoin="round"/>
<path d="M19.8787 12.4721L19.711 11.0868C19.5002 9.34463 18.7775 7.70408 17.6344 6.37262C16.4912 5.04117 14.9788 4.0786 13.2886 3.60666C11.5983 3.13472 9.80611 3.17458 8.1385 3.72123C6.47091 4.26788 5.00287 5.29675 3.92002 6.67773C2.83717 8.05871 2.18816 9.72978 2.05503 11.4796C1.92191 13.2295 2.31066 14.9795 3.17213 16.5084C4.0336 18.0373 5.3291 19.2764 6.8948 20.069C8.46049 20.8616 10.2261 21.1722 11.9683 20.9614C13.827 20.7365 17 19.5001 18.5 16.5001" stroke="#19151C" stroke-width="1.5" stroke-linecap="round" stroke-linejoin="round"/>
</svg>