<svg xmlns="http://www.w3.org/2000/svg" width="16" height="16"><path d="M12.484 13.828c.086-.14.172-.371.23-.57.056-.172-.085-.317-.284-.285l-.489.086h-.113L11.602 13c-.204-.059-.403.145-.317.371.145.43.317.914.457.914a.83.83 0 00.742-.457zM9.059 3.059c-.23-.715-.688-.543-1.829-.543-.574 0-.402.714-.773.914-.371.199-1.086-.457-1.312-.118-.204.29-.602 1.258-1.317 1.86-.683.57-1.516.914-2 1.285-.457.973.629 2.2.887 3.371.226 1.172.914 1.172 1.37.715.458-.457 2.571-1.23 3.517-1 .914.227 1.628.715 2.312 1.656.688.946 1.371.715 2.543.457 1.145-.226 1.828-3.054 1.828-4.226 0-1.172-1.371-2.344-1.855-3.285-.258-.489-.43-1.258-.575-1.801-.054-.23-.34-.258-.425-.032-.23.602-.575 1.43-.828 1.801-.344.543-.915.059-1.29-.543a2.08 2.08 0 01-.253-.511zm0 0" stroke="#000" stroke-width=".75" fill="none"/></svg>