<svg xmlns="http://www.w3.org/2000/svg" width="16" height="16"><g fill="none" stroke="#000" stroke-width=".75"><path d="M14 8c0 3.312-2.688 6-6 6a6 6 0 116-6zm0 0"/><path d="M13.355 5.441c-.476.145-1.511.43-1.855.43-.39 0-1.855-1.191-2.867-.527a.789.789 0 00-.344.601c-.047.621.242 1.442 1.64 1.496.094.004.188-.007.282-.02.512-.058 1.258-.019 1.316.474.02.175-.09.335-.129.507-.011.04-.015.078-.02.118-.034.34.118.675.169 1.011.05.297.129.606.238.77.285.43.93 1.27 1.215 1.129m-2.285-8.86c-.098.145-.43.43-1 .43C9 3 8.57 3.145 8.57 3.43c0 .285 0 .57.715.57s.715-.145 1 .145c.285.285.57.285 1 .14.344-.113.906-.43 1.145-.57M5.57 2.43c.145.14.715.312.715.425 0 .145.145.43.43.29.285-.145.715-.29.715 0 0 .285-.575.71-.86 1-.285.285-.715 1.14-1.715 1.285-.988.14-1.285 0-1.285.425 0 .43.715.575.575 1-.145.43-.575.43-.715.29-.145-.145-1-.715-1-1.29M5.145 7.43c-.168-.168-.399-.012-.567.195-.113.14-.223.293-.34.434A1.025 1.025 0 004 8.715c0 .203.172.394.398.558.497.36.973.817.946 1.434a4.394 4.394 0 01-.059.578c-.14.86.145 1.43.57 1.57.43.145.575-.425.575-1 0-.363.058-.554.136-.68.082-.128.215-.21.344-.296C7.754 10.312 8 9.543 8 9.145c0-.43-.57-.29-.715-.29-.14 0-.43-.285-.57-.71-.145-.43-.715-.29-1-.29-.285 0-.285-.14-.57-.425zm0 0"/></g></svg>