<svg xmlns="http://www.w3.org/2000/svg" width="16" height="16"><g fill="none" stroke="#000" stroke-width=".75" stroke-linecap="round" stroke-linejoin="round"><path d="M2.543 1.715H13.43c.484 0 .855.37.855.828V13.43a.829.829 0 01-.828.828H2.543a.79.79 0 01-.828-.801V2.543c0-.457.37-.828.828-.828zm5.887 8.371h3.34m-7.54 0h1.684"/><path d="M8.43 10.086c0 .684-.575 1.258-1.258 1.258a1.27 1.27 0 01-1.258-1.258c0-.688.57-1.258 1.258-1.258.683 0 1.258.57 1.258 1.258zm.828-4.172H4.23m7.54 0c0-.684-.57-1.258-1.254-1.258a1.27 1.27 0 00-1.258 1.258c0 .688.57 1.258 1.258 1.258.683 0 1.254-.57 1.254-1.258zm0 0"/></g></svg>