<svg width="56" height="56" viewBox="0 0 56 56" fill="none" xmlns="http://www.w3.org/2000/svg">
<path d="M16.2666 30.3936L21.0577 37.1931C21.2394 37.4645 21.4834 37.6887 21.7692 37.8468C22.0551 38.005 22.3746 38.0926 22.7011 38.1023C23.0276 38.1121 23.3518 38.0437 23.6466 37.9029C23.9413 37.7621 24.1982 37.5529 24.3958 37.2928L39.7333 17.8878" stroke="#181818" stroke-width="2" stroke-linecap="round" stroke-linejoin="round"/>
<path d="M6 28C6 33.8348 8.31785 39.4305 12.4437 43.5563C16.5695 47.6821 22.1652 50 28 50C33.8348 50 39.4306 47.6821 43.5564 43.5563C47.6822 39.4305 50 33.8348 50 28C50 22.1652 47.6822 16.5695 43.5564 12.4437C39.4306 8.31785 33.8348 6 28 6C22.1652 6 16.5695 8.31785 12.4437 12.4437C8.31785 16.5695 6 22.1652 6 28V28Z" stroke="#181818" stroke-width="2" stroke-linecap="round" stroke-linejoin="round"/>
</svg>
