<svg xmlns="http://www.w3.org/2000/svg" viewBox="0 0 16 16">
  <g fill="none" stroke="#000" stroke-linecap="round" stroke-linejoin="round" stroke-width=".75">
    <path d="M7.57 1.71c.8 0 1.46.66 1.46 1.49s-.66 1.49-1.46 1.49c-.8 0-1.46-.66-1.46-1.5.03-.82.66-1.48 1.46-1.48zm0 0M11 13.8l-1.03-2.09h-2.4a.84.84 0 01-.83-.85V6.63c0-.46.37-.86.83-.86.46 0 .83.37.83.86v3.4h2.08c.32 0 .6.17.75.45l1.25 2.55c.2.43.04.94-.37 1.14A.8.8 0 0111 13.8zm0 0"/>
    <path d="M8.43 13.83c-1.6.94-3.63.37-4.54-1.26A3.46 3.46 0 015.1 7.91"/>
  </g>
</svg>