<svg xmlns="http://www.w3.org/2000/svg" viewBox="0 0 16 16">
  <path fill="none" stroke="#000" stroke-linecap="round" stroke-linejoin="round" stroke-width=".75" d="M5.06 5.91a1.69 1.69 0 11-1.69 1.7 1.7 1.7 0 011.69-1.7zM3.4 14.29V12.6m3.34 1.69V12l1 .8c.66.54 1.63.49 2.23-.11l1.57-1.58a.85.85 0 000-1.17.85.85 0 00-1.17 0L8.8 11.52l-1.09-.86c-.45-.37-1-.55-1.57-.55H4.23a2.5 2.5 0 00-2.52 2.52v1.66M9.26 3.4v1.69m1.68-1.69v1.69m-1.68-.86h1.68m1.66-.83v1.69m.86-3.38H8.43a.83.83 0 00-.83.83V5.9c0 .45.37.82.83.82h.83V8.4l2.08-1.69h2.09c.46 0 .83-.37.83-.82V2.54a.79.79 0 00-.8-.83zm0 0"/>
</svg>