<svg xmlns="http://www.w3.org/2000/svg" viewBox="0 0 16 16">
  <g fill="none" stroke="#000" stroke-linecap="round" stroke-linejoin="round" stroke-width=".75">
    <path d="M3.94 14.29v-3.52a5.29 5.29 0 01-.28-7.4 5.25 5.25 0 013.82-1.66c3.95 0 4.8 3.29 6.2 6.98a.43.43 0 01-.22.54c-.06.03-.09.03-.15.03h-1.05v1.68c0 .92-.74 1.69-1.66 1.69h-.83v1.66"/>
    <path d="M10.6 6.31c0-.22-.2-.42-.43-.42H8.91V4.63c0-.23-.2-.43-.43-.43H6.86c-.23 0-.43.2-.43.43v1.26H5.17c-.23 0-.43.2-.43.42V8c0 .23.2.43.43.43h1.26v1.26c0 .22.2.42.43.42h1.66c.22 0 .42-.2.42-.42V8.43h1.26c.23 0 .43-.2.43-.43V6.31zm0 0"/>
  </g>
</svg>