<svg xmlns="http://www.w3.org/2000/svg" viewBox="0 0 16 16">
  <path fill="none" stroke="#000" stroke-linecap="round" stroke-linejoin="round" stroke-width=".75" d="M8 9.26h5.86c.23 0 .43.2.43.43v4.2c0 .22-.2.42-.43.42H8a.44.44 0 01-.43-.42v-4.2c0-.23.2-.43.43-.43zm-.43 1.68h6.72m-3.35 0v.83m.4-4.2h-.82a.83.83 0 00-.83.83v.83h2.5V8.4a.83.83 0 00-.85-.83zM4.23 1.71a1.69 1.69 0 110 3.38 1.69 1.69 0 010-3.38zm2.2 5.49A2.53 2.53 0 003 6.2a2.57 2.57 0 00-1.29 2.23v1.68h.83l.43 4.18h2.51l.29-2.86"/>
</svg>