<svg xmlns="http://www.w3.org/2000/svg" viewBox="0 0 16 16">
  <g fill="none" stroke="#000" stroke-linecap="round" stroke-linejoin="round" stroke-width=".75">
    <path d="M13.66 10.06H2.34a.41.41 0 01-.4-.32l-.2-.85a.43.43 0 01.32-.52H13.9c.23 0 .43.2.43.43v.11l-.2.86c-.11.14-.28.29-.48.29zm0 0M2.97 10.06l-.83 4.23M13.03 10.06l.83 4.23M9.26 8.37c0-.94.74-1.68 1.68-1.68.92 0 1.69.77 1.69 1.68M9.69 2.43c.68 0 1.25.57 1.25 1.26v2.97"/>
    <path d="M7.34 2.03c.77-.55 1.8-.34 2.35.43a1.7 1.7 0 01-.43 2.34zm0 0M7.14 8.37H3.4a.83.83 0 01-.83-.85c0-.46.37-.86.83-.86h3.74M6.31 6.66v1.68"/>
    <path d="M7.14 6.66H3.4a.83.83 0 01-.83-.86c0-.46.37-.86.83-.86h3.74M6.31 4.97v1.69"/>
  </g>
</svg>