<svg xmlns="http://www.w3.org/2000/svg" viewBox="0 0 16 16">
  <g fill="none" stroke="#000" stroke-linecap="round" stroke-linejoin="round" stroke-width=".75">
    <path d="M13.46 5.06L12.2 6.3l-1.26-1.25"/>
    <path d="M9.26 2.97h1.26c.91 0 1.68.74 1.68 1.69v1.68M2.54 10.94L3.8 9.7l1.26 1.25"/>
    <path d="M6.74 13.03H5.48c-.91 0-1.68-.74-1.68-1.69V9.66M9.4 8h4.31c.32 0 .58.26.58.57v4.34c0 .32-.26.57-.58.57H9.4a.57.57 0 01-.57-.57V8.57c0-.31.26-.57.57-.57zm0 0M9.69 13.46v.83M13.46 13.46v.83M8.83 10.52h5.46M10.31 11.77c.12 0 .2.09.2.2M10.09 11.97c0-.11.08-.2.2-.2M10.31 12.2a.2.2 0 01-.2-.2M10.52 11.97a.2.2 0 01-.2.2M12.83 11.77c.11 0 .2.09.2.2M12.6 11.97c0-.11.09-.2.2-.2M12.83 12.2a.2.2 0 01-.2-.2M13.03 11.97a.2.2 0 01-.2.2M2.29 1.71h4.34c.31 0 .57.26.57.58v4.34c0 .31-.26.57-.57.57H2.29a.57.57 0 01-.58-.57V2.29c0-.32.26-.58.58-.58zm0 0M2.54 7.17V8M6.31 7.17V8M1.71 4.23h5.46M3.17 5.48c.12 0 .2.09.2.2M2.97 5.69c0-.12.09-.2.2-.2M3.17 5.91a.2.2 0 01-.2-.2M3.4 5.69a.2.2 0 01-.2.2M5.69 5.48c.11 0 .2.09.2.2M5.48 5.69c0-.12.09-.2.2-.2M5.69 5.91a.2.2 0 01-.2-.2M5.91 5.69a.2.2 0 01-.2.2"/>
  </g>
</svg>