<svg viewBox="0 0 32 32" fill="none" xmlns="http://www.w3.org/2000/svg"><path d="M5 24.147a3.853 3.853 0 107.705 0 3.853 3.853 0 00-7.705 0v0zM19.448 24.147a3.853 3.853 0 107.706 0 3.853 3.853 0 00-7.706 0v0z" stroke="#51247A" stroke-width="1.33" stroke-linecap="round" stroke-linejoin="round"/><path d="M15.114 24.147l5.475-7.364-7.402 2.548-3.61 4.013a.481.481 0 00.358.804h5.179l-3.13-7.706" stroke="#51247A" stroke-width="1.33" stroke-linecap="round" stroke-linejoin="round"/><path d="M23.301 24.147L20.116 15.5a.482.482 0 01.335-.632l1.405-.353M10.78 16.442h2.889M5 13.772l10.428-9.52a.963.963 0 011.298 0l10.428 9.52" stroke="#51247A" stroke-width="1.33" stroke-linecap="round" stroke-linejoin="round"/></svg>