<svg viewBox="0 0 32 32" fill="none" xmlns="http://www.w3.org/2000/svg"><path d="M12.174 17.53h7.285M12.174 18.57l2.064 3.123M17.322 21.693l2.137-3.123M13.215 6.602a2.602 2.602 0 105.204 0 2.602 2.602 0 00-5.204 0v0zM24.134 16.017l-2.707-3.097a4.684 4.684 0 00-3.524-1.598h-4.311a4.683 4.683 0 00-3.525 1.598L7.36 16.017a1.561 1.561 0 002.348 2.057l2.467-2.82v4.087l-1.466 1.465a3.623 3.623 0 00-.223 4.907l1.384 1.665a1.561 1.561 0 002.394-1.999l-1.385-1.665a.52.52 0 01.032-.702l1.326-1.316h3.084l1.32 1.32a.52.52 0 01.033.702l-1.386 1.665a1.562 1.562 0 102.394 2l1.386-1.666a3.624 3.624 0 00-.224-4.907l-1.39-1.39v-4.002l2.326 2.656a1.561 1.561 0 102.35-2.057h.003z" stroke="#51247A" stroke-width="1.33" stroke-linecap="round" stroke-linejoin="round"/></svg>