<svg viewBox="0 0 32 32" fill="none" xmlns="http://www.w3.org/2000/svg"><path d="M15.86 13.133L4.68 24.295a2.202 2.202 0 00-.312 2.81 2.124 2.124 0 003.234.273s11.253-11.253 11.243-11.26a6.37 6.37 0 008.824-7.698.538.538 0 00-.89-.219l-4.232 4.232a.53.53 0 01-.45.15l-1.97-.28a.53.53 0 01-.45-.452l-.283-1.97a.531.531 0 01.15-.45l4.232-4.233a.536.536 0 00-.22-.89 6.37 6.37 0 00-7.696 8.825v0z" stroke="#51247A" stroke-width="1.33" stroke-linecap="round" stroke-linejoin="round"/><path d="M6.663 25.313a.265.265 0 11-.375.376.265.265 0 01.375-.376" stroke="#51247A" stroke-width="1.33" stroke-linecap="round" stroke-linejoin="round"/></svg>