<svg viewBox="0 0 32 32" fill="none" xmlns="http://www.w3.org/2000/svg"><path d="M6.087 10.13l.03-1.043A1.06 1.06 0 017.13 8.043h.985a1.114 1.114 0 011.102 1.044v1.043" stroke="#51247A" stroke-width="1.33" stroke-linecap="round" stroke-linejoin="round"/><path d="M24.483 10.13a1.043 1.043 0 01-.945-.602C22.972 8.317 22.365 7 21.218 7H16c-.972 0-1.46.87-2.817 2.705a1.043 1.043 0 01-.835.425H6.087C4.522 10.13 4 10.84 4 11.928v10.84c0 1.088.522 1.971 2.145 1.971h19.71c1.623 0 2.145-.883 2.145-1.971v-10.84c0-1.089-.522-1.798-2.145-1.798h-1.372z" stroke="#51247A" stroke-width="1.33" stroke-linecap="round" stroke-linejoin="round"/><path d="M12.87 16.913a5.74 5.74 0 1011.478 0 5.74 5.74 0 00-11.478 0z" stroke="#51247A" stroke-width="1.33" stroke-linecap="round" stroke-linejoin="round"/><path d="M15.478 16.913a3.13 3.13 0 106.262 0 3.13 3.13 0 00-6.262 0zM6.087 13.783a1.565 1.565 0 103.13 0 1.565 1.565 0 00-3.13 0z" stroke="#51247A" stroke-width="1.33" stroke-linecap="round" stroke-linejoin="round"/></svg>