<svg xmlns="http://www.w3.org/2000/svg" viewBox="0 0 16 16">
  <g fill="none" stroke="#000" stroke-linecap="round" stroke-linejoin="round" stroke-width=".75">
    <path d="M8 5.07a4.6 4.6 0 110 9.21 4.6 4.6 0 010-9.21zm0 0"/>
    <path d="M8.3 7.05L9 8.42h1.18c.18 0 .33.13.34.32 0 .09-.04.17-.1.24l-1.1 1.07.61 1.4a.33.33 0 01-.47.4L8 11.03l-1.46.82a.33.33 0 01-.47-.41l.6-1.39-1.09-1.07a.32.32 0 010-.46.3.3 0 01.24-.1H7l.7-1.38a.33.33 0 01.45-.13c.06.03.1.07.14.14zm0 0M5.9 1.71l.95 3.5M3.98 7.42l-2.27-5.7M10.1 1.71l-.95 3.5M12.02 7.42l2.27-5.7"/>
  </g>
</svg>