<svg xmlns="http://www.w3.org/2000/svg" viewBox="0 0 16 16">
  <g fill="none" stroke="#000" stroke-linecap="round" stroke-linejoin="round" stroke-width=".75">
    <path d="M8.04 5.07a4.61 4.61 0 110 9.22 4.61 4.61 0 010-9.22zm0 0"/>
    <path d="M8.34 7.05l.7 1.37h1.18c.18 0 .33.13.33.32 0 .09-.03.17-.1.24l-1.09 1.07.6 1.4a.33.33 0 01-.46.4l-1.46-.82-1.46.82a.33.33 0 01-.47-.41l.6-1.39-1.09-1.07a.33.33 0 010-.46c.06-.07.15-.1.24-.1h1.18l.7-1.38a.33.33 0 01.46-.13c.05.03.1.07.14.14zm0 0M10.97 6.12l1.68-4.4H3.43l1.68 4.4M7 5.19L6.35 1.7M9.08 5.19l.63-3.48"/>
  </g>
</svg>