<svg xmlns="http://www.w3.org/2000/svg" viewBox="0 0 16 16">
  <g fill="none" stroke="#000" stroke-linecap="round" stroke-linejoin="round" stroke-width=".75">
    <path d="M8.04 1.71a4.61 4.61 0 110 9.23 4.61 4.61 0 010-9.23zm0 0"/>
    <path d="M10.13 10.43l.84 3.86-2.93-1.68-2.93 1.68.83-3.86M8.34 3.7l.7 1.37h1.18c.18 0 .33.13.33.31 0 .1-.03.18-.1.24L9.36 6.7l.6 1.39c.08.16 0 .36-.17.43-.1.03-.2.03-.29-.02l-1.46-.82-1.46.82a.33.33 0 01-.45-.12.32.32 0 01-.02-.3l.6-1.38-1.09-1.08a.32.32 0 010-.46c.06-.06.15-.1.24-.1h1.18l.7-1.37a.34.34 0 01.6 0zm0 0"/>
  </g>
</svg>