<svg xmlns="http://www.w3.org/2000/svg" viewBox="0 0 16 16">
  <path fill="none" stroke="#000" stroke-linecap="round" stroke-linejoin="round" stroke-width=".75" d="M8.34 1.93l.82 1.46h1.38c.21 0 .39.16.39.37 0 .1-.04.2-.11.28L9.54 5.43l.71 1.62c.08.2-.01.42-.2.5a.38.38 0 01-.35-.02L8 6.57l-1.7.96a.38.38 0 01-.53-.14.4.4 0 01-.02-.34l.7-1.62-1.27-1.4a.38.38 0 010-.53.38.38 0 01.27-.1h1.39l.81-1.47c.1-.2.33-.27.52-.17.08.03.13.1.17.17zm.5 10.27v2.09h2.1m-.42-4.19v2.1h2.09m-.41-3.78v2.1h2.09m-2.09 0l1.67-1.68M7.16 12.2v2.09h-2.1m.42-4.19v2.1H3.4m.4-3.78v2.1H1.72m2.08 0L2.14 8.84"/>
</svg>