<svg xmlns="http://www.w3.org/2000/svg" viewBox="0 0 16 16">
  <g fill="none" stroke="#000" stroke-linecap="round" stroke-linejoin="round" stroke-width=".75">
    <path d="M8.3 4.11L9 5.48h1.18a.33.33 0 01.24.56l-1.1 1.08.61 1.38a.33.33 0 01-.47.41L8 8.1l-1.46.83a.33.33 0 01-.47-.42l.6-1.38-1.09-1.08a.32.32 0 010-.45c.06-.07.15-.1.24-.1H7l.7-1.38a.34.34 0 01.59 0zm0 0M3.93 8.64l-2.22 2.71 2.1.42.84 2.52 2.23-3.54M12.07 8.64l2.22 2.71-2.1.42-.84 2.52-2.23-3.54"/>
    <path d="M8.26 1.8l1.04.84 1.32-.07c.2 0 .37.12.42.3l.35 1.29 1.11.73c.17.1.23.31.16.5l-.47 1.23.47 1.24c.07.19 0 .4-.16.5l-1.1.73-.36 1.28a.41.41 0 01-.42.3l-1.32-.06-1.04.83a.41.41 0 01-.52 0l-1.03-.83-1.33.07a.42.42 0 01-.42-.31L4.6 9.09 3.5 8.36a.41.41 0 01-.16-.5l.47-1.24-.47-1.23c-.07-.2 0-.4.16-.5l1.1-.73.36-1.29a.42.42 0 01.42-.3l1.33.07 1.03-.83a.41.41 0 01.52 0zm0 0"/>
  </g>
</svg>