<svg xmlns="http://www.w3.org/2000/svg" viewBox="0 0 16 16">
  <g fill="none" stroke="#000" stroke-linecap="round" stroke-linejoin="round" stroke-width=".75">
    <path d="M11.35 4.23L8.3 7.29a.42.42 0 01-.6 0l-.96-.97M3.93 8.64l-2.22 2.71 2.1.42.84 2.52 2.23-3.54M12.07 8.64l2.22 2.71-2.1.42-.84 2.52-2.23-3.54"/>
    <path d="M12.2 6.62l.46 1.24c.07.19 0 .4-.16.5l-1.1.73-.36 1.28a.41.41 0 01-.42.3l-1.32-.06-1.04.83a.41.41 0 01-.52 0l-1.04-.83-1.32.07a.42.42 0 01-.42-.31L4.6 9.09 3.5 8.36a.41.41 0 01-.16-.5l.47-1.24-.47-1.23c-.07-.2 0-.4.16-.5l1.1-.73.36-1.29a.42.42 0 01.42-.3l1.32.07 1.04-.83a.41.41 0 01.52 0l1.04.83"/>
  </g>
</svg>