<svg width="28" height="28" viewBox="0 0 28 28" fill="none" xmlns="http://www.w3.org/2000/svg">
<path d="M25 15.0793C25 20.7925 20.0683 25.5241 14.6107 27.2106L14.0042 27.4002C14.0042 27.4002 13.3987 27.2106 13.405 27.2127C7.30845 25.3356 3 20.1661 3 15.0605V2H24.9979L25 15.0793Z" fill="white"/>
<path d="M9.0803 13.7884H9.51921C9.48464 13.6564 9.3977 13.558 9.30028 13.558C9.20181 13.558 9.11592 13.6554 9.0803 13.7884ZM9.51921 14.022H9.0803C9.11173 14.1551 9.20181 14.2567 9.30028 14.2567C9.3977 14.2567 9.48779 14.1509 9.51921 14.022ZM9.0803 11.8139H9.51921C9.48464 11.6808 9.3977 11.5834 9.30028 11.5834C9.20181 11.5834 9.11592 11.6808 9.0803 11.8139ZM9.51921 12.0433H9.0803C9.11173 12.1763 9.20181 12.2737 9.30028 12.2737C9.3977 12.2737 9.48779 12.1763 9.51921 12.0433ZM15.3068 15.1544C15.0627 15.1219 14.8155 15.1617 14.5934 15.2675C14.409 15.3576 14.2069 15.41 14.0015 15.4194C13.7941 15.4089 13.592 15.3576 13.4055 15.2675C13.1845 15.1617 12.9383 15.123 12.6953 15.1544H10.5426V14.2525H9.67634C9.60197 14.3897 9.46055 14.4766 9.30447 14.4829C9.0583 14.4609 8.86451 14.265 8.84566 14.0189H8.71576C8.68434 14.0199 8.65396 14.0074 8.63196 13.9854C8.60996 13.9634 8.59739 13.933 8.59844 13.9026C8.59844 13.8377 8.65082 13.7853 8.71576 13.7853H8.84147C8.85927 13.5391 9.05411 13.3432 9.30028 13.3202C9.45636 13.3254 9.59882 13.4134 9.67215 13.5506H10.5384V12.2706H9.6732C9.59777 12.4067 9.45636 12.4947 9.30028 12.5C9.05411 12.478 8.85927 12.281 8.84147 12.0359H8.71576C8.67282 12.038 8.63196 12.016 8.60892 11.9783C8.58692 11.9416 8.58692 11.8956 8.60892 11.8578C8.63196 11.8212 8.67282 11.7992 8.71576 11.8013H8.84147C8.85927 11.5562 9.05411 11.3592 9.30028 11.3372C9.45636 11.3414 9.59882 11.4294 9.67215 11.5666H10.5384V10.9119L11.0056 10.6501V14.6778H12.688C12.9938 14.6442 13.3039 14.6966 13.5815 14.8297C13.7093 14.8967 13.8497 14.9365 13.9932 14.947C14.1377 14.9386 14.2781 14.8988 14.4048 14.8297C14.6824 14.6966 14.9925 14.6432 15.2984 14.6778H16.9891V10.7171L17.4552 10.9235V11.5792H18.5844C18.7772 11.5792 18.9333 11.7353 18.9333 11.927C18.9333 12.1187 18.7772 12.2737 18.5844 12.2737H17.4552V13.5538H18.5844C18.7772 13.5538 18.9333 13.7099 18.9333 13.9016C18.9333 14.0933 18.7772 14.2483 18.5844 14.2483H17.4552V15.1502H15.3068V15.1544ZM16.5229 14.2808H15.3068C14.938 14.2462 14.5672 14.3111 14.233 14.4683V10.9769C14.233 10.6333 14.5892 10.4269 15.0637 10.4269C15.7614 10.4269 16.1385 10.6532 16.5229 10.5788V14.2808ZM13.7659 14.4526C13.4327 14.2965 13.063 14.2315 12.6953 14.2661H11.4802V10.5652C11.8688 10.6385 12.2407 10.4123 12.9394 10.4123C13.4097 10.4123 13.77 10.6197 13.77 10.9633V14.4515L13.7659 14.4526ZM16.9891 15.8814C19.3177 16.248 20.3338 17.1258 20.9843 18.4845V7.34828C20.3338 8.70691 19.3177 9.58892 16.9891 9.95136C17.3578 7.64158 18.2471 6.63492 19.6162 5.99069H8.38684V5.99488C9.7549 6.63806 10.6453 7.64577 11.014 9.95555C8.68434 9.58892 7.66929 8.7111 7.01774 7.35247H7.01459V18.4876H7.01878C7.66929 17.129 8.68539 16.247 11.014 15.8845C10.6453 18.1943 9.7549 19.201 8.38684 19.8452H19.6162C18.244 19.1978 17.3568 18.1901 16.9891 15.8803V15.8814ZM22.961 15.0601C22.961 19.3141 19.2161 23.6571 14.0089 25.2661C8.78699 23.6582 5.04211 19.3141 5.04211 15.0601V4.03497H22.961V15.0601ZM23.4271 15.0601V3.57092H4.57178V15.0601C4.57178 19.5718 8.48112 24.052 13.8675 25.7113L14.0047 25.7542L14.1419 25.7113C19.522 24.0489 23.4271 19.5718 23.4271 15.0601Z" fill="#51247A"/>
</svg>
