<svg viewBox="0 0 32 32" fill="none" xmlns="http://www.w3.org/2000/svg"><path d="M22.436 14.26h4.52A1.044 1.044 0 0028 13.218V9.043A1.043 1.043 0 0026.956 8H5.043A1.043 1.043 0 004 9.043v4.174a1.043 1.043 0 001.043 1.044h4.53" stroke="#51247A" stroke-width="1.33" stroke-linecap="round" stroke-linejoin="round"/><path d="M23.826 22.08a.523.523 0 01-.522.529H8.703a.522.522 0 01-.522-.528c.057-4.544.855-6.568 2.602-10.95h10.434c1.757 4.382 2.554 6.407 2.61 10.95zM9.222 24.696h13.565M7.656 11.13h17.74M16.004 13.74v-1.044" stroke="#51247A" stroke-width="1.33" stroke-linecap="round" stroke-linejoin="round"/><path d="M17.565 13.74h-2.117a1.4 1.4 0 00-.522 2.699l2.154.861a1.4 1.4 0 01-.522 2.7h-2.123M16.004 21.044V20" stroke="#51247A" stroke-width="1.33" stroke-linecap="round" stroke-linejoin="round"/></svg>