<svg viewBox="0 0 32 32" fill="none" xmlns="http://www.w3.org/2000/svg"><path d="M17.044 7.609a2.609 2.609 0 105.217 0 2.609 2.609 0 00-5.217 0v0zM16 25.609a1.565 1.565 0 01-1.529-1.904 5.491 5.491 0 00-2.295-5.723l-.693-.462a1.564 1.564 0 01-.313-2.333l3.652-4.175a1.566 1.566 0 012.4.054 5.358 5.358 0 004.204 2.021h.313a1.566 1.566 0 010 3.13h-.313a8.473 8.473 0 01-5.349-1.886l-1.412 1.614a8.649 8.649 0 012.862 8.438A1.565 1.565 0 0116 25.609zM4 23.26a4.174 4.174 0 108.348 0 4.174 4.174 0 00-8.348 0v0zM19.652 23.26a4.174 4.174 0 108.348 0 4.174 4.174 0 00-8.348 0v0z" stroke="#51247A" stroke-width="1.33" stroke-linecap="round" stroke-linejoin="round"/></svg>