<svg viewBox="0 0 32 32" fill="none" xmlns="http://www.w3.org/2000/svg"><path d="M4 6h24v16.696H4V6zM6.087 25.826v-3.13M25.913 25.826v-3.13" stroke="#51247A" stroke-width="1.33" stroke-linecap="round" stroke-linejoin="round"/><path d="M6.087 8.087h12.522v12.522H6.087V8.087zM20.696 6v16.696M22.783 18.522h3.13v2.087h-3.13v-2.087zM8.696 17.478H16" stroke="#51247A" stroke-width="1.33" stroke-linecap="round" stroke-linejoin="round"/><path d="M12.348 17.478a3.374 3.374 0 002.978-2.882 1.043 1.043 0 00-1.014-1.292h-3.928a1.043 1.043 0 00-1.014 1.292 3.374 3.374 0 002.978 2.882v0zM22.783 8.087h3.13v8.348h-3.13V8.087z" stroke="#51247A" stroke-width="1.33" stroke-linecap="round" stroke-linejoin="round"/></svg>