<svg viewBox="0 0 32 32" fill="none" xmlns="http://www.w3.org/2000/svg"><path d="M4 22.79a1.042 1.042 0 011.042-1.042h16.672a1.042 1.042 0 011.043 1.042v4.168A1.025 1.025 0 0121.736 28H5.065a1.042 1.042 0 01-1.042-1.042L4 22.79z" stroke="#51247A" stroke-width="1.33" stroke-linecap="round" stroke-linejoin="round"/><path d="M22.756 26.953l3.145-.014a2.083 2.083 0 10-.018-4.168l-3.127.014M7.126 21.743v6.252M8.168 21.743V10.28a6.252 6.252 0 1112.504-.056v11.519" stroke="#51247A" stroke-width="1.33" stroke-linecap="round" stroke-linejoin="round"/><path d="M11.294 21.743V10.787a3.125 3.125 0 116.252-.028v10.984M17.546 18.617h3.126" stroke="#51247A" stroke-width="1.33" stroke-linecap="round" stroke-linejoin="round"/></svg>