<svg viewBox="0 0 32 32" fill="none" xmlns="http://www.w3.org/2000/svg"><path d="M4 23.826a4.174 4.174 0 108.348 0 4.174 4.174 0 00-8.348 0v0zM19.652 23.826a4.174 4.174 0 108.348 0 4.174 4.174 0 00-8.348 0v0z" stroke="#51247A" stroke-width="1.33" stroke-linecap="round" stroke-linejoin="round"/><path d="M14.957 23.826l5.93-7.978-8.017 2.76-3.912 4.348a.522.522 0 00.388.871h5.61l-3.39-8.348M23.826 23.826l-3.45-9.367a.522.522 0 01.362-.686l1.523-.382M10.26 15.478h3.131M15.687 9.74l6.346.006a.522.522 0 00.37-.152l.974-.975a.521.521 0 00.021-.715l-.993-1.12a.522.522 0 00-.387-.175h-6.331a4.174 4.174 0 100 3.13v0z" stroke="#51247A" stroke-width="1.33" stroke-linecap="round" stroke-linejoin="round"/><path d="M10.26 8.174a1.565 1.565 0 103.132 0 1.565 1.565 0 00-3.131 0z" stroke="#51247A" stroke-width="1.33" stroke-linecap="round" stroke-linejoin="round"/></svg>