<svg viewBox="0 0 32 32" fill="none" xmlns="http://www.w3.org/2000/svg"><path d="M22.265 18.348a.26.26 0 110 .52.26.26 0 010-.52zM17.047 18.348a.26.26 0 110 .52.26.26 0 010-.52zM19.656 19.391a.261.261 0 110 .523.261.261 0 010-.523zM16.203 14.435l.313-2.544a.522.522 0 00-.512-.587H4.526a.522.522 0 00-.522.587l1.957 15.652a.522.522 0 00.521.457h4.305" stroke="#51247A" stroke-width="1.33" stroke-linecap="round" stroke-linejoin="round"/><path d="M26.96 21.74H12.353v-1.044a4.174 4.174 0 014.174-4.174h6.26a4.174 4.174 0 014.175 4.174v1.043zM28.004 23.304a1.565 1.565 0 01-1.565 1.566H12.874a1.565 1.565 0 110-3.13h13.565a1.566 1.566 0 011.565 1.564z" stroke="#51247A" stroke-width="1.33" stroke-linecap="round" stroke-linejoin="round"/><path d="M26.96 25.913A2.087 2.087 0 0124.875 28H14.439a2.087 2.087 0 01-2.087-2.087v-1.044H26.96v1.044zM8.7 23.304l1.965-18.372a1.044 1.044 0 011.234-.913l4.627.886" stroke="#51247A" stroke-width="1.33" stroke-linecap="round" stroke-linejoin="round"/></svg>