<svg viewBox="0 0 32 32" fill="none" xmlns="http://www.w3.org/2000/svg"><path d="M14.535 10.93V8.264A.534.534 0 0014 7.73h-3.2a.533.533 0 00-.534.533v2.668M12.402 4.53v3.2M14.535 4.53H9.773a1.067 1.067 0 00-.887.474L8.134 6.13M18.802 18.932v6.934A2.134 2.134 0 0116.668 28H8.134A2.134 2.134 0 016 25.866V13.064a2.134 2.134 0 012.134-2.133h7.468M26.27 13.064a4.268 4.268 0 01-8.535 0c0-1.873 2.698-6.837 3.803-8.793a.534.534 0 01.93 0c1.106 1.957 3.802 6.92 3.802 8.793z" stroke="#51247A" stroke-width="1.33" stroke-linecap="round" stroke-linejoin="round"/></svg>