<?xml version="1.0" encoding="UTF-8"?><svg id="Layer_1" xmlns="http://www.w3.org/2000/svg" viewBox="0 0 80 80"><defs><style>.cls-1{fill:#dcdcdd;}</style></defs><path class="cls-1" d="M40,0C17.91,0,0,17.91,0,40s17.91,40,40,40,40-17.91,40-40S62.09,0,40,0ZM40,14.22c8.35,0,15.11,6.77,15.11,15.11s-6.77,15.11-15.11,15.11-15.11-6.77-15.11-15.11,6.77-15.11,15.11-15.11ZM40,79.25c-10.86,0-20.69-4.41-27.79-11.54,4.32-11.27,15.23-19.27,28.02-19.27s23.48,7.85,27.89,18.94c-7.13,7.32-17.09,11.87-28.11,11.87Z"/></svg>