<svg viewBox="0 0 16 16" xmlns="http://www.w3.org/2000/svg"><g transform="matrix(0.6666666666666666,0,0,0.6666666666666666,0,0)"><path d="M8.074,10.212a4,4,0,1,0,0,3.574" fill="none" stroke="#000000" stroke-linecap="round" stroke-linejoin="round"></path><path d="M19.5,8.5a4.01,4.01,0,1,0-3.575-2.213" fill="none" stroke="#000000" stroke-linecap="round" stroke-linejoin="round"></path><path d="M15.925,17.712A4,4,0,1,0,19.5,15.5" fill="none" stroke="#000000" stroke-linecap="round" stroke-linejoin="round"></path><path d="M19.5,8.5a4,4,0,0,1-3.575-2.213L8.074,10.212a3.963,3.963,0,0,1,0,3.575l7.851,3.926A4,4,0,0,1,19.5,15.5" fill="none" stroke="#000000" stroke-linecap="round" stroke-linejoin="round"></path></g></svg>