<svg version="1.1" id="Layer_1" xmlns="http://www.w3.org/2000/svg" x="0" y="0" viewBox="0 0 16 16" style="enable-background:new 0 0 16 16" xml:space="preserve"><style>.st0{fill:none;stroke:#000;stroke-width:.6667;stroke-linecap:round;stroke-linejoin:round;stroke-miterlimit:2.6667}</style><circle class="st0" cx="8" cy="8" r="7.7"/><path class="st0" d="M10 11.1c-.5-1-1.7-1.4-2.7-.9s-1.4 1.7-.9 2.7 1.7 1.4 2.7.9c.4-.2.7-.5.9-.9M15.8 10.2c1.1 0 2.1-.9 2.1-2s-.9-2.1-2-2.1-2.1.9-2.1 2c0 .3.1.6.2.9M14 14.9c-.5 1-.1 2.2.9 2.7s2.2.1 2.7-.9.1-2.2-.9-2.7c-.3-.1-.6-.2-.9-.2" transform="scale(.66667)"/><path class="st0" d="M15.8 10.2c-.8 0-1.5-.4-1.8-1.1l-4 2c.3.6.3 1.3 0 1.8l4 2c.3-.7 1.1-1.1 1.8-1.1" transform="scale(.66667)"/></svg>