<svg xmlns="http://www.w3.org/2000/svg" viewBox="0 0 16 16">
  <g fill="none" stroke="#000" stroke-linecap="round" stroke-linejoin="round" stroke-width=".75">
    <path d="M5.06 1.71c1.85 0 3.34.75 3.34 1.69 0 .91-1.51 1.69-3.34 1.69-1.83 0-3.35-.78-3.35-1.7 0-.93 1.52-1.68 3.35-1.68zm0 0"/>
    <path d="M8.43 5.06c0 .91-1.52 1.68-3.34 1.68C3.26 6.74 1.7 6 1.7 5.06M8.43 6.74V3.4"/>
    <path d="M1.71 3.4v8.37c0 .92 1.52 1.69 3.35 1.69.42 0 .85-.03 1.25-.12"/>
    <path d="M1.71 10.09c0 .91 1.52 1.68 3.35 1.68.42 0 .85-.03 1.25-.11M1.71 8.43c0 .91 1.52 1.68 3.35 1.68.42 0 .85-.02 1.25-.11M1.71 6.74c0 .92 1.52 1.69 3.35 1.69.42 0 .85-.03 1.25-.12M10.94 7.57c1.86 0 3.35.74 3.35 1.69 0 .91-1.52 1.68-3.35 1.68-1.85 0-3.34-.74-3.34-1.68-.03-.92 1.49-1.69 3.34-1.69zm0 0"/>
    <path d="M7.57 9.26v3.34c0 .92 1.52 1.69 3.34 1.69 1.86 0 3.35-.75 3.35-1.69V9.26"/>
    <path d="M14.29 10.94c0 .92-1.52 1.69-3.35 1.69-1.85 0-3.34-.74-3.34-1.69"/>
  </g>
</svg>