<svg xmlns="http://www.w3.org/2000/svg" viewBox="0 0 16 16">
  <g fill="none" stroke="#000" stroke-linecap="round" stroke-linejoin="round" stroke-width=".75">
    <path d="M5.69 1.71c.8 0 1.45.66 1.45 1.46 0 .8-.66 1.46-1.45 1.46-.8 0-1.46-.66-1.46-1.46 0-.8.66-1.46 1.46-1.46zm0 0M11.29 6a.37.37 0 01-.2.26.81.81 0 00-.26 1.14c.23.37.74.51 1.11.29 1-.6 1.29-1.92.69-2.89A2.14 2.14 0 009.9 4L4.77 6.57a.88.88 0 01-.54.09l-1.54-.32a.82.82 0 00-.98.63V7c-.08.46.2.89.66 1l1.54.31c.18.03.32.06.49.06.4 0 .77-.08 1.12-.26l1.02-.5.8 1.5L5.6 10c-.49.26-.83.71-.89 1.29l-.28 2.08c-.06.46.26.89.71.94h.12c.43 0 .77-.31.83-.7l.28-2.1 1.86-.94.08-.05 2 1.2c.26.14.55.17.8.02l2.52-1.26c.4-.2.57-.71.37-1.1A.85.85 0 0012.89 9l-2.12 1.06-.46-.35"/>
    <path d="M11 7.63c-1.66 1.63-3.37.03-3.37.03S7.8 6.1 9.1 5.63A2.45 2.45 0 0111.3 6"/>
  </g>
</svg>