<svg xmlns="http://www.w3.org/2000/svg" viewBox="0 0 16 16">
  <g fill="none" stroke="#000" stroke-linecap="round" stroke-linejoin="round" stroke-width=".75">
    <path d="M9.26 1.71a1.46 1.46 0 010 2.91c-.8 0-1.46-.65-1.46-1.45 0-.8.66-1.46 1.46-1.46zm0 0"/>
    <path d="M12.46 6.89l1.48-1.15a.83.83 0 00.15-1.17c-.29-.34-.8-.43-1.15-.14l-1.48 1.14a.89.89 0 01-.66.17L6.86 4.48a2.52 2.52 0 00-2.03.26l-1.46.86a.84.84 0 00-.28 1.14c.22.4.74.52 1.14.29l1.46-.86c.2-.11.45-.14.68-.08l1.09.34-.94 2.23-1.9.94a.92.92 0 01-.36.09H2.54a.83.83 0 000 1.65h1.69c.4 0 .77-.08 1.11-.25l2.03-1.03 2.17-.32c.2-.03.4.03.57.15l1.98 1.3c.37.27.91.15 1.17-.22a.86.86 0 00-.23-1.17l-1.97-1.32a2.54 2.54 0 00-1.75-.4l-.83.12.55-1.29M9.26 11.77v2.52M7.57 14.29h3.34"/>
  </g>
</svg>