<svg xmlns="http://www.w3.org/2000/svg" viewBox="0 0 16 16">
  <g fill="none" stroke="#000" stroke-linecap="round" stroke-linejoin="round" stroke-miterlimit="8" stroke-width=".75">
    <path d="M13.05 11.7A11.16 11.16 0 008 10.69c-1.74-.06-3.48.28-5.05 1m7.34-5.4l-.58 4.28m-3.42 0L8.86 6m.21-.25l4.65 1.51c.23.06.45-.05.51-.28v-.22a2.57 2.57 0 00-2.02-2.25c-.45-.1-.9-.1-1.35-.05M9.07 5.75L4.86 6.87c-.28.06-.5-.06-.56-.28v-.17a2.7 2.7 0 012.02-2.36c.56-.1 1.18-.1 1.73.06"/>
    <path d="M11.76 4.46l1.74-1.74a.44.44 0 000-.62l-.11-.1a2.77 2.77 0 00-2.86.28c-.34.28-.62.67-.73 1.12M7.05 4L5.92 2.84a.44.44 0 010-.62c.06-.05.12-.1.23-.1C6.6 2 7.1 2 7.55 2c.95.11 1.74.62 2.25 1.46M1.71 14.34c.9.1 1.86-.18 2.53-.85a2.51 2.51 0 003.6.17l.16-.17a2.51 2.51 0 003.6.17l.16-.17c.67.67 1.63.96 2.53.85"/>
  </g>
</svg>