<svg xmlns="http://www.w3.org/2000/svg" viewBox="0 0 16 16">
  <g fill="none" stroke="#000" stroke-linecap="round" stroke-linejoin="round" stroke-width=".75">
    <path d="M3.8 8.34c1.17 0 2.09.95 2.09 2.09a2.1 2.1 0 01-2.09 2.09 2.1 2.1 0 01-2.09-2.09 2.1 2.1 0 012.1-2.09zm0 0M12.2 8.34a2.1 2.1 0 012.09 2.09 2.1 2.1 0 01-2.1 2.09 2.1 2.1 0 01-2.08-2.09c0-1.14.92-2.09 2.09-2.09zm0 0"/>
    <path d="M12.2 10.43l-2.8-6.2c-.09-.2 0-.46.2-.54.03 0 .03 0 .06-.03l1.65-.52M6.31 4.97H3.4M6.06 7.46L4.66 5"/>
    <path d="M3.8 10.43l2.26-2.97 4.28-1.17"/>
  </g>
</svg>