<svg xmlns="http://www.w3.org/2000/svg" viewBox="0 0 16 16">
  <path fill="none" stroke="#000" stroke-linecap="round" stroke-linejoin="round" stroke-width=".75" d="M9.69 2c.68 0 1.25.57 1.25 1.26 0 .68-.57 1.26-1.25 1.26-.69 0-1.26-.58-1.26-1.26 0-.69.54-1.26 1.26-1.26zM3.8 9.54c1.17 0 2.09.94 2.09 2.09A2.1 2.1 0 013.8 13.7a2.1 2.1 0 01-2.09-2.08 2.1 2.1 0 012.1-2.09zm8.4 0a2.1 2.1 0 012.09 2.09 2.1 2.1 0 01-2.1 2.08 2.1 2.1 0 01-2.08-2.08 2.06 2.06 0 012.09-2.09zM8 12.48a.83.83 0 01-.83-.82c0-1.26-.69-2.4-1.8-2.97a.84.84 0 01-.34-1.15.63.63 0 01.17-.23l2.26-2.14a.82.82 0 011.17.03c.06.06.11.11.14.2 0 0 .63 1.2 1.77 1.2a.83.83 0 010 1.66A3.57 3.57 0 017.91 7l-.8.77A5.02 5.02 0 018.9 11.6c-.06.51-.43.88-.89.88zm0 0"/>
</svg>