<svg xmlns="http://www.w3.org/2000/svg" viewBox="0 0 16 16">
  <g fill="none" stroke="#000" stroke-linecap="round" stroke-linejoin="round" stroke-width=".75">
    <path d="M8 13.6V3.86S6.63 2.34 2 2.29a.25.25 0 00-.2.08.25.25 0 00-.09.2v9.14c0 .15.12.29.29.29 4.63.09 6 1.6 6 1.6zm0 0M6.31 7.48a12.9 12.9 0 00-2.94-.6M6.31 9.83c-.94-.31-1.94-.52-2.94-.6M9.69 7.48a12.9 12.9 0 012.94-.6M9.69 9.83c.94-.31 1.94-.52 2.94-.6"/>
    <path d="M8 13.6V3.86s1.37-1.52 6-1.57c.09 0 .14.02.2.08s.09.11.09.2v9.14c0 .15-.12.29-.29.29-4.63.09-6 1.6-6 1.6zm0 0"/>
  </g>
</svg>