<svg xmlns="http://www.w3.org/2000/svg" viewBox="0 0 16 16">
  <g fill="none" stroke="#000" stroke-linecap="round" stroke-linejoin="round" stroke-width=".75">
    <path d="M2.86 4h5.43c.17 0 .28.11.28.29v10h-6v-10c0-.18.12-.29.29-.29zm0 0"/>
    <path d="M4.57 2.29h2c.17 0 .29.1.29.28V4H4.29V2.57c0-.17.1-.28.28-.28zm0 0M4.29 5.71h2.57M4.29 7.43h2.57M4.29 9.14h2.57M4.29 10.86h2.57M4.29 12.57h2.57M6 1.43v.86M10.29 14.29h3.42V7c0-.23-.2-.43-.42-.43H10.7c-.23 0-.42.2-.42.43zm0 0M12.86 5.71v.86M1.71 14.29h12.86"/>
  </g>
</svg>