<svg xmlns="http://www.w3.org/2000/svg" viewBox="0 0 16 16">
  <g fill="none" stroke="#000" stroke-linecap="round" stroke-linejoin="round" stroke-width=".75">
    <path d="M4.23 12.6v.83a.83.83 0 001.66 0v-.83M11.77 12.6v.83a.83.83 0 01-1.66 0v-.83M12.6 11.77c0 .46-.37.83-.83.83H4.23a.83.83 0 01-.83-.83V4.23A2.5 2.5 0 015.9 1.71h4.2a2.5 2.5 0 012.52 2.52v7.54zm0 0M6.74 3.4h2.52"/>
    <path d="M3.4 5.06h9.23v4.2H3.4zm0 0M5.06 10.94h1.68M9.26 10.94h1.68M3.4 5.91h-.86a.83.83 0 00-.83.83v2.52"/>
    <path d="M12.6 5.91h.83c.46 0 .83.38.83.83v2.52"/>
  </g>
</svg>