<svg xmlns="http://www.w3.org/2000/svg" viewBox="0 0 16 16">
  <g fill="none" stroke="#000" stroke-linecap="round" stroke-linejoin="round" stroke-width=".75">
    <path d="M13.46 10.97c.45 0 .83-.37.83-.83V8.9c0-.26-.12-.52-.29-.72L12.63 6.8H3.4L2 8.17a1 1 0 00-.29.72v1.25c0 .46.38.83.83.83zm0 0"/>
    <path d="M1.8 8.46H3.9c.22 0 .42.08.6.25l.6.6M14.2 8.46H12.1a.82.82 0 00-.6.25l-.6.6M3.4 6.77l.94-2.54c.18-.49.66-.83 1.18-.83h4.96c.52 0 1 .31 1.18.83l.94 2.54zm0 0M3.4 6.77l-.83-.83h-.86M12.6 6.77l.83-.83h.86M2.54 10.97v.83a.83.83 0 001.66 0v-.83zm0 0M13.46 10.97v.83a.83.83 0 01-1.66 0v-.83zm0 0"/>
  </g>
</svg>