<svg xmlns="http://www.w3.org/2000/svg" viewBox="0 0 16 16">
  <g fill="none" stroke="#000" stroke-linecap="round" stroke-linejoin="round" stroke-width=".75">
    <path d="M8.97 8.43h4.74c.32 0 .58.26.58.57v4.71c0 .32-.26.58-.58.58H8.97a.57.57 0 01-.57-.58V8.97c.03-.31.26-.54.57-.54zm0 0M12.4 10.09c.12 0 .2.08.2.2M12.2 10.31c0-.11.09-.2.2-.2M12.4 10.52a.2.2 0 01-.2-.2M12.6 10.31a.2.2 0 01-.2.2M10.31 10.09c.12 0 .2.08.2.2M10.09 10.31c0-.11.08-.2.2-.2M10.31 10.52a.2.2 0 01-.2-.2M10.52 10.31a.2.2 0 01-.2.2M10.31 12.2c.12 0 .2.09.2.2M10.09 12.4c0-.11.08-.2.2-.2M10.31 12.6a.2.2 0 01-.2-.2M10.52 12.4a.2.2 0 01-.2.2M12.4 12.2c.12 0 .2.09.2.2M12.2 12.4c0-.11.09-.2.2-.2M12.4 12.6a.2.2 0 01-.2-.2M12.6 12.4a.2.2 0 01-.2.2M6.74 11.97l-1.6.6a.83.83 0 01-1.08-.51L1.77 5.77a.84.84 0 01.52-1.08L5.9 3.37"/>
    <path d="M11.77 8.43V2.54a.83.83 0 00-.83-.83h-4.2a.83.83 0 00-.83.83v6.72c0 .45.38.83.83.83h1.69"/>
    <path d="M8.83 4.66c.69 0 1.26.57 1.26 1.25 0 .7-.57 1.26-1.26 1.26-.69 0-1.26-.57-1.26-1.26 0-.68.57-1.25 1.26-1.25zm0 0"/>
  </g>
</svg>