<svg xmlns="http://www.w3.org/2000/svg" viewBox="0 0 16 16">
  <g fill="none" stroke="#000" stroke-linecap="round" stroke-linejoin="round" stroke-width=".75">
    <path d="M5.91 4.06l-1.51 2-1-1M5.91 8.91l-1.51 2-1-1M6.74 5.91h1.69M6.74 10.94h1.69"/>
    <path d="M8.43 1.71H2.54a.83.83 0 00-.83.83v10.89c0 .48.38.86.83.86h6.72M10.09 11.77c0 .46.37.83.82.83h.83c.46 0 .83-.37.83-.83V5.48h-2.51v6.29zm0 0M12.6 2.54h.83c.46 0 .83.37.83.83v3.77M12.6 5.48V2.54a.83.83 0 00-.83-.83h-.83a.83.83 0 00-.83.83v2.94M11.34 12.6v1.69"/>
  </g>
</svg>