<svg width="25" height="25" viewBox="0 0 25 25" xmlns="http://www.w3.org/2000/svg">
  <path d="M11.9779 0.196289C15.3345 0.196289 18.1924 1.36816 20.5493 3.71079C21.6773 4.83916 22.5349 6.12879 23.1206 7.57854C23.706 9.02867 23.9996 10.5677 23.9996 12.1963C23.9996 13.8392 23.7098 15.3785 23.1319 16.8137C22.5533 18.2492 21.6994 19.5174 20.5714 20.6173C19.4003 21.7742 18.0716 22.6603 16.5855 23.2745C15.1001 23.8888 13.5641 24.1959 11.9786 24.1959C10.3931 24.1959 8.87513 23.8929 7.425 23.285C5.97525 22.6783 4.67513 21.7997 3.525 20.6499C2.37488 19.5002 1.5 18.2034 0.9 16.7604C0.3 15.3174 0 13.7964 0 12.1963C0 10.6104 0.303375 9.08566 0.9105 7.62129C1.51763 6.15691 2.4 4.84629 3.55688 3.68904C5.8425 1.36104 8.64938 0.196289 11.9779 0.196289ZM12.0214 2.36079C9.27863 2.36079 6.97125 3.31816 5.09963 5.23216C4.1565 6.18954 3.43163 7.26429 2.92463 8.45716C2.41688 9.65004 2.16375 10.8965 2.16375 12.1967C2.16375 13.4825 2.41688 14.7219 2.92463 15.914C3.432 17.1077 4.1565 18.1719 5.09963 19.1075C6.04238 20.0435 7.10625 20.7572 8.29275 21.2507C9.47813 21.7434 10.7213 21.9898 12.0214 21.9898C13.3069 21.9898 14.5526 21.7404 15.7613 21.2402C16.9684 20.7395 18.0566 20.0188 19.0286 19.076C20.8999 17.2475 21.8351 14.9548 21.8351 12.197C21.8351 10.8684 21.5921 9.61141 21.1065 8.42566C20.6216 7.23991 19.914 6.18316 18.9863 5.25391C17.0565 3.32529 14.7356 2.36079 12.0214 2.36079ZM11.871 10.2039L10.2634 11.0398C10.0916 10.6832 9.88125 10.4327 9.6315 10.2898C9.38138 10.1473 9.14925 10.0757 8.93475 10.0757C7.86375 10.0757 7.3275 10.7825 7.3275 12.197C7.3275 12.8398 7.46325 13.3535 7.73438 13.7394C8.00588 14.1253 8.406 14.3184 8.93475 14.3184C9.63488 14.3184 10.1276 13.9753 10.4138 13.2898L11.892 14.0398C11.5778 14.6259 11.142 15.0864 10.5848 15.422C10.0283 15.758 9.41363 15.9257 8.742 15.9257C7.67063 15.9257 6.80588 15.5975 6.14888 14.9398C5.49188 14.2828 5.16337 13.3685 5.16337 12.1974C5.16337 11.0544 5.49563 10.1477 6.15975 9.47604C6.82388 8.80479 7.66313 8.46879 8.67788 8.46879C10.164 8.46804 11.2279 9.04667 11.871 10.2039ZM18.7924 10.2039L17.2065 11.0398C17.0351 10.6832 16.824 10.4327 16.5743 10.2898C16.3238 10.1473 16.0841 10.0757 15.8565 10.0757C14.7851 10.0757 14.2489 10.7825 14.2489 12.197C14.2489 12.8398 14.385 13.3535 14.6561 13.7394C14.9273 14.1253 15.327 14.3184 15.8565 14.3184C16.5559 14.3184 17.049 13.9753 17.3344 13.2898L18.8344 14.0398C18.5063 14.6259 18.063 15.0864 17.5065 15.422C16.9493 15.758 16.3421 15.9257 15.6851 15.9257C14.5991 15.9257 13.7318 15.5975 13.0823 14.9398C12.4313 14.2828 12.1065 13.3685 12.1065 12.1974C12.1065 11.0544 12.4384 10.1477 13.1033 9.47604C13.767 8.80479 14.6063 8.46879 15.6206 8.46879C17.1064 8.46804 18.1643 9.04667 18.7924 10.2039Z" fill="#19151C"/>
</svg>
