<svg xmlns="http://www.w3.org/2000/svg" viewBox="0 0 16 16">
  <g fill="none" stroke="#000" stroke-linecap="round" stroke-linejoin="round" stroke-width=".75">
    <path d="M8 5.06c.8 0 1.46.65 1.46 1.46 0 .8-.66 1.45-1.46 1.45-.8 0-1.46-.66-1.46-1.45 0-.8.66-1.46 1.46-1.46zm0 0M3.4 6.31A6.03 6.03 0 004.77 9.9c.43.45.94.82 1.54 1.05v3.35"/>
    <path d="M11.4 4.74a.83.83 0 00-.46.83c0 .03.15 2.03-.94 3.23-.17.2-.4.34-.63.49H6.66a2.56 2.56 0 01-.63-.49c-1.09-1.17-.97-3.2-.94-3.23a.86.86 0 00-.46-.83M9.69 14.29v-3.32a4.2 4.2 0 001.54-1.06c.86-1 1.34-2.25 1.37-3.6M12.6 3.4a25.11 25.11 0 00-9.23 0M14.29 4.23a.83.83 0 01-1.66 0V2.54a.83.83 0 011.66 0zm0 0"/>
    <path d="M3.4 4.23a.83.83 0 01-1.66 0V2.54a.79.79 0 01.8-.83c.46 0 .83.38.83.83v1.69zm0 0"/>
  </g>
</svg>