<svg xmlns="http://www.w3.org/2000/svg" viewBox="0 0 16 16">
  <g fill="none" stroke="#000" stroke-linecap="round" stroke-linejoin="round" stroke-width=".75">
    <path d="M7.57 14.29H3.4c-.94 0-1.69-.75-1.69-1.69V3.4c0-.94.75-1.69 1.69-1.69h4.2c.92 0 1.69.75 1.69 1.69v1.26M1.71 11.77h3.35"/>
    <path d="M14.23 10.31l-1.37-1.37a1.69 1.69 0 00-2.17-.17l-.92.66L8.6 8.26a.82.82 0 00-1.17-.06.82.82 0 00-.06 1.17l.06.06 2.09 2.09-.7.22a.9.9 0 00-.56 1.15c.14.4.54.68.97.63l2.08-.23"/>
    <path d="M6.31 10.6a2.5 2.5 0 01-.91-3.43 2.5 2.5 0 014.34 0"/>
  </g>
</svg>