<svg xmlns="http://www.w3.org/2000/svg" viewBox="0 0 16 16">
  <g fill="none" stroke="#000" stroke-linecap="round" stroke-linejoin="round" stroke-width=".75">
    <path d="M8 3.71a6.34 6.34 0 00-6.29 6.38v1.17c0 .45.38.83.83.83h10.89c.46 0 .83-.38.83-.83v-1.17A6.3 6.3 0 008 3.7zm0 0"/>
    <path d="M6.31 12.09v-.43a1.69 1.69 0 013.38 0v.43m-.43-5.86L8 10m-3.97-.43a.2.2 0 00-.2.2c0 .12.08.2.2.2a.2.2 0 00.2-.2.2.2 0 00-.2-.2zm.83-2.09a.2.2 0 00-.2.2c0 .12.08.2.2.2a.2.2 0 00.2-.2.2.2 0 00-.2-.2zm7.11 2.09a.2.2 0 00-.2.2c0 .12.09.2.2.2a.2.2 0 00.2-.2.2.2 0 00-.2-.2zm-.83-2.09a.2.2 0 00-.2.2c0 .12.09.2.2.2a.2.2 0 00.2-.2.2.2 0 00-.2-.2zM6.54 5.8a.2.2 0 00-.2.2c0 .11.09.2.2.2a.2.2 0 00.2-.2c0-.09-.08-.2-.2-.2zm0 0"/>
  </g>
</svg>