<svg xmlns="http://www.w3.org/2000/svg" viewBox="0 0 16 16">
  <g fill="none" stroke="#000" stroke-linecap="round" stroke-linejoin="round" stroke-width=".75">
    <path d="M2.14 7.17h11.43M2.46 11.34h10.83M13.71 9.69h-3.05a.29.29 0 01-.29-.3v-.28a.29.29 0 00-.28-.28H8.94a.29.29 0 00-.28.28v.29c0 .14-.12.29-.29.29H7.26a.29.29 0 01-.29-.3v-.28a.29.29 0 00-.28-.28H5.54a.28.28 0 00-.28.28v.29c0 .14-.12.29-.29.29H2.03"/>
    <path d="M9.11 1.71v.75c0 .57.29 1.11.78 1.4l2.28 1.45a3.36 3.36 0 011.54 2.83v1.09a5.04 5.04 0 01-5.02 5.03H7c-2.74.03-5-2.23-5-5V8.17c0-1.14.57-2.2 1.54-2.83L5.83 3.9c.48-.32.77-.83.77-1.43V1.7M5.34 1.71h5.03"/>
  </g>
</svg>