<svg xmlns="http://www.w3.org/2000/svg" viewBox="0 0 16 16">
  <g fill="none" stroke="#000" stroke-linecap="round" stroke-linejoin="round" stroke-width=".75">
    <path d="M11.6 2.03a3.6 3.6 0 00-1.43-.32c-1.65 0-3.03 1.15-3.03 2.55A2.6 2.6 0 008.97 6.6c.43.14.77.03 1.03-.54.14-.37.48-.6.89-.58M13 4.74l-1.57 3.2M12.69 3.71c-.2.38-.03.83.34 1.03.37.2.83.03 1-.34.45-.71.31-1.63-.34-2.17.11.91-.58.57-1 1.48zm0 0M9.06 4.17c.11 0 .2.09.2.2M8.83 4.4c0-.11.08-.2.2-.2M9.06 4.6a.2.2 0 01-.2-.2M9.26 4.4a.2.2 0 01-.2.2M10.31 2.91c.12 0 .2.09.2.2M10.09 3.14c0-.11.08-.2.2-.2M10.31 3.34a.2.2 0 01-.2-.2M10.52 3.14a.2.2 0 01-.2.2M10.09 10.52v2.91c0 .46-.38.83-.83.83H2.54c-.45.03-.83-.35-.83-.83v-9.2c0-.46.38-.83.83-.83h2.94M1.71 8.83h7.55"/>
    <path d="M1.71 5.48H3.4v3.35H1.7zm0 0"/>
    <path d="M3.4 5.48h1.4c.14 0 .29.12.29.29v3.09h-1.7zm0 0M1.71 10.94h1.4c.15 0 .29.12.29.29v3.06M5.34 10.94h1.12c.14 0 .28.12.28.29v3.06H5.06v-3.1c0-.13.14-.25.28-.25zm0 0"/>
    <path d="M3.4 11.34h1.69v2.95h-1.7zm0 0"/>
  </g>
</svg>