<svg xmlns="http://www.w3.org/2000/svg" viewBox="0 0 16 16">
  <path fill="none" stroke="#000" stroke-linecap="round" stroke-linejoin="round" stroke-width=".75" d="M12.2 10.09l1.86-1.86a.85.85 0 000-1.17l-1.2-1.17A2.1 2.1 0 0110.1 7a2.1 2.1 0 010-3.86L8.94 1.97a.84.84 0 00-1.17 0L5.91 3.83a2.1 2.1 0 00-2.08-2.09A2.06 2.06 0 001.7 3.8a2.1 2.1 0 002.1 2.09L1.93 7.74a.85.85 0 000 1.17l1.17 1.18a2.1 2.1 0 013.86 1.62c-.2.52-.6.92-1.11 1.12L7.03 14c.31.31.86.31 1.17 0l1.86-1.86a2.1 2.1 0 002.08 2.09 2.1 2.1 0 002.09-2.09 2 2 0 00-2.03-2.05zm0 0"/>
</svg>