<svg xmlns="http://www.w3.org/2000/svg" viewBox="0 0 16 16">
  <g fill="none" stroke="#000" stroke-linecap="round" stroke-linejoin="round" stroke-width=".75">
    <path d="M4.23 9.69v4.6M11.77 9.69v4.6M11.77 10.52a8.73 8.73 0 01-7.54 0M14.29 11.26a7.71 7.71 0 01-2.52-.78M1.71 11.26a7.71 7.71 0 002.52-.78M3.54 1.71h8.94c.32 0 .58.26.58.58v5.14c0 .31-.26.57-.58.57H3.54a.57.57 0 01-.57-.57V2.29c0-.32.26-.58.57-.58zm0 0"/>
    <path d="M4.66 6.31l1.8-2.37c.14-.17.4-.2.6-.05 0 0 .03 0 .03.02l1.45 1.57"/>
    <path d="M8 6.31l1.77-2.74c.12-.2.37-.26.57-.14.06.03.09.05.12.11l.88 1.09"/>
  </g>
</svg>