<svg xmlns="http://www.w3.org/2000/svg" viewBox="0 0 16 16">
  <g fill="none" stroke="#000" stroke-linecap="round" stroke-linejoin="round" stroke-width=".75">
    <path d="M4.09 9.26c.8 0 1.45.65 1.45 1.45 0 .8-.65 1.46-1.45 1.46-.8 0-1.46-.65-1.46-1.46-.03-.8.63-1.45 1.46-1.45zm0 0M6.43 14.29a2.49 2.49 0 00-4.72 0zm0 0M11.91 9.26c.8 0 1.46.65 1.46 1.45 0 .8-.66 1.46-1.46 1.46a1.46 1.46 0 010-2.91zm0 0M14.29 14.29a2.49 2.49 0 00-4.72 0zm0 0M8 1.71a3.76 3.76 0 11.01 7.53A3.76 3.76 0 018 1.71zm0 0M4.43 6.74h7.11M4.43 4.23h7.11M7.2 1.8c-.68 2.43-.57 5.03.28 7.43"/>
    <path d="M8.8 1.8c.29 1.06.46 2.17.46 3.26 0 1.42-.26 2.83-.72 4.14"/>
  </g>
</svg>