<svg xmlns="http://www.w3.org/2000/svg" viewBox="0 0 16 16">
  <path fill="none" stroke="#000" stroke-linecap="round" stroke-linejoin="round" stroke-width=".75" d="M12.2 3.43c.8 0 1.46.66 1.46 1.46a1.46 1.46 0 01-2.91 0c-.04-.8.62-1.46 1.45-1.46zM5.43 7.94L7.57 6.6l-.74-.83a.82.82 0 01.06-1.17.82.82 0 011.17.06l2.51 2.88m-8.86 5.12c.83 0 1.6-.4 2.1-1.06a2.6 2.6 0 004.19 0 2.6 2.6 0 004.2 0 2.6 2.6 0 002.09 1.06M1.71 10.14c.83 0 1.6-.4 2.1-1.05a2.63 2.63 0 004.19 0 2.63 2.63 0 004.2 0 2.6 2.6 0 002.09 1.05"/>
</svg>