<svg width="24" height="24" viewBox="0 0 24 24" fill="none" xmlns="http://www.w3.org/2000/svg">
<path d="M11.9812 18.898C13.0576 18.898 13.9302 18.0254 13.9302 16.949C13.9302 15.8726 13.0576 15 11.9812 15C10.9048 15 10.0322 15.8726 10.0322 16.949C10.0322 18.0254 10.9048 18.898 11.9812 18.898Z" stroke="#51247A" stroke-linecap="round" stroke-linejoin="round"/>
<path d="M14.7649 21.1254C14.4956 20.6208 14.0942 20.1989 13.6037 19.9047C13.1132 19.6105 12.552 19.4551 11.9801 19.4551C11.4081 19.4551 10.8469 19.6105 10.3564 19.9047C9.86595 20.1989 9.46461 20.6208 9.19531 21.1254" stroke="#51247A" stroke-linecap="round" stroke-linejoin="round"/>
<path d="M17.6384 18.898C18.7148 18.898 19.5874 18.0254 19.5874 16.949C19.5874 15.8726 18.7148 15 17.6384 15C16.562 15 15.6895 15.8726 15.6895 16.949C15.6895 18.0254 16.562 18.898 17.6384 18.898Z" stroke="#51247A" stroke-linecap="round" stroke-linejoin="round"/>
<path d="M20.3325 20.8487C20.0114 20.3953 19.581 20.0302 19.0812 19.7873C18.5815 19.5444 18.0286 19.4316 17.4736 19.4592C16.9187 19.4867 16.3796 19.6539 15.9065 19.9451C15.4333 20.2364 15.0412 20.6423 14.7666 21.1254" stroke="#51247A" stroke-linecap="round" stroke-linejoin="round"/>
<path d="M6.32495 18.898C7.40135 18.898 8.27393 18.0254 8.27393 16.949C8.27393 15.8726 7.40135 15 6.32495 15C5.24856 15 4.37598 15.8726 4.37598 16.949C4.37598 18.0254 5.24856 18.898 6.32495 18.898Z" stroke="#51247A" stroke-linecap="round" stroke-linejoin="round"/>
<path d="M3.63086 20.8487C3.95202 20.3953 4.3824 20.0302 4.88213 19.7873C5.38187 19.5444 5.93481 19.4316 6.48976 19.4592C7.04472 19.4867 7.58374 19.6539 8.05692 19.9451C8.53011 20.2364 8.92216 20.6423 9.19678 21.1254" stroke="#51247A" stroke-linecap="round" stroke-linejoin="round"/>
<path d="M19.8769 7.61418L16.1009 11.3901L14.2441 11.7612L14.6152 9.90518L18.3912 6.12921C18.5875 5.93291 18.8538 5.82263 19.1315 5.82263C19.4091 5.82263 19.6754 5.93291 19.8718 6.12921L19.8761 6.13357C19.9736 6.23065 20.0509 6.346 20.1036 6.47301C20.1564 6.60002 20.1836 6.73619 20.1837 6.87373C20.1838 7.01126 20.1567 7.14746 20.104 7.27452C20.0514 7.40158 19.9742 7.51701 19.8769 7.61418V7.61418Z" stroke="#51247A" stroke-linecap="round" stroke-linejoin="round"/>
<path d="M16.851 4.299L14.9848 2.66663H6.07422V13.0202" stroke="#51247A" stroke-linecap="round" stroke-linejoin="round"/>
<path d="M8.30176 6.56475L9.04388 7.3076L10.5289 5.82263" stroke="#51247A" stroke-linecap="round" stroke-linejoin="round"/>
<path d="M8.30176 10.2776L9.04388 11.0205L10.5289 9.53479" stroke="#51247A" stroke-linecap="round" stroke-linejoin="round"/>
<path d="M12.3877 6.93591H13.5016" stroke="#51247A" stroke-linecap="round" stroke-linejoin="round"/>
<path d="M14.9863 9.53479L16.4713 11.0205" stroke="#51247A" stroke-linecap="round" stroke-linejoin="round"/>
<path d="M4.81934 15.7157C5.26912 16.1632 5.81213 16.5058 6.40961 16.7192C7.00709 16.9326 7.64432 17.0114 8.2758 16.9501" stroke="#51247A" stroke-linecap="round" stroke-linejoin="round"/>
<path d="M10.4746 15.7157C10.9244 16.1631 11.4674 16.5057 12.0649 16.7191C12.6624 16.9325 13.2996 17.0114 13.9311 16.9501" stroke="#51247A" stroke-linecap="round" stroke-linejoin="round"/>
<path d="M16.1328 15.7157C16.5827 16.1632 17.1259 16.5058 17.7235 16.7192C18.3211 16.9326 18.9584 17.0115 19.59 16.9501" stroke="#51247A" stroke-linecap="round" stroke-linejoin="round"/>
</svg>
