<svg xmlns="http://www.w3.org/2000/svg" viewBox="0 0 16 16">
  <g fill="none" stroke="#000" stroke-linecap="round" stroke-linejoin="round" stroke-width=".75">
    <path d="M11.34 8.86V5.89c0-.92-.74-1.7-1.68-1.7H6.3c-.91 0-1.68.75-1.68 1.7v2.97"/>
    <path d="M13.86 9.86L8.29 7.63a.8.8 0 00-.63 0L2.14 9.86M3.17 9.43l.89 2.66M8 11.74V7.57M12.8 9.43l-.91 2.77"/>
    <path d="M12.26 11.09L8 9.37 3.74 11.1M1.71 14.26c.92.11 1.83-.2 2.52-.83a2.53 2.53 0 003.74 0 2.53 2.53 0 003.57.17l.17-.17c.66.66 1.6.94 2.52.83M6.31 5.89h3.35M8.83 2.14c0-.23-.2-.43-.43-.43h-.83c-.23 0-.43.2-.43.43v2.09h1.69zm0 0"/>
  </g>
</svg>