<svg xmlns="http://www.w3.org/2000/svg" viewBox="0 0 16 16">
  <path fill="none" stroke="#000" stroke-linecap="round" stroke-linejoin="round" stroke-width=".75" d="M13.11 1.71H2.9c-.2 0-.37.15-.4.32l-.8 3.45c0 .7.58 1.26 1.26 1.26.69 0 1.26-.57 1.26-1.26 0 .7.57 1.26 1.25 1.26.7 0 1.26-.57 1.26-1.26a1.26 1.26 0 002.52 0c0 .7.57 1.26 1.26 1.26.68 0 1.25-.57 1.25-1.26 0 .7.57 1.26 1.26 1.26.68 0 1.26-.57 1.26-1.26l-.77-3.45a.42.42 0 00-.4-.32zm.35 12.58V8.43m-10.92 0v5.86m7.55-3.35H5.8a.83.83 0 00-.83.83c0 .09.03.2.06.29L5.77 14c.06.17.23.29.4.29h3.6c.17 0 .34-.12.4-.29l.74-1.94a.85.85 0 00-.48-1.09c-.14-.03-.23-.03-.34-.03zm-4.23 0l.83-2.08m3.37 2.08l-.83-2.08m-2.06 4.17v-.83m1.66.83v-.83"/>
</svg>