<svg xmlns="http://www.w3.org/2000/svg" viewBox="0 0 16 16">
  <g fill="none" stroke="#000" stroke-linecap="round" stroke-linejoin="round" stroke-width=".75">
    <path d="M8.77 1.71c.8 0 1.46.66 1.46 1.46 0 .8-.66 1.46-1.46 1.46-.8 0-1.46-.66-1.46-1.46 0-.8.66-1.46 1.46-1.46zm0 0M3.74 11.34c.8 0 1.46.66 1.46 1.46 0 .8-.66 1.46-1.46 1.46-.8.03-1.45-.63-1.45-1.43 0-.83.65-1.49 1.45-1.49zm0 0"/>
    <path d="M6.31 11.31l.66-4.17H6.9c-.32 0-.6.17-.75.46l-.8 1.6c-.2.4-.71.57-1.11.37a.84.84 0 01-.37-1.11l.8-1.6a2.51 2.51 0 012.25-1.4h3.8c.32 0 .6-.17.75-.46l.8-1.6c.2-.4.71-.57 1.11-.37.4.2.57.71.37 1.11l-.8 1.6a2.5 2.5 0 01-2.25 1.4h-.35l-1 6.38a.86.86 0 01-.82.71h-.15a.84.84 0 01-.68-.97l.57-3.63"/>
  </g>
</svg>