<svg xmlns="http://www.w3.org/2000/svg" viewBox="0 0 16 16">
  <g fill="none" stroke="#000" stroke-linecap="round" stroke-linejoin="round" stroke-width=".75">
    <path d="M5.86 11.46a11.4 11.4 0 00-3.38-.6.84.84 0 01-.77-.83V2.54c0-.45.38-.83.83-.83h.06c3.54.2 5.4 1.46 5.4 2.4 0-.97 2.09-2.2 5.4-2.4.46-.02.86.32.89.77v7.09M8 4.11V6.3M6.52 4.91c-1-.37-2.06-.6-3.12-.71M12.14 6.43l.6-.09M6.52 7.06c-1-.37-2.06-.6-3.12-.72M6.52 9.31a13.2 13.2 0 00-3.15-.7M9.63 4.94c1.03-.37 2.08-.6 3.14-.71"/>
    <path d="M14.23 14.26l.06-.63a1.7 1.7 0 00-1.32-1.8l-2.03-.46v-3.2a1.06 1.06 0 10-2.11 0v5.14l-.83-.6a.86.86 0 00-1.2.18.85.85 0 000 1.02l.26.35"/>
  </g>
</svg>