<svg xmlns="http://www.w3.org/2000/svg" viewBox="0 0 16 16">
  <g stroke="#000" stroke-linecap="round" stroke-linejoin="round" stroke-width=".75">
    <path fill="none" d="M6.43 12.03a.84.84 0 01-1.17 0L2.26 9a.84.84 0 010-1.17L8.1 1.97a.78.78 0 01.6-.26h3c.46 0 .83.38.83.83v3c0 .23-.08.43-.25.6"/>
    <path d="M10.46 3.6a.2.2 0 00-.2.2c0 .11.08.2.2.2a.2.2 0 00.2-.2.2.2 0 00-.2-.2zm0 0"/>
    <path fill="none" d="M11.71 9.26h-1.14c-.4 0-.74.34-.74.74 0 .31.2.57.48.69l1.15.45c.37.15.57.6.43.97a.75.75 0 01-.7.46h-1.13m.83-3.31v-.43m0 4.2v-.43"/>
    <path fill="none" d="M10.89 7.57a3.35 3.35 0 11-3.35 3.37 3.37 3.37 0 013.35-3.37zm0 0"/>
  </g>
</svg>