<svg xmlns="http://www.w3.org/2000/svg" viewBox="0 0 16 16">
  <g fill="none" stroke="#000" stroke-linecap="round" stroke-linejoin="round" stroke-width=".75">
    <path d="M3.14 14.03a.84.84 0 01-1.17 0 .84.84 0 010-1.17l1.94-1.95L5.1 12.1zm0 0M5.91 10.09l-1.4 1.4M7.94 3.03c1.6-1.6 4.03-1.77 5.4-.37 1.4 1.4 1.23 3.8-.37 5.4-1.6 1.6-4.03 1.77-5.4.37-1.4-1.37-1.23-3.8.37-5.4zm0 0"/>
    <path d="M6.69 6.83l-.8 3.26 3.25-.8M13.8 6.94L9.06 2.2M7.11 4.14l4.75 4.75M12.34 1.97L6.9 7.43M8.57 9.11l5.46-5.45M3.4 1.71a1.69 1.69 0 010 3.38 1.69 1.69 0 010-3.38zm0 0"/>
  </g>
</svg>