<svg xmlns="http://www.w3.org/2000/svg" viewBox="0 0 16 16">
  <path fill="none" stroke="#000" stroke-linecap="round" stroke-linejoin="round" stroke-width=".75" d="M7.17 1.71c.8 0 1.46.66 1.46 1.46 0 .8-.66 1.46-1.46 1.46-.8 0-1.46-.66-1.46-1.46 0-.8.63-1.46 1.46-1.46zm5.86 9.43c.11 0 .2.09.2.2m-.4 0c0-.11.08-.2.2-.2m0 .4a.2.2 0 01-.2-.2m.4 0a.2.2 0 01-.2.2m-1.83-7.6c.6-1 1.69-1.46 2.43-1 .74.43.89 1.6.28 2.6-.6 1-1.68 1.46-2.43 1-.74-.45-.85-1.63-.28-2.6zm-.49 3.92l.77-1.32M7.63 9.06c.14.14.34.2.54.2h1.92a.83.83 0 000-1.66h-1.8l-1.6-1.74a.82.82 0 00-1.17-.06.6.6 0 00-.2.26L3.61 9.4a2.7 2.7 0 00-.25 1.12v1.28l-1.34 1a.83.83 0 00-.17 1.17c.28.37.8.46 1.17.17l1.34-1c.43-.31.66-.8.66-1.34v-.4l1.45.63.72 1.77a.84.84 0 001.57-.6l-.71-1.77c-.17-.4-.49-.74-.89-.91l-1.8-.78.92-1.83zm0 0"/>
</svg>