<svg xmlns="http://www.w3.org/2000/svg" viewBox="0 0 16 16">
  <g fill="none" stroke="#000" stroke-linecap="round" stroke-linejoin="round" stroke-width=".75">
    <path d="M6.23 14.29l-1.54-1.75a.86.86 0 01.08-1.23.87.87 0 011.23.09l1.09 1.23V7.6c0-.46.37-.83.82-.83.46 0 .83.37.83.83v3.77h.83a2.5 2.5 0 012.52 2.52v.4"/>
    <path d="M10.4 9.26c1.86-1.4 2.23-4 .83-5.86a4.17 4.17 0 00-5.86-.83 4.17 4.17 0 000 6.69"/>
    <path d="M10.4 9.26c1.86-1.4 2.23-4 .83-5.86a4.17 4.17 0 00-5.86-.83 4.17 4.17 0 000 6.69"/>
  </g>
</svg>