<svg xmlns="http://www.w3.org/2000/svg" viewBox="0 0 16 16">
  <g fill="none" stroke="#000" stroke-linecap="round" stroke-linejoin="round" stroke-width=".75">
    <path d="M3.59 2.82l3 1.14c.4.14.62.56.54.95l-.17.86c-.05.3-.3.56-.61.64l-1.17.28-.64 1.61c-.11.31-.34.6-.61.79L2.8 9.8m7.5-6.59l-.55.72c-.34.45-.42 1-.25 1.53l.13.42"/>
    <path d="M5.9 11.65a5.01 5.01 0 01-4.12-5.77 5.01 5.01 0 019.89 0"/>
    <path d="M7.35 10.64a.4.4 0 01-.25-.52.37.37 0 01.25-.25l6.94-2.82L11.45 14c-.09.22-.34.3-.56.22a.57.57 0 01-.25-.25l-.84-2.48zm2.48.84l1.53-1.53"/>
  </g>
</svg>