<svg xmlns="http://www.w3.org/2000/svg" viewBox="0 0 16 16">
  <g fill="none" stroke="#000" stroke-linecap="round" stroke-linejoin="round" stroke-width=".75">
    <path d="M4.66 11.31a5.02 5.02 0 117.11-4.57M3.54 2.86l2.94 1.11c.38.14.6.55.52.94l-.14.9a.86.86 0 01-.63.65l-1.17.28-.66 1.6c-.11.32-.34.57-.63.77l-1.03.72"/>
    <path d="M10.23 3.11L9.4 4.74a.95.95 0 00-.06.63l.32.94M7.57 9.69h5.86c.46 0 .83.37.83.83v2.94c0 .45-.37.83-.83.83H7.57a.83.83 0 01-.83-.83v-2.94c0-.46.37-.83.83-.83zm0 0M8.43 9.69v4.6M12.6 9.69v4.6M9.26 9.69v-.43c0-.69.57-1.26 1.26-1.26.68 0 1.25.57 1.25 1.26v.43"/>
  </g>
</svg>