<svg xmlns="http://www.w3.org/2000/svg" viewBox="0 0 16 16">
  <g fill="none" stroke="#000" stroke-linecap="round" stroke-linejoin="round" stroke-width=".75">
    <path d="M14.29 3.8c0 .94-1.43 3.17-1.92 3.94a.22.22 0 01-.28.06c-.03-.03-.06-.03-.06-.06-.51-.77-1.92-2.97-1.92-3.94a2.1 2.1 0 012.09-2.09 2.1 2.1 0 012.09 2.1zm0 0M12.2 3.6c.11 0 .2.09.2.2M11.97 3.8c0-.11.09-.2.2-.2M12.2 4.03a.2.2 0 01-.2-.2M12.4 3.8a.2.2 0 01-.2.2M4.23 8.2c.11 0 .2.09.2.2M4.03 8.43c0-.12.08-.2.2-.2M4.23 8.63a.2.2 0 01-.2-.2M4.43 8.43a.2.2 0 01-.2.2"/>
    <path d="M4.23 5.91a2.5 2.5 0 012.51 2.52c0 1.09-1.51 3.11-2.17 4a.44.44 0 01-.6.09l-.08-.09c-.66-.89-2.18-2.95-2.18-4a2.5 2.5 0 012.52-2.52zm0 0M4.23 14.29h5.03c.45 0 .83-.38.83-.83v-2.52c0-.46.37-.83.82-.83h1.7"/>
  </g>
</svg>