<svg xmlns="http://www.w3.org/2000/svg" viewBox="0 0 16 16">
  <path fill="none" stroke="#000" stroke-linecap="round" stroke-linejoin="round" stroke-width=".75" d="M7.54 1.71c.83 0 1.49.66 1.49 1.49s-.66 1.49-1.49 1.49-1.48-.66-1.48-1.5c0-.82.65-1.48 1.48-1.48zm4 6.18c-.4 0-.74-.18-1-.5a4.34 4.34 0 00-3.43-1.65 3.4 3.4 0 00-3.4 3.4.86.86 0 001.72 0c0-.77.51-1.45 1.28-1.66v.29c0 1.83-.54 3.63-1.57 5.14-.25.4-.14.92.23 1.18.4.25.92.14 1.17-.23.55-.8.98-1.69 1.29-2.6.88.57 1.54 1.4 1.88 2.4.15.45.6.71 1.06.57.46-.14.71-.6.57-1.06 0-.03 0-.03-.03-.06a6.22 6.22 0 00-3.08-3.57c.08-.6.14-1.17.14-1.77v-.03c.32.17.6.4.83.69a2.96 2.96 0 002.32 1.11c.45 0 .85-.37.85-.85.03-.43-.37-.8-.83-.8zm0 0"/>
</svg>