<svg xmlns="http://www.w3.org/2000/svg" viewBox="0 0 16 16">
  <path fill="none" stroke="#000" stroke-linecap="round" stroke-linejoin="round" stroke-width=".75" d="M8 1.71c.86 0 1.57.72 1.57 1.58 0 .85-.71 1.57-1.57 1.57-.86 0-1.57-.72-1.57-1.57 0-.86.71-1.58 1.57-1.58zm5.4 4.49H2.6a.9.9 0 00-.89.89c0 .51.4.91.9.91h4.48v1.8h-.9a2.68 2.68 0 00-2.67 2.68v.9c0 .48.4.88.88.88a.9.9 0 00.89-.89v-.89c0-.48.4-.88.88-.88H7.4l.6 1.2a2.82 2.82 0 002.46 1.49h1.14a.89.89 0 000-1.77h-1.14a.9.9 0 01-.8-.5l-.75-1.5V8h4.49a.9.9 0 00.89-.89.9.9 0 00-.9-.91zM7.11 9.8h1.8"/>
</svg>