<svg width="120" height="43" viewBox="0 0 120 43" fill="none" xmlns="http://www.w3.org/2000/svg">
<g clip-path="url(#clip0_1968_35171)">
<path d="M3.40932 0.642212L116.762 0.844046C118.346 0.844046 119.761 0.608725 119.761 4.00409L119.623 41.3332H0.54834V3.86533C0.54834 2.19142 0.71041 0.642212 3.40932 0.642212Z" fill="#AAB2AB"/>
<path d="M117.753 0.196289H2.24763C1.00833 0.196289 0 1.20452 0 2.4432V41.6893C0 41.9692 0.227099 42.1963 0.507562 42.1963H119.492C119.773 42.1963 120 41.9692 120 41.6893V2.4432C120 1.20452 118.992 0.196289 117.753 0.196289ZM2.24763 1.2113H117.753C118.433 1.2113 118.985 1.76393 118.985 2.4432C118.985 2.4432 118.985 18.2337 118.985 29.6575H36.429C33.403 35.128 27.5723 38.8427 20.8818 38.8427C14.1894 38.8427 8.3607 35.1314 5.33668 29.6575H1.01512C1.01512 18.2337 1.01512 2.4432 1.01512 2.4432C1.01511 1.76394 1.56829 1.2113 2.24763 1.2113Z" fill="black"/>
<path d="M34.5225 19.7411C34.5274 27.2703 28.4259 33.3774 20.896 33.3827C13.366 33.3871 7.2578 27.2868 7.25293 19.7576C7.25293 19.7518 7.25293 19.7465 7.25293 19.7411C7.24806 12.211 13.3495 6.10388 20.8794 6.09949C28.4104 6.09515 34.5186 12.1954 34.5225 19.7246C34.5225 19.7295 34.5225 19.7353 34.5225 19.7411Z" fill="white"/>
<path d="M31.9723 8.63662C34.9953 11.6598 36.5073 15.3618 36.5073 19.7412C36.5073 24.121 35.0215 27.7832 32.0499 30.7293C28.8959 33.8311 25.1692 35.3818 20.868 35.3818C16.6193 35.3818 12.9567 33.8442 9.88221 30.7676C6.80576 27.692 5.26855 24.0167 5.26855 19.7412C5.26855 15.4662 6.80576 11.7647 9.88221 8.63662C12.8791 5.61196 16.5416 4.10059 20.868 4.10059C25.2478 4.10059 28.9483 5.61196 31.9723 8.63662ZM11.9173 10.6701C9.36104 13.2518 8.0829 16.2759 8.0829 19.7451C8.0829 23.2132 9.34844 26.2117 11.8775 28.741C14.4085 31.2703 17.4199 32.5351 20.9146 32.5351C24.4093 32.5351 27.4469 31.2577 30.0294 28.7022C32.4808 26.3291 33.7065 23.3442 33.7065 19.7451C33.7065 16.1731 32.4604 13.1411 29.9692 10.6507C27.479 8.16066 24.4608 6.91516 20.9146 6.91516C17.3685 6.91516 14.3678 8.16698 11.9173 10.6701ZM18.6437 18.2192C18.2536 17.3676 17.6693 16.9421 16.8891 16.9421C15.511 16.9421 14.822 17.8698 14.822 19.7252C14.822 21.581 15.511 22.5082 16.8891 22.5082C17.7994 22.5082 18.4496 22.0565 18.8397 21.1512L20.7506 22.1686C19.8393 23.7867 18.4729 24.5965 16.6513 24.5965C15.2461 24.5965 14.1203 24.1656 13.275 23.3044C12.4288 22.4427 12.0056 21.255 12.0056 19.7412C12.0056 18.2531 12.4423 17.0722 13.3138 16.1974C14.1853 15.3226 15.2723 14.8859 16.5737 14.8859C18.5001 14.8859 19.8781 15.6443 20.7127 17.1605L18.6437 18.2192ZM27.6343 18.2192C27.2431 17.3676 26.6696 16.9421 25.9145 16.9421C24.5083 16.9421 23.8047 17.8698 23.8047 19.7252C23.8047 21.581 24.5083 22.5082 25.9145 22.5082C26.8268 22.5082 27.4653 22.0565 27.8293 21.1512L29.7829 22.1686C28.8735 23.7867 27.509 24.5965 25.6904 24.5965C24.287 24.5965 23.1642 24.1656 22.3189 23.3044C21.4756 22.4427 21.0525 21.255 21.0525 19.7412C21.0525 18.2531 21.4814 17.0722 22.3393 16.1974C23.1962 15.3226 24.287 14.8859 25.6127 14.8859C27.5352 14.8859 28.9123 15.6443 29.7431 17.1605L27.6343 18.2192Z" fill="black"/>
<path d="M48.0932 32.9437C48.4086 32.9437 48.6978 32.9719 48.9579 33.0272C49.218 33.0825 49.4403 33.1737 49.6266 33.3008C49.8119 33.427 49.9556 33.5958 50.0585 33.8054C50.1604 34.016 50.2118 34.2751 50.2118 34.5846C50.2118 34.9185 50.1361 35.196 49.9837 35.4182C49.8323 35.6414 49.6081 35.8229 49.3102 35.9655C49.7198 36.0829 50.0255 36.2886 50.2273 36.5827C50.4292 36.8767 50.5301 37.2309 50.5301 37.6452C50.5301 37.979 50.4651 38.2682 50.335 38.5127C50.205 38.7563 50.0293 38.9562 49.81 39.1105C49.5897 39.2658 49.3384 39.3803 49.0569 39.454C48.7745 39.5287 48.4853 39.5656 48.1874 39.5656H44.9712V32.9437L48.0932 32.9437ZM47.9079 35.622C48.167 35.622 48.3815 35.5599 48.5484 35.4367C48.7153 35.3134 48.7988 35.1135 48.7988 34.836C48.7988 34.6817 48.7706 34.5546 48.7153 34.4566C48.659 34.3576 48.5853 34.2809 48.4921 34.2246C48.3989 34.1693 48.2922 34.1305 48.1718 34.1092C48.0515 34.0878 47.9253 34.0771 47.7953 34.0771H46.4308V35.622H47.9079ZM47.9923 38.4322C48.135 38.4322 48.2708 38.4186 48.4009 38.3905C48.5309 38.3623 48.6454 38.3158 48.7454 38.2517C48.8444 38.1867 48.923 38.0984 48.9822 37.9868C49.0414 37.8762 49.0705 37.7335 49.0705 37.5608C49.0705 37.2212 48.9744 36.9786 48.7823 36.833C48.5901 36.6884 48.3368 36.6157 48.0204 36.6157H46.4308V38.4322H47.9923Z" fill="white"/>
<path d="M50.7871 32.9437H52.4204L53.9713 35.5589L55.5124 32.9437H57.136L54.6778 37.0242V39.5656H53.2182V36.9873L50.7871 32.9437Z" fill="white"/>
<path d="M72.5173 32.9437L75.2841 37.3861H75.2997V32.9437H76.6661V39.5656H75.2094L72.4532 35.1319H72.4348V39.5656H71.0684V32.9437H72.5173Z" fill="white"/>
<path d="M82.1947 34.7079C82.1083 34.5682 81.9996 34.4459 81.8696 34.3411C81.7395 34.2363 81.593 34.1538 81.429 34.0956C81.265 34.0364 81.0932 34.0073 80.9146 34.0073C80.5866 34.0073 80.3081 34.0704 80.079 34.1975C79.85 34.3237 79.6647 34.4935 79.523 34.707C79.3803 34.9205 79.2765 35.163 79.2114 35.4348C79.1464 35.7065 79.1144 35.9879 79.1144 36.278C79.1144 36.5565 79.1464 36.8272 79.2114 37.0893C79.2765 37.3522 79.3803 37.589 79.523 37.7986C79.6647 38.0092 79.85 38.1771 80.079 38.3042C80.3081 38.4313 80.5866 38.4944 80.9146 38.4944C81.3591 38.4944 81.7075 38.3585 81.9579 38.0858C82.2083 37.8141 82.3616 37.4551 82.4169 37.0097H83.827C83.7902 37.424 83.6941 37.7986 83.5398 38.1324C83.3855 38.4672 83.1807 38.7515 82.9274 38.9873C82.6741 39.2231 82.3771 39.4026 82.0365 39.5269C81.6968 39.6511 81.3222 39.7132 80.9146 39.7132C80.4071 39.7132 79.9509 39.6249 79.5453 39.4483C79.1406 39.2726 78.798 39.029 78.5195 38.7205C78.24 38.4109 78.0265 38.047 77.878 37.6298C77.7295 37.2115 77.6548 36.7622 77.6548 36.279C77.6548 35.7841 77.7295 35.3251 77.878 34.901C78.0265 34.477 78.24 34.1073 78.5195 33.7919C78.798 33.4765 79.1406 33.2291 79.5453 33.0496C79.9509 32.87 80.4071 32.7808 80.9146 32.7808C81.2795 32.7808 81.6241 32.8332 81.9492 32.9389C82.2733 33.0437 82.5645 33.1971 82.8207 33.3989C83.0778 33.5998 83.2894 33.8491 83.4563 34.1461C83.6232 34.443 83.7281 34.7836 83.7717 35.1669H82.3616C82.3374 35 82.2811 34.8467 82.1947 34.7079Z" fill="white"/>
<path d="M98.3552 32.9437L101.122 37.3861H101.138V32.9437H102.504V39.5656H101.047L98.2911 35.1319H98.2727V39.5656H96.9062V32.9437H98.3552Z" fill="white"/>
<path d="M106.64 32.9437C107.068 32.9437 107.465 33.0117 107.834 33.1475C108.203 33.2834 108.521 33.4881 108.791 33.7598C109.06 34.0315 109.27 34.3721 109.422 34.7797C109.574 35.1882 109.65 35.6676 109.65 36.2178C109.65 36.7001 109.588 37.1445 109.464 37.553C109.34 37.9606 109.153 38.3138 108.902 38.6098C108.651 38.9067 108.339 39.1406 107.964 39.3104C107.589 39.4802 107.149 39.5656 106.64 39.5656H103.78V32.9437L106.64 32.9437ZM106.538 38.339C106.749 38.339 106.953 38.3051 107.151 38.2372C107.349 38.1692 107.525 38.0567 107.68 37.8985C107.834 37.7413 107.958 37.5365 108.051 37.2833C108.144 37.03 108.19 36.7204 108.19 36.3566C108.19 36.0227 108.158 35.7219 108.093 35.4531C108.028 35.1843 107.921 34.9544 107.773 34.7632C107.624 34.572 107.428 34.4245 107.184 34.3226C106.939 34.2207 106.637 34.1703 106.279 34.1703H105.24V38.339L106.538 38.339Z" fill="white"/>
<path d="M87.8014 15.1776C87.8063 20.6782 83.3498 25.1395 77.8482 25.1439C72.3475 25.1473 67.8852 20.6918 67.8814 15.1921C67.8814 15.1863 67.8814 15.182 67.8814 15.1776C67.8775 9.67653 72.3339 5.21519 77.8346 5.21082C83.3353 5.20741 87.7976 9.66293 87.8014 15.1625C87.8014 15.1674 87.8014 15.1727 87.8014 15.1776Z" fill="white"/>
<path d="M77.8259 3.58252C81.0779 3.58252 83.8254 4.70331 86.0701 6.94438C88.3148 9.18647 89.4377 11.9312 89.4377 15.1776C89.4377 18.4235 88.3343 21.1391 86.1283 23.3234C83.7866 25.6232 81.0187 26.7722 77.8259 26.7722C74.6728 26.7722 71.9535 25.632 69.6699 23.3516C67.3864 21.0722 66.2451 18.3468 66.2451 15.1776C66.2451 12.0078 67.3864 9.26312 69.6699 6.94438C71.8952 4.70331 74.6146 3.58252 77.8259 3.58252ZM68.8538 12.0622C68.5083 13.0408 68.3346 14.0791 68.3346 15.1776C68.3346 17.7476 69.274 19.9693 71.1509 21.8446C73.0278 23.7184 75.2628 24.6558 77.856 24.6558C80.4481 24.6558 82.7025 23.7092 84.6183 21.815C85.2597 21.1954 85.7887 20.5195 86.2031 19.7869L81.831 17.8408C81.5351 19.3114 80.2239 20.3046 78.6401 20.421V22.209H77.3086V20.421C76.0072 20.4065 74.7504 19.8742 73.7887 19.0329L75.3861 17.4226C76.1547 18.1465 76.9243 18.471 77.9744 18.471C78.6546 18.471 79.4087 18.2052 79.4087 17.3187C79.4087 17.0048 79.2874 16.7865 79.0962 16.622L77.9899 16.131L76.6137 15.5172C75.9325 15.2135 75.355 14.9578 74.7766 14.6997L68.8538 12.0622ZM77.856 5.66929C75.2231 5.66929 72.9987 6.59651 71.179 8.45237C70.6841 8.95211 70.2532 9.47369 69.8883 10.0186L74.3205 11.9923C74.7213 10.7624 75.8898 10.0161 77.3086 9.93364V8.14571H78.6401V9.93364C79.5572 9.97781 80.5626 10.2291 81.5535 10.9967L80.0298 12.5629C79.4679 12.164 78.7585 11.8836 78.0481 11.8836C77.4716 11.8836 76.6574 12.0602 76.6574 12.7846C76.6574 12.8948 76.6953 12.9918 76.7622 13.0791L78.2451 13.738L79.2486 14.1854C79.8901 14.4721 80.5034 14.7438 81.11 15.0141L87.0522 17.6593C87.2483 16.8816 87.3473 16.0538 87.3473 15.1776C87.3473 12.5299 86.4185 10.2878 84.561 8.45237C82.722 6.59651 80.4879 5.66929 77.856 5.66929Z" fill="black"/>
<path d="M114.668 15.1776C114.673 21.0222 109.937 25.7644 104.092 25.7692C98.2457 25.7726 93.5029 21.0381 93.499 15.1921C93.499 15.1877 93.499 15.1819 93.499 15.1776C93.4952 9.33246 98.2301 4.59022 104.076 4.58582C109.922 4.58097 114.664 9.31643 114.668 15.1615C114.668 15.1674 114.668 15.1717 114.668 15.1776Z" fill="white"/>
<path d="M103.918 3.5824C100.706 3.5824 97.9866 4.70219 95.7612 6.94428C93.4777 9.26298 92.3364 12.0067 92.3364 15.1775C92.3364 18.3467 93.4777 21.0711 95.7612 23.3515C98.0438 25.6318 100.764 26.7721 103.918 26.7721C107.111 26.7721 109.878 25.6217 112.22 23.3233C114.425 21.139 115.529 18.4234 115.529 15.1775C115.529 11.9296 114.406 9.18634 112.161 6.94428C109.917 4.7022 107.168 3.5824 103.918 3.5824ZM103.946 5.66821C106.578 5.66821 108.813 6.59639 110.652 8.45223C112.51 10.2877 113.438 12.5288 113.438 15.1775C113.438 17.8441 112.529 20.0565 110.711 21.8149C108.794 23.7091 106.539 24.6547 103.946 24.6547C101.353 24.6547 99.1182 23.7183 97.2413 21.843C95.3643 19.9692 94.4259 17.7465 94.4259 15.1775C94.4259 12.606 95.374 10.3648 97.2713 8.45223C99.09 6.59639 101.314 5.66821 103.946 5.66821Z" fill="black"/>
<path d="M108.313 12.4288H99.8848V14.4254H108.313V12.4288ZM108.313 16.1556H99.8848V18.1516H108.313V16.1556Z" fill="black"/>
<path d="M51.7643 26.151C57.6952 26.151 62.5031 21.3436 62.5031 15.4133C62.5031 9.48299 57.6952 4.67554 51.7643 4.67554C45.8333 4.67554 41.0254 9.48299 41.0254 15.4133C41.0254 21.3436 45.8333 26.151 51.7643 26.151Z" fill="white"/>
<path d="M54.872 12.3061C54.872 11.8923 54.5362 11.5575 54.1228 11.5575H49.3801C48.9666 11.5575 48.6309 11.8923 48.6309 12.3061V17.0489H49.9536V22.6654H53.5483V17.0489H54.872V12.3061Z" fill="black"/>
<path d="M51.7516 10.9326C52.6474 10.9326 53.3737 10.2064 53.3737 9.31059C53.3737 8.41479 52.6474 7.6886 51.7516 7.6886C50.8557 7.6886 50.1294 8.41479 50.1294 9.31059C50.1294 10.2064 50.8557 10.9326 51.7516 10.9326Z" fill="black"/>
<path fill-rule="evenodd" clip-rule="evenodd" d="M51.7365 3.5824C48.5252 3.5824 45.8059 4.7027 43.5806 6.94477C41.297 9.26301 40.1558 12.0077 40.1558 15.1765C40.1558 18.3453 41.297 21.0711 43.5806 23.3515C45.8641 25.6314 48.5834 26.7716 51.7365 26.7716C54.9294 26.7716 57.6972 25.6222 60.039 23.3219C62.2449 21.139 63.3474 18.4234 63.3474 15.1765C63.3474 11.9296 62.2255 9.18634 59.9808 6.94476C57.736 4.70271 54.9886 3.5824 51.7365 3.5824ZM51.7666 5.66872C54.3985 5.66872 56.6326 6.5964 58.4707 8.45177C60.3292 10.2872 61.2579 12.5293 61.2579 15.1765C61.2579 17.8431 60.3486 20.0565 58.5289 21.8149C56.6132 23.7086 54.3588 24.6552 51.7666 24.6552C49.1725 24.6552 46.9375 23.7183 45.0606 21.844C43.1837 19.9692 42.2452 17.747 42.2452 15.1765C42.2452 12.6064 43.1934 10.3649 45.0897 8.45177C46.9093 6.59641 49.1347 5.66872 51.7666 5.66872Z" fill="black"/>
</g>
<defs>
<clipPath id="clip0_1968_35171">
<rect width="120" height="42" fill="white" transform="translate(0 0.196289)"/>
</clipPath>
</defs>
</svg>
