<svg xmlns="http://www.w3.org/2000/svg" viewBox="0 0 16 16">
  <g stroke="#000" stroke-linecap="round" stroke-linejoin="round" stroke-width=".75">
    <path fill="none" d="M4.26 1.71h7.48c.46 0 .83.38.83.83v10.89c0 .46-.37.83-.83.83H4.26a.83.83 0 01-.83-.83V2.54c0-.45.37-.83.83-.83zm0 0"/>
    <path fill="none" d="M5.52 3.4h5c.22 0 .42.2.42.43v1.69c0 .22-.2.42-.42.42h-5a.44.44 0 01-.43-.42v-1.7c0-.25.2-.42.43-.42zm0 0"/>
    <path d="M5.71 8c.12 0 .2.09.2.2a.2.2 0 01-.2.2.2.2 0 01-.2-.2c0-.11.1-.2.2-.2zm2.38 0c.1 0 .2.09.2.2a.2.2 0 01-.2.2.2.2 0 01-.2-.2c0-.11.08-.2.2-.2zm2.2 0c.1 0 .2.09.2.2a.2.2 0 01-.2.2.2.2 0 01-.2-.2c0-.11.08-.2.2-.2zm-4.58 2.09c.12 0 .2.08.2.2a.2.2 0 01-.2.2.2.2 0 01-.2-.2c0-.12.1-.2.2-.2zm2.38 0c.1 0 .2.08.2.2a.2.2 0 01-.2.2.2.2 0 01-.2-.2c0-.12.08-.2.2-.2zm2.2 0c.1 0 .2.08.2.2a.2.2 0 01-.2.2.2.2 0 01-.2-.2c0-.12.08-.2.2-.2zM5.71 12.2c.12 0 .2.09.2.2a.2.2 0 01-.2.2.2.2 0 01-.2-.2c0-.11.1-.2.2-.2zm2.38 0c.1 0 .2.09.2.2a.2.2 0 01-.2.2.2.2 0 01-.2-.2c0-.11.08-.2.2-.2zm2.2 0c.1 0 .2.09.2.2a.2.2 0 01-.2.2.2.2 0 01-.2-.2c0-.11.08-.2.2-.2zm0 0"/>
  </g>
</svg>