<svg xmlns="http://www.w3.org/2000/svg" viewBox="0 0 16 16">
  <path fill="none" stroke="#000" stroke-linecap="round" stroke-linejoin="round" stroke-width=".75" d="M1.71 14H14.3m-9.64-3.34H2.97c-.23 0-.43.2-.43.43V14h2.52v-2.94a.4.4 0 00-.4-.4zm4.17-4.2H7.14c-.23 0-.43.2-.43.43V14h2.52V6.89c.03-.23-.17-.43-.4-.43zm4.2 2.51h-1.69c-.23 0-.43.2-.43.43V14h2.52V9.4c.03-.23-.17-.43-.4-.43zM2.54 6.03a.83.83 0 010 1.66.79.79 0 01-.83-.8c0-.5.38-.86.83-.86zm3.77-4.6c.46 0 .83.37.83.83a.83.83 0 01-1.66 0c0-.46.38-.83.83-.83zm7.15 2.09a.83.83 0 11-.83.82.8.8 0 01.83-.82zM3.09 6.23L5.8 2.91m6.86 1.2L7.1 2.51"/>
</svg>