<svg xmlns="http://www.w3.org/2000/svg" viewBox="0 0 16 16">
  <g fill="none" stroke="#000" stroke-linecap="round" stroke-linejoin="round" stroke-width=".75">
    <path d="M12.63 9.23l-2.89.54m-.4-3.83l-1.94.63a.61.61 0 01-.77-.34c-.15-.32-.03-.71.28-.86l1.9-.94c.3-.17.67-.2 1.02-.06L12.6 5.4"/>
    <path d="M3.34 9.23h1.37l1.98 2.2c.25.31.74.34 1.05.09a.72.72 0 00.26-.58v-.34l.09.03a.9.9 0 001.2-.52c.05-.11.05-.22.05-.34h.29c.46 0 .83-.37.83-.83a.78.78 0 00-.17-.48L8.54 6.2M7.2 5.23L7 5.06c-.2-.15-.46-.23-.69-.23-.14 0-.28.03-.42.08l-2.5 1"/>
    <path d="M1.71 4.97h1.12c.28 0 .54.23.57.51v3.6c0 .3-.26.52-.57.52H1.7m12.59 0h-1.12a.58.58 0 01-.57-.51v-3.6c0-.3.26-.52.57-.52h1.12M8 10.6l-.54-.54m1.91-.26l-.83-.83"/>
  </g>
</svg>