<svg xmlns="http://www.w3.org/2000/svg" viewBox="0 0 16 16">
  <g fill="none" stroke="#000" stroke-linecap="round" stroke-linejoin="round" stroke-width=".75">
    <path d="M14 10.94V8.43h-2.57"/>
    <path d="M14 8.43l-2.89 2.83c-.34.31-.82.45-1.28.31l-3.26-.86c-.46-.1-.91 0-1.23.32L2 14.29M8 4.23H6.83a.76.76 0 00-.77.74c0 .32.2.57.48.69l1.17.45c.4.15.58.6.43.98a.78.78 0 01-.71.48H6.29m.85-3.34V3.8m0 4.2v-.43"/>
    <path d="M11.34 6.74A4.2 4.2 0 008 1.8a4.3 4.3 0 00-5.06 3.3 4.19 4.19 0 001.63 4.17"/>
  </g>
</svg>