<svg xmlns="http://www.w3.org/2000/svg" viewBox="0 0 16 16">
  <path fill="none" stroke="#000" stroke-linecap="round" stroke-linejoin="round" stroke-width=".75" d="M7.57 13.74A5.87 5.87 0 017.57 2m0 0S4.63 3.69 4.63 7.86c0 4.2 2.94 5.85 2.94 5.85m0-8.37H2.29m5.28 5.03H2.29M11.77 2a1.69 1.69 0 110 3.38 1.69 1.69 0 010-3.38zm1.46 4.66l-1.46 2.03-1.46-2.03a2.5 2.5 0 00-1.05 2.03v1.68c0 .46.37.83.83.83h.43v1.69c0 .45.37.82.82.82h.83c.46 0 .83-.37.83-.82v-1.7h.43c.46 0 .83-.36.83-.82V8.7c.03-.8-.37-1.55-1.03-2.03zm0 0"/>
</svg>