<svg xmlns="http://www.w3.org/2000/svg" viewBox="0 0 16 16">
  <g fill="none" stroke="#000" stroke-linecap="round" stroke-linejoin="round" stroke-width=".75">
    <path stroke-width=".75" d="M11.77 9.26h-1.14c-.4 0-.74.34-.74.74 0 .31.2.57.48.69l1.15.45c.37.15.57.6.42.97a.74.74 0 01-.68.46H10.1M10.94 9.26v-.43M10.94 13.03v-.43"/>
    <path stroke-width=".75" d="M10.94 7.57a3.35 3.35 0 013.35 3.34 3.37 3.37 0 01-3.35 3.38 3.35 3.35 0 01-3.34-3.35 3.33 3.33 0 013.34-3.37zm0 0"/>
    <path stroke-width=".75" d="M7.57 14.26a6.25 6.25 0 01-5.83-6.69 6.28 6.28 0 0112.49-.43"/>
    <path stroke-width=".75" d="M6.48 14.11c-.85-1.25-1.42-3.5-1.42-6.11 0-2.6.57-4.86 1.42-6.11M1.71 7.57h5.32M2.97 4.23h10.06M2.43 10.94h3.46M9.52 1.89a9.27 9.27 0 011.28 3.97"/>
  </g>
</svg>