<svg xmlns="http://www.w3.org/2000/svg" viewBox="0 0 16 16">
  <g fill="none" stroke="#000" stroke-linecap="round" stroke-linejoin="round" stroke-width=".75">
    <path d="M4.23 1.71a1.69 1.69 0 110 3.38 1.69 1.69 0 010-3.38zm0 4.2v3.35m1.25 5.03l.43-4.2h.83v-1.7a2.5 2.5 0 00-2.51-2.5 2.5 2.5 0 00-2.52 2.5v1.7h.83l.43 4.2zm2.95-5.03h5.03c.45 0 .83-.37.83-.83V2.54a.83.83 0 00-.83-.83H7.57"/>
    <path d="M8 6.31l1.26-1.25 1.26 1.25 2.08-2.08"/>
    <path d="M10.94 4.23h1.69v1.68m-2.54 3.35v2.94m-1.66 0h3.34"/>
  </g>
</svg>