<svg xmlns="http://www.w3.org/2000/svg" viewBox="0 0 16 16">
  <g fill="none" stroke="#000" stroke-linecap="round" stroke-linejoin="round" stroke-width=".75">
    <path d="M1.71 14.29H14.3m-9.64-3.35H2.97c-.23 0-.43.2-.43.43v2.92h2.52v-2.95a.4.4 0 00-.4-.4zm4.17-4.2H7.14c-.23 0-.43.2-.43.43v7.12h2.52V7.17c.03-.23-.17-.43-.4-.43zm4.2 1.69h-1.69c-.23 0-.43.2-.43.43v5.43h2.52V8.83c.03-.23-.17-.4-.4-.4zm1.26-4.2V1.71h-2.52"/>
    <path d="M14.29 1.71l-2.83 2.83c-.32.32-.8.43-1.26.32L7 4c-.43-.11-.89 0-1.2.31L2.54 7.57"/>
  </g>
</svg>