<svg xmlns="http://www.w3.org/2000/svg" viewBox="0 0 16 16">
  <g fill="none" stroke="#000" stroke-linecap="round" stroke-linejoin="round" stroke-width=".75">
    <path d="M7.97 14.29V4.14s-1.43-1.6-6.26-1.66a.26.26 0 00-.2.09c-.05.09-.08.14-.08.23v9.54c0 .18.11.29.28.32 4.83.03 6.26 1.63 6.26 1.63zM6.23 7.91c-1-.34-2.03-.54-3.06-.6m3.06 3.06c-1-.34-2.03-.54-3.06-.6m6.54-1.86c1-.34 2.03-.54 3.06-.6m-3.06 3.06c1-.34 2.03-.54 3.06-.6"/>
    <path d="M12.77 2.57c.43-.03.92-.05 1.43-.05.09 0 .14.02.2.08a.3.3 0 01.08.23v9.54c0 .17-.1.29-.28.32-4.8 0-6.23 1.6-6.23 1.6"/>
    <path d="M7.97 14.29V4.14s.66-.74 2.63-1.23m2.17 2.63V1.71c-.74.06-1.46.18-2.17.35v3.48l1.09-.88zm0 0"/>
  </g>
</svg>