<svg xmlns="http://www.w3.org/2000/svg" viewBox="0 0 16 16">
  <g fill="none" stroke="#000" stroke-linecap="round" stroke-linejoin="round" stroke-width=".75">
    <path d="M6.29 14.29V12.6h-.86a1.7 1.7 0 01-1.69-1.69V9.23H2.71a.44.44 0 01-.42-.43c0-.06 0-.11.02-.14.38-.97.72-1.92 1.09-2.77m10.31.02a5.23 5.23 0 01-1.57 4.9v3.48M8.37 5.91c.69 0 1.26.57 1.26 1.26 0 .69-.57 1.26-1.26 1.26-.68 0-1.26-.57-1.26-1.26 0-.69.58-1.26 1.26-1.26zm2.94-1.68c.46 0 .83.37.83.83a.83.83 0 01-1.66 0c-.02-.46.38-.83.83-.83zm-5.88 0a.83.83 0 110 1.66.83.83 0 010-1.66zm2.94 1.68v-4.2"/>
    <path d="M5.43 4.23c0-.92.74-1.69 1.68-1.69h2.52c.91 0 1.68.75 1.68 1.69"/>
  </g>
</svg>