<svg xmlns="http://www.w3.org/2000/svg" viewBox="0 0 16 16">
  <path fill="none" stroke="#000" stroke-linecap="round" stroke-linejoin="round" stroke-width=".75" d="M9.26 12.6h-.57a.31.31 0 01-.3-.29V3.26a.3.3 0 01.3-.29h.57M7.17 8h1.26m3.77-6.29c.69 0 1.26.58 1.26 1.26 0 .69-.57 1.26-1.26 1.26-.68 0-1.26-.57-1.26-1.26 0-.68.54-1.26 1.26-1.26zm2.09 4.6a2.32 2.32 0 00-2.1-1.68c-1 .03-1.82.71-2.08 1.68zM12.2 9.69c.69 0 1.26.57 1.26 1.25 0 .69-.57 1.26-1.26 1.26-.68 0-1.26-.57-1.26-1.26 0-.71.54-1.25 1.26-1.25zm2.09 4.6a2.28 2.28 0 00-2.1-1.69c-1 .03-1.82.71-2.08 1.69zM4.23 4.66a1.69 1.69 0 110 3.37 1.69 1.69 0 010-3.37zm-2.52 6.68a2.5 2.5 0 012.52-2.51 2.5 2.5 0 012.51 2.51zm0 0"/>
</svg>