<svg xmlns="http://www.w3.org/2000/svg" viewBox="0 0 16 16">
  <path fill="none" stroke="#000" stroke-linecap="round" stroke-linejoin="round" stroke-width=".75" d="M7.4 10.8a1.3 1.3 0 01-.34-2.26c.14-1.2-1.06-2.28-2.4-2.2-1.35-.08-2.57 1-2.4 2.2.57.46.68 1.26.22 1.83-.14.2-.34.34-.57.43-.1.03-.2.11-.2.23.03 1.28 1.38 2.45 2.83 2.45h.2c1.46 0 2.83-1.17 2.83-2.45 0-.12-.05-.2-.17-.23zM4.66 8.83V1.7m0 12.59v-1.26m-.86-8.8h1.68M3.8 2.54h1.68m3.23 6.63c.03.29.26.52.55.52l4.14-.03a.6.6 0 00.54-.52l.35-2.51a.82.82 0 00-.12-.52.5.5 0 00-.4-.22l-4.86.02a.45.45 0 00-.4.23.68.68 0 00-.11.52zm2.63-.74v5.86m-2.08-.03l2.08-1.66 2.09 1.69"/>
</svg>