<svg xmlns="http://www.w3.org/2000/svg" viewBox="0 0 16 16">
  <g fill="none" stroke="#000" stroke-linecap="round" stroke-linejoin="round" stroke-width=".75">
    <path d="M6.74 14.17A6.29 6.29 0 019.26 1.86a6.33 6.33 0 014.97 5.31"/>
    <path d="M6.48 14.11c-.85-1.25-1.42-3.5-1.42-6.11 0-2.6.57-4.86 1.42-6.11M1.74 7.57h6.69M2.97 4.23h10.06m-10.6 6.71h4.71m2.38-9.05a8.82 8.82 0 011.22 3.6m.6 1.68c.8 0 1.46.66 1.46 1.46 0 .8-.66 1.46-1.46 1.46a1.46 1.46 0 010-2.91zm0 3.35a2.94 2.94 0 00-2.94 2.94v.83h5.89v-.83a2.94 2.94 0 00-2.95-2.94zm0 0"/>
  </g>
</svg>