<svg xmlns="http://www.w3.org/2000/svg" viewBox="0 0 16 16">
  <g fill="none" stroke="#000" stroke-linecap="round" stroke-linejoin="round" stroke-width=".75">
    <path d="M3.69 9.26h1.68v3.34H3.7zm3.34 0H8.7v3.34H7.03zm3.34 0h1.69v3.34h-1.69zm2.52-.43c0 .23-.2.43-.43.43h-9.2a.44.44 0 01-.43-.43c0-.26.17-.49.4-.54L7.71 6.8a.37.37 0 01.26 0l4.51 1.49c.26.08.4.31.4.54zM9.54 5.91h1.69v1.95"/>
    <path d="M4.52 7.86V5.9H6.2m-1.68.01a3.35 3.35 0 016.68 0m-3.34-4.2v.83M2 14.29h11.74M2.83 12.6h10.06"/>
  </g>
</svg>