<svg xmlns="http://www.w3.org/2000/svg" viewBox="0 0 16 16">
  <g fill="none" stroke="#000" stroke-linecap="round" stroke-linejoin="round" stroke-width=".75">
    <path d="M5.06 4.66v-2.4c0-.32.23-.55.54-.55h5.43L14.29 5v8.74c0 .32-.23.55-.55.55H10.1"/>
    <path d="M10.94 1.71v2.8c0 .32.26.58.58.58h2.77m-1.38 2.08H8.43m4.48 5.03h-1.57m1.57-2.51H9.26M1.71 12.6l.43 1.69H8l.43-1.69"/>
    <path d="M6.74 10.94h-.83V9.46c.8-.46 1.09-1.49.6-2.29a1.65 1.65 0 00-2.28-.6 1.65 1.65 0 00-.6 2.29c.14.25.37.45.6.6v1.48H3.4a1.7 1.7 0 00-1.69 1.69h6.72a1.7 1.7 0 00-1.69-1.69zm0 0"/>
  </g>
</svg>