<svg xmlns="http://www.w3.org/2000/svg" viewBox="0 0 16 16">
  <g fill="none" stroke="#000" stroke-linecap="round" stroke-linejoin="round" stroke-width=".75">
    <path d="M5.91 10.94H2.54a.83.83 0 00-.83.83v2.52h4.2zm7.55 0h-3.37v3.35h4.2v-2.52a.83.83 0 00-.83-.83zm0 0"/>
    <path d="M9.26 7.57H6.74a.83.83 0 00-.83.83v5.89h4.2V8.43a.87.87 0 00-.85-.86zM8 1.71c.8 0 1.46.66 1.46 1.46 0 .8-.66 1.46-1.46 1.46-.8 0-1.46-.66-1.46-1.46 0-.8.66-1.46 1.46-1.46zm1.83 4.2a2.4 2.4 0 00-3.37-.25c-.09.08-.2.17-.26.25m6.26-.43a1.46 1.46 0 010 2.91c-.8 0-1.46-.65-1.46-1.45 0-.8.66-1.46 1.46-1.46zm1.83 4.21c-.63-.72-1.6-1-2.52-.75M3.54 5.48c.8 0 1.46.66 1.46 1.46 0 .8-.66 1.46-1.46 1.46-.8 0-1.45-.66-1.45-1.46-.03-.8.62-1.46 1.45-1.46zM1.71 9.69a2.35 2.35 0 012.52-.72"/>
  </g>
</svg>