<svg xmlns="http://www.w3.org/2000/svg" viewBox="0 0 16 16">
  <g fill="none" stroke="#000" stroke-linecap="round" stroke-linejoin="round" stroke-width=".75">
    <path d="M8.83 7.57h5.03c.23 0 .43.2.43.43v5.86c0 .23-.2.43-.43.43H8.83a.44.44 0 01-.43-.43V8c.03-.23.2-.43.43-.43zm2.51 1.69h1.26m-2.51 1.68h2.51m-2.51 1.66h2.51"/>
    <path d="M6.74 12.6a5.43 5.43 0 01-5-5.86 5.4 5.4 0 015.83-5 5.42 5.42 0 014.89 4.17"/>
    <path d="M5.06 12.2V9.69s.57-.26.71-.58a.7.7 0 00-.03-.63l-.68-1.34a.74.74 0 00-.83-.37l-2.52.63m2.52-4.83v2.2c0 .34.23.63.54.71l1.06.38c.4.08.77-.15.88-.52.03-.05.03-.11.03-.17V4.4l2.32-.37c.34-.06.6-.37.6-.72v-1"/>
  </g>
</svg>