<svg xmlns="http://www.w3.org/2000/svg" viewBox="0 0 16 16">
  <g fill="none" stroke="#000" stroke-linecap="round" stroke-linejoin="round" stroke-width=".75">
    <path d="M7.57 5.91h-.83v1.26L5.06 5.91H2.54a.83.83 0 01-.83-.82V2.54c0-.45.38-.83.83-.83h5.03c.46 0 .83.38.83.83v2.52c.03.48-.34.85-.83.85zm.86 7.12h.83v1.26l1.68-1.26h2.52c.45 0 .83-.37.83-.83V9.69a.83.83 0 00-.83-.83H8.43a.83.83 0 00-.83.83v2.5c-.03.47.34.84.83.84zM4.09 9.26c.8 0 1.45.65 1.45 1.45 0 .8-.65 1.46-1.45 1.46-.8 0-1.46-.65-1.46-1.46-.03-.8.63-1.45 1.46-1.45zm2.34 5.03a2.49 2.49 0 00-4.72 0m10.2-12.15c.8 0 1.46.66 1.46 1.46 0 .8-.66 1.46-1.46 1.46a1.46 1.46 0 010-2.91zm2.38 5.03a2.49 2.49 0 00-4.72 0m-.31 3.77h3.34"/>
    <path d="M11.77 10.09l.83.82-.83.83M6.74 3.8H3.4m.83-.83l-.83.83.83.83"/>
  </g>
</svg>