<svg xmlns="http://www.w3.org/2000/svg" viewBox="0 0 16 16">
  <g fill="none" stroke="#000" stroke-linecap="round" stroke-linejoin="round" stroke-miterlimit="8" stroke-width=".75">
    <path d="M14.29 6.17v7.31c0 .46-.4.86-.86.86H2.29a.88.88 0 01-.86-.86v-7.3m12.86-1.72H1.49V2.29c0-.46.4-.86.85-.86h11.14c.46 0 .86.4.86.86v2.17zm-8.98 0l.86-2.98M9.6 4.46l.86-2.98"/>
    <path d="M6.46 11.71c-.23.12-.52 0-.63-.23-.06-.05-.06-.1-.06-.22V7.94c0-.28.23-.51.52-.51.05 0 .17 0 .23.05l3.3 1.66c.24.12.35.4.24.63a.46.46 0 01-.23.23zm0 0"/>
  </g>
</svg>