<svg xmlns="http://www.w3.org/2000/svg" viewBox="0 0 16 16">
  <g fill="none" stroke="#000" stroke-linecap="round" stroke-linejoin="round" stroke-miterlimit="8" stroke-width=".75">
    <path d="M6.23 11.54H2.29a.88.88 0 01-.86-.85V2.57c0-.46.34-.86.86-.86h11.2c.45 0 .85.4.85.86v8.12m-1.77-1.32h-.86m-8.51 0h2.97M4 8.97v.86"/>
    <path d="M6.17 5.09V3.7c0-.1.06-.23.17-.28.12-.06.23-.06.29 0l2.8 1.37c.17.11.17.34.11.46 0 .05-.06.05-.11.11L6.63 6.8c-.11.06-.23.06-.29 0a.32.32 0 01-.17-.28zm7.2 9.43l.06-.63a1.75 1.75 0 00-1.32-1.83L10 11.6V8.34c0-.57-.46-1.08-1.09-1.08-.62 0-1.02.45-1.02 1.08v5.26l-.86-.63c-.4-.28-.92-.23-1.2.17a.86.86 0 000 1.03l.28.35"/>
  </g>
</svg>