<svg xmlns="http://www.w3.org/2000/svg" viewBox="0 0 16 16">
  <g fill="none" stroke="#000" stroke-linecap="round" stroke-linejoin="round" stroke-width=".75">
    <path d="M6.71 1.43h4.86c.32 0 .57.26.57.57v1.14h-6V2c0-.31.26-.57.57-.57zm4.58 6.86a3 3 0 110 6 3 3 0 010-6zm0 0"/>
    <path d="M11.29 10c.71 0 1.28.57 1.28 1.29 0 .71-.57 1.28-1.28 1.28-.72 0-1.29-.57-1.29-1.28 0-.72.57-1.29 1.29-1.29zm-7.63.43a1.94 1.94 0 11-1.95 1.91 1.9 1.9 0 011.95-1.91zm0 2.14a.22.22 0 01-.23-.23m.43 0c0 .12-.09.23-.23.23m.03-.43c.11 0 .23.09.23.23m-.46-.03c0-.11.09-.23.23-.23m1.91.46h3"/>
    <path d="M2.57 10.74V8.06c0-.37.26-.72.63-.83l2.11-.69v2.57h1.72l.28-.42a4.82 4.82 0 016.66-1.35c.23.14.43.32.63.49M5.29 6.57l1.28-3.43m6.57 3.8l-1.43-3.8"/>
  </g>
</svg>