<svg xmlns="http://www.w3.org/2000/svg" viewBox="0 0 16 16">
  <g fill="none" stroke="#000" stroke-linecap="round" stroke-linejoin="round" stroke-width=".75">
    <path d="M2.97 10.94c.69 0 1.26.58 1.26 1.26 0 .69-.57 1.26-1.26 1.26-.68 0-1.26-.57-1.26-1.26 0-.68.58-1.26 1.26-1.26zM8 10.11a1.69 1.69 0 11-1.69 1.69c0-.94.78-1.69 1.69-1.69zM4.14 11.8h2.17"/>
    <path d="M5.48 7.17H3.8a1.7 1.7 0 00-1.69 1.69v2.43m.03-5.77h.83c.46 0 .83.37.83.82v.83m5.89 4.63l1.25-7.54H5.48v4.2c0 .91.75 1.68 1.7 1.68H8m3.34-5.88c0-.92-.74-1.69-1.68-1.69H6.74c-.91 0-1.68.74-1.68 1.69zm0 5.03h2.95l-2.1 3.34h-1.25"/>
  </g>
</svg>