<svg xmlns="http://www.w3.org/2000/svg" viewBox="0 0 16 16">
  <g fill="none" stroke="#000" stroke-linecap="round" stroke-linejoin="round" stroke-width=".75">
    <path d="M1.71 10.09H14.3m-9.24 0L8 7.57l2.94 2.52m-7.54 0v2.94l.83 1.26m2.08-4.2v2.94l.83 1.26m2.12-4.2v2.94l.83 1.26m2.11-4.2v2.94l.83 1.26M8 7.57V5.48"/>
    <path d="M13.69 7.11a.83.83 0 01-.75.46H3.06a.83.83 0 01-.75-.46l-.5-1.02a.86.86 0 01-.1-.38V4.66c0-.46.38-.83.83-.83h10.89c.46 0 .83.37.83.83V5.7c0 .15-.03.26-.09.38zM5.91 3.8A2.1 2.1 0 018 1.71a2.1 2.1 0 012.09 2.1m-5.86 2.1H1.74m12.52 0h-2.49"/>
  </g>
</svg>