<svg xmlns="http://www.w3.org/2000/svg" viewBox="0 0 16 16">
  <g fill="none" stroke="#000" stroke-linecap="round" stroke-linejoin="round" stroke-width=".75">
    <path d="M3.4 4a4.1 4.1 0 00-.66-.11.94.94 0 00-1.03.77v6.37c0 .45.35.83.77.88 1.83.23 3.55.98 4.95 2.18a.9.9 0 001.11 0 9.36 9.36 0 014.94-2.18.87.87 0 00.78-.88V4.77c0-.48-.4-.91-.89-.91h-.11l-.66.11M8 8.43v5.86"/>
    <path d="M6.52 5.34s.68 1.4 1.82 1.29c2.32-.2 2.18-3.29 3.03-4.4a5.17 5.17 0 00-4.63.06c-1.2.68-1.28 1.82-.22 3.05zm1.62-1.4s-1.51.2-2.57 2.8"/>
  </g>
</svg>