<svg xmlns="http://www.w3.org/2000/svg" viewBox="0 0 16 16">
  <g fill="none" stroke="#000" stroke-linecap="round" stroke-linejoin="round" stroke-width=".75">
    <path d="M1.71 8.71v5.06m8.4-.83c0-.94-.74-1.68-1.68-1.68H6.31c0-.95-.74-1.69-1.68-1.69H1.7v3.37zm-5.45-1.68h1.68M8.03 6.2S7.17 7.66 5.9 7.46C3.4 7.03 3.81 3.69 2.97 2.4a5.56 5.56 0 015.06.43c1.26.86 1.26 2.11 0 3.37zm2.74 1.23s.6 1.03 1.46.88c1.74-.28 1.46-2.62 2.06-3.5a3.92 3.92 0 00-3.52.28c-.86.6-.86 1.45 0 2.34zm0 0"/>
    <path d="M6.34 4.52s2.12.42 2.95 4.62a6.7 6.7 0 012.1-2.51"/>
  </g>
</svg>