<svg xmlns="http://www.w3.org/2000/svg" viewBox="0 0 16 16">
  <g fill="none" stroke="#000" stroke-linecap="round" stroke-linejoin="round" stroke-width=".75">
    <path d="M12.23 1.71l-1.66 4.06c-.09.23.03.46.26.54.06.03.08.03.14.03h2.51c.23 0 .43-.2.43-.43 0-.05 0-.08-.02-.14zm0 4.6V8M3.8 6.31L6 3.71c.14-.17.43-.17.6-.02l.03.02 2.2 2.6M13.86 8c.23 0 .43.2.43.43v.03a6.31 6.31 0 01-12.57 0c0-.23.17-.43.4-.46zm0 0"/>
    <path d="M4.09 12.91l.57-2.82h.6c.45 0 .83-.38.83-.83 0-.06 0-.15-.03-.2L5.8 8m5.49 0l.37 2.23c.05.4.43.71.82.71h1.09"/>
  </g>
</svg>