<svg xmlns="http://www.w3.org/2000/svg" viewBox="0 0 16 16">
  <g fill="none" stroke="#000" stroke-linecap="round" stroke-linejoin="round" stroke-width=".75">
    <path d="M6.8 5.29c0 1.28 1.26 2.31 1.26 2.31S9.3 6.57 9.3 5.3c0-1.29-1.25-2.32-1.25-2.32S6.8 4 6.8 5.3zm.34 1.51c1.03 1.03.89 2.86.89 2.86s-1.83.14-2.86-.89C4.14 7.74 4.3 5.91 4.3 5.91s1.82-.14 2.85.9zm0 0"/>
    <path d="M8.94 6.8c-1.03 1.03-.88 2.86-.88 2.86s1.83.14 2.85-.89c1.03-1.03.9-2.86.9-2.86s-1.84-.14-2.87.9zm-1.8 3.77c1.03 1.03.89 2.86.89 2.86s-1.83.14-2.86-.89C4.14 11.52 4.3 9.7 4.3 9.7s1.82-.15 2.85.88zm0 0"/>
    <path d="M8.94 10.57c-1.03 1.03-.88 2.86-.88 2.86s1.83.14 2.85-.89c1.03-1.02.9-2.85.9-2.85s-1.84-.15-2.87.88zm-.88 2.89v.83M4.29 5.91V4.23m7.51 1.68V4.23M8.06 2.97V1.71"/>
  </g>
</svg>