<svg xmlns="http://www.w3.org/2000/svg" viewBox="0 0 16 16">
  <path fill="none" stroke="#000" stroke-linecap="round" stroke-linejoin="round" stroke-width=".75" d="M10.09 6.74V8l4.08 5.03c.23.4.12.91-.28 1.14a.75.75 0 01-.43.12H2.54a.83.83 0 01-.83-.83.8.8 0 01.12-.43L5.9 8V6.74M8 10.09V5.06m2.4-.95c-.66.58-1.51.92-2.4.98.03-.9.37-1.72.97-2.4a4.04 4.04 0 012.4-.98c-.06.9-.4 1.72-.97 2.4zm-4.8 0c.66.58 1.51.92 2.4.98a3.78 3.78 0 00-.97-2.4 4.04 4.04 0 00-2.4-.98c.06.9.4 1.72.97 2.4zm4.71 7.23c.12 0 .2.09.2.2m-.42.03c0-.11.08-.2.2-.2m.02.4a.2.2 0 01-.2-.2m.41 0a.2.2 0 01-.2.2m-4.21-1.25c.12 0 .2.08.2.2m-.4-.01c0-.1.09-.2.2-.2m0 .43a.2.2 0 01-.2-.2m.4-.03a.2.2 0 01-.2.2M7.8 12.2c.11 0 .2.09.2.2m-.43 0c0-.11.09-.2.2-.2m.03.4a.2.2 0 01-.2-.2m.4 0a.2.2 0 01-.2.2"/>
</svg>