<svg xmlns="http://www.w3.org/2000/svg" viewBox="0 0 16 16">
  <path fill="none" stroke="#000" stroke-linecap="round" stroke-linejoin="round" stroke-width=".75" d="M6.31 3.4H5.06V2.14c0-.23-.2-.43-.43-.43H3.8c-.23 0-.43.2-.43.43V3.4H2.14c-.23 0-.43.2-.43.43v.83c0 .23.2.43.43.43H3.4v1.25c0 .23.2.43.43.43h.83c.23 0 .43-.2.43-.43V5.1h1.25c.23 0 .43-.2.43-.43v-.83a.46.46 0 00-.46-.43zm2.95 9.2H4.23c-.92 0-1.69-.74-1.69-1.69v-.82c0-.92.75-1.7 1.69-1.7h4.29c.57 0 1.1-.3 1.42-.79l.26-.51c.2-.49.66-.8 1.17-.8.66-.06 1.2.42 1.26 1.08v.17c0 .46.37.83.83.83a.83.83 0 010 1.66H12.2L11 11.69a1.7 1.7 0 01-1.46.85h-.28zM1.71 7.17s0 1.8 1.43 1.66m6.12 3.77v1.69m1.68 0l-.4-2m-7.14.08v1.92m1.66-1.69v1.69m6.57-3.4l-2.46-2.6"/>
</svg>