<svg xmlns="http://www.w3.org/2000/svg" viewBox="0 0 16 16">
  <g fill="none" stroke="#000" stroke-linecap="round" stroke-linejoin="round" stroke-width=".75">
    <path d="M9.2 4.43c-.09 1.03-.54 2-1.26 2.71A4.29 4.29 0 016.7 4.43c.08-1.03.54-2 1.25-2.72A4.28 4.28 0 019.2 4.43zm1.74 5.05c-1 .29-2.05.2-3-.22a4.4 4.4 0 012.12-2.15c1-.28 2.05-.2 3 .23a4.28 4.28 0 01-2.12 2.14zm0 4.21c-1 .28-2.05.2-3-.23a4.41 4.41 0 012.12-2.15c1-.28 2.05-.2 3 .23a4.41 4.41 0 01-2.12 2.15zm0 0"/>
    <path d="M4.97 9.48c1 .29 2.06.2 3-.22A4.4 4.4 0 005.86 7.1c-1-.28-2.06-.2-3 .23a4.28 4.28 0 002.11 2.14zm0 4.21c1 .28 2.06.2 3-.23a4.41 4.41 0 00-2.11-2.15c-1-.28-2.06-.2-3 .23a4.41 4.41 0 002.11 2.15zm2.97-6.52v7.12"/>
  </g>
</svg>