<svg xmlns="http://www.w3.org/2000/svg" viewBox="0 0 16 16">
  <g fill="none" stroke="#000" stroke-linecap="round" stroke-linejoin="round" stroke-width=".75">
    <path d="M13.74 7.57a2.9 2.9 0 00-1.71-2.66A1.63 1.63 0 0010.7 3c-.1-.03-.23-.03-.34-.03h-.11a2.9 2.9 0 00-4.8 0h-.12A1.66 1.66 0 003.7 4.94a2.93 2.93 0 00.62 5.52 2.3 2.3 0 003.03 1.11c.2-.09.37-.2.52-.34a2.3 2.3 0 003.57-.77 2.94 2.94 0 002.31-2.89zM7.86 5.91v8.38m0-4.6c1.68 0 2.51-.83 2.51-2.52"/>
    <path d="M7.86 8a1.98 1.98 0 01-2.09-1.86v-.23"/>
  </g>
</svg>