<svg xmlns="http://www.w3.org/2000/svg" viewBox="0 0 16 16">
  <path fill="none" stroke="#000" stroke-linecap="round" stroke-linejoin="round" stroke-width=".75" d="M14.29 6.6L8 2 1.71 6.6m1.46 2.26c.8 0 1.46.66 1.46 1.45 0 .8-.66 1.46-1.46 1.46-.8.03-1.46-.63-1.46-1.46 0-.8.66-1.45 1.46-1.45zm9.66 0c.8 0 1.46.66 1.46 1.45 0 .8-.66 1.46-1.46 1.46-.8 0-1.46-.66-1.46-1.46-.03-.8.63-1.45 1.46-1.45zM8 8.86c.8 0 1.46.66 1.46 1.45 0 .8-.66 1.46-1.46 1.46-.8 0-1.46-.66-1.46-1.46 0-.8.66-1.45 1.46-1.45zm-6.29 3.83a2.55 2.55 0 013.52.57c.11.14.2.31.25.48h.2a2.5 2.5 0 014.6 0h.2a2.5 2.5 0 013.29-1.31l.49.26"/>
</svg>