<svg xmlns="http://www.w3.org/2000/svg" viewBox="0 0 16 16">
  <path fill="none" stroke="#000" stroke-linecap="round" stroke-linejoin="round" stroke-width=".75" d="M1.71 9.26v5.03m0-.83h8.38a1.7 1.7 0 00-1.7-1.69H6.32c0-.91-.74-1.68-1.68-1.68H1.7m2.96 1.68h1.68M12.2 1.71a1.69 1.69 0 010 3.38 1.69 1.69 0 010-3.38zM14.29 8a2.1 2.1 0 00-2.1-2.09c-.45 0-.88.15-1.25.43M4.66 1.71a1.69 1.69 0 010 3.38 1.69 1.69 0 010-3.38zM2.54 8A2.08 2.08 0 015.9 6.34m2.53-2.11c.68 0 1.26.57 1.26 1.25 0 .7-.58 1.26-1.26 1.26-.69 0-1.26-.57-1.26-1.26 0-.68.54-1.25 1.26-1.25zm0 3.34c-.83 0-1.6.49-1.91 1.26m1.91-1.26a2.1 2.1 0 012.09 2.09"/>
</svg>