<svg xmlns="http://www.w3.org/2000/svg" viewBox="0 0 16 16">
  <g fill="none" stroke="#000" stroke-linecap="round" stroke-linejoin="round" stroke-width=".75">
    <path stroke-width=".75" d="M5.37 3.4h-1.6a.87.87 0 00-.91.83v9.23c.03.48.43.85.91.83H12c.48.02.89-.35.91-.83V4.23A.87.87 0 0012 3.4h-1.6"/>
    <path stroke-width=".75" d="M10.4 8.83c0-.23-.2-.43-.43-.43H8.71V7.14c0-.23-.2-.43-.42-.43h-.83c-.23 0-.43.2-.43.43V8.4H5.77c-.23 0-.43.2-.43.43v.83c0 .23.2.43.43.43h1.26v1.25c0 .23.2.43.43.43h.83c.23 0 .42-.2.42-.43V10.1h1.26c.23 0 .43-.2.43-.43zm0 0M9.34 2.54a1.65 1.65 0 00-2.88 0H5.8c-.23 0-.43.2-.43.43v1.69c0 .23.2.43.43.43H10c.23 0 .43-.2.43-.43V2.97c0-.23-.2-.43-.43-.43zm0 0"/>
  </g>
</svg>