<svg xmlns="http://www.w3.org/2000/svg" viewBox="0 0 16 16">
  <path fill="none" stroke="#000" stroke-linecap="round" stroke-linejoin="round" stroke-width=".75" d="M8 14.29l-4.91-1.86a.8.8 0 01-.55-.74V7.57c0-.43.35-.77.77-.77.09 0 .17 0 .26.03L8 8.54zm4.91-1.86L8 14.29V8.54l4.43-1.71a.8.8 0 011 .51.8.8 0 01.03.26v4.09c0 .31-.23.62-.55.74zM5.06 1.71a2.1 2.1 0 012.08 2.1 2.08 2.08 0 11-4.17 0 2.1 2.1 0 012.09-2.1zm5.88 0a2.1 2.1 0 012.09 2.1c0 1.16-.94 2.08-2.09 2.08A2.1 2.1 0 018.86 3.8a2.06 2.06 0 012.08-2.09zM7.17 3.86a.83.83 0 011.66 0m5.46-.06h-1.26m-10.06 0H1.71m8.38 6.29l1.25-.43"/>
</svg>