<svg xmlns="http://www.w3.org/2000/svg" viewBox="0 0 16 16">
  <g fill="none" stroke="#000" stroke-linecap="round" stroke-linejoin="round" stroke-width=".75">
    <path d="M6.74 14.29h7.12m-6.29-4.2v4.2m1.69-4.2v4.2m2.08-4.2v4.2m1.69-4.2v4.2m1.26-4.2H6.3l3.7-2.4a.51.51 0 01.63 0zm0 0"/>
    <path d="M4.52 13.23a6.3 6.3 0 01-1.75-8.71 6.3 6.3 0 018.71-1.75 6.21 6.21 0 012.78 4.8"/>
    <path d="M5.11 8.83a14.6 14.6 0 01.15-3.31 9.1 9.1 0 011.22-3.63M1.74 7.57H5.1M2.69 4.66H13.3M2.23 10.52h2.4m4.89-8.61a9.54 9.54 0 011.28 4.03"/>
  </g>
</svg>