<svg xmlns="http://www.w3.org/2000/svg" viewBox="0 0 16 16">
  <path fill="none" stroke="#000" stroke-linecap="round" stroke-linejoin="round" stroke-width=".75" d="M8.43 1.71c.8 0 1.46.66 1.46 1.46 0 .8-.66 1.46-1.46 1.46-.8 0-1.46-.66-1.46-1.46-.03-.8.63-1.46 1.46-1.46zm2.91 4.6H9.86c-.32 0-.6-.05-.89-.17l-1.66-.62a5.96 5.96 0 00-5.2.48.84.84 0 00-.28 1.14c.23.4.74.52 1.14.29A4.31 4.31 0 016 6.89l-1.86 3.6h-1.6a.83.83 0 000 1.65h2.09c.31 0 .6-.17.74-.45L6 10.57l1.74.91.29 2.09c.06.43.4.72.83.72h.11a.84.84 0 00.72-.95l-.3-2.08a1.67 1.67 0 00-.87-1.29L6.77 9.1l.86-1.66.77.28c.46.18.97.26 1.46.26h1.48c.46 0 .83-.37.83-.83a.81.81 0 00-.83-.83zm1.69 5.46c.68 0 1.26.57 1.26 1.26 0 .68-.58 1.26-1.26 1.26-.69 0-1.26-.58-1.26-1.26 0-.69.57-1.26 1.26-1.26zm0 0"/>
</svg>