<svg xmlns="http://www.w3.org/2000/svg" viewBox="0 0 16 16">
  <g fill="none" stroke="#000" stroke-linecap="round" stroke-linejoin="round" stroke-width=".75">
    <path d="M10.09 14.29H5.9l.43-2.52H9.7zm-5.43 0h6.71m-9.66-4.2H14.3"/>
    <path d="M12.6 3.4c.92 0 1.69.74 1.69 1.69v5.02c0 .92-.75 1.7-1.69 1.7H3.4a1.7 1.7 0 01-1.69-1.7V5.06c0-.92.75-1.69 1.69-1.69"/>
    <path d="M8 5.06L5.06 3.37v3.34L8 8.43zm0 0l2.94-1.69v3.34L8 8.43zm0 0"/>
    <path d="M10.94 3.4L8 1.7 5.06 3.4"/>
  </g>
</svg>