<svg xmlns="http://www.w3.org/2000/svg" viewBox="0 0 16 16">
  <g fill="none" stroke="#000" stroke-linecap="round" stroke-linejoin="round" stroke-width=".75">
    <path d="M8.83 11.77c.06.89.34 1.77.83 2.52H6.3c.52-.75.8-1.63.83-2.52m-2.07 2.52h5.85m-9.2-4.2H14.3m-3.78-8.38h2.94c.45 0 .83.38.83.83v8.37c0 .46-.38.83-.83.83H2.54a.83.83 0 01-.83-.83V2.54c0-.45.38-.83.83-.83h2.94"/>
    <path d="M8 3.23a2.1 2.1 0 012.09 2.08A2.1 2.1 0 018 7.4a2.1 2.1 0 01-2.09-2.1A2.1 2.1 0 018 3.23zm0 0v-1m0 6.2v-1m2.09-2.12h1m-6.2 0h1m.14-2.2l.63.63m3.31-.63l-.6.6M6.03 7.54l.63-.63m3.31.63l-.63-.63"/>
    <path d="M8 4.89c.23 0 .43.2.43.42 0 .23-.2.43-.43.43a.44.44 0 01-.43-.43c0-.22.2-.42.43-.42zm0 0"/>
  </g>
</svg>