<svg xmlns="http://www.w3.org/2000/svg" viewBox="0 0 16 16">
  <g fill="none" stroke="#000" stroke-linecap="round" stroke-linejoin="round" stroke-miterlimit="8" stroke-width=".75">
    <path d="M7.06 2.37c.4.46 1.14.52 1.6.06.05 0 .05-.06.05-.06l.52-.57a1.1 1.1 0 011.6-.05c.23.22.4.57.34.91l-.05.8c-.06.63.45 1.14 1.08 1.2h.12l.8-.06c.63-.06 1.14.46 1.2 1.09 0 .34-.12.68-.35.91l-.57.52a1.1 1.1 0 00-.06 1.6l.06.05.57.52c.46.4.52 1.14.06 1.6-.23.23-.57.4-.91.34l-.8-.06c-.63-.05-1.15.46-1.2 1.09v.11l.05.8c0 .63-.46 1.15-1.08 1.15-.34 0-.63-.12-.86-.35l-.52-.57a1.1 1.1 0 00-1.6-.06l-.05.06-.52.57a1.1 1.1 0 01-1.6.06c-.23-.23-.4-.57-.34-.86l.06-.8c.05-.62-.46-1.14-1.09-1.2h-.11l-.8.06c-.63.06-1.14-.46-1.2-1.09 0-.34.11-.68.34-.91l.57-.52c.46-.4.52-1.14.06-1.6l-.06-.05-.57-.52a1.1 1.1 0 01-.05-1.6c.22-.23.57-.4.85-.34l.8.06c.63.05 1.14-.46 1.2-1.09V2.6a1.07 1.07 0 011.1-1.14c.34 0 .63.11.85.34zm0 0"/>
    <path d="M7.91 5.29a2.56 2.56 0 012.58 2.57 2.56 2.56 0 01-2.58 2.57 2.56 2.56 0 01-2.57-2.57 2.56 2.56 0 012.57-2.57zm0 0"/>
  </g>
</svg>