<svg xmlns="http://www.w3.org/2000/svg" viewBox="0 0 16 16">
  <g fill="none" stroke="#000" stroke-linecap="round" stroke-linejoin="round" stroke-width=".75">
    <path d="M8 1.71c1.63 0 2.94.58 2.94 1.26 0 .69-1.31 1.26-2.94 1.26s-2.94-.57-2.94-1.26c0-.68 1.31-1.26 2.94-1.26zm0 0"/>
    <path d="M5.06 2.97v1.69C5.06 5.34 6.37 5.9 8 5.9s2.94-.57 2.94-1.25V2.97"/>
    <path d="M5.06 4.66v1.68C5.06 7.03 6.37 7.6 8 7.6s2.94-.57 2.94-1.26V4.66m-8.4 4.6H5.9c.45 0 .82.37.82.83v1.68c0 .46-.37.83-.82.83H2.54a.83.83 0 01-.83-.83v-1.68c0-.46.38-.83.83-.83zm1.69 3.34v1.69m-1.26 0h2.51m4.61-5.03h3.34c.46 0 .83.37.83.83v1.68c0 .46-.37.83-.83.83h-3.34a.83.83 0 01-.83-.83v-1.68c0-.46.37-.83.83-.83zm1.68 3.34v1.69m-1.25 0h2.5M2.54 7.57v-.83c0-.45.37-.83.83-.83m10.09 1.66v-.83a.83.83 0 00-.83-.83"/>
  </g>
</svg>