<svg xmlns="http://www.w3.org/2000/svg" viewBox="0 0 16 16">
  <g fill="none" stroke="#000" stroke-linecap="round" stroke-linejoin="round" stroke-width=".75">
    <path d="M3.99 1.71h8.1c.3 0 .56.25.56.56v11.46c0 .3-.26.56-.56.56h-8.1a.56.56 0 01-.56-.56V2.27c0-.3.25-.56.56-.56zm0 0"/>
    <path d="M3.43 3.4h9.22v5.02H3.43zm0 0"/>
    <path d="M6.36 8.42a1.68 1.68 0 013.35 0zm2.6-1.4l1.6-2.37M6.78 10.1a1.25 1.25 0 110 2.52 1.27 1.27 0 01-1.26-1.27c0-.7.56-1.26 1.26-1.26zm3.55.42c0-.12.08-.23.22-.23s.23.08.23.23c0 .13-.09.22-.23.22a.22.22 0 01-.22-.22zm0 1.68c0-.12.08-.23.22-.23s.23.08.23.22-.09.22-.23.22a.22.22 0 01-.22-.22zm0 0"/>
  </g>
</svg>