<svg xmlns="http://www.w3.org/2000/svg" viewBox="0 0 16 16">
  <g fill="none" stroke="#000" stroke-linecap="round" stroke-linejoin="round" stroke-width=".75">
    <path d="M12.74 5.94H4.2l-.63-1.23-1.28-.05c-.35 0-.6.28-.6.63 0 .08.02.17.05.23l1.15 2.6c.2.45.63.74 1.11.74h2.26l-1.4 2.88a.65.65 0 00.25.83c.09.06.18.06.29.06h1.17a.6.6 0 00.46-.23L9.9 8.86h2.78c.8.03 1.48-.57 1.54-1.4V7.4a1.5 1.5 0 00-1.52-1.49c.06.03.06.03.03.03zm0 0"/>
    <path d="M10.09 5.91l-1.7-2.25a.64.64 0 00-.48-.26H6.77c-.34 0-.6.29-.6.63 0 .08.03.2.06.28l.8 1.63"/>
  </g>
</svg>