<svg xmlns="http://www.w3.org/2000/svg" viewBox="0 0 16 16">
  <g fill="none" stroke="#000" stroke-linecap="round" stroke-linejoin="round" stroke-width=".75">
    <path d="M3.4 12.63l-.29 1.66m4.78-1.66l.28 1.66M4 4.89l-1.43 7.6 1.66.28 1.23-6.46m.37 0l1.23 6.46 1.65-.29-1.4-7.57"/>
    <path d="M7.31 4.66c0 .91-.74 1.68-1.68 1.68-.09 0-.2 0-.29-.03a1.75 1.75 0 01-1.4-1.74v-.74c0-.23.2-.43.43-.43H6.9c.22 0 .42.2.42.43zM5.63 3.4V1.7m4.2 12.59h2.51c.46 0 .83-.38.83-.83V2.54a.83.83 0 00-.83-.83H9.83a.83.83 0 00-.83.83v2.94m2.52-1.25h1.68m-1.68 2.51h1.68m-1.68 2.52h1.68m-1.68 2.51h1.68"/>
  </g>
</svg>