<svg xmlns="http://www.w3.org/2000/svg" viewBox="0 0 16 16">
  <path fill="none" stroke="#000" stroke-linecap="round" stroke-linejoin="round" stroke-width=".75" d="M13.86 12.6H4.83a.44.44 0 01-.43-.43c0-.06 0-.08.03-.14L6.23 7a.42.42 0 01.4-.29h5.08a.4.4 0 01.38.26L14.23 12c.08.2 0 .46-.23.54-.03.06-.09.06-.14.06zM8 12.6v1.69m2.52-1.69v1.69M4.03 7.57a2.47 2.47 0 01.2-3.54 2.49 2.49 0 013.54.2c.12.14.23.29.32.43M5.91 2.14v-.43M8.83 3.4l.43-.43m-6.29.43l-.43-.43m-.4 2.94h-.43m1.26 2.52l-.43.43m6.72-2.12v5.86M5.43 9.26h7.63"/>
</svg>