<svg xmlns="http://www.w3.org/2000/svg" viewBox="0 0 16 16">
  <g fill="none" stroke="#000" stroke-linecap="round" stroke-linejoin="round" stroke-width=".75">
    <path d="M12.9 8.44L7.93 10.1l-.66-.67-.98.33c-.22.09-.34.31-.25.53.03.06.05.12.08.15l1.34 1.47c.22.25.59.34.9.22l1.44-.5-.3 2.12c-.03.23.14.45.36.48.05 0 .14 0 .2-.03l.75-.25c.1-.03.22-.14.25-.25l1.11-2.87 1.4-.48c.55-.2.84-.78.67-1.34-.22-.47-.81-.78-1.34-.58zm0 0"/>
    <path d="M11.5 8.91L9.94 7.82c-.1-.08-.25-.08-.36-.05l-.75.25a.4.4 0 00-.26.53.6.6 0 00.12.16l.83.84"/>
    <path d="M5.9 12.6H3.39c-.92 0-1.68-.76-1.68-1.68V5.9c0-.92.76-1.68 1.68-1.68h7.53c.92 0 1.67.76 1.67 1.68v.83M4.64 4.22v8.37m5.02-8.37v2.1m-.83-2.1V2.55a.82.82 0 00-.84-.84H6.32a.82.82 0 00-.84.84v1.67"/>
  </g>
</svg>