<svg xmlns="http://www.w3.org/2000/svg" viewBox="0 0 16 16">
  <g fill="none" stroke="#000" stroke-linecap="round" stroke-linejoin="round" stroke-width=".75">
    <path d="M12.6 4.23v5.03c0 .45-.37.83-.83.83H4.23a.83.83 0 01-.83-.83V4.23m10.06 10.06H2.54a.83.83 0 01-.74-1.2l1.03-2.06c.28-.57.86-.92 1.48-.92h7.35c.63 0 1.23.37 1.48.92l1.03 2.06c.2.4.03.91-.37 1.1a.67.67 0 01-.34.1zM7.17 12.6h1.69"/>
    <path d="M8 2.66s-.26-.83-2.54-.92a.32.32 0 00-.37.32v3.46c.02.2.17.34.37.3 2.28.1 2.57.92 2.57.92M8 2.66s.26-.83 2.54-.92c.2-.03.37.12.37.32v3.46c-.02.2-.17.34-.37.3-2.28.1-2.57.92-2.57.92V2.66zm0 0"/>
  </g>
</svg>