<svg xmlns="http://www.w3.org/2000/svg" viewBox="0 0 16 16">
  <path fill="none" stroke="#000" stroke-linecap="round" stroke-linejoin="round" stroke-width=".75" d="M13.46 5.91H8.83L8 6.74l-.83-.83H2.54a.83.83 0 01-.83-.82V2.54c0-.45.38-.83.83-.83h10.89c.48 0 .86.38.86.83v2.52c0 .48-.38.85-.83.85zM3.17 9.26c.8 0 1.46.65 1.46 1.45 0 .8-.66 1.46-1.46 1.46a1.46 1.46 0 010-2.91zm2.31 4.88a2.51 2.51 0 00-3.3-1.31c-.18.08-.35.17-.5.26m11.15-3.83c.8 0 1.46.65 1.46 1.45a1.46 1.46 0 01-2.92 0c-.03-.8.63-1.45 1.46-1.45zm-2.31 4.88a2.51 2.51 0 013.3-1.31c.18.08.35.17.5.26M8 8.43a1.9 1.9 0 011.89 1.88A1.9 1.9 0 018 12.2a1.88 1.88 0 110-3.77zm2.63 5.86a3.4 3.4 0 00-5.29 0"/>
</svg>