<svg xmlns="http://www.w3.org/2000/svg" viewBox="0 0 16 16">
  <path fill="none" stroke="#000" stroke-linecap="round" stroke-linejoin="round" stroke-width=".75" d="M8 1.71A1.69 1.69 0 018 5.1a1.69 1.69 0 010-3.37zm2.09 7.55V8A2.1 2.1 0 008 5.91 2.1 2.1 0 005.91 8v1.26h.83l.43 3.34h1.69l.43-3.34zM3.8 3.4c.68 0 1.26.57 1.26 1.26 0 .68-.58 1.25-1.26 1.25-.69 0-1.26-.57-1.26-1.25 0-.69.57-1.26 1.26-1.26zm.68 3.46a2.1 2.1 0 00-2.77 1.97v.43h.83l.43 2.51h1.69l.2-1.25M12.2 3.4c.69 0 1.26.57 1.26 1.26 0 .68-.57 1.25-1.26 1.25a1.25 1.25 0 110-2.52zm-.68 3.46a2.1 2.1 0 012.77 1.97v.43h-.83l-.43 2.51h-1.69l-.2-1.25m3.15 2.51c0 .68-2.83 1.26-6.29 1.26s-6.29-.58-6.29-1.26"/>
</svg>