<svg xmlns="http://www.w3.org/2000/svg" viewBox="0 0 16 16">
  <g fill="none" stroke="#000" stroke-linecap="round" stroke-linejoin="round" stroke-miterlimit="8" stroke-width=".75">
    <path d="M14.11 10.69H2.17a.45.45 0 01-.46-.46c0-.06 0-.12.06-.17l2.29-4.97h8.11l2.29 4.97c.11.23 0 .46-.23.57 0 .06-.06.06-.12.06zm0 0"/>
    <path d="M3.03 14.52l1.26-3.9 1.25 3.9m5.2 0l1.26-3.9 1.26 3.9m-2.8-5.55L9.6 6.8H6.63l-.86 2.17m6.4-3.83V3.43c0-.97-.74-1.72-1.71-1.72h-3.2c-.46 0-.86.4-.86.86v.86h3.43V1.71"/>
  </g>
</svg>