<svg xmlns="http://www.w3.org/2000/svg" viewBox="0 0 16 16">
  <g fill="none" stroke="#000" stroke-linecap="round" stroke-linejoin="round" stroke-width=".75">
    <path d="M11.34 6.29a3.57 3.57 0 01.4 5.02l-.22.26a3.7 3.7 0 01-6.09-1.46"/>
    <path d="M9.77 4.91l1.14-1.14c.2-.2.55-.2.75 0l.74.71c.2.2.2.52 0 .72l-2.2 2.23a.51.51 0 01-.66.05"/>
    <path d="M11.94 4.06l1.52-1.52-.86-.83m1.69 1.69l-.83-.83M4.2 10.09h2.94m-2.48 4.2h7.97m-3.8-1.69v1.69M1.71 8.43h4.6M2.97 1.71h1.69v6.72H2.97zM6.31 3.4H8v5.03H6.31zm0 0"/>
  </g>
</svg>