<svg xmlns="http://www.w3.org/2000/svg" viewBox="0 0 16 16">
  <g fill="none" stroke="#000" stroke-linecap="round" stroke-linejoin="round" stroke-width=".75">
    <path d="M5.06 6.74h8.37M9.26 5.91v6.72M7.57 14.29a1.69 1.69 0 013.37 0zm0 0M4.23 10.09l1.68-3.35 1.7 3.35M10.94 10.09l1.69-3.35 1.66 3.35M7.57 10.09a1.69 1.69 0 01-3.37 0zm0 0M14.29 10.09a1.69 1.69 0 01-3.38 0zm0 0"/>
    <path d="M5.06 13.46H2.54a.83.83 0 01-.83-.83V2.54c0-.45.38-.83.83-.83h5.69c.11 0 .23.06.29.12l2.25 2.26c.09.08.12.17.12.28v.66"/>
  </g>
</svg>