<svg xmlns="http://www.w3.org/2000/svg" viewBox="0 0 16 16">
  <g fill="none" stroke="#000" stroke-linecap="round" stroke-linejoin="round" stroke-width=".75">
    <path d="M13.17 14.29a5.9 5.9 0 00-7.8-2.8 5.96 5.96 0 00-2.8 2.8M7.86 4.23s-.8 2-2.8 2.08a2.96 2.96 0 001.97 3.66 2.96 2.96 0 003.66-3.66c-2.03-.08-2.83-2.08-2.83-2.08zm0 0M7.86 4.23V1.71"/>
    <path d="M10.8 7.17V9.7c0 .91.74 1.68 1.68 1.68.7 0 1.26-.57 1.26-1.26 0-.68-.57-1.25-1.26-1.25.7 0 1.26-.57 1.26-1.26 0-.69-.57-1.26-1.26-1.26a4.63 4.63 0 00-4.62-4.63 4.6 4.6 0 00-4.6 4.6C2.57 6.31 2 6.9 2 7.57c0 .69.57 1.26 1.26 1.26-.69 0-1.26.57-1.26 1.26 0 .68.57 1.25 1.26 1.25.91 0 1.68-.74 1.68-1.68V7.14M7.86 10.94v2.09"/>
  </g>
</svg>